<?xml version="1.0" standalone="no"?>
<!DOCTYPE svg PUBLIC "-//W3C//DTD SVG 20010904//EN"
 "http://www.w3.org/TR/2001/REC-SVG-20010904/DTD/svg10.dtd">
<svg style="fill: black; stroke: black;" version="1.0" xmlns="http://www.w3.org/2000/svg"
 width="593.248312pt" height="893.211098pt" viewBox="0 0 593.248312 893.211098"
 preserveAspectRatio="xMidYMid meet">
<metadata>
Created by potrace 1.16, written by Peter Selinger 2001-2019
</metadata>
<g transform="translate(-300.251688,925.118034) scale(1.000000,-1.000000)"
fill="#000000" data-original="#000000" stroke="none">
<path d="M526 924 l0 -1 -1 -3 0 -2 2 0 2 -1 -2 0 -2 0 -1 -3 0 -3 -1 0 -1 0
1 -2 1 -2 -1 -1 0 0 1 0 2 1 2 0 1 0 -1 1 -1 2 1 2 0 2 1 0 1 -1 0 2 -1 2 -1
1 -1 2 1 2 0 2 -1 0 -1 1 0 -1z m0 -14 l0 -1 -1 0 -1 -1 0 1 0 1 1 0 1 0 0 0z"/>
<path d="M528 910 l0 -1 1 0 1 0 0 1 -1 1 -1 0 0 0 0 -1z"/>
<path d="M521 907 l0 -2 1 0 0 1 -1 1 -1 2 1 -2z"/>
<path d="M513 902 l0 -3 0 -1 -1 -1 -1 -3 -1 -2 -3 -3 -2 -2 0 -2 0 -1 -1 0
-1 0 -1 -4 -1 -3 -2 -4 -2 -4 -3 -1 -2 -1 -2 -6 -1 -5 -2 -2 -1 -2 0 -5 0 -5
1 1 2 1 -1 3 0 3 1 1 2 0 1 -1 1 -1 -1 -3 0 -3 -2 -2 -1 -2 1 -1 1 -1 0 -10 0
-11 1 -1 1 0 0 -9 0 -9 2 -5 1 -5 2 -2 1 -2 0 -1 0 -2 1 0 1 -1 1 -5 2 -4 3
-6 2 -5 0 -5 0 -4 -2 -3 -3 -2 0 -3 0 -3 0 -2 0 -2 -1 0 -1 -1 0 -2 0 -2 -3
-1 -3 -1 -1 -3 -2 -3 -1 -3 0 -2 -1 -1 -1 -1 0 -4 0 -3 3 -4 3 -4 -1 -2 -1 -3
1 -1 1 -2 -1 -2 -1 -1 -1 -5 -1 -5 2 -3 1 -2 2 0 1 1 0 -2 -1 -2 2 1 1 1 0 0
0 0 1 -5 0 -4 -2 1 -2 2 -1 -1 0 -1 1 0 1 1 0 -2 0 -2 -3 -1 -3 -1 1 -2 0 -1
2 -2 1 -2 -3 0 -3 1 1 -1 0 -1 -1 0 -2 1 0 -1 0 -1 -1 1 -1 0 0 -1 0 -2 0 -1
1 0 1 0 2 0 1 -2 0 -3 -3 -2 -2 -3 -2 0 -2 0 0 -1 0 -1 0 -2 0 -1 -2 -2 -1 -2
-4 -2 -4 -3 0 -1 0 0 0 -1 0 -1 -2 0 -2 0 -2 0 -2 0 -2 4 -1 4 0 5 1 6 0 5 1
5 1 6 1 7 -1 8 -1 9 -1 1 0 2 -2 6 -2 6 -1 -1 -1 0 -1 3 0 4 0 1 -1 1 0 1 -1
1 1 0 1 0 0 1 0 1 -7 7 -7 7 -4 5 -4 6 -2 4 -3 5 -2 6 -2 6 0 8 0 9 0 4 1 5
-1 -2 -1 -1 -2 -7 -1 -7 -2 -3 -1 -3 1 -4 1 -3 1 -3 2 -2 0 -3 1 -3 3 -3 4 -4
3 -6 3 -5 0 -2 0 -1 1 -4 0 -4 1 -1 1 -1 1 -4 1 -4 2 -4 1 -3 1 -5 0 -4 2 2 1
1 0 -2 0 -1 0 -4 1 -4 -2 -8 -2 -7 0 -3 1 -3 -5 -5 -4 -4 0 -1 0 -2 -2 -1 -2
-1 0 -1 0 -1 -2 -2 -1 -2 -1 -7 -1 -7 -1 -2 -2 -2 -1 -6 -2 -5 0 -4 0 -4 0 -3
1 -2 1 -1 2 -1 -1 -8 0 -7 -1 -1 -1 0 -1 -3 -2 -2 0 -4 -1 -4 -2 0 -1 0 0 -1
0 -2 -4 -1 -5 -1 0 -2 0 -2 1 -1 2 0 0 -8 -1 -7 1 -2 1 -1 0 -1 0 -1 1 -2 0
-2 -1 -2 -1 -1 -1 -2 0 -2 -1 0 -1 0 -1 -3 -1 -3 0 -3 1 -3 -1 -2 -1 -2 -2 0
-3 0 -2 -2 -2 -2 -2 0 -1 -1 -2 -1 -2 -2 0 -2 0 -2 -1 0 -1 0 0 -2 0 -3 -1 0
-2 0 0 -2 -1 -2 -1 0 -1 0 0 1 0 1 -1 -1 -1 0 1 -3 0 -4 -2 -1 -2 0 -4 -4 -4
-4 0 -1 0 -2 -1 0 -2 0 -2 5 -1 4 -2 0 -1 -1 0 2 0 2 1 2 1 2 -1 3 -2 3 1 2 1
2 4 4 4 4 0 1 0 1 2 3 2 3 2 0 1 0 1 4 0 4 1 1 1 1 -1 0 -1 0 -1 -2 0 -2 -6
-3 -5 -2 -1 0 0 0 -2 -2 -2 -2 0 -2 0 -1 -5 -5 -5 -5 -1 -6 -1 -5 -1 -1 -1 -1
0 -2 0 -1 -3 -4 -2 -4 1 -5 1 -4 1 -2 0 -2 0 -3 1 -2 1 -5 1 -5 3 -3 2 -2 1
-4 0 -3 -1 -1 -1 -1 0 0 0 1 -3 -3 -3 -3 0 -1 0 -1 -2 -2 -3 -3 0 -1 0 -1 -1
0 -1 0 -3 -5 -4 -4 0 -2 1 -1 -1 -1 -1 0 0 -3 0 -2 -2 -1 -1 -1 -1 -4 0 -5 1
-7 1 -6 -2 -2 -1 -1 2 -3 1 -4 1 0 2 0 2 -4 2 -4 0 -2 0 -1 -1 2 -2 2 -1 -3
-1 -3 0 -1 0 -1 -5 -4 -5 -5 0 -4 0 -4 -2 -3 -2 -3 0 -5 0 -5 -1 -1 0 -1 -2 0
-3 0 -1 1 -1 2 -2 -2 -2 -2 0 -5 -1 -5 3 -2 2 -2 0 -3 0 -3 1 0 1 0 0 -4 0 -3
4 -4 4 -4 3 -2 4 -1 3 0 4 0 0 -2 1 -1 1 0 2 0 0 -1 0 -1 3 -1 4 -1 0 -2 1 -2
2 -2 3 -1 3 -1 4 -2 3 -1 4 0 1 -2 2 -1 1 0 1 0 0 0 1 0 1 0 1 -1 2 -1 2 -1 0
-2 0 -2 2 0 1 0 1 -2 0 -1 2 0 2 1 2 -3 2 -3 3 0 2 0 0 -1 0 -1 2 0 2 0 0 -1
0 0 3 -2 2 -1 2 0 1 0 2 -3 2 -3 2 0 1 0 1 -2 1 -2 2 -2 2 -2 2 0 2 1 2 -4 2
-4 2 0 1 0 1 -1 1 -1 1 -2 2 -1 5 -2 5 -2 1 -3 1 -3 2 1 3 0 0 1 1 1 2 -2 2
-1 0 -2 0 -2 1 1 2 1 1 0 2 -1 0 -1 0 -2 1 0 1 0 0 -1 0 -1 -2 -1 -3 -1 0 -2
-1 -2 1 -2 0 -3 -1 -2 -1 -1 2 -3 3 -2 1 -2 0 -2 1 0 1 0 2 -2 2 -1 0 -3 1 -2
1 0 1 0 2 -2 3 -2 1 -1 1 -1 2 -1 3 -1 2 -1 2 0 2 -2 2 -1 -2 -2 -3 -1 2 -2 3
-2 0 -2 0 -1 1 0 1 0 0 -2 0 -1 1 0 1 1 -1 2 0 2 -1 1 -1 0 0 2 0 2 3 -1 3 -2
1 -3 1 -3 2 0 1 0 0 -1 -1 -1 1 0 1 0 0 2 1 2 2 1 2 2 3 0 3 -1 1 -3 1 -2 2 0
2 0 4 4 3 4 0 1 1 2 3 3 3 4 1 0 1 0 3 2 4 2 3 3 3 3 1 4 1 4 5 5 4 4 4 0 3 0
5 3 4 3 2 5 3 5 4 2 4 2 1 3 2 3 4 3 4 3 0 1 0 1 1 0 1 0 1 0 1 0 1 3 2 3 5 3
5 4 0 1 1 2 3 1 3 1 2 1 3 2 2 0 3 1 5 6 5 6 2 1 2 1 0 4 1 4 5 3 5 3 1 -1 1
0 0 1 1 1 2 -1 1 0 3 1 3 1 0 2 1 2 1 0 2 0 1 3 2 3 3 2 3 1 1 4 0 4 3 4 4 5
1 2 2 3 -1 1 0 1 -1 0 -2 0 -3 -3 -4 -3 -2 0 -2 0 0 1 0 1 1 0 1 0 8 8 9 9 0
1 0 2 2 0 2 0 3 4 3 5 2 0 1 0 0 3 0 3 -2 2 -3 3 0 1 0 1 -2 1 -2 2 -2 0 -1 0
-6 6 -6 5 -3 0 -3 0 -1 3 -1 3 0 6 0 5 3 1 2 2 1 0 0 -1 2 2 2 2 0 2 1 3 3 2
2 3 0 1 -1 1 2 0 1 1 0 6 0 7 0 2 1 3 -3 6 -2 6 -1 0 -1 0 0 1 0 2 -3 2 -3 2
-1 0 -2 0 -1 1 0 1 -1 -1 -1 0 -2 3 -2 3 -2 7 -1 7 0 8 1 7 2 5 2 5 2 2 2 2 0
1 -1 0 -4 -3 -5 -4 -2 -3 -3 -4 0 -2 0 -2 -2 -5 -3 -6 -3 -10 -2 -9 -2 -4 -2
-3 -2 0 -1 1 -1 -3 0 -3 -4 0 -4 1 -1 0 0 1 2 2 2 2 0 1 0 1 -4 -2 -3 -1 -1 0
-1 0 -2 0 -2 0 0 2 0 3 -1 1 -1 1 1 1 1 2 1 -1 2 0 2 2 3 3 2 3 2 3 0 2 1 2
-1 3 0 3 -2 0 -1 0 1 1 1 1 0 3 0 2 1 1 1 0 0 6 -1 6 -3 4 -2 3 -1 1 -1 2 -1
5 -2 5 0 8 1 9 0 2 0 3 2 3 2 4 1 0 1 0 0 2 1 3 3 3 4 4 0 4 0 4 3 2 2 2 0 0
0 1 2 2 2 2 1 2 2 2 0 1 0 2 2 4 3 5 0 7 1 8 0 3 1 3 -1 -3 -1 -2 -1 2 0 2 1
1 2 2 0 3 0 4 -1 5 -1 6 1 5 2 6 2 2 1 2 1 7 0 7 0 3 -1 2 -5 5 -5 5 0 -2 0
-1 3 -5 2 -4 1 0 1 0 0 -3 0 -3 -2 -5 -2 -5 -2 -4 -2 -4 -3 -8 -2 -7 -2 -3 -2
-3 0 0 0 -1 -2 -3 -2 -2 1 -1 0 -2 -5 -5 -4 -5 -2 0 -1 0 0 1 0 1 2 0 1 1 0 1
0 2 -1 0 0 0 -2 -1 -1 -1 0 0 1 0 -2 -2 -2 -3 -2 0 -1 0 -2 -2 -3 -3 -1 0 -1
0 -3 -3 -3 -2 -2 -1 -1 0 -4 -7 -4 -6 0 -1 0 -1 -5 -5 -5 -4 -2 -3 -1 -3 -1 0
0 0 0 8 0 9 2 4 2 5 -1 3 0 3 -1 8 0 9 -2 6 -2 6 -2 2 -1 3 -2 1 -1 1 0 9 1
10 -3 3 -3 4 2 2 1 3 -1 1 0 1 2 0 2 0 1 2 2 3 0 8 1 9 -2 7 -3 7 0 1 0 2 -1
0 -1 1 1 -3 0 -2 -1 -1 -1 -2 1 -1 0 -1 -1 0 -1 1 0 -1 0 -1 0 -1 0 -1 -5 -3
-5 -2 -1 -3 -2 -2 -1 -3 0 -2 -1 -3 -1 -3 -1 6 -1 7 -1 1 0 2 0 1 -1 1 -1 2
-1 2 1 3 0 3 -1 0 -1 -1 -1 2 -1 1 2 0 1 0 -1 1 -1 2 4 7 3 8 1 0 1 1 1 2 0 3
0 3 0 4 -1 1 -1 2 1 4 0 4 0 1 1 0 -2 6 -2 5 0 4 0 4 -3 1 -2 2 0 2 1 2 0 8 0
9 0 1 -1 2 -1 4 -1 5 1 1 0 1 -1 2 -1 2 -2 0 -1 0 0 2 0 1 -1 0 -1 -1 -1 2 -2
2 0 1 0 1 -1 0 -1 -1 0 2 0 2 -1 1 -2 2 -1 0 -1 0 0 2 0 1 -1 2 -1 2 -4 4 -4
4 -1 4 -1 3 -2 -1 -2 0 -1 4 -1 5 -1 5 -1 5 0 4 0 4 1 0 1 0 0 5 1 5 2 5 2 6
-1 3 -1 4 1 10 0 10 -1 1 -1 2 0 4 -1 5 1 1 1 1 -1 4 -2 5 2 0 1 0 0 1 0 1 -4
0 -3 0 -1 -2z m-45 -286 l-1 -2 -1 1 0 1 1 2 1 2 1 0 0 -1 -1 -3z m130 -87 l0
-1 2 0 1 1 0 -1 0 -1 -2 -2 -2 -2 1 -1 0 -2 -1 0 -1 0 0 -7 -1 -7 -3 -3 -3 -3
-1 1 0 1 1 3 2 3 -1 4 0 5 -1 -1 -1 0 0 1 0 1 2 0 1 0 0 1 0 1 1 0 1 0 2 5 1
5 1 0 1 0 0 -1z m-9 -8 l-1 -1 1 1 0 2 1 0 0 -1 -1 -1z m-208 -42 l-1 -1 0 2
0 3 1 -2 0 -1 0 -1z m246 -61 l1 -1 -2 0 -2 0 1 1 0 1 1 0 1 0 0 -1z m13 -8
l-1 -2 -1 0 -1 0 0 1 0 1 2 0 2 1 0 0 0 0 -1 -1z m-306 -72 l-1 -3 -2 -2 -1
-2 -1 0 0 1 1 3 1 3 0 4 0 5 2 -3 1 -3 0 -3z m3 -5 l0 -3 -1 0 -1 0 0 3 0 3 1
0 1 0 0 -3z"/>
<path d="M423 787 l0 -2 1 1 0 1 0 1 -1 2 0 -3z"/>
<path d="M560 678 l0 -1 -1 -1 -1 -1 0 -1 1 0 1 1 1 2 0 1 0 1 -1 0 -1 0 1 -1z"/>
<path d="M403 557 l0 -1 1 0 1 0 0 1 0 1 -1 0 -1 0 0 -1z"/>
<path d="M319 525 l0 -1 1 1 1 0 0 1 0 0 -1 0 -1 0 0 -1z"/>
<path d="M333 496 l0 -1 1 1 1 0 0 1 0 1 -1 0 -1 0 0 -2z"/>
<path d="M325 432 l0 -2 2 0 2 1 0 1 0 1 -2 1 -2 0 0 -2z"/>
<path d="M448 189 l0 -1 1 1 0 1 0 1 -1 0 0 -2z"/>
<path d="M488 114 l0 -2 -3 -1 -2 -1 0 -1 0 -1 2 0 2 0 0 1 0 2 2 1 2 1 0 1 0
1 -1 0 -1 0 -1 -1z"/>
<path d="M854 54 l-3 -3 0 -1 0 -1 -3 -4 -4 -3 1 -1 0 0 3 2 3 3 4 0 4 0 -4
-3 -4 -4 0 -2 1 -1 0 2 1 2 4 3 5 4 -2 0 -2 0 -3 0 -3 0 0 1 0 0 3 4 3 3 0 1
-1 1 -3 -3z"/>
<path d="M867 48 l-2 -2 0 -1 1 -1 2 0 1 0 3 2 3 1 0 -1 0 -2 1 0 2 0 1 2 2 1
0 1 0 2 -2 -2 -1 -2 -1 1 -2 1 -3 -2 -4 -1 -1 0 0 1 1 2 1 1 0 1 -1 0 -1 -2z"/>
<path d="M882 47 l0 -1 2 -2 2 -2 4 -1 4 0 -4 1 -3 1 -2 2 -1 1 1 1 0 1 -1 0
-1 0 -1 -1z"/>
<path d="M823 45 l-2 -1 1 0 2 1 -1 -2 0 -3 1 0 1 -1 4 2 5 1 0 1 -1 0 -3 -1
-4 -1 -1 0 0 1 1 2 1 2 -1 0 -1 1 -2 -2z"/>
<path d="M839 44 l1 0 1 0 2 1 -3 0 -2 0 1 -1z"/>
<path d="M809 39 l-8 -4 -3 -1 -3 -1 -3 2 -3 1 1 -1 2 -2 2 0 3 -1 11 5 11 6
-1 0 -1 0 -8 -4z"/>
</g>
</svg>
