<?xml version="1.0" standalone="no"?>
<!DOCTYPE svg PUBLIC "-//W3C//DTD SVG 20010904//EN"
 "http://www.w3.org/TR/2001/REC-SVG-20010904/DTD/svg10.dtd">
<svg style="fill: black; stroke: black;" version="1.0" xmlns="http://www.w3.org/2000/svg"
 width="588.213940pt" height="863.244889pt" viewBox="0 0 588.213940 863.244889"
 preserveAspectRatio="xMidYMid meet">
<metadata>
Created by potrace 1.16, written by Peter Selinger 2001-2019
</metadata>
<g transform="translate(-429.119394,1024.000000) scale(1.000000,-1.000000)"
fill="#000000" data-original="#000000" stroke="none">
<path d="M985 1023 l1 0 1 0 0 1 -2 0 -1 0 1 -1z"/>
<path d="M1015 1023 l1 0 1 0 0 1 -2 0 -1 0 1 -1z"/>
<path d="M565 707 l-1 0 0 -2 0 -1 1 1 1 1 0 1 -1 1 0 -1z"/>
<path d="M553 690 l0 -3 -1 -4 -1 -3 1 -1 2 -1 0 -2 1 -1 1 3 0 3 1 0 1 1 0 3
0 3 1 1 1 2 -3 -1 -2 0 -1 1 -1 2 0 -3z"/>
<path d="M550 668 l-1 -2 0 -1 0 -1 1 0 1 0 1 3 1 2 -1 1 -1 0 -1 -2z"/>
<path d="M546 660 l-1 -1 1 -2 0 -1 -1 0 -2 1 -1 -2 -1 -2 -1 1 0 1 -3 -4 -2
-3 -2 -1 -2 -1 1 1 0 2 -2 -2 -2 -2 -1 0 -1 0 1 1 0 1 -2 0 -2 0 -1 1 -1 2 1
0 1 1 -3 -2 -3 -1 -3 -5 -3 -4 -4 -2 -4 -2 -1 -1 -1 -2 -2 0 -1 0 0 2 0 2 1 3
1 3 -1 0 -1 0 -1 3 -2 3 -2 2 -2 2 -3 0 -3 0 0 -1 0 -1 -2 0 -2 0 -3 -5 -3 -4
-5 -4 -4 -4 -1 -3 0 -2 -6 0 -6 1 -2 -1 -2 -1 -4 -4 -3 -3 0 -1 0 -1 0 -2 0
-1 -1 0 -1 0 -2 -4 -1 -3 0 -3 -1 -3 -3 -8 -4 -8 1 -3 1 -3 1 -5 2 -4 2 -4 1
-3 -1 -4 -1 -4 2 -3 2 -2 0 -2 0 -2 7 -3 7 -3 2 -2 2 -2 12 1 13 0 3 2 3 2 1
0 2 0 3 2 4 3 -1 2 0 3 1 1 2 1 4 0 4 1 1 1 1 2 1 -1 1 -1 2 -2 2 -1 2 0 3 0
1 1 2 2 2 1 2 1 0 1 -1 1 1 2 1 3 0 2 0 3 1 0 1 0 0 -1 1 -1 0 1 0 2 -1 1 -1
1 1 2 2 3 -1 0 -1 0 -1 -1 -1 -1 -1 1 -1 1 1 0 2 0 1 1 0 1 -2 0 -2 -1 0 1 0
1 2 0 2 1 -5 0 -5 1 -1 1 0 1 1 1 2 1 -2 0 -2 0 0 4 0 4 -1 1 -1 2 -1 3 -1 4
1 1 1 2 0 5 1 5 3 1 2 1 1 1 0 1 1 2 0 3 0 1 1 2 2 3 2 4 2 0 2 1 3 3 4 3 3 3
4 3 -1 5 0 5 0 1 -1 0 0 -1z m-19 -20 l-2 -1 -1 0 -1 0 2 2 3 2 0 -1 0 0 -1
-2z m-8 -55 l-1 0 -1 0 -1 1 1 0 2 0 0 -1z m-6 -7 l1 -2 -1 -1 -1 -1 -1 1 -2
0 0 3 0 2 2 0 1 0 1 -2z m3 -5 l0 -1 -4 0 -4 0 1 1 0 1 3 0 3 -1 1 0z m-3 -5
l0 -1 -1 0 -1 0 1 1 0 1 1 0 0 0 0 -1z m-26 -2 l2 0 -2 -3 -2 -2 -1 2 -1 2 1
1 1 1 1 0 0 0 1 -1z m11 -5 l1 0 0 -1 0 -1 2 0 1 1 0 -1 0 -1 -2 0 -1 -1 -1 1
-1 0 -3 1 -2 0 -1 1 0 0 1 1 2 1 -3 -1 -2 0 0 1 0 1 1 1 1 1 2 0 3 1 0 -3 0
-2 2 0z m0 -7 l-1 -1 -1 0 -1 0 1 1 0 1 1 0 1 0 0 -1z"/>
<path d="M508 653 l-3 -1 -1 0 0 -1 0 -2 1 -1 4 2 3 2 2 0 2 -1 0 1 -1 2 -2 0
-1 0 -4 -1z"/>
<path d="M500 648 l-1 0 2 -3 1 -2 0 3 0 3 0 0 0 0 -2 -1z"/>
<path d="M498 644 l0 -1 1 1 1 0 0 1 0 1 -1 0 -1 0 0 -2z"/>
<path d="M579 589 l-1 -1 0 -4 1 -3 -1 1 -1 0 0 -4 0 -5 -1 0 -1 0 0 -3 -1 -4
-3 -5 -4 -5 -1 2 -2 2 -4 -4 -4 -4 -2 0 -2 0 -2 -3 -3 -4 -4 -3 -5 -2 -1 -3 0
-2 -3 0 -2 1 -3 -2 -2 -1 -6 -4 -5 -4 -1 -2 0 -2 -3 -1 -2 0 -4 -3 -3 -2 -1
-1 -1 -1 -3 -4 -3 -4 -2 0 -1 0 -4 -4 -3 -4 -5 -4 -5 -4 -2 -3 -2 -3 1 0 1 -1
2 3 2 3 1 0 2 0 3 3 3 3 2 0 1 0 0 -1 0 0 -1 -2 -2 -2 -1 0 -2 0 -2 -3 -3 -3
0 -1 0 -2 -2 0 -2 1 1 -1 1 0 -2 -2 -1 -2 -2 0 -1 0 1 2 1 1 -1 0 -1 0 -1 -1
-1 -2 -1 0 0 0 -4 -3 -3 -3 -3 1 -2 1 -2 0 -2 0 -2 -3 -1 -2 -1 -4 0 -3 2 -2
1 -2 2 0 1 0 0 -1 -1 0 -1 -4 -2 -4 -2 -1 -2 0 -2 -5 -1 -4 1 -3 1 -3 2 -2 1
-2 3 -1 4 0 4 -3 4 -2 4 1 4 2 2 0 3 0 3 4 4 4 9 -1 10 -1 2 0 2 1 2 0 3 1 3
4 2 3 2 0 3 0 0 -1 1 -1 -1 -2 -1 -2 0 -1 1 0 2 3 2 4 2 0 2 0 -1 -2 -1 -2 0
-1 0 -1 0 -5 -1 -5 -2 -1 -1 -1 -2 1 -2 2 -1 -2 -2 -2 1 -4 2 -4 -2 -3 -2 -3
-1 0 -1 0 -1 1 0 1 1 1 1 0 0 2 0 1 -1 0 -1 -1 0 -4 0 -4 -2 0 -1 0 0 -1 -1
-2 2 0 3 0 1 -2 1 -1 -1 -3 -1 -2 -1 1 -1 0 -2 -2 -1 -2 -3 0 -4 0 0 2 0 1 -2
0 -1 -1 -1 0 -1 0 0 -2 -1 -2 2 -1 1 0 2 1 1 1 1 0 0 -1 -5 -3 -4 -2 -3 -3 -3
-2 0 0 0 1 1 2 1 2 0 1 -1 2 -1 -4 -2 -4 -6 -6 -5 -6 -3 0 -3 0 -2 -3 -3 -3
-1 -3 -1 -2 1 -1 1 -1 1 1 0 2 2 0 1 0 0 -3 0 -3 -1 -3 -1 -2 1 -3 1 -3 2 0 2
-1 0 1 0 1 2 0 2 0 0 1 0 1 -3 -1 -2 0 1 5 0 4 1 2 1 1 2 0 3 1 2 3 1 3 1 1 0
1 1 3 2 2 1 0 1 0 0 -1 0 -1 1 1 1 0 0 -1 -1 -2 2 1 2 0 2 3 3 2 -3 0 -2 -1
-3 -1 -2 0 0 1 0 1 4 3 5 4 2 1 3 1 2 0 2 0 -4 -3 -5 -3 0 -1 0 0 3 2 4 1 -2
-1 -1 -2 1 0 1 0 0 1 1 1 1 0 1 0 2 1 2 0 0 1 1 1 3 1 4 1 1 -1 1 0 1 -1 2 0
0 1 0 1 5 1 5 0 1 1 1 1 4 -1 4 0 1 -3 0 -2 2 -1 1 -1 1 1 1 1 -2 3 -1 3 2 1
2 2 1 0 1 0 2 5 3 6 2 0 2 0 1 3 1 2 1 -1 2 0 3 2 3 2 1 0 1 -1 1 1 1 2 3 -1
2 0 0 1 -1 2 1 1 1 1 6 3 6 4 4 3 3 4 0 2 0 3 0 0 0 1 1 4 1 3 -1 0 -1 0 1 3
0 4 1 1 1 1 1 5 2 5 0 4 0 4 -1 7 -2 8 -4 5 -3 5 -3 2 -2 2 -2 0 -2 0 -2 4 -3
4 -2 2 -3 2 -4 1 -4 0 -2 1 -1 0 -2 0 -2 1 0 2 0 1 -3 3 -2 3 -2 -1 -1 0 0 1
-1 1 -2 0 -2 0 -1 1 -1 2 1 2 1 2 1 0 1 0 1 1 2 2 3 2 3 3 0 1 0 1 2 2 3 1 0
3 1 2 1 0 1 0 0 2 0 2 2 2 2 2 1 2 2 2 1 3 2 4 2 0 2 1 0 4 0 3 1 1 0 1 1 2 0
3 1 3 0 4 1 1 0 1 -3 3 -3 3 0 -1z m-6 -30 l-1 -2 -1 0 0 1 1 2 1 2 1 0 0 -1
-1 -2z m-6 -6 l-2 -4 -1 0 0 0 1 1 0 2 2 2 2 2 1 0 0 0 -3 -3z"/>
<path d="M579 559 l0 -1 1 1 1 0 0 1 0 0 -1 0 -1 0 0 -1z"/>
<path d="M516 430 l0 -2 2 0 1 0 0 2 0 1 -1 0 -2 0 0 -1z"/>
<path d="M452 302 l1 -1 1 0 0 0 1 1 0 1 -1 0 -2 0 0 -1z"/>
<path d="M510 299 l0 -2 -2 -2 -2 -3 -1 1 -2 0 -2 -3 -2 -2 1 -3 2 -3 1 -5 0
-5 2 -1 1 0 0 -3 0 -3 2 -3 3 -3 1 -4 2 -4 1 -7 2 -8 0 -14 -1 -13 -1 -5 -2
-5 1 0 1 1 2 8 2 8 0 13 -1 14 -2 7 -1 7 -3 5 -2 6 -1 8 0 8 1 7 1 7 0 1 -1 2
0 -2z"/>
<path d="M513 196 l0 -2 1 1 0 1 0 1 -1 2 0 -3z"/>
<path d="M512 190 l0 -2 1 1 0 1 0 1 -1 2 0 -3z"/>
<path d="M510 176 l-1 -4 -3 -4 -2 -3 0 -1 0 -1 2 -1 1 -1 2 1 1 1 2 6 1 5 -1
3 -1 4 -1 -5z"/>
</g>
</svg>
