<?xml version="1.0" standalone="no"?>
<!DOCTYPE svg PUBLIC "-//W3C//DTD SVG 20010904//EN"
 "http://www.w3.org/TR/2001/REC-SVG-20010904/DTD/svg10.dtd">
<svg style="fill: black; stroke: black;" version="1.0" xmlns="http://www.w3.org/2000/svg"
 width="751.118034pt" height="505.510824pt" viewBox="0 0 751.118034 505.510824"
 preserveAspectRatio="xMidYMid meet">
<metadata>
Created by potrace 1.16, written by Peter Selinger 2001-2019
</metadata>
<g transform="translate(-138.000000,779.197972) scale(1.000000,-1.000000)"
fill="#000000" data-original="#000000" stroke="none">
<path d="M471 776 l1 -2 1 -7 0 -7 -2 -3 -1 -2 0 -4 1 -4 -2 -4 -2 -3 1 -4 0
-3 2 -1 2 -1 0 -7 -1 -8 2 -3 1 -3 -1 -1 -2 -1 0 -3 0 -3 -1 0 -2 0 0 -3 -1
-2 -2 -1 -1 0 -7 -7 -6 -7 -2 0 -1 0 -3 -4 -4 -3 0 -1 0 -2 -2 -1 -2 -2 1 -1
0 -2 -1 0 -1 0 0 -3 0 -4 1 0 1 0 1 -3 1 -3 0 -3 0 -3 -2 -4 -2 -3 -3 -1 -3
-1 0 -1 0 -1 -2 0 -1 0 -1 -1 0 -2 -2 0 -1 0 -1 -2 -1 -3 -3 -2 -3 -2 -1 -1 0
0 -3 -2 -2 -1 -2 0 -3 0 -1 -1 0 -1 -1 1 -1 0 0 -2 0 -3 -2 -1 -2 0 -2 -3 -1
-2 -4 -2 -4 -1 -2 -3 -3 -3 -2 -8 -3 -9 0 -3 0 -3 0 -4 1 -4 1 0 1 0 2 -4 2
-4 2 -3 1 -3 5 -4 4 -4 3 -1 2 -1 3 0 3 0 2 2 2 2 0 2 -1 1 3 0 3 -1 1 -1 1
-1 1 1 0 1 2 -1 2 -1 0 -2 0 -2 -4 -3 -3 -2 -3 -3 -3 -3 -1 0 -1 0 0 -1 0 -2
-2 -1 -2 -2 -3 -1 -4 0 1 -1 0 -1 -1 1 -2 0 0 -1 0 -1 1 0 1 0 -6 -6 -6 -5 -3
-3 -3 -2 -2 0 -3 0 -3 -1 -2 -1 -3 -2 -2 -2 -4 -1 -4 0 -3 1 -3 1 0 1 0 1 -1
0 -2 0 -1 2 -1 3 -1 1 0 2 0 1 -1 2 -2 5 -2 5 -5 4 -5 4 -3 0 -2 0 -1 -2 -2
-2 -2 1 -2 1 -6 0 -5 1 -4 -2 -4 -2 -3 -2 -2 -2 -1 -4 -2 -3 0 -4 0 -3 -1 -1
-2 -2 0 -2 -1 -3 -2 0 -2 0 -3 -3 -4 -4 0 -1 0 -2 -1 0 -1 0 0 -2 -1 -3 1 -3
1 -2 -2 -2 -2 -2 -1 -1 -1 -1 -2 -1 -1 -2 0 -2 -1 -3 -3 0 -4 -1 -3 -2 -3 -1
-1 -1 -1 -2 0 -5 -1 -4 2 -3 2 -3 2 -2 1 -1 -1 -2 -2 -2 -3 0 -3 0 -4 -2 -4
-1 -3 0 -3 0 0 -3 0 -3 -2 -1 -2 -1 -1 1 -1 0 0 2 0 1 -3 3 -2 2 -1 -1 -1 0 0
-2 0 -2 0 0 0 0 -5 -1 -5 0 -9 -4 -9 -3 -2 -2 -2 -1 0 -2 1 -1 -2 -2 -1 -3 0
-2 0 -2 -1 0 -1 0 0 -4 1 -4 -2 -2 -2 -1 0 -2 0 -2 -2 -1 -2 -1 -1 0 0 0 1 1
1 1 0 2 0 2 -2 1 -3 1 0 1 0 2 -1 -3 -1 -2 0 -4 -1 -3 1 0 1 0 -2 -2 -3 -3 -4
0 -5 0 -1 2 -1 2 -2 1 -3 0 -2 -1 -2 -1 1 -3 1 -2 2 -1 2 -1 -1 -2 0 -2 -1 -2
0 -1 0 -2 0 -2 -1 1 -2 0 0 -1 -1 -1 0 -3 -1 -3 3 -3 3 -4 1 1 0 2 1 -1 1 0
-1 -3 -1 -3 1 -2 1 -2 1 0 1 0 0 -1 0 0 -3 0 -2 0 -1 -2 0 -1 1 0 2 0 0 0 1 0
1 -1 1 -2 -3 -1 -3 -1 -1 -3 0 -3 -3 -1 -2 -1 1 -2 1 -3 2 0 2 1 -1 -3 0 -2 1
0 1 0 1 -3 2 -2 3 -1 4 0 0 -2 0 -2 2 0 1 0 2 2 3 1 1 0 1 -1 0 1 0 1 3 0 3 0
0 -1 0 -1 3 -1 3 -2 3 2 2 1 3 1 2 0 3 -2 2 -3 3 0 3 0 2 0 2 -1 2 -1 2 0 1
-1 0 -1 1 0 1 0 0 2 0 1 1 0 1 -1 2 1 2 1 1 -1 1 -1 3 0 3 0 0 -1 0 -1 2 0 1
-1 3 3 2 2 3 -2 3 -2 1 -2 2 -2 0 0 1 0 2 -1 3 -2 2 1 1 1 0 -1 0 -1 1 1 1 1
4 -1 4 -1 7 1 6 2 1 2 2 2 0 3 0 3 1 0 1 -1 0 1 0 1 -2 0 -2 0 0 2 0 1 1 1 2
2 3 0 3 1 -1 -2 -1 -1 1 -1 1 -1 0 0 0 1 2 -1 1 -2 5 0 5 0 0 1 1 1 4 -2 4 -1
0 -1 0 -1 3 1 4 0 2 1 2 0 2 3 3 2 6 -2 7 -3 3 1 3 1 1 3 0 3 2 0 1 0 0 1 0 1
1 0 1 0 3 1 3 1 1 1 2 0 1 -2 0 -2 1 1 2 0 0 -1 1 -1 3 1 3 0 1 -3 2 -3 2 -1
2 0 2 1 2 2 7 3 8 4 3 0 3 1 0 1 0 2 3 1 3 2 1 -1 1 -1 0 0 1 0 1 1 1 1 4 1 3
0 3 2 2 3 1 0 1 0 2 -2 3 -2 2 0 3 0 4 4 5 3 1 0 2 0 3 1 4 2 6 -2 5 -2 2 0 1
0 0 2 1 2 3 -2 3 -1 1 1 1 1 1 -2 2 -1 -2 0 -1 1 1 -1 0 -2 1 0 1 1 2 -3 2 -2
0 -1 0 -2 4 -3 5 -4 2 0 2 -1 8 -1 8 0 2 0 2 -1 4 -1 4 -1 4 -1 4 -1 0 -2 0
-1 3 0 3 0 1 1 0 1 1 -1 1 0 4 4 3 4 0 1 0 1 3 2 2 3 2 0 1 -1 5 3 4 2 4 0 4
-1 3 -2 4 -2 9 0 9 1 2 -3 3 -3 0 -1 0 -1 1 0 1 0 1 -2 0 -2 2 0 1 0 4 -5 4
-6 3 -2 2 -1 0 -2 0 -1 1 0 2 0 1 -1 1 -2 3 -1 4 -1 4 0 5 0 2 -1 2 -1 1 -2 2
-1 4 0 4 -1 4 -1 5 -1 6 -7 7 -6 3 -1 2 0 9 1 8 1 1 1 2 0 1 1 1 0 3 1 4 2 5
4 5 5 5 -1 6 0 1 0 2 0 5 2 4 3 3 6 3 7 1 2 0 2 0 2 0 2 4 1 4 2 3 2 3 1 3 2
3 2 4 -1 4 0 1 -1 1 -1 2 -1 2 -1 6 0 6 0 2 1 3 2 2 2 3 2 2 3 3 4 0 1 0 2 2
1 3 2 4 0 5 0 3 2 3 2 1 4 1 5 0 3 0 4 2 2 3 3 2 4 3 4 0 1 0 2 1 5 1 5 1 3 1
4 5 2 6 3 1 0 2 0 0 1 1 1 3 0 3 1 1 3 0 2 -1 1 -1 1 2 2 2 2 0 0 -1 0 2 4 2
4 -1 1 -1 1 -2 0 -1 0 0 1 0 1 1 1 2 1 1 -1 1 -1 1 1 2 0 0 2 0 2 -1 1 -1 0 0
3 1 3 -2 0 -2 0 0 2 1 2 -1 1 -2 1 -1 3 -1 4 2 1 2 2 0 2 0 1 1 2 1 2 0 1 -1
2 -1 0 -1 0 0 -2 1 -3 -3 2 -2 1 -2 -2 -1 -2 -2 0 -1 0 0 1 -1 1 -3 0 -4 0 -1
3 0 2 -2 0 -1 0 -1 2 0 2 -2 0 -1 0 -3 0 -3 0 -1 3 -1 4 -1 0 -1 0 -3 1 -2 1
0 2 0 2 -3 1 -4 1 -2 -1 -2 0 -3 -2 -2 -2 -4 0 -4 0 -5 5 -6 6 -4 2 -5 2 -2
-1 -2 -2 -2 3 -3 3 -7 -1 -6 0 0 1 1 1 -2 2 -1 2 -2 0 -1 0 -3 3 -2 2 -2 0 -2
0 -1 1 -1 2 -3 1 -3 1 0 2 1 1 -4 2 -4 2 -1 3 0 3 -2 1 -1 2 -4 1 -3 2 0 -1 0
0 -3 2 -2 3 -3 1 -2 1 -2 1 -2 2 -1 0 -1 1 -4 0 -4 0 -1 1 0 1 -2 0 -2 0 0 1
0 1 -1 -1 -1 0 -2 2 -1 2 -1 2 -1 3 0 1 0 1 1 2 0 3 -3 2 -2 1 0 1 1 1 -1 1 0
1 -3 1 -3 2 -1 -1 -1 0 0 -2 0 -1 0 -2 0 -1 -2 -2 -1 -2 -1 1 -2 2 -1 0 -1 -1
0 2 0 2 -1 0 -1 1 -2 -2 -2 -1 -1 2 -1 2 -1 0 -2 0 -1 2 -1 2 0 -1 0 -1 -2 1
-2 1 -2 -2 -1 -1 -1 1 -1 1 0 0 0 0 -2 -2 -1 -2 -1 -1 -1 0 0 1 1 1 -1 1 -2 0
1 3 0 4 -2 -1 -2 0 -1 0 -1 0 0 -2 -1 -1 2 -3 3 -2 0 -1 0 -1 -1 0 -1 0 -1 -3
-2 -3 2 -3 1 -3 0 -2 0 -1 -2 0 -2 -1 -1 1 0 1 -1 0 -1 0 1 -1 0 -1 -1 0 -2 0
0 1 0 1 -1 0 -2 1 -1 -1 -2 0 0 -3 0 -2 -3 -1 -2 -1 -1 -2 0 -3 2 -3 3 -3 1 0
1 0 0 -1 0 -1 -3 0 -2 0 -1 3 -1 3 -1 0 -1 0 0 1 0 1 -2 2 -2 2 -1 0 -2 0 -2
3 -1 2 -2 2 -1 2 -1 0 -1 0 -3 3 -3 4 0 0 0 1 -9 4 -8 5 -3 2 -2 2 -1 0 -1 0
0 2 0 1 -1 0 -1 0 0 1 0 1 -3 3 -3 3 0 1 0 1 1 0 1 0 2 3 2 3 -4 4 -4 4 -3 6
-2 6 -1 0 0 1 2 1 3 1 1 2 1 3 -1 4 -1 3 1 1 0 1 2 0 2 0 2 2 2 2 1 2 1 3 -3
4 -3 4 0 1 0 1 -1 1 -2 1 0 3 0 2 -1 1 -1 0 0 7 0 7 -2 4 -2 4 -3 2 -2 1 -4 1
-5 1 -3 -1 -4 -1 0 3 -1 3 -4 1 -5 2 -5 0 -5 0 0 1 0 1 0 1 0 1 -1 0 -1 0 0
-2 0 -1 -1 1 -1 1 -1 0 -1 -1 1 -1 2 -2 -2 0 -2 0 -1 2 0 2 -3 0 -2 1 0 2 1 1
-1 -1 -1 0 0 1 0 2 -1 0 -1 1 1 1 0 1 0 3 1 2 -2 1 -1 0 0 1 0 2 0 1 0 1 2 1
3 0 2 0 3 1 2 1 2 1 1 2 1 2 0 3 0 3 -2 4 -2 5 -2 1 -2 2 -1 1 -2 1 -5 3 -6 4
-1 0 -1 0 0 1 0 1 -1 -1 -2 0 -3 4 -3 3 -5 4 -4 5 -1 4 -1 4 0 4 0 4 -1 1 -2
0 0 -3z m161 -252 l0 -1 -1 0 -1 0 0 1 -1 1 1 1 1 0 -1 1 0 2 1 -2 2 -1 -1 -2z
m2 -14 l0 -2 -2 -3 -1 -3 0 -6 -1 -5 1 -2 1 -2 4 -4 4 -4 0 -1 0 -1 1 0 1 0 0
-1 0 -2 2 -2 2 -2 0 -1 0 -2 2 -1 2 -2 4 0 4 1 1 0 2 1 2 -3 2 -2 0 -2 0 -2
-1 0 -1 -1 0 1 0 2 0 0 0 1 -1 1 -2 0 -2 -1 -2 -1 0 -2 0 -2 1 -1 2 -1 2 0 1
1 1 -1 1 0 -1 -2 -1 -2 -4 0 -3 0 -2 -2 -2 -2 -1 1 0 1 -2 -1 -1 0 -2 1 -2 2
-4 -1 -4 -1 -1 1 0 1 -2 0 -1 0 0 1 0 1 -1 0 -1 -1 0 1 0 1 -2 0 -2 0 -2 -1
-2 -1 -2 2 -2 1 0 2 0 1 -2 0 -2 0 0 2 -1 2 -2 1 -2 0 -2 -1 -1 -1 -1 2 -2 1
1 2 0 1 -1 0 -2 0 -4 5 -5 4 0 1 0 0 2 0 2 0 2 2 2 1 0 2 0 1 -1 0 -1 1 2 0 2
0 0 2 0 2 -1 1 -1 1 -1 -1 -2 -2 1 -1 0 -1 -1 -1 -1 0 -1 1 -1 1 -4 0 -3 0 -1
1 0 1 -2 0 -2 0 -2 1 -2 2 -3 0 -2 1 -1 1 -1 2 0 0 0 1 3 -1 2 0 0 1 0 2 2 0
3 -1 -2 1 -1 0 0 1 0 1 2 1 2 1 1 0 1 -1 1 1 1 1 2 -1 1 -1 1 1 0 1 1 0 2 0 0
-2 1 -2 2 -2 3 -1 1 1 1 1 3 -3 3 -3 7 0 6 0 1 3 1 3 1 1 2 1 3 4 4 4 0 2 -1
3 1 2 0 2 1 -1 1 -1 1 -3z m-66 -9 l0 -1 0 0 -1 0 0 1 -1 1 1 0 1 0 0 -1z m4
-3 l0 -2 -1 0 -1 -1 0 4 0 3 1 -1 1 -1 0 -2z m4 1 l0 -1 -1 0 -1 0 0 1 -1 1 1
0 2 0 0 -1z m-399 -112 l0 -1 -3 0 -3 -1 0 1 0 0 2 2 1 2 2 -1 1 -2 0 0z m197
-60 l0 0 -1 0 -1 1 0 1 0 1 1 -1 2 -1 -1 -1z"/>
<path d="M609 478 l-1 -1 1 0 1 -1 0 1 0 2 0 0 -1 0 0 -1z"/>
<path d="M619 469 l-2 0 0 -2 0 -2 1 0 2 -1 2 2 2 1 -2 1 -1 2 -2 -1z"/>
<path d="M634 462 l-1 -2 2 -1 2 -1 2 1 1 2 -1 1 -1 2 -2 0 -1 0 -1 -2z"/>
<path d="M624 456 l1 -1 1 -1 2 0 0 2 -1 1 -1 1 -2 0 0 -2z"/>
<path d="M645 454 l-1 -1 0 -1 1 0 1 1 1 1 0 0 -1 1 -1 -1z"/>
<path d="M510 699 l0 -1 1 0 1 0 0 1 0 1 -1 0 -1 0 0 -1z"/>
<path d="M509 696 l-1 -1 1 -1 1 0 1 0 0 1 -1 1 -1 1 0 -1z"/>
<path d="M645 579 l-1 -1 1 -2 2 -1 1 -1 1 -1 1 0 2 0 0 2 0 1 1 0 1 -1 1 2 1
2 -2 0 -2 0 -1 -2 0 -1 -1 2 -1 2 -1 1 -2 0 -1 -2z"/>
<path d="M657 571 l0 -1 2 0 2 -1 0 2 0 1 -2 0 -2 0 0 -1z"/>
<path d="M667 571 l-1 -1 1 0 1 0 0 1 0 1 0 0 -1 0 0 -1z"/>
<path d="M413 546 l0 -1 1 0 1 -1 0 2 1 1 -2 0 -1 0 0 -1z"/>
<path d="M755 512 l-1 -1 2 0 1 0 0 1 -1 1 0 0 -1 0 0 -1z"/>
<path d="M759 510 l-1 -1 1 -1 1 0 1 0 0 1 -1 1 -1 1 0 -1z"/>
<path d="M823 490 l0 -1 1 0 1 0 0 1 0 1 -1 0 -1 0 0 -1z"/>
<path d="M816 484 l0 -1 2 -1 1 -1 0 1 0 2 -1 0 -2 0 0 0z"/>
<path d="M870 477 l0 -2 1 0 1 1 0 1 0 0 -1 1 -1 0 0 -1z"/>
<path d="M868 473 l-1 -1 2 0 1 -1 1 0 0 1 -1 1 -2 1 0 -1z"/>
<path d="M196 443 l0 -1 1 -1 2 0 1 0 1 1 -1 1 0 1 -1 0 -2 0 -1 -1z"/>
<path d="M884 443 l0 -1 1 0 0 0 0 1 0 1 -1 0 -1 0 1 -1z"/>
<path d="M886 427 l0 -1 1 0 1 0 1 1 0 1 -1 0 -2 0 0 -1z"/>
<path d="M177 407 l-1 -1 1 0 1 -1 0 1 0 2 0 0 -1 0 0 -1z"/>
<path d="M143 375 l-1 0 1 -1 0 -1 1 0 1 0 0 2 0 1 -1 0 -1 0 0 -1z"/>
<path d="M147 351 l-1 0 0 -1 0 -1 2 0 1 0 0 2 0 1 -1 0 -1 0 0 -1z"/>
<path d="M138 343 l0 -2 2 0 1 0 0 2 0 1 -1 0 -2 0 0 -1z"/>
<path d="M411 328 l0 -1 1 0 1 0 1 1 0 1 -1 0 -2 0 0 -1z"/>
<path d="M166 314 l-2 -2 0 -1 1 -1 1 0 2 0 0 2 1 1 -1 1 -1 1 -1 -1z"/>
<path d="M171 310 l0 -2 1 0 1 0 0 1 0 1 -1 1 -1 0 0 -1z"/>
<path d="M152 308 l-1 -1 1 0 1 0 0 1 0 1 0 0 -1 0 0 -1z"/>
<path d="M156 308 l-1 -1 1 0 1 -1 0 1 1 0 0 1 0 1 -1 0 -1 0 0 -1z"/>
<path d="M164 307 l0 -1 2 -1 2 -2 0 0 1 0 -1 2 -1 3 -2 0 -1 0 0 -1z"/>
<path d="M157 302 l0 -1 1 -2 1 -1 2 0 2 1 0 3 0 2 -3 0 -3 0 0 -2z"/>
</g>
</svg>
