<?xml version="1.0" standalone="no"?>
<!DOCTYPE svg PUBLIC "-//W3C//DTD SVG 20010904//EN"
 "http://www.w3.org/TR/2001/REC-SVG-20010904/DTD/svg10.dtd">
<svg style="fill: black; stroke: black;" version="1.0" xmlns="http://www.w3.org/2000/svg"
 width="706.856957pt" height="753.987298pt" viewBox="0 0 706.856957 753.987298"
 preserveAspectRatio="xMidYMid meet">
<metadata>
Created by potrace 1.16, written by Peter Selinger 2001-2019
</metadata>
<g transform="translate(-153.143043,907.860449) scale(1.000000,-1.000000)"
fill="#000000" data-original="#000000" stroke="none">
<path d="M507 907 l-1 -1 0 -2 1 -2 2 0 3 0 0 2 0 2 -2 1 -2 1 -1 -1z"/>
<path d="M441 864 l0 -1 -7 0 -7 -1 -3 -1 -2 0 -5 -1 -5 -1 -3 -1 -2 0 -3 0
-2 -1 -1 0 0 -1 -11 -3 -11 -3 -2 -1 -1 -1 0 0 0 1 -2 -2 -2 -2 -1 1 -1 0 0
-1 0 -1 -1 0 0 0 -3 -1 -3 -2 0 0 1 0 7 3 7 3 8 2 9 3 0 0 1 0 0 -1 0 -1 -7
-2 -7 -2 -8 -3 -7 -3 -10 -5 -10 -5 -3 -2 -2 -2 0 -4 0 -5 -3 0 -2 0 -1 -2 -2
-2 1 -4 1 -3 1 0 1 0 0 0 1 0 -3 -3 -4 -2 -3 0 -3 1 -2 -3 -2 -2 -4 0 -3 1 -3
1 -4 0 0 -1 -1 -1 -4 0 -4 0 -2 -6 -3 -6 -3 -1 -2 -1 -2 0 -1 0 -3 4 -4 3 -1
0 -1 -1 -2 2 -2 3 -3 0 -2 1 -2 2 -1 2 -4 1 -3 2 0 1 0 1 -2 1 -2 1 -1 -1 -2
-1 -2 0 -3 1 -2 1 -2 1 -2 4 -1 4 -3 -1 -2 0 -4 1 -4 2 0 0 -1 0 -1 -3 -1 -2
1 -3 1 -3 -1 -1 -1 -1 -3 1 -2 1 -4 0 -4 1 -1 -2 -1 -1 -1 0 -1 0 -2 -2 -2 -1
-2 -2 -2 -2 3 -3 3 -3 0 -1 1 0 0 -1 0 -2 2 -1 1 -1 0 -1 0 -1 -1 1 -1 0 0 -1
0 -1 2 -2 2 -3 2 1 2 0 2 0 2 -1 1 -3 0 -3 0 -1 0 0 1 -2 1 -1 0 -5 -1 -4 -1
-2 -1 -1 0 -1 1 -1 -7 -4 -8 -3 0 -2 0 -2 -3 -4 -3 -3 1 -3 0 -3 2 -2 2 -1 0
-2 0 -3 2 -2 1 -1 0 -3 0 -3 2 0 2 0 2 -4 2 -3 2 0 2 0 1 -1 1 -1 0 0 0 1 2
-1 3 -1 5 -1 5 0 2 -1 1 -2 -1 -2 -2 -2 1 -1 1 -2 0 -1 0 -2 -9 -8 -8 -8 -6
-8 -5 -7 -4 -5 -4 -4 -6 -9 -6 -8 -2 1 -3 0 -2 -2 -3 -3 1 -3 0 -2 1 -2 1 -1
-4 -8 -4 -7 -2 -1 -3 0 -2 -3 -1 -4 1 -2 1 -2 -3 -4 -3 -3 -1 -2 0 -2 1 -4 1
-4 2 -1 2 -1 2 2 3 2 2 6 2 6 0 2 1 3 1 2 2 2 2 -3 1 -3 1 0 1 0 -1 -4 0 -3 1
-4 2 -4 -2 -5 -2 -5 -2 -6 -1 -6 -1 -2 -1 -1 -1 1 -1 0 -1 -1 -1 -2 0 -3 -1
-3 2 -1 1 0 0 -3 -1 -2 1 2 1 2 3 1 3 2 0 1 0 2 -1 2 -1 3 2 7 2 7 3 5 2 5 3
0 3 1 2 2 2 3 0 3 0 3 3 5 3 6 2 2 2 3 1 -2 1 -1 5 0 6 1 2 1 2 2 1 4 2 3 -1
4 -1 4 -1 0 -1 0 0 2 1 2 -1 -1 -2 0 -1 1 -1 2 5 6 5 7 10 8 9 8 2 0 3 1 1 -1
1 -1 -5 -5 -4 -4 4 2 4 2 -4 -3 -3 -3 3 0 2 0 0 0 0 1 4 4 4 4 0 0 0 -1 2 1 2
1 2 -2 2 -2 4 0 4 0 1 -3 2 -4 1 0 1 0 1 -1 2 0 3 3 3 3 2 -1 2 -1 5 0 4 0 3
3 3 3 3 0 4 0 3 2 3 2 2 0 3 0 2 1 2 1 5 -2 4 -2 3 0 3 1 2 3 2 3 0 5 -1 5 2
2 2 1 0 1 0 1 2 2 1 1 0 2 0 2 5 0 6 0 3 1 3 2 0 2 0 2 -3 2 -2 2 -2 0 -2 1 0
1 0 1 3 1 2 1 0 1 -1 0 -2 -1 -2 -1 -2 0 -1 1 1 1 2 2 0 3 0 3 -1 1 -1 0 0 1
0 2 4 1 4 2 2 2 2 2 9 2 9 3 2 1 3 0 -1 -1 0 -1 2 1 2 2 4 1 4 0 1 1 1 0 0 -2
1 -1 0 -1 -1 0 -10 -3 -11 -2 0 -1 0 -1 5 1 5 0 5 2 6 2 0 -2 0 -2 1 -1 2 -2
-1 -1 -1 -1 -9 -2 -8 -2 -2 -1 -2 0 1 -1 1 -1 1 1 2 1 4 0 4 1 11 1 12 0 2 1
3 1 4 -1 4 -1 3 -2 3 -3 5 0 5 1 1 -1 1 0 0 -2 0 -1 2 -4 2 -3 -2 -2 -1 -2 1
0 1 1 6 -1 5 -1 2 -3 3 -2 2 0 2 -1 0 0 0 0 2 -1 3 0 1 1 2 1 1 -2 1 -3 1 -1
2 0 5 -1 5 0 2 0 2 -1 1 1 2 2 1 -2 1 -1 0 -3 0 -3 -2 0 -1 0 0 -1 0 -2 -1 0
-1 0 -2 -3 -1 -2 0 -3 0 -3 1 -1 0 -2 1 0 1 0 -1 1 0 1 1 0 1 -1 -1 -2 -1 -2
0 0 0 -1 1 0 1 1 0 -2 0 -1 1 0 1 0 0 -3 1 -2 1 0 1 1 1 -1 0 -1 1 1 1 1 -1
-6 0 -5 1 0 1 1 2 -2 1 -2 1 1 1 0 1 -1 0 -2 1 1 1 0 0 -1 0 -1 2 0 1 1 1 1 1
2 0 -3 -1 -2 4 2 3 1 1 0 0 0 0 -2 0 -1 2 1 3 2 2 0 3 0 1 2 1 1 2 0 1 0 -1
-1 0 -1 1 0 1 1 0 -1 1 -1 0 3 -1 3 2 0 1 0 -1 -1 -1 -2 1 0 1 0 -1 -2 -1 -3
1 1 2 0 0 -1 1 -1 -1 0 -2 0 0 -2 0 -2 1 1 1 0 0 -1 -1 -1 -2 1 -1 0 1 -2 2
-2 -1 -2 0 -1 1 1 2 2 2 -1 1 0 -2 -1 -2 -1 0 -1 1 -1 1 0 2 0 -2 1 -1 1 2 0
2 0 0 3 0 3 2 4 2 3 -1 1 -1 0 0 0 1 -1 -2 -2 -2 -2 -1 1 -1 0 0 1 0 0 1 -1 1
0 1 1 0 2 0 1 1 2 2 2 3 3 3 2 3 2 1 3 1 3 2 2 2 2 4 -1 4 -1 4 1 5 0 2 -2 2
-2 0 1 1 0 0 -1 0 -2 3 -1 2 -2 0 0 0 1 10 -10 10 -9 4 -5 4 -5 2 -4 2 -3 0 0
-1 0 2 -3 3 -2 0 0 1 1 3 -6 4 -5 2 -4 2 -4 1 0 1 0 0 -1 -1 -1 2 -2 1 -1 0
-1 -1 0 2 -2 1 -1 0 0 0 1 -2 4 -2 5 -2 3 -2 3 -1 2 -1 3 -1 1 -1 1 -1 1 -1 2
-1 1 0 1 -3 5 -3 5 -4 5 -4 5 -12 11 -12 12 -4 3 -3 3 4 -3 5 -3 4 -4 4 -4 1
1 1 0 -1 -1 0 -2 1 0 1 0 0 1 1 2 0 -2 0 -1 7 -8 8 -8 1 -2 2 -2 4 -5 4 -6 1
1 1 0 0 -1 -1 -1 1 0 1 0 0 -1 -1 -1 1 -2 1 -2 1 -1 1 0 4 -8 4 -7 3 -7 3 -7
1 -6 1 -6 0 -1 -1 0 -1 2 0 2 -2 5 -2 5 -1 0 -1 1 1 -3 1 -3 1 -2 1 -2 -1 -1
-1 0 0 -2 0 -1 2 0 1 0 0 -1 0 -1 -1 0 -1 0 1 -2 0 -1 -2 -2 -3 -2 0 -4 1 -4
-2 -4 -1 -3 -1 -3 -1 -2 0 -3 1 -3 3 -4 3 -3 1 0 1 1 1 -2 1 -1 1 0 2 0 -1 -3
0 -2 1 2 1 2 1 -4 1 -3 1 0 1 0 0 -2 0 -1 0 -3 0 -3 0 -8 -1 -7 0 -1 -1 0 0
-3 0 -3 -1 -1 -1 -1 1 -1 2 -2 0 0 0 -1 -1 1 -2 0 0 -2 0 -2 1 -1 1 0 0 1 0 1
3 2 2 3 0 -2 0 -1 1 0 1 0 0 2 0 2 1 0 1 1 0 -1 1 -1 2 1 1 0 0 -2 0 -2 3 -5
3 -5 0 -3 0 -3 1 -1 1 -1 -1 -2 -2 -1 0 -3 0 -3 2 -5 1 -5 2 -1 1 -1 0 -2 0
-1 -6 -12 -7 -11 -3 -4 -3 -3 -2 1 -2 1 -2 0 -2 -1 -1 -3 -1 -2 1 0 1 0 0 -2
1 -1 -1 -2 -1 -1 2 1 2 2 1 0 1 0 0 -3 -1 -2 -1 0 -1 0 1 -2 0 -1 -1 0 -1 1
-1 -2 -2 -1 1 -1 0 -1 -1 0 -1 1 -1 -2 0 -2 -1 1 -1 0 -2 -2 -2 -2 -1 -3 -1
-3 -8 -8 -8 -7 -9 -6 -8 -5 -3 1 -2 1 0 1 0 1 8 5 7 5 7 5 7 6 0 1 -1 0 -2 -2
-2 -2 -2 1 -1 2 -10 -7 -9 -8 -8 -4 -7 -4 -9 -4 -9 -4 -8 -3 -9 -2 -5 1 -4 1
-2 -1 -1 -1 -4 1 -3 2 -3 0 -4 0 -2 -1 -3 -1 0 -1 0 -1 -1 0 -2 0 -2 -2 -2 -2
-1 -3 -1 -3 -3 1 -2 0 -3 0 -3 1 -1 1 -2 1 -5 1 -6 0 -1 -1 -1 -1 -7 1 -7 2
-4 2 -3 1 0 3 -1 4 -3 2 -2 2 -6 2 -5 3 1 5 0 6 -3 3 -3 4 -4 1 -4 1 -3 -1 -2
-1 -1 0 -1 0 0 1 0 2 -1 1 -2 1 -2 3 -3 4 2 1 2 2 1 2 2 3 2 0 1 0 0 2 0 3 0
1 0 2 -1 0 -1 0 0 1 0 2 -2 1 -1 2 -3 3 -2 3 0 2 0 2 1 2 1 3 2 2 1 3 0 1 0 2
1 0 1 1 3 5 3 5 2 0 1 1 -1 2 0 3 2 2 2 2 0 1 0 1 8 7 7 8 0 1 0 1 5 3 5 4 6
3 7 3 1 0 1 0 3 2 3 2 0 1 0 2 2 1 3 2 6 1 7 1 7 2 7 1 0 1 1 1 -1 0 -2 0 -3
2 -2 1 -5 0 -5 1 -1 0 -1 1 0 -1 0 0 -1 1 -1 1 -13 1 -13 0 -3 0 -2 1 -2 1 -2
1 -4 -1 -4 0 -1 -2 0 -1 -2 0 -2 0 0 1 0 2 -1 1 -1 0 -4 0 -4 1 -5 -5 -5 -4
-4 -1 -4 0 -2 0 -1 0 0 -1 -1 -1 -2 0 -1 0 -1 -2 -2 -1 -5 -1 -4 -1 -2 0 -1
-1 -2 0 -2 -1 -4 -2 -3 -1 -8 -2 -9 -2 -2 2 -3 1 0 1 0 1 -5 3 -4 3 -4 -1 -3
-1 -3 -3 -3 -3 0 -3 0 -3 -3 -5 -3 -5 -6 -4 -6 -4 -4 -5 -5 -5 -2 -3 -3 -3 -1
-3 0 -3 -1 -2 0 -1 1 -2 1 -2 -3 -3 -3 -3 -1 0 -1 0 -2 -4 -3 -4 -2 -4 -2 -4
-3 -10 -4 -11 0 -5 0 -4 -1 -6 0 -5 -5 0 -4 -1 -1 -1 -1 -2 -1 -2 0 -3 2 -4 2
-3 0 -3 0 -3 -2 -1 -1 -1 -2 -4 -1 -5 1 -2 2 -1 0 -6 1 -5 1 -1 1 -1 3 -6 3
-5 0 -4 1 -4 3 -4 3 -5 5 -3 4 -4 3 -1 3 -1 1 -3 0 -2 2 -5 2 -4 0 -2 0 -3 3
-4 3 -4 4 -4 4 -4 6 0 5 1 2 -1 2 -1 2 -1 3 0 3 -1 3 0 7 0 8 0 1 -2 1 -1 3
-2 4 -3 1 -1 2 -2 7 -5 8 -5 3 -4 3 -3 3 -2 4 -2 6 -2 6 -1 3 -1 3 0 12 -5 12
-5 1 -1 1 0 1 -3 1 -3 3 -2 3 -1 3 0 3 0 2 2 3 1 2 -1 3 0 0 -1 0 -1 6 -6 7
-6 1 -2 2 -1 3 -2 3 -2 3 0 3 -1 3 1 3 2 1 2 2 3 4 0 4 1 2 3 2 2 2 0 3 0 -2
1 -1 0 0 1 0 1 10 0 11 0 0 -2 0 -1 1 0 1 0 5 0 4 0 0 1 0 1 -3 -1 -4 0 0 1 0
1 2 0 2 1 13 1 13 1 1 0 0 -1 -5 -1 -5 -1 -3 0 -3 -1 -2 0 -2 0 0 -1 0 -1 6 1
6 1 2 1 3 0 8 1 8 2 3 1 4 1 2 -1 1 -2 3 0 3 0 2 2 3 1 -4 -1 -3 0 0 1 0 2 1
0 1 0 0 2 1 2 9 3 10 3 11 6 11 5 9 5 8 5 1 0 1 -1 0 -2 0 -1 3 1 3 1 1 2 2 2
0 2 0 3 8 7 8 6 7 6 7 7 2 1 3 1 0 0 1 0 -1 -2 0 -2 1 1 0 1 3 -1 4 0 0 2 1 2
3 0 3 0 3 2 2 1 3 4 2 4 0 5 0 4 7 8 6 8 3 1 3 1 2 2 2 1 2 3 2 4 8 9 8 9 4 5
4 4 0 3 1 2 1 1 1 1 5 8 5 8 5 9 4 9 0 2 0 2 1 1 1 1 -1 0 -1 0 -3 -8 -3 -8
-2 -3 -2 -2 0 -1 0 -1 -5 -8 -4 -7 -2 -3 -2 -2 -2 2 -2 2 -2 0 -2 0 -2 -3 -2
-2 0 -2 0 -2 3 -2 3 -1 -3 -4 -2 -4 -3 -3 -2 -2 -4 -5 -3 -4 -4 1 -3 0 -4 -3
-3 -4 0 2 1 2 1 2 0 3 -1 0 -1 0 0 1 0 1 6 8 6 8 3 1 3 0 3 2 2 2 -1 4 0 4 3
4 3 5 3 7 4 7 2 5 3 6 1 4 2 4 0 1 -1 0 -1 -2 0 -1 -3 -7 -2 -6 -6 -11 -5 -10
-2 -3 -2 -3 -1 1 0 1 2 2 2 3 2 6 2 6 1 1 1 2 4 7 3 8 5 11 4 12 1 -1 0 -1 -2
-7 -2 -6 0 -1 1 0 2 7 3 8 1 4 1 4 4 1 3 1 3 3 3 3 0 3 -1 2 1 2 2 2 0 1 0 2
1 3 2 4 -1 3 0 2 -4 4 -4 5 2 9 2 9 1 8 1 8 1 4 0 5 0 4 1 4 0 8 0 9 2 1 2 1
0 -3 1 -2 1 -7 0 -7 1 0 1 0 0 1 -1 1 0 9 -1 9 -1 5 0 5 -1 2 0 3 4 2 4 2 2 4
2 3 0 5 0 5 -2 3 -1 3 -5 4 -5 3 -1 0 -1 0 -1 6 -2 6 -1 5 -1 5 -3 8 -2 9 -1
2 -1 2 -3 8 -3 9 -6 12 -6 12 -2 4 -3 4 -2 3 -2 3 2 3 2 2 0 3 0 3 -2 1 -2 1
-3 0 -3 -1 -3 5 -3 5 0 1 0 1 -3 3 -2 2 -4 6 -3 6 -2 1 -1 2 0 0 1 0 -2 3 -3
4 -1 2 0 3 -3 2 -2 3 -2 2 -2 2 -5 6 -5 6 -12 11 -11 11 -7 5 -6 6 -4 4 -4 4
-5 3 -5 4 0 5 0 6 -2 3 -2 4 -3 2 -3 3 -4 1 -3 2 -4 0 -5 1 -2 -1 -2 -1 -3 2
-3 2 -1 0 0 0 -5 4 -5 4 -9 5 -8 5 -1 0 -1 0 0 1 0 1 -13 6 -12 6 -12 5 -12 5
-13 3 -13 3 -2 1 -2 0 -7 1 -7 1 -7 1 -6 1 -15 -1 -15 0 -6 1 -5 1 -4 1 -3 0
-20 1 -20 0 0 0z m46 -3 l4 -1 2 -1 3 0 -3 -1 -3 -1 -5 1 -5 1 -15 0 -14 1
-12 -2 -11 -1 -8 -1 -8 -2 -2 0 -1 0 0 1 0 1 4 1 5 0 1 1 1 0 2 0 3 1 12 2 13
1 16 0 17 -1 4 0z m-12 -6 l2 -1 -1 0 0 -1 -7 0 -6 -1 -1 -1 0 0 -2 2 -2 1 0
1 0 1 7 0 8 0 2 -1z m-36 -1 l0 -1 -1 -2 -1 -1 -3 1 -3 0 -1 1 -1 0 -2 0 -2 0
1 1 1 1 4 0 5 1 1 0 2 0 0 -1z m-17 -2 l0 -1 -1 0 -2 0 0 1 0 1 2 0 1 0 0 -1z
m-27 -13 l0 -3 1 -1 1 -1 -1 -1 0 -1 -14 -4 -14 -5 -8 -4 -8 -3 -3 -2 -3 -2 0
0 -1 0 0 2 0 1 -1 0 -1 0 2 2 3 2 0 1 -1 1 2 1 2 2 12 6 12 6 9 3 10 3 0 -1 1
0 0 -2z m51 0 l0 -1 -1 0 -1 0 0 1 0 1 1 0 1 0 0 -1z m-28 -2 l0 -1 -2 0 -1
-1 1 1 0 1 1 0 1 0 0 0z m17 -2 l-1 -1 -8 -2 -9 -2 -1 0 0 0 0 2 0 2 4 -1 4 0
2 1 2 2 4 0 5 0 -2 -1z m-110 -39 l0 -1 -2 0 -1 0 1 1 0 1 1 0 1 0 0 -1z m473
-131 l1 -2 -1 0 -1 1 -1 2 -1 2 1 -1 1 0 1 -2z m-552 -2 l0 -1 0 -1 0 -1 2 0
1 0 0 -1 0 -1 -9 -9 -10 -9 -6 -7 -6 -7 -1 0 -2 0 -4 -2 -4 -1 -1 -3 -1 -2 0
-2 0 -1 -3 0 -2 0 0 1 1 1 3 6 3 6 8 9 9 10 9 9 9 8 2 -1 2 0 0 -1z m564 -18
l3 -4 2 -5 3 -5 -1 0 0 0 -1 0 -1 0 1 -2 1 -2 1 0 0 0 -1 2 0 1 1 0 1 0 1 -3
1 -2 4 -9 4 -9 3 -7 2 -7 4 -15 3 -14 0 -1 -1 0 -1 3 -1 2 -1 0 -1 0 -3 4 -3
5 0 1 0 2 -1 0 -1 1 -1 2 0 3 -2 6 -2 6 -1 3 0 4 -1 5 -1 6 1 2 0 3 -1 2 -2 3
-2 0 -1 0 -2 3 -2 3 -1 2 -2 3 0 1 0 1 2 0 1 1 -3 4 -3 5 0 1 0 0 1 0 1 0 3
-5z m-293 -1 l0 0 -1 0 -1 -1 0 1 -1 1 2 0 1 0 0 -1z m8 -10 l-1 -2 1 0 2 -1
-2 0 -1 0 0 1 -1 1 1 1 0 1 1 0 0 0 0 -1z m38 -3 l1 -2 -1 -2 0 -2 -2 1 -1 2
0 2 0 2 1 0 0 0 2 -1z m-32 -3 l0 -2 -1 1 -1 0 0 1 0 1 1 0 1 0 0 -1z m157
-10 l2 -4 -1 -1 0 -1 -1 2 -1 2 -2 0 -1 1 0 3 0 2 1 0 1 0 2 -4z m-483 -20
l-4 -5 -1 -3 0 -2 -1 0 -1 0 -1 1 0 2 2 3 2 3 2 4 3 4 1 -1 1 -1 -3 -5z m-8
-1 l0 -1 -1 -3 0 -2 -3 1 -3 0 -1 1 0 0 1 1 0 2 3 1 3 1 0 0 1 0 0 -1z m506
-1 l1 -2 1 -2 0 -2 0 0 -1 1 -1 3 -2 4 1 0 1 0 0 -2z m-3 -3 l0 -1 -1 0 0 1
-1 2 0 1 1 0 0 -1 1 -2z m-7 1 l0 -2 1 0 1 0 3 -6 2 -5 -1 -1 -1 -1 -2 0 -2 0
-3 8 -3 7 2 0 1 -1 0 1 0 1 1 0 1 0 0 -1z m-24 -19 l-1 -1 1 1 0 2 1 0 0 -1
-1 -1z m1 -21 l0 -1 -1 0 -1 0 0 1 0 1 0 0 1 0 1 -1z m152 -28 l3 -1 0 -2 0
-2 3 1 3 0 1 -4 0 -3 0 -20 1 -19 -3 -2 -2 -1 0 -6 -1 -6 -1 -1 -1 -1 -2 1 -2
0 0 20 0 20 -1 8 -1 8 -1 7 0 7 1 -2 1 -1 2 -1z m15 -10 l1 0 0 3 -1 2 1 0 1
0 0 -4 0 -4 -1 0 -1 1 0 -2 -1 -1 0 -7 1 -6 -1 4 -1 5 0 8 0 8 1 -4 0 -3 1 0z
m3 -24 l-1 -12 -1 -5 -1 -5 0 -1 -1 0 0 8 1 8 1 10 0 10 1 -1 1 0 0 -12z m-4
-29 l-1 -1 0 2 0 3 1 -2 0 -1 0 -1z m-2 -12 l-1 -7 -1 -1 -1 -1 0 1 0 2 -1 0
-1 -1 0 2 0 3 1 2 0 1 1 -1 1 -1 0 2 0 2 1 4 1 4 1 -2 0 -2 -1 -7z m-32 -93
l-1 -4 -5 -9 -4 -9 -5 -8 -4 -7 0 -1 0 -1 -1 0 -1 0 2 4 1 3 -1 1 -1 1 1 3 2
4 3 4 3 4 2 3 1 4 1 -1 1 0 0 1 -1 1 2 5 2 5 1 -1 1 0 0 1 -1 2 2 1 2 1 0 -1
0 -1 -2 -5z m-128 3 l0 -1 -2 -2 -2 -2 -3 0 -2 -1 0 -1 1 0 -2 -4 -2 -4 1 -2
0 -1 -5 -5 -6 -4 -4 -3 -4 -3 0 -1 0 -1 -3 -3 -3 -3 -8 -4 -7 -5 -6 -2 -5 -3
-5 -2 -5 -2 0 2 0 2 -1 1 -1 1 -3 0 -2 0 -1 -2 -1 -2 1 -2 1 -2 -3 -1 -2 -1
-5 -1 -4 -1 0 2 0 1 2 3 1 3 0 0 0 1 0 3 0 4 4 1 4 1 2 1 2 1 4 2 5 1 -1 1 -1
1 1 0 2 1 4 -4 4 -4 2 0 3 -1 4 2 4 2 1 2 2 3 0 4 0 4 0 1 -1 0 6 4 5 3 12 10
12 10 2 0 2 0 2 1 2 2 1 0 1 0 0 -1z m-32 -8 l1 -2 -2 0 -2 0 0 1 0 1 1 0 0 1
1 0 0 0 1 -1z m142 -7 l1 -2 -3 -6 -4 -6 -1 -1 -1 0 -1 2 0 3 3 5 3 6 1 0 0 0
2 -1z m-5 -33 l-1 -2 -5 -6 -4 -5 -3 -4 -4 -4 0 2 -1 3 5 6 4 7 3 3 2 3 3 0 3
0 -2 -3z m-287 -2 l2 -1 3 0 3 0 2 -1 2 0 0 -5 -1 -4 0 -1 0 -1 -2 1 -2 0 -1
1 0 1 -6 2 -5 2 -1 1 -1 2 0 0 0 1 2 0 2 0 -2 2 -2 2 3 -1 3 0 1 -1z m283 -29
l-1 -2 -6 -7 -5 -6 -1 2 -1 3 2 3 2 3 3 4 2 4 2 1 2 1 2 -2 1 -2 -2 -2z m-46
-37 l0 -1 -1 -1 -1 -1 1 1 1 1 1 0 1 0 -3 -3 -3 -4 -1 0 -1 0 1 2 2 2 -2 -2
-2 -1 0 -1 1 0 -1 -2 -1 -1 -1 1 -1 0 0 -1 1 -1 -8 -7 -8 -7 -2 -1 -2 -1 -4 0
-4 -1 0 -3 -1 -3 -8 -4 -7 -4 -12 -6 -11 -6 -10 -3 -9 -3 -1 1 -1 1 -2 0 -2 0
-3 -2 -2 -3 -5 -1 -4 -1 -6 -1 -5 -1 -5 0 -4 1 -2 -1 -2 -1 0 2 -1 2 -1 0 -1
0 0 -2 1 -2 -6 -1 -5 0 1 2 2 1 0 1 0 1 3 1 4 1 3 1 3 1 9 2 10 2 1 -1 2 -1 4
1 3 0 5 4 5 3 3 -1 4 -1 3 0 3 0 2 1 2 1 2 2 2 3 0 1 0 1 2 2 3 2 3 0 4 1 1 3
1 2 -1 2 0 3 6 2 6 3 15 11 16 10 2 -1 2 -2 3 0 3 0 4 3 4 4 1 0 1 0 0 -1z
m-151 -4 l0 -1 -1 0 -1 -1 -4 0 -3 -1 -10 -1 -9 0 0 1 -1 1 2 1 1 1 10 1 10 1
3 0 3 0 0 -2z m7 1 l-1 -2 -1 1 -1 0 1 1 0 1 2 0 1 0 -1 -1z m116 -3 l-3 -3
-6 -4 -5 -3 -8 -5 -7 -5 -3 -1 -3 -1 0 0 -1 1 8 5 9 4 10 7 10 7 1 0 1 0 -3
-2z m-162 0 l1 -2 0 -1 0 -1 -2 1 -1 0 -2 0 -2 0 1 2 1 2 1 0 1 0 2 -1z m32
-3 l-1 -1 -10 -1 -11 0 0 1 0 1 11 0 11 0 0 0z m14 -3 l0 -3 -2 0 -1 -1 -9 -2
-9 -1 -9 0 -9 0 -8 1 -8 1 -1 0 0 1 1 2 1 3 5 0 5 -1 14 0 15 0 6 1 6 1 1 0 2
0 0 -2z m-185 -4 l4 -4 2 -3 3 -2 3 -3 4 -3 0 -1 0 -1 -2 0 -2 0 0 1 0 1 -3 1
-2 1 -5 4 -5 4 -3 3 -3 3 2 1 2 2 0 0 1 0 4 -4z m223 -52 l-2 -1 -2 0 -1 0 1
1 0 1 3 0 4 0 -3 -1z"/>
<path d="M811 637 l0 -1 2 -2 2 -2 -1 2 0 2 -2 1 -1 1 0 -1z"/>
<path d="M776 335 l0 -1 0 -1 1 0 0 1 1 2 0 0 -1 0 -1 -1z"/>
<path d="M773 309 l-1 -2 2 1 2 2 0 1 0 0 -1 0 -1 0 -1 -2z"/>
<path d="M768 302 l-3 -4 0 0 1 0 3 4 3 4 0 0 -1 0 -3 -4z"/>
<path d="M355 837 l-3 -1 0 -1 0 0 3 2 4 1 0 1 0 0 -1 0 0 0 -3 -2z"/>
<path d="M324 828 l-2 -1 0 -3 0 -2 1 -1 1 0 0 -1 -1 -2 3 1 4 0 1 2 2 1 0 2
0 2 1 0 2 1 -2 0 -1 0 -2 2 -1 1 -2 0 -3 0 -1 -2z"/>
<path d="M725 822 l0 -2 2 0 1 0 0 2 0 1 -1 0 -2 0 0 -1z"/>
<path d="M302 813 l0 -3 2 -1 3 -2 0 2 1 2 -2 2 -1 2 -2 0 -1 0 0 -2z"/>
<path d="M713 794 l-1 -2 2 -1 2 -1 1 1 0 1 0 2 -1 1 -1 0 -2 0 0 -1z"/>
<path d="M744 785 l0 -1 1 1 0 1 0 1 -1 0 0 -2z"/>
<path d="M204 779 l1 -1 1 -1 1 0 0 1 -1 1 -1 1 -1 0 0 -1z"/>
<path d="M173 705 l-1 -1 0 -1 1 -2 2 0 1 1 1 1 0 2 -1 0 -2 1 -1 -1z"/>
<path d="M390 704 l1 0 1 0 0 1 -2 0 -1 0 1 -1z"/>
<path d="M384 702 l-3 -1 2 1 3 0 1 0 2 0 -1 1 0 1 -1 0 0 0 -3 -2z"/>
<path d="M203 701 l0 -1 1 1 1 0 0 1 0 1 -1 0 -1 0 0 -2z"/>
<path d="M376 699 l-3 -1 2 1 3 0 1 1 2 1 -1 0 -1 0 -3 -2z"/>
<path d="M177 695 l0 -1 1 0 0 0 0 1 0 1 -1 0 -1 0 1 -1z"/>
<path d="M172 687 l0 -1 1 0 1 0 0 1 -1 1 -1 0 0 0 0 -1z"/>
<path d="M216 682 l-1 -1 1 -1 2 -1 1 0 2 1 0 2 0 2 -3 0 -2 0 0 -2z"/>
<path d="M426 683 l-2 -1 0 -1 -1 -2 1 -1 1 -1 1 1 2 1 0 -1 1 -1 2 1 3 2 0 1
0 2 -2 0 -1 1 -1 0 -1 0 -3 -1z"/>
<path d="M472 658 l0 -1 1 1 1 0 -1 1 0 1 -1 0 0 0 0 -2z"/>
<path d="M360 641 l-2 -2 0 -2 1 -1 1 0 2 1 0 2 0 2 2 1 2 2 -2 0 -1 0 -3 -3z"/>
<path d="M238 635 l-1 -2 2 1 2 2 0 1 0 0 0 0 -1 0 -2 -2z"/>
<path d="M494 625 l-1 -1 0 -2 0 -1 2 0 1 0 1 2 0 1 -1 1 -1 1 -1 -1z"/>
<path d="M554 623 l0 -1 1 0 1 -1 -1 1 0 2 -1 0 0 0 0 -1z"/>
<path d="M568 621 l-1 -1 2 0 2 -1 -1 2 -1 1 -1 0 0 0 0 -1z"/>
<path d="M568 617 l-2 0 2 -2 1 -1 1 2 1 2 -1 0 0 0 -2 -1z"/>
<path d="M632 612 l-1 -1 1 0 1 0 0 1 0 1 0 0 -1 0 0 -1z"/>
<path d="M447 582 l0 -1 1 0 1 0 0 1 0 1 -1 0 -1 0 0 -1z"/>
<path d="M664 569 l0 -1 1 0 1 -1 -1 1 0 2 -1 0 0 0 0 -1z"/>
<path d="M158 554 l-3 -1 -1 -3 -1 -3 1 -3 1 -3 2 -1 2 -1 2 0 2 -1 3 3 3 3 0
3 1 3 -3 3 -3 3 -1 0 -1 0 -4 -2z"/>
<path d="M183 533 l-1 0 0 -3 0 -2 2 0 3 0 0 2 1 1 -1 2 -1 1 -1 0 0 0 -2 -1z"/>
<path d="M170 524 l-1 -1 0 -3 0 -3 2 -1 3 -1 2 1 2 2 0 2 0 2 -2 1 -2 2 -1 0
-2 0 -1 -1z"/>
<path d="M154 519 l0 -1 1 0 1 -1 0 2 1 1 -2 0 -1 0 0 -1z"/>
<path d="M179 514 l0 -3 1 0 2 0 0 1 1 1 -1 1 0 2 -2 0 -1 0 0 -2z"/>
<path d="M177 494 l-1 -2 0 -2 1 -2 1 -1 2 -1 2 1 2 1 0 2 0 2 -1 2 -1 1 -2 0
-2 0 -1 -1z"/>
<path d="M850 485 l1 -2 0 -1 1 0 0 1 0 2 -1 0 -1 1 0 -1z"/>
<path d="M851 479 l0 -2 1 0 0 0 0 2 0 2 -1 0 -1 0 1 -2z"/>
<path d="M851 470 l0 -6 1 3 0 3 0 3 -1 4 0 -7z"/>
<path d="M175 463 l0 -3 2 0 2 0 0 3 0 2 -2 1 -2 0 0 -3z"/>
<path d="M681 462 l0 -1 1 0 1 0 0 1 -1 1 -1 0 -1 0 1 -1z"/>
<path d="M851 461 l0 -1 1 1 0 1 0 1 -1 0 0 -2z"/>
<path d="M185 461 l-1 -1 1 0 1 0 0 1 0 1 0 0 -1 0 0 -1z"/>
<path d="M678 460 l0 -1 0 -1 -1 -1 0 -1 0 0 -1 1 -1 2 -1 -2 -1 -1 1 -1 2 0
0 -2 0 -1 -1 0 -1 0 0 1 0 1 -1 0 -1 -1 0 -2 0 -1 2 1 1 0 0 -1 -1 -1 -1 0 -2
0 -1 -3 -2 -4 0 -1 0 -1 -2 -2 -1 -2 -1 -2 0 -1 2 2 1 2 0 -2 -1 -2 0 -1 0 0
-2 0 -2 0 1 -1 0 -2 -1 0 -1 0 1 -1 1 0 0 -3 0 -3 -1 1 0 0 -2 -1 -1 -1 0 1 0
2 1 0 1 -1 0 2 1 2 -1 0 -1 0 -2 -4 -3 -4 3 1 4 0 -2 -1 -2 0 -1 -2 0 -2 0 -1
1 -1 -1 0 -1 -1 0 1 0 1 -1 -1 -1 0 1 -1 1 0 -1 -3 -2 -3 -1 1 -2 2 -1 -3 -1
-2 1 -2 0 -1 -1 0 -1 1 0 -1 1 -1 4 3 4 3 0 2 0 1 1 2 2 3 -1 1 0 1 1 0 1 -1
4 6 4 6 0 0 1 -1 -1 1 -1 1 0 2 0 2 1 -2 1 -1 1 2 1 3 4 0 4 0 1 2 0 2 -2 2
-2 3 1 2 0 1 -1 0 -1 -1 0 2 1 2 2 4 1 4 0 2 -1 3 0 -2z m-6 -16 l0 -1 -1 0
-1 -1 0 1 0 1 1 0 1 0 0 0z m-21 -39 l-1 0 1 -1 0 -1 -1 0 -1 0 0 1 0 1 1 0 0
1 1 0 2 0 -2 -1z"/>
<path d="M680 456 l-1 -2 1 1 1 1 0 1 -1 1 0 -2z"/>
<path d="M851 452 l0 -1 1 1 0 1 0 1 -1 0 0 -2z"/>
<path d="M851 448 l0 -3 1 1 0 2 0 1 -1 2 0 -3z"/>
<path d="M850 443 l0 -1 0 -12 -1 -12 1 3 1 3 1 10 0 10 0 0 -1 0 -1 -1z"/>
<path d="M848 416 l0 -1 1 0 1 0 0 1 0 1 -1 0 -1 0 0 -1z"/>
<path d="M848 410 l-1 -5 0 -2 -1 -1 -2 -9 -2 -9 -1 -2 0 -1 1 0 1 0 1 6 1 6
1 2 0 2 2 6 1 7 0 2 -1 3 0 -5z"/>
<path d="M651 411 l0 -1 1 0 2 0 -1 1 0 1 -1 0 -1 0 0 -1z"/>
<path d="M656 405 l-2 -2 -1 1 0 1 2 -4 2 -3 1 0 2 0 1 2 2 1 0 2 0 2 -3 1 -2
1 0 0 -1 0 -1 -2z"/>
<path d="M641 394 l-1 -1 1 1 2 1 0 1 0 0 -1 0 -1 0 0 -2z"/>
<path d="M633 393 l-2 -1 -1 1 -1 0 -2 -2 -2 -1 -1 -4 -1 -4 -2 -2 -1 -2 -1 0
-1 0 -4 -3 -3 -3 1 -2 2 -1 3 1 2 2 1 3 2 3 0 -1 1 -1 1 1 2 1 4 0 5 0 2 2 2
2 1 5 0 5 -1 1 0 1 -1 -1 -1 -1 -1 1 -1 1 -2 -1z"/>
<path d="M606 380 l0 -2 2 0 1 0 0 2 0 1 -1 0 -2 0 0 -1z"/>
<path d="M840 377 l-1 -2 0 -1 0 -1 1 1 1 1 0 2 1 3 -1 0 0 0 -1 -3z"/>
<path d="M666 374 l-3 -4 4 3 3 4 0 0 -1 1 -3 -4z"/>
<path d="M838 371 l-1 -2 1 0 1 0 0 2 0 1 0 0 -1 0 0 -1z"/>
<path d="M625 367 l-1 -1 1 -1 0 -1 1 1 1 0 0 2 0 1 -1 0 -1 0 0 -1z"/>
<path d="M655 363 l-1 -2 2 1 2 2 0 1 0 0 0 0 -1 0 -2 -2z"/>
<path d="M600 356 l0 -1 1 0 1 0 0 1 -1 1 -1 0 0 0 0 -1z"/>
<path d="M479 343 l-1 -1 1 1 2 0 0 1 0 0 -1 0 -1 0 0 -1z"/>
<path d="M853 336 l-1 -2 1 -1 0 -2 2 0 2 0 0 2 1 1 -1 2 -1 1 -1 0 -1 0 -1
-1z"/>
<path d="M291 233 l0 -2 2 0 1 0 0 2 0 1 -1 0 -2 0 0 -1z"/>
<path d="M683 198 l0 -1 1 1 1 0 0 1 0 0 -1 0 -1 0 0 -1z"/>
<path d="M681 196 l-1 -1 1 0 1 0 0 1 0 1 0 0 -1 0 0 -1z"/>
<path d="M393 187 l-1 -1 1 0 1 -1 0 1 0 2 0 0 -1 0 0 -1z"/>
<path d="M638 176 l0 -1 1 1 1 0 0 1 0 0 -1 0 -1 0 0 -1z"/>
<path d="M658 175 l-2 -1 0 -3 0 -2 2 -1 2 -1 1 1 2 0 0 2 1 2 -1 1 0 1 -2 1
-2 1 -1 -1z"/>
<path d="M581 169 l0 -1 1 1 1 0 0 1 0 0 -1 0 -1 0 0 -1z"/>
<path d="M554 168 l0 -1 6 0 6 0 0 1 1 1 -7 0 -6 0 0 -1z"/>
<path d="M642 162 l0 -1 1 1 1 0 0 1 0 0 -2 0 -1 0 1 -1z"/>
<path d="M567 158 l0 -1 1 0 1 0 0 1 0 1 -1 0 -1 0 0 -1z"/>
<path d="M580 158 l0 -1 1 1 1 0 0 1 0 0 -1 0 -1 0 0 -1z"/>
</g>
</svg>
