<?xml version="1.0" standalone="no"?>
<!DOCTYPE svg PUBLIC "-//W3C//DTD SVG 20010904//EN"
 "http://www.w3.org/TR/2001/REC-SVG-20010904/DTD/svg10.dtd">
<svg style="fill: black; stroke: black;" version="1.0" xmlns="http://www.w3.org/2000/svg"
 width="577.384022pt" height="859.934621pt" viewBox="0 0 577.384022 859.934621"
 preserveAspectRatio="xMidYMid meet">
<metadata>
Created by potrace 1.16, written by Peter Selinger 2001-2019
</metadata>
<g transform="translate(-79.000000,981.945627) scale(1.000000,-1.000000)"
fill="#000000" data-original="#000000" stroke="none">
<path d="M299 981 l-1 0 0 -2 0 -1 2 0 2 -1 0 -1 0 -2 1 0 1 0 0 0 0 1 -2 3
-1 3 -1 0 -1 1 0 -1z"/>
<path d="M340 957 l1 -1 3 -2 4 -2 -4 3 -3 4 -1 0 -1 0 1 -2z"/>
<path d="M351 940 l0 -1 1 0 1 0 0 1 0 1 -1 0 -1 0 0 -1z"/>
<path d="M383 938 l0 -1 2 0 1 -1 0 1 -1 1 -1 1 -1 0 0 -1z"/>
<path d="M344 931 l3 -3 3 0 2 0 1 -1 0 -2 1 0 1 0 -1 2 -2 2 0 1 1 1 -3 0 -2
0 -3 2 -3 1 2 -3z"/>
<path d="M387 925 l0 -1 1 0 0 0 0 1 0 1 -1 0 -1 0 1 -1z"/>
<path d="M364 923 l0 -1 2 -1 2 -1 0 1 0 1 -1 1 -1 1 -1 0 -1 0 0 -1z"/>
<path d="M389 907 l1 -2 2 -1 1 -1 0 -3 1 -3 -2 2 -2 2 -2 1 -1 1 -1 0 -1 0 0
-2 0 -2 -1 0 -2 0 0 -1 0 -1 2 -1 1 -1 0 -2 0 -2 3 -1 4 -1 0 -2 1 -2 3 -2 3
-2 1 -3 1 -2 1 -2 1 -1 2 0 2 0 3 -2 3 -2 0 -2 0 -1 2 -1 1 0 6 -6 6 -5 0 -3
1 -3 2 -3 3 -2 0 -2 0 -2 5 -6 5 -6 -1 0 -2 0 -2 2 -2 3 -2 1 -2 2 3 -5 4 -5
5 -6 5 -5 0 -1 0 0 -2 2 -2 1 0 0 0 -1 -4 4 -3 4 2 -4 3 -4 -2 -2 -2 -2 4 -5
4 -4 3 -4 3 -4 5 -7 4 -8 4 -3 3 -2 1 -5 1 -5 2 -1 1 -1 2 0 2 1 2 -2 1 -1 0
1 0 2 1 1 2 0 1 -1 1 -1 2 -7 2 -6 0 -6 1 -5 2 -4 2 -4 0 -7 0 -7 -1 -2 -1 -2
-1 -8 -1 -7 -1 -2 -1 -2 -1 1 -1 0 -2 -3 -1 -3 0 3 1 3 2 11 1 12 0 2 0 2 1 0
1 0 0 2 1 1 -1 2 -1 1 1 1 0 1 -1 1 -2 2 0 2 -1 3 0 4 -1 4 -1 2 0 3 -1 1 0 0
1 -10 0 -10 -1 0 -1 -1 1 -3 0 -2 -1 0 -1 0 0 -1 0 -1 2 -1 1 -2 -1 -1 0 -1 1
-1 1 -2 -1 -8 -1 -8 -3 -9 -2 -9 -1 -1 0 0 -1 1 0 1 -2 -2 -3 -1 0 -6 -1 -6
-2 -3 -2 -2 -2 -4 -1 -4 -1 0 -1 0 0 -2 -1 -2 2 1 2 1 1 0 0 -1 -2 -3 -2 -2
-1 -3 -1 -3 -2 -2 -1 -2 -5 -6 -4 -5 -6 -6 -5 -6 -7 -7 -6 -7 -4 -4 -4 -4 0
-1 0 0 -3 -2 -2 -2 0 1 0 0 2 3 3 3 5 6 6 6 2 3 2 3 1 0 1 -1 -1 1 0 1 4 5 3
6 -4 -5 -4 -5 -9 -9 -8 -9 -4 -6 -5 -6 -1 0 -1 1 -1 2 0 2 -1 0 -1 0 1 2 1 2
3 4 2 4 1 1 0 2 4 5 5 5 2 3 2 3 2 -1 1 -1 1 1 1 0 -1 2 -2 1 0 1 0 0 -1 1 -1
0 -8 -9 -7 -9 -1 0 -1 0 0 -1 0 -1 -2 -2 -2 -3 -2 -2 -2 -2 -2 -3 -1 -3 -1 0
0 0 -2 1 -1 1 4 5 4 6 1 0 1 0 -1 1 0 1 1 1 2 0 -1 2 0 1 -3 -3 -3 -2 -3 -6
-4 -5 -1 -2 -2 -2 -3 0 -3 1 -1 -1 -1 -2 1 -2 1 -3 -2 -3 -2 -4 -1 0 -1 0 0 1
0 1 -3 -3 -3 -3 -1 -2 0 -2 -4 -9 -4 -8 0 -5 0 -5 -2 -9 -1 -8 -3 -1 -3 -2 0
1 -1 0 -2 -1 -2 -2 0 -1 0 -2 -2 -3 -2 -4 1 -2 2 -1 2 -3 1 -3 1 -3 2 -2 1 -1
1 -1 -1 -3 -1 -3 -1 -2 -2 -1 -1 -3 -1 -2 0 -2 -1 -2 1 -4 0 -4 4 -4 4 -5 2
-5 2 -4 4 -4 3 -3 3 -1 4 0 1 -1 2 -1 3 -5 3 -4 6 -4 5 -4 1 0 0 0 7 -8 7 -7
3 -1 2 -1 1 1 1 1 2 0 1 0 0 -1 -1 0 2 -2 2 -2 0 -2 0 -1 1 0 1 0 0 -2 0 -2 1
-1 1 0 2 0 2 1 0 2 1 2 -2 0 -1 1 0 1 0 2 -2 1 -2 2 -1 2 -1 2 2 2 2 2 5 -5 6
-4 0 -1 0 -1 2 0 1 -1 1 1 2 1 3 -1 4 -2 0 1 0 1 2 0 3 0 5 -7 6 -7 2 0 1 0 2
1 2 1 3 -2 4 -2 3 -4 3 -3 3 -4 2 -3 6 -3 5 -2 4 -5 4 -6 4 -3 5 -3 1 0 2 0 1
-1 0 -1 2 0 2 0 1 1 1 2 0 2 -1 2 -4 1 -3 2 -3 4 -3 5 -1 -1 -1 -1 -1 0 -1 0
-6 6 -6 6 -3 1 -3 0 -7 6 -6 7 -4 3 -3 4 -2 3 -1 3 1 2 1 1 -1 0 -1 0 -5 5 -5
5 -3 5 -2 4 0 2 1 1 -4 3 -4 3 0 1 0 1 -3 5 -3 5 1 2 1 2 0 1 0 2 -2 2 -1 3 1
2 1 1 0 0 -1 0 3 4 3 3 0 2 -1 2 1 2 0 3 3 1 4 2 0 5 1 5 1 2 0 2 2 2 2 2 0 0
0 1 5 5 5 5 0 2 0 1 2 4 2 4 2 1 3 2 -2 -1 -2 0 0 2 0 2 2 0 2 0 0 1 1 0 1 1
1 0 3 3 4 3 0 1 0 1 2 0 3 1 0 0 1 0 0 1 0 1 3 1 4 1 1 0 1 0 3 2 3 2 0 0 0 1
1 1 2 2 8 5 8 6 9 9 9 8 0 -1 0 -1 -1 -3 -2 -2 1 0 1 0 1 2 2 2 2 0 2 1 2 0 2
1 4 3 3 4 0 2 0 2 1 3 2 3 -1 0 0 1 2 6 3 5 3 2 4 1 4 5 4 5 0 6 -1 6 -1 4 -2
4 -2 0 -3 0 -3 -9 -3 -8 -1 -3 -2 -3 -1 -5 -2 -6 -5 -7 -5 -8 -1 0 -1 0 1 2 1
1 0 0 -1 0 3 4 2 4 4 8 4 9 1 5 2 6 2 5 1 5 1 1 1 1 1 8 1 8 0 1 0 1 -1 0 -1
0 -1 -3 -1 -3 -2 0 -2 0 0 -1 0 -1 1 -2 1 -2 -2 -4 -1 -5 1 -2 1 -2 -2 -7 -2
-6 -2 -5 -2 -5 -4 -8 -4 -7 -3 -4 -3 -3 -1 0 -1 1 0 -2 0 -2 -5 -5 -5 -6 -1 0
-1 0 0 2 0 1 -6 -4 -5 -3 -2 -2 -1 -1 1 0 1 0 2 2 2 2 0 -1 0 -1 -4 -4 -3 -3
1 -1 1 0 0 -3 0 -2 -5 -3 -4 -3 -3 0 -2 0 -4 -3 -3 -4 -2 0 -1 0 2 2 2 1 -4 0
-4 -1 3 3 4 4 3 -1 3 0 0 2 0 2 2 2 3 3 -2 -1 -1 -1 3 3 3 3 -2 0 -1 -1 3 2 3
3 0 1 0 1 0 1 1 0 0 -1 0 -1 1 0 1 1 -1 1 -1 2 -4 -3 -4 -3 -3 0 -2 -1 3 2 3
2 2 3 3 2 0 2 0 1 1 0 1 1 9 11 10 11 5 8 6 8 5 11 4 10 3 4 2 3 -1 4 -1 4 1
1 1 1 1 2 1 3 -1 11 -1 11 1 2 1 1 0 4 0 5 1 1 1 1 -1 0 -1 0 -1 -1 -1 -1 0 1
0 2 -2 0 -2 0 0 -1 0 -1 -1 1 -1 1 -1 6 0 6 -2 2 -1 1 0 1 0 1 -1 3 -2 3 0 2
0 2 -1 0 -1 0 0 1 0 2 -2 7 -3 7 3 3 2 2 0 3 -1 4 -1 9 -2 9 -2 2 -2 3 -1 7
-2 7 -3 8 -4 7 0 1 0 1 -1 0 -1 1 3 -7 2 -7 -2 -3 -2 -3 -2 0 -1 0 -1 3 -2 3
-5 5 -6 5 0 -1 0 -2 -1 0 -1 0 0 1 0 1 -3 3 -2 3 -2 3 -2 4 -5 6 -5 7 -4 3 -3
4 -1 1 0 2 -1 2 -1 3 -2 2 -2 2 -1 0 -1 0 -2 -1 -1 -1 -1 -4 0 -3 2 -2 2 -2 2
0 1 0 0 1 0 2 4 -5 4 -4 2 -3 1 -3 -2 1 -2 0 0 -2 1 -3 -2 2 -3 2 -1 0 -1 0 0
-2 0 -1 -5 5 -5 4 0 -1 0 0 -1 2 -1 3 -1 0 -2 0 -1 1 -1 1 1 -1 2 -1 -1 1 0 2
-3 -1 -2 0 -2 0 -2 1 1 1 0 1 -2 2 -2 2 1 0 1 0 -1 1 -1 1 1 1 0 2 -9 9 -9 9
-5 5 -5 5 1 0 1 -1 0 2 -1 2 3 0 3 -1 1 1 1 2 -2 1 -2 2 -6 5 -5 5 -2 1 -2 0
-4 4 -4 4 -1 0 -2 0 0 1 0 2 -2 2 -2 2 -2 -1 -2 0 0 1 -1 2 -1 0 -1 0 1 -3z
m28 -21 l0 -1 0 -2 1 -1 -2 1 -2 1 0 1 0 2 1 0 2 1 0 0 0 0 0 -2z m14 -27 l9
-8 -3 1 -2 2 -3 2 -2 1 -6 5 -6 5 0 1 0 2 2 -1 2 -1 9 -9z m71 -133 l1 -7 -1
-8 -1 -8 0 -3 -1 -2 -1 -5 -2 -5 -1 -1 -1 0 0 2 0 2 2 6 1 6 1 16 0 16 1 0 2
-1 0 -8z m3 3 l-1 -1 0 1 0 2 1 0 0 -1 0 -1z m1 -8 l0 -4 0 0 -1 0 0 4 -1 4 1
0 1 0 0 -4z m0 -8 l-1 -2 -1 -7 0 -7 -1 -6 -2 -5 -1 -3 -1 -2 1 3 0 3 1 2 0 3
1 7 2 8 0 4 0 4 1 0 1 0 0 -2z m-38 -58 l-1 -1 -1 -1 -1 0 1 1 0 2 1 0 1 0 0
-1z m83 -20 l-1 -1 -4 -10 -5 -10 -6 -9 -6 -9 -7 -7 -6 -7 -1 1 0 1 7 7 7 8 5
8 6 9 5 9 4 9 1 1 1 2 1 0 0 0 -1 -2z m-106 -17 l-4 -5 -3 -4 -3 -3 -4 -4 -4
-5 -5 -5 -5 -5 0 0 -1 0 1 1 2 2 4 5 4 4 11 12 11 12 1 0 0 0 -5 -5z m83 -47
l-1 -1 -1 0 -1 0 1 2 1 2 1 -1 1 -1 -1 -1z"/>
<path d="M388 884 l0 -1 1 0 1 -1 0 1 0 1 -1 1 -1 0 0 -1z"/>
<path d="M410 867 l0 -1 1 0 1 0 0 1 -1 1 -1 0 0 0 0 -1z"/>
<path d="M482 756 l0 -1 1 -2 1 -1 0 1 0 1 -1 1 -1 2 0 -1z"/>
<path d="M463 684 l-1 0 0 -2 0 -1 1 1 1 2 0 1 -1 0 0 -1z"/>
<path d="M447 663 l0 -2 1 0 2 -1 -2 -1 -1 -2 1 0 1 0 1 2 2 1 0 1 0 1 -1 -1
-1 0 -2 2 -1 1 0 -1z"/>
<path d="M572 661 l-1 -3 1 0 1 0 0 3 0 2 0 0 -1 0 0 -2z"/>
<path d="M445 659 l-1 0 0 -1 0 -1 1 0 1 0 0 2 1 1 -1 0 -1 0 0 -1z"/>
<path d="M442 654 l-1 -2 -1 -1 0 0 0 -2 -1 -2 -1 0 -1 0 0 2 1 2 -2 -1 -1 0
-1 -3 -2 -2 1 0 1 -1 0 1 1 1 2 -1 2 0 1 3 2 3 1 -1 1 -1 2 3 3 4 -3 0 -3 1
-1 -3z"/>
<path d="M441 646 l-1 -1 1 1 2 1 0 1 0 0 0 0 -1 0 -1 -2z"/>
<path d="M456 643 l-1 -1 1 1 1 1 0 1 -1 0 0 -2z"/>
<path d="M438 643 l-1 -1 1 0 1 0 1 1 0 1 -1 0 -1 0 0 -1z"/>
<path d="M430 638 l-2 -2 0 -1 0 -1 3 2 2 3 0 0 0 1 -1 0 0 0 -2 -2z"/>
<path d="M420 632 l-2 -3 -5 -6 -5 -6 0 -2 0 -1 2 1 2 1 4 6 5 6 3 2 3 3 -1 1
0 2 -2 0 -1 0 -3 -4z"/>
<path d="M404 621 l0 -1 1 -1 1 -1 1 1 2 1 -1 2 0 1 -2 0 -1 0 -1 -2z"/>
<path d="M548 619 l0 -1 1 0 1 1 0 -3 0 -2 -2 -1 -1 -1 0 1 0 1 -3 -5 -4 -5 2
-1 1 -1 2 0 2 1 0 -1 0 -1 3 1 2 0 1 1 0 1 1 4 0 3 1 1 2 1 -2 2 -1 2 0 1 1 1
-3 0 -3 1 -1 -1z"/>
<path d="M494 547 l-1 -1 1 0 1 0 0 1 0 1 0 0 -1 0 0 -1z"/>
<path d="M472 524 l0 -1 2 0 2 -1 -1 1 0 1 -2 0 -1 0 0 0z"/>
<path d="M578 472 l-1 -1 -10 0 -9 -1 -6 -1 -5 0 -3 0 -3 0 -2 -2 -1 -1 -3 0
-2 0 -1 0 0 -1 -2 0 -2 -1 -6 -2 -5 -2 -1 0 -2 0 -3 -2 -4 -2 -2 0 -1 1 -1 -2
-1 -1 3 0 4 0 1 0 2 0 0 -1 -1 -1 -4 0 -5 -1 0 -1 0 -1 8 1 8 0 4 1 4 0 0 -1
0 -2 -5 -2 -5 -1 -1 -1 -1 -1 6 1 7 0 -1 -1 -1 0 -2 -1 -2 0 -2 -1 -2 -1 1 0
2 0 4 1 5 1 -1 -2 -2 -1 -7 -2 -7 -2 -6 -2 -5 -2 0 -1 -1 -2 2 1 2 0 -2 -1 -2
-1 1 -2 0 -1 2 0 1 0 1 2 0 1 1 0 1 0 -1 -1 0 -1 4 0 4 1 -4 -2 -4 -2 0 -1 0
-2 -1 0 -2 -1 -1 1 -1 1 -5 -1 -5 -1 -1 -1 -1 -1 0 2 0 2 1 1 1 1 -4 0 -3 0
-2 -2 -1 -1 1 -1 0 -2 -1 0 -1 0 -1 1 -1 1 0 -1 0 -1 1 -2 1 -2 6 0 6 1 -1 -2
0 -2 1 1 2 2 0 0 1 0 -1 -2 0 -1 1 0 1 1 2 -1 1 -1 0 1 0 0 1 -1 2 -1 0 -3 0
-2 -3 -1 -2 -1 -1 -1 0 0 1 -3 1 -3 -2 -2 -1 -2 -2 0 -1 0 -1 -2 -2 -2 2 0 2
0 0 -1 0 0 -2 -3 -2 -3 1 -1 1 0 3 1 2 1 0 2 0 1 5 1 5 1 1 -1 1 -1 2 0 3 1 4
1 5 0 1 -1 1 -1 3 1 3 2 6 2 6 1 7 1 7 2 3 -1 4 0 0 -3 1 -2 3 -1 2 0 0 -2 0
-1 0 -3 0 -2 1 -2 1 -2 1 0 2 0 0 2 1 1 2 0 3 0 0 -3 0 -3 -1 -1 -1 0 -1 -6
-1 -5 -1 -2 -1 -2 -2 0 -3 0 -1 -1 0 -1 -2 -4 -1 -3 0 -3 -1 -2 -2 -5 -2 -5 1
-1 2 -1 2 0 2 0 -2 -4 -2 -4 0 -1 1 0 3 4 3 5 5 11 6 11 2 2 1 1 2 -1 2 0 0 3
0 3 -1 1 -1 1 2 0 3 0 1 0 1 0 2 0 2 0 0 -2 0 -2 1 0 1 0 -1 -5 0 -4 -1 -2 -1
-2 -1 -5 -1 -5 -1 0 -1 0 -1 -3 -1 -4 -1 0 -1 0 0 -1 0 -1 -3 -4 -3 -5 -2 0
-1 0 0 1 0 1 -1 2 -2 1 0 0 -1 0 -2 -4 -2 -4 0 -1 1 0 -5 -5 -4 -6 -3 -3 -3
-4 -1 0 -1 0 -1 2 0 2 -2 0 -2 0 0 1 0 0 2 3 1 3 0 1 -1 0 -5 -5 -6 -6 -1 0
-1 0 0 -2 0 -2 2 -1 1 -1 0 -1 0 -1 -8 -5 -7 -5 -1 0 -1 0 -4 -4 -3 -4 -5 -3
-5 -2 0 -1 0 0 6 3 6 3 0 -1 1 -1 2 1 2 1 2 -1 2 -2 3 1 4 2 0 1 1 1 1 0 2 0
-4 -3 -3 -3 -2 0 -1 0 -4 -3 -4 -3 -7 -2 -7 -3 -4 0 -4 -1 -1 1 0 1 -3 -1 -3
0 0 1 0 1 2 1 3 2 -2 -1 -2 -1 -8 -1 -7 -2 -5 -1 -4 0 -8 0 -7 0 -1 1 -2 1 -2
-1 -2 0 0 1 -1 2 -1 0 -1 -1 -2 3 -1 3 -2 2 -2 2 -3 0 -3 0 -2 -2 -1 -1 -4 -3
-4 -3 0 -2 0 -1 -1 -1 -1 0 -1 1 -1 1 -4 0 -4 1 -2 -1 -2 -2 -1 -2 0 -3 -1 -1
-1 -2 -5 1 -5 1 -10 3 -9 3 -2 1 -1 1 0 -1 0 0 -3 2 -2 2 -1 -1 -1 -1 -4 1 -4
1 0 -1 0 -1 2 -1 3 -1 2 -2 2 -2 -4 -2 -3 -2 -2 0 -1 0 -6 2 -6 3 0 -1 0 0 6
-3 6 -3 3 -4 3 -5 4 -1 4 -1 2 -2 2 -1 -1 -1 -1 -1 0 -4 0 -4 1 0 1 0 0 -2 0
-2 1 0 1 0 0 -1 0 -1 -4 -1 -3 -2 0 -2 1 -1 6 -4 6 -3 4 -3 5 -3 0 -2 -1 -1 1
-1 2 -1 5 -3 5 -2 0 -1 0 -1 2 -1 2 -1 -1 -3 0 -3 -1 -1 0 0 -3 1 -3 1 -4 1
-4 0 0 -1 -1 -1 -3 1 -3 0 1 -1 2 -1 -1 0 -1 -1 -2 1 -2 2 1 1 1 0 -2 0 -1 -1
-2 1 -2 1 -3 1 -3 0 -3 2 -3 1 -1 -1 0 0 0 1 1 1 -1 0 -2 0 0 1 0 1 -1 0 -1 0
-4 2 -4 2 -1 -1 -1 0 0 1 0 2 -1 0 0 0 -2 -1 -1 -1 -2 2 -2 1 -3 0 -3 0 0 2
-1 2 0 1 1 1 -2 -1 -2 0 -2 2 -1 2 0 -2 0 -1 -2 1 -1 1 -3 2 -2 2 1 2 0 2 -1
-2 -1 -1 -1 1 0 1 -2 0 -1 0 -3 3 -3 2 0 1 1 1 -2 1 -1 2 0 -1 0 -1 -3 1 -2 2
1 -2 1 -2 5 -4 6 -5 3 -2 3 -2 2 -3 3 -2 4 -4 5 -4 0 0 1 0 1 -3 0 -4 2 0 2 0
0 2 -1 1 5 -3 5 -2 1 -2 2 -1 -1 -3 0 -2 2 -1 2 -2 1 1 1 0 0 -2 1 -2 2 -1 3
-2 2 1 2 1 -1 2 0 2 1 0 2 0 2 -1 3 -1 -3 2 -3 3 0 0 1 0 4 -2 4 -2 9 -4 10
-4 1 -1 1 -1 -3 0 -2 1 2 -2 2 -2 3 0 3 0 1 -1 1 -1 2 0 3 -1 -3 1 -2 2 2 0 3
0 6 -2 7 -1 4 -1 4 -2 4 -1 4 -1 0 -1 0 -1 -4 0 -4 0 -4 2 -4 1 -1 0 0 -1 1 0
2 -1 7 -2 7 -3 2 -2 2 -2 -2 0 -2 1 0 -1 -1 -1 5 -1 6 0 1 -1 0 -1 2 1 2 0 4
-2 3 -1 3 0 3 -1 1 -1 1 -2 3 -1 2 -1 4 2 4 2 3 -2 3 -1 5 0 5 1 4 1 4 1 3 2
2 2 0 4 0 4 2 0 1 1 0 3 0 4 -2 1 -1 2 -1 0 -2 0 -2 3 -3 3 -2 -1 -2 0 -3 -3
-2 -3 -4 1 -3 0 -3 1 -2 1 -3 -1 -4 -1 -1 2 -2 1 4 3 3 3 0 3 -1 2 1 4 2 4 -1
3 0 3 4 2 4 1 1 1 2 1 2 0 3 0 7 2 8 1 5 2 5 2 2 3 2 3 3 0 3 1 0 2 1 2 2 1 2
0 0 1 1 1 -1 4 0 3 1 0 1 1 2 -1 2 -2 2 0 2 0 8 3 8 2 3 4 4 3 4 1 4 0 3 2 3
1 1 3 1 3 -1 2 -1 2 2 2 1 2 -1 2 -2 1 7 7 7 7 0 1 -1 0 -2 -1 -2 -1 -3 -3 -3
-3 -1 0 -1 0 0 1 0 2 -1 0 -1 1 1 1 1 2 -1 0 -1 1 1 2 0 2 3 1 4 2 0 2 1 3 0
1 0 1 -2 2 -2 2 1 1 2 0 3 4 3 4 0 0 -1 0 -1 -2 -2 -1 0 1 0 1 3 3 3 4 1 0 0
-1 -1 -1 -1 -2 1 0 1 0 1 2 1 2 -1 1 -1 2 -3 -4 -4 -4 -2 0 -1 0 -3 -2 -2 -1
-3 -2 -2 -2 1 1 0 2 5 5 5 6 0 1 0 0 -3 -3 -4 -3 0 1 -1 0 1 1 1 2 5 6 5 7 2
2 3 3 0 1 1 2 1 0 1 0 0 1 -1 1 1 0 2 1 0 2 1 3 3 5 3 4 0 -1 1 0 0 1 -1 2 4
11 5 12 0 2 0 2 1 3 1 3 1 0 1 0 0 -6 -1 -5 -1 -3 -2 -2 1 0 1 1 0 -3 0 -3 1
2 2 3 1 5 1 5 0 2 1 2 0 1 0 2 1 0 2 0 -1 1 0 2 2 3 3 4 0 2 -1 3 1 -2 0 -1 1
0 1 0 0 4 0 5 -1 -1 -2 0 0 2 -1 2 0 2 0 3 -3 3 -3 3 0 -1 -1 -1 -1 2 0 2 -4
8 -3 8 -4 4 -3 4 1 1 1 1 2 -1 3 -1 -2 2 -2 2 1 0 2 0 2 -1 3 -1 -2 1 -1 2 2
3 3 4 1 0 2 0 6 -5 5 -5 1 0 1 0 2 3 2 4 0 1 0 0 -5 5 -4 5 2 -1 3 -2 0 2 0 3
0 2 1 2 -3 2 -2 3 -1 0 -1 0 -12 6 -12 6 -7 2 -6 2 -8 0 -8 1 -2 -1z m57 -32
l2 -1 -2 1 -2 1 0 1 0 0 0 0 1 0 1 -2z m-15 -34 l3 -6 0 -2 0 -1 -1 0 -1 1 0
3 -1 2 -2 5 -3 5 1 -1 1 0 3 -6z m-105 -8 l0 0 -3 -1 -3 -1 0 -2 0 -1 0 0 -1
0 -2 -1 -1 0 2 1 2 2 -2 0 -2 -1 -1 0 -1 0 -1 1 0 2 1 -2 1 -1 3 2 4 3 2 0 2
0 0 -1z m92 -46 l-1 -1 0 -1 1 -1 -1 0 -1 -1 0 1 0 2 1 3 1 4 1 -3 0 -2 -1 -1z
m-3 -8 l-1 -1 0 0 0 1 1 1 0 2 1 0 0 -1 -1 -2z m-3 -7 l-1 -1 0 1 0 1 1 0 0 1
1 -1 0 0 -1 -1z m-24 -65 l-1 -1 -1 0 0 1 0 1 1 1 1 0 1 0 -1 -2z m-109 -25
l0 -1 -1 0 0 -1 -4 0 -3 -1 -2 2 -2 2 0 1 1 1 5 -1 6 0 0 -2z m-118 -69 l-1 0
-1 1 -1 1 1 -1 2 0 0 -1z m29 -7 l4 -1 0 -1 0 -1 -2 0 -1 1 -3 1 -3 1 -1 0 0
-1 4 -2 5 -1 0 0 1 0 0 -1 0 -1 -2 1 -2 0 -4 2 -3 1 0 1 -1 2 1 0 0 1 2 -1 2
0 3 -1z m9 -1 l-1 0 -1 0 -1 1 1 1 0 1 1 -1 1 -1 0 -1z m6 0 l1 -1 -1 0 -2 0
1 1 0 1 1 0 0 0 0 -1z"/>
<path d="M497 448 l0 -1 2 1 2 0 0 1 0 0 -2 0 -2 0 0 -1z"/>
<path d="M493 447 l0 -1 1 1 1 0 0 1 0 0 -1 0 -1 0 0 -1z"/>
<path d="M644 427 l1 -1 1 -1 1 0 0 2 0 1 -2 1 -1 0 0 -2z"/>
<path d="M90 425 l-1 0 0 -2 0 -1 2 0 1 0 0 1 0 2 -1 0 -1 1 0 -1z"/>
<path d="M79 416 l0 -1 1 0 1 0 0 1 0 1 -1 0 -1 0 0 -1z"/>
<path d="M487 410 l-1 -1 1 0 1 0 1 1 0 1 -1 0 -1 0 0 -1z"/>
<path d="M650 406 l-1 -2 1 -2 1 -2 1 0 2 0 1 2 1 1 -1 2 -1 2 -1 0 -2 0 -1
-1z"/>
<path d="M638 383 l-1 -1 0 -2 0 -2 2 1 1 0 0 -1 0 -1 2 1 1 1 0 3 0 2 -3 0
-2 0 0 -1z"/>
<path d="M211 345 l0 -1 1 1 0 1 0 1 -1 0 0 -2z"/>
<path d="M122 342 l-2 -1 0 -1 0 -1 4 -1 3 0 1 0 0 1 -2 2 -2 2 0 0 0 0 -2 -1z"/>
<path d="M213 331 l0 -1 1 0 1 0 0 1 0 1 -1 0 -1 0 0 -1z"/>
<path d="M213 323 l-1 -2 1 -2 1 -2 2 0 1 0 0 1 1 1 1 0 1 0 1 1 0 2 -2 1 -1
2 -3 0 -2 0 0 -2z"/>
<path d="M620 321 l0 -2 1 0 0 1 -1 1 -1 2 1 -2z"/>
<path d="M253 314 l-1 0 0 -1 0 -1 1 0 2 0 0 2 1 1 -1 0 -2 0 0 -1z"/>
<path d="M263 307 l0 -1 1 1 1 0 0 1 0 0 -2 0 -1 0 1 -1z"/>
<path d="M251 298 l0 -1 1 0 1 0 0 1 -1 1 -1 0 0 0 0 -1z"/>
<path d="M255 296 l0 -1 1 0 1 0 0 1 -1 1 -1 0 0 0 0 -1z"/>
<path d="M602 294 l-1 -1 1 1 2 1 0 1 0 0 0 0 -1 0 -1 -2z"/>
<path d="M257 287 l-1 0 1 -2 1 -2 2 0 1 0 0 1 0 1 -2 1 -2 2 0 -1z"/>
<path d="M283 242 l-1 -2 1 -1 1 -1 1 1 1 1 0 1 -1 2 -1 0 -1 0 0 -1z"/>
<path d="M298 227 l0 -1 1 0 1 0 1 1 0 1 -1 0 -2 0 0 -1z"/>
<path d="M318 210 l-1 -1 2 -2 1 -1 0 1 0 2 0 1 0 0 -1 1 -1 0 0 -1z"/>
<path d="M327 186 l0 -1 2 -1 2 -1 -2 1 -1 2 -1 0 0 0 0 0z"/>
<path d="M490 159 l-1 -2 1 -3 0 -4 3 1 2 0 0 2 1 2 -2 3 -2 2 -1 0 -1 0 0 -1z"/>
<path d="M384 151 l0 -1 2 0 2 1 0 -2 0 -1 1 -1 1 0 1 1 1 1 -1 1 -1 1 -2 0
-3 0 1 1 0 1 -1 0 -1 0 0 -2z"/>
<path d="M411 148 l1 -1 1 0 0 1 -2 0 -1 1 1 -1z"/>
</g>
</svg>
