<?xml version="1.0" standalone="no"?>
<!DOCTYPE svg PUBLIC "-//W3C//DTD SVG 20010904//EN"
 "http://www.w3.org/TR/2001/REC-SVG-20010904/DTD/svg10.dtd">
<svg style="fill: black; stroke: black;" version="1.0" xmlns="http://www.w3.org/2000/svg"
 width="847.294342pt" height="898.400000pt" viewBox="0 0 847.294342 898.400000"
 preserveAspectRatio="xMidYMid meet">
<metadata>
Created by potrace 1.16, written by Peter Selinger 2001-2019
</metadata>
<g transform="translate(-89.205658,932.000000) scale(1.000000,-1.000000)"
fill="#000000" data-original="#000000" stroke="none">
<path d="M530 931 l-2 -2 0 -3 -1 -3 -1 -2 -2 -3 -1 0 -2 0 -2 -3 -3 -3 -2 1
-2 0 -8 1 -8 0 -1 -1 0 -1 1 -1 1 -1 -1 -2 -1 -1 -4 -5 -5 -4 -7 -2 -6 -1 -7
0 -6 -1 -2 -1 -1 -1 -11 -2 -10 -3 -17 -6 -17 -5 -1 1 -1 1 -2 -1 -1 0 -1 0
-1 0 -1 -2 -2 -2 -1 0 -1 1 -2 0 -1 1 -5 -2 -5 -2 -2 -1 -2 0 -4 -2 -3 -1 0
-3 0 -2 1 0 2 0 7 4 7 3 1 0 1 -1 -2 -1 -2 -1 -11 -5 -11 -5 -4 3 -4 2 0 2 0
2 -2 0 -1 1 -2 0 -2 0 -3 2 -3 2 -1 7 0 7 -3 5 -4 5 -4 2 -4 2 -5 0 -5 0 -4
-1 -4 -1 -4 -3 -4 -4 -3 -4 -2 -4 0 -4 0 -4 2 -4 2 -3 3 -3 4 -2 -1 -4 0 -4 1
-3 1 -3 0 -2 -1 -3 -3 -3 -2 -2 -2 -4 -1 -4 1 -1 1 -1 0 -2 0 -2 -5 -6 -6 -5
0 -2 0 -2 -4 -3 -4 -4 -1 0 -1 0 -1 1 0 2 -5 1 -4 2 -3 0 -2 0 -4 -2 -5 -2 -1
-2 -1 -3 0 -1 0 -2 -7 -7 -7 -8 -2 -4 -2 -4 -1 -1 -2 -1 0 -2 0 -1 -5 -4 -4
-4 1 -4 1 -5 -2 -2 -1 -1 0 -1 0 -1 1 2 2 2 0 -2 0 -2 -2 -1 -2 -2 0 1 -1 1
-3 -3 -3 -3 -2 -5 -2 -4 -3 0 -3 1 -2 -1 -2 -1 -2 -3 -1 -4 1 -2 0 -3 -1 -2
-2 -2 1 -1 2 -1 0 -1 0 -1 -5 -10 -4 -9 0 -1 1 0 4 6 4 6 2 -1 2 0 0 1 0 1 2
2 2 2 5 7 6 7 2 0 1 1 0 0 1 0 0 -4 0 -5 2 -2 2 -3 0 -1 0 -2 -3 -3 -3 -4 0
-1 0 -1 1 0 2 -1 -4 -6 -3 -6 1 1 2 1 2 -1 1 -1 0 -3 0 -3 1 -3 2 -3 -1 -4 -2
-4 0 -1 0 0 2 3 2 3 1 1 1 0 0 -3 -1 -3 2 2 2 2 -4 -8 -4 -7 -8 -17 -9 -17 -2
-5 -2 -5 -2 -8 -2 -7 1 4 0 5 2 6 2 6 0 2 1 3 1 3 1 3 -1 -1 -1 -1 -3 -10 -3
-9 -3 -11 -2 -10 0 -2 -1 -1 0 -7 -1 -6 -1 -4 0 -4 -1 -2 -1 -1 0 -2 -1 -2 -1
0 -2 0 0 1 0 1 -1 0 -2 0 -1 2 -2 1 0 3 0 4 -1 -2 0 -1 -1 -1 -1 -1 -2 0 -2 0
-2 2 -2 2 -1 -2 -2 -2 -2 0 -1 1 -1 0 -1 0 0 5 1 5 -1 0 -1 0 0 3 0 4 1 0 0 1
0 6 1 7 2 8 2 9 0 2 0 1 -1 0 -2 0 -1 -3 -1 -2 -1 -4 0 -4 -1 1 -1 2 -2 -1 -1
-1 1 3 0 4 2 6 1 7 -1 2 -1 1 1 5 1 4 -1 1 -1 1 -1 0 -1 -1 -1 -6 -2 -6 -1 -7
-2 -6 0 5 0 6 -2 0 -1 0 0 6 1 7 -1 2 -1 3 -1 0 -1 1 1 3 1 3 0 2 0 1 -2 0 -1
1 -2 -1 -1 -1 -2 -7 -2 -7 -2 -4 -2 -4 -2 0 -2 0 -2 -3 -1 -4 -1 -7 -1 -6 0
-7 -1 -6 -1 -4 0 -4 -2 -11 -2 -10 0 -3 0 -3 3 -3 3 -3 0 -17 0 -17 -1 0 0 -1
-3 2 -2 1 -2 0 -3 -1 -4 -4 -3 -3 -3 -6 -3 -6 -1 -6 -1 -6 1 -6 1 -5 2 -4 3
-4 3 -3 3 -3 3 -1 4 -2 3 0 4 0 3 1 4 1 3 0 2 -1 1 -4 1 -3 2 -3 2 -2 2 0 1 0
1 -3 1 -2 5 -19 5 -19 1 2 1 3 1 0 2 -1 2 -5 3 -5 -2 -2 -2 -2 -1 2 -1 2 -1 0
-1 0 0 -2 1 -1 1 -3 0 -3 -2 4 -3 5 -1 0 -1 0 -1 4 -2 4 -2 5 -1 5 -1 1 -1 0
0 -1 0 -2 2 -4 1 -3 1 -2 1 -2 1 -5 2 -5 4 -10 3 -10 6 -12 5 -11 0 -1 0 -1 3
-2 3 -3 0 1 1 0 2 -1 2 -1 3 -5 3 -5 1 0 0 0 0 2 -1 1 0 0 1 0 6 -9 5 -8 4 -3
4 -3 2 1 2 0 3 -3 3 -3 1 0 0 1 -2 2 -3 3 0 0 0 1 -7 11 -7 11 0 2 -1 2 4 -1
4 0 1 -1 1 -1 3 1 3 0 2 -2 3 -1 0 1 0 1 1 0 1 -1 0 1 0 1 1 2 2 1 2 -2 2 -2
3 -5 3 -5 5 -7 5 -6 4 -5 3 -4 0 -3 -1 -3 8 -9 9 -8 0 -2 1 -3 -1 -1 -1 -1 1
-2 0 -1 3 -4 3 -3 0 -1 0 -1 -1 0 -2 0 1 -1 0 -2 -2 -1 -2 -2 0 -2 0 -2 1 -2
1 -3 5 -4 6 -3 7 -6 7 -6 -1 -3 0 -3 4 -4 4 -3 5 -2 5 -2 3 -3 3 -3 0 -2 0 -1
2 -1 1 -1 0 -3 -1 -2 1 -3 0 -2 6 -4 6 -4 3 1 3 0 4 3 5 3 4 -2 5 -1 3 2 3 2
1 0 2 0 0 2 1 2 5 -2 4 -2 1 0 1 0 1 0 1 0 0 -1 -1 -1 2 -1 2 0 3 -3 4 -3 7
-3 8 -4 3 -1 4 -2 9 -3 10 -4 1 2 1 1 -1 0 -1 -1 -1 1 -1 2 -7 2 -7 3 0 1 0 1
3 1 2 0 8 -3 9 -3 -1 -1 0 -1 1 -2 1 -1 -1 -1 -1 -1 3 -1 3 -1 1 1 1 1 2 -1 2
-1 3 0 3 1 10 -3 10 -3 9 -2 10 -2 -1 -1 0 -1 -2 1 -2 0 -1 -2 -1 -2 3 -1 3
-1 2 0 2 0 0 1 0 2 -1 1 -1 0 0 1 0 1 5 0 5 -1 3 2 3 3 2 0 3 0 9 0 10 -1 10
0 10 -1 2 2 2 2 -7 0 -7 0 -6 0 -6 1 -10 1 -9 1 -4 1 -4 1 0 1 0 0 7 0 7 -1
10 -1 11 0 7 -1 7 -1 13 0 12 1 5 1 4 1 2 2 1 2 0 1 0 1 -2 0 -1 0 -10 -1 -10
-2 -1 0 -1 -1 -21 0 -20 0 -10 1 -9 1 -1 1 -1 2 -2 -2 -2 -1 -5 1 -4 1 -1 1
-1 1 -6 2 -6 1 -1 1 -1 1 1 -1 2 0 0 1 0 1 -1 0 -2 1 1 1 0 2 4 -1 4 -1 4 0 5
1 0 2 0 3 -1 0 -1 0 0 1 0 1 2 1 2 1 -2 0 -2 1 0 1 0 1 9 0 10 -1 14 -1 14 -1
3 0 4 0 0 -1 0 -1 3 0 3 0 0 -2 1 -2 17 0 18 1 3 0 4 1 1 -1 1 -1 7 2 8 1 1 3
0 3 11 2 11 3 2 1 2 1 -1 1 -1 1 1 2 0 1 -1 0 -1 0 1 1 1 1 11 4 11 4 1 0 1 0
3 -1 2 -2 -2 -1 -3 -1 0 -1 1 0 3 2 3 1 0 0 1 0 -1 1 0 1 1 1 1 1 2 -1 1 -1 3
1 3 1 0 1 0 1 -1 1 -1 0 1 2 1 2 6 3 7 3 5 4 5 3 1 -1 1 0 0 1 -1 1 1 0 1 1 0
-1 0 -1 4 2 4 3 2 -1 2 -1 3 2 4 2 0 -1 0 -1 -3 -1 -3 -2 -2 -2 -1 -2 5 3 5 4
2 0 1 0 -1 -2 -1 -2 3 2 3 1 5 5 6 4 1 0 1 0 0 -1 0 -1 2 0 2 1 2 0 2 1 -2 -1
-1 -1 0 0 1 0 4 4 4 3 0 -1 0 -1 -6 -6 -5 -5 -4 -4 -4 -3 0 0 0 -1 2 0 2 0 7
7 6 7 0 1 -1 0 1 2 1 1 1 -1 1 0 0 2 0 3 2 1 1 2 1 -2 0 -1 3 1 2 2 3 -1 3 0
1 2 2 2 2 2 3 1 -2 -2 -2 -2 5 3 5 3 6 6 6 7 4 5 4 5 1 0 2 1 1 5 2 5 -1 0 0
0 -1 -1 -2 -1 0 0 0 1 1 3 1 4 4 5 4 6 1 2 1 2 0 0 -1 0 -2 -4 -3 -4 -3 -4 -4
-3 -1 0 -1 0 -4 -5 -4 -4 -2 1 -2 2 2 3 2 3 -1 3 -1 3 -2 1 -2 1 -10 -10 -9
-9 -1 0 0 1 2 4 2 4 -3 -3 -3 -3 -2 1 -2 2 5 5 5 6 0 1 0 1 2 2 3 3 4 6 5 6 3
4 3 4 1 -1 1 0 0 2 0 2 1 -1 1 0 1 2 1 2 0 1 0 1 0 1 0 1 4 4 4 4 5 9 4 9 3 3
2 4 2 0 1 0 0 -3 -1 -2 -1 -2 0 -2 1 1 2 2 1 0 2 1 0 -2 0 -1 2 2 2 2 2 -1 2
0 3 3 3 3 1 0 1 0 1 -1 0 -1 1 0 1 1 2 -3 3 -3 0 -2 0 -1 3 -2 3 -2 1 1 1 1 3
0 3 0 2 4 3 4 0 1 0 1 1 0 1 0 1 0 1 1 1 0 1 1 0 2 0 2 3 2 4 2 2 4 2 4 1 4 1
5 1 5 2 6 1 1 1 1 1 2 1 2 0 2 0 3 -1 2 -2 2 0 2 0 2 -1 -2 0 -1 -1 0 -1 0 0
4 0 4 -1 -3 0 -2 -1 0 -1 0 0 2 0 1 -1 0 -1 0 0 2 -1 2 2 5 1 5 -1 5 -1 5 0 6
0 6 2 3 2 2 0 4 -1 3 2 3 2 2 0 4 -1 5 0 2 0 2 2 2 2 3 0 2 1 3 -2 3 -3 4 3 5
2 4 -2 2 -2 2 0 1 0 1 3 3 2 3 0 4 0 4 -4 4 -4 4 -3 0 -3 1 -1 2 -1 2 -1 -1
-1 0 -2 1 -1 1 -1 7 -1 8 -3 7 -2 7 -2 1 -1 2 0 0 0 1 -1 2 -2 1 -1 0 -1 0 -1
3 -1 4 -1 -1 -1 0 -2 4 -1 4 -2 1 -2 1 -2 5 -2 5 0 1 -1 2 3 2 4 2 1 3 1 2 0
9 0 9 -1 2 -2 3 -4 5 -4 5 -4 3 -4 2 -2 -1 -3 0 -3 3 -4 4 -2 0 -2 0 -4 -2 -3
-3 -4 3 -3 2 -3 0 -2 0 -3 2 -2 2 -2 -1 -2 -2 -1 0 -1 0 0 -1 1 -2 -1 0 -1 0
0 1 0 1 -4 5 -4 5 -4 4 -3 4 -3 2 -3 2 -4 0 -3 0 -1 2 -2 1 -1 0 -2 0 -2 4 -3
4 -9 8 -8 9 -1 -2 0 -1 -1 0 -2 0 -5 6 -6 6 -4 3 -4 2 -1 -1 -1 -1 1 -2 2 -3
-1 -1 -2 -1 1 -2 1 -3 2 -3 3 -2 0 -4 0 -4 2 -3 2 -2 -1 -3 -1 -2 -4 4 -4 4 1
-4 2 -3 -2 -1 -2 -2 -8 7 -8 7 -5 3 -5 3 4 -5 5 -4 1 -3 1 -2 -1 0 -1 0 -1 1
0 1 -2 0 -2 -1 -10 7 -9 7 1 1 0 1 -1 0 -1 -1 -2 1 -1 2 -2 0 -2 1 1 1 1 0 3
-2 2 -2 0 1 0 1 -2 2 -2 1 0 3 1 2 -2 1 -1 1 -4 1 -3 2 2 -3 3 -3 -1 0 -1 -1
-3 2 -2 1 2 -2 2 -3 -1 0 0 -1 0 -2 1 -2 1 0 1 0 3 -3 3 -2 8 -7 8 -7 0 -1 -1
-1 1 0 1 -1 0 -1 -1 -1 1 0 2 -1 0 -2 0 -3 -1 0 0 0 -1 1 -2 2 -6 4 -7 5 -1 0
-1 1 1 -2 2 -2 0 0 -1 -1 -4 3 -3 3 -5 3 -5 2 -6 4 -6 3 1 1 0 1 1 -1 2 -1 3
0 3 -1 -3 2 -2 3 0 1 0 0 -1 1 0 1 0 -2 1 -1 -1 0 0 0 -2 1 -2 1 1 1 2 1 -3
-1 -2 0 1 1 0 1 -1 0 -1 -1 -1 1 -2 0 1 1 0 1 -1 0 -1 -1 -11 4 -10 4 -1 0 -1
0 -4 4 -3 5 -3 1 -4 1 -3 -1 -3 -2 -4 1 -4 1 -2 0 -1 -1 4 0 4 -1 0 -2 0 -2
-9 -1 -9 0 -4 0 -4 0 0 -1 0 -1 -1 1 -1 0 -2 1 -1 0 1 -2 0 -1 2 0 2 0 0 -1
-1 -1 -1 0 -1 0 -3 -1 -3 -1 1 -1 2 -1 0 -1 0 -2 1 0 1 -1 -1 -2 -1 -2 1 -3 1
-2 4 -2 4 -1 10 -3 10 -3 4 -1 4 0 3 3 2 3 1 0 1 -1 4 1 5 1 6 -2 6 -1 3 -2 3
-1 0 -1 1 -2 -1 -1 -1 0 2 -3 1 -3 6 0 7 0 2 1 3 1 3 -2 3 -2 5 -5 5 -5 1 -4
1 -4 4 -3 5 -3 4 -1 4 0 0 1 1 1 2 0 2 0 5 -4 4 -5 -1 -2 -1 -3 1 -1 0 -2 -1
0 -1 -1 0 -2 0 -2 -1 0 -2 -1 0 -3 0 -4 3 -3 3 -3 3 -1 2 -1 1 -2 0 -1 2 -2 1
-1 0 1 1 0 0 -2 0 -2 2 1 3 2 4 -4 4 -3 3 0 4 0 1 -1 1 0 3 -5 3 -5 1 0 0 0
-1 3 -1 3 2 -3 2 -2 -1 2 -1 2 0 1 1 0 3 -2 2 -3 2 1 2 0 2 -1 2 -2 3 -1 4 -2
0 -2 0 -3 2 -5 3 -5 0 -2 0 -1 -2 -2 -2 -2 0 -4 0 -4 -2 -1 -2 -1 0 1 0 0 -1
-1 -1 -1 2 -6 2 -6 0 -6 1 -5 -1 0 -1 0 -1 2 0 2 -2 -1 -1 -1 -1 0 -1 0 -2 0
-1 0 0 -3 0 -3 -1 0 -1 -1 -2 2 -3 2 -3 0 -4 0 0 2 0 2 -4 5 -3 5 -2 1 -1 1
-5 2 -4 2 -4 0 -4 0 -3 -2 -2 -3 -1 -6 0 -6 2 -8 3 -8 3 -4 3 -4 0 -2 0 -2 -2
-1 -2 -2 -1 0 -1 0 0 -2 -1 -2 1 -4 1 -4 -1 -2 -1 -2 0 -5 0 -4 2 -6 3 -5 5
-4 6 -4 0 -2 -1 -1 -1 -4 -2 -4 -3 -3 -3 -2 -5 1 -6 0 -3 0 -3 -1 -3 -2 -3 -3
0 -4 0 -4 2 -4 2 -3 4 -2 4 -2 0 -1 0 -1 -5 -5 -6 -6 1 -2 0 -2 -2 -2 -2 -1
-1 1 0 1 -3 1 -2 1 -2 -1 -2 -1 0 -1 0 -2 -1 -1 -1 0 -4 -1 -3 0 -3 -2 -2 -3
-4 -1 -4 -1 -4 -5 -5 -4 -1 0 -1 0 -1 -2 -2 -1 -1 -4 0 -4 -2 -1 -2 -1 -3 0
-3 0 -1 -1 -2 -1 0 -3 -1 -2 -1 -3 -2 -2 -1 0 -2 0 -2 -3 -2 -2 1 -2 0 -2 4
-3 4 -2 1 -2 0 -2 -1 -2 0 -3 -5 -2 -4 -2 -4 -4 -5 -4 -2 -2 -3 -2 0 -1 0 -1
3 -1 2 -1 0 -1 0 -2 -1 -1 -1 -1 0 -2 1 -2 1 0 1 0 0 -1 0 -2 -2 -1 -2 -2 -5
-2 -6 -2 0 -2 -1 -2 1 0 1 0 0 -1 0 -1 -2 0 -1 0 -4 -2 -3 -2 -1 -1 -1 -1 -5
-1 -6 0 -1 3 -1 3 -2 0 -2 1 -8 0 -8 0 -2 1 -2 1 1 0 2 1 -1 2 -1 1 0 1 1 0
-1 3 -1 2 1 0 1 1 4 1 5 0 1 1 2 1 -1 1 0 2 -3 1 -3 1 -3 0 -2 0 -1 2 -1 2 -2
1 -2 1 -3 -2 -2 -1 -2 0 -2 1 -1 4 -1 4 -2 1 -2 2 -2 0 -3 0 -2 -2 -2 -1 0 -4
0 -3 -5 0 -4 0 -1 -1 -2 -2 -4 1 -4 0 0 -1 1 -1 -1 -2 -2 -2 1 -2 1 -1 -1 -1
0 -1 -5 0 -5 1 0 -1 0 -1 -2 0 -2 0 -3 3 -3 3 -1 2 0 2 -1 1 0 2 -1 2 0 3 0 0
0 1 -8 4 -8 4 -3 -1 -3 0 0 1 0 1 -3 3 -2 3 -4 2 -3 1 -1 0 0 -1 -6 3 -6 3 -2
3 -2 2 -1 0 -1 0 0 -1 0 -2 2 -1 2 -1 -2 0 -2 0 -3 2 -2 2 -8 6 -7 7 -6 7 -7
8 -2 1 -2 0 -2 2 -2 2 -3 -2 -2 -2 2 -3 2 -4 -1 0 -2 0 -2 2 -2 1 -1 -1 -2 -1
-2 2 -2 2 -4 5 -5 6 1 1 0 1 -1 2 -1 1 0 1 1 1 1 -1 1 0 -1 2 0 2 -2 2 -1 2 3
1 4 0 1 1 1 2 0 4 1 4 -2 3 -1 3 -2 1 -3 1 -3 -1 -2 -2 -3 4 -3 4 -2 6 -3 5
-1 0 0 0 0 -2 1 -2 -2 -1 -2 -1 -1 1 -1 1 -2 4 -2 5 -1 1 -2 1 -1 3 -2 3 -2 0
-1 1 0 3 -1 4 -2 1 -1 1 -3 0 -2 0 0 2 -1 3 -1 8 -1 9 0 7 0 7 3 0 3 -1 0 2 1
2 0 -6 1 -6 0 -2 1 -1 0 6 0 6 1 1 1 0 2 -1 1 -1 0 2 0 3 1 1 1 0 0 -2 0 -2 1
0 1 0 0 -4 0 -4 1 -5 2 -5 0 1 0 2 2 1 2 2 1 1 1 2 -1 8 0 9 2 3 2 4 0 4 0 4
-1 1 -1 0 0 4 0 4 2 4 3 5 0 2 0 2 0 1 -1 2 -2 -1 -2 -1 -1 0 0 1 0 4 0 4 -1
0 -1 0 0 7 1 8 -1 2 -1 3 -2 0 -1 -1 1 1 1 2 0 2 -1 2 -2 -5 -2 -5 -1 0 0 1 1
4 1 5 3 5 3 4 0 2 -1 1 2 3 1 2 0 2 -1 2 3 6 3 7 2 1 1 2 -1 0 0 0 1 1 1 1 5
7 5 7 8 7 8 8 2 -1 2 0 2 3 2 2 0 0 1 -1 -4 -4 -3 -3 -3 -5 -3 -4 3 0 4 1 -2
-3 -1 -2 -2 -4 -2 -3 0 -2 1 -2 -1 -2 -1 -2 1 0 0 1 2 -2 1 -2 -2 -4 -3 -4 -1
0 0 1 -3 -2 -3 -1 -1 -3 0 -2 -1 0 -1 0 0 -1 0 -2 2 -2 2 -2 2 1 3 1 -1 -3 0
-3 1 -1 2 -2 1 0 1 0 1 2 1 2 1 3 0 2 -2 1 -1 2 1 1 0 2 4 -1 5 0 4 3 5 3 1 5
1 4 4 4 5 3 5 2 5 3 2 3 2 3 4 0 4 0 3 3 3 2 0 3 0 3 -2 2 -2 3 -1 0 -2 0 -1
1 -1 2 4 4 4 5 0 1 0 2 0 0 0 1 3 3 3 3 1 0 2 1 0 1 0 2 5 2 5 3 3 0 4 1 1 3
1 3 5 3 6 4 0 2 0 1 -1 2 -1 2 1 3 1 3 -3 -1 -3 -1 0 1 0 1 2 0 1 1 0 1 -1 1
1 1 2 2 5 2 5 2 1 -2 2 -1 3 2 3 2 0 2 0 3 0 1 0 1 2 0 3 1 2 3 1 2 2 0 1 0 0
1 0 1 3 4 4 3 5 2 6 1 -6 -1 -5 0 -2 -1 -2 0 1 1 1 1 7 1 7 2 3 1 3 2 3 0 4 1
0 1 -1 2 4 0 4 1 3 0 4 0 2 1 2 2 -6 0 -6 0 0 -1 0 -1 -7 0 -7 0 -6 -1 -5 -1
-2 0 -1 0 4 2 5 1 -3 0 -2 0 -10 -2 -10 -2 -2 0 -1 0 0 1 0 2 5 1 6 2 5 2 6 1
1 2 1 3 4 1 4 2 4 1 4 1 0 1 0 1 -1 0 0 0 -10 -1 -9 -2 -4 0 -4 0 -4 -3 -4 -3
-1 0 -1 0 0 1 1 1 -1 0 -2 -1 -2 -1 -2 -2 -2 0 -1 0 1 -1 1 -1 -1 -1 -1 -1 -3
-1 -3 -1 3 0 3 0 -1 -1 -1 -2 1 0 2 0 0 -1 0 -2 -11 -3 -11 -4 0 1 0 1 -2 -1
-3 -2 -1 -1 -2 -2 -2 0 -3 0 -1 -3 0 -2 -7 -3 -7 -4 -8 -4 -8 -4 -7 -4 -6 -4
-1 0 -2 0 0 -1 -1 0 1 1 0 1 -2 0 -1 1 0 1 0 2 5 4 4 3 3 0 4 0 1 2 2 2 0 2 1
3 2 2 3 3 0 1 1 2 4 2 4 2 1 0 2 0 2 3 3 3 -1 0 0 1 3 1 3 2 0 0 0 1 -2 -1 -2
0 1 1 2 2 3 2 3 2 -3 0 -2 -1 0 1 0 1 5 2 4 2 2 0 2 -1 -3 -1 -3 -2 1 0 2 0 5
2 5 3 -2 0 -1 0 1 1 2 2 2 1 3 1 3 -1 4 -1 2 0 2 0 5 2 6 2 1 1 2 1 0 1 -1 2
1 2 1 2 4 1 4 0 1 2 2 1 4 1 4 0 6 1 7 1 2 -3 3 -3 4 1 4 0 1 -1 2 -2 12 1 13
0 7 0 7 0 0 1 0 1 4 0 5 0 -3 1 -3 1 1 0 2 1 10 -1 10 -2 2 1 1 1 0 3 0 2 -1
1 -1 1 -3 0 -2 1 -2 2 -2 1 1 1 2 1 -4 1 -3 0 1 1 2 1 -2 0 -2 0 0 1 0 1 3 -1
3 0 0 -1 1 -1 6 0 6 0 -2 1 -1 0 0 2 0 3 -1 0 -1 0 -3 0 -3 1 1 -1 0 -1 -3 0
-3 0 -7 1 -6 1 0 2 0 1 -2 1 -3 1 0 1 0 1 1 0 1 -1 0 1 0 1 3 -1 4 0 2 0 3 -1
4 0 5 -1 5 -2 5 -1 1 0 1 0 1 3 2 2 3 2 3 2 3 -1 2 0 -1 1 0 2 1 0 2 0 2 0 3
0 -3 1 -2 2 1 0 2 0 7 -2 7 -2 2 -2 3 -1 0 1 1 2 0 -2 0 -2 2 0 1 0 2 0 2 0
-1 -1 0 0 3 -2 3 -1 0 -1 -1 -1 1 0 1 0 0 -1 0 -1 -2 1 -2 0 1 -1 2 -1 -2 0
-2 1 -1 0 0 0 1 1 0 1 -1 0 -2 -1 0 1 0 1 -3 1 -3 1 -5 1 -5 0 2 -2 3 -3 3 0
2 0 6 -2 7 -3 1 0 2 -1 -1 1 -1 2 2 -1 3 0 -1 1 0 1 -2 0 -1 0 0 1 0 2 2 0 1
1 -1 -1 0 -1 2 0 3 0 0 1 0 1 1 0 1 -1 0 0 0 1 -4 2 -4 2 0 1 1 0 4 -2 4 -2 3
1 3 0 2 -2 2 -1 0 -1 0 -2 3 -1 2 -1 0 -1 0 -1 -4 2 -3 1 -2 0 -1 0 0 -2 0 -1
2 -3 2 -2 3 0 4 -1 2 -1 3 -1 5 -4 5 -4 2 2 1 1 0 1 0 1 2 0 2 -1 -2 1 -2 2
-1 -1 -1 0 -4 3 -4 2 0 1 0 1 3 -2 2 -2 0 1 0 1 -3 1 -2 2 -4 4 -3 3 -1 0 -1
0 0 1 1 1 -3 2 -3 3 2 -1 3 0 -2 1 -2 2 0 0 1 0 -1 2 -1 1 1 0 2 -1 -4 3 -4 4
-1 0 -2 0 0 1 0 1 -9 4 -8 4 1 3 1 2 1 0 1 0 5 -2 5 -2 0 1 1 0 -1 3 -1 2 -3
2 -3 2 -5 2 -5 2 -1 0 -1 1 -13 4 -13 4 -1 1 -1 0 1 1 1 2 0 2 0 2 -1 0 -1 0
0 1 0 1 3 0 3 -1 -6 2 -5 2 -4 0 -3 -1 0 1 0 1 -1 0 -2 0 1 -1 0 -1 -2 1 -2 0
-1 1 -1 1 1 0 1 0 -1 1 -2 2 -5 1 -5 1 -11 1 -10 1 -1 0 0 0 0 4 0 3 -1 3 -2
3 -3 2 -3 3 -2 0 -1 0 -4 4 -5 3 -4 2 -3 2 -2 0 -1 0 -1 -1z m47 -32 l3 -1 0
-1 0 -1 -1 0 -1 0 0 -2 1 -1 -8 0 -8 1 -2 1 -2 0 0 1 0 1 2 0 1 0 1 1 2 2 4
-1 5 0 3 0z m-92 -5 l0 -1 3 -4 3 -3 1 0 1 0 0 -1 0 -1 -3 -3 -3 -3 -4 1 -4 0
-4 -2 -3 -1 0 -2 0 -2 -12 -3 -12 -3 -1 1 0 0 3 1 3 0 1 2 2 2 2 1 3 1 -4 0
-3 0 -2 0 -1 1 -1 1 -2 2 -1 0 -1 -1 -9 -3 -9 -2 -6 -3 -6 -2 -1 1 -1 0 0 -1
1 -1 -4 0 -4 1 0 1 -1 2 2 -1 2 0 0 1 0 2 5 1 6 1 1 1 0 1 2 0 1 0 2 2 2 2 4
0 5 0 0 2 0 2 8 2 8 3 5 1 6 1 1 1 1 1 0 0 0 -1 7 2 7 1 2 0 2 0 0 -1z m-76
-22 l-1 -1 -2 0 -1 0 1 1 2 1 0 0 1 0 0 -1z m-20 -1 l0 -1 -2 0 -1 -1 1 1 0 1
1 0 1 0 0 0z m255 -29 l6 -2 0 -1 1 -1 -1 0 -1 0 -4 2 -3 2 -3 1 -2 1 1 0 1 0
5 -2z m-77 0 l4 -1 -4 0 -4 0 -3 1 -3 1 3 0 3 0 4 -1z m10 -1 l0 -1 -1 0 -1 0
1 1 0 1 1 0 0 0 0 -1z m11 0 l3 -1 -2 0 -2 0 -3 1 -2 1 2 0 2 0 2 -1z m83 -1
l1 -2 -2 1 -1 0 1 1 0 1 0 0 1 0 0 -1z m-81 -2 l2 -1 -4 1 -4 0 -1 1 0 0 3 0
3 0 1 -1z m93 -15 l2 -2 -1 0 -1 0 -2 2 -2 1 1 0 1 0 2 -1z m-397 -18 l-3 -3
-3 -2 -3 -2 0 1 0 1 3 2 3 3 3 1 3 2 0 0 1 0 -4 -3z m190 -24 l-1 0 -1 0 -1 1
1 0 2 0 0 -1z m12 -9 l-1 -1 -1 0 -1 0 1 1 2 1 0 0 0 0 0 -1z m-19 -26 l-3 -1
-2 0 -1 0 3 1 3 2 1 0 2 0 -3 -2z m-52 -2 l-1 -1 -1 0 -1 0 1 1 2 1 1 0 1 0
-2 -1z m-6 -3 l0 -1 -7 -3 -7 -4 2 2 2 2 5 2 5 3 0 0 1 0 -1 -1z m-8 -9 l0 -1
-9 -5 -8 -6 -1 0 -1 0 4 4 5 3 4 3 5 2 1 0 0 0 0 0z m-4 -7 l0 -1 -7 -4 -6 -4
0 1 0 1 6 4 7 4 0 0 1 0 -1 -1z m289 -14 l0 -2 -1 1 -1 0 1 1 0 1 -1 0 -1 0 0
1 0 1 1 0 2 -1 0 -2z m-311 -10 l0 -1 -6 -4 -5 -5 -1 0 0 1 1 1 2 2 3 3 4 3 1
0 1 0 0 0z m-34 -24 l-1 -3 -1 0 -1 0 1 1 0 2 2 1 1 2 1 0 0 -1 -2 -2z m10 0
l0 -1 -4 -4 -3 -4 0 -1 1 -1 -1 -1 -1 0 1 1 0 1 -1 0 -1 -1 1 -2 0 -1 -4 -5
-5 -5 -4 -7 -4 -6 -2 -1 -1 -2 -3 3 -2 3 -2 0 -2 0 0 1 0 0 3 6 3 7 4 4 3 5 3
0 3 0 0 -1 0 -1 3 2 2 2 0 -2 -1 -1 6 6 6 6 1 0 1 0 0 0z m18 -13 l-5 -4 -1 0
0 1 4 4 3 4 2 0 2 0 -5 -5z m-26 -6 l-4 -6 -4 -5 -4 -5 -3 -4 -2 -4 -1 0 0 1
2 4 2 4 5 6 6 7 3 4 3 4 1 0 0 0 -4 -6z m-121 -17 l-5 -9 0 -1 -1 0 1 5 2 4
-1 1 -1 1 1 2 1 2 0 -2 -1 -2 2 2 2 3 2 3 2 3 0 -1 0 -2 -4 -9z m-6 -4 l-1 -4
-1 0 0 1 1 3 1 3 1 0 1 0 -2 -3z m-3 -15 l-1 -1 1 0 2 1 0 -2 0 -2 -2 -7 -3
-7 -2 -7 -1 -6 -1 -1 -1 -1 0 2 0 3 -1 -3 -2 -2 0 1 0 1 2 9 2 9 3 8 2 8 1 -1
1 0 0 -2z m6 -8 l-1 -1 -2 -6 -1 -5 -1 3 0 3 2 3 1 4 1 0 1 0 0 -1z m96 -9
l-1 -2 -3 -6 -2 -5 -1 0 0 1 3 7 2 6 1 1 0 1 1 0 0 0 0 -3z m-109 -30 l-1 -1
0 2 0 3 1 -2 0 -1 0 -1z m104 -3 l-2 -3 1 3 0 4 1 0 0 1 1 0 0 -1 -1 -4z
m-122 -4 l-1 -2 0 4 0 4 1 -2 0 -2 0 -2z m13 -7 l-1 -5 -1 -1 0 0 0 2 0 2 1 3
0 4 1 0 0 0 0 -5z m-14 0 l-1 -1 0 3 0 3 1 -2 0 -1 0 -2z m11 -1 l0 -3 -1 0
-1 1 1 2 0 3 1 0 0 0 0 -3z m-12 -4 l-1 -1 0 1 0 2 1 0 0 -1 0 -1z m11 -3 l-1
-1 0 2 0 3 1 -2 0 -1 0 -1z m0 -9 l1 -3 -1 0 -1 0 0 3 0 2 0 0 1 0 0 -2z m1
-6 l0 -1 0 0 -1 0 0 1 -1 1 1 0 1 0 0 -1z m-1 -9 l0 -5 -1 0 -1 1 1 3 0 3 0 2
0 3 1 -1 1 0 -1 -6z m96 -15 l-1 -1 0 3 0 3 1 -2 0 -1 0 -2z m1 -6 l0 -1 -1 1
-1 0 0 2 0 1 1 0 1 -1 0 -2z m0 -5 l1 -3 -1 0 -1 0 0 3 0 2 0 0 1 0 0 -2z m1
-5 l0 -2 -1 0 -1 0 0 2 0 1 1 0 1 0 0 -1z m0 -6 l-1 -1 0 1 0 2 1 0 0 -1 0 -1z
m103 -312 l4 -1 -2 -1 -1 0 -5 2 -4 3 2 -1 3 0 3 -2z m96 -18 l0 -1 -2 0 -1 1
-3 0 -2 0 0 1 1 1 3 -1 4 0 0 -1z"/>
<path d="M214 619 l-1 -2 1 0 1 0 0 2 0 1 0 0 -1 0 0 -1z"/>
<path d="M210 606 l0 -1 1 1 0 1 0 1 -1 0 0 -2z"/>
<path d="M208 602 l0 -1 1 1 1 0 0 1 0 0 -1 0 -1 0 0 -1z"/>
<path d="M208 598 l-1 -1 0 -1 0 -1 1 2 1 2 0 1 -1 0 0 -2z"/>
<path d="M577 911 l1 0 1 0 0 1 -2 0 -1 0 1 -1z"/>
<path d="M475 906 l-2 -2 2 0 1 -1 2 1 1 2 -1 0 -1 1 -2 -1z"/>
<path d="M618 901 l0 -1 2 -1 2 -2 2 0 2 0 0 1 0 2 -4 1 -3 1 -1 -1z"/>
<path d="M640 893 l1 -1 1 0 1 0 5 -3 4 -3 1 0 2 1 3 -2 4 -2 3 -1 3 -2 1 0 2
0 -3 2 -2 2 -2 0 -2 0 -3 2 -3 2 -5 2 -5 3 -3 0 -3 1 0 -1z"/>
<path d="M659 876 l1 -1 3 -1 3 -2 0 1 0 1 -4 1 -3 2 0 -1z"/>
<path d="M669 871 l2 -1 2 -1 2 0 0 -1 0 -1 2 -1 2 0 0 -2 -1 -2 3 -4 2 -3 5
-1 5 0 0 -2 1 -1 3 0 3 0 6 -3 6 -4 4 -2 4 -2 0 1 0 1 -2 1 -2 0 1 3 0 2 -2 1
-1 0 -10 6 -9 5 -2 4 -2 4 -1 0 -2 0 -1 -2 -1 -1 -2 0 -1 1 -8 3 -8 4 2 -2z"/>
<path d="M650 857 l1 0 1 0 0 1 -2 0 -1 0 1 -1z"/>
<path d="M621 842 l0 -1 4 -1 4 -1 1 0 0 1 -5 1 -4 2 0 -1z"/>
<path d="M756 836 l-2 -1 1 -3 1 -2 2 -2 1 -1 1 0 2 1 2 2 1 3 -2 3 -2 2 -2 0
-2 0 -1 -2z"/>
<path d="M664 818 l0 -2 1 0 0 1 -1 1 -1 2 1 -2z"/>
<path d="M579 804 l1 0 1 0 2 1 -3 0 -2 0 1 -1z"/>
<path d="M586 803 l1 0 1 0 0 1 -2 0 -1 0 1 -1z"/>
<path d="M589 804 l0 -1 2 0 1 -1 -1 1 0 1 -1 0 -1 0 0 0z"/>
<path d="M741 802 l-1 -1 1 -2 1 -2 -2 1 -1 0 5 -5 5 -4 9 -8 9 -8 1 -2 2 -1
3 -1 3 -1 1 1 1 1 2 -1 3 -1 3 -3 3 -3 1 0 1 0 0 2 0 1 -2 3 -3 3 0 2 0 2 -3
2 -3 2 1 -2 1 -2 1 0 1 0 -1 -1 0 -1 -6 5 -5 6 -5 4 -5 5 -1 0 -1 1 -1 0 -1 0
-3 2 -3 3 -5 2 -4 2 -1 0 -1 0 0 -1z"/>
<path d="M230 801 l-2 -1 0 -1 0 -1 1 0 1 0 1 2 1 2 0 0 0 0 -2 -1z"/>
<path d="M541 798 l0 -2 -9 -2 -8 -1 15 0 15 0 0 1 0 1 -3 0 -3 0 -1 3 -2 2
-1 0 -2 0 -1 -2z"/>
<path d="M760 797 l1 -2 -1 0 0 -1 1 1 2 0 0 1 0 1 -2 1 -2 1 1 -2z"/>
<path d="M775 796 l0 -1 2 -1 1 -1 0 1 0 2 -2 1 -1 0 0 -1z"/>
<path d="M556 793 l1 0 1 0 2 1 -3 0 -2 0 1 -1z"/>
<path d="M561 793 l1 0 1 0 0 1 -2 0 -1 0 1 -1z"/>
<path d="M515 792 l1 0 1 0 2 1 -3 0 -2 0 1 -1z"/>
<path d="M454 790 l0 -1 0 -1 1 0 2 1 2 1 -2 0 -2 1 -1 -1z"/>
<path d="M549 786 l0 -2 1 1 1 2 0 0 0 1 -1 0 -1 0 0 -2z"/>
<path d="M747 784 l0 -1 -2 1 -1 1 -1 0 0 -1 1 -1 2 -1 1 -4 1 -3 3 -1 4 -1 0
-1 1 0 0 3 0 3 -3 2 -3 2 0 1 0 1 0 1 0 1 -1 0 -1 0 -1 -2z"/>
<path d="M775 783 l2 -3 1 0 1 -1 0 1 1 1 -4 3 -3 2 2 -3z"/>
<path d="M189 754 l-1 -2 1 0 1 0 1 1 0 1 0 1 -1 0 -1 -1z"/>
<path d="M529 747 l-1 -1 1 -1 1 -1 2 0 1 1 0 1 -1 1 -1 1 0 0 -2 -1z"/>
<path d="M504 736 l1 0 1 0 0 1 -2 0 -1 0 1 -1z"/>
<path d="M674 724 l0 -1 5 -4 5 -4 0 2 1 1 -1 -1 -1 0 -5 3 -4 4 0 0z"/>
<path d="M654 719 l0 -1 3 -2 3 -1 -2 2 -2 2 -1 0 -1 0 0 0z"/>
<path d="M835 715 l0 -1 2 -5 2 -5 3 -1 2 -2 1 1 0 1 -4 6 -4 5 -1 1 -1 0 0 0z"/>
<path d="M154 699 l0 -1 0 -1 1 0 0 1 1 2 0 0 -1 0 -1 -1z"/>
<path d="M823 698 l-1 -1 1 -2 1 -3 1 -1 2 -1 1 1 1 1 -2 3 -1 3 -2 0 -1 1 0
-1z"/>
<path d="M141 656 l0 -2 1 -1 1 -1 2 3 1 3 -1 0 0 1 -2 0 -1 0 -1 -3z"/>
<path d="M890 606 l0 -1 1 -2 1 -2 1 0 1 0 0 2 0 3 -1 1 -1 1 -1 0 -1 0 0 -2z"/>
<path d="M152 602 l0 -1 1 1 0 1 0 1 -1 0 0 -2z"/>
<path d="M893 594 l0 -3 1 -2 1 -3 1 0 1 0 1 -3 1 -3 0 -3 0 -2 1 -5 1 -5 1 0
1 1 1 2 1 2 1 1 2 1 1 -2 2 -1 1 1 1 1 -1 1 -1 1 0 2 0 2 -3 2 -3 3 -2 -1 -2
-1 -1 1 -1 2 0 1 0 2 -2 5 -2 5 -1 0 -1 0 0 -2z"/>
<path d="M745 566 l0 -1 1 1 0 1 0 1 -1 0 0 -2z"/>
<path d="M913 567 l-2 0 0 -5 1 -4 0 -1 1 0 0 -2 0 -2 2 0 2 1 -1 5 0 6 -1 1
0 2 -2 -1z"/>
<path d="M906 518 l0 -4 1 -2 1 -2 0 2 0 3 2 1 1 2 0 0 0 1 -2 2 -2 2 0 0 -1
0 0 -5z"/>
<path d="M907 496 l0 -9 -2 0 -1 0 -1 -5 -1 -4 -3 -2 -2 -1 -2 2 -1 2 0 -1 -1
-2 0 -3 0 -2 1 1 1 0 0 -4 0 -4 -1 0 -2 0 0 -2 -1 -1 -1 -9 0 -9 0 1 1 1 1 3
0 3 1 -3 1 -3 0 2 1 2 3 -1 3 -1 1 -2 2 -1 0 -2 -1 -1 0 -4 -1 -3 -1 -11 -2
-11 -1 -4 -1 -4 -1 -1 -1 -1 -2 -9 -2 -9 -2 -7 -2 -7 -2 -4 -1 -3 -2 -2 -2 -2
0 -2 0 -2 -1 -3 -1 -2 -3 -3 -2 -3 -2 0 -2 0 -2 -5 -2 -4 -3 -4 -3 -3 -1 -1 0
-2 -3 -1 -3 0 1 2 1 3 0 1 0 0 -3 -3 -2 -4 -2 0 -1 0 0 -1 0 -1 -4 -6 -4 -5
-3 -4 -4 -4 -6 -9 -5 -8 1 -1 1 -1 0 -2 -1 -3 -4 -5 -4 -5 -6 -6 -5 -6 -11
-12 -11 -12 -8 -6 -8 -6 0 -2 0 -2 -2 0 -1 -1 0 -1 1 0 5 4 5 4 1 0 1 0 0 -1
0 -1 1 0 1 0 5 5 4 4 1 2 2 2 5 4 5 5 0 1 0 2 4 4 4 5 4 5 4 6 0 1 1 1 4 5 5
6 2 2 2 3 1 1 1 2 2 3 3 4 -1 1 0 0 1 0 1 -1 0 1 0 1 3 1 2 0 2 -1 1 -1 0 -1
0 -1 -3 -4 -4 -4 0 -3 0 -3 2 0 3 1 2 1 3 0 0 -2 -1 -2 3 2 2 1 1 2 0 2 -1 1
-1 1 4 6 4 6 1 2 1 2 1 1 1 2 5 11 6 11 3 7 3 7 4 8 3 8 4 9 3 9 3 9 3 9 1 4
1 5 1 2 0 3 1 1 0 1 2 8 1 8 1 4 1 4 3 -1 3 0 0 -1 1 -1 1 2 1 2 0 5 0 5 0 1
-1 1 -2 0 -2 0 -1 15 0 15 -1 4 -1 5 -1 10 0 11 -1 1 0 0 0 -10z m-25 -147 l0
-1 -1 0 -1 0 1 1 0 1 1 0 0 0 0 -1z"/>
<path d="M328 486 l0 -3 1 -1 2 -1 1 1 0 2 -1 3 -1 2 -1 0 -1 0 0 -3z"/>
<path d="M910 485 l0 -1 1 1 0 1 0 1 -1 0 0 -2z"/>
<path d="M893 442 l0 -1 1 1 0 1 0 1 -1 0 0 -2z"/>
<path d="M892 438 l0 -2 1 1 0 1 0 1 -1 2 0 -3z"/>
<path d="M910 419 l0 -1 1 1 1 0 -1 1 0 1 -1 0 0 0 0 -2z"/>
<path d="M800 348 l-2 -3 1 0 1 0 1 3 1 2 0 0 -1 0 -1 -2z"/>
<path d="M827 255 l-2 -1 -7 -7 -6 -8 -2 1 -3 0 -2 -2 -3 -3 0 -2 1 -1 -1 0
-1 0 -4 -4 -4 -3 -3 0 -2 1 -1 -3 -2 -3 -2 1 -1 0 -1 -2 -1 -3 -6 -5 -6 -5 -4
-2 -3 -1 -1 0 -1 -1 -4 -1 -3 -2 0 -1 0 -1 2 0 2 1 3 1 3 0 0 -1 0 -1 2 0 2
-1 3 2 3 1 6 5 5 5 1 0 2 0 6 0 6 1 2 2 2 2 0 4 1 3 3 3 4 3 1 1 1 1 2 3 2 2
2 0 2 -1 0 3 1 2 4 5 5 4 -1 1 -1 1 1 2 1 3 0 1 0 1 -1 0 0 0 -2 -1z m-43 -36
l0 -1 -1 0 -1 0 0 1 0 1 1 0 1 0 0 -1z"/>
<path d="M665 206 l-1 -1 1 0 1 0 1 1 0 1 0 0 0 0 -2 -1z"/>
<path d="M710 205 l-1 -2 -6 -2 -5 -1 -1 -1 0 -1 -12 -6 -11 -6 -7 -3 -7 -3
-3 0 -2 1 -6 -2 -5 -2 -2 -2 -2 -2 -2 0 -3 0 -4 -2 -4 -2 -3 -2 -3 -3 -4 0 -4
-1 -4 -4 -4 -4 0 0 0 -1 3 -1 4 -2 -3 -1 -2 0 1 -1 0 -1 -3 -1 -3 -1 -1 1 -1
1 -5 0 -4 -1 -8 -1 -8 -1 -4 0 -3 -1 -2 0 -1 0 1 -1 1 -2 11 1 11 1 4 0 4 1
-1 -3 0 -3 3 0 2 0 0 -1 -1 -1 1 0 2 0 -2 -1 -1 -1 -9 -2 -8 -2 0 -1 0 -1 3 0
3 0 0 0 1 0 0 -1 0 -1 -2 -1 -2 -1 -5 -2 -4 -1 -3 0 -3 0 0 1 -1 1 -8 -1 -8 0
-2 -1 -2 -2 -7 0 -7 -1 -10 0 -9 0 -1 -1 0 -1 7 0 7 0 14 0 15 0 6 1 7 1 5 0
6 1 9 2 9 1 3 2 4 2 0 3 0 2 3 1 3 0 12 3 12 3 6 2 6 2 1 2 2 2 0 2 1 2 -1 2
-1 1 13 7 14 7 -3 -1 -2 0 -2 -1 -1 0 7 4 8 4 -1 0 -1 0 -6 -2 -5 -3 -3 0 -3
-1 4 2 4 2 0 1 1 1 -2 0 -2 0 0 1 1 2 6 3 7 4 2 1 2 1 3 2 4 3 4 2 5 2 2 3 2
2 -1 2 0 1 2 1 2 2 0 1 0 1 -1 0 -1 0 -1 -2z"/>
<path d="M657 202 l-1 -1 1 0 1 0 1 1 0 1 0 0 0 0 -2 -1z"/>
<path d="M712 201 l-1 -1 1 0 1 0 1 1 0 1 0 0 0 0 -2 -1z"/>
<path d="M647 198 l-4 -1 -8 -3 -7 -3 0 -1 0 -1 -2 -1 -1 -1 4 0 5 1 7 3 8 4
2 2 2 3 -1 0 0 0 -5 -2z"/>
<path d="M697 184 l0 -2 -1 -1 -2 -1 0 -2 0 -2 3 0 3 0 0 2 -1 2 2 2 2 1 0 2
0 1 -3 0 -4 0 1 -2z"/>
<path d="M691 177 l-1 0 0 -2 0 -1 2 1 1 0 -1 1 -1 0 1 1 0 1 0 0 -1 0 0 -1z"/>
<path d="M342 169 l0 -1 2 -1 3 -1 2 -1 2 0 0 2 0 1 -2 0 -2 -1 -2 1 -1 2 -1
0 -1 0 0 -1z"/>
<path d="M568 156 l-1 -1 1 0 1 0 2 1 2 1 -3 0 -2 0 0 -1z"/>
<path d="M555 155 l3 0 3 0 4 1 -7 0 -6 0 3 -1z"/>
<path d="M484 142 l2 -1 2 0 3 0 2 -1 2 -2 6 -1 7 -1 4 0 4 -1 0 2 0 2 -5 1
-5 2 -12 0 -11 1 1 -1z"/>
<path d="M593 138 l1 0 1 0 0 1 -2 0 -1 0 1 -1z"/>
<path d="M585 137 l2 0 2 0 2 1 -4 0 -4 0 2 -1z"/>
<path d="M577 136 l1 0 1 0 2 1 -3 0 -2 0 1 -1z"/>
<path d="M496 118 l0 -1 3 -2 4 -2 3 1 3 2 0 1 0 1 -2 0 -2 1 -5 0 -4 0 0 -1z"/>
<path d="M807 64 l0 -2 1 1 0 1 0 1 -1 2 0 -3z"/>
<path d="M901 56 l-1 -1 2 1 2 1 0 1 0 0 -1 0 -1 0 -1 -2z"/>
<path d="M918 52 l-1 -2 -1 0 -1 0 0 1 -1 1 -6 -3 -5 -3 -1 -1 0 0 1 -1 1 -1
0 1 -1 1 5 3 6 3 2 -2 2 -2 1 1 0 2 0 1 1 2 -1 0 -1 1 0 -2z"/>
<path d="M840 51 l-1 -1 1 1 2 1 0 1 0 0 0 0 -1 0 -1 -2z"/>
<path d="M930 51 l-3 -1 -3 0 -2 1 2 -1 2 -1 5 2 6 2 -2 0 -1 0 -4 -2z"/>
<path d="M920 49 l0 -1 1 1 0 1 0 1 -1 0 0 -2z"/>
<path d="M859 47 l1 -3 0 0 1 0 1 0 1 0 1 2 1 3 -2 -3 -3 -2 0 2 0 3 -1 0 -1
1 1 -3z"/>
<path d="M901 47 l-3 -2 1 0 1 0 2 3 2 2 0 0 0 0 -3 -3z"/>
<path d="M838 47 l0 -2 1 1 0 1 0 1 -1 2 0 -3z"/>
<path d="M912 46 l-1 -1 1 1 1 1 0 1 -1 0 0 -2z"/>
<path d="M840 44 l0 -1 2 1 1 0 0 1 0 0 -1 0 -2 0 0 -1z"/>
<path d="M848 38 l-1 -1 0 -1 0 -1 1 2 1 2 0 1 -1 0 0 -2z"/>
<path d="M814 37 l-1 -1 2 1 2 1 0 1 0 0 -1 0 -1 0 -1 -2z"/>
<path d="M819 37 l-1 -1 1 -1 1 -1 0 2 0 3 0 0 -1 0 0 -2z"/>
<path d="M808 36 l1 -1 2 0 2 1 -3 0 -3 1 1 -1z"/>
</g>
</svg>
