<?xml version="1.0" standalone="no"?>
<!DOCTYPE svg PUBLIC "-//W3C//DTD SVG 20010904//EN"
 "http://www.w3.org/TR/2001/REC-SVG-20010904/DTD/svg10.dtd">
<svg style="fill: black; stroke: black;" version="1.0" xmlns="http://www.w3.org/2000/svg"
 width="837.437230pt" height="541.000000pt" viewBox="0 0 837.437230 541.000000"
 preserveAspectRatio="xMidYMid meet">
<metadata>
Created by potrace 1.16, written by Peter Selinger 2001-2019
</metadata>
<g transform="translate(-118.062770,730.000000) scale(1.000000,-1.000000)"
fill="#000000" data-original="#000000" stroke="none">
<path d="M455 729 l-1 0 -1 -3 0 -2 1 0 1 0 0 -1 0 -1 -2 0 -1 0 2 -1 2 -1 1
0 2 -1 -1 -2 -1 -1 -2 0 -1 0 -3 3 -2 2 -1 0 0 0 1 -1 0 -2 -1 0 0 0 -2 2 -2
1 0 -1 0 -2 -2 0 -2 0 -3 -3 -2 -2 -1 0 0 1 1 2 2 2 -1 0 -1 0 -1 -2 -2 -2 -3
0 -2 -1 0 -2 0 -2 2 0 1 -1 3 0 2 0 0 -2 0 -2 -4 -1 -3 0 -4 1 -4 2 0 -1 0 0
-1 1 -2 1 0 -1 0 -1 -3 1 -2 0 0 -1 1 -1 -1 0 -1 0 0 1 0 1 -3 0 -2 1 0 1 1 2
-2 0 -1 1 -1 0 -1 0 -2 -2 -1 -2 -4 0 -3 -1 -1 -1 0 -1 2 0 2 0 -3 -1 -3 -1
-1 -2 0 -2 -3 -1 -2 -1 0 -2 -1 -1 1 -2 1 -1 4 0 3 1 0 -1 -1 -1 2 0 2 0 0 -1
0 -1 -3 -3 -3 -3 -1 0 -1 0 -3 0 -2 0 0 -1 0 -1 3 1 2 1 0 -1 0 -1 -2 -1 -2
-1 -4 0 -3 0 1 1 0 1 4 3 4 2 3 1 3 1 -2 0 -2 0 -4 -2 -3 -2 -3 0 -2 -1 2 3 3
2 -2 0 -1 -1 0 1 0 2 -3 0 -2 -1 -4 -1 -3 -2 -1 -2 -2 -2 0 -2 1 -3 2 1 1 0 0
-2 -1 -1 -3 -3 -4 -2 1 -2 2 -2 -3 -4 -3 -3 3 3 4 3 0 -1 0 -1 -2 -2 -2 -2 -6
-3 -6 -3 -1 1 -1 0 1 -1 0 -2 -4 -2 -4 -3 -5 -3 -5 -2 -6 -4 -6 -4 -8 -8 -8
-9 -4 -3 -3 -4 0 2 1 2 -1 0 -1 0 -1 -2 -1 -2 -3 0 -4 0 -5 -2 -6 -2 -4 1 -4
2 -3 -1 -3 -1 -3 1 -2 0 0 -1 1 -1 -4 0 -3 -1 -3 -1 -3 0 2 1 3 2 -3 1 -3 1
-3 1 -3 0 -6 1 -6 0 -2 1 -2 1 -2 -4 -2 -3 -1 -1 -1 0 -1 -3 -1 -3 -1 -2 -1
-2 2 -1 1 -1 -1 -2 -2 -3 0 -3 0 -2 3 -3 2 -3 7 0 7 0 0 -3 1 -3 2 -1 3 -1 0
-3 0 -2 2 -1 2 0 2 -1 3 -1 1 1 2 0 0 -2 0 -1 -5 -4 -5 -3 0 -1 0 -1 -1 0 -1
0 -2 0 -1 0 0 -5 0 -5 -2 0 -2 0 -1 -1 0 -1 -2 1 -3 0 -1 -1 0 -1 2 -2 2 -2 3
1 3 1 5 -3 6 -3 3 1 3 0 2 2 1 2 3 0 2 0 0 1 0 1 2 0 2 1 0 -1 0 -1 -1 -1 -2
-1 0 -2 0 -1 1 0 1 -1 3 2 3 1 1 1 0 1 1 -1 1 -2 -4 -5 -3 -5 0 -2 0 -1 -1 0
-1 1 0 -1 -1 -1 -1 -3 -2 -3 0 -1 1 -1 2 0 1 0 3 2 2 3 1 -1 1 0 1 1 0 1 3 -1
4 0 0 3 1 3 -1 0 -1 1 2 3 1 3 0 1 0 1 -1 0 -2 0 0 1 0 2 1 1 1 1 2 0 2 -1 1
1 0 1 2 -1 1 0 1 2 1 3 0 -2 0 -1 3 -1 3 -2 1 1 1 1 3 0 3 0 1 1 0 1 2 0 1 0
0 -3 0 -3 1 -1 2 -1 0 1 1 1 0 -3 -1 -2 1 -2 1 -2 2 0 2 0 0 -1 0 0 -2 -4 -2
-3 -3 0 -3 0 0 3 0 3 0 0 0 1 -2 0 -1 0 1 1 1 2 -1 2 -1 2 -3 2 -3 1 -1 -1 -1
-1 -2 1 -1 2 -1 -1 -1 -1 0 -1 0 -1 -2 0 -1 -1 -3 -2 -3 -1 0 -1 0 0 -1 -3 0
-3 1 -3 1 -2 3 0 3 -1 1 -3 1 -2 0 -2 0 -1 -2 1 -2 2 -2 -2 -2 -1 -2 2 -1 1
-1 -1 0 -1 -2 0 -3 0 -4 -1 -4 -2 -3 -2 -3 -2 0 -3 0 -2 0 -2 0 -2 -2 0 -1 0
1 4 0 5 0 2 0 2 -3 5 -3 6 -3 1 -2 1 -3 0 -3 1 -1 -1 -1 0 -1 -3 -2 -3 -1 1
-1 1 -3 0 -3 0 -3 1 -3 2 -1 2 -1 1 -4 2 -3 1 -2 -2 -2 -2 -1 -5 -1 -4 1 -3 1
-2 -1 -4 -1 -3 5 0 5 -1 1 0 2 -1 1 0 2 -1 0 -2 0 -1 1 0 1 0 0 -1 0 -1 2 -5
2 -5 3 -3 4 -3 0 -2 0 -1 -2 -3 -1 -4 -2 0 -1 0 0 -1 1 -2 -1 0 -2 -1 0 -3 0
-2 -5 4 -5 4 0 1 0 2 3 2 3 3 0 2 0 3 -2 1 -1 1 -7 0 -6 -1 -3 -2 -3 -1 0 -1
0 -1 -2 0 -1 0 -2 -2 -2 -2 -1 0 -2 0 -2 2 -1 3 -2 0 -2 0 -7 2 -7 2 -7 -2 -6
-1 -1 -2 -1 -1 -2 -4 -2 -4 -5 -2 -5 -2 -2 0 -3 0 0 -2 0 -1 -1 -3 0 -3 0 -8
0 -7 -4 -2 -4 -2 0 -2 -1 -1 1 -1 0 -2 1 1 1 0 1 -3 1 -3 1 -1 1 0 -1 2 0 2 0
-1 1 -1 0 -2 1 -2 0 -1 1 0 -2 -2 -1 -2 1 0 1 0 0 1 1 1 2 -1 1 0 0 1 0 1 1 0
1 0 -1 -1 -1 -1 0 -3 -1 -3 2 1 2 1 4 1 4 0 2 -2 1 -1 0 1 0 1 2 0 1 1 -1 -2
-1 -1 1 0 2 1 3 -2 3 -1 0 -2 0 -2 -1 0 -1 0 0 1 -1 1 -1 -2 -1 -2 1 -4 1 -4
1 0 1 0 1 -3 2 -4 2 0 3 -1 2 1 2 1 0 -2 1 -1 -1 -2 -1 -2 -1 -1 -2 -1 0 -3 0
-3 3 -3 2 -2 1 0 2 0 4 -4 4 -5 -1 -4 0 -5 -2 -1 -2 -1 -3 0 -2 1 -1 -2 0 -2
2 -3 3 -3 4 0 5 0 4 -4 3 -3 0 -1 0 -1 2 0 3 1 2 1 3 1 0 1 0 2 3 1 3 0 2 1 3
1 3 0 3 0 5 5 5 5 1 0 1 -1 0 -2 0 -1 1 0 1 0 0 2 0 1 1 0 2 0 0 1 1 1 3 -1 3
0 5 -5 4 -4 5 0 5 0 3 0 3 0 8 0 8 -1 3 0 3 -1 4 2 3 2 2 0 2 0 1 -2 1 -1 -1
-1 -2 -1 -4 -3 -3 -2 -5 -2 -4 -2 0 -1 1 -1 -1 0 -1 -1 0 1 0 2 -3 -1 -3 -1
-4 -2 -3 -2 3 1 3 0 5 1 6 1 0 0 0 0 0 1 -1 1 1 1 2 0 1 1 1 0 2 -1 1 -1 2 1
2 1 3 0 4 1 0 0 0 1 1 0 1 0 0 -1 0 -2 1 0 2 0 0 -1 0 0 0 -2 0 -2 2 0 2 0 0
1 0 0 -1 1 -2 2 0 4 -1 4 1 -1 1 -1 4 -2 4 -1 -1 -1 0 -1 1 0 2 1 -1 1 0 1 2
1 3 0 1 0 1 -1 0 -5 0 -5 1 -3 1 -3 1 -2 2 -1 1 -2 2 -3 3 -1 3 0 3 1 2 1 3
-2 3 -2 2 1 2 1 0 -2 0 -3 1 -1 0 -2 -2 -1 -3 0 0 -1 1 0 -2 -2 -1 -2 1 -1 1
-1 7 0 8 -1 2 -1 2 -2 2 1 1 0 0 -1 1 -1 -2 1 -1 0 1 -3 2 -2 -3 -5 -3 -4 0
-5 1 -4 -1 0 -1 -1 0 -3 0 -3 3 -3 3 -3 4 0 4 0 0 -5 1 -5 2 -3 2 -2 5 -2 4
-1 7 1 7 1 2 1 2 0 3 3 3 4 2 1 2 0 1 -1 2 -2 -2 -3 -1 -3 0 -2 0 -2 2 0 2 0
2 3 3 3 2 3 3 4 4 -4 4 -4 0 -2 0 -2 2 -1 1 -2 3 0 3 0 1 1 1 2 2 1 2 1 1 -1
1 -1 2 1 1 0 6 -5 7 -4 1 -2 1 -1 2 -1 3 -1 5 0 6 0 5 2 5 3 5 0 5 1 1 -1 2
-1 4 -1 5 -1 5 -1 6 0 4 -3 4 -2 2 -2 3 -3 1 0 1 0 4 -2 4 -2 7 0 8 0 1 1 2 2
0 -1 1 0 0 1 0 2 -1 1 -1 1 1 0 1 0 0 2 0 3 -1 -2 -1 -1 0 1 0 2 -2 1 -1 1 1
0 1 1 2 -1 3 -1 0 2 0 1 2 0 1 -1 -1 1 0 1 1 0 1 0 4 -2 4 -1 0 -1 0 -1 3 0 3
1 0 -1 0 -1 3 -1 2 -1 1 0 0 1 2 -2 2 -1 0 1 1 1 -1 0 0 0 1 1 2 1 -3 0 -2 0
0 1 0 1 -1 0 0 -1 -5 2 -5 3 -4 2 -4 3 1 1 0 1 -1 0 -1 0 0 2 0 1 1 0 2 0 -3
1 -2 2 1 0 2 1 1 0 1 0 -1 -1 0 -1 1 1 1 1 8 -1 8 -1 3 0 3 -1 5 0 5 0 0 -1
-1 -1 5 0 5 0 0 1 -1 1 4 0 4 0 0 1 -1 1 3 0 3 1 0 1 -1 0 -7 -1 -7 -1 -11 4
-10 4 -8 5 -8 4 -4 2 -3 3 -8 6 -8 6 -6 6 -6 5 0 2 0 2 -1 0 0 1 -3 3 -3 3 2
-1 2 -1 0 -1 1 -1 10 -8 10 -7 1 -1 1 -1 0 0 0 1 -9 7 -8 8 -4 3 -3 3 -6 5 -5
6 -6 6 -5 6 -3 3 -2 3 -2 3 -1 3 -1 1 0 1 0 -1 1 -1 2 2 1 1 2 -1 2 -2 1 0 1
1 0 -1 1 0 6 -7 7 -6 1 1 2 1 2 -3 3 -4 1 0 1 0 0 2 0 1 2 0 1 -1 0 1 0 1 4
-3 5 -3 3 -3 4 -3 4 -2 4 -2 4 -1 4 0 0 1 0 2 1 0 1 0 2 -1 2 -2 0 1 1 0 0 -1
0 -1 1 0 0 1 2 -2 2 -1 2 0 2 1 10 -6 9 -5 7 -1 7 0 4 -1 5 -1 1 0 1 0 -7 2
-6 3 -4 3 -5 3 -1 1 0 1 1 0 1 0 -1 2 0 1 1 0 1 0 0 -1 0 0 0 -2 0 -1 2 0 3 1
0 -1 1 -1 4 0 5 -1 1 -1 1 0 3 -1 3 0 6 0 7 -1 2 -1 3 -1 6 -1 7 -1 10 1 10 1
6 -1 6 -2 4 -1 4 -2 0 1 0 0 -1 1 -1 2 2 0 3 -1 1 0 1 -1 0 0 0 1 6 -2 5 -2 4
-2 5 -3 2 0 3 -1 3 -2 2 -1 -1 -1 0 -1 1 0 2 0 1 0 1 0 1 -1 0 -1 3 0 3 0 0
-1 1 -1 5 1 6 1 0 1 1 0 1 0 0 0 1 0 1 1 3 1 4 1 6 3 6 4 1 0 1 0 0 2 0 1 1 0
2 -1 4 2 4 1 6 3 6 3 6 2 7 3 3 2 4 1 3 2 3 1 1 0 1 -1 2 1 3 2 10 3 11 3 5 1
5 1 4 0 4 0 6 -3 5 -2 3 1 2 2 1 2 1 2 -1 3 0 2 -2 0 -2 0 -2 1 -1 0 -2 0 -2
0 -2 2 -2 2 1 5 1 4 0 1 -1 0 -5 0 -5 0 -6 -3 -5 -3 -7 -2 -6 -2 -7 -2 -6 -2
-1 -1 0 -2 2 0 3 0 0 -3 0 -2 -8 -5 -8 -4 -5 -1 -4 0 -2 1 -2 2 -5 0 -5 0 -1
1 0 1 1 3 1 2 3 1 3 0 -8 2 -8 2 -3 0 -3 0 -11 0 -10 -1 -5 -2 -4 -1 -8 0 -7
0 -7 2 -6 2 -4 1 -4 2 1 4 2 5 3 1 3 1 0 1 0 1 1 0 1 -1 0 3 1 2 -2 0 -1 0 -2
2 -2 2 3 0 3 0 13 0 13 1 7 1 7 2 2 0 2 -1 4 3 4 2 5 5 6 6 3 2 3 2 2 1 3 0 0
1 -1 1 3 3 4 3 2 1 2 1 1 -2 1 -2 0 -1 0 -2 4 -1 3 -2 4 0 3 0 6 2 6 2 1 2 2
2 5 3 6 4 5 5 5 6 -1 0 -2 1 -6 -4 -5 -4 -8 -2 -8 -3 -5 -1 -6 -1 -4 1 -3 1 0
1 0 1 5 4 6 5 5 4 6 5 2 1 2 1 7 6 8 6 0 2 1 1 1 0 2 0 3 3 4 4 4 -1 4 -1 3 2
4 1 7 1 8 1 2 2 2 2 3 2 2 2 1 6 0 6 -1 5 -2 4 -1 1 -1 2 3 7 3 7 0 2 0 3 3 4
2 4 -1 -1 -2 -1 -4 -1 -3 0 -4 2 -3 1 -3 1 -2 0 -2 -3 -3 -3 -2 -1 -2 -1 -2
-2 -1 -2 -1 0 -1 0 -1 3 -2 4 1 2 0 3 2 2 2 1 0 2 0 3 -1 2 0 2 -2 0 -2 0 -4
-3 -3 -2 -2 -3 -1 -3 -1 -2 -1 -2 -1 -2 -1 -1 -4 -3 -4 -3 -3 -5 -3 -4 -6 -5
-6 -4 -5 -4 -5 -4 -2 -2 -3 -1 -2 -1 -2 -2 -3 -5 -2 -4 -7 -8 -7 -8 -5 -3 -4
-3 -3 0 -2 -1 -3 -4 -2 -3 2 2 3 2 5 3 5 2 1 0 1 0 0 -2 0 -2 1 0 1 0 2 2 3 2
1 0 2 0 -1 1 0 1 -1 -1 -1 0 0 1 0 1 1 1 1 1 1 0 2 -1 1 1 1 1 0 -1 0 -2 1 1
2 1 1 -1 2 0 5 5 5 4 0 2 1 2 2 1 3 1 1 -2 1 -1 1 0 2 1 -1 -2 0 -1 -4 -6 -3
-5 -4 -3 -3 -3 -1 1 -1 1 -1 -1 -2 -1 0 1 -1 0 -3 -4 -4 -5 0 -1 0 -1 -2 -2
-2 -1 -1 -2 -1 -2 2 1 2 1 0 -1 0 -1 -4 -4 -4 -3 -9 -4 -8 -4 -4 -2 -3 -1 5 5
5 5 5 4 6 5 -6 -4 -5 -4 -1 0 0 1 2 3 3 2 -2 -1 -1 0 -10 -8 -9 -8 -9 -6 -8
-7 -7 -3 -6 -3 -13 -3 -13 -3 -6 0 -5 0 0 1 -1 1 -4 0 -3 0 -5 1 -5 1 -3 2 -2
3 0 0 0 1 4 -1 4 0 2 -2 3 -1 0 1 1 1 6 0 6 0 6 2 6 2 7 3 7 4 9 5 10 5 1 1 2
2 7 4 8 5 5 5 5 4 -6 -3 -5 -3 -6 -4 -5 -4 -12 -5 -11 -6 -5 -1 -5 -2 -6 0 -5
0 2 2 2 2 2 0 3 0 6 2 7 2 3 3 3 2 -2 1 -2 0 0 1 0 1 -3 0 -3 0 -5 -2 -5 -3 0
-1 -1 -2 -4 -2 -3 -2 -6 -1 -6 -1 -1 -1 0 -1 -5 0 -5 0 -1 -2 -1 -3 -2 0 -2
-1 -6 2 -6 1 -7 7 -7 7 -1 0 -1 0 -4 4 -4 5 -2 4 -2 4 0 0 -1 0 -2 -5 -2 -4
-5 0 -5 1 -2 -4 -1 -3 -1 -1 -1 -1 -5 2 -4 1 -3 -1 -4 -2 -1 -2 -1 -3 -5 1 -4
0 -3 2 -3 1 -5 -1 -5 0 0 -1 0 0 3 -2 3 -1 3 -4 3 -3 -2 0 -1 1 -6 4 -5 4 -1
0 -1 0 -1 1 0 1 2 -1 2 0 -5 5 -6 5 -5 2 -4 2 -4 -1 -3 -1 -2 2 -1 3 -10 9
-10 10 -4 2 -4 3 -3 3 -3 4 -1 1 0 2 -2 2 -2 2 -3 7 -3 8 -4 5 -3 5 -4 2 -4 2
0 1 0 1 -2 -1 -3 0 -7 8 -7 7 -3 6 -3 7 -1 2 0 2 -1 1 0 2 -3 7 -3 6 -1 6 0 7
-2 6 -2 7 0 -3 1 -3 -1 1 -1 0 1 8 0 8 3 11 2 11 1 4 2 5 0 1 0 2 -1 0 -2 1
-2 -1 -1 0 -2 -2 -2 -2 -1 0 -1 0 0 2 0 3 1 3 1 3 3 3 4 3 4 2 5 2 2 2 2 2 6
1 6 2 1 0 1 0 -1 -1 -1 -1 0 -1 0 -1 2 0 1 0 -1 -1 -1 -2 1 -2 2 -1 0 -1 0 -1
-3 0 -2 1 -1 -3 0 -2 2 0 1 -1 0 -2 0 -2 2 0 1 -1 0 -1 -1 -1 2 -1 3 -1 2 -1
2 0 2 2 2 2 3 1 4 0 0 -1 0 -2 2 1 2 0 1 -1 1 -2 0 -1 -1 -2 1 0 1 0 0 -1 -1
-1 -2 1 -2 0 1 -1 1 0 0 -3 0 -2 -1 0 -1 -1 0 -2 0 -1 2 1 2 1 2 -2 2 -3 2 1
2 0 1 2 0 2 3 2 3 3 4 -2 4 -1 0 -1 0 -1 -2 0 -2 0 0 -1 0 0 2 -3 1 -3 2 0 2
0 0 1 0 2 1 0 1 1 2 -1 2 -1 0 -4 0 -3 2 1 2 1 1 -2 1 -1 -1 -2 -2 -1 2 -5 2
-4 4 0 3 1 2 1 1 2 -1 2 -2 3 1 1 2 2 1 0 2 0 0 -1 1 -1 1 1 2 1 -1 2 0 3 -2
1 -1 2 -3 0 -2 0 0 3 1 3 -1 -1 -1 0 0 -2 0 -2 -1 0 -1 1 -1 4 0 4 1 0 1 -1 0
3 0 3 0 3 1 4 1 -1 1 -1 1 0 1 0 -1 3 -1 2 0 2 1 1 1 -1 2 0 0 -1 -1 -1 1 0 2
-1 0 0 1 1 2 -3 3 -2 2 0 1 1 2 2 1 2 -1 3 -1 3 -4 2 -3 2 -1 0 -2 0 -2 -1 -2
-2 -3 1 -3 1 -2 1 -2 1 0 1 1 1 -2 0 -1 1 0 4 0 3 3 0 3 -1 1 2 1 3 3 0 2 0
-1 1 -1 1 1 2 0 1 2 0 2 0 0 1 0 1 -3 0 -3 1 -1 2 0 3 -1 0 -1 1 -2 -2 -2 -2
-1 0 -2 0 2 3 1 3 2 -1 1 -1 1 0 0 1 -2 3 -2 3 -1 0 0 0 -2 0 -1 1 -2 -1 -1
-2 0 1 -1 1 -4 -1 -3 -1 -1 0 0 -1 0 -1 1 -1 2 0 2 0 0 -1 0 0 -1 -2 -1 -2 -2
0 -1 0 0 1 1 1 -1 1 -1 0 -1 -1 0 0 -2 -1 -1 0 0 1 0 2 -2 1 -2 1 1 2 1 1 0 1
-1 2 2 0 2 1 0 3 0 3 -2 1 -1 2 -6 3 -5 3 -1 -1 -2 -1 -3 2 -3 2 0 2 0 1 -1 0
0 -1 -2 1 -1 1 0 -2 0 -2 -1 1 -1 0 -3 0 -2 0 0 1 1 1 -2 1 -2 0 1 2 0 1 -1 0
-2 0 0 -1 -1 -2 -1 0 -1 0 0 1 -1 2 2 2 2 3 3 -1 3 -1 1 0 0 1 1 3 1 4 -4 4
-3 4 0 1 1 1 2 0 1 0 2 -3 3 -2 2 2 3 3 0 2 1 2 -1 4 -1 3 -1 0 -1 0 -3 3 -3
4 -3 4 -2 5 -1 -1 -1 -1 -3 2 -2 3 1 -3 2 -3 0 -1 0 -1 -1 0 -1 0 -1 3 -2 3
-1 0 -2 0 -1 1 -1 2 -5 0 -5 0 -2 2 -3 2 1 1 0 2 -2 1 -1 1 1 -1 1 -1 0 -1 0
-1 -2 1 -2 1 -1 3 0 2 -1 0 -1 0 1 1 2 2 -2 2 -1 3 -4 1 -4 2 0 1 0 1 -2 0 -2
-1 -1 1 0 1 -2 0 -1 0 -4 3 -3 2 -1 0 0 0 -1 -1z m-49 -24 l2 -1 -1 0 0 -1 -3
0 -2 1 -1 0 -1 0 1 1 0 1 2 0 2 0 1 -1z m-10 -3 l0 -1 -1 0 -2 -1 0 1 0 1 2 0
1 0 0 0z m-8 -8 l0 -2 -1 0 -1 0 1 2 1 1 1 0 0 0 -1 -1z m10 -10 l-1 -1 -1 0
-1 0 1 1 0 1 2 0 2 0 -2 -1z m124 -3 l-1 -1 0 1 0 2 1 0 0 -1 0 -1z m-8 -40
l0 -1 -1 0 -1 0 0 2 0 1 1 0 1 -1 0 -1z m-286 -43 l-1 -1 -1 0 -1 0 1 1 2 1 0
0 0 0 0 -1z m340 -5 l-1 -2 -1 1 -1 0 0 1 0 1 2 0 2 0 -1 -1z m-21 -1 l0 1 1
0 1 0 0 -2 0 -2 -2 0 -2 0 0 2 -1 2 2 -1 1 -1 0 1z m26 -15 l2 -5 -1 0 -1 0
-2 5 -2 5 -1 0 0 1 1 0 1 -1 3 -5z m8 3 l4 -2 -2 0 -1 0 -3 -1 -2 0 0 2 0 2 0
0 1 0 3 -1z m-12 -4 l2 -3 -1 -1 -1 0 -1 1 -1 1 -1 2 0 3 1 0 1 0 1 -3z m-57
0 l-1 -1 1 1 0 2 1 0 0 -1 -1 -1z m4 -1 l0 -1 -1 0 0 1 0 1 1 1 1 0 0 0 -1 -2z
m50 -4 l0 -1 -1 1 -1 0 0 2 0 1 1 0 1 -1 0 -2z m-313 -20 l-1 0 -1 -2 -1 -1
-2 0 -2 0 0 1 0 2 1 1 1 1 3 -1 4 0 -2 -1z m10 -8 l0 -1 -2 -1 -2 -1 0 0 0 1
1 1 0 2 2 0 1 0 0 -1z m46 -31 l-1 -1 -1 0 -1 0 1 2 1 1 1 0 0 -1 0 -1z m-28
-15 l0 0 -1 -4 -1 -3 -1 0 -1 0 0 1 -1 1 2 3 1 3 1 0 1 0 0 -1z m-158 -73 l0
-1 -1 0 -1 0 1 1 0 1 1 0 0 0 0 -1z m736 -3 l-1 0 -1 1 -1 0 1 1 2 1 0 -1 0
-1 0 -1z m6 -7 l0 -2 -2 -2 -2 -2 1 -2 1 -1 -4 -5 -5 -6 -1 0 0 0 1 2 1 2 2 1
1 1 1 2 1 3 -1 -1 -1 -1 -4 -5 -4 -5 0 0 0 1 2 3 1 3 6 8 5 7 1 0 0 0 0 -1z
m1 -5 l-1 -2 -1 1 0 0 1 1 1 2 1 0 0 0 -1 -2z m24 -1 l0 0 -3 -2 -2 -2 0 1 0
0 2 2 2 2 0 0 1 0 0 -1z m-756 -4 l0 -1 -1 0 -1 0 0 1 -1 1 2 0 1 0 0 -1z
m236 -3 l-1 -1 -1 -1 0 0 -1 1 -2 2 1 0 0 1 3 0 2 0 -1 -2z m-97 -4 l3 -1 3
-2 4 -1 0 -1 0 -1 -3 0 -2 1 -3 0 -3 0 -3 0 -3 0 0 1 0 1 -1 0 -1 0 0 1 0 1 2
1 3 1 1 0 1 -1 2 0z m594 -6 l1 -2 -8 -4 -7 -4 -1 0 -1 0 0 1 0 1 3 2 4 2 3 3
3 2 2 0 1 0 0 -1z m-32 -12 l-3 -3 4 3 5 4 3 0 2 -1 0 -1 -1 -1 -8 -4 -7 -3
-1 0 0 0 1 2 0 2 3 3 3 3 1 0 1 0 -3 -4z m3 -7 l-2 -1 -4 -1 -3 -1 -1 0 0 1 4
2 5 2 1 0 2 0 -2 -2z m-30 -1 l0 -1 -1 0 -1 -1 0 1 0 1 1 0 1 0 0 0z m24 -9
l0 -1 -2 -2 -2 -1 1 2 2 2 1 0 0 0 0 0z m-148 -10 l3 -2 -5 3 -5 3 0 1 0 0 2
-1 2 -1 3 -3z m-381 -20 l-1 -1 -2 1 -1 0 0 1 0 0 2 0 2 0 0 -1z m108 -26 l0
-2 -1 -2 -1 -1 0 -1 1 -1 -2 0 -2 1 -1 1 0 1 2 1 1 2 2 1 1 2 1 0 0 0 -1 -2z
m-8 -4 l0 -2 -1 0 -2 0 0 1 -1 2 1 0 0 1 1 0 2 -1 0 -1z m-15 -3 l-1 -1 1 0 2
1 0 -1 0 -1 1 0 2 0 0 -1 1 -1 1 0 1 1 0 1 0 1 -2 0 -2 0 0 1 0 1 1 0 2 0 2
-1 3 -1 0 -2 0 -2 -3 -3 -2 -2 4 -2 5 -2 0 -1 -1 -1 -2 0 -1 0 -1 -2 -1 -1 -1
0 -1 0 0 2 0 2 -1 -1 -2 -2 -2 0 -2 1 -1 -1 0 -1 -5 -2 -4 -2 -2 0 -1 0 0 1 1
1 -2 -1 -2 0 0 2 1 3 1 0 1 1 2 0 3 0 1 2 1 2 2 0 3 0 0 1 1 1 1 -1 2 0 0 1 1
2 -1 2 0 2 -3 0 -3 0 -1 1 -1 1 -1 -1 0 -2 -1 1 -1 0 0 -1 -1 -1 -2 0 -1 0 0
2 0 3 2 0 1 1 1 -1 1 0 0 1 1 1 2 0 2 0 0 2 0 2 1 -2 1 -1 -1 -2z m358 2 l2
-1 -2 0 -2 0 -3 2 -3 1 3 -1 4 0 1 -1z m-389 -3 l0 -2 -1 0 -1 -1 1 -2 1 -2
-1 0 -1 -1 -1 2 -1 1 1 2 1 2 -1 1 -1 1 1 1 1 0 -1 1 0 1 1 -1 2 0 0 -3z m530
1 l0 -1 -2 1 -1 0 0 -1 1 -1 -1 0 -1 1 0 1 0 1 2 0 3 0 -1 -1z m-277 -1 l1 -2
0 0 -1 0 -2 2 -1 1 1 0 1 0 1 -1z m272 -1 l-1 -1 -2 0 -2 0 1 1 2 1 1 0 1 0 0
-1z m-514 -3 l0 -2 -1 0 -2 0 1 2 0 1 1 0 1 0 0 -1z m251 -2 l0 0 -2 0 -2 0 0
2 -1 1 2 -1 3 -1 0 -1z m254 2 l-1 0 -1 0 -1 1 1 0 2 0 0 -1z m-249 -8 l0 -1
-1 1 -1 0 0 1 0 1 1 -1 2 0 -1 -1z m48 -6 l5 -2 -3 1 -3 0 -5 3 -4 2 2 -1 3 0
5 -3z m30 2 l2 -2 -4 0 -4 1 -1 0 -1 0 1 1 2 1 1 0 2 0 2 -1z m-197 -15 l2 -3
-1 0 -1 0 -2 3 -3 4 0 0 0 1 2 -1 2 -1 1 -3z m298 -1 l0 -1 -1 0 0 1 0 1 1 1
1 0 0 0 -1 -2z m-284 -11 l0 -1 1 1 1 0 0 -1 0 -1 3 -1 3 -1 0 -1 1 -1 4 -3 5
-3 3 -3 2 -2 1 0 1 0 2 -2 3 -3 3 -1 4 -2 -1 0 -1 0 2 -1 1 -2 1 1 1 0 0 -1 0
-1 2 0 1 0 0 -1 0 -2 1 0 2 -1 0 1 1 2 0 -3 0 -2 -2 0 -1 0 0 1 -1 2 0 -2 0
-2 -1 1 -1 1 -4 0 -4 0 0 1 0 1 -8 5 -8 6 -1 1 0 1 -6 4 -5 4 -4 4 -3 4 -2 2
-2 2 2 0 3 0 1 -1z m37 -17 l2 -1 -1 0 -1 0 -2 1 -1 2 1 0 1 0 1 -2z m27 -14
l-1 0 -1 1 -1 1 1 -1 2 0 0 -1z m8 -11 l0 -1 -1 0 -1 -1 0 1 0 1 1 0 1 0 0 0z"/>
<path d="M437 721 l0 -2 1 0 1 0 1 1 1 1 -1 0 -2 1 -1 0 0 0 0 -1z"/>
<path d="M306 627 l-3 -3 3 3 4 3 0 1 0 0 0 0 -1 0 -3 -4z"/>
<path d="M583 597 l-2 -2 0 -1 0 0 2 0 2 0 1 2 1 2 -1 0 0 1 -1 0 -1 0 -1 -2z"/>
<path d="M518 560 l0 -1 1 -1 1 -1 1 1 1 1 0 1 -1 1 -1 0 -1 0 -1 -1z"/>
<path d="M228 554 l0 -1 1 -1 1 -1 1 1 1 1 0 1 -1 1 -1 0 -1 0 -1 -1z"/>
<path d="M255 524 l0 -1 1 0 1 0 0 1 -1 1 -1 0 0 0 0 -1z"/>
<path d="M953 485 l-2 -1 0 -2 -1 -3 -2 -1 -2 -1 0 1 -1 1 -2 -2 -2 -2 0 0 1
-1 4 2 4 2 1 3 1 3 2 1 2 1 -1 0 0 0 -2 -1z"/>
<path d="M205 476 l-1 -2 2 0 1 0 0 2 0 1 -1 0 -1 0 0 -1z"/>
<path d="M123 410 l0 -1 1 0 1 -1 0 1 0 2 -1 0 -1 0 0 -1z"/>
<path d="M123 403 l0 -1 1 0 1 1 0 -2 1 -1 0 2 0 2 -1 0 -1 0 -1 -1z"/>
<path d="M127 398 l-1 -1 2 1 1 0 0 -1 -1 -1 1 0 1 1 0 1 0 1 -1 0 -2 0 0 -1z"/>
<path d="M228 335 l-1 -2 0 -1 1 0 1 2 1 1 0 1 -1 0 -1 -1z"/>
<path d="M229 328 l0 -3 1 -1 1 0 0 -1 -1 -1 3 -2 4 -3 1 -1 1 -1 2 -1 3 -2 0
1 0 1 -4 3 -5 2 -1 2 0 2 -1 -1 -1 -1 0 2 0 2 -2 3 -1 3 -1 0 0 0 1 -3z"/>
<path d="M285 316 l1 0 1 0 0 1 -2 0 -1 0 1 -1z"/>
<path d="M292 315 l-1 -1 1 0 1 -1 0 2 0 1 -1 0 0 0 0 -1z"/>
<path d="M278 313 l-5 -2 -5 0 -4 -1 -3 -1 -3 0 1 2 0 1 -2 -1 -2 -1 -3 1 -3
1 -2 0 -2 1 0 -1 0 -1 3 -1 3 0 2 -1 2 0 5 0 5 -1 4 1 5 1 4 1 5 1 0 0 1 0 0
1 0 1 -1 0 0 0 -5 -1z"/>
<path d="M286 313 l0 -1 1 1 1 0 0 1 0 0 -2 0 -1 0 1 -1z"/>
<path d="M262 311 l1 0 1 0 0 1 -2 0 -1 0 1 -1z"/>
<path d="M341 292 l0 -1 1 0 1 0 0 1 0 1 -1 0 -1 0 0 -1z"/>
<path d="M653 273 l0 -1 1 0 2 0 1 1 0 1 -2 0 -2 0 0 -1z"/>
<path d="M579 258 l1 -1 1 0 0 1 -2 0 -1 1 1 -1z"/>
<path d="M836 257 l-1 -1 3 0 2 1 0 1 1 1 -3 0 -2 0 0 -2z"/>
<path d="M717 242 l-1 -1 1 0 1 0 1 1 0 1 0 0 0 0 -2 -1z"/>
<path d="M699 241 l-2 0 -3 -2 -2 -1 -4 -3 -3 -3 3 0 4 0 2 2 2 1 1 0 1 -1 2
2 1 1 3 0 2 -1 0 2 1 1 2 0 2 0 -2 -1 -1 -1 1 0 1 0 2 2 1 2 -3 0 -3 0 -3 0
-3 1 -2 -1z"/>
<path d="M656 230 l-2 -1 3 0 3 -1 1 1 1 0 -1 1 -1 1 -1 0 -1 0 -2 -1z"/>
<path d="M643 221 l1 0 1 0 0 1 -2 0 -1 0 1 -1z"/>
<path d="M405 215 l-1 -3 -2 -2 -3 -1 0 -2 0 -1 3 0 3 0 1 2 1 2 0 4 0 3 -2
-2z"/>
<path d="M394 201 l0 -1 1 -2 2 -2 2 0 2 0 1 1 0 1 -3 1 -3 1 0 2 0 1 -1 0 -1
0 0 -2z"/>
<path d="M585 191 l0 -2 1 0 1 0 0 1 0 2 -1 1 -1 0 0 -2z"/>
</g>
</svg>
