<?xml version="1.0" standalone="no"?>
<!DOCTYPE svg PUBLIC "-//W3C//DTD SVG 20010904//EN"
 "http://www.w3.org/TR/2001/REC-SVG-20010904/DTD/svg10.dtd">
<svg style="fill: black; stroke: black;" version="1.0" xmlns="http://www.w3.org/2000/svg"
 width="739.166667pt" height="705.333333pt" viewBox="0 0 739.166667 705.333333"
 preserveAspectRatio="xMidYMid meet">
<metadata>
Created by potrace 1.16, written by Peter Selinger 2001-2019
</metadata>
<g transform="translate(-226.000000,751.833333) scale(1.000000,-1.000000)"
fill="#000000" data-original="#000000" stroke="none">
<path d="M534 751 l-2 -1 1 -2 0 -2 2 -1 1 -1 0 -4 0 -4 0 -1 -1 0 1 -2 0 -2
5 -2 5 -2 -1 -3 0 -3 2 -1 2 0 -1 -2 -1 -1 0 1 0 2 -1 0 -1 0 -2 -1 -2 -1 0
-2 0 -3 2 -2 1 -2 0 0 -1 0 -1 0 0 -1 -2 0 -2 -1 -3 2 -4 2 -2 -1 -2 0 -6 0
-5 0 0 -1 0 -2 -1 1 -2 0 -1 -1 0 -2 -5 -3 -5 -3 -1 0 -1 0 -1 -2 0 -1 3 0 4
1 -3 -2 -3 -1 -1 -3 -1 -3 -1 0 -1 0 -1 -1 -1 -1 -4 -3 -4 -3 -5 -5 -4 -4 -3
-2 -2 -2 1 -1 0 -2 -5 -6 -6 -7 0 -1 0 -2 3 -1 2 0 2 2 2 1 2 5 2 4 1 -1 1 -2
-2 -2 -2 -2 -1 -5 -2 -5 0 -6 0 -5 1 -2 1 -2 0 5 0 6 0 3 0 3 3 7 4 7 2 2 2 3
-1 -4 -2 -4 2 -1 1 -1 1 1 1 1 0 1 0 2 2 1 2 1 0 0 0 -1 -2 -6 -2 -7 2 1 3 0
0 1 1 2 0 -2 0 -1 0 -2 0 -1 1 0 0 1 2 -1 2 -1 1 2 1 1 1 -1 1 0 -1 -2 -1 -2
0 -3 0 -2 1 1 0 2 2 0 1 0 -1 -3 -1 -3 1 0 1 0 0 -2 0 -1 -1 1 -1 0 -2 -1 -1
-2 0 -4 1 -4 2 -2 2 -2 0 -1 0 -2 2 -4 2 -3 0 0 0 1 3 -2 3 -1 0 -1 -1 -1 3
-2 3 -3 1 0 1 1 2 -2 2 -2 0 -1 -1 -1 2 0 1 0 0 1 0 1 2 -2 2 -1 -2 3 -1 3 3
-4 3 -3 1 1 1 0 -1 2 -2 2 1 2 2 1 2 0 1 0 0 1 -1 2 -2 0 -3 1 -1 2 -2 2 -3 3
-3 2 -2 2 -1 2 -1 6 0 6 1 1 2 1 0 1 0 2 2 1 3 1 0 1 0 2 -2 1 -2 1 -1 1 0 2
2 0 2 1 0 1 0 1 2 2 2 1 1 -1 0 -2 -1 -3 -2 -4 0 0 0 -1 1 1 1 0 0 -2 0 -2 -4
-2 -3 -2 1 -1 2 0 3 2 4 1 1 3 1 4 0 0 0 1 0 3 0 4 -1 0 -1 1 0 4 1 5 2 0 2 0
-2 1 -1 0 0 1 0 1 3 3 2 3 4 2 4 1 0 0 1 0 0 3 1 2 1 0 1 0 2 2 1 2 0 0 0 1
-1 0 -2 0 0 1 0 1 2 0 2 0 -4 1 -3 2 0 1 0 1 1 0 1 0 -1 2 0 2 4 0 4 0 0 -2 0
-2 2 0 2 0 2 -1 2 0 0 1 -1 2 1 0 1 1 2 0 3 0 0 1 0 1 1 -1 2 0 1 -2 0 -2 5
-1 5 -2 1 0 0 1 0 7 0 8 1 1 1 1 2 0 2 -1 2 4 2 4 -3 0 -2 0 -2 -1 -3 -1 -1
-6 -1 -5 -1 -2 0 -1 -2 0 -2 0 1 1 0 1 -1 0 -1 0 -3 2 -3 3 0 1 1 1 -2 1 -1 0
-3 3 -3 2 -3 -1 -3 -1 0 0 -1 1 -2 4 -2 5 0 1 1 1 -2 0 -2 1 0 2 0 1 2 0 2 0
1 1 2 0 1 0 1 0 -1 1 0 1 -1 -1 -1 0 -2 4 -1 4 -2 1 -2 0 0 1 0 1 -1 0 -2 0 0
2 -1 1 0 3 0 3 2 2 2 3 -2 2 -3 2 -4 0 -5 0 -1 -1z m-51 -85 l0 -1 -1 0 -1 -1
0 1 0 1 1 0 1 0 0 0z m19 -44 l0 -1 -1 0 -1 0 0 2 0 2 1 0 1 -1 0 -2z m5 -11
l1 -2 -1 1 -2 1 0 1 0 1 0 0 1 0 1 -2z"/>
<path d="M570 669 l0 -1 2 0 1 1 1 0 0 0 0 1 0 1 -2 0 -3 0 1 -2z"/>
<path d="M474 637 l0 -1 1 0 1 0 0 1 0 1 -1 0 -1 0 0 -1z"/>
<path d="M493 624 l1 -6 -2 2 -2 1 0 -3 0 -3 2 -3 1 -3 0 2 -1 2 0 2 -1 3 3
-7 4 -7 1 1 2 0 0 -1 0 -1 -1 1 -2 0 0 -1 -1 -1 2 -3 3 -2 0 2 0 3 1 0 1 -1 1
1 1 1 -3 5 -2 5 0 1 0 2 -1 0 -1 -1 -1 3 -1 3 -1 4 -1 4 0 -3 0 -2 -1 3 -1 4
0 -7z"/>
<path d="M484 627 l-1 -1 2 -4 1 -4 0 -1 0 -1 1 -2 0 -1 1 1 1 1 -1 4 0 5 -1
2 -1 2 0 0 0 1 -1 0 -1 0 0 -2z"/>
<path d="M506 605 l0 -1 1 0 1 -1 0 1 0 1 -1 1 -1 0 0 -1z"/>
<path d="M495 604 l0 -1 1 0 0 0 0 1 0 1 -1 0 -1 0 1 -1z"/>
<path d="M505 600 l0 -1 -1 0 -1 1 2 -3 1 -3 2 0 2 0 0 1 0 1 -2 3 -3 3 0 -2z"/>
<path d="M511 594 l0 -1 1 0 1 0 0 1 -1 1 -1 0 0 0 0 -1z"/>
<path d="M551 589 l3 -3 1 1 0 0 0 0 0 1 -3 2 -3 2 2 -3z"/>
<path d="M546 588 l0 -1 2 -1 1 -1 -1 -1 -1 -1 0 -3 0 -2 -1 0 -1 1 -1 -2 -1
-1 2 0 2 0 0 -1 0 -2 1 0 1 0 0 -2 0 -3 1 0 2 1 1 1 2 2 1 4 0 3 -5 5 -5 6 0
-2z"/>
<path d="M558 580 l0 -2 -1 0 -1 0 1 -3 0 -2 2 -1 2 -1 -2 3 -1 2 1 1 1 1 1
-1 1 0 0 1 0 2 -1 1 -1 1 -1 0 -1 0 0 -2z"/>
<path d="M544 573 l-1 -1 1 0 1 0 1 1 0 1 -1 0 -1 0 0 -1z"/>
<path d="M567 560 l0 -7 1 0 1 0 1 2 0 2 0 5 -1 4 -1 1 -1 0 0 -7z"/>
<path d="M542 553 l0 -2 -1 0 -1 0 -1 -3 -1 -4 -2 0 -1 0 0 -1 0 -2 -1 0 -1 0
-1 -4 -2 -4 -1 0 -1 1 1 2 1 2 -1 2 -1 3 -2 0 -2 0 0 -1 0 -1 -1 0 -2 0 0 -3
-1 -3 -3 -6 -4 -5 0 -1 0 -1 -2 0 -2 0 0 -1 -1 -1 -1 -6 -1 -5 -2 -2 -2 -3 -2
-1 -2 0 -1 -1 -1 0 -2 0 -1 0 -2 -2 -3 -3 -1 -7 0 -7 3 -3 3 -3 2 0 1 0 2 -2
3 -2 0 -1 0 -1 0 -1 0 0 0 -3 0 -2 5 -5 5 -5 0 -4 -1 -3 2 -1 2 -1 0 -2 0 -2
1 -1 2 -1 3 -1 3 -1 2 2 3 1 1 2 1 1 1 -1 2 -1 0 -6 0 -5 -2 0 -1 0 0 -1 0 -1
1 0 1 0 0 -1 0 -1 -2 -4 -1 -3 -2 0 -2 0 -3 -1 -4 -2 -1 -3 0 -4 -4 -4 -4 -4
2 -2 3 -2 -3 -2 -2 -2 0 0 0 -1 3 1 4 0 -6 -5 -5 -5 -2 0 -1 0 -4 -2 -4 -2 -1
-1 0 -1 -1 1 -1 1 0 -2 -1 -2 -1 0 -1 0 -3 0 -2 0 0 -1 0 -2 2 0 3 1 1 -2 2
-2 -1 -1 -1 0 -2 0 -2 0 0 -3 0 -3 -2 0 -2 0 0 -1 0 -2 -5 -1 -5 -1 0 -1 0 -1
-3 -1 -2 -2 -4 -1 -3 -2 -1 -1 0 -2 -3 0 -2 0 -3 -2 -3 -1 -1 -2 -1 -2 -4 1
-3 0 -3 0 -2 0 -2 0 -1 0 -1 -1 0 0 -2 -2 -2 -1 -2 -3 -2 -3 -3 -1 -2 0 -1 -1
-1 -1 -3 0 -4 0 -1 1 -1 1 -2 0 -1 -1 -4 -1 -3 -1 0 1 0 2 -1 -2 -1 -1 -2 1
-2 1 -6 -1 -6 -1 -2 -1 -2 -1 -3 2 -3 3 -4 2 -4 3 -3 1 -3 2 -1 0 0 -1 4 -3 5
-4 1 0 1 0 3 -2 2 -1 0 -1 0 -1 -3 1 -3 2 -3 0 -2 1 0 -1 1 -2 -2 1 -2 1 -4 3
-4 4 0 0 0 1 -1 1 -2 2 -5 4 -4 4 -3 0 -2 1 0 -1 0 0 2 -2 1 -2 -1 -2 -1 -1 6
-3 5 -4 -1 -1 0 -1 -2 1 -2 1 0 -1 0 -1 -1 0 -2 0 1 -1 0 -2 1 0 1 0 2 -1 1
-1 2 -2 1 -2 1 1 1 0 0 -1 0 -1 -1 0 0 0 -5 2 -5 3 0 -1 0 -1 3 -1 3 -1 3 -3
3 -3 -3 0 -3 1 0 -1 0 0 4 -2 5 -2 0 0 0 0 0 0 0 -1 0 -1 0 -2 -2 0 -2 0 1 -1
1 -2 2 0 3 -1 -1 -1 0 -1 5 -1 4 0 0 -1 1 -1 -4 1 -4 0 -2 1 -1 1 0 -1 -1 0
-2 1 -2 1 0 -1 1 -2 0 -1 0 -2 4 0 3 -1 1 -1 0 -2 -2 -2 -2 -2 0 -1 0 -2 -2
-1 -2 -1 0 -1 0 0 0 -2 -1 -2 1 -4 2 -3 2 0 2 -1 -1 -2 0 -2 2 1 2 1 0 -1 0 0
0 -2 1 -1 1 -1 1 0 4 -2 5 -2 3 0 4 0 -1 1 0 2 3 0 3 0 -1 -1 0 -1 0 -6 -1 -5
0 0 1 0 2 2 2 2 2 -2 2 -2 0 -1 -1 -1 1 -1 2 -1 -1 -1 0 -2 2 -1 3 -2 4 0 5
-1 2 1 3 2 1 -2 1 -1 3 -2 3 -1 0 1 1 2 4 -1 4 0 3 3 4 4 0 1 0 0 1 2 2 1 2
-1 2 -1 8 1 8 0 0 -1 0 -2 2 0 3 -1 1 0 2 0 1 1 0 2 -4 1 -4 1 0 1 1 0 3 1 4
0 3 0 3 1 2 1 2 1 -3 0 -2 0 1 2 1 1 3 0 2 -1 0 1 0 1 1 0 1 0 0 -1 0 -2 -1 0
-1 -1 0 0 1 -1 1 2 2 1 1 -1 1 0 -2 -2 -1 -1 2 0 3 0 0 -1 0 -2 -1 0 -2 0 0
-1 0 -1 3 0 3 0 1 -1 2 -1 3 0 4 0 -1 -1 0 -1 -2 0 -1 1 0 -2 0 -1 1 0 2 1 -1
-2 0 -2 2 1 3 0 1 1 1 0 -1 -2 0 -1 2 1 2 1 4 0 4 0 0 1 0 1 -1 0 -2 0 2 2 1
2 1 0 2 0 -2 -1 -1 -1 2 0 3 0 -1 -1 0 -1 1 1 1 1 3 0 2 0 5 5 4 4 1 0 1 -1 1
1 1 2 -1 1 0 2 -1 0 -2 0 0 -2 -1 -2 -1 0 -2 0 0 2 1 2 3 1 4 1 2 2 2 2 0 1 0
1 1 0 1 0 3 0 3 1 0 2 0 1 1 0 2 0 1 0 2 1 -1 1 0 1 2 1 2 0 0 2 0 1 1 0 1 -1
1 1 1 2 1 -1 2 0 0 1 1 1 1 -1 1 0 0 2 -1 2 3 2 3 3 1 -1 1 -1 0 1 1 1 0 0 -1
0 1 2 1 2 2 0 2 0 0 1 0 2 -1 1 -1 0 0 2 0 1 2 1 2 0 -1 1 0 1 1 2 1 2 2 0 1
0 0 1 0 1 -2 0 -1 1 0 1 1 0 2 -1 1 -1 2 1 1 2 -2 2 -1 1 1 0 2 -1 0 1 0 1 3
1 3 2 0 -2 -1 -3 2 0 1 -1 0 1 1 1 -1 2 0 2 1 -2 1 -1 2 2 1 1 1 0 1 0 0 -1 0
-1 2 2 2 2 3 -1 2 -1 0 1 -1 2 1 0 1 0 2 0 2 1 0 1 0 2 0 1 1 2 1 1 1 0 0 -1
0 -2 2 0 1 0 0 -1 0 -1 -1 0 -2 0 0 -1 0 -1 1 0 2 1 -1 -2 0 -1 -3 -1 -3 -2
-1 1 -2 0 0 -1 -1 -2 2 1 1 0 -2 -2 -1 -3 -2 0 -1 1 0 -1 -1 -1 2 -1 2 -2 1 0
0 0 4 3 3 3 0 1 0 1 2 -1 1 -1 0 1 0 2 2 1 2 2 1 -1 2 0 1 2 0 2 3 2 3 3 1 -1
2 0 2 1 2 1 1 -1 2 -1 0 1 1 1 3 -2 3 -1 0 -1 0 -1 2 0 2 0 0 2 0 1 1 0 2 0 3
0 3 1 2 3 2 2 2 7 2 6 0 -1 1 -1 0 -1 -1 -1 2 0 3 1 0 2 0 2 -2 1 -2 2 1 0 1
1 0 -2 0 -1 1 1 0 1 2 -2 2 -1 0 0 1 1 3 4 3 5 2 0 1 -1 0 1 1 2 -1 2 -1 3 1
1 1 0 -1 3 0 3 -2 2 -2 2 -2 0 -1 0 -2 1 -1 1 1 4 2 4 0 6 0 6 -1 4 -1 4 -2 2
-2 1 -2 7 -2 7 -1 0 -1 0 -1 2 -1 3 -2 1 -2 0 -1 2 0 2 -3 1 -2 1 -2 4 -3 4
-2 0 -3 0 -1 3 -2 2 -3 1 -2 1 -2 1 -2 0 0 -1 0 0 0 -2 -1 -2 -2 -2 -1 -2 -3
2 -2 2 -2 0 -1 0 0 1 0 1 -1 -1 -2 0 0 1 0 2 -2 1 -1 0 -2 1 -1 0 1 -2 0 -1 2
0 1 -1 0 -1 0 -1 -2 0 -1 -1 -5 3 -4 2 -2 2 -1 2 -2 0 -1 0 0 2 -1 1 -1 0 -2
0 0 2 0 1 -1 0 -2 0 1 -1 0 -2 -3 0 -3 0 0 1 0 1 -1 0 -2 0 0 -1 0 -1 2 -2 1
-1 3 -1 3 -1 -2 -1 -2 0 2 -2 2 -2 -2 -1 -2 -1 -3 1 -3 2 1 1 0 1 -1 0 -2 0
-1 2 0 2 -1 0 0 -1 -2 2 -2 2 -2 0 -1 -1 -1 1 -1 1 1 2 0 1 -2 0 -3 -1 -1 2 0
1 -1 -1 -2 0 -5 5 -5 5 -2 3 -3 4 0 2 0 1 -2 2 -2 1 0 1 0 1 -2 3 -2 3 0 1 1
1 -2 0 -2 1 0 2 0 2 -3 3 -3 4 0 0 0 1 1 -1 1 0 1 2 0 2 3 0 2 -1 1 1 0 1 3
-3 3 -2 0 2 0 2 1 0 1 -1 0 1 0 1 -2 4 -2 4 -2 0 -1 1 0 1 1 0 -2 2 -1 2 0 3
0 2 2 1 2 1 -1 1 0 2 2 1 2 1 4 5 3 5 -3 -2 -3 -2 -1 -3 -1 -2 -2 -1 -2 -1 3
4 2 5 0 0 -1 0 -2 -2 -2 -2 1 2 0 2 -2 -3 -1 -2 -2 -1 -2 -1 1 2 0 3 1 2 0 2
0 4 1 4 1 1 0 1 -1 0 0 0 -1 -2z m-6 -54 l0 -1 -1 1 -1 0 1 1 0 1 1 0 0 0 0
-2z m56 -58 l1 -2 -1 -1 -1 0 0 2 0 2 0 0 1 0 0 -1z m-49 -32 l0 -1 -3 -4 -2
-4 -1 0 -1 0 0 1 1 1 3 4 2 5 1 0 1 0 -1 -2z m-9 -10 l1 -1 -1 -1 -1 -1 -1 0
-1 0 -2 -2 -1 -1 -1 0 -1 0 1 2 1 2 2 1 1 2 2 0 1 0 0 -1z m-22 -16 l0 -1 -1
0 -1 0 1 1 0 1 1 0 0 0 0 -1z m-173 -52 l0 -1 -1 0 -1 -1 0 1 -1 1 1 0 2 0 0
0z m5 -2 l0 -1 0 -1 0 -1 1 0 1 0 1 1 0 1 1 -1 1 -1 -2 -2 -1 -1 -2 2 -2 1 0
0 0 -1 -1 1 -1 0 1 1 1 1 0 1 0 1 -1 -1 -1 0 0 1 1 1 2 -1 1 0 0 -1z m282 -1
l0 -1 -1 0 -1 -1 0 1 0 1 1 0 1 0 0 0z m5 -4 l-1 0 -1 0 0 1 1 1 0 1 1 -1 0
-1 0 -1z m3 2 l0 -1 -1 0 -1 0 0 1 0 1 1 0 1 0 0 -1z m-281 -5 l0 -1 -1 1 -1
0 1 1 0 1 1 -1 1 0 -1 -1z m8 -5 l-1 0 -2 0 -1 1 3 0 3 0 -2 -1z m-7 -6 l0 -1
-2 1 -2 0 0 1 0 1 2 -1 2 0 0 -1z m6 -14 l0 -1 -1 0 -1 -1 0 1 -1 1 1 0 2 0 0
0z m-2 -3 l0 -1 -1 0 -1 0 0 1 0 1 0 0 1 0 1 -1z m104 -35 l0 -1 -1 0 -1 -1 0
1 -1 1 1 0 2 0 0 0z m37 -11 l-1 -1 -2 0 -1 0 0 1 -1 1 1 0 2 1 2 0 2 0 -2 -2z
m22 1 l-1 -1 -1 0 -1 0 1 1 2 1 0 0 0 0 0 -1z m-20 -3 l0 -1 -2 0 -1 0 1 1 0
1 1 0 1 0 0 -1z m6 0 l0 -1 -1 0 -2 0 0 1 0 1 2 0 1 0 0 -1z"/>
<path d="M550 547 l-1 -2 0 0 1 0 1 2 1 2 0 0 -1 0 -1 -2z"/>
<path d="M545 526 l0 -1 1 1 1 0 0 1 0 0 -1 0 -1 0 0 -1z"/>
<path d="M545 507 l0 -1 1 -2 1 -1 0 1 0 1 -1 2 -1 2 0 -2z"/>
<path d="M551 487 l0 -1 1 -2 1 -1 1 0 0 1 -1 2 -2 2 0 -1z"/>
<path d="M574 473 l0 -1 1 0 1 0 0 1 -1 1 -1 0 0 0 0 -1z"/>
<path d="M618 472 l0 -2 1 0 2 -1 0 1 1 0 0 2 0 1 -2 0 -2 0 0 -1z"/>
<path d="M582 462 l0 -2 1 0 1 0 0 1 -1 1 -1 1 -1 0 1 -1z"/>
<path d="M226 430 l0 -2 2 0 1 -1 1 0 0 1 -1 2 -1 2 -1 0 -1 0 0 -2z"/>
<path d="M230 425 l0 -1 1 0 0 0 0 1 0 1 -1 0 -1 0 1 -1z"/>
<path d="M258 397 l0 -2 1 0 1 0 0 2 0 1 -1 0 -1 0 0 -1z"/>
<path d="M778 393 l-2 -1 0 -2 0 -1 1 0 1 0 1 2 1 3 1 0 2 1 -2 0 -1 0 -2 -2z"/>
<path d="M268 383 l-1 -1 1 0 1 0 0 1 0 1 0 0 -1 0 0 -1z"/>
<path d="M300 382 l-1 -2 1 0 0 -1 2 0 1 0 0 2 0 2 -1 0 -2 0 0 -1z"/>
<path d="M273 373 l0 -2 2 0 1 0 -1 2 -1 1 -1 0 0 0 0 -1z"/>
<path d="M313 371 l2 -3 1 0 0 0 -2 3 -1 2 -1 0 -1 0 2 -2z"/>
<path d="M485 371 l0 -1 1 0 0 0 0 1 0 1 -1 0 -1 0 1 -1z"/>
<path d="M269 369 l0 -2 2 -2 1 -2 2 0 2 0 -3 2 -2 2 0 2 0 1 -1 0 -1 1 0 -2z"/>
<path d="M753 364 l-1 -2 -2 0 -2 -1 -1 1 -1 1 -1 -1 -1 -1 1 -1 1 -1 0 -1 -1
-1 2 1 2 0 4 3 4 3 -1 1 0 1 -1 0 -1 0 -1 -2z"/>
<path d="M788 364 l0 -1 1 1 1 0 0 1 0 1 -1 0 -1 0 0 -2z"/>
<path d="M312 363 l0 -1 1 0 0 0 0 1 0 1 -1 0 -1 0 1 -1z"/>
<path d="M738 361 l0 -1 1 1 1 0 0 1 0 1 -1 0 -1 0 0 -2z"/>
<path d="M740 356 l-1 -1 2 0 1 1 1 1 0 1 -1 0 0 0 -2 -2z"/>
<path d="M305 357 l0 -1 2 -1 2 -1 -2 1 -1 2 -1 0 0 0 0 0z"/>
<path d="M280 352 l1 -2 1 0 0 0 -1 2 -1 2 -1 0 -1 0 2 -2z"/>
<path d="M314 346 l0 -1 2 0 2 0 2 -2 1 -2 2 0 1 0 1 -1 0 -2 2 0 2 0 0 1 0 1
-6 3 -5 4 -2 0 -2 0 0 -1z"/>
<path d="M704 345 l-1 -2 1 0 1 0 1 2 1 2 -1 0 -1 0 -1 -2z"/>
<path d="M697 345 l1 -2 -1 0 0 1 -1 -1 0 -1 -2 -4 -1 -4 1 -1 0 -1 -1 0 -1
-1 1 -1 1 -1 -5 -2 -4 -3 0 -1 0 -1 -1 0 -2 0 0 -1 -1 -2 2 1 2 0 0 -2 -1 -2
2 1 1 0 0 2 0 2 2 0 2 1 0 -1 0 -1 -2 -2 -2 -2 -3 -1 -2 -1 1 -2 0 -2 1 0 1 0
0 -2 0 -3 -3 -2 -3 -3 -1 0 -2 0 -2 -3 -2 -2 1 -1 1 0 -1 -1 0 -1 -2 1 -1 0
-3 -2 -4 -2 -8 0 -9 -1 -1 0 -1 -1 0 1 0 1 -2 0 -2 0 0 1 0 1 -1 0 -2 0 0 -1
0 -1 -2 -2 -2 -2 -3 0 -3 0 0 1 0 1 -1 0 -1 0 0 -1 0 0 0 -2 0 -1 -1 1 -1 2
-1 -3 -1 -3 -2 1 -2 0 -1 -2 -1 -2 0 -3 1 -3 -1 -1 -1 0 0 -2 0 -2 -1 -1 -2
-1 0 1 -1 2 1 -3 0 -2 -1 0 -1 0 -2 0 -2 -1 1 -2 0 -2 -5 -2 -4 -2 -1 1 -1 2
0 -2 0 -1 -1 0 -2 1 -3 -5 -3 -4 -3 -2 -2 -2 1 2 0 2 -3 -4 -4 -3 -1 0 -1 1
-4 -5 -5 -4 0 0 -1 0 1 2 1 2 -1 -1 -2 0 0 -1 0 -2 -2 -1 -2 -1 -4 -1 -3 -2
-3 1 -2 1 0 1 1 0 3 0 3 1 0 0 0 1 1 1 2 1 -4 -1 -4 0 -5 -2 -5 -1 -5 -6 -6
-5 0 -1 0 -2 2 0 1 0 4 -1 3 -1 1 1 2 1 -1 2 -1 1 1 2 1 2 2 0 2 1 1 -1 2 -1
-2 1 -1 0 0 -1 1 -1 -3 -4 -3 -5 -1 0 -2 0 -2 -2 -3 -2 -4 -2 -3 -2 -1 1 -1 0
0 -1 0 -1 -1 1 -2 2 -4 0 -4 0 -1 -2 -2 -1 0 1 -1 0 1 2 0 2 -1 -2 -2 -1 0 1
0 1 -3 -1 -3 -1 -1 1 0 1 -4 -1 -3 0 -1 -2 -1 -2 1 -3 1 -3 -2 -1 -1 0 0 -2 0
-2 -1 -1 -1 0 -1 -1 -1 0 -1 0 -1 0 0 -1 0 -1 5 -3 5 -2 2 0 3 0 4 2 4 1 0 1
0 1 2 0 2 0 0 -1 0 -1 7 0 8 1 4 -2 5 -2 1 -2 1 -1 1 0 1 1 1 -2 1 -3 2 0 2
-1 0 -1 0 -1 3 1 3 0 0 1 0 1 3 1 4 1 4 1 5 1 2 4 2 4 0 0 1 1 0 1 -1 1 1 1 0
1 1 -1 1 -1 1 1 2 2 0 5 1 6 1 2 2 3 4 3 5 4 1 0 1 0 0 1 -1 1 1 0 1 0 0 1 0
1 -2 0 -3 0 -7 -4 -6 -4 -3 -2 -2 -2 0 -2 0 -1 -1 0 -1 0 -3 -3 -4 -4 -2 -1
-2 -1 -3 -1 -3 0 -4 0 -3 0 -2 0 -2 1 -1 1 -1 1 -2 -1 -1 0 0 1 0 2 0 0 0 1
-2 -1 -1 0 0 1 0 2 3 1 3 2 1 0 2 0 1 3 1 2 2 3 2 2 0 2 0 2 2 1 3 2 4 1 4 1
1 1 0 1 2 -1 2 -1 4 3 3 4 2 1 3 1 3 -1 3 0 0 1 0 2 1 0 1 0 1 2 2 3 -2 -1 -2
0 4 4 4 4 1 2 2 3 4 0 4 -1 4 3 4 3 4 3 3 3 0 2 0 2 2 0 2 1 1 3 1 2 3 2 2 3
2 0 2 1 1 -1 2 -1 1 1 0 1 2 0 1 0 0 -1 0 -1 2 0 1 0 1 1 0 2 3 0 3 1 3 -2 4
-1 3 1 3 1 1 -1 1 0 0 1 1 1 2 0 3 0 1 1 1 1 4 0 4 1 1 0 2 0 0 4 1 3 3 1 3 1
1 3 2 3 2 -1 2 0 0 2 0 2 2 -1 1 0 0 1 0 2 4 5 5 5 0 1 0 1 -1 2 -1 2 2 2 2 2
0 2 0 2 0 2 0 3 -1 -1 -2 0 0 -3 -1 -2 -2 0 -3 0 0 1 -1 2 2 5 1 5 0 0 0 1 -2
-2 -1 -2 0 2 1 3 -1 -1 -1 0 0 3 1 2 -2 1 -1 0 0 -1z m2 -6 l0 -1 -1 -1 0 -2
-1 0 -1 0 0 2 0 2 1 0 0 1 1 0 1 0 0 -1z m-4 -25 l0 -2 -1 -1 0 -1 -2 1 -2 0
1 -1 1 -2 -1 0 0 -1 -2 1 -2 1 0 2 0 3 3 2 4 2 1 0 1 -1 -1 -3z m11 -1 l0 -1
-1 0 -1 -1 0 1 0 1 1 0 1 0 0 0z m-30 -17 l-1 -1 -1 0 -1 0 1 1 2 1 0 0 0 0 0
-1z m-3 -9 l0 -1 -6 -3 -5 -2 -3 0 -2 1 0 1 0 2 2 0 3 0 5 1 5 2 1 0 1 0 -1
-1z m-20 -4 l0 -1 -1 0 -1 0 0 1 0 1 0 0 1 0 1 -1z m-34 -7 l0 -1 -1 0 -1 0 0
1 0 1 1 0 1 0 0 -1z m-74 -50 l0 -1 -1 0 0 1 -2 -1 -1 -1 0 1 0 1 1 0 2 1 0 0
1 0 0 -1z m12 -1 l0 -1 -2 0 -1 -1 -2 0 -1 0 2 2 3 1 0 0 1 0 0 -1z m-8 -1 l0
-1 -1 0 -1 -1 0 1 0 1 1 0 1 0 0 0z m-30 -23 l0 -1 -2 0 -1 0 1 1 0 1 1 0 1 0
0 -1z"/>
<path d="M299 343 l2 -2 1 0 1 1 -2 2 -1 1 -2 0 -1 0 2 -2z"/>
<path d="M351 332 l0 0 3 -2 2 -1 -2 2 -1 2 -1 0 -1 0 0 -1z"/>
<path d="M324 323 l0 -1 1 1 0 1 0 1 -1 0 0 -2z"/>
<path d="M764 322 l0 -1 1 0 1 0 0 1 0 1 -1 0 -1 0 0 -1z"/>
<path d="M669 318 l-1 -2 2 0 2 0 0 1 0 1 1 0 1 -1 0 1 1 2 -2 0 -3 0 -1 -2z"/>
<path d="M664 318 l-1 -1 2 0 1 0 0 1 -1 1 0 0 -1 0 0 -1z"/>
<path d="M290 316 l0 0 3 -3 2 -2 1 0 0 1 -1 2 -1 2 -1 0 0 -1 -2 1 -1 1 0 -1z"/>
<path d="M609 314 l0 -1 1 0 1 0 0 1 0 1 -1 0 -1 0 0 -1z"/>
<path d="M336 310 l3 -2 2 0 2 -1 0 1 0 1 -1 1 -1 2 -4 0 -3 1 2 -3z"/>
<path d="M284 311 l-1 0 1 -1 0 -1 2 0 1 0 0 2 0 1 -1 0 0 0 -2 -1z"/>
<path d="M345 311 l1 -2 1 1 0 0 -1 1 -1 1 -1 0 -1 0 2 -1z"/>
<path d="M678 310 l0 -1 2 0 1 0 0 -1 0 -2 1 1 2 0 -2 2 -3 2 0 0 -1 0 0 -1z"/>
<path d="M661 308 l-1 -1 1 0 2 0 0 1 0 1 -1 0 -1 0 0 -1z"/>
<path d="M664 307 l-1 -2 1 0 1 0 1 1 0 1 0 1 -1 0 -1 -1z"/>
<path d="M311 307 l0 -1 2 -1 1 -1 -1 1 0 2 -1 0 -1 0 0 0z"/>
<path d="M676 305 l-1 -1 2 0 1 0 0 1 -1 1 0 0 -1 0 0 -1z"/>
<path d="M290 304 l0 -1 1 0 1 0 0 1 0 1 -1 0 -1 0 0 -1z"/>
<path d="M345 304 l2 -1 1 0 2 0 0 0 0 1 -3 0 -3 1 1 -1z"/>
<path d="M592 304 l1 0 -1 -2 -1 -1 0 -1 1 0 1 0 1 1 0 2 0 2 -1 0 -1 0 0 -1z"/>
<path d="M600 301 l0 -1 1 1 1 0 0 1 0 0 -1 0 -1 0 0 -1z"/>
<path d="M618 297 l0 -2 1 -1 1 -1 1 1 0 2 1 -1 1 0 -1 2 -1 2 -1 0 -1 0 -1
-2z"/>
<path d="M654 298 l0 -1 0 -1 1 0 1 1 2 0 -1 1 0 1 -1 0 -1 0 -1 -1z"/>
<path d="M603 297 l0 -1 1 0 1 0 0 1 0 1 -1 0 -1 0 0 -1z"/>
<path d="M644 291 l0 -1 1 0 1 0 0 1 0 1 -1 0 -1 0 0 -1z"/>
<path d="M339 284 l1 -1 1 -1 1 0 0 1 -1 1 -1 1 -1 0 0 -1z"/>
<path d="M567 281 l0 -1 1 0 1 0 0 1 0 1 -1 0 -1 0 0 -1z"/>
<path d="M329 275 l-1 -2 1 -2 2 -1 1 1 2 1 0 2 0 1 -2 1 -2 1 -1 -2z"/>
<path d="M612 269 l-1 -1 1 0 1 0 0 1 0 1 0 0 -1 0 0 -1z"/>
<path d="M595 267 l0 -1 1 1 0 1 0 1 -1 0 0 -2z"/>
<path d="M551 266 l-1 -2 1 0 1 0 1 2 1 1 0 0 -1 0 -2 -1z"/>
<path d="M546 263 l0 -2 1 0 1 1 0 1 0 0 -1 1 -1 0 0 -1z"/>
<path d="M339 260 l-1 0 1 -2 0 -1 2 0 2 0 0 1 1 1 -2 1 -2 1 0 0 -1 0 0 -1z"/>
<path d="M360 259 l0 -1 -3 1 -2 0 1 -1 2 -2 2 1 3 1 0 0 0 1 -1 0 -2 1 0 -1z"/>
<path d="M364 257 l1 -1 2 -2 3 -1 1 1 1 0 -3 2 -3 2 -1 0 -1 0 0 -1z"/>
<path d="M538 251 l0 -1 1 1 1 0 0 1 0 0 -1 0 -1 0 0 -1z"/>
<path d="M461 249 l0 -1 2 -1 2 -2 0 1 0 2 -2 1 -2 1 0 -1z"/>
<path d="M584 248 l0 -1 0 -1 1 0 1 1 1 2 -1 0 -1 0 -1 -1z"/>
<path d="M377 247 l0 -1 2 -1 1 -1 1 1 1 1 0 1 -1 1 -2 0 -2 0 0 -1z"/>
<path d="M463 243 l1 0 1 0 2 1 -3 0 -2 0 1 -1z"/>
<path d="M478 243 l0 -1 1 1 1 0 0 1 0 0 -2 0 -1 0 1 -1z"/>
<path d="M487 243 l0 -1 1 0 1 0 0 1 0 1 -1 0 -1 0 0 -1z"/>
<path d="M483 241 l-1 -1 0 -1 1 0 1 0 1 1 0 2 0 1 -1 0 -1 0 0 -2z"/>
<path d="M405 236 l-1 -1 2 0 1 -1 0 1 0 1 -1 0 -1 1 0 -1z"/>
<path d="M532 227 l0 -1 1 0 1 0 0 1 0 1 -1 0 -1 0 0 -1z"/>
<path d="M562 221 l-1 -1 2 0 1 -1 3 0 2 0 0 1 -1 1 -3 1 -3 0 0 -1z"/>
<path d="M611 213 l-3 -1 4 -1 4 0 2 1 2 0 -2 1 -2 1 -1 0 0 0 -4 -1z"/>
<path d="M596 211 l0 -1 1 0 1 0 0 1 0 1 -1 0 -1 0 0 -1z"/>
<path d="M605 211 l0 -1 1 1 1 0 0 1 0 0 -2 0 -1 0 1 -1z"/>
<path d="M514 210 l-1 -1 1 -1 2 -1 2 2 2 1 -2 -1 -1 0 -1 1 -1 1 -1 -1z"/>
<path d="M509 208 l-1 -1 2 0 2 0 -1 1 0 1 -1 0 -1 0 0 -1z"/>
<path d="M460 206 l0 -1 1 1 1 0 0 1 0 0 -2 0 -1 0 1 -1z"/>
<path d="M964 49 l0 -2 1 1 0 1 0 1 -1 2 0 -3z"/>
</g>
</svg>
