<?xml version="1.0" standalone="no"?>
<!DOCTYPE svg PUBLIC "-//W3C//DTD SVG 20010904//EN"
 "http://www.w3.org/TR/2001/REC-SVG-20010904/DTD/svg10.dtd">
<svg style="fill: black; stroke: black;" version="1.0" xmlns="http://www.w3.org/2000/svg"
 width="640.500000pt" height="803.118491pt" viewBox="0 0 640.500000 803.118491"
 preserveAspectRatio="xMidYMid meet">
<metadata>
Created by potrace 1.16, written by Peter Selinger 2001-2019
</metadata>
<g transform="translate(-204.000000,890.118491) scale(1.000000,-1.000000)"
fill="#000000" data-original="#000000" stroke="none">
<path d="M465 889 l1 -1 1 0 0 1 -2 0 -1 1 1 -1z"/>
<path d="M481 886 l2 -3 1 0 0 0 -2 3 -2 2 -1 0 0 0 2 -2z"/>
<path d="M487 882 l0 -2 -1 0 -1 0 -1 0 -1 0 0 -2 0 -2 1 0 1 0 2 -4 1 -3 1
-3 1 -2 0 -2 0 -1 3 -4 2 -5 0 -2 -1 -2 -1 -3 0 -3 -1 -1 -1 0 0 -3 0 -2 1 -2
2 -2 -1 -3 -1 -3 -1 -1 -1 -1 -1 2 -2 2 0 -1 0 -1 -3 -1 -3 0 -1 0 0 -1 0 -6
0 -6 -1 0 -1 0 -1 -3 -1 -2 -1 2 -1 3 -1 -3 -1 -2 -3 0 -2 0 0 -3 0 -3 -2 -2
-1 -2 -3 0 -3 0 -3 -3 -4 -3 -1 1 -2 0 -4 -4 -4 -4 0 -1 0 -2 -3 -2 -2 -3 1
-1 0 -1 -1 0 -1 0 0 0 -1 0 -2 -2 -2 -2 -1 0 -1 0 0 2 1 1 -1 0 -1 0 -1 -2 0
-2 -4 -1 -3 -2 -7 0 -7 0 -3 -1 -2 -1 -8 -8 -8 -8 0 -1 0 -2 -1 -1 -2 -1 0 -2
-1 -3 -5 -3 -6 -3 0 -1 0 -1 -2 -4 -3 -3 0 -3 0 -2 3 -2 2 -1 0 -1 0 -1 -12
-8 -12 -8 -1 1 0 1 -2 0 -1 0 0 -1 0 0 1 -2 1 -2 -3 -3 -2 -3 -7 -5 -7 -6 -3
-3 -3 -3 -1 0 -1 0 0 1 0 2 -3 2 -4 2 -1 0 0 0 -3 -3 -4 -3 -7 -1 -7 0 -3 -2
-3 -1 -5 -6 -5 -5 -3 -5 -2 -4 -5 -6 -6 -5 -2 -8 -3 -9 0 -5 1 -4 3 -3 2 -2
-3 -5 -2 -4 -2 -2 -1 -1 -2 -8 -3 -7 0 -1 1 0 1 3 1 4 5 8 4 8 2 2 2 2 0 -1 1
0 -3 -5 -2 -5 -2 -3 -2 -2 0 -3 -1 -2 2 1 1 0 0 -1 0 -1 -3 -7 -3 -7 -3 0 -3
0 0 -2 0 -1 2 -2 1 -2 -1 -1 -1 -1 -1 -5 -1 -4 -1 -5 -1 -5 1 1 1 1 1 7 2 7 1
1 1 2 1 0 0 -1 -2 -10 -3 -10 -2 -10 -2 -10 0 -6 -1 -6 -1 0 0 1 1 13 2 13 0
1 0 2 -2 -7 -1 -6 -1 -15 -1 -14 -1 -4 -1 -4 0 13 1 13 -1 0 -1 0 -1 -2 0 -2
0 -16 0 -16 -2 -3 -2 -3 -1 -5 -1 -4 1 -4 1 -3 -1 -5 -2 -5 0 -3 0 -3 1 -3 2
-2 1 -2 0 -1 2 -4 1 -3 1 -10 1 -9 0 -3 1 -2 -1 -2 -1 -2 0 -3 1 -4 2 -2 2 -1
1 -3 1 -2 0 -2 1 -2 -4 -2 -3 -2 0 -4 1 -3 3 -2 3 -1 1 -1 2 -1 0 -2 0 -2 1
-3 1 -2 -1 -2 -1 -2 1 -1 2 -1 1 -1 1 -2 4 1 4 0 1 1 1 1 8 -13 7 -12 5 -7 4
-7 7 -8 6 -7 17 -18 18 -17 8 -6 9 -7 8 -5 8 -5 1 0 1 1 0 -1 1 -1 7 -5 8 -5
1 0 1 -1 -1 2 0 2 3 -4 3 -3 2 -1 3 0 4 -2 4 -2 2 -1 2 -1 2 -2 3 -1 4 -1 4
-1 1 -2 0 -2 3 0 2 -1 2 -1 1 -1 -1 -2 -2 -2 -1 -6 -2 -6 0 -1 1 -1 0 -4 1 -3
1 -4 0 -4 0 -3 0 -3 0 -3 -1 -2 4 -7 4 -6 2 -2 2 -1 3 -2 2 -1 2 0 2 0 1 -2 2
-2 3 -2 3 -2 1 1 1 0 7 -1 8 0 1 -4 1 -3 2 -2 3 -1 5 0 4 0 2 -1 2 -1 2 2 1 2
3 0 4 0 0 -1 1 -1 1 1 2 2 2 -2 1 -3 2 0 1 0 1 -2 0 -2 -1 -2 -1 -1 0 -1 1 -1
-3 -2 -3 -2 0 -1 0 -1 -3 -3 -2 -2 0 -2 1 -1 0 0 1 0 2 0 2 0 1 3 1 3 1 0 2 0
0 0 1 0 3 3 2 3 1 -1 1 0 0 1 0 2 1 0 1 1 0 5 0 5 0 3 0 4 -3 2 -2 2 0 1 0 1
-3 2 -2 2 2 2 2 1 -2 0 -1 -1 0 1 0 1 -3 -1 -2 0 0 2 1 2 -3 3 -3 3 0 1 0 1
-3 0 -2 0 -1 1 0 2 2 3 3 2 2 1 2 1 0 2 0 3 3 2 4 3 0 1 0 1 2 1 3 2 5 0 5 1
2 -2 2 -3 3 0 4 0 5 0 6 0 2 1 1 1 0 2 -1 1 2 1 2 2 0 0 1 0 3 2 4 3 1 0 1 0
1 2 1 3 0 1 -1 1 5 4 4 5 1 0 0 0 3 3 3 3 1 1 1 2 -1 0 -2 0 -4 -4 -4 -4 -2
-1 -2 0 0 -1 0 -1 -4 -1 -4 -2 -9 0 -9 0 -5 -1 -5 -1 -2 1 -3 2 -1 3 -1 3 -1
0 0 1 0 2 -1 2 -2 3 -1 3 -1 0 -1 1 -1 2 0 3 -1 -1 -1 0 0 2 0 2 -2 2 -1 1 2
0 2 0 0 0 1 0 0 0 0 1 -1 2 -1 3 -1 0 -1 -1 0 1 -1 1 1 0 1 1 0 1 0 2 -2 0 -1
1 -2 -1 -1 -2 0 0 -1 0 1 1 1 2 -1 2 0 3 1 0 1 0 0 2 0 2 -1 -2 0 -1 -2 -1 -2
-1 1 2 1 2 -1 0 -1 1 1 4 0 4 -1 0 -1 1 1 2 0 3 2 -2 1 -1 0 0 0 1 -1 2 -1 2
2 0 2 0 0 -1 1 0 -1 1 0 1 1 1 0 2 1 -1 1 0 0 -1 -1 -1 2 0 1 0 0 1 0 1 1 0 1
0 0 -1 0 -2 1 0 1 0 0 3 0 3 0 2 1 2 1 -1 2 0 0 1 0 1 -1 1 -2 1 0 -1 -1 -1 0
1 1 1 3 1 3 0 1 -1 0 -1 0 -1 -1 0 -1 1 -1 1 0 -5 1 -6 1 1 1 1 -1 3 -1 2 1 1
2 1 0 2 0 1 1 0 1 0 0 -2 -1 -2 1 0 1 0 0 1 -1 0 1 2 1 1 0 0 -1 0 1 2 1 1 -1
0 -1 0 -1 -1 -1 -1 0 0 -1 1 2 1 2 2 1 -1 2 -1 3 0 3 0 1 1 0 2 -1 0 -1 -1 0
1 0 2 1 0 1 -1 0 2 0 1 -2 0 -1 -1 0 1 0 1 2 0 1 1 1 -1 1 0 0 0 0 1 -2 2 -2
2 0 -1 -1 0 1 1 0 2 1 0 0 0 2 -2 1 -1 1 1 1 1 2 -1 3 -1 -2 0 -1 0 1 -1 0 -1
-1 0 -2 0 0 -1 -1 0 0 -4 -1 -3 2 3 1 3 1 1 0 0 1 -1 1 -1 0 1 -1 1 3 3 2 2 2
0 1 0 0 2 0 2 -1 -1 -2 -2 -1 1 -1 0 0 -1 1 -1 -1 1 -1 1 2 2 2 2 0 4 0 5 1 0
1 0 0 -1 1 0 -1 -4 -1 -4 1 1 1 1 0 3 1 3 0 1 0 2 1 -2 1 -1 1 2 0 2 2 -1 2
-1 0 1 0 1 0 1 1 2 1 -1 1 0 1 0 2 0 -2 -1 -1 -1 -1 -1 0 -1 -1 -2 0 -2 0 0 1
0 2 2 1 1 -1 2 -1 1 2 0 2 0 0 3 0 3 0 1 1 0 -1 2 -1 1 -1 3 0 3 1 0 1 -1 1
-1 0 -2 1 -1 1 -1 0 -1 -1 -1 2 1 1 0 0 2 -1 1 1 0 1 0 -1 2 0 3 1 0 1 0 0 -1
1 -1 1 0 0 1 -1 2 -2 2 1 0 1 0 0 1 0 1 -1 0 -2 0 1 2 0 2 1 0 1 0 0 -2 -1 -1
1 1 1 0 -1 2 0 2 2 0 2 -1 0 3 -1 3 2 1 2 0 0 2 0 2 2 0 2 1 0 1 0 1 -1 0 -1
0 1 1 2 2 0 0 1 0 0 -1 -1 -1 1 0 1 0 -1 -2 -1 -2 0 -1 1 0 1 2 0 2 2 0 3 0 0
0 1 0 -1 1 0 1 -1 0 -2 -1 -1 2 -1 1 2 1 2 1 0 -1 0 -2 1 0 1 0 0 2 -1 2 1 -1
1 0 0 -1 0 -2 1 -1 1 0 0 1 -1 2 1 0 2 0 2 0 2 0 0 1 -1 1 -1 -1 -2 0 0 1 -1
1 2 1 2 0 2 2 1 2 0 -2 -1 -1 2 0 1 -1 0 -1 -1 -1 1 0 1 0 0 1 0 0 -1 2 -1 3
-1 0 -1 1 0 0 1 0 2 -1 2 -1 3 0 4 -1 -1 3 0 3 1 0 1 0 -1 2 0 2 2 2 1 2 2 0
1 0 0 2 0 3 3 2 2 2 0 2 -1 2 2 1 1 2 1 0 1 -1 1 1 2 0 1 4 0 3 2 -2 3 -2 0 1
1 0 -2 3 -2 3 1 0 2 0 -1 2 0 1 1 2 2 2 0 2 1 3 -2 4 -1 4 1 2 2 2 0 4 0 4 1
3 0 4 4 4 3 4 2 6 1 5 0 7 0 7 -3 7 -2 7 -1 4 -1 5 -3 3 -2 2 -2 0 -1 0 -2 2
-2 3 -4 4 -4 5 -14 7 -14 7 -1 -1 -1 0 -2 1 -3 1 0 2 0 1 -1 1 -2 1 -5 1 -4 0
-2 1 -2 0 0 1 0 1 -2 0 -1 0 -1 3 -1 3 -2 -2 -1 -2 1 -1 0 -1 -2 -1 -2 0 -1 1
-1 1 2 0 2 -1 0 1 0 1 -4 2 -4 2 -4 3 -3 3 2 0 3 0 -3 3 -3 4 -1 -1 -1 -1 -1
1 -2 1 0 -1 0 -2 2 -2 1 -2 4 -5 4 -4 0 0 -1 0 -3 2 -2 3 -3 4 -3 4 0 1 0 1
-1 0 -1 1 0 10 0 10 0 0 1 0 0 1 -1 1 1 0 1 0 1 2 1 2 -1 0 -1 -1 2 5 2 5 3 2
2 3 0 2 0 2 1 0 1 0 2 2 2 1 -1 2 0 2 -2 0 -2 0 6 7 7 7 0 0 0 1 -5 -3 -4 -2
-4 -3 -3 -3 2 3 2 3 0 1 -1 0 2 2 2 1 0 1 0 1 -5 -3 -4 -3 -4 -4 -3 -4 -3 -6
-4 -5 -1 2 0 2 -2 0 -2 0 0 -1 0 -1 -2 0 -2 0 -3 -3 -3 -2 -3 0 -2 0 -3 -4 -2
-3 0 -3 1 -4 -2 -2 -1 -3 -2 -1 -2 0 -1 -4 0 -3 -2 -6 -1 -5 -2 -3 -1 -2 -1
-4 -1 -3 0 -5 0 -5 2 -3 3 -2 4 -7 5 -7 -1 -4 0 -4 2 -3 3 -4 -1 -2 -1 -1 -1
-5 0 -5 -1 -1 -1 0 0 -2 0 -2 -2 -2 -2 -2 -1 1 -1 0 0 -1 1 -1 -6 0 -6 -1 -2
1 -2 1 -1 0 -1 0 0 1 0 1 -1 0 -2 0 0 1 0 1 -2 0 -2 0 -2 1 -1 2 -2 0 -2 0 0
1 0 2 -2 0 -1 1 -4 2 -3 2 -4 0 -3 0 -5 -1 -4 -2 1 0 0 -1 0 -1 -1 -2 -2 1 -2
1 1 -2 0 -1 -1 0 -1 1 -1 -3 -2 -2 -3 2 -2 2 -3 2 -3 3 -2 5 -3 5 -1 0 0 0 3
-5 2 -5 5 -6 4 -5 -1 0 -1 0 -7 7 -6 7 -2 2 -2 2 -2 3 -3 4 2 2 1 3 2 1 1 1
-2 2 -2 2 -3 -1 -3 0 -1 3 -2 3 0 0 1 0 -1 3 -1 3 -1 0 -1 0 -2 2 -2 2 0 1 0
1 1 0 2 0 2 3 1 2 2 0 1 0 1 3 2 4 -1 4 -1 4 1 2 1 2 -1 2 0 3 -2 1 -2 0 -1
-1 -1 -1 0 -1 -1 -1 -5 2 -6 3 -1 1 0 2 -2 1 -2 1 -3 -1 -2 0 0 1 0 1 1 1 1 1
0 3 -1 4 -2 0 -2 1 0 2 1 3 -2 0 -2 0 1 1 0 1 -1 0 -1 0 -2 -1 -1 -1 1 0 1 0
0 -1 0 -1 -2 0 -2 0 1 -1 1 0 0 -2 0 -1 -2 0 -2 1 -2 -1 -2 -1 -1 2 -2 1 1 2
0 1 -1 0 -1 -1 0 1 0 2 -2 1 -2 1 0 3 -1 3 -2 0 -1 0 0 3 0 4 1 1 1 0 0 -1 0
-1 1 0 1 0 0 1 0 2 4 6 4 6 -1 -2 -1 -1 -2 0 -1 0 0 2 0 2 3 2 3 3 2 1 3 2 2
0 3 1 1 -1 0 -1 3 0 4 0 2 2 1 2 6 3 6 3 2 1 2 1 1 2 0 1 -1 3 -2 2 1 1 1 0 0
2 -1 1 3 4 3 4 2 0 2 0 2 3 2 4 0 2 0 3 -2 0 -1 -1 -1 -4 0 -4 -1 1 -1 0 -1
-1 0 -2 -3 0 -2 0 1 2 1 2 -1 0 -1 1 3 1 3 2 3 4 4 3 2 1 3 0 1 2 1 1 7 2 8 3
1 0 1 0 3 -2 2 -2 2 2 2 2 3 -1 3 -1 2 2 2 1 6 -6 6 -5 4 -3 4 -2 4 0 5 -1 3
-2 4 -2 3 0 4 0 3 2 3 3 4 0 4 1 6 2 7 2 1 1 1 1 1 5 1 5 1 0 1 0 1 3 1 3 0 2
0 2 0 2 -1 2 1 2 2 2 0 6 0 5 2 1 2 2 1 0 2 0 3 3 3 3 0 2 1 2 -2 4 -2 3 1 2
1 2 2 1 2 1 0 4 0 5 5 2 6 3 1 4 2 5 -2 3 -2 3 -2 1 -1 1 -4 0 -3 0 -5 5 -5 4
-3 0 -2 0 -2 1 -1 2 0 -3 0 -3 -1 0 0 0 -2 1 -1 1 -2 -1 -1 -1 -4 0 -3 0 -1 2
-2 2 -1 -1 -1 0 0 2 0 3 -1 1 -1 0 0 4 0 4 2 3 2 3 1 3 0 3 -3 2 -3 3 0 3 0 3
-1 2 -1 1 -1 4 0 4 -2 3 -2 3 1 5 1 6 1 3 0 3 -1 0 -1 0 1 4 0 4 -1 1 -2 2 -2
1 -3 0 -2 2 -2 1 -2 5 -2 5 -3 1 -2 1 -3 2 -2 2 1 -2z m-152 -199 l-1 -2 -2 0
-1 0 2 2 2 3 1 -1 1 0 -2 -2z m-9 -7 l-4 -4 -1 0 0 1 4 4 4 4 1 -1 0 0 -4 -4z
m227 -59 l-2 -3 -1 0 0 0 2 3 2 3 1 0 0 0 -2 -3z m-193 -2 l0 -1 -2 -2 -2 -2
0 0 0 1 1 2 1 3 1 0 1 0 0 -1z m196 0 l0 -1 -2 -1 -1 -1 1 1 1 2 1 0 0 0 0 0z
m-297 -16 l-1 -2 -1 0 0 0 1 2 1 2 1 0 0 0 -1 -2z m-7 -21 l-2 -3 0 0 0 1 2 4
1 3 1 -1 0 -1 -2 -3z m292 -8 l0 -3 -1 -1 0 0 0 4 0 4 1 0 1 0 -1 -4z m7 -18
l1 -2 -2 2 -2 2 0 1 0 2 1 -2 1 -1 1 -2z m33 -15 l2 -1 -3 0 -3 0 0 1 0 1 1 0
2 0 1 -1z m-54 -55 l0 -2 -1 -1 -1 -1 -2 0 -1 0 0 3 0 3 1 0 0 1 2 -1 2 0 0
-2z m7 -5 l-1 -1 0 1 0 2 1 0 0 -1 0 -1z m-7 -4 l-1 -1 1 3 0 3 1 -2 0 -2 -1
-1z m4 -4 l-1 -2 -1 0 0 1 1 2 1 2 1 0 0 -1 -1 -2z m-12 -2 l1 -1 -1 -1 0 -2
-3 -2 -3 -1 -2 0 -1 0 -2 2 -1 1 1 1 2 1 3 0 3 0 0 2 1 1 1 0 1 0 0 -1z m-274
-93 l0 -2 -2 4 -2 4 0 1 0 1 2 -3 2 -3 0 -2z m-1 -8 l0 -1 -1 2 -1 2 0 1 0 1
1 -2 1 -1 0 -2z m5 -4 l2 -4 -1 0 -1 0 -2 3 -1 4 0 1 0 1 1 -1 1 0 1 -4z m11
-17 l3 -5 0 -2 -1 -1 1 0 1 1 3 -6 4 -5 0 -1 -1 0 3 -3 2 -2 1 -3 1 -2 1 0 1
0 0 2 -1 2 7 -7 6 -7 8 -10 9 -10 1 -3 2 -2 -1 0 0 0 -3 2 -2 2 0 -1 0 -1 1
-1 1 -1 -3 4 -3 3 -4 3 -4 4 1 -3 1 -2 2 -1 2 -2 1 -2 1 -2 -3 2 -3 3 -6 6 -5
6 -4 4 -3 5 0 2 0 2 -1 0 -1 0 -5 8 -6 8 -5 10 -5 10 -1 0 -1 1 0 1 0 1 2 0 2
-1 4 -6z m313 -3 l0 -1 -2 -5 -2 -4 -1 0 0 1 1 1 1 2 0 1 0 1 1 2 0 2 1 0 1 0
0 0z m-5 -2 l1 -1 -1 1 -2 0 0 1 0 0 1 0 1 0 0 -1z m2 -15 l-1 -1 0 0 0 1 1 1
0 2 1 0 0 -1 -1 -2z m-12 -3 l2 -1 -2 0 -2 0 0 1 -1 1 1 0 1 0 1 -1z m7 -4 l1
-3 -1 0 -1 0 0 2 0 1 -1 0 -2 -1 -1 2 -1 1 1 0 1 1 0 -1 1 -1 1 1 0 2 0 0 1 0
1 -4z m-23 -2 l0 -1 -1 0 -1 0 0 2 0 2 1 -1 1 0 0 -2z m15 2 l2 0 0 -2 0 -2
-1 1 -2 0 1 1 0 2 -2 0 -1 1 1 0 1 0 1 -1z m-12 -4 l0 -2 -2 0 -2 0 0 1 0 1 2
-1 1 0 0 1 0 1 1 0 0 0 0 -1z m8 -2 l-1 -1 -1 1 0 0 1 1 2 1 0 0 0 0 -1 -2z
m-9 -5 l-1 -2 -1 0 0 0 1 2 1 2 1 0 0 0 -1 -2z m1 -7 l0 -2 -1 2 -1 2 0 1 0 1
1 0 1 -1 0 -3z m-15 -13 l-1 -5 -2 1 -2 0 1 2 0 1 1 -1 1 -1 1 4 1 4 0 0 1 -1
-1 -4z m4 3 l0 -1 0 0 -1 0 0 1 -1 1 1 0 1 0 0 -1z m-14 -10 l1 -1 -1 0 -1 -1
0 1 0 2 0 0 1 0 0 -1z m-21 -31 l-1 -1 -1 0 -1 0 1 1 2 1 0 0 0 0 0 -1z m3 -8
l0 -1 -1 0 -1 -1 0 1 0 1 1 0 1 0 0 0z m4 -6 l-1 -2 -1 0 -1 0 1 1 1 0 0 2 0
1 1 0 0 -1 0 -1z m2 -7 l0 -1 -1 0 -1 1 -1 1 0 1 1 -1 2 0 0 -1z"/>
<path d="M432 784 l-1 -1 1 0 1 0 0 1 1 1 -1 0 -1 1 0 -2z"/>
<path d="M575 633 l-1 -1 0 0 1 -1 1 1 2 1 -1 0 -1 1 -1 -1z"/>
<path d="M579 621 l-3 -2 3 0 3 0 2 2 3 2 -3 0 -2 0 -3 -2z"/>
<path d="M570 615 l-2 -2 1 0 1 0 2 2 1 2 0 0 -1 0 -2 -2z"/>
<path d="M765 589 l-1 -1 1 0 1 -1 0 1 1 0 0 1 0 1 -1 0 -1 0 0 -1z"/>
<path d="M224 563 l-1 0 0 -1 0 -1 2 0 1 0 0 2 0 1 -1 0 -1 0 0 -1z"/>
<path d="M236 556 l-1 -2 -3 0 -3 1 -1 -1 -1 -2 0 -2 1 -1 -2 -2 -1 -1 0 -2 0
-1 1 1 1 0 1 -1 2 -2 3 3 3 3 1 6 2 6 -1 0 0 0 -2 -3z"/>
<path d="M237 538 l0 -1 1 1 0 1 0 1 -1 0 0 -2z"/>
<path d="M230 529 l0 -2 1 2 1 2 0 0 0 1 -1 0 -1 0 0 -3z"/>
<path d="M229 521 l0 -5 1 0 1 0 0 4 0 5 -1 1 -1 0 0 -5z"/>
<path d="M205 500 l-1 -1 0 -2 0 -2 1 0 1 -1 2 1 2 1 0 2 0 2 -2 0 -1 1 0 0
-1 0 -1 -1z"/>
<path d="M628 381 l-1 -1 1 0 1 0 0 1 0 1 0 0 -1 0 0 -1z"/>
<path d="M614 362 l-1 -1 1 -2 0 -2 1 1 1 2 -1 2 -1 1 0 -1z"/>
<path d="M603 356 l-1 0 0 -2 0 -1 1 1 1 1 0 1 -1 1 0 -1z"/>
<path d="M597 350 l-1 -1 1 0 1 0 0 1 0 1 0 0 -1 0 0 -1z"/>
<path d="M586 347 l0 -1 1 0 1 0 0 1 0 1 -1 0 -1 0 0 -1z"/>
<path d="M592 346 l0 -1 1 0 1 0 0 1 0 1 -1 0 -1 0 0 -1z"/>
<path d="M585 343 l0 -1 1 1 1 0 -1 1 0 1 -1 0 0 0 0 -2z"/>
<path d="M584 338 l0 -1 1 0 0 0 0 1 0 1 -1 0 -1 0 1 -1z"/>
<path d="M580 337 l0 -1 1 -1 1 -1 0 2 0 2 -1 0 0 0 -1 -1z"/>
<path d="M583 332 l2 -2 -2 -1 -1 -1 0 -1 1 0 1 1 2 0 0 2 -1 1 -2 1 -1 1 1
-1z"/>
<path d="M579 330 l0 -1 1 0 1 0 0 1 1 1 -2 0 -1 1 0 -2z"/>
<path d="M591 331 l0 -1 1 1 1 0 0 1 0 0 -1 0 -1 0 0 -1z"/>
<path d="M594 329 l0 -1 0 -1 1 0 1 0 1 1 0 1 0 1 -1 0 -1 0 -1 -1z"/>
<path d="M578 322 l0 -1 1 0 0 0 0 1 0 1 -1 0 -1 0 1 -1z"/>
<path d="M583 318 l-1 -1 1 0 1 0 0 1 0 1 0 0 -1 0 0 -1z"/>
<path d="M572 316 l-1 -2 0 -1 1 -1 1 2 0 2 2 -1 1 0 0 1 -1 1 -1 0 -1 0 -1
-1z"/>
<path d="M580 312 l-1 -1 0 -2 0 -2 1 0 0 1 1 3 0 3 0 0 -1 0 0 -2z"/>
<path d="M582 312 l0 -2 2 0 1 0 -1 2 -1 1 -1 0 0 0 0 -1z"/>
<path d="M560 308 l-2 -1 -1 -2 -1 -2 1 0 1 0 0 2 0 1 3 1 2 1 0 0 0 1 0 0 0
0 -3 -1z"/>
<path d="M573 307 l0 -1 2 -1 1 -1 0 1 0 1 -1 1 -2 1 0 -1z"/>
<path d="M581 307 l0 -1 1 0 1 -1 0 1 0 1 -1 1 -1 0 0 -1z"/>
<path d="M561 304 l-1 -1 1 0 1 0 1 1 0 1 0 0 0 0 -2 -1z"/>
<path d="M564 302 l0 -2 1 0 1 0 0 2 0 2 -1 0 -1 0 0 -2z"/>
<path d="M626 303 l0 -1 1 0 0 0 0 1 0 1 -1 0 -1 0 1 -1z"/>
<path d="M578 302 l-1 -1 1 0 1 -1 0 2 1 1 0 0 0 0 -2 -1z"/>
<path d="M556 299 l0 -2 2 0 1 -1 0 -1 0 -1 -1 1 -1 1 0 0 -1 -1 1 -1 2 -1 1
1 0 2 1 -1 1 0 -1 2 0 2 0 0 0 1 -1 -2 -1 -1 -1 0 -1 1 1 1 0 1 -1 0 -1 0 0
-1z"/>
<path d="M565 294 l0 -1 2 0 1 0 0 1 0 1 -2 0 -2 0 1 -1z"/>
<path d="M564 289 l0 -1 1 1 1 0 -1 1 0 1 -1 0 0 0 0 -2z"/>
<path d="M546 285 l-1 -1 1 0 1 0 0 1 0 1 0 0 -1 0 0 -1z"/>
<path d="M541 280 l0 -1 1 0 1 0 0 1 -1 1 -1 0 0 0 0 -1z"/>
<path d="M531 278 l-1 0 0 -1 0 -1 2 1 2 0 1 0 2 0 -1 1 -1 1 -1 0 -1 0 -2 -1z"/>
<path d="M533 275 l0 -1 1 1 1 0 0 1 0 0 -1 0 -1 0 0 -1z"/>
<path d="M518 270 l0 -1 1 0 2 0 -2 -1 -2 -1 1 0 1 0 0 -1 0 -1 -1 1 -1 0 0
-1 0 -1 1 -1 1 0 0 0 1 1 0 3 1 4 -2 0 -2 1 1 -2z"/>
<path d="M525 270 l-1 -1 1 -1 1 0 0 1 0 1 2 0 2 1 -3 0 -2 1 0 -2z"/>
<path d="M541 267 l0 -2 1 0 0 1 -1 1 -1 2 1 -2z"/>
<path d="M322 257 l0 -2 2 0 1 0 0 2 0 1 -1 0 -2 0 0 -1z"/>
<path d="M545 249 l0 -1 1 0 1 0 0 1 -1 1 -1 0 -1 0 1 -1z"/>
<path d="M509 248 l0 -1 2 0 3 1 0 0 0 1 -2 0 -3 0 0 -1z"/>
<path d="M510 242 l0 -1 1 -1 1 0 0 -2 0 -1 0 -2 0 -2 1 0 0 1 1 3 0 3 -2 0
-1 1 0 1 1 1 0 0 -1 0 -1 -1z"/>
<path d="M513 242 l0 -1 1 0 1 0 0 1 0 1 -1 0 -1 0 0 -1z"/>
<path d="M508 241 l0 -2 1 0 0 1 -1 1 -1 2 1 -2z"/>
<path d="M355 225 l0 -1 1 0 1 1 1 1 0 1 -1 0 -2 0 0 -2z"/>
<path d="M385 210 l0 -1 1 0 1 0 0 1 -1 1 -1 0 0 0 0 -1z"/>
<path d="M823 131 l-1 -2 0 -1 1 0 1 2 1 1 0 1 -1 0 -1 -1z"/>
<path d="M821 114 l0 -2 0 -1 0 0 1 1 1 2 0 1 0 1 -1 0 -2 0 1 -2z"/>
<path d="M804 113 l-2 -3 0 0 1 -1 3 1 3 1 -3 0 -2 0 2 2 1 2 0 0 -1 0 -2 -2z"/>
<path d="M815 110 l-2 -2 0 0 1 -1 2 3 3 2 -1 0 -1 0 -2 -2z"/>
<path d="M834 111 l-1 -1 1 0 1 0 1 1 0 1 -1 0 -1 0 0 -1z"/>
<path d="M827 110 l-1 -1 2 0 3 0 0 0 0 1 -1 0 -2 1 -1 -1z"/>
<path d="M840 109 l-1 -3 1 -1 1 -1 2 1 2 1 -2 0 -2 0 0 3 -1 3 0 -3z"/>
<path d="M821 108 l0 -1 1 0 1 0 1 1 1 1 -2 0 -2 0 0 -1z"/>
<path d="M772 98 l-1 -1 1 1 2 1 0 1 0 0 0 0 -1 0 -1 -2z"/>
<path d="M494 93 l-1 -2 1 0 1 0 0 2 0 1 0 0 -1 0 0 -1z"/>
<path d="M803 91 l1 0 1 0 2 1 -3 0 -2 0 1 -1z"/>
<path d="M490 88 l0 -1 2 0 3 0 0 1 1 1 -3 0 -3 0 0 -1z"/>
</g>
</svg>
