<?xml version="1.0" standalone="no"?>
<!DOCTYPE svg PUBLIC "-//W3C//DTD SVG 20010904//EN"
 "http://www.w3.org/TR/2001/REC-SVG-20010904/DTD/svg10.dtd">
<svg version="1.0" xmlns="http://www.w3.org/2000/svg"
 width="1024.010616pt" height="1024.105751pt" viewBox="0 0 1024.010616 1024.105751"
 preserveAspectRatio="xMidYMid meet">
<metadata>
Created by potrace 1.16, written by Peter Selinger 2001-2019
</metadata>
<g transform="translate(0.000000,1024.105751) scale(0.100000,-0.100000)"
fill="#000000" stroke="none">
<path d="M0 9161 c0 -690 4 -1082 10 -1086 12 -7 14 -45 3 -45 -5 0 -8 -13 -9
-30 -1 -16 2 -27 6 -25 15 9 18 -36 4 -49 -12 -13 -14 -578 -14 -3970 l0
-3956 5120 0 5120 0 -4 3667 c-2 2018 -5 3684 -6 3703 -2 19 0 70 4 112 4 55
3 84 -6 98 -10 15 -10 22 0 32 9 9 12 301 12 1321 l0 1308 -1972 -3 c-1362 -2
-1972 -6 -1975 -13 -2 -6 -20 -10 -41 -8 -20 2 -31 0 -24 -3 18 -8 15 -51 -5
-63 -16 -9 -16 -10 3 -11 12 0 26 10 32 23 11 20 12 19 6 -10 -3 -17 -1 -34 4
-37 5 -3 8 -18 7 -33 -1 -15 -3 -38 -3 -50 -2 -20 -8 -23 -43 -23 -39 0 -41
-2 -35 -24 3 -14 2 -28 -4 -31 -6 -4 -5 -12 4 -21 21 -21 29 -17 23 12 -5 29
10 39 47 30 18 -4 26 -17 35 -50 14 -57 14 -66 -1 -66 -7 0 -20 -5 -28 -10
-13 -8 -13 -11 3 -22 15 -12 16 -20 6 -78 -9 -48 -9 -65 0 -68 6 -2 11 -25 11
-52 0 -52 7 -80 20 -80 5 0 11 12 13 28 2 16 4 10 4 -15 0 -48 -16 -56 -41
-21 -9 12 -18 19 -21 16 -3 -3 8 -21 24 -39 22 -24 27 -35 18 -41 -9 -6 -9 -8
1 -8 6 0 12 -5 12 -11 0 -6 -8 -8 -18 -5 -13 5 -18 0 -19 -16 -2 -17 0 -19 7
-8 16 26 20 4 5 -27 -8 -16 -17 -55 -20 -85 -2 -30 -9 -68 -16 -84 -12 -32
-16 -160 -6 -171 4 -3 14 2 22 13 8 10 15 14 15 7 0 -6 -7 -19 -16 -28 -17
-17 -13 -27 10 -31 9 -1 12 5 9 17 -4 13 0 19 13 20 30 2 49 -2 55 -13 4 -6 9
-5 12 3 4 12 7 12 18 1 9 -8 10 -15 4 -20 -13 -9 -19 -52 -7 -52 6 0 10 -15
11 -32 0 -18 2 -42 3 -53 2 -14 -4 -21 -18 -23 -17 -2 -23 -12 -26 -40 -5 -36
4 -52 30 -52 6 0 12 7 12 15 0 11 11 15 40 15 41 0 49 -7 29 -27 -9 -9 -8 -16
5 -28 22 -22 20 -35 -5 -35 -18 0 -21 -4 -16 -29 4 -17 2 -31 -4 -33 -6 -2 -7
-12 -3 -22 7 -17 8 -18 20 -2 6 9 10 25 8 34 -2 10 9 27 28 42 18 14 29 20 25
13 -4 -6 -3 -14 3 -18 14 -9 12 -87 -4 -107 -7 -10 -21 -18 -30 -18 -9 0 -15
-6 -14 -12 2 -7 -8 -13 -22 -15 -14 -1 -17 1 -7 3 21 7 24 54 3 54 -8 0 -16 5
-18 11 -2 6 -15 -12 -28 -40 -25 -50 -40 -64 -40 -36 0 8 -4 15 -10 15 -5 0
-10 -7 -10 -15 0 -9 -7 -15 -16 -13 -11 2 -18 -5 -21 -22 -2 -13 -8 -27 -13
-30 -12 -7 -31 -60 -25 -69 2 -5 -7 -13 -20 -19 -14 -7 -25 -16 -25 -22 0 -14
6 -13 25 6 9 9 19 13 23 9 4 -4 1 -10 -6 -12 -7 -3 -17 -14 -23 -25 -9 -18 -9
-18 10 -9 17 10 20 9 15 -4 -4 -8 -12 -15 -19 -15 -7 0 -16 -7 -19 -16 -9 -22
-8 -24 9 -18 8 4 15 1 15 -5 0 -6 5 -11 11 -11 5 0 7 6 3 13 -6 9 -4 9 7 -1
11 -10 6 -19 -30 -53 -23 -23 -40 -47 -37 -54 3 -8 0 -16 -7 -19 -7 -2 -2 -8
11 -11 23 -8 30 -25 10 -25 -9 0 -9 -3 -2 -8 5 -4 11 -25 13 -47 3 -51 18 -59
47 -26 20 22 25 24 34 11 6 -10 10 -11 10 -2 0 25 21 11 27 -19 4 -20 9 -26
14 -18 5 9 10 9 22 -2 9 -10 14 -32 12 -67 -1 -29 2 -55 7 -58 5 -3 6 -14 3
-25 -4 -10 -2 -19 3 -19 6 0 13 -12 16 -26 6 -21 1 -33 -18 -53 -15 -15 -26
-38 -26 -52 0 -19 2 -21 10 -9 8 12 10 12 10 -5 1 -20 1 -20 15 -1 8 10 12 23
8 29 -3 6 -1 7 5 3 7 -4 9 -18 6 -32 -8 -29 1 -31 16 -3 8 14 8 24 1 33 -6 7
-7 24 -3 41 7 24 9 26 15 11 9 -22 27 -11 27 16 0 12 3 18 7 15 7 -8 26 25 42
76 11 33 14 35 42 27 17 -5 36 -7 44 -4 19 8 11 -32 -11 -57 -10 -11 -12 -19
-6 -19 7 0 12 -7 12 -16 0 -8 -4 -13 -9 -10 -5 3 -14 -1 -21 -9 -10 -12 -9
-15 4 -15 22 0 20 -16 -4 -43 -18 -18 -22 -20 -30 -7 -9 14 -11 13 -14 -11 0
-6 -9 -16 -18 -23 -10 -7 -18 -18 -18 -24 0 -6 -10 -17 -22 -23 -13 -6 -34
-21 -48 -34 -35 -31 -59 -38 -67 -19 -8 20 15 35 43 28 13 -3 23 0 27 9 7 18
-55 16 -78 -3 -8 -7 -21 -10 -30 -6 -9 3 -19 -3 -26 -15 -15 -28 -22 -17 -9
13 6 13 24 30 41 37 16 7 26 17 23 22 -3 6 -11 6 -20 -2 -7 -6 -21 -8 -30 -5
-15 6 -15 8 -1 30 16 24 13 36 -8 36 -7 0 -10 -9 -8 -24 5 -23 -15 -36 -57
-36 -13 0 -13 1 0 10 8 5 10 10 4 10 -26 0 -37 -30 -30 -85 4 -32 2 -55 -3
-55 -5 0 -11 -10 -13 -22 -2 -19 -9 -23 -35 -22 -23 1 -33 -3 -33 -13 0 -8 -5
-11 -10 -8 -6 3 -14 -5 -20 -19 -6 -17 -17 -26 -30 -26 -12 0 -19 -4 -16 -9 4
-5 1 -11 -5 -13 -6 -2 10 -15 36 -28 26 -13 54 -34 62 -47 14 -21 16 -21 39
-6 15 9 24 11 24 4 0 -7 6 -8 18 -2 9 5 29 14 45 20 17 7 27 18 27 31 0 11 4
20 10 20 5 0 9 3 8 8 -4 12 62 101 88 118 13 9 35 14 49 12 14 -3 25 -1 25 3
0 5 7 9 15 9 8 0 15 8 15 17 0 13 3 14 12 5 16 -16 28 -15 28 1 0 7 9 23 20
35 l21 22 -21 0 c-11 0 -20 5 -20 10 0 6 7 10 16 10 8 0 22 7 30 15 8 8 20 12
27 9 8 -3 21 11 33 35 12 26 29 44 47 50 16 6 27 17 27 29 0 10 6 27 14 38 8
10 12 29 10 41 -5 18 -2 21 15 16 11 -3 23 -13 26 -22 7 -23 -3 -70 -20 -94
-13 -18 -13 -23 1 -38 9 -10 17 -29 18 -43 0 -14 4 -26 9 -26 4 0 7 -9 7 -20
0 -11 6 -20 13 -20 17 1 47 25 47 39 0 6 10 11 22 11 12 0 33 10 46 23 20 17
24 18 19 5 -3 -10 -2 -20 4 -24 6 -3 13 4 16 16 4 15 10 19 22 14 9 -3 22 -7
28 -7 7 0 15 -9 19 -19 6 -19 24 -25 24 -8 0 6 14 10 30 10 17 0 30 5 30 11 0
6 7 9 15 5 8 -3 15 0 15 7 0 8 3 8 9 -2 7 -11 9 -11 14 0 4 11 7 12 15 1 13
-19 45 -3 39 20 -5 19 4 31 42 58 11 8 21 18 21 23 0 12 26 37 39 37 5 0 9 15
8 34 -1 20 -6 32 -13 29 -19 -7 -25 29 -9 53 9 13 20 24 25 24 6 0 10 6 10 13
0 16 29 44 50 49 8 2 21 10 28 18 7 8 12 11 11 5 -5 -35 2 -45 31 -45 17 0 30
-5 30 -12 0 -9 4 -8 11 2 6 8 12 11 15 5 2 -6 24 -9 49 -7 28 3 45 0 45 -7 0
-6 -8 -11 -19 -11 -10 0 -25 -8 -32 -17 -13 -15 -11 -16 17 -10 18 3 35 3 38
0 13 -14 -59 -67 -119 -88 -12 -4 -15 -9 -8 -12 14 -5 5 -34 -13 -46 -22 -13
-73 -118 -80 -165 -7 -48 -17 -63 -46 -75 -20 -7 -23 -33 -8 -57 7 -11 2 -21
-18 -37 -15 -11 -24 -24 -20 -28 4 -4 19 2 34 14 15 12 30 19 33 15 3 -3 -2
-11 -12 -18 -9 -7 -17 -18 -17 -24 0 -6 -6 -12 -12 -15 -7 -2 -3 -2 9 -1 12 2
24 0 27 -5 3 -5 16 -7 28 -3 13 3 19 1 15 -5 -3 -5 0 -10 8 -10 8 0 15 4 15
10 0 5 5 7 11 5 7 -2 24 9 40 24 15 15 36 28 47 28 11 0 25 7 32 15 17 20 30
19 30 -2 -1 -25 -35 -63 -56 -63 -14 0 -15 -3 -6 -12 18 -18 15 -36 -12 -64
-15 -17 -26 -22 -30 -15 -12 19 -23 12 -29 -18 -4 -18 -14 -31 -29 -35 -14 -5
-18 -9 -10 -13 49 -20 -58 -159 -128 -166 -34 -4 -80 -22 -80 -33 0 -3 5 -14
10 -25 8 -14 7 -19 -1 -19 -20 0 -48 -31 -42 -46 4 -10 -4 -14 -31 -14 -37 0
-47 15 -24 38 6 6 9 15 5 19 -4 4 -13 1 -19 -5 -7 -7 -24 -12 -39 -12 -32 0
-50 -20 -55 -62 -5 -37 -14 -51 -14 -20 0 12 -4 22 -10 22 -5 0 -10 -11 -10
-25 0 -14 -9 -44 -20 -65 -15 -30 -26 -40 -45 -40 -14 0 -26 -7 -30 -19 -3
-11 -12 -22 -20 -25 -8 -3 -15 -12 -15 -20 0 -10 -6 -13 -15 -10 -8 4 -15 1
-15 -5 0 -6 7 -11 15 -11 8 0 15 -4 15 -10 0 -18 29 -10 55 15 14 14 25 32 25
40 0 19 69 85 88 85 10 0 12 4 4 13 -13 16 3 57 23 57 11 0 15 -7 13 -22 -2
-14 -9 -22 -18 -20 -12 3 -12 1 -3 -9 17 -17 39 3 47 41 3 17 10 30 16 30 17
0 40 -26 40 -44 0 -9 5 -16 10 -16 6 0 10 5 10 10 0 16 17 12 24 -6 6 -16 -19
-74 -33 -74 -4 0 -11 -25 -15 -56 -5 -47 -3 -61 11 -77 17 -20 17 -20 -4 -15
-13 4 -23 2 -23 -4 0 -6 13 -8 33 -4 17 3 42 8 55 10 13 3 29 9 37 16 10 8 14
8 18 -2 4 -10 9 -8 17 4 6 10 16 18 23 18 13 0 62 46 102 96 13 17 38 34 54
37 44 9 140 99 142 132 0 11 3 15 5 8 6 -13 44 14 44 31 0 18 72 85 86 79 8
-3 26 9 41 27 14 18 33 38 40 45 7 8 13 30 13 49 0 27 -3 34 -15 30 -22 -9
-18 6 6 27 11 10 18 22 15 27 -3 6 11 23 31 38 20 16 44 36 53 45 26 24 50 31
50 13 0 -9 -5 -12 -12 -8 -8 4 -8 2 1 -7 10 -11 15 -11 18 -1 3 6 17 12 31 12
21 0 24 3 12 10 -20 13 -13 17 48 25 49 6 54 5 50 -11 -2 -13 -11 -18 -26 -16
-12 2 -22 -2 -22 -8 0 -17 31 -24 51 -12 25 16 32 15 25 -3 -3 -10 1 -15 13
-15 19 0 41 -38 41 -70 0 -11 -6 -20 -14 -20 -8 0 -21 -14 -30 -31 -13 -26
-13 -31 0 -36 7 -3 14 -9 14 -15 0 -13 -26 -38 -39 -38 -6 0 -15 -9 -21 -20
-9 -16 -8 -20 7 -21 10 -1 2 -5 -17 -9 -24 -6 -37 -5 -43 3 -5 7 -6 4 -3 -9 8
-28 -39 -57 -55 -34 -8 11 -9 9 -4 -7 5 -17 2 -23 -9 -23 -9 0 -16 -7 -16 -15
0 -9 -6 -18 -14 -21 -8 -3 -12 -13 -9 -25 4 -14 0 -19 -16 -19 -15 0 -21 -6
-21 -22 0 -19 -2 -20 -10 -8 -7 11 -8 7 -4 -15 7 -36 -26 -85 -56 -85 -10 0
-22 -5 -25 -10 -4 -6 -10 -8 -15 -5 -18 11 -40 -9 -50 -46 -6 -21 -14 -39 -19
-39 -5 0 -25 -13 -46 -30 -21 -17 -31 -30 -22 -30 8 0 14 -8 13 -17 -1 -15 6
-17 35 -15 41 3 56 -15 31 -38 -14 -13 -15 -13 -10 0 4 11 -2 15 -26 14 -17
-1 -34 3 -37 9 -8 11 -29 0 -29 -15 0 -6 3 -8 6 -5 4 4 19 0 33 -8 48 -26 102
-36 117 -20 8 7 11 21 8 29 -12 30 5 63 40 80 36 17 86 22 86 8 0 -5 14 -9 30
-9 17 0 30 4 30 9 0 4 10 8 23 8 13 0 29 6 36 13 10 10 12 9 9 -3 -2 -8 3 -14
10 -12 6 1 12 -5 12 -14 0 -10 -6 -14 -14 -11 -10 4 -13 1 -9 -9 7 -18 18 -18
37 1 13 14 16 13 28 -7 7 -13 11 -30 9 -37 -2 -11 1 -12 11 -4 17 13 88 36 94
30 7 -7 -7 -37 -18 -37 -6 0 -7 8 -3 18 5 14 4 15 -7 4 -11 -11 -10 -16 6 -28
17 -12 15 -18 -5 -16 -4 1 -25 -16 -47 -36 -22 -21 -45 -36 -51 -34 -6 2 -11
-3 -11 -11 0 -9 -16 -21 -35 -27 -41 -13 -44 -23 -12 -37 18 -8 30 -5 66 20
24 16 59 31 77 33 19 1 47 12 64 24 16 12 30 17 30 12 0 -5 -11 -14 -25 -20
-37 -17 -32 -33 7 -21 17 5 34 13 37 17 3 5 16 14 29 21 13 7 22 21 22 35 0
18 5 23 23 21 12 -1 14 0 5 2 -26 6 -23 43 3 43 11 0 17 4 14 10 -4 7 2 9 18
5 24 -6 46 9 32 23 -3 3 -10 0 -15 -8 -5 -8 -12 -11 -16 -7 -4 4 0 15 9 25 10
10 17 23 17 28 0 5 -5 2 -11 -6 -8 -11 -10 -12 -7 -1 3 9 21 14 53 15 28 1 56
5 63 9 8 6 12 2 12 -12 0 -12 3 -21 6 -21 13 0 70 36 82 53 7 9 24 17 38 17
13 0 24 5 24 10 0 6 3 9 8 8 4 -1 21 5 37 12 17 8 39 14 49 16 11 1 28 13 39
28 18 26 47 35 47 16 0 -17 38 -11 49 8 10 16 10 16 11 -1 0 -14 6 -11 28 15
15 18 34 41 42 50 8 10 21 18 30 18 8 1 29 12 45 25 l30 25 -21 39 c-18 34
-19 41 -7 46 9 3 13 13 10 24 -2 10 0 26 5 35 9 16 11 16 24 -1 13 -17 13 -17
14 0 0 15 3 15 20 5 24 -15 26 -28 5 -28 -20 0 -19 -12 4 -36 20 -22 12 -54
-14 -54 -22 0 -28 -19 -11 -36 18 -17 21 -34 6 -34 -12 0 -8 -42 5 -53 6 -4
-2 -5 -17 -1 -20 4 -29 2 -34 -9 -3 -8 -13 -13 -23 -10 -11 3 -30 -6 -46 -22
-25 -22 -30 -24 -37 -10 -5 8 -16 15 -25 15 -15 0 -15 -1 -1 -12 19 -16 31
-48 18 -49 -55 -7 -97 -39 -52 -39 13 -1 11 -6 -11 -25 -21 -19 -26 -30 -21
-49 3 -13 1 -27 -5 -30 -6 -4 -11 1 -12 11 0 10 -3 13 -6 6 -2 -7 -13 -13 -24
-13 -11 0 -19 -7 -19 -16 0 -12 -6 -15 -25 -10 -20 5 -25 3 -25 -14 0 -13 -7
-20 -19 -20 -20 0 -31 -19 -31 -55 0 -12 -18 -42 -40 -66 -36 -40 -41 -42 -53
-27 -7 9 -30 19 -50 23 -32 6 -37 5 -36 -11 0 -11 3 -14 6 -6 2 6 9 12 15 12
6 0 6 -6 -2 -15 -7 -8 -19 -15 -27 -15 -8 0 -11 -4 -8 -10 8 -13 -11 -13 -36
0 -14 8 -19 7 -19 -2 0 -10 -2 -10 -8 0 -8 12 -72 6 -72 -7 0 -4 -12 -8 -26
-9 -18 -1 -25 2 -21 11 3 8 -4 14 -19 15 -13 1 -24 -4 -24 -11 -1 -6 -9 -2
-19 10 -18 21 -24 22 -100 16 -45 -3 -84 -9 -86 -13 -2 -4 8 -5 23 -3 l27 4
-27 -15 c-15 -9 -42 -18 -61 -21 -29 -5 -35 -3 -33 11 0 9 -7 18 -18 20 -11 1
-31 5 -45 9 -18 4 -22 3 -12 -4 11 -7 9 -10 -7 -15 -33 -11 -81 -66 -74 -85 3
-9 8 -18 11 -21 14 -12 28 -69 20 -81 -4 -7 -4 -21 2 -30 6 -12 4 -19 -7 -23
-23 -9 -28 -7 -16 7 5 6 6 21 2 32 -6 17 -7 17 -13 -7 -4 -15 -4 -34 -1 -42 3
-9 1 -23 -6 -31 -18 -21 -9 -26 28 -16 30 9 46 -2 20 -12 -7 -3 -3 -6 9 -6 12
-1 25 4 29 11 5 7 10 3 16 -12 5 -12 6 -25 3 -28 -3 -3 -5 0 -5 6 0 13 -58 5
-74 -9 -16 -14 -29 -10 -22 6 3 8 1 15 -4 15 -6 0 -10 -5 -10 -11 0 -6 -6 -9
-12 -6 -7 3 -22 8 -33 12 -16 6 -17 5 -5 -4 13 -9 13 -11 -1 -11 -9 0 -16 -7
-15 -16 0 -11 -12 -21 -33 -29 -19 -6 -37 -17 -39 -23 -2 -7 -10 -12 -17 -12
-7 0 -16 -7 -19 -16 -3 -8 -10 -13 -15 -10 -8 5 -47 -82 -43 -96 1 -4 -16 -17
-39 -28 -31 -17 -38 -24 -30 -34 9 -10 7 -15 -9 -19 -11 -3 -18 -1 -14 4 3 5
1 9 -4 9 -5 0 -15 -13 -22 -30 -7 -16 -19 -31 -26 -31 -8 -1 -18 -2 -23 -3
-12 -2 -61 -62 -61 -75 0 -6 5 -11 10 -11 6 0 10 5 10 10 0 6 6 10 14 10 20 0
66 39 76 65 4 12 14 22 22 22 7 0 23 3 36 7 21 7 22 5 16 -21 -4 -15 -14 -36
-22 -46 -14 -16 -14 -20 -2 -28 11 -8 12 -12 3 -16 -7 -2 -13 -11 -13 -19 0
-8 -5 -14 -10 -14 -6 0 -10 -7 -8 -16 4 -19 -37 -34 -142 -54 -41 -7 -79 -18
-83 -24 -6 -7 -7 -4 -3 7 5 15 -2 17 -53 17 -40 0 -63 -5 -71 -15 -7 -8 -17
-12 -23 -8 -6 4 -8 0 -4 -10 4 -11 1 -17 -9 -17 -8 0 -17 -6 -20 -13 -3 -8
-22 -13 -49 -13 -27 -1 -52 -7 -63 -17 -10 -9 -28 -17 -39 -17 -11 0 -26 -6
-32 -14 -6 -8 -25 -19 -41 -26 -27 -11 -29 -14 -14 -25 16 -11 16 -13 -1 -22
-26 -15 -8 -36 26 -31 18 3 30 -1 34 -10 8 -21 7 -22 -16 -22 -17 0 -20 -5
-16 -21 7 -27 -14 -51 -34 -38 -19 12 -89 11 -89 -1 0 -5 -18 -10 -40 -10 -29
0 -40 -4 -40 -15 0 -8 -4 -15 -10 -15 -5 0 -10 -9 -10 -20 0 -11 -4 -20 -10
-20 -5 0 -10 -9 -10 -20 0 -11 5 -20 10 -20 6 0 10 -4 10 -8 0 -4 -33 -14 -74
-21 -56 -10 -73 -17 -69 -27 3 -9 -2 -14 -13 -14 -14 0 -16 -2 -6 -9 7 -4 44
-6 83 -4 67 3 87 -6 53 -25 -9 -5 -26 -8 -38 -6 -12 3 -15 2 -9 -2 20 -9 15
-24 -7 -24 -11 0 -20 -4 -20 -10 0 -5 9 -10 20 -10 11 0 20 -5 20 -11 0 -5 5
-7 10 -4 6 4 7 11 4 17 -4 7 5 8 27 3 42 -9 45 -11 30 -29 -10 -11 -8 -15 6
-19 16 -4 16 -5 1 -6 -10 0 -23 5 -30 13 -7 8 -19 10 -28 6 -8 -4 -44 -13 -80
-20 -36 -6 -72 -18 -81 -26 -24 -21 -138 -19 -155 4 -12 15 -15 15 -24 2 -6
-10 -10 -11 -10 -2 0 6 -5 12 -11 12 -6 0 -9 -6 -6 -13 3 -9 -6 -11 -34 -9
-26 3 -39 0 -39 -8 0 -8 -8 -10 -21 -7 -23 6 -51 -1 -45 -12 2 -3 -47 -5 -109
-5 -102 1 -115 4 -136 23 -21 19 -31 21 -74 16 -27 -4 -57 -13 -66 -21 -8 -8
-24 -14 -35 -14 -11 -1 5 -13 38 -30 31 -16 59 -34 63 -40 3 -5 22 -10 41 -10
19 0 34 -3 34 -8 0 -4 18 -15 40 -25 22 -9 39 -23 38 -29 -2 -8 5 -12 17 -9
19 3 19 2 1 -17 -28 -31 -12 -42 62 -41 47 0 61 3 47 9 -19 8 -18 9 5 11 14 1
37 1 53 0 15 -1 27 3 27 8 0 18 38 12 43 -6 4 -15 5 -15 6 -2 1 14 19 16 126
18 118 2 125 1 125 -18 0 -17 5 -19 50 -14 58 5 67 -10 18 -31 l-33 -14 65 -3
c36 -1 72 -1 80 0 44 6 73 0 84 -15 9 -12 19 -14 36 -9 17 6 20 9 9 16 -10 6
-3 9 20 9 19 0 43 7 53 17 11 9 18 11 18 5 0 -7 -4 -12 -10 -12 -5 0 -10 -5
-10 -11 0 -8 15 -9 46 -4 50 7 124 -2 124 -16 0 -4 -30 -6 -67 -3 l-68 6 44
-26 c23 -14 47 -26 52 -26 5 0 9 -4 9 -10 0 -5 -23 -10 -52 -10 -29 0 -103 -5
-165 -11 -85 -8 -117 -8 -127 0 -10 9 -31 9 -77 1 -35 -5 -167 -10 -294 -11
-163 -1 -220 -4 -195 -10 39 -11 181 -17 393 -18 79 -1 136 -5 133 -10 -3 -5
-85 -8 -183 -6 -105 2 -170 0 -158 -5 11 -5 40 -9 65 -9 25 -1 75 -4 112 -8
58 -5 65 -8 51 -19 -12 -8 -24 -9 -35 -3 -9 5 -47 9 -85 9 -37 0 -82 4 -99 9
-19 5 -38 5 -50 -2 -10 -6 -46 -14 -79 -17 l-60 -7 63 -2 c61 -1 84 -15 40
-24 -13 -2 21 -3 74 -1 94 3 98 2 117 -22 20 -26 21 -26 183 -26 94 -1 142 -4
113 -7 l-50 -7 74 -8 c51 -6 69 -11 59 -17 -9 -5 -27 -9 -40 -9 -12 0 -57 -2
-98 -5 -56 -3 -69 -2 -51 5 13 6 22 12 20 14 -2 2 -51 6 -108 9 -64 3 -99 2
-90 -4 8 -5 9 -9 4 -9 -6 0 -16 5 -21 10 -8 8 -20 7 -40 -2 -18 -7 -87 -12
-186 -13 -87 -1 -161 -4 -164 -8 -4 -4 7 -7 24 -7 18 0 32 -5 32 -10 0 -6 6
-10 13 -9 6 1 28 1 47 0 24 -1 31 -4 21 -10 -8 -5 13 -7 53 -4 44 4 66 2 66
-5 0 -6 -19 -13 -42 -15 -24 -2 25 -3 107 -3 83 0 184 -6 225 -13 41 -7 98
-10 127 -7 33 4 53 2 53 -4 0 -5 23 -10 51 -10 45 0 50 -2 39 -15 -7 -8 -24
-15 -39 -15 -15 0 -37 -7 -49 -16 -20 -14 -34 -14 -107 -4 -46 7 -87 10 -92 7
-4 -2 -35 0 -68 4 -33 5 -98 11 -145 13 -47 3 -112 12 -145 22 -33 9 -67 16
-75 16 -8 -1 -46 -2 -83 -4 -47 -2 -72 1 -79 10 -6 7 -18 10 -28 7 -9 -3 -39
-8 -65 -10 -27 -3 -60 -12 -73 -21 -14 -9 -57 -20 -96 -24 -39 -4 -62 -8 -51
-9 13 -1 16 -4 9 -11 -7 -7 -20 -6 -40 5 -31 16 -58 21 -35 6 11 -7 6 -12 -20
-19 -33 -9 -32 -9 31 -16 36 -4 80 -13 98 -19 25 -9 35 -9 40 0 4 7 23 11 42
9 68 -6 140 -19 140 -25 0 -3 44 -7 98 -9 53 -2 101 -7 106 -12 5 -5 15 -6 22
-3 18 7 64 -5 64 -16 0 -4 -30 -13 -67 -18 l-68 -11 68 4 c38 2 82 11 97 19
16 8 44 15 62 14 33 -1 33 -1 -11 -15 -51 -16 -69 -29 -26 -18 17 4 50 7 75 7
33 -1 38 1 20 6 -20 6 -22 8 -8 13 20 8 58 -1 58 -13 0 -5 17 -9 38 -8 20 0
31 3 25 6 -7 2 -13 9 -13 14 0 6 27 7 68 2 79 -8 80 -8 152 5 62 11 110 -2 52
-14 -19 -4 -36 -13 -39 -20 -3 -8 -15 -13 -26 -13 -12 1 -44 -3 -71 -9 -27 -6
-56 -7 -64 -4 -10 3 -13 1 -8 -6 3 -6 2 -13 -4 -17 -5 -3 -10 -2 -10 3 0 14
-28 23 -35 11 -4 -5 10 -16 29 -24 20 -9 36 -19 36 -24 0 -5 18 -12 40 -15
135 -20 127 -18 100 -28 l-25 -9 33 -14 c18 -8 39 -12 46 -9 23 9 27 32 8 44
-13 8 -7 9 23 4 22 -4 47 -12 55 -19 20 -16 80 -45 94 -45 6 0 3 7 -7 14 -16
12 -16 14 -1 20 27 10 44 7 44 -10 0 -8 4 -13 9 -9 5 3 16 -2 24 -10 9 -8 20
-15 26 -15 6 0 11 -5 11 -10 0 -13 -72 -2 -81 13 -4 5 -10 4 -14 -3 -5 -8 -1
-18 8 -25 20 -14 22 -31 5 -38 -7 -3 -3 -6 10 -6 12 -1 21 4 20 10 -2 6 3 14
11 17 9 3 11 0 7 -7 -5 -8 0 -11 16 -8 12 2 17 2 10 0 -8 -3 -11 -11 -8 -20 3
-8 6 -19 6 -24 0 -6 3 -8 8 -6 4 3 13 -1 20 -9 21 -23 -14 -30 -54 -10 -19 9
-41 16 -49 16 -8 0 -15 5 -15 11 0 6 -7 8 -16 5 -8 -3 -12 -2 -9 4 4 6 -5 10
-20 10 -14 0 -24 4 -21 9 3 5 -11 11 -32 15 -30 4 -40 2 -52 -15 -15 -18 -50
-19 -50 0 0 4 -34 5 -75 4 -64 -3 -82 0 -125 22 -27 14 -53 24 -57 23 -15 -4
-113 24 -113 32 0 5 -3 16 -7 25 -5 14 -2 16 18 11 l24 -7 -23 20 c-21 18 -58
19 -47 2 8 -14 -85 -51 -128 -51 -56 0 -89 -10 -83 -25 2 -6 0 -18 -5 -26 -6
-10 -9 -10 -9 -2 0 16 -20 13 -82 -11 -39 -15 -53 -17 -76 -7 -17 7 -38 9 -53
4 -13 -5 -41 -8 -61 -8 -21 0 -38 -3 -38 -7 0 -10 -74 -44 -120 -56 -19 -5
-34 -14 -32 -21 1 -6 -5 -11 -14 -11 -33 0 4 -26 56 -39 27 -7 50 -17 50 -23
0 -6 11 -7 25 -4 18 5 27 2 31 -9 4 -9 19 -15 39 -15 18 0 35 -5 37 -12 6 -17
164 -18 160 0 -1 6 2 12 8 12 5 0 10 -4 10 -9 0 -13 35 -20 54 -9 21 12 20 4
-1 -18 -17 -17 -17 -17 5 -12 12 3 20 2 17 -2 -3 -5 -1 -11 5 -15 5 -3 10 -11
10 -16 0 -6 -4 -7 -10 -4 -6 3 -7 -1 -4 -9 4 -11 0 -16 -10 -16 -19 0 -20 -4
-5 -33 9 -20 9 -20 -11 2 -18 21 -24 22 -45 13 -14 -7 -25 -15 -25 -20 0 -15
55 -59 88 -70 18 -6 54 -25 79 -42 25 -17 48 -28 52 -25 8 9 -50 55 -61 49 -4
-3 -22 9 -39 26 l-32 30 43 0 c37 0 42 2 37 20 -6 22 9 26 33 10 13 -9 13 -11
0 -20 -13 -9 -13 -10 0 -11 53 -5 92 -20 86 -35 -4 -11 1 -13 20 -8 24 6 25 5
15 -14 -6 -11 -20 -24 -31 -27 -11 -3 -20 -10 -20 -15 0 -20 -67 -20 -110 2
-25 12 -61 22 -80 23 -52 3 -160 48 -160 66 0 5 -5 9 -11 9 -5 0 -7 -5 -3 -12
5 -8 0 -9 -17 -4 -57 18 -90 18 -110 0 -19 -17 -19 -18 33 -51 29 -18 60 -33
69 -33 9 0 19 -6 22 -14 3 -8 16 -16 29 -19 20 -4 20 -4 -4 -6 -16 0 -28 3
-28 9 0 5 -7 7 -15 4 -8 -4 -12 -11 -8 -18 4 -6 6 -19 5 -28 -2 -12 2 -15 16
-11 11 2 23 -1 27 -8 5 -8 4 -10 -3 -5 -8 5 -10 2 -6 -8 7 -19 21 -21 27 -3 3
9 9 9 26 -1 18 -10 22 -10 27 3 4 11 21 15 56 15 27 0 47 -4 44 -9 -3 -5 1
-12 10 -15 23 -9 26 -8 18 7 -4 6 2 4 14 -7 12 -10 36 -21 54 -25 24 -5 34
-13 36 -29 2 -12 8 -22 13 -22 5 0 9 -9 9 -20 0 -20 45 -71 59 -67 3 1 19 -7
34 -17 21 -15 27 -25 23 -41 -5 -18 4 -32 41 -64 26 -24 52 -40 60 -37 8 3 11
1 8 -4 -9 -15 -41 -12 -55 5 -7 8 -23 15 -36 15 -13 0 -32 9 -41 20 -10 11
-21 20 -25 20 -4 0 -24 11 -44 25 -20 14 -40 22 -45 20 -4 -3 -11 1 -16 8 -9
17 -66 47 -86 47 -8 0 -20 6 -27 14 -6 8 -17 13 -25 10 -7 -3 -16 -1 -20 5 -3
6 -11 11 -16 11 -6 0 -7 -5 -4 -10 3 -6 1 -10 -6 -10 -7 0 -4 -7 7 -16 19 -15
19 -15 -2 -11 -13 3 -25 -3 -33 -15 -8 -13 -19 -18 -32 -15 -10 3 -19 1 -19
-4 0 -11 45 -31 77 -35 12 -2 39 -20 60 -41 66 -68 184 -136 183 -107 0 9 -21
21 -102 60 -43 21 -57 44 -28 44 10 0 22 -5 25 -10 3 -6 17 -10 31 -10 15 0
24 -6 24 -15 0 -11 11 -15 41 -15 24 0 38 -4 34 -10 -3 -6 1 -10 10 -10 25 0
76 -30 70 -40 -4 -6 0 -10 8 -10 7 0 24 -11 37 -25 25 -26 22 -36 -3 -11 -11
12 -18 12 -28 3 -8 -7 -12 -11 -10 -10 6 4 59 -26 66 -37 4 -6 -5 -9 -19 -8
-15 1 -26 5 -26 9 0 3 -7 6 -15 6 -18 0 -19 -11 -5 -38 9 -15 7 -19 -5 -19 -9
0 -25 5 -37 11 -24 13 -39 2 -18 -14 8 -7 21 -20 28 -29 13 -16 11 -17 -24
-12 -21 2 -48 11 -59 18 -20 13 -21 12 -19 -23 2 -53 12 -70 36 -63 17 4 20 2
15 -12 -4 -10 -7 -22 -7 -27 0 -4 -8 -6 -17 -3 -10 2 -7 -1 7 -8 35 -17 36
-18 22 -27 -7 -4 10 -7 37 -7 40 1 59 -5 91 -26 47 -33 46 -32 53 -14 4 10 1
13 -7 10 -8 -3 -17 -1 -21 5 -4 7 4 11 20 11 15 0 24 4 20 10 -9 14 13 12 43
-4 15 -8 48 -22 75 -31 26 -9 53 -25 60 -36 8 -10 17 -16 20 -12 4 3 7 1 7 -5
0 -25 -21 -20 -54 14 -20 21 -39 34 -43 30 -4 -4 -1 -11 7 -16 8 -5 11 -13 6
-17 -4 -4 -15 1 -24 12 -10 11 -28 21 -42 23 -22 2 -25 -2 -25 -23 2 -27 20
-53 31 -42 4 4 1 13 -6 22 -11 13 -9 15 14 15 18 0 26 -5 26 -17 0 -28 89 -83
133 -83 24 0 40 -5 43 -15 4 -8 10 -15 15 -15 24 0 -21 42 -54 51 -21 5 -35
14 -32 19 3 5 16 4 31 -2 20 -9 27 -9 33 1 7 10 9 10 14 -2 5 -13 22 -18 98
-33 8 -2 35 -12 59 -23 40 -18 43 -22 44 -58 1 -21 -1 -40 -5 -43 -3 -3 -13
-16 -22 -30 -12 -17 -28 -25 -50 -27 -72 -5 -92 -8 -99 -18 -5 -6 -21 4 -39
25 -17 19 -34 35 -38 35 -4 0 -34 17 -66 38 -37 24 -61 34 -65 27 -4 -6 -11 0
-18 15 -6 14 -17 25 -24 25 -11 0 -11 2 0 8 9 6 4 12 -15 21 -16 7 -41 19 -56
27 -15 7 -25 9 -22 4 3 -6 1 -10 -4 -10 -6 0 -11 5 -11 10 0 6 -4 10 -9 10 -4
0 -8 -20 -7 -44 0 -42 3 -46 43 -66 24 -12 41 -25 38 -30 -14 -22 -90 41 -101
84 -3 15 -17 34 -31 43 -13 9 -22 22 -19 29 6 15 -25 44 -47 44 -9 0 -17 5
-17 10 0 6 -9 10 -21 10 -11 0 -17 5 -14 10 3 6 -1 10 -9 10 -9 0 -16 7 -16
15 0 17 -43 30 -62 19 -9 -5 -8 -1 2 11 9 11 10 16 3 11 -8 -4 -17 2 -25 19
-10 21 -17 25 -37 20 -17 -3 -21 -2 -13 3 10 7 1 20 -34 55 -26 26 -50 44 -54
42 -5 -3 -6 5 -2 17 5 21 4 22 -11 9 -9 -7 -17 -20 -17 -27 0 -20 -25 -6 -40
22 -7 13 -22 24 -32 24 -10 0 -18 7 -18 16 0 16 11 12 44 -15 14 -12 20 -13
23 -3 3 6 10 9 16 6 7 -4 -2 8 -20 26 -26 27 -40 34 -77 35 -25 1 -43 -1 -41
-5 3 -4 -2 -13 -10 -20 -8 -7 -15 -18 -15 -24 0 -6 4 -5 9 3 8 12 12 13 26 1
9 -7 21 -22 27 -33 9 -17 8 -19 -6 -14 -25 10 -19 -13 12 -42 33 -33 60 -120
40 -133 -9 -5 -6 -8 9 -8 12 0 25 5 28 10 8 13 25 13 25 0 0 -5 -7 -10 -15
-10 -8 0 -15 -4 -15 -10 0 -5 8 -10 18 -10 13 0 14 -2 3 -9 -7 -5 -23 -6 -35
-3 -20 5 -20 4 4 -24 14 -16 28 -30 33 -32 13 -6 7 -32 -8 -32 -8 0 -15 -9
-15 -20 0 -12 -10 -25 -25 -32 -27 -12 -33 -33 -12 -41 7 -3 5 -6 -5 -6 -10
-1 -18 5 -18 12 0 7 -11 23 -24 35 -27 23 -96 41 -96 24 0 -6 8 -8 18 -5 12 3
18 -2 19 -16 1 -12 -2 -21 -8 -21 -5 0 -9 5 -9 12 0 6 -3 8 -7 5 -3 -4 -12 -2
-19 4 -9 7 -14 5 -19 -11 -4 -14 2 -31 23 -58 27 -34 72 -113 72 -127 0 -3 -4
-5 -10 -5 -5 0 -10 6 -10 13 0 8 -9 22 -20 32 -11 10 -20 15 -20 10 0 -4 6
-13 14 -19 16 -12 11 -70 -5 -60 -5 3 -9 0 -9 -7 0 -7 -3 -10 -6 -7 -3 4 -1
16 5 27 10 18 8 21 -21 30 -18 5 -25 10 -15 10 20 1 24 21 4 21 -7 0 -29 21
-47 46 -25 32 -40 44 -53 40 -13 -3 -17 0 -13 9 2 7 -2 16 -9 19 -19 7 -26 -6
-14 -24 11 -19 12 -33 0 -26 -5 4 -14 -6 -19 -21 l-10 -28 -1 27 c-1 15 4 30
9 33 16 10 11 28 -6 21 -8 -3 -13 -2 -10 3 3 4 -1 17 -10 27 -14 18 -15 18 -7
-6 4 -14 8 -42 7 -63 0 -20 4 -37 8 -37 19 0 24 -2 41 -17 9 -9 17 -22 17 -29
0 -7 6 -15 13 -17 8 -4 9 -8 1 -14 -7 -5 -8 -16 -3 -28 7 -19 8 -19 8 2 1 12
6 25 12 28 6 4 8 13 5 21 -8 21 0 17 28 -13 17 -18 22 -31 16 -38 -6 -7 -6
-16 0 -23 7 -8 7 -9 0 -4 -18 14 -69 1 -75 -19 -4 -10 -13 -19 -21 -19 -12 0
-13 4 -4 23 11 21 10 21 -4 3 -9 -10 -13 -23 -9 -29 3 -5 -3 -6 -16 -2 -22 7
-30 -10 -8 -18 9 -4 8 -8 -3 -16 -12 -8 -16 -6 -18 10 -3 20 -4 20 -17 2 -19
-24 -18 -33 0 -33 8 0 15 -4 15 -10 0 -5 -11 -10 -25 -10 -39 0 -49 37 -18 66
l24 22 -30 31 c-17 18 -31 26 -31 19 0 -9 -3 -9 -9 2 -6 8 -7 18 -4 23 3 5 -1
13 -8 18 -11 7 -11 9 3 9 9 0 19 -8 21 -18 3 -12 5 -11 6 6 1 13 -10 33 -25
47 -29 27 -44 32 -44 14 0 -6 -6 -9 -14 -6 -8 3 -18 -5 -25 -19 -15 -33 -14
-37 4 -30 8 3 16 0 17 -7 4 -36 17 -69 32 -80 8 -5 6 -11 -4 -20 -8 -6 -15
-18 -16 -24 -2 -28 -4 -33 -14 -33 -5 0 -6 8 -3 18 6 14 4 15 -8 5 -20 -16
-59 -5 -59 17 0 10 -6 23 -14 29 -17 14 -25 -10 -16 -54 5 -30 24 -39 47 -23
6 5 14 5 17 0 3 -6 -5 -17 -18 -25 -22 -15 -23 -21 -19 -88 3 -53 1 -74 -9
-80 -20 -13 -28 -11 -22 6 4 8 1 15 -5 15 -6 0 -11 -6 -11 -12 0 -9 -3 -8 -9
2 -6 8 -7 18 -5 22 3 4 -2 8 -10 8 -9 0 -16 6 -16 14 0 23 -22 31 -35 13 -16
-23 -24 -21 -18 3 3 12 0 20 -7 20 -7 0 -9 8 -5 23 4 15 3 18 -3 9 -7 -11 -10
-11 -15 2 -5 11 -1 16 13 16 13 0 20 6 19 18 0 10 -3 12 -6 5 -2 -7 -11 -13
-18 -13 -8 0 -17 6 -21 13 -4 6 -4 9 1 5 11 -11 36 12 28 25 -12 20 -10 92 4
115 8 13 16 34 17 46 1 12 6 27 10 34 4 7 1 12 -8 12 -8 0 -16 -10 -18 -23 -2
-14 -11 -23 -25 -25 -22 -3 -24 -7 -27 -40 -1 -7 -6 -16 -12 -20 -6 -4 -14
-14 -17 -22 -3 -10 -6 -6 -7 10 -1 14 -2 29 -1 34 1 4 -4 15 -11 23 -8 10 -9
17 -1 21 6 4 14 28 18 55 7 43 6 47 -11 41 -13 -5 -16 -4 -9 4 6 5 19 12 30
15 15 4 14 5 -7 6 -19 1 -34 -8 -52 -32 -15 -19 -26 -26 -26 -17 0 9 -6 5 -13
-9 -16 -32 -33 -37 -40 -11 -3 12 -13 20 -26 20 -22 0 -29 16 -10 22 5 2 11
10 13 18 6 30 24 66 40 79 9 7 16 17 16 21 0 11 -72 10 -87 -2 -22 -18 -26 -2
-8 26 14 20 14 26 4 26 -12 0 -12 2 0 9 11 7 11 9 0 13 -16 6 -89 -66 -89 -87
0 -8 4 -15 9 -15 5 0 4 -11 -2 -25 -7 -14 -16 -25 -20 -25 -4 0 -3 10 4 23 11
22 11 22 -12 -2 -17 -16 -20 -25 -11 -28 10 -4 10 -8 1 -19 -13 -16 -45 -19
-54 -4 -3 6 4 10 16 10 12 0 20 3 16 6 -8 9 -59 -5 -53 -14 2 -4 -4 -8 -15 -8
-16 0 -15 3 9 22 15 12 31 20 36 17 5 -4 6 -1 2 5 -4 7 -14 12 -23 12 -13 0
-14 2 -2 17 13 15 12 16 -11 8 -14 -4 -38 -8 -55 -9 -16 0 -41 -11 -55 -23
-26 -24 -46 -31 -34 -11 5 8 2 9 -12 4 -10 -5 -28 -10 -39 -13 l-20 -4 20 12
c30 17 45 40 45 67 0 20 -4 23 -21 19 -16 -4 -18 -3 -8 9 15 19 -1 18 -29 -2
-28 -20 -41 -11 -18 12 9 9 14 19 11 23 -4 3 -14 -4 -23 -15 -26 -32 -89 -66
-114 -61 -20 4 -19 4 5 6 16 0 26 5 23 10 -3 5 -16 7 -27 4 -16 -4 -20 -2 -17
8 3 8 14 14 26 13 12 0 18 4 14 10 -12 20 -9 47 4 42 14 -5 74 39 74 54 0 12
-64 -13 -84 -33 -10 -9 -23 -17 -29 -17 -7 0 -6 -4 3 -10 8 -5 10 -10 4 -10
-6 0 -19 10 -28 22 -9 13 -13 16 -10 6 4 -12 0 -16 -13 -14 -10 2 -21 -2 -25
-8 -5 -8 -8 -7 -8 2 0 10 -5 10 -21 1 -12 -6 -30 -9 -40 -6 -10 3 -19 0 -19
-6 0 -6 -3 -7 -6 -4 -4 4 1 18 10 32 10 15 19 36 21 47 3 11 12 29 21 39 16
17 14 18 -22 14 -22 -2 -30 -2 -19 1 11 3 25 13 32 21 6 8 16 12 22 8 6 -3 11
1 11 10 0 8 11 20 25 25 24 9 84 48 95 61 6 7 49 18 95 26 17 3 34 11 38 19 4
8 13 14 20 14 19 1 65 40 46 40 -8 0 -24 -7 -35 -15 -26 -19 -31 -19 -37 5 -4
17 -1 20 15 18 12 -2 23 3 25 10 3 6 -3 12 -12 12 -14 0 -15 3 -5 14 9 12 8
15 -9 13 -12 -1 -21 -5 -21 -9 0 -4 -7 -5 -15 -2 -13 5 -12 10 7 28 41 39 61
66 50 66 -6 0 -17 -7 -25 -15 -13 -12 -16 -12 -20 -1 -4 9 4 16 24 20 24 5 29
10 29 36 0 18 -4 29 -10 25 -5 -3 -10 -1 -10 4 0 6 9 11 20 11 11 0 20 5 20
11 0 5 5 7 10 4 6 -4 24 -3 42 0 22 5 27 10 17 16 -11 6 -10 9 4 15 9 3 17 11
17 18 0 6 15 24 34 39 23 20 32 35 29 48 -4 14 -9 16 -23 9 -23 -12 -30 -13
-30 -1 0 5 11 12 25 15 34 9 32 24 -2 19 -51 -8 -57 -12 -43 -28 10 -12 9 -16
-4 -21 -9 -4 -20 -4 -23 -1 -3 4 -17 -3 -31 -13 -13 -11 -30 -20 -36 -20 -6 0
-3 5 7 11 9 5 17 15 17 22 0 7 -4 6 -10 -3 -5 -8 -13 -11 -17 -6 -4 4 1 14 11
22 11 8 14 14 7 14 -7 0 -10 4 -6 10 3 5 13 6 21 3 10 -4 25 4 40 20 l24 27
-32 -6 c-25 -4 -29 -3 -18 5 10 7 11 11 3 11 -7 0 -13 7 -13 15 0 22 -17 18
-48 -10 -26 -25 -26 -25 -4 -25 12 0 22 5 22 10 0 6 4 10 8 10 5 0 9 -7 9 -15
0 -14 -16 -20 -45 -16 -7 1 -29 -7 -48 -18 -42 -25 -54 -26 -54 -5 0 8 -5 12
-10 9 -6 -4 -8 -11 -5 -16 4 -5 2 -9 -4 -9 -5 0 -13 5 -17 11 -3 6 -15 9 -25
6 -11 -3 -19 -1 -19 4 0 5 5 9 10 9 6 0 10 9 10 19 0 11 9 23 20 26 11 3 20
11 20 16 0 6 -9 7 -20 4 -30 -9 -24 4 7 16 19 7 28 6 33 -2 6 -8 13 -8 29 0
16 9 21 9 22 -1 0 -7 4 -4 9 8 8 19 54 35 110 38 8 1 21 5 28 10 7 4 16 5 20
1 4 -4 1 -10 -5 -12 -15 -5 -17 -33 -3 -33 6 0 10 5 10 11 0 5 4 8 9 5 4 -3 7
5 7 17 -2 25 21 57 41 57 8 0 28 13 44 29 16 16 29 25 29 20 0 -5 11 -3 25 3
14 6 25 17 25 25 0 7 5 14 10 14 6 1 16 2 23 3 6 0 13 12 15 26 3 24 26 50 44
50 4 0 7 -6 6 -12 -2 -7 4 -13 12 -13 8 0 16 10 18 23 3 18 8 22 25 17 13 -4
17 -3 10 2 -16 11 -2 32 24 37 41 8 102 29 101 35 -2 22 4 29 25 24 18 -5 20
-3 10 8 -19 19 -16 27 10 31 12 2 21 9 19 16 -3 16 35 16 45 -1 12 -19 50 -37
79 -37 21 0 24 3 19 21 -6 16 -4 20 6 14 8 -5 11 -4 7 0 -5 5 -18 10 -30 11
-49 7 -58 11 -82 33 -19 18 -33 22 -68 19 -23 -1 -45 -5 -48 -8 -27 -27 -93
-41 -85 -17 3 7 -9 16 -30 23 -19 6 -35 8 -35 5 0 -3 -9 -12 -20 -19 -23 -14
-27 0 -5 21 8 8 11 17 8 21 -12 11 -23 6 -23 -10 0 -9 -16 -31 -36 -50 -28
-25 -43 -32 -63 -28 -18 4 -33 -1 -48 -15 -12 -12 -29 -21 -37 -21 -8 0 -17
-4 -20 -9 -3 -5 -27 -12 -53 -16 -57 -8 -103 -30 -103 -49 0 -16 -27 -29 -41
-20 -5 3 -9 1 -9 -5 0 -6 -6 -8 -13 -5 -7 2 -27 -2 -43 -11 -16 -8 -30 -11
-32 -6 -3 10 -62 -10 -62 -21 0 -12 68 -21 110 -14 44 7 56 -10 15 -20 -13 -3
-29 -12 -36 -20 -6 -8 -17 -14 -23 -14 -6 0 -2 8 9 16 19 16 19 16 -5 9 -14
-4 -28 -12 -31 -18 -4 -5 -12 -6 -18 -3 -6 4 -11 3 -11 -2 0 -22 -25 -18 -26
4 -1 13 2 24 7 24 4 0 6 7 3 15 -4 8 -13 15 -21 15 -10 0 -12 -8 -8 -33 6 -30
4 -33 -27 -44 -18 -7 -52 -9 -75 -6 -24 3 -48 1 -55 -5 -13 -10 -79 -24 -133
-28 -55 -3 -156 -38 -151 -51 7 -16 -15 -22 -38 -11 -13 7 -16 7 -12 -1 4 -6
2 -11 -3 -11 -6 0 -11 6 -11 14 0 10 -9 12 -38 6 -21 -4 -44 -10 -50 -14 -6
-4 -31 -11 -54 -16 -37 -7 -40 -9 -20 -15 12 -4 22 -11 22 -16 0 -16 29 -9 49
12 11 12 25 19 33 16 9 -4 7 -6 -4 -6 -10 -1 -18 -7 -18 -13 0 -7 -12 -19 -27
-25 -21 -10 -28 -10 -35 0 -5 9 -14 5 -33 -15 -25 -27 -40 -32 -79 -28 -10 1
-15 -3 -12 -8 3 -6 -15 -17 -41 -26 -53 -18 -64 -20 -43 -6 13 8 13 10 -2 10
-9 0 -23 -7 -32 -15 -8 -8 -17 -11 -20 -6 -12 19 -88 19 -144 0 -32 -10 -74
-19 -94 -19 -21 0 -44 -7 -54 -17 -11 -12 -19 -14 -21 -6 -3 7 -18 9 -43 6
-29 -4 -43 -1 -58 13 l-21 19 25 12 c14 6 21 7 18 1 -4 -7 0 -7 12 -1 11 6 30
7 44 3 14 -4 38 -3 55 2 16 4 45 8 63 8 20 0 31 4 27 10 -3 5 -16 10 -28 10
-20 1 -20 2 -5 11 24 13 222 24 214 11 -3 -5 1 -13 10 -16 8 -3 12 -11 8 -17
-4 -8 -3 -9 5 -5 6 4 9 11 6 16 -3 5 9 10 27 12 18 2 32 8 31 13 -2 14 25 23
62 20 27 -1 70 22 48 27 -4 0 -12 2 -18 3 -5 2 -28 4 -50 5 -22 1 -33 4 -25 7
8 2 22 7 30 9 11 4 12 7 2 13 -12 7 110 34 208 46 25 3 81 17 125 31 99 32
115 36 137 36 10 -1 20 3 23 8 3 4 15 6 28 3 18 -4 19 -3 7 6 -13 9 -12 11 5
12 16 1 16 2 -5 8 -24 7 -23 8 15 19 22 7 48 12 57 12 26 0 33 21 9 27 -12 3
-21 12 -21 19 0 18 -25 18 -43 -1 -9 -8 -17 -11 -19 -5 -2 5 -24 10 -50 11
-26 2 -45 6 -42 11 3 4 16 5 30 2 14 -4 24 -2 24 5 0 6 -16 11 -37 11 -82 0 8
25 127 36 41 3 79 9 85 12 5 3 22 7 39 9 16 2 35 8 43 14 9 9 13 8 13 0 0 -14
49 -4 71 15 8 8 32 14 52 14 38 0 58 17 36 31 -9 5 -23 2 -37 -7 -14 -10 -40
-15 -65 -13 -51 4 -99 -7 -150 -33 -21 -10 -43 -16 -49 -12 -8 5 -5 10 8 15
17 7 17 8 -5 8 -20 1 -21 3 -11 16 11 13 8 15 -19 15 -17 0 -31 -4 -31 -10 0
-5 7 -10 15 -10 8 0 15 -6 15 -14 0 -26 -154 -6 -164 21 -4 9 -9 13 -12 10
-10 -10 -32 17 -26 32 4 10 1 13 -12 8 -10 -4 -21 -7 -24 -7 -4 0 0 -5 8 -10
12 -8 11 -10 -7 -10 -13 0 -23 6 -23 12 0 7 -7 2 -16 -10 -8 -12 -26 -22 -40
-22 -25 0 -33 -15 -11 -22 6 -3 22 -4 34 -3 12 1 20 -1 18 -5 -2 -4 -34 -10
-70 -13 -36 -4 -75 -13 -88 -22 -23 -16 -52 -21 -43 -6 3 5 -25 8 -64 7 -52
-1 -67 1 -59 10 5 6 20 12 33 12 60 -1 139 14 125 23 -8 5 -27 9 -44 10 l-30
1 30 9 c19 5 31 5 33 -1 2 -6 10 -10 17 -10 7 0 15 -4 17 -10 3 -11 48 -2 48
10 0 4 -10 11 -22 15 -19 7 -14 9 27 15 l50 7 -40 3 c-22 1 -46 2 -54 1 -7 -2
-10 2 -6 9 5 9 0 10 -16 6 -13 -3 -18 -3 -11 0 20 9 14 21 -14 27 -21 4 -25 1
-21 -14 5 -19 -25 -38 -31 -20 -2 6 -9 8 -15 4 -19 -12 -49 -14 -42 -3 3 5 13
10 21 10 8 0 14 5 14 11 0 5 -4 7 -10 4 -5 -3 -10 1 -10 9 0 9 -6 16 -14 16
-13 0 -31 29 -23 37 2 2 16 -1 31 -7 21 -7 28 -7 32 4 4 11 22 13 79 9 75 -5
122 8 109 29 -5 7 -1 9 9 5 10 -3 17 -2 17 3 0 5 13 5 32 0 21 -7 36 -6 45 1
20 17 16 32 -7 26 -11 -3 -20 0 -20 6 0 8 -4 7 -12 -1 -20 -20 -31 -14 -83 38
l-50 50 -80 -7 c-44 -3 -89 -6 -99 -5 -11 1 -28 -4 -39 -10 -37 -19 -163 -29
-184 -14 -8 5 -13 4 -13 -3 0 -8 -11 -10 -32 -6 -18 3 -43 7 -55 8 -12 1 -25
7 -27 13 -3 8 7 10 34 7 26 -4 45 0 62 11 23 17 23 17 -17 11 -40 -7 -40 -7
-17 10 14 10 35 15 52 13 16 -2 27 -1 24 3 -7 12 46 19 146 17 52 0 110 2 129
7 22 4 31 4 27 -3 -3 -5 1 -13 10 -16 26 -10 34 -7 34 13 0 17 6 18 68 14 37
-3 75 -10 85 -15 23 -12 194 -14 331 -4 93 6 143 16 83 16 -15 0 -27 5 -27 11
0 5 -4 8 -9 5 -5 -3 -21 0 -36 8 -17 9 -22 16 -13 19 7 3 1 6 -14 6 -18 1 -31
-6 -38 -19 -8 -15 -20 -20 -53 -19 -32 0 -37 2 -22 9 18 7 18 9 3 15 -9 4 -22
4 -28 0 -5 -3 -10 -2 -10 2 0 9 -35 12 -172 14 -53 1 -85 5 -82 11 3 5 12 7
18 5 7 -3 19 -1 26 3 9 6 1 11 -26 15 -21 4 -43 8 -48 9 -6 1 60 8 145 15 85
6 172 17 194 23 l40 11 -30 8 c-16 4 17 5 74 2 76 -5 102 -3 97 5 -5 8 17 11
79 10 47 -1 80 -5 73 -9 -20 -13 -7 -15 55 -11 40 3 57 8 54 16 -3 8 11 10 53
6 65 -6 68 3 9 27 -21 8 -39 20 -39 27 0 23 -35 34 -80 26 -25 -5 -55 -4 -69
2 -22 8 -63 9 -168 6 -10 0 -51 5 -90 11 -40 7 -77 10 -82 7 -5 -4 -12 -2 -16
4 -7 11 -113 2 -131 -11 -26 -21 -195 -28 -219 -10 -5 5 -32 11 -58 14 -50 7
-103 49 -90 70 5 8 8 7 11 -1 2 -7 11 -12 21 -12 9 0 21 -4 27 -10 14 -14 117
-32 123 -22 7 11 56 24 90 24 48 0 -2 27 -69 36 l-65 10 50 1 c28 1 67 5 88
10 21 5 37 5 37 0 0 -5 28 -8 63 -7 45 1 51 2 22 5 -22 2 -45 10 -50 18 -6 7
-42 17 -80 23 -73 9 -70 9 330 11 96 1 136 8 114 22 -7 5 -72 9 -144 9 -126 1
-290 13 -349 26 -20 5 -27 4 -22 -5 5 -8 -7 -11 -41 -10 -47 2 -47 2 -13 9 28
6 21 8 -40 10 -65 2 -70 3 -40 11 19 4 182 7 363 5 180 -2 327 0 327 3 0 6 49
6 200 0 93 -3 130 0 130 11 0 5 -13 8 -30 6 -16 -2 -30 1 -30 5 0 5 17 9 37 9
20 0 34 2 31 5 -8 9 -412 24 -738 29 -526 8 -898 20 -845 27 28 4 75 8 105 8
39 1 51 4 40 11 -8 5 -29 10 -47 10 -17 0 -52 9 -78 20 -26 11 -60 20 -76 20
-16 0 -29 5 -29 10 0 6 -40 10 -100 10 -60 0 -100 4 -100 10 0 6 -11 10 -25
10 -14 0 -25 5 -25 11 0 6 -9 8 -21 4 -13 -4 -25 -2 -29 5 -5 8 -48 13 -128
15 -67 2 -127 7 -134 11 -19 12 -28 13 -183 30 -77 8 -153 21 -170 28 -31 14
-69 30 -95 40 -8 3 3 3 25 -1 71 -12 187 2 239 29 12 7 22 6 29 -1 8 -8 6 -11
-6 -11 -29 0 -19 -20 13 -26 17 -4 30 -11 30 -15 0 -6 47 -7 106 -5 58 3 117
0 131 -5 14 -5 78 -9 142 -9 64 1 143 2 176 2 l60 1 -53 12 c-53 13 -82 30
-82 47 0 6 7 8 15 4 21 -8 19 11 -2 24 -14 8 -4 9 37 5 30 -3 65 -9 78 -12 12
-3 28 -1 35 5 15 12 85 24 155 27 41 1 52 -1 48 -12 -7 -18 4 -16 18 3 13 17
51 22 77 10 9 -4 22 -1 30 6 18 17 69 22 69 6 0 -9 3 -9 12 0 7 7 23 12 37 12
14 0 34 9 46 20 19 18 25 19 80 7 33 -6 68 -20 77 -30 10 -9 33 -17 51 -17 19
0 47 -7 63 -14 36 -19 321 -27 332 -10 4 6 16 14 27 19 19 8 18 9 -5 12 -37 6
-80 24 -80 34 0 11 14 12 24 2 9 -9 86 -10 86 -1 0 3 -6 9 -12 11 -7 3 -3 6 9
6 27 1 39 -15 24 -33 -9 -11 -6 -12 13 -9 16 3 23 10 19 19 -6 15 0 16 62 15
l40 0 -33 10 c-18 5 -30 14 -27 18 6 11 -42 24 -57 15 -6 -4 -17 1 -25 11 -7
11 -13 13 -13 7 0 -7 -4 -12 -10 -12 -5 0 -10 7 -10 15 0 8 -8 15 -19 15 -10
0 -23 6 -29 13 -8 10 -6 13 10 14 12 1 25 6 30 11 10 10 0 42 -13 42 -5 0 -9
9 -9 19 0 11 -5 23 -11 26 -5 4 -8 12 -6 18 5 15 -48 38 -68 30 -11 -3 -13 -1
-10 10 4 8 -1 17 -9 20 -9 4 -16 16 -16 27 0 11 -5 20 -11 20 -5 0 -7 -6 -3
-12 5 -8 1 -7 -12 2 -32 24 -55 50 -46 50 10 0 24 41 17 48 -2 3 -16 6 -30 8
-22 2 -25 -1 -20 -18 5 -14 1 -21 -14 -25 -12 -3 -21 -9 -21 -14 0 -5 -4 -9
-10 -9 -5 0 -10 7 -10 15 0 8 -6 15 -12 15 -8 1 -6 6 5 14 25 19 21 26 -13 26
-20 0 -30 5 -30 15 0 8 -7 15 -15 15 -25 0 -110 20 -125 30 -13 9 -13 11 0 20
13 8 12 10 -3 10 -11 0 -32 9 -48 21 -17 12 -29 16 -29 9 0 -7 -6 -10 -14 -7
-7 3 -18 1 -24 -5 -8 -8 -15 -8 -24 -1 -7 6 -28 10 -46 10 -26 0 -43 9 -77 43
-51 50 -54 65 -24 91 21 18 21 20 5 44 -15 23 -15 26 -1 31 14 6 14 9 -2 26
-20 22 -76 48 -105 48 -10 0 -16 4 -13 10 4 6 -21 8 -67 5 -42 -3 -67 -1 -60
4 10 6 7 10 -12 13 -15 3 -29 1 -32 -3 -3 -5 0 -9 5 -9 6 0 11 -5 11 -11 0 -7
-11 -9 -30 -6 -16 4 -32 2 -35 -3 -4 -6 -10 -8 -15 -5 -5 3 -15 -2 -24 -10
-14 -14 -18 -14 -45 0 -17 8 -37 15 -45 15 -22 0 -28 17 -11 33 13 13 12 16
-10 21 -14 4 -25 11 -25 17 0 6 -4 7 -10 4 -13 -8 0 27 14 38 6 5 0 5 -13 2
-16 -5 -21 -4 -17 4 4 6 14 11 21 11 9 0 12 6 8 16 -3 8 -11 13 -19 10 -7 -3
-18 2 -25 10 -11 13 -14 12 -26 -8 -13 -22 -14 -22 -8 -1 3 12 1 24 -4 27 -5
4 1 17 14 30 16 16 22 31 18 46 -5 18 -2 21 13 18 10 -2 23 -13 29 -26 5 -12
19 -22 30 -22 11 0 29 -7 39 -15 30 -23 39 -18 61 30 19 45 20 45 36 24 13
-18 22 -20 45 -14 l29 8 -32 13 c-18 8 -33 21 -33 30 0 8 -4 13 -9 10 -5 -3
-14 1 -21 9 -7 8 -20 15 -30 15 -31 0 -69 59 -37 60 6 1 -2 7 -18 14 -17 7
-39 21 -48 31 -10 9 -24 18 -32 19 -8 1 -24 11 -36 22 -12 10 -19 13 -15 7 8
-15 -10 -18 -19 -3 -3 6 -14 10 -25 10 -14 0 -17 -5 -12 -22 5 -21 4 -22 -11
-9 -9 7 -17 20 -17 27 0 8 -5 14 -10 14 -6 0 -18 13 -29 30 -10 16 -21 27 -26
22 -4 -4 -5 3 -2 16 3 15 1 22 -9 22 -19 0 -76 58 -69 70 3 5 1 11 -5 15 -6 4
-8 10 -5 15 3 5 -6 12 -20 16 -14 3 -25 12 -25 20 0 8 -4 14 -10 14 -5 0 -10
7 -10 15 0 8 -4 15 -9 15 -5 0 -12 7 -15 16 -3 8 -2 12 3 9 5 -3 16 4 25 16
14 20 13 23 -10 42 l-25 19 21 15 c12 8 19 21 16 29 -4 9 2 14 17 14 20 1 21
2 5 14 -10 7 -15 16 -12 19 10 9 34 -4 34 -19 0 -8 5 -14 10 -14 15 0 12 15
-11 55 -21 35 -20 50 4 50 19 0 20 70 2 89 -9 9 -14 20 -11 24 3 5 -10 24 -29
42 -19 19 -35 29 -35 22 0 -44 -110 35 -112 81 -1 12 -5 27 -10 34 -6 7 -3 15
8 21 22 12 11 62 -23 98 l-26 28 29 10 c20 6 29 6 32 -3 2 -6 9 -8 14 -5 6 4
8 2 4 -4 -7 -12 33 -44 46 -36 4 3 8 -1 8 -8 1 -7 16 -23 35 -35 30 -19 37
-20 49 -7 17 16 40 19 31 3 -4 -6 2 -13 14 -16 12 -3 21 -9 21 -14 0 -5 10 -9
23 -9 12 0 35 -7 51 -15 15 -8 33 -15 39 -15 6 0 19 -8 29 -17 24 -22 48 -25
48 -7 0 8 7 14 15 14 8 0 15 -4 15 -10 0 -5 4 -10 10 -10 5 0 7 13 4 30 -7 33
3 38 39 19 28 -15 37 -28 37 -56 0 -13 4 -23 8 -23 5 0 9 -16 10 -35 1 -21 10
-43 23 -56 l22 -22 -5 21 c-4 15 -2 22 8 22 8 0 14 -9 14 -19 0 -11 6 -22 13
-24 9 -4 9 -6 -1 -6 -7 -1 -10 -5 -7 -11 9 -15 25 -12 25 5 0 13 18 20 43 16
4 0 7 6 7 14 0 8 -6 15 -12 15 -7 0 -26 11 -42 25 -33 29 -37 30 -54 13 -10
-10 -11 -5 -6 21 5 23 3 36 -7 42 -12 8 -11 12 5 24 20 15 20 15 0 15 -27 0
-44 19 -44 50 0 20 2 22 10 10 6 -10 10 -11 10 -2 0 6 7 12 16 12 8 0 13 4 9
10 -3 5 -12 7 -19 4 -8 -3 -17 0 -22 7 -4 7 -2 15 4 17 7 2 12 23 12 49 0 46
16 73 45 73 8 0 20 12 26 28 l11 27 13 -25 13 -25 7 27 c4 15 3 33 -1 40 -6
10 -4 10 9 -1 14 -11 17 -11 21 0 19 68 25 94 21 98 -3 2 -5 -2 -5 -10 0 -8
-8 2 -16 21 -9 19 -20 42 -24 51 -5 10 -4 21 3 28 8 8 8 11 0 11 -6 0 -11 19
-11 42 -1 29 -7 47 -19 56 -13 9 -19 10 -22 1 -2 -6 3 -15 10 -20 18 -11 6
-21 -15 -13 -14 5 -21 23 -17 47 0 4 -10 7 -24 7 -14 0 -25 5 -25 11 0 5 -4 8
-9 5 -5 -3 -12 5 -15 18 -3 13 -23 40 -43 60 -34 32 -35 36 -16 36 12 0 28 -7
35 -15 23 -28 52 -55 58 -55 3 0 15 7 26 15 17 13 17 14 2 15 -10 0 -18 7 -18
15 0 23 4 30 17 29 6 -1 9 4 7 11 -3 7 -14 11 -25 8 -10 -3 -19 0 -19 6 0 6
-10 15 -22 20 -19 7 -24 5 -28 -16 l-5 -24 -23 21 c-26 25 -42 20 -21 -6 12
-14 11 -16 -6 -13 -14 3 -20 13 -22 34 -1 16 1 25 5 20 4 -6 19 -11 34 -12 19
-1 28 4 32 20 5 18 8 20 16 7 7 -10 10 -11 10 -2 0 13 47 7 65 -9 17 -17 25
-9 19 19 -4 15 -11 33 -17 40 -6 8 -5 12 4 12 10 0 10 3 1 12 -7 7 -12 16 -12
20 0 13 20 9 36 -7 17 -16 80 -13 98 5 17 17 44 11 51 -10 3 -11 11 -20 16
-20 6 0 7 -9 4 -20 -3 -11 -2 -20 3 -20 6 0 17 -18 26 -40 11 -28 22 -40 36
-40 11 0 23 -8 26 -17 18 -54 63 -128 86 -143 21 -13 25 -19 16 -28 -9 -9 -7
-12 8 -14 10 0 24 -2 29 -3 6 -2 16 -3 24 -4 8 0 12 -4 8 -7 -3 -4 4 -15 16
-26 l22 -20 -22 5 c-33 7 -28 -11 4 -19 17 -5 28 -3 31 4 6 20 22 13 22 -9 0
-17 3 -19 14 -10 10 9 17 6 30 -13 9 -14 17 -34 19 -45 2 -11 6 -23 9 -27 4
-3 5 -11 2 -18 -2 -7 2 -31 11 -55 8 -24 13 -47 10 -51 -3 -5 0 -12 5 -15 6
-4 15 -18 21 -32 5 -13 13 -21 19 -18 5 3 10 0 10 -7 0 -26 63 -56 133 -63 56
-5 67 -4 67 8 0 9 13 18 30 22 31 7 39 20 18 28 -7 3 -3 6 10 6 12 1 22 -5 22
-12 0 -7 9 -23 20 -35 11 -12 19 -23 18 -25 -5 -7 156 -177 166 -177 6 0 -2
12 -17 25 -27 24 -27 25 -6 25 12 0 20 -3 16 -6 -3 -4 1 -13 10 -22 14 -14 14
-17 -3 -29 -11 -8 -13 -13 -5 -13 7 0 26 -9 42 -21 28 -19 29 -20 29 -2 0 11
-7 28 -15 39 -18 24 -19 34 -1 34 8 0 27 11 42 24 l28 23 -27 18 c-15 10 -31
15 -35 11 -3 -4 0 -11 7 -15 8 -5 9 -11 3 -15 -5 -3 -16 1 -23 10 -10 13 -10
17 0 23 16 10 -2 51 -22 51 -14 0 -37 45 -37 72 0 10 -7 21 -15 24 -10 4 -14
17 -12 38 2 25 -2 32 -20 34 -24 4 -44 38 -62 107 -18 68 -17 70 44 70 39 0
55 -4 55 -13 0 -7 5 -10 10 -7 6 3 13 -1 16 -9 3 -9 12 -16 20 -16 8 0 11 -7
8 -17 -5 -15 -3 -14 7 1 23 37 31 97 15 115 -8 9 -14 25 -12 36 2 11 -3 26
-11 33 -7 7 -13 24 -13 38 0 13 -5 24 -10 24 -6 0 -8 13 -5 31 8 46 -23 122
-47 116 -12 -3 -25 4 -37 22 -18 24 -18 31 -6 54 7 14 10 29 7 33 -4 5 0 3 9
-4 16 -12 80 -26 113 -24 27 1 56 32 56 59 0 14 6 23 15 23 8 0 12 6 10 13 -7
17 5 31 44 50 42 21 41 21 41 1 0 -8 -4 -12 -10 -9 -5 3 -10 1 -10 -5 0 -7 -7
-9 -16 -6 -14 6 -15 4 -4 -9 7 -9 16 -12 19 -8 3 4 19 8 35 8 33 -1 56 -27 56
-66 0 -15 5 -31 10 -34 6 -4 8 -11 4 -16 -3 -5 0 -8 7 -7 13 3 15 -2 18 -38 1
-12 8 -15 25 -12 15 3 27 0 30 -8 6 -15 42 -19 49 -6 3 4 6 32 8 62 3 39 0 54
-8 53 -14 -3 -5 28 11 39 6 4 5 12 -3 22 -7 8 -10 20 -6 26 11 17 23 11 29
-15 4 -14 11 -23 16 -20 6 3 10 -2 10 -13 0 -27 70 -116 82 -104 10 10 -13 75
-31 86 -6 4 -11 14 -11 22 0 8 4 13 9 9 5 -3 13 0 17 6 4 6 0 16 -9 20 -9 6
-13 18 -11 31 l5 23 -10 -22 c-6 -14 -16 -20 -25 -17 -18 7 -28 31 -16 39 6 4
10 15 10 27 0 12 5 18 13 15 19 -7 8 75 -12 90 -14 11 -14 12 5 13 11 0 29 9
38 19 16 18 16 20 1 29 -14 7 -16 21 -13 70 1 34 0 62 -4 62 -5 0 -8 4 -8 8 0
5 10 8 23 8 19 -1 22 4 24 39 1 22 -1 32 -4 22 -7 -25 -25 -16 -34 15 -4 14
-16 35 -27 46 l-21 21 -13 -26 c-16 -33 -38 -42 -38 -15 0 11 5 22 12 24 7 3
11 27 9 69 -1 50 -6 68 -21 81 -11 9 -20 24 -20 33 0 9 -11 26 -25 39 -29 27
-25 53 8 59 22 4 22 4 0 6 -30 1 -30 19 -1 23 20 3 23 8 20 43 -2 22 -11 46
-20 53 -21 16 -35 15 -29 -2 4 -10 -3 -13 -26 -11 -26 2 -31 6 -29 24 2 12 -2
21 -10 21 -17 0 -43 53 -28 58 5 2 10 11 10 19 0 12 6 10 22 -8 13 -15 19 -18
15 -7 -3 9 -1 19 6 21 9 3 8 13 -5 35 -17 31 -15 42 8 42 8 0 11 -6 8 -13 -3
-8 2 -20 11 -27 8 -7 16 -9 16 -4 1 5 2 14 4 19 1 6 3 16 3 23 1 7 17 12 37
12 l35 0 -16 25 c-9 14 -14 28 -11 32 4 3 -9 18 -28 33 l-35 28 43 21 c23 12
32 19 19 16 -16 -5 -22 -2 -22 9 0 9 5 16 10 16 6 0 9 19 7 44 -2 25 0 43 4
40 12 -7 36 6 36 20 0 8 -9 11 -24 8 -22 -4 -23 -2 -17 24 4 16 7 31 8 34 0 3
-16 25 -36 49 -23 27 -41 40 -49 36 -9 -6 -10 0 -7 19 4 17 1 29 -7 32 -7 3
-15 14 -18 26 -4 14 -13 19 -34 18 -41 -3 -45 -1 -31 14 7 8 16 12 20 9 4 -2
5 2 2 10 -3 8 0 18 7 23 7 4 14 3 16 -3 2 -5 15 -8 28 -5 17 3 25 0 25 -9 0
-11 2 -11 10 1 13 20 13 33 0 25 -6 -3 -10 -1 -10 5 0 7 12 9 35 4 36 -6 51
11 20 22 -8 4 -15 15 -15 25 0 12 -5 16 -15 13 -8 -4 -15 -1 -15 5 0 6 -7 8
-15 5 -9 -4 -18 1 -21 10 -4 9 -19 23 -35 32 -30 15 -47 56 -32 77 5 6 8 43 7
80 -2 56 1 72 17 88 10 10 19 16 20 12 0 -5 4 2 9 15 15 36 80 27 80 -12 0
-12 6 -28 13 -35 9 -11 7 -10 -10 0 -13 8 -23 22 -23 31 0 10 -5 18 -10 18
-19 0 -22 -28 -6 -59 14 -27 14 -30 1 -25 -8 4 -15 1 -15 -5 0 -13 37 -34 49
-27 15 10 32 -21 26 -47 -5 -18 -12 -24 -22 -20 -13 5 -13 3 -2 -15 14 -23 29
-20 29 6 0 13 2 14 13 3 10 -11 9 -14 -1 -18 -6 -3 -10 -9 -6 -14 3 -5 -2 -9
-10 -9 -10 0 -16 -9 -16 -25 0 -16 6 -25 15 -25 8 0 15 7 15 16 0 16 27 43 43
44 4 0 7 -9 7 -20 0 -11 7 -23 15 -26 8 -4 13 -10 10 -14 -9 -15 17 -23 27 -9
7 11 11 11 15 2 2 -7 13 -13 23 -13 25 0 31 -43 13 -102 -12 -42 -12 -50 0
-63 11 -10 17 -11 26 -2 14 14 31 -6 31 -35 0 -10 5 -18 11 -18 8 0 9 11 5 31
-3 18 -1 50 5 73 l12 41 15 -35 c14 -34 15 -34 25 -12 5 12 13 22 17 22 5 0
11 7 14 16 3 8 2 12 -4 9 -6 -3 -13 1 -16 9 -3 9 -12 16 -20 16 -18 0 -30 48
-15 63 8 8 11 5 11 -11 0 -12 5 -22 10 -22 6 0 10 11 10 25 0 14 5 25 10 25 6
0 10 -11 10 -24 0 -19 7 -26 31 -31 17 -4 32 -5 35 -3 9 10 21 98 13 98 -5 0
-9 5 -9 10 0 6 7 10 15 10 18 0 20 19 3 25 -18 7 -18 145 -1 145 7 0 13 9 13
20 0 11 6 20 13 20 7 0 20 9 30 20 16 19 16 20 -3 20 -11 0 -20 -6 -20 -12 0
-9 -4 -8 -10 2 -7 11 -10 11 -10 2 0 -9 -5 -10 -19 -3 -13 7 -809 11 -2405 11
l-2386 0 0 -1079z m4184 1007 c-7 -11 -34 -10 -34 1 0 6 9 9 19 8 11 0 17 -5
15 -9z m5 -34 c-11 -14 -11 -18 4 -29 9 -7 17 -16 17 -20 0 -5 -3 -6 -6 -2 -3
3 -17 1 -31 -4 -18 -6 -30 -6 -39 2 -20 16 -17 29 5 29 11 0 23 9 26 20 3 11
13 20 22 20 13 0 13 -2 2 -16z m2202 -214 c-5 -23 -9 -24 -26 -7 -8 9 -15 27
-15 41 l0 26 22 -22 c13 -13 21 -30 19 -38z m-36 -49 c7 -12 -12 -24 -25 -16
-11 7 -4 25 10 25 5 0 11 -4 15 -9z m-47 -172 c-2 -6 -8 -10 -13 -10 -5 0 -11
4 -13 10 -2 6 4 11 13 11 9 0 15 -5 13 -11z m866 -23 c-3 -9 -10 -13 -16 -10
-5 3 -4 12 3 20 15 18 22 13 13 -10z m31 4 c3 -5 1 -10 -4 -10 -6 0 -11 5 -11
10 0 6 2 10 4 10 3 0 8 -4 11 -10z m-134 -47 c-8 -15 -10 -15 -11 -2 0 17 10
32 18 25 2 -3 -1 -13 -7 -23z m134 7 c-3 -5 -10 -10 -16 -10 -5 0 -9 5 -9 10
0 6 7 10 16 10 8 0 12 -4 9 -10z m-301 -294 c-21 -15 -30 -14 -19 3 3 6 14 11
23 11 13 0 13 -2 -4 -14z m-124 -16 c0 -5 7 -10 15 -10 8 0 15 -5 15 -11 0 -5
-5 -7 -12 -3 -7 5 -8 3 -3 -5 4 -7 17 -10 30 -7 16 4 25 1 29 -10 13 -33 6
-42 -33 -42 -22 0 -49 -6 -60 -11 -13 -7 -22 -8 -26 -1 -9 15 -25 12 -25 -6 0
-8 5 -12 10 -9 6 3 10 2 10 -3 0 -6 -7 -12 -15 -16 -24 -9 -38 -55 -39 -121
-1 -42 -5 -59 -13 -57 -7 1 -13 -2 -13 -8 0 -5 5 -10 10 -10 16 0 12 -20 -10
-47 -11 -15 -18 -29 -15 -32 4 -3 10 1 15 9 8 12 10 9 11 -10 2 -80 12 -108
41 -120 22 -8 22 -9 3 -9 -12 -1 -26 4 -33 9 -9 7 -9 7 -2 -2 6 -7 10 -22 10
-35 0 -14 6 -23 15 -23 9 0 -3 -19 -32 -49 -49 -50 -73 -56 -73 -16 0 15 -7
25 -21 28 -12 3 -18 10 -14 16 3 6 1 11 -4 11 -18 0 -12 35 9 53 11 9 24 17
29 17 9 0 25 30 23 43 -1 4 4 7 12 7 8 0 16 7 20 15 6 17 -15 20 -31 4 -8 -8
-13 -5 -18 11 -5 15 -2 25 6 31 11 7 11 12 2 27 -9 15 -8 25 3 47 8 15 12 30
9 33 -3 3 -5 0 -5 -6 0 -7 -4 -12 -9 -12 -12 0 -23 55 -25 125 -1 53 3 65 33
108 19 26 39 47 44 47 6 0 3 -8 -5 -17 -9 -10 -18 -30 -20 -45 l-5 -28 38 33
c20 17 38 38 38 45 2 32 81 92 81 62z m-2406 -78 c5 -3 1 -9 -8 -14 -11 -6
-22 -6 -31 2 -29 24 1 33 39 12z m-2220 -138 c9 -24 2 -26 -12 -4 -7 11 -8 20
-3 20 5 0 12 -7 15 -16z m4301 -4 c3 -5 1 -10 -4 -10 -6 0 -11 5 -11 10 0 6 2
10 4 10 3 0 8 -4 11 -10z m-135 -10 c0 -5 -4 -10 -10 -10 -5 0 -10 5 -10 10 0
6 5 10 10 10 6 0 10 -4 10 -10z m130 -20 c0 -5 -2 -10 -4 -10 -3 0 -8 5 -11
10 -3 6 -1 10 4 10 6 0 11 -4 11 -10z m-4300 -30 c0 -5 -4 -10 -10 -10 -5 0
-10 5 -10 10 0 6 5 10 10 10 6 0 10 -4 10 -10z m2190 -87 c0 -11 -3 -13 -13
-5 -14 12 -47 -7 -47 -27 0 -14 -10 -14 -30 0 -12 8 -12 10 -1 7 8 -2 27 9 43
24 30 29 48 29 48 1z m2130 -25 c0 -10 -3 -18 -7 -18 -12 0 -33 51 -27 62 8
12 33 -22 34 -44z m80 -148 c0 -5 -7 -10 -16 -10 -8 0 -12 5 -9 10 3 6 10 10
16 10 5 0 9 -4 9 -10z m170 -243 c0 -2 -10 -12 -21 -23 -22 -19 -22 -19 -10 4
10 18 31 31 31 19z m-2273 -59 c-3 -8 -6 -5 -6 6 -1 11 2 17 5 13 3 -3 4 -12
1 -19z m1860 -80 c-3 -7 -5 -2 -5 12 0 14 2 19 5 13 2 -7 2 -19 0 -25z m39
-65 c-8 -15 -15 -22 -16 -15 0 17 20 55 27 49 2 -3 -2 -18 -11 -34z m2042 13
c-10 -7 -15 -15 -12 -18 2 -3 -2 -8 -11 -11 -8 -4 -15 -3 -15 0 0 12 43 53 49
47 3 -3 -2 -11 -11 -18z m-3970 -55 c2 -11 8 -21 13 -21 5 0 9 -9 9 -20 0 -11
-7 -20 -16 -20 -9 0 -12 5 -8 12 4 7 3 8 -4 4 -7 -4 -22 0 -34 10 -16 11 -17
15 -5 11 11 -4 17 -1 17 9 0 8 -4 12 -10 9 -6 -3 -10 5 -10 19 0 22 3 24 23
17 12 -4 23 -18 25 -30z m-168 4 c0 -14 -2 -25 -4 -25 -2 0 -6 11 -8 25 -3 14
-1 25 3 25 5 0 9 -11 9 -25z m-193 -30 c0 -8 -4 -15 -9 -15 -10 0 -11 14 -1
23 9 10 10 9 10 -8z m3645 -28 c-11 -12 -22 -29 -25 -37 -4 -11 -6 -11 -6 3
-1 24 41 85 47 68 2 -7 -5 -22 -16 -34z m608 28 c-33 -19 -50 -18 -26 0 11 8
27 15 35 15 10 -1 7 -6 -9 -15z m-4120 -25 c13 -11 27 -20 31 -20 13 0 39 -56
39 -85 0 -14 5 -25 10 -25 6 0 10 -5 10 -11 0 -18 -59 34 -66 59 -4 15 -14 22
-29 22 -28 0 -62 30 -45 40 6 4 8 14 4 23 -9 24 17 22 46 -3z m3449 -40 c-12
-22 -23 -40 -25 -40 -8 0 5 52 17 66 23 28 28 13 8 -26z m-3254 -8 c-8 -8 -25
10 -25 26 0 13 2 13 14 -4 8 -10 13 -21 11 -22z m3849 -30 c0 -25 3 -39 9 -35
6 3 7 1 3 -6 -4 -6 -12 -9 -17 -6 -5 4 -9 0 -9 -7 0 -7 -20 -26 -44 -43 -24
-16 -42 -33 -40 -37 3 -4 -8 -10 -23 -14 -15 -4 -33 -11 -40 -16 -7 -5 -18 -6
-24 -2 -7 4 -9 3 -5 -4 3 -6 1 -14 -6 -18 -7 -4 -10 -4 -6 0 3 4 2 21 -2 37
-7 22 -5 29 6 29 8 0 14 5 14 11 0 5 4 8 9 5 5 -3 12 1 15 10 3 8 2 12 -4 9
-6 -3 -10 -4 -10 -1 0 2 -3 11 -6 19 -4 11 3 15 33 15 21 -1 46 3 56 7 12 5
17 3 17 -8 0 -9 5 -19 11 -23 9 -5 10 1 5 19 -5 22 -2 29 21 40 27 14 27 14 4
22 -22 7 -22 8 -5 26 25 28 39 18 38 -29z m-582 6 c-7 -7 -12 -8 -12 -2 0 14
12 26 19 19 2 -3 -1 -11 -7 -17z m-3282 -72 c-1 -20 -30 27 -30 48 0 18 3 16
15 -8 8 -15 15 -33 15 -40z m3522 20 c20 6 20 6 1 -13 -11 -11 -30 -22 -41
-25 -17 -5 -22 -2 -22 14 0 10 5 16 10 13 6 -3 10 4 10 18 0 34 14 44 18 13 3
-22 7 -26 24 -20z m288 40 c0 -3 -4 -8 -10 -11 -5 -3 -10 -1 -10 4 0 6 5 11
10 11 6 0 10 -2 10 -4z m-4514 -84 c-10 -11 -16 -12 -16 -4 0 7 5 12 10 12 6
0 10 8 11 18 0 11 2 13 6 4 3 -8 -2 -21 -11 -30z m3898 23 c3 -8 1 -15 -4 -15
-6 0 -10 7 -10 15 0 8 2 15 4 15 2 0 6 -7 10 -15z m160 -11 c9 -3 16 -12 16
-19 0 -7 6 -15 13 -18 6 -2 9 -8 5 -12 -8 -8 -38 18 -38 33 0 6 -10 8 -22 5
-19 -4 -20 -3 -8 6 18 13 15 12 34 5z m-1267 -26 c-3 -8 -6 -5 -6 6 -1 11 2
17 5 13 3 -3 4 -12 1 -19z m-41 2 c14 0 24 -6 24 -14 0 -17 -27 -29 -35 -15
-4 5 -11 6 -17 3 -6 -4 -14 0 -19 7 -13 21 -11 32 7 25 9 -3 27 -6 40 -6z
m1414 -1 c11 -8 12 -12 3 -16 -7 -2 -13 -11 -13 -19 0 -8 -4 -14 -10 -14 -14
0 -12 27 3 33 9 4 8 8 -3 16 -8 6 -10 11 -5 11 6 0 17 -5 25 -11z m-4175 -29
c-3 -5 4 -17 16 -27 39 -32 69 -65 64 -73 -3 -4 2 -11 11 -14 8 -3 13 -10 10
-15 -3 -5 1 -11 9 -15 20 -7 19 -26 -1 -26 -9 0 -12 5 -8 12 4 7 3 8 -5 4 -15
-9 -81 31 -81 50 0 8 -5 14 -11 14 -6 0 -9 9 -6 20 3 11 0 20 -6 20 -6 0 -7 3
-4 6 3 4 2 15 -3 25 -7 12 -6 19 3 22 18 8 19 8 12 -3z m4135 -15 c0 -8 -4
-15 -10 -15 -5 0 -10 7 -10 15 0 8 5 15 10 15 6 0 10 -7 10 -15z m158 8 c-10
-2 -18 -9 -18 -15 0 -6 9 -8 19 -5 14 3 18 1 14 -9 -6 -16 -19 -18 -28 -4 -3
5 -12 7 -20 3 -19 -7 -19 2 1 21 8 9 23 15 32 15 15 -1 15 -2 0 -6z m59 -25
c-3 -7 -5 -2 -5 12 0 14 2 19 5 13 2 -7 2 -19 0 -25z m673 2 c-19 -12 -40 -13
-40 -1 0 9 40 20 50 13 2 -2 -2 -7 -10 -12z m-4690 -5 c0 -12 -19 -12 -23 0
-4 9 -1 12 9 8 7 -3 14 -7 14 -8z m3732 -10 c4 -20 3 -23 -8 -14 -16 13 -19
39 -5 39 5 0 11 -11 13 -25z m378 5 c0 -5 -5 -10 -11 -10 -5 0 -7 5 -4 10 3 6
8 10 11 10 2 0 4 -4 4 -10z m463 -14 c4 -10 1 -13 -8 -9 -8 3 -12 9 -9 14 7
12 11 11 17 -5z m-6228 -6 c3 -5 1 -10 -4 -10 -6 0 -11 5 -11 10 0 6 2 10 4
10 3 0 8 -4 11 -10z m766 -40 c5 0 9 -12 9 -27 0 -28 0 -28 -18 7 -10 19 -16
42 -13 50 4 11 7 8 9 -7 2 -13 8 -23 13 -23z m4616 -12 c-3 -8 -6 -5 -6 6 -1
11 2 17 5 13 3 -3 4 -12 1 -19z m137 13 c3 -5 -1 -11 -9 -14 -9 -4 -12 -1 -8
9 6 16 10 17 17 5z m696 -6 c0 -8 5 -15 11 -15 5 0 8 -4 4 -10 -3 -5 -12 -7
-19 -4 -8 3 -17 1 -21 -5 -3 -6 -16 -12 -28 -12 -18 -1 -18 -2 -4 -6 16 -4 15
-7 -7 -24 -13 -10 -29 -19 -35 -19 -6 0 -11 -9 -11 -20 0 -13 -7 -20 -20 -20
-20 0 -43 -37 -33 -53 6 -10 -17 -98 -28 -111 -5 -6 -9 -19 -9 -31 0 -11 -6
-29 -14 -40 -7 -11 -17 -34 -20 -52 -4 -17 -14 -34 -22 -37 -8 -3 -14 -15 -14
-26 0 -11 -5 -20 -10 -20 -6 0 -8 11 -4 25 5 19 2 25 -10 25 -9 0 -16 6 -16
13 0 22 31 58 48 55 12 -2 18 5 20 25 2 15 9 27 15 27 8 0 13 22 15 62 2 35 8
66 14 69 6 4 4 9 -5 12 -14 5 -14 11 -1 53 19 64 33 80 49 57 11 -15 15 -15
30 -3 9 8 21 25 26 38 6 16 14 22 25 18 9 -4 24 4 37 19 25 28 37 32 37 10z
m229 6 c8 -5 9 -11 3 -15 -5 -3 -15 1 -22 9 -14 16 -3 20 19 6z m-1467 -42
c-4 -28 -42 -82 -42 -61 0 4 5 13 11 19 10 10 16 32 18 61 1 6 5 12 9 12 5 0
6 -14 4 -31z m-4677 -14 c0 -18 -5 -25 -17 -25 -10 0 -18 5 -18 11 0 5 5 7 10
4 6 -4 10 5 10 21 0 34 13 24 15 -11z m22 -7 c-3 -7 -5 -2 -5 12 0 14 2 19 5
13 2 -7 2 -19 0 -25z m-50 16 c-3 -3 -12 -4 -19 -1 -8 3 -5 6 6 6 11 1 17 -2
13 -5z m-197 -66 c11 -12 20 -33 21 -47 0 -14 3 -20 6 -13 2 6 12 12 20 12 12
0 13 3 3 15 -13 15 -6 35 13 35 7 0 6 -4 -3 -10 -11 -7 -8 -11 15 -21 17 -7
34 -11 38 -10 4 1 7 -7 5 -16 -2 -12 3 -17 15 -15 19 3 24 -24 5 -31 -10 -4
-9 -8 2 -16 10 -7 17 -6 22 2 4 7 6 -4 4 -23 -3 -19 -5 -39 -6 -45 0 -5 -6 -3
-13 5 -7 9 -21 16 -32 17 -37 2 -49 8 -65 28 -20 26 -40 71 -40 92 0 9 -10 27
-22 40 -12 13 -19 23 -15 23 3 0 15 -10 27 -22z m5310 -74 c0 -17 -26 -19 -36
-3 -7 12 15 31 28 23 4 -3 8 -12 8 -20z m-1300 -24 c0 -5 -2 -10 -4 -10 -3 0
-8 5 -11 10 -3 6 -1 10 4 10 6 0 11 -4 11 -10z m715 0 c-3 -5 -12 -10 -18 -10
-7 0 -6 4 3 10 19 12 23 12 15 0z m582 -42 c-3 -7 -5 -2 -5 12 0 14 2 19 5 13
2 -7 2 -19 0 -25z m-4882 -17 c-3 -12 0 -21 10 -25 8 -3 15 -12 15 -21 0 -18
26 -20 33 -2 3 7 6 5 6 -5 1 -10 -3 -18 -9 -18 -5 0 -10 -5 -10 -11 0 -5 5 -7
10 -4 6 3 10 -1 10 -9 0 -9 -2 -16 -5 -16 -14 0 -95 105 -95 125 0 3 9 5 21 5
15 0 19 -5 14 -19z m5405 -151 c0 -5 -5 -10 -11 -10 -5 0 -7 5 -4 10 3 6 8 10
11 10 2 0 4 -4 4 -10z m-673 -6 c-3 -3 -12 -4 -19 -1 -8 3 -5 6 6 6 11 1 17
-2 13 -5z m2283 -3 c0 -5 -8 -12 -17 -15 -15 -6 -15 -8 -3 -16 17 -11 1 -13
-23 -4 -14 5 -13 8 1 25 17 20 42 26 42 10z m-2377 -28 c-7 -2 -19 -2 -25 0
-7 3 -2 5 12 5 14 0 19 -2 13 -5z m704 -9 c-3 -3 -12 -4 -19 -1 -8 3 -5 6 6 6
11 1 17 -2 13 -5z m-550 -26 c-3 -8 -6 -5 -6 6 -1 11 2 17 5 13 3 -3 4 -12 1
-19z m858 2 c3 -5 -1 -10 -10 -10 -9 0 -13 5 -10 10 3 6 8 10 10 10 2 0 7 -4
10 -10z m-6545 -43 c0 -5 7 -15 17 -22 14 -11 13 -13 -9 -17 -14 -3 -34 1 -44
9 -10 7 -14 13 -9 13 5 0 0 7 -11 16 -18 15 -18 15 9 11 27 -4 27 -4 10 16
-18 20 -18 20 10 2 15 -9 27 -22 27 -28z m6246 16 c-10 -10 -19 5 -10 18 6 11
8 11 12 0 2 -7 1 -15 -2 -18z m1200 11 c-6 -15 -4 -15 11 -3 11 9 14 10 9 2
-4 -8 -2 -13 8 -13 8 0 18 -5 22 -12 5 -7 0 -9 -14 -6 -12 4 -20 1 -19 -5 1
-5 -16 -12 -38 -15 l-40 -4 19 21 c11 12 15 21 10 21 -14 0 -34 -22 -34 -36 0
-6 -16 -28 -35 -48 -19 -21 -33 -42 -30 -46 3 -5 -4 -19 -16 -31 -16 -16 -18
-23 -9 -29 9 -6 5 -16 -16 -39 -48 -54 -60 -36 -18 30 14 22 24 49 22 59 -2
10 11 33 27 51 17 18 24 29 18 25 -7 -4 -13 -3 -13 2 0 12 85 72 104 72 8 0
18 5 21 10 10 16 18 11 11 -6z m-1146 -34 c-24 -15 -36 -11 -14 4 10 8 21 12
24 10 2 -3 -2 -9 -10 -14z m1230 1 c0 -6 -4 -12 -8 -15 -5 -3 -9 1 -9 9 0 8 4
15 9 15 4 0 8 -4 8 -9z m-1015 -11 c3 -5 1 -10 -4 -10 -6 0 -11 5 -11 10 0 6
2 10 4 10 3 0 8 -4 11 -10z m1235 6 c0 -3 -4 -8 -10 -11 -5 -3 -10 -1 -10 4 0
6 5 11 10 11 6 0 10 -2 10 -4z m-7845 -36 c3 -5 1 -10 -4 -10 -6 0 -11 5 -11
10 0 6 2 10 4 10 3 0 8 -4 11 -10z m6412 4 c-3 -3 -12 -4 -19 -1 -8 3 -5 6 6
6 11 1 17 -2 13 -5z m-6242 -34 c8 -13 -5 -13 -25 0 -13 8 -13 10 2 10 9 0 20
-4 23 -10z m155 -60 c0 -5 -2 -10 -4 -10 -3 0 -8 5 -11 10 -3 6 -1 10 4 10 6
0 11 -4 11 -10z m536 -34 c19 -20 18 -40 -2 -32 -9 3 -18 6 -20 6 -2 0 -4 9
-4 20 0 24 6 25 26 6z m-229 -63 c4 -11 -8 -11 -37 0 -8 3 -22 8 -30 11 -8 3
3 4 24 3 22 -1 41 -7 43 -14z m1573 -154 c0 -6 -4 -7 -10 -4 -5 3 -10 11 -10
16 0 6 5 7 10 4 6 -3 10 -11 10 -16z m5209 5 c16 10 14 -19 -3 -33 -18 -15
-39 9 -30 34 5 12 9 13 14 5 4 -7 13 -9 19 -6z m-2192 -56 c-3 -7 -5 -2 -5 12
0 14 2 19 5 13 2 -7 2 -19 0 -25z m213 -91 c0 -2 -10 -12 -22 -23 l-23 -19 19
23 c18 21 26 27 26 19z m1575 -27 c3 -5 1 -10 -4 -10 -6 0 -11 5 -11 10 0 6 2
10 4 10 3 0 8 -4 11 -10z m-40 -10 c3 -5 -1 -10 -10 -10 -9 0 -13 5 -10 10 3
6 8 10 10 10 2 0 7 -4 10 -10z m-935 -93 c0 -8 -17 -19 -37 -25 -38 -12 -60
-8 -27 5 10 4 25 13 32 20 17 17 32 17 32 0z m137 -34 c-4 -3 -19 -2 -34 2
l-28 8 30 6 c28 6 45 -3 32 -16z m-757 -5 c0 -6 -3 -8 -6 -5 -4 3 -15 2 -26
-4 -11 -6 -22 -8 -25 -5 -3 3 5 10 18 15 33 13 39 13 39 -1z m570 -22 c0 -2
-7 -7 -16 -10 -8 -3 -12 -2 -9 4 6 10 25 14 25 6z m430 0 c0 -3 -4 -8 -10 -11
-5 -3 -10 -1 -10 4 0 6 5 11 10 11 6 0 10 -2 10 -4z m83 -52 c-16 -24 -18 -26
-22 -9 -2 10 5 25 15 32 25 18 28 9 7 -23z m29 -59 c3 -14 1 -25 -3 -25 -5 0
-9 7 -9 15 0 8 -5 15 -11 15 -5 0 -7 5 -4 10 11 17 22 11 27 -15z m-112 -49
c0 -2 -7 -7 -16 -10 -8 -3 -12 -2 -9 4 6 10 25 14 25 6z m-5913 -22 c-3 -3
-12 -4 -19 -1 -8 3 -5 6 6 6 11 1 17 -2 13 -5z m5733 -144 c-8 -5 -19 -10 -25
-10 -5 0 -3 5 5 10 8 5 20 10 25 10 6 0 3 -5 -5 -10z m-44 -96 c-3 -9 -6 -18
-6 -20 0 -2 -7 -4 -15 -4 -18 0 -19 6 -2 25 16 19 31 19 23 -1z m61 -56 c-3
-8 -6 -5 -6 6 -1 11 2 17 5 13 3 -3 4 -12 1 -19z m-12 -98 c-3 -5 -16 -10 -28
-9 -20 1 -20 2 3 9 14 4 26 8 28 9 2 1 0 -3 -3 -9z m-5405 -97 c0 -28 -34 -8
-45 26 l-7 24 26 -19 c14 -11 26 -25 26 -31z m-421 8 c23 -18 22 -42 -2 -40
-8 0 -7 3 2 6 9 4 5 12 -15 29 -34 27 -20 32 15 5z m581 -14 c0 -5 -4 -5 -10
-2 -5 3 -10 14 -10 23 0 15 2 15 10 2 5 -8 10 -19 10 -23z m-50 -3 c0 -2 -7
-4 -15 -4 -8 0 -15 4 -15 10 0 5 7 7 15 4 8 -4 15 -8 15 -10z m4854 -200 c3
-8 2 -12 -4 -9 -6 3 -10 10 -10 16 0 14 7 11 14 -7z m-4584 -73 c0 -3 -12 -7
-28 -8 -15 -1 -36 -3 -46 -5 -10 -2 -21 3 -23 10 -3 8 7 12 31 12 20 0 36 5
36 11 0 8 5 8 15 -1 8 -7 15 -15 15 -19z m4600 25 c0 -3 -4 -8 -10 -11 -5 -3
-10 -1 -10 4 0 6 5 11 10 11 6 0 10 -2 10 -4z m-4420 -131 c0 -8 -2 -15 -4
-15 -2 0 -6 7 -10 15 -3 8 -1 15 4 15 6 0 10 -7 10 -15z m4165 -155 c-10 -11
-20 -18 -23 -15 -7 6 18 35 31 35 5 0 2 -9 -8 -20z m-3575 -130 c0 -5 -4 -10
-10 -10 -5 0 -10 5 -10 10 0 6 5 10 10 10 6 0 10 -4 10 -10z m3215 -89 c10
-18 -36 -24 -53 -7 -15 15 -14 16 15 16 18 0 34 -4 38 -9z m274 -25 c0 -6 -8
-24 -18 -41 -14 -23 -24 -29 -45 -27 -18 2 -25 -1 -21 -7 3 -6 1 -11 -4 -11
-6 0 -11 5 -11 10 0 6 -24 10 -54 10 -90 0 -104 47 -16 56 35 3 43 1 47 -15 3
-13 11 -17 24 -14 24 7 25 20 2 26 -12 3 -8 5 9 6 15 0 29 5 32 10 8 13 56 10
55 -3z m-243 -92 l29 -15 -37 3 c-21 2 -38 1 -38 -3 0 -4 -11 -9 -24 -11 -18
-4 -22 -1 -19 13 5 16 19 25 49 28 7 0 25 -6 40 -15z m44 -88 c48 -12 138 -10
154 3 11 9 16 10 16 2 0 -24 -48 -43 -92 -35 -24 4 -70 7 -103 7 -49 0 -54 1
-25 7 l35 6 -30 8 c-16 4 -34 10 -40 12 -14 5 54 -2 85 -10z m122 -58 c-9 -9
-15 -9 -24 0 -9 9 -7 12 12 12 19 0 21 -3 12 -12z m1119 -199 c-13 -11 -30
-18 -37 -15 -7 3 -16 1 -19 -4 -4 -6 -11 -10 -18 -10 -20 0 6 18 48 33 53 19
54 19 26 -4z m-5581 -9 c0 -5 -4 -10 -10 -10 -5 0 -10 5 -10 10 0 6 5 10 10
10 6 0 10 -4 10 -10z m5557 -50 c-6 -23 3 -26 22 -7 10 10 11 8 5 -8 -4 -11
-14 -25 -22 -31 -8 -6 -12 -16 -8 -22 6 -10 -39 -8 -71 3 -7 2 -13 0 -13 -5 0
-6 -5 -10 -11 -10 -5 0 -7 5 -4 10 12 19 -11 10 -25 -11 -16 -23 -69 -54 -77
-45 -3 3 6 19 20 36 14 16 28 39 32 50 4 14 15 20 34 20 16 0 34 6 41 14 6 8
24 17 38 19 15 2 31 5 36 6 4 0 6 -8 3 -19z m-2219 -67 c-10 -2 -28 -2 -40 0
-13 2 -5 4 17 4 22 1 32 -1 23 -4z m587 -13 c3 -5 -1 -10 -10 -10 -9 0 -13 5
-10 10 3 6 8 10 10 10 2 0 7 -4 10 -10z m-35 -20 c0 -5 -4 -10 -10 -10 -5 0
-10 5 -10 10 0 6 5 10 10 10 6 0 10 -4 10 -10z m783 3 c-7 -2 -19 -2 -25 0 -7
3 -2 5 12 5 14 0 19 -2 13 -5z m-496 -25 c-3 -8 -6 -5 -6 6 -1 11 2 17 5 13 3
-3 4 -12 1 -19z m403 12 c0 -5 -5 -10 -11 -10 -5 0 -7 5 -4 10 3 6 8 10 11 10
2 0 4 -4 4 -10z m-5883 -25 c35 -21 47 -53 16 -40 -10 4 -26 10 -35 12 -10 3
-18 9 -18 13 0 5 -3 16 -7 26 -7 19 -3 18 44 -11z m5353 1 c0 -3 -4 -8 -10
-11 -5 -3 -10 -1 -10 4 0 6 5 11 10 11 6 0 10 -2 10 -4z m-3773 -17 c-14 -8
-22 -8 -30 0 -8 8 -3 11 19 11 25 -1 27 -2 11 -11z m-144 -26 c-29 -2 -77 -2
-105 0 -29 2 -6 3 52 3 58 0 81 -1 53 -3z m4847 -67 c0 -3 -4 -8 -10 -11 -5
-3 -10 -1 -10 4 0 6 5 11 10 11 6 0 10 -2 10 -4z m-1005 -36 c4 -6 -9 -10 -32
-9 -30 0 -34 2 -18 9 27 12 43 12 50 0z m846 -4 c-19 -10 -31 -11 -48 -3 -19
8 -26 7 -37 -9 -13 -17 -12 -20 2 -25 14 -5 14 -6 -2 -12 -25 -10 -66 -9 -66
2 0 5 14 21 31 35 25 21 41 26 87 26 53 -1 55 -2 33 -14z m-3983 -33 c-10 -2
-26 -2 -35 0 -10 3 -2 5 17 5 19 0 27 -2 18 -5z m4018 -33 c0 -11 -6 -22 -13
-24 -14 -6 -16 4 -7 28 9 22 20 20 20 -4z m-1121 0 c13 -5 14 -9 5 -9 -8 0
-24 4 -35 9 -13 5 -14 9 -5 9 8 0 24 -4 35 -9z m78 -7 c-7 -2 -21 -2 -30 0
-10 3 -4 5 12 5 17 0 24 -2 18 -5z m-4286 -40 c3 -10 13 -27 22 -38 15 -19 15
-19 -4 -5 -33 24 -45 38 -45 49 0 18 20 13 27 -6z m4263 7 c0 -5 -16 -10 -35
-10 -19 0 -35 5 -35 10 0 6 16 10 35 10 19 0 35 -4 35 -10z m795 0 c3 -5 0
-10 -7 -10 -7 0 -24 -14 -37 -31 -18 -22 -26 -27 -32 -17 -13 20 -11 25 24 47
36 24 43 25 52 11z m-3875 -30 c0 -5 -4 -10 -10 -10 -5 0 -10 5 -10 10 0 6 5
10 10 10 6 0 10 -4 10 -10z m257 -26 c-3 -3 -12 -4 -19 -1 -8 3 -5 6 6 6 11 1
17 -2 13 -5z m-287 -14 c-8 -5 -19 -10 -25 -10 -5 0 -3 5 5 10 8 5 20 10 25
10 6 0 3 -5 -5 -10z m3087 4 c-3 -3 -12 -4 -19 -1 -8 3 -5 6 6 6 11 1 17 -2
13 -5z m-3170 -20 c-3 -3 -12 -4 -19 -1 -8 3 -5 6 6 6 11 1 17 -2 13 -5z
m3075 -16 c-45 -7 -67 -7 -75 1 -8 8 9 11 64 10 l74 -2 -63 -9z m111 5 c-7 -2
-19 -2 -25 0 -7 3 -2 5 12 5 14 0 19 -2 13 -5z m44 -9 c-3 -3 -12 -4 -19 -1
-8 3 -5 6 6 6 11 1 17 -2 13 -5z m516 -29 c-19 -26 -33 -32 -33 -15 0 14 33
48 43 43 4 -2 -1 -15 -10 -28z m-4427 -7 c16 -18 21 -26 12 -19 -16 12 -18 11
-18 -5 -1 -18 -1 -18 -16 1 -8 11 -12 25 -10 32 3 6 0 14 -7 17 -7 2 -7 5 -1
5 5 1 23 -13 40 -31z m3781 26 c-3 -3 -12 -4 -19 -1 -8 3 -5 6 6 6 11 1 17 -2
13 -5z m198 -15 c-18 -5 -33 -5 -39 1 -7 7 4 10 30 9 39 -1 39 -1 9 -10z
m-4031 -42 c7 -6 6 -7 -4 -4 -8 2 -16 12 -17 23 -2 13 -1 15 4 4 3 -8 11 -19
17 -23z m4416 13 c0 -5 -5 -10 -11 -10 -5 0 -7 5 -4 10 3 6 8 10 11 10 2 0 4
-4 4 -10z m-45 -22 c-11 -6 -26 -20 -33 -30 -7 -10 -19 -18 -25 -18 -7 0 -4 7
6 14 9 7 17 16 17 19 0 10 -45 -7 -56 -21 -6 -8 -19 -12 -30 -9 -16 4 -15 5 4
6 14 1 22 6 19 14 -2 8 14 16 47 23 67 15 75 16 51 2z m21 -29 c3 -6 1 -16 -5
-22 -9 -9 -14 -8 -21 3 -9 15 -4 30 10 30 5 0 12 -5 16 -11z m-3013 -16 c-13
-2 -33 -2 -45 0 -13 2 -3 4 22 4 25 0 35 -2 23 -4z m2772 -3 c3 -5 1 -10 -4
-10 -6 0 -11 5 -11 10 0 6 2 10 4 10 3 0 8 -4 11 -10z m-3995 -25 c0 -8 -2
-15 -4 -15 -2 0 -6 7 -10 15 -3 8 -1 15 4 15 6 0 10 -7 10 -15z m947 -11 c-3
-3 -12 -4 -19 -1 -8 3 -5 6 6 6 11 1 17 -2 13 -5z m-960 -25 c4 -12 11 -18 20
-15 8 3 11 1 8 -4 -3 -6 1 -10 9 -10 8 0 24 -13 36 -30 16 -22 17 -28 6 -24
-9 3 -16 10 -16 15 0 5 -7 9 -16 9 -16 0 -44 28 -65 63 -7 12 -6 17 2 17 6 0
13 -9 16 -21z m920 5 c-3 -3 -12 -4 -19 -1 -8 3 -5 6 6 6 11 1 17 -2 13 -5z
m-750 -50 c-3 -3 -12 -4 -19 -1 -8 3 -5 6 6 6 11 1 17 -2 13 -5z m3981 -11
c-16 -15 -19 -15 -50 0 l-33 17 50 0 c46 0 48 -1 33 -17z m117 -23 c3 -5 -1
-10 -9 -10 -8 0 -18 5 -21 10 -3 6 1 10 9 10 8 0 18 -4 21 -10z m665 -50 c0
-5 -5 -10 -11 -10 -5 0 -7 5 -4 10 3 6 8 10 11 10 2 0 4 -4 4 -10z m-1113 -6
c-3 -3 -12 -4 -19 -1 -8 3 -5 6 6 6 11 1 17 -2 13 -5z m-3482 -54 c3 6 14 10
23 10 15 0 15 -2 2 -11 -11 -8 -12 -12 -2 -16 21 -8 13 -23 -13 -23 -31 0 -65
33 -65 63 1 22 1 21 25 -5 13 -16 27 -23 30 -18z m-435 -24 c0 -2 -9 -2 -20 1
-11 3 -20 9 -20 15 0 5 9 4 20 -2 11 -6 20 -12 20 -14z m4441 -4 c-7 -2 -18 1
-23 6 -8 8 -4 9 13 5 13 -4 18 -8 10 -11z m-3351 -62 c0 -5 -2 -10 -4 -10 -3
0 -8 5 -11 10 -3 6 -1 10 4 10 6 0 11 -4 11 -10z m2685 -10 c3 -6 -1 -7 -9 -4
-18 7 -21 14 -7 14 6 0 13 -4 16 -10z m779 -26 c36 -5 43 -10 38 -23 -5 -14
-3 -14 10 -3 13 10 22 11 38 2 20 -10 117 -33 203 -47 20 -3 37 -10 37 -14 0
-5 7 -9 16 -9 12 0 15 -6 10 -25 -5 -19 -2 -25 10 -25 11 0 15 6 11 20 -3 11
-1 20 4 20 5 0 9 -6 9 -13 0 -8 10 -18 22 -24 46 -20 -108 -13 -223 11 -73 16
-116 21 -120 14 -4 -6 -9 -4 -12 5 -4 12 4 16 39 19 25 2 48 0 53 -5 9 -9 41
1 41 14 0 5 -10 10 -22 11 -13 0 -27 2 -33 3 -5 2 -18 3 -28 4 -12 1 -16 6
-11 14 4 6 4 9 -1 5 -4 -4 -15 -2 -23 5 -13 10 -14 9 -3 -13 11 -22 10 -23 -2
-7 -8 9 -19 17 -25 17 -5 0 -12 7 -16 15 -3 8 -12 12 -21 9 -8 -3 -15 -1 -15
5 0 6 -12 11 -27 11 -16 0 -35 5 -43 11 -12 8 -9 9 13 5 15 -4 47 -9 71 -12z
m-4119 -23 c3 -5 30 -15 60 -21 30 -6 55 -13 55 -16 0 -2 -28 -3 -62 -3 -42 1
-56 4 -43 10 11 4 15 8 9 8 -15 1 -51 30 -37 31 6 0 14 -4 18 -9z m4405 -31
c0 -5 -5 -10 -11 -10 -5 0 -7 5 -4 10 3 6 8 10 11 10 2 0 4 -4 4 -10z m110
-10 c22 -11 53 -20 69 -20 23 0 29 -4 25 -15 -8 -19 -40 -14 -102 16 -26 13
-57 22 -69 21 -13 -1 -23 3 -23 8 0 17 59 11 100 -10z m-4276 -5 c3 -8 1 -15
-4 -15 -6 0 -10 5 -10 11 0 6 -9 8 -21 4 -15 -5 -19 -4 -15 4 10 16 43 13 50
-4z m2369 -7 c21 -11 21 -11 2 -19 -33 -13 -65 -10 -65 5 0 13 13 23 33 25 5
1 18 -4 30 -11z m1540 5 c-7 -2 -19 -2 -25 0 -7 3 -2 5 12 5 14 0 19 -2 13 -5z
m-146 -9 c-3 -3 -12 -4 -19 -1 -8 3 -5 6 6 6 11 1 17 -2 13 -5z m-1284 -31
c-26 -9 -12 -21 37 -34 27 -7 47 -15 45 -17 -9 -9 -55 -11 -55 -2 0 4 -17 12
-37 17 -40 9 -57 33 -24 33 11 0 23 5 26 11 4 6 10 7 14 3 3 -4 0 -9 -6 -11z
m2055 0 c45 -7 40 -21 -8 -18 -22 1 -40 -1 -40 -5 0 -4 -18 -7 -39 -6 -22 0
-34 4 -28 8 8 5 6 9 -7 14 -31 12 4 26 49 19 22 -4 55 -9 73 -12z m-2718 -13
c0 -5 -6 -10 -13 -10 -7 0 -18 -9 -25 -21 -13 -20 -14 -20 -27 -3 -15 22 -11
36 10 28 7 -3 22 -1 32 5 23 13 23 13 23 1z m-2063 -16 c-3 -3 -12 -4 -19 -1
-8 3 -5 6 6 6 11 1 17 -2 13 -5z m2 -17 c11 -2 10 -6 -4 -17 -14 -11 -17 -12
-11 -1 6 9 5 12 -5 9 -8 -3 -13 -10 -12 -16 2 -7 -8 -8 -27 -2 -88 25 -51 42
59 27z m861 3 c0 -5 -5 -10 -11 -10 -5 0 -7 5 -4 10 3 6 8 10 11 10 2 0 4 -4
4 -10z m2605 -10 c3 -5 -1 -10 -9 -10 -8 0 -18 5 -21 10 -3 6 1 10 9 10 8 0
18 -4 21 -10z m-3052 -7 c-7 -2 -21 -2 -30 0 -10 3 -4 5 12 5 17 0 24 -2 18
-5z m282 -33 c-3 -5 -12 -7 -20 -3 -21 7 -19 13 6 13 11 0 18 -4 14 -10z
m2340 0 c3 -5 13 -7 23 -4 14 5 15 4 2 -5 -21 -15 -37 -14 -44 4 -6 16 9 21
19 5z m804 6 c-2 -2 -17 -6 -34 -10 -22 -5 -26 -4 -15 4 14 9 59 15 49 6z
m-72 -38 c-3 -8 -6 -5 -6 6 -1 11 2 17 5 13 3 -3 4 -12 1 -19z m-440 -4 c-3
-3 -12 -4 -19 -1 -8 3 -5 6 6 6 11 1 17 -2 13 -5z m-2782 -14 c3 -5 -1 -10 -9
-10 -9 0 -16 5 -16 10 0 6 4 10 9 10 6 0 13 -4 16 -10z m2866 -14 c11 -14 28
-28 39 -31 11 -4 20 -11 20 -16 0 -14 -26 -11 -40 6 -7 9 -28 23 -46 31 -19 9
-31 20 -28 25 10 17 36 9 55 -15z m-2674 -1 c0 -17 -13 -20 -21 -6 -4 5 0 12
6 14 7 3 13 6 14 6 0 1 1 -6 1 -14z m2425 6 c-10 -6 -8 -10 10 -14 12 -4 33
-7 45 -7 12 0 25 -5 29 -12 5 -8 2 -9 -9 -5 -10 4 -28 2 -42 -3 -16 -6 -25 -6
-25 0 0 6 -11 16 -25 22 -19 8 -22 14 -13 20 7 4 20 8 28 8 12 0 12 -2 2 -9z
m-2345 -17 c-3 -3 -12 -4 -19 -1 -8 3 -5 6 6 6 11 1 17 -2 13 -5z m100 -19
c36 -8 18 -32 -20 -27 -22 2 -38 -2 -46 -12 -8 -9 -19 -16 -25 -16 -6 0 -4 5
4 11 11 8 4 9 -30 6 -44 -5 -45 -5 -17 9 15 8 27 18 27 22 0 9 76 13 107 7z
m549 -10 c-23 -17 -36 -19 -36 -6 0 5 8 12 18 14 32 9 37 6 18 -8z m74 0 c-7
-8 -20 -15 -29 -15 -11 1 -8 5 9 15 32 18 35 18 20 0z m1983 -12 c-18 -6 -16
-23 2 -23 8 0 15 -5 15 -11 0 -6 -6 -8 -12 -5 -7 3 -21 9 -30 12 -9 3 -16 14
-15 23 1 13 7 16 26 13 15 -3 20 -7 14 -9z m-323 -13 c0 -5 -2 -10 -4 -10 -3
0 -8 5 -11 10 -3 6 -1 10 4 10 6 0 11 -4 11 -10z m70 -6 c0 -2 -7 -4 -15 -4
-8 0 -15 4 -15 10 0 5 7 7 15 4 8 -4 15 -8 15 -10z m-4950 -24 c0 -5 -5 -10
-11 -10 -5 0 -7 5 -4 10 3 6 8 10 11 10 2 0 4 -4 4 -10z m2790 -50 c0 -5 -5
-10 -11 -10 -5 0 -7 5 -4 10 3 6 8 10 11 10 2 0 4 -4 4 -10z m420 -20 c13 -9
13 -10 0 -10 -8 0 -22 5 -30 10 -13 9 -13 10 0 10 8 0 22 -5 30 -10z m50 -14
c0 -3 -4 -8 -10 -11 -5 -3 -10 -1 -10 4 0 6 5 11 10 11 6 0 10 -2 10 -4z
m2500 0 c0 -9 -30 -14 -35 -6 -4 6 3 10 14 10 12 0 21 -2 21 -4z m105 -6 c3
-5 -1 -10 -9 -10 -8 0 -18 5 -21 10 -3 6 1 10 9 10 8 0 18 -4 21 -10z m-1290
-50 c3 -5 2 -10 -4 -10 -5 0 -13 5 -16 10 -3 6 -2 10 4 10 5 0 13 -4 16 -10z
m-3818 -63 c3 -3 2 -10 -1 -15 -8 -14 -76 8 -76 24 0 9 10 10 36 4 19 -5 38
-11 41 -13z m33 13 c0 -5 -4 -10 -10 -10 -5 0 -10 5 -10 10 0 6 5 10 10 10 6
0 10 -4 10 -10z m205 -10 c-3 -5 -12 -10 -18 -10 -7 0 -6 4 3 10 19 12 23 12
15 0z m-178 -46 c-3 -3 -12 -4 -19 -1 -8 3 -5 6 6 6 11 1 17 -2 13 -5z m557
-3 c3 -5 -5 -8 -18 -7 -13 0 -22 4 -19 9 6 10 31 9 37 -2z m63 -7 c-3 -3 -12
-4 -19 -1 -8 3 -5 6 6 6 11 1 17 -2 13 -5z m88 -4 c-26 -11 -35 -12 -35 -2 0
4 12 8 28 9 23 1 24 1 7 -7z m72 4 c-3 -3 -12 -4 -19 -1 -8 3 -5 6 6 6 11 1
17 -2 13 -5z m-37 -24 c0 -5 -6 -10 -12 -10 -10 0 -9 -3 1 -9 7 -5 10 -14 6
-21 -5 -8 -10 -9 -18 -1 -15 15 -27 14 -27 -4 0 -8 6 -15 13 -15 6 0 -1 -7
-17 -15 -41 -22 -86 -8 -110 36 -11 19 -16 31 -11 27 4 -4 14 -3 22 4 11 8 12
7 7 -6 -4 -11 -1 -16 10 -16 9 0 16 -4 16 -9 0 -5 7 -12 16 -15 14 -5 15 -4 4
9 -7 9 -10 18 -6 22 3 3 6 1 6 -5 0 -7 9 -12 20 -12 11 0 20 7 20 16 0 8 -4
12 -10 9 -5 -3 -10 -2 -10 4 0 10 22 18 58 20 12 0 22 -3 22 -9z m-509 -31
c-13 -5 -22 -11 -20 -13 5 -4 116 11 148 20 16 5 22 4 18 -4 -4 -5 -1 -12 5
-15 8 -2 1 -10 -15 -17 -21 -10 -30 -11 -39 -2 -8 8 -14 8 -22 -2 -7 -9 -43
-16 -102 -19 -88 -5 -93 -5 -113 19 -19 22 -19 28 2 25 4 0 7 3 7 8 0 12 50
17 110 12 39 -3 42 -5 21 -12z m225 -10 c8 -14 -14 -29 -43 -29 -16 0 -20 5
-16 20 6 22 47 28 59 9z m1794 1 c-8 -5 -22 -9 -30 -9 -10 0 -8 3 5 9 27 12
43 12 25 0z m-1250 -10 c0 -5 -7 -7 -15 -4 -8 4 -15 8 -15 10 0 2 7 4 15 4 8
0 15 -4 15 -10z m90 2 c0 -4 -9 -8 -19 -8 -11 0 -17 4 -15 8 3 4 12 8 20 8 8
0 14 -4 14 -8z m2997 -8 c-3 -3 -12 -4 -19 -1 -8 3 -5 6 6 6 11 1 17 -2 13 -5z
m-2509 -23 c11 -6 11 -10 0 -19 -16 -13 -44 1 -34 17 8 13 16 14 34 2z m-1251
-17 c-3 -3 -12 -4 -19 -1 -8 3 -5 6 6 6 11 1 17 -2 13 -5z m1153 -24 c0 -5 -5
-10 -11 -10 -5 0 -7 5 -4 10 3 6 8 10 11 10 2 0 4 -4 4 -10z m625 -10 c3 -5 1
-10 -4 -10 -6 0 -11 5 -11 10 0 6 2 10 4 10 3 0 8 -4 11 -10z m-25 -27 c0 -7
7 -13 15 -13 29 0 12 -34 -23 -44 -14 -5 -21 -14 -20 -24 2 -12 -3 -16 -19
-15 -15 2 -21 -2 -17 -11 6 -15 -15 -26 -61 -32 l-30 -4 30 20 30 20 -26 0
c-15 0 -29 -6 -32 -14 -3 -7 -19 -15 -36 -18 -16 -2 -28 -1 -25 4 7 11 -48 10
-66 -2 -9 -5 -19 -5 -27 2 -9 7 -22 7 -44 -1 -38 -13 -59 -14 -59 -2 0 9 113
55 140 57 8 1 33 2 55 3 30 1 36 4 25 11 -13 8 -13 10 3 11 30 3 32 3 85 28
28 13 49 27 47 31 -2 4 9 7 25 7 18 0 30 -6 30 -14z m259 -4 c-22 -13 -31 -11
-17 5 7 8 17 12 22 9 4 -3 2 -9 -5 -14z m1835 -21 l19 -33 -26 24 c-27 24 -34
41 -19 41 4 0 16 -15 26 -32z m-1881 5 c-7 -2 -19 -2 -25 0 -7 3 -2 5 12 5 14
0 19 -2 13 -5z m-830 -27 c8 5 9 3 2 -4 -5 -6 -50 -31 -98 -56 -74 -38 -85
-46 -70 -55 17 -10 16 -10 -3 -11 -12 0 -27 -6 -33 -14 -9 -11 -5 -12 26 -6
21 5 54 13 73 20 19 6 53 14 75 17 22 3 45 9 52 15 7 5 19 6 30 1 22 -11 68
-8 111 5 47 15 39 -2 -15 -32 -32 -19 -49 -23 -54 -15 -4 8 -10 6 -16 -6 -7
-11 -25 -19 -49 -21 l-39 -3 25 20 25 19 -35 -6 c-19 -4 -49 -15 -66 -25 -34
-20 -74 -25 -74 -9 0 5 -24 9 -55 7 -30 -1 -50 -3 -45 -5 18 -6 10 -20 -17
-30 -24 -9 -25 -11 -7 -11 12 -1 29 -11 38 -23 l17 -23 -5 23 c-2 12 0 22 5
22 5 0 9 -7 9 -16 0 -11 6 -14 23 -9 21 6 21 6 3 -9 -11 -9 -28 -16 -37 -16
-10 0 -21 -5 -24 -10 -4 -6 -11 -7 -17 -4 -7 4 -6 9 2 14 9 5 9 9 1 14 -6 4
-11 2 -11 -4 0 -7 -6 -10 -14 -7 -8 3 -17 -1 -20 -9 -5 -12 -1 -14 15 -9 16 5
20 3 17 -6 -3 -8 -13 -16 -24 -18 -26 -4 -57 -38 -43 -46 5 -4 16 -4 24 -1 9
3 15 -1 15 -9 0 -8 -7 -15 -15 -15 -9 0 -20 -11 -25 -24 -12 -33 -40 -47 -106
-52 -50 -4 -54 -3 -60 21 -6 23 -7 24 -35 10 -34 -18 -66 -19 -71 -3 -5 14
-51 3 -72 -17 -8 -9 -18 -15 -21 -15 -17 4 -65 -13 -65 -23 0 -8 -3 -8 -9 1
-6 11 -15 10 -49 -1 -23 -8 -43 -12 -46 -10 -9 9 6 33 17 26 6 -4 8 2 4 16 -5
21 -3 23 21 18 18 -4 51 6 99 29 40 19 87 34 105 34 25 0 29 3 18 10 -12 8
-10 10 10 10 14 0 36 3 50 6 19 4 22 3 10 -5 -8 -5 -12 -12 -9 -15 7 -7 69 25
69 35 0 5 6 9 13 9 20 0 66 24 71 36 3 7 -9 14 -25 18 -18 3 -28 10 -24 16 4
6 15 8 25 5 22 -7 104 41 95 55 -4 7 -13 6 -26 0 -10 -6 -19 -8 -19 -4 0 3 -7
1 -15 -6 -12 -10 -15 -10 -15 4 0 17 -15 22 -25 7 -3 -6 -14 -9 -25 -8 -10 1
-17 5 -14 9 3 4 11 5 20 1 9 -3 14 0 12 8 -2 7 6 15 17 17 11 2 30 15 43 28
13 14 37 27 53 31 16 3 29 9 29 14 0 5 -8 6 -17 2 -11 -3 -9 1 6 12 25 19 83
33 164 40 27 3 61 11 75 18 15 7 29 9 30 5 2 -5 9 -5 15 -2z m828 -39 c-1 -12
-15 -9 -19 4 -3 6 1 10 8 8 6 -3 11 -8 11 -12z m-841 -32 c-14 -7 -27 -11 -30
-9 -6 7 22 24 40 23 9 0 5 -6 -10 -14z m305 -45 c-3 -5 -12 -10 -18 -10 -7 0
-6 4 3 10 19 12 23 12 15 0z m-305 -54 c0 -2 -7 -6 -15 -10 -8 -3 -15 -1 -15
4 0 6 7 10 15 10 8 0 15 -2 15 -4z m-119 -23 c13 -16 12 -17 -3 -4 -10 7 -18
15 -18 17 0 8 8 3 21 -13z m846 -9 c-3 -3 -12 -4 -19 -1 -8 3 -5 6 6 6 11 1
17 -2 13 -5z m-47 -38 c0 -2 -7 -6 -15 -10 -8 -3 -15 -1 -15 4 0 6 7 10 15 10
8 0 15 -2 15 -4z m1965 -156 c3 -5 -1 -10 -9 -10 -9 0 -16 5 -16 10 0 6 4 10
9 10 6 0 13 -4 16 -10z m-3511 -61 c-3 -5 -16 -8 -29 -6 -39 5 -39 15 -1 15
20 0 33 -4 30 -9z m3310 1 c15 -5 26 -17 26 -27 0 -11 -3 -14 -8 -7 -4 6 -17
14 -29 18 -13 4 -23 12 -23 17 0 11 3 11 34 -1z m-3758 -29 c-8 -12 -46 -21
-46 -11 0 5 8 11 18 13 29 8 33 7 28 -2z m-66 -21 c-8 -5 -22 -9 -30 -9 -10 0
-8 3 5 9 27 12 43 12 25 0z m4031 -47 c13 -16 12 -17 -3 -4 -10 7 -18 15 -18
17 0 8 8 3 21 -13z m328 -18 c13 -14 19 -25 14 -25 -5 0 -19 11 -31 25 -28 32
-14 32 17 0z m-2345 -30 c3 -9 0 -15 -9 -15 -9 0 -12 6 -9 15 4 8 7 15 9 15 2
0 5 -7 9 -15z m1466 -66 c0 -6 -4 -7 -10 -4 -5 3 -10 11 -10 16 0 6 5 7 10 4
6 -3 10 -11 10 -16z m-1415 1 c-3 -5 -12 -10 -18 -10 -7 0 -6 4 3 10 19 12 23
12 15 0z m1301 -98 c-4 -3 -13 3 -21 14 -22 28 -18 37 6 13 11 -11 18 -23 15
-27z m874 38 c0 -5 -5 -10 -11 -10 -5 0 -7 5 -4 10 3 6 8 10 11 10 2 0 4 -4 4
-10z m-917 -19 c3 -14 1 -18 -9 -14 -8 3 -14 11 -14 19 0 21 17 17 23 -5z
m-1158 -1 c3 -5 1 -10 -4 -10 -6 0 -11 5 -11 10 0 6 2 10 4 10 3 0 8 -4 11
-10z m450 -59 c-4 -14 -12 -29 -18 -33 -7 -4 6 -8 28 -8 33 -1 37 -3 25 -13
-8 -7 -15 -25 -15 -41 0 -16 -5 -31 -11 -33 -7 -2 -9 8 -6 26 5 36 -9 45 -68
44 -25 -1 -37 1 -28 3 9 3 15 11 12 17 -2 7 3 21 12 32 13 16 15 17 10 3 -3
-10 -1 -20 4 -23 6 -4 10 -1 10 4 0 6 7 11 15 11 8 0 15 4 15 10 0 5 -7 7 -15
4 -9 -4 -15 0 -15 8 0 21 8 27 31 21 16 -5 19 -11 14 -32z m-505 19 c-8 -5
-19 -10 -25 -10 -5 0 -3 5 5 10 8 5 20 10 25 10 6 0 3 -5 -5 -10z m1280 0 c0
-5 -7 -7 -15 -4 -8 4 -15 8 -15 10 0 2 7 4 15 4 8 0 15 -4 15 -10z m-1337 -49
c-36 -37 -49 -30 -14 8 14 16 29 27 34 24 4 -2 -5 -17 -20 -32z m637 -41 c0
-5 -7 -10 -15 -10 -8 0 -15 5 -15 10 0 6 7 10 15 10 8 0 15 -4 15 -10z m144
-24 c-3 -9 -10 -16 -15 -16 -5 0 -4 9 3 20 14 22 21 20 12 -4z m616 20 c0 -3
-4 -8 -10 -11 -5 -3 -10 -1 -10 4 0 6 5 11 10 11 6 0 10 -2 10 -4z m-240 -20
c0 -3 -4 -8 -10 -11 -5 -3 -10 -1 -10 4 0 6 5 11 10 11 6 0 10 -2 10 -4z
m-509 -16 c1 8 5 -5 9 -30 4 -25 4 -49 -1 -54 -5 -6 -9 -19 -8 -30 0 -20 1
-20 8 -2 8 20 8 20 12 0 6 -22 -14 -67 -25 -57 -4 4 -11 1 -16 -7 -8 -12 -10
-12 -10 4 0 19 -1 19 -20 1 -12 -10 -19 -24 -17 -30 3 -6 -6 -16 -19 -22 -18
-8 -26 -8 -35 3 -14 17 -6 42 26 76 14 15 25 30 25 33 0 4 7 13 15 21 13 14
20 42 16 67 -1 4 4 14 11 21 10 10 15 11 20 2 5 -7 8 -6 9 4z m449 -30 c0 -5
-5 -10 -11 -10 -5 0 -7 5 -4 10 3 6 8 10 11 10 2 0 4 -4 4 -10z m-415 -130 c3
-5 1 -10 -4 -10 -6 0 -11 5 -11 10 0 6 2 10 4 10 3 0 8 -4 11 -10z m-785 -14
c0 -3 -4 -8 -10 -11 -5 -3 -10 -1 -10 4 0 6 5 11 10 11 6 0 10 -2 10 -4z m886
-12 c-4 -12 -2 -15 9 -10 15 5 21 -5 8 -17 -10 -11 -32 13 -26 29 3 8 7 14 10
14 3 0 2 -7 -1 -16z m-937 -35 c-13 -10 -25 -16 -27 -14 -7 7 33 42 42 37 5
-3 -2 -13 -15 -23z m1021 2 c0 -12 -29 -35 -36 -28 -7 6 17 36 29 37 4 0 7 -4
7 -9z m-1083 -67 c-3 -3 -12 -4 -19 -1 -8 3 -5 6 6 6 11 1 17 -2 13 -5z m67
-37 c-7 -18 -24 -23 -24 -7 0 6 -5 10 -11 10 -5 0 -7 -4 -4 -10 10 -17 -12
-11 -26 7 -10 12 -11 15 -1 9 7 -4 19 -2 27 4 11 9 15 9 15 1 0 -6 5 -11 11
-11 6 0 8 7 4 18 -4 12 -3 14 5 6 6 -6 8 -18 4 -27z m-109 3 c3 -5 1 -10 -4
-10 -6 0 -11 5 -11 10 0 6 2 10 4 10 3 0 8 -4 11 -10z m16 -53 c-8 -8 -11 -7
-11 4 0 20 13 34 18 19 3 -7 -1 -17 -7 -23z m29 -27 c0 -5 -4 -10 -10 -10 -5
0 -10 5 -10 10 0 6 5 10 10 10 6 0 10 -4 10 -10z m32 -26 c-6 -11 -11 -13 -16
-5 -4 6 -2 11 3 11 6 0 11 8 12 18 0 9 3 12 5 5 3 -7 1 -20 -4 -29z m-47 -33
c-9 -8 -36 -10 -30 -2 2 4 11 8 20 8 8 0 13 -3 10 -6z m256 -45 c-12 -12 -18
-26 -14 -31 5 -4 3 -5 -4 -2 -6 4 -14 1 -16 -5 -3 -7 -6 -8 -6 -3 -2 19 39 76
50 69 7 -4 3 -14 -10 -28z m-414 -238 c-3 -8 -6 -5 -6 6 -1 11 2 17 5 13 3 -3
4 -12 1 -19z m5519 -1050 c-18 -26 -22 -17 -5 14 6 11 13 17 16 15 3 -3 -2
-16 -11 -29z m-292 0 c-3 -4 -12 -8 -20 -8 -8 0 -14 4 -14 8 0 4 9 8 19 8 11
0 17 -4 15 -8z m86 -29 c-7 -11 -14 -18 -17 -15 -3 3 0 12 7 21 18 21 23 19
10 -6z m111 -19 c6 0 7 -5 4 -10 -12 -19 -34 9 -27 33 l7 22 3 -22 c2 -13 8
-23 13 -23z m-41 26 c0 -2 -8 -10 -17 -17 -16 -13 -17 -12 -4 4 13 16 21 21
21 13z m95 -16 c-3 -5 -12 -10 -18 -10 -7 0 -6 4 3 10 19 12 23 12 15 0z m285
0 c-8 -5 -19 -10 -25 -10 -5 0 -3 5 5 10 8 5 20 10 25 10 6 0 3 -5 -5 -10z
m-499 -27 c-12 -20 -14 -14 -5 12 4 9 9 14 11 11 3 -2 0 -13 -6 -23z m319 18
c0 -5 -7 -12 -16 -15 -14 -5 -15 -4 -4 9 14 17 20 19 20 6z m80 -1 c0 -5 -2
-10 -4 -10 -3 0 -8 5 -11 10 -3 6 -1 10 4 10 6 0 11 -4 11 -10z m-325 -10 c-3
-5 -11 -10 -16 -10 -6 0 -7 5 -4 10 3 6 11 10 16 10 6 0 7 -4 4 -10z"/>
<path d="M6747 9314 c-4 -4 -4 -10 -1 -15 6 -10 34 0 34 12 0 10 -24 12 -33 3z"/>
<path d="M6641 9084 c0 -11 3 -14 6 -6 3 7 2 16 -1 19 -3 4 -6 -2 -5 -13z"/>
<path d="M8270 7519 c0 -5 5 -7 10 -4 6 3 10 8 10 11 0 2 -4 4 -10 4 -5 0 -10
-5 -10 -11z"/>
<path d="M9370 7399 c0 -5 5 -7 10 -4 6 3 10 8 10 11 0 2 -4 4 -10 4 -5 0 -10
-5 -10 -11z"/>
<path d="M7135 5190 c-3 -5 1 -10 9 -10 9 0 16 5 16 10 0 6 -4 10 -9 10 -6 0
-13 -4 -16 -10z"/>
<path d="M7434 3637 c-13 -15 42 -36 82 -31 16 1 37 -2 47 -8 13 -7 17 -7 13
0 -9 14 -66 43 -66 33 0 -4 -13 -6 -30 -3 -16 2 -27 8 -24 13 8 13 -9 10 -22
-4z"/>
<path d="M4315 2931 c-3 -5 -1 -12 5 -16 5 -3 10 1 10 9 0 18 -6 21 -15 7z"/>
<path d="M3608 2843 c6 -2 18 -2 25 0 6 3 1 5 -13 5 -14 0 -19 -2 -12 -5z"/>
<path d="M3520 2830 c-8 -5 -11 -12 -7 -16 4 -4 13 -2 19 4 15 15 7 24 -12 12z"/>
<path d="M3610 2740 c0 -5 4 -10 9 -10 6 0 13 5 16 10 3 6 -1 10 -9 10 -9 0
-16 -4 -16 -10z"/>
<path d="M5936 10215 c4 -8 8 -15 10 -15 2 0 4 7 4 15 0 8 -4 15 -10 15 -5 0
-7 -7 -4 -15z"/>
<path d="M5960 10219 c0 -5 9 -9 20 -9 11 0 20 2 20 4 0 2 -9 6 -20 9 -11 3
-20 1 -20 -4z"/>
<path d="M6017 10223 c-12 -11 -8 -21 13 -26 10 -3 25 2 31 10 11 12 8 13 -17
8 -22 -5 -25 -4 -14 4 8 6 10 11 4 11 -6 0 -14 -3 -17 -7z"/>
<path d="M6185 10220 c-3 -5 -1 -10 4 -10 6 0 11 5 11 10 0 6 -2 10 -4 10 -3
0 -8 -4 -11 -10z"/>
<path d="M6054 10106 c-28 -19 -62 -26 -68 -12 -3 7 -8 6 -15 -4 -6 -8 -11
-10 -11 -5 0 6 -4 5 -8 -2 -5 -8 -13 -9 -22 -3 -10 7 -11 10 -2 10 6 0 12 4
12 9 0 5 -19 8 -42 6 -55 -3 -56 -4 -38 -15 13 -8 13 -10 -2 -10 -9 0 -18 5
-20 12 -3 7 -7 5 -11 -6 -4 -9 -3 -15 2 -12 4 3 16 -3 26 -14 18 -19 17 -20
-3 -20 -24 0 -27 -11 -12 -40 11 -21 40 -17 40 5 0 18 42 13 68 -9 14 -13 22
-31 22 -51 0 -17 3 -35 8 -39 4 -4 7 -30 7 -57 1 -33 6 -53 15 -59 9 -6 16 -6
18 0 2 6 12 10 23 10 31 0 22 26 -13 41 -18 7 -34 14 -36 15 -2 1 4 14 13 28
16 24 16 26 1 26 -14 0 -17 8 -14 38 2 29 7 36 21 34 10 -2 17 3 17 13 0 8 7
15 15 15 21 0 19 20 -2 20 -17 1 -17 2 1 15 10 7 15 19 11 25 -4 6 1 17 11 25
25 18 13 28 -12 11z m-64 -96 c0 -5 -4 -10 -10 -10 -5 0 -10 5 -10 10 0 6 5
10 10 10 6 0 10 -4 10 -10z"/>
<path d="M6173 10083 c-14 -5 -18 -33 -5 -33 4 0 13 9 20 20 12 20 8 23 -15
13z"/>
<path d="M6010 9941 c0 -25 6 -27 13 -6 4 8 2 17 -3 20 -6 4 -10 -3 -10 -14z"/>
<path d="M4386 9897 c3 -10 9 -15 12 -12 3 3 0 11 -7 18 -10 9 -11 8 -5 -6z"/>
<path d="M6080 9885 c0 -9 5 -15 11 -13 6 2 11 8 11 13 0 5 -5 11 -11 13 -6 2
-11 -4 -11 -13z"/>
<path d="M6187 9878 c-6 -19 4 -49 14 -42 5 3 7 10 3 15 -3 5 0 16 6 24 10 12
9 15 -3 15 -8 0 -17 -6 -20 -12z"/>
<path d="M6140 9759 c0 -5 5 -7 10 -4 6 3 10 8 10 11 0 2 -4 4 -10 4 -5 0 -10
-5 -10 -11z"/>
<path d="M6010 9746 c0 -8 -5 -16 -12 -18 -17 -6 0 -28 23 -28 14 0 19 7 19
30 0 20 -5 30 -15 30 -8 0 -15 -6 -15 -14z"/>
<path d="M4740 9740 c0 -5 5 -10 10 -10 6 0 10 5 10 10 0 6 -4 10 -10 10 -5 0
-10 -4 -10 -10z"/>
<path d="M5995 9660 c-3 -5 -1 -10 4 -10 6 0 11 5 11 10 0 6 -2 10 -4 10 -3 0
-8 -4 -11 -10z"/>
<path d="M5973 9616 c-16 -19 -4 -29 13 -11 8 7 14 16 14 19 0 10 -15 6 -27
-8z"/>
<path d="M5961 9524 c0 -11 3 -14 6 -6 3 7 2 16 -1 19 -3 4 -6 -2 -5 -13z"/>
<path d="M5925 9510 c3 -5 8 -10 11 -10 2 0 4 5 4 10 0 6 -5 10 -11 10 -5 0
-7 -4 -4 -10z"/>
<path d="M5991 9474 c0 -11 3 -14 6 -6 3 7 2 16 -1 19 -3 4 -6 -2 -5 -13z"/>
<path d="M4490 9305 c0 -18 19 -40 26 -32 4 4 0 15 -9 24 -9 10 -17 13 -17 8z"/>
<path d="M4470 9273 c1 -14 30 -47 36 -41 8 8 -14 48 -26 48 -6 0 -10 -3 -10
-7z"/>
<path d="M4370 9116 c0 -2 8 -10 18 -17 15 -13 16 -12 3 4 -13 16 -21 21 -21
13z"/>
<path d="M6235 9010 c-3 -5 -2 -10 4 -10 5 0 13 5 16 10 3 6 2 10 -4 10 -5 0
-13 -4 -16 -10z"/>
<path d="M6265 8989 c-4 -6 -5 -12 -2 -15 2 -3 7 2 10 11 7 17 1 20 -8 4z"/>
<path d="M6220 8970 c0 -5 5 -10 11 -10 5 0 7 5 4 10 -3 6 -8 10 -11 10 -2 0
-4 -4 -4 -10z"/>
<path d="M6238 8695 c-6 -30 -3 -43 8 -33 3 4 4 19 2 35 l-3 28 -7 -30z"/>
<path d="M6210 8635 c-8 -9 -8 -15 -2 -15 12 0 26 19 19 26 -2 2 -10 -2 -17
-11z"/>
<path d="M6106 8615 c-3 -8 -1 -15 4 -15 6 0 10 7 10 15 0 8 -2 15 -4 15 -2 0
-6 -7 -10 -15z"/>
<path d="M4220 8041 c0 -6 4 -12 8 -15 5 -3 9 1 9 9 0 8 -4 15 -9 15 -4 0 -8
-4 -8 -9z"/>
<path d="M4450 7989 c0 -5 5 -7 10 -4 6 3 10 8 10 11 0 2 -4 4 -10 4 -5 0 -10
-5 -10 -11z"/>
<path d="M7520 7952 c0 -7 -8 -12 -18 -12 -24 0 -32 -8 -25 -26 9 -24 42 -16
49 11 4 14 4 29 0 32 -3 4 -6 1 -6 -5z"/>
<path d="M4286 7925 c4 -8 8 -15 10 -15 2 0 4 7 4 15 0 8 -4 15 -10 15 -5 0
-7 -7 -4 -15z"/>
<path d="M2800 7902 c0 -12 19 -26 26 -19 2 2 -2 10 -11 17 -9 8 -15 8 -15 2z"/>
<path d="M2880 7840 c0 -5 7 -10 16 -10 8 0 12 5 9 10 -3 6 -10 10 -16 10 -5
0 -9 -4 -9 -10z"/>
<path d="M2810 7756 c0 -2 7 -7 16 -10 8 -3 12 -2 9 4 -6 10 -25 14 -25 6z"/>
<path d="M7396 7653 c-6 -14 -5 -15 5 -6 7 7 10 15 7 18 -3 3 -9 -2 -12 -12z"/>
<path d="M6760 7540 c0 -11 2 -20 4 -20 2 0 6 9 9 20 3 11 1 20 -4 20 -5 0 -9
-9 -9 -20z"/>
<path d="M6585 7521 c-3 -5 -1 -12 5 -16 5 -3 10 1 10 9 0 18 -6 21 -15 7z"/>
<path d="M6625 7510 c-3 -5 -1 -10 4 -10 6 0 11 5 11 10 0 6 -2 10 -4 10 -3 0
-8 -4 -11 -10z"/>
<path d="M7557 7473 c-4 -3 -7 -11 -7 -17 0 -6 5 -5 12 2 6 6 9 14 7 17 -3 3
-9 2 -12 -2z"/>
<path d="M5990 7422 c0 -11 -5 -22 -12 -24 -8 -3 -8 -7 -2 -11 6 -3 18 2 27
13 13 16 14 20 1 31 -11 9 -14 8 -14 -9z"/>
<path d="M2980 7376 c7 -7 14 -6 21 1 9 9 7 12 -9 10 -14 -1 -18 -5 -12 -11z"/>
<path d="M7435 7370 c-3 -11 -3 -25 1 -31 3 -6 0 -15 -7 -20 -7 -4 -11 -11 -7
-14 4 -4 15 6 24 21 13 19 15 29 7 31 -7 3 -9 11 -6 19 3 8 3 14 0 14 -3 0 -8
-9 -12 -20z"/>
<path d="M7930 7340 c0 -5 5 -10 10 -10 6 0 10 5 10 10 0 6 -4 10 -10 10 -5 0
-10 -4 -10 -10z"/>
<path d="M3125 7330 c3 -5 11 -10 16 -10 6 0 7 5 4 10 -3 6 -11 10 -16 10 -6
0 -7 -4 -4 -10z"/>
<path d="M7410 7270 c0 -5 5 -10 10 -10 6 0 10 5 10 10 0 6 -4 10 -10 10 -5 0
-10 -4 -10 -10z"/>
<path d="M3400 7221 c0 -26 21 -71 32 -71 5 0 6 -5 2 -11 -4 -8 1 -9 17 -4 18
4 20 4 10 -4 -13 -8 -13 -12 -1 -26 12 -14 14 -15 22 -1 5 8 14 13 22 10 7 -3
13 2 13 12 0 9 -9 19 -19 22 -12 3 -18 14 -18 33 0 16 -4 30 -10 30 -19 3 -25
5 -47 17 -20 11 -23 10 -23 -7z m70 -61 c0 -5 -4 -10 -10 -10 -5 0 -10 5 -10
10 0 6 5 10 10 10 6 0 10 -4 10 -10z"/>
<path d="M3730 7219 c0 -17 20 -49 31 -49 5 0 3 14 -6 30 -16 31 -25 38 -25
19z"/>
<path d="M3604 7202 c3 -5 20 -9 38 -9 27 -1 29 1 13 7 -27 11 -57 12 -51 2z"/>
<path d="M7365 7189 c-4 -6 -5 -12 -2 -15 7 -7 37 7 37 17 0 13 -27 11 -35 -2z"/>
<path d="M7827 7127 c-60 -64 -82 -95 -74 -103 7 -8 76 40 73 50 -2 10 44 53
79 72 30 17 32 44 3 44 -15 -1 -43 -22 -81 -63z"/>
<path d="M3556 7172 c-3 -5 1 -9 9 -9 8 0 12 4 9 9 -3 4 -7 8 -9 8 -2 0 -6 -4
-9 -8z"/>
<path d="M3805 7160 c3 -5 8 -10 11 -10 2 0 4 5 4 10 0 6 -5 10 -11 10 -5 0
-7 -4 -4 -10z"/>
<path d="M3535 7120 c5 -26 35 -51 53 -45 8 3 10 0 6 -6 -4 -7 -24 -9 -52 -6
-24 3 -39 1 -32 -3 8 -5 9 -10 1 -14 -13 -9 43 -66 64 -66 8 0 15 -4 15 -10 0
-5 4 -10 10 -10 5 0 7 6 4 14 -3 8 -1 17 5 21 6 3 11 1 11 -4 0 -6 11 -11 25
-11 14 0 25 -4 25 -10 0 -5 7 -10 15 -10 8 0 15 9 15 20 0 11 7 20 15 20 8 0
15 5 15 10 0 6 -8 10 -17 8 -14 -2 -17 3 -16 22 1 14 0 19 -3 13 -10 -22 -22
-14 -29 18 -4 17 -13 33 -21 36 -8 3 -11 10 -8 15 4 6 -2 8 -12 6 -11 -2 -18
-11 -16 -21 2 -9 1 -17 -1 -17 -12 0 -53 26 -54 35 -1 5 -6 11 -12 13 -6 2 -8
-6 -6 -18z m55 -85 c0 10 3 16 6 12 3 -3 3 -15 -1 -26 -6 -19 -8 -19 -21 -6
-9 8 -21 15 -27 15 -7 0 -6 4 3 10 11 7 19 5 28 -7 11 -16 12 -15 12 2z"/>
<path d="M7902 7111 c-29 -40 -28 -47 4 -18 15 14 25 30 23 36 -3 7 -14 -1
-27 -18z"/>
<path d="M3101 7072 c-1 -8 -6 -10 -13 -6 -10 5 -10 4 -1 -6 15 -16 28 -8 20
12 -4 11 -6 11 -6 0z"/>
<path d="M9140 7070 c0 -5 5 -10 10 -10 6 0 10 5 10 10 0 6 -4 10 -10 10 -5 0
-10 -4 -10 -10z"/>
<path d="M3811 7004 c0 -11 3 -14 6 -6 3 7 2 16 -1 19 -3 4 -6 -2 -5 -13z"/>
<path d="M7680 7000 c0 -5 4 -10 9 -10 6 0 13 5 16 10 3 6 -1 10 -9 10 -9 0
-16 -4 -16 -10z"/>
<path d="M9167 6969 c7 -7 15 -10 18 -7 3 3 -2 9 -12 12 -14 6 -15 5 -6 -5z"/>
<path d="M8880 6830 c0 -5 5 -10 11 -10 5 0 7 5 4 10 -3 6 -8 10 -11 10 -2 0
-4 -4 -4 -10z"/>
<path d="M8792 6755 c-17 -36 -15 -41 8 -20 20 18 27 45 12 45 -5 0 -14 -11
-20 -25z"/>
<path d="M8720 6739 c0 -5 5 -7 10 -4 6 3 10 8 10 11 0 2 -4 4 -10 4 -5 0 -10
-5 -10 -11z"/>
<path d="M7895 6680 c-3 -6 1 -7 9 -4 18 7 21 14 7 14 -6 0 -13 -4 -16 -10z"/>
<path d="M7906 6655 c-3 -8 -1 -15 4 -15 6 0 10 7 10 15 0 8 -2 15 -4 15 -2 0
-6 -7 -10 -15z"/>
<path d="M2415 6640 c3 -5 8 -10 11 -10 2 0 4 5 4 10 0 6 -5 10 -11 10 -5 0
-7 -4 -4 -10z"/>
<path d="M7070 6592 c0 -6 5 -14 12 -18 7 -4 8 -3 4 4 -9 15 -1 15 24 2 13 -7
21 -7 25 0 3 5 0 10 -7 10 -7 0 -23 3 -35 6 -13 4 -23 2 -23 -4z"/>
<path d="M6846 6544 c-9 -24 -2 -26 12 -4 7 11 8 20 3 20 -5 0 -12 -7 -15 -16z"/>
<path d="M6938 6543 c7 -3 16 -2 19 1 4 3 -2 6 -13 5 -11 0 -14 -3 -6 -6z"/>
<path d="M8737 6524 c7 -3 9 -13 6 -22 -4 -14 -3 -14 5 -2 12 16 7 30 -11 29
-9 0 -9 -2 0 -5z"/>
<path d="M2590 6289 c0 -5 4 -9 9 -9 5 0 16 -3 25 -6 9 -3 16 -2 16 4 0 5 -11
12 -25 14 -14 3 -25 1 -25 -3z"/>
<path d="M6950 5495 c-8 -9 -8 -15 -2 -15 12 0 26 19 19 26 -2 2 -10 -2 -17
-11z"/>
<path d="M7023 5483 c-15 -5 -17 -23 -4 -23 5 0 11 7 15 15 3 8 4 15 3 14 -1
0 -8 -3 -14 -6z"/>
<path d="M3658 5433 c7 -3 16 -2 19 1 4 3 -2 6 -13 5 -11 0 -14 -3 -6 -6z"/>
<path d="M6883 5263 c9 -2 25 -2 35 0 9 3 1 5 -18 5 -19 0 -27 -2 -17 -5z"/>
<path d="M4104 5137 c-16 -9 -19 -17 -13 -32 8 -20 8 -19 14 2 4 12 12 20 18
19 7 -2 9 -1 4 1 -4 3 -5 9 -1 14 7 12 4 11 -22 -4z"/>
<path d="M4260 5140 c0 -6 7 -10 15 -10 8 0 15 2 15 4 0 2 -7 6 -15 10 -8 3
-15 1 -15 -4z"/>
<path d="M4195 5120 c3 -5 8 -10 11 -10 2 0 4 5 4 10 0 6 -5 10 -11 10 -5 0
-7 -4 -4 -10z"/>
<path d="M6570 5019 c0 -5 5 -7 10 -4 6 3 10 8 10 11 0 2 -4 4 -10 4 -5 0 -10
-5 -10 -11z"/>
<path d="M6168 4903 c6 -2 18 -2 25 0 6 3 1 5 -13 5 -14 0 -19 -2 -12 -5z"/>
<path d="M3155 4850 c3 -5 23 -10 43 -10 28 0 33 3 22 10 -20 13 -73 13 -65 0z"/>
<path d="M5965 4650 c-3 -6 1 -7 9 -4 18 7 21 14 7 14 -6 0 -13 -4 -16 -10z"/>
<path d="M3835 4630 l-40 -7 43 -2 c23 0 42 4 42 9 0 6 -1 9 -2 9 -2 -1 -21
-5 -43 -9z"/>
<path d="M5763 4479 c14 -8 22 -8 30 0 8 8 3 11 -18 11 -26 -1 -28 -2 -12 -11z"/>
<path d="M5978 4483 c7 -3 16 -2 19 1 4 3 -2 6 -13 5 -11 0 -14 -3 -6 -6z"/>
<path d="M4728 4463 c12 -2 30 -2 40 0 9 3 -1 5 -23 4 -22 0 -30 -2 -17 -4z"/>
<path d="M6053 4443 c9 -2 25 -2 35 0 9 3 1 5 -18 5 -19 0 -27 -2 -17 -5z"/>
<path d="M4233 4423 c15 -2 37 -2 50 0 12 2 0 4 -28 4 -27 0 -38 -2 -22 -4z"/>
<path d="M4320 4421 c0 -14 58 -21 85 -11 38 15 30 20 -30 20 -30 0 -55 -4
-55 -9z"/>
<path d="M4465 4411 c-6 -5 -19 -11 -30 -14 -11 -3 -1 -5 22 -6 43 -1 65 12
37 23 -20 8 -18 8 -29 -3z"/>
<path d="M4605 4400 c3 -5 11 -10 16 -10 6 0 7 5 4 10 -3 6 -11 10 -16 10 -6
0 -7 -4 -4 -10z"/>
<path d="M5955 4400 c3 -5 14 -10 23 -10 15 0 15 2 2 10 -20 13 -33 13 -25 0z"/>
<path d="M4278 4393 c6 -2 18 -2 25 0 6 3 1 5 -13 5 -14 0 -19 -2 -12 -5z"/>
<path d="M4245 4341 l-40 -7 40 -6 c65 -9 165 -1 181 15 9 8 -125 7 -181 -2z"/>
<path d="M4463 4312 c-19 -12 16 -37 52 -38 17 0 38 -4 48 -8 10 -5 17 -4 17
2 0 6 -10 13 -22 15 -22 4 -22 4 2 6 20 2 16 5 -20 17 -52 16 -60 17 -77 6z"/>
<path d="M5810 4293 c-68 -8 -48 -18 33 -16 45 1 100 2 121 2 22 1 37 3 35 5
-7 6 -152 13 -189 9z"/>
<path d="M5660 4270 c-23 -7 -23 -8 -3 -9 12 -1 25 4 28 9 3 6 5 10 3 9 -2 -1
-14 -5 -28 -9z"/>
<path d="M6445 4185 c25 -9 107 -12 94 -4 -8 5 -34 8 -59 8 -25 0 -40 -2 -35
-4z"/>
<path d="M4750 4129 c0 -5 9 -9 20 -9 11 0 20 2 20 4 0 2 -9 6 -20 9 -11 3
-20 1 -20 -4z"/>
<path d="M5121 4122 c-14 -4 -26 -13 -28 -19 -5 -13 69 -24 77 -12 3 5 33 9
65 10 33 1 69 6 80 10 16 6 12 8 -15 8 -19 -1 -62 2 -95 5 -33 3 -71 2 -84 -2z"/>
<path d="M5394 4121 c4 -6 17 -11 30 -11 12 0 31 -7 42 -15 28 -21 63 -20 59
3 -2 9 -4 19 -4 22 -1 2 -6 -1 -13 -8 -14 -14 -32 -16 -23 -2 3 6 -4 9 -17 9
-13 -1 -36 2 -52 6 -21 6 -27 5 -22 -4z"/>
<path d="M4720 4110 c0 -5 5 -10 10 -10 6 0 10 5 10 10 0 6 -4 10 -10 10 -5 0
-10 -4 -10 -10z"/>
<path d="M4368 4093 c7 -3 16 -2 19 1 4 3 -2 6 -13 5 -11 0 -14 -3 -6 -6z"/>
<path d="M5960 4010 c0 -5 10 -10 23 -10 18 0 19 2 7 10 -19 13 -30 13 -30 0z"/>
<path d="M4320 3961 c0 -8 79 -3 89 5 2 2 -17 4 -42 4 -26 0 -47 -4 -47 -9z"/>
<path d="M3720 3930 c0 -5 15 -10 34 -10 19 0 38 5 41 10 4 6 -10 10 -34 10
-23 0 -41 -4 -41 -10z"/>
<path d="M3568 3913 c7 -3 16 -2 19 1 4 3 -2 6 -13 5 -11 0 -14 -3 -6 -6z"/>
<path d="M6910 3800 c0 -5 5 -10 11 -10 5 0 7 5 4 10 -3 6 -8 10 -11 10 -2 0
-4 -4 -4 -10z"/>
<path d="M6750 3750 c0 -5 5 -10 10 -10 6 0 10 5 10 10 0 6 -4 10 -10 10 -5 0
-10 -4 -10 -10z"/>
<path d="M5546 3684 c-3 -7 -1 -16 4 -19 6 -4 10 0 10 7 0 9 3 9 10 -2 7 -10
13 -11 18 -5 4 6 18 16 32 22 23 10 21 11 -22 11 -31 0 -48 -4 -52 -14z"/>
<path d="M3790 3670 c-9 -6 -10 -10 -3 -10 6 0 15 5 18 10 8 12 4 12 -15 0z"/>
<path d="M4100 3619 c0 -5 -4 -7 -10 -4 -12 7 -80 -4 -80 -14 0 -3 22 -4 50
-3 35 3 50 8 50 18 0 8 -2 14 -5 14 -3 0 -5 -5 -5 -11z"/>
<path d="M5375 3610 c3 -5 14 -10 23 -10 15 0 15 2 2 10 -20 13 -33 13 -25 0z"/>
<path d="M5425 3600 c4 -6 11 -8 16 -5 14 9 11 15 -7 15 -8 0 -12 -5 -9 -10z"/>
<path d="M4066 3488 c3 -5 10 -6 15 -3 13 9 11 12 -6 12 -8 0 -12 -4 -9 -9z"/>
<path d="M4200 3420 c0 -6 7 -10 15 -10 8 0 15 2 15 4 0 2 -7 6 -15 10 -8 3
-15 1 -15 -4z"/>
<path d="M4293 3402 c-13 -2 -23 -7 -23 -12 0 -13 32 -22 43 -11 15 15 4 26
-20 23z"/>
<path d="M6180 3360 c8 -5 24 -10 35 -10 17 0 17 2 5 10 -8 5 -24 10 -35 10
-17 0 -17 -2 -5 -10z"/>
<path d="M4260 3350 c0 -5 7 -10 16 -10 8 0 12 5 9 10 -3 6 -10 10 -16 10 -5
0 -9 -4 -9 -10z"/>
<path d="M5800 3280 c0 -9 25 -20 46 -20 9 0 13 4 10 9 -7 11 -56 21 -56 11z"/>
<path d="M5840 3234 c0 -8 0 -17 -1 -21 0 -4 5 -9 13 -11 9 -2 8 0 -2 8 -12 9
-9 10 15 8 40 -4 44 15 5 23 -22 5 -30 3 -30 -7z"/>
<path d="M4810 3187 c-11 -10 -20 -21 -20 -24 0 -3 8 1 18 10 10 10 26 17 35
17 9 0 18 4 22 9 10 17 -35 7 -55 -12z"/>
<path d="M4620 3190 c0 -5 5 -10 11 -10 5 0 7 5 4 10 -3 6 -8 10 -11 10 -2 0
-4 -4 -4 -10z"/>
<path d="M4915 3189 c-10 -15 3 -25 16 -12 7 7 7 13 1 17 -6 3 -14 1 -17 -5z"/>
<path d="M5200 3190 c0 -5 5 -10 11 -10 5 0 7 5 4 10 -3 6 -8 10 -11 10 -2 0
-4 -4 -4 -10z"/>
<path d="M5411 3191 c-8 -5 -19 -8 -25 -7 -6 2 -8 1 -4 -1 3 -2 2 -17 -2 -34
-10 -36 14 -55 43 -34 27 20 16 93 -12 76z"/>
<path d="M4860 3170 c-13 -8 -13 -10 2 -10 9 0 20 5 23 10 8 13 -5 13 -25 0z"/>
<path d="M5340 3164 c0 -8 5 -12 10 -9 6 3 10 10 10 16 0 5 -4 9 -10 9 -5 0
-10 -7 -10 -16z"/>
<path d="M4930 3160 c0 -5 5 -10 10 -10 6 0 10 5 10 10 0 6 -4 10 -10 10 -5 0
-10 -4 -10 -10z"/>
<path d="M5270 3158 c0 -6 3 -8 7 -5 3 4 12 2 20 -4 8 -7 13 -8 13 -1 0 5 -7
13 -16 16 -22 8 -24 8 -24 -6z"/>
<path d="M6087 3149 c7 -7 15 -10 18 -7 3 3 -2 9 -12 12 -14 6 -15 5 -6 -5z"/>
<path d="M6135 3130 c3 -5 8 -10 11 -10 2 0 4 5 4 10 0 6 -5 10 -11 10 -5 0
-7 -4 -4 -10z"/>
<path d="M6090 3120 c0 -5 5 -10 11 -10 5 0 7 5 4 10 -3 6 -8 10 -11 10 -2 0
-4 -4 -4 -10z"/>
<path d="M5320 3099 c0 -5 5 -7 10 -4 6 3 10 8 10 11 0 2 -4 4 -10 4 -5 0 -10
-5 -10 -11z"/>
<path d="M6005 3029 c-11 -16 -1 -19 13 -3 7 8 8 14 3 14 -5 0 -13 -5 -16 -11z"/>
<path d="M4739 2987 c7 -7 14 -8 21 -1 6 6 2 10 -12 11 -16 2 -18 -1 -9 -10z"/>
<path d="M4920 2990 c0 -6 7 -10 15 -10 8 0 15 2 15 4 0 2 -7 6 -15 10 -8 3
-15 1 -15 -4z"/>
<path d="M5990 2990 c0 -5 5 -10 11 -10 5 0 7 5 4 10 -3 6 -8 10 -11 10 -2 0
-4 -4 -4 -10z"/>
<path d="M4857 2973 c-4 -3 -7 -17 -7 -30 0 -22 1 -23 16 -9 8 9 20 16 25 16
5 0 9 7 9 15 0 15 -31 21 -43 8z"/>
<path d="M4980 2970 c-9 -6 -10 -10 -3 -10 6 0 15 5 18 10 8 12 4 12 -15 0z"/>
<path d="M4913 2955 c-9 -24 1 -27 15 -5 8 13 8 20 2 20 -6 0 -13 -7 -17 -15z"/>
<path d="M6365 2950 c3 -5 8 -10 11 -10 2 0 4 5 4 10 0 6 -5 10 -11 10 -5 0
-7 -4 -4 -10z"/>
<path d="M6045 2816 c17 -13 32 -22 34 -20 6 6 -40 44 -53 44 -6 0 3 -11 19
-24z"/>
<path d="M6360 2780 c0 -5 5 -10 11 -10 5 0 7 5 4 10 -3 6 -8 10 -11 10 -2 0
-4 -4 -4 -10z"/>
<path d="M4700 2746 c-13 -13 -13 -29 0 -21 6 3 10 2 10 -3 0 -6 -7 -12 -15
-16 -8 -3 -15 -10 -15 -15 0 -14 32 -1 47 18 26 34 3 67 -27 37z"/>
<path d="M4830 2740 c0 -5 7 -10 15 -10 8 0 15 5 15 10 0 6 -7 10 -15 10 -8 0
-15 -4 -15 -10z"/>
<path d="M4640 2690 c-13 -8 -12 -10 3 -10 9 0 17 5 17 10 0 12 -1 12 -20 0z"/>
<path d="M4763 2660 c2 -8 10 -15 17 -15 7 0 15 7 17 15 4 13 3 13 -6 0 -10
-13 -12 -13 -22 0 -9 13 -10 13 -6 0z"/>
<path d="M5090 2660 c0 -5 5 -10 10 -10 6 0 10 5 10 10 0 6 -4 10 -10 10 -5 0
-10 -4 -10 -10z"/>
<path d="M4600 2640 c-8 -5 -11 -12 -7 -16 4 -4 15 0 24 9 18 18 8 23 -17 7z"/>
<path d="M4662 2624 c-7 -8 -8 -14 -3 -14 10 0 25 19 20 25 -2 1 -10 -3 -17
-11z"/>
<path d="M4710 2600 c0 -5 5 -10 11 -10 5 0 7 5 4 10 -3 6 -8 10 -11 10 -2 0
-4 -4 -4 -10z"/>
<path d="M6185 2590 c3 -5 13 -10 21 -10 8 0 12 5 9 10 -3 6 -13 10 -21 10 -8
0 -12 -4 -9 -10z"/>
<path d="M6244 2575 c3 -10 -1 -15 -11 -15 -14 0 -14 -2 3 -18 19 -18 19 -18
25 2 7 25 1 46 -13 46 -6 0 -8 -7 -4 -15z"/>
<path d="M4495 2550 c-3 -5 -1 -10 4 -10 6 0 11 5 11 10 0 6 -2 10 -4 10 -3 0
-8 -4 -11 -10z"/>
<path d="M5317 2456 c-3 -8 -2 -18 3 -21 13 -8 20 9 11 24 -6 10 -10 9 -14 -3z"/>
<path d="M5254 2405 c5 -18 2 -27 -9 -32 -11 -4 -15 -13 -11 -27 2 -11 -1 -34
-8 -51 l-12 -30 -17 34 c-9 18 -14 37 -11 42 3 5 1 9 -4 9 -6 0 -8 9 -5 20 5
17 1 20 -28 19 -32 -1 -32 -2 -9 -9 24 -8 24 -8 3 -9 -15 -1 -23 -7 -23 -18 0
-16 2 -16 11 -3 8 11 9 8 4 -13 -3 -18 -2 -26 4 -23 6 4 4 -6 -4 -21 -13 -25
-13 -29 0 -39 8 -6 15 -17 15 -25 0 -11 -2 -11 -10 1 -5 8 -10 11 -10 5 0 -21
20 -40 42 -40 16 0 24 -7 26 -22 2 -13 8 -23 13 -23 5 0 9 8 7 17 -2 10 2 18
7 18 6 0 19 5 29 12 15 8 19 23 20 74 1 35 5 69 8 75 4 6 3 25 -1 42 -5 17 -7
33 -3 36 3 3 -3 6 -12 6 -14 0 -17 -5 -12 -25z m-74 -176 c0 -10 -4 -19 -10
-19 -5 0 -10 12 -10 26 0 14 4 23 10 19 6 -3 10 -15 10 -26z"/>
<path d="M5618 2375 c2 -19 8 -35 13 -35 5 0 9 -5 9 -11 0 -6 -7 -8 -16 -5
-11 4 -14 1 -12 -12 1 -9 -2 -24 -7 -32 -8 -13 -7 -13 9 0 17 13 21 12 45 -20
43 -57 105 -114 109 -101 2 6 -2 18 -8 26 -7 9 -10 27 -7 45 10 45 -10 86 -49
105 -19 9 -34 23 -34 32 0 16 -27 42 -45 43 -7 0 -9 -15 -7 -35z"/>
<path d="M6520 2381 c0 -6 4 -13 10 -16 6 -3 7 1 4 9 -7 18 -14 21 -14 7z"/>
<path d="M6613 2245 c-9 -10 -6 -15 14 -24 14 -7 28 -9 31 -6 3 3 0 5 -6 5 -7
0 -12 6 -12 14 0 21 -13 26 -27 11z"/>
<path d="M6670 2233 c8 -3 18 -11 22 -17 4 -6 10 -7 15 -3 9 10 -16 27 -37 26
-13 -1 -13 -1 0 -6z"/>
<path d="M6670 2216 c0 -9 62 -66 73 -66 5 0 4 7 -3 15 -10 12 -10 15 1 15 10
1 8 5 -5 15 -10 8 -23 12 -28 9 -5 -3 -15 0 -23 6 -8 7 -15 10 -15 6z"/>
<path d="M6960 2210 c0 -5 7 -10 15 -10 8 0 15 5 15 10 0 6 -7 10 -15 10 -8 0
-15 -4 -15 -10z"/>
<path d="M5350 2192 c0 -4 9 -22 20 -40 25 -41 45 -33 22 8 -16 28 -42 48 -42
32z"/>
<path d="M6760 2177 c0 -8 11 -24 25 -37 14 -13 25 -29 25 -37 0 -7 5 -13 10
-13 17 0 11 39 -9 51 -11 7 -16 19 -13 31 3 13 -1 18 -17 18 -11 0 -21 -6 -21
-13z"/>
<path d="M4980 2150 c-9 -6 -10 -10 -3 -10 6 0 15 5 18 10 8 12 4 12 -15 0z"/>
<path d="M5170 2150 c0 -5 5 -10 11 -10 5 0 7 5 4 10 -3 6 -8 10 -11 10 -2 0
-4 -4 -4 -10z"/>
<path d="M5560 2140 c0 -11 2 -20 4 -20 2 0 6 9 9 20 3 11 1 20 -4 20 -5 0 -9
-9 -9 -20z"/>
<path d="M5240 2121 c0 -15 32 -23 44 -11 8 8 6 9 -6 5 -11 -4 -18 -2 -18 4 0
6 -4 11 -10 11 -5 0 -10 -4 -10 -9z"/>
<path d="M5239 2079 c-10 -6 -7 -9 14 -9 29 0 35 5 14 13 -8 3 -20 1 -28 -4z"/>
<path d="M5353 2065 c-3 -9 -3 -19 1 -22 3 -4 6 1 6 10 0 8 6 18 13 20 9 4 9
6 -1 6 -7 1 -15 -6 -19 -14z"/>
<path d="M5590 2023 c0 -6 8 -17 18 -24 16 -13 16 -13 2 6 -8 11 -16 22 -17
24 -2 2 -3 0 -3 -6z"/>
<path d="M5302 1825 c0 -16 2 -22 5 -12 2 9 2 23 0 30 -3 6 -5 -1 -5 -18z"/>
</g>
</svg>
