<?xml version="1.0" standalone="no"?>
<!DOCTYPE svg PUBLIC "-//W3C//DTD SVG 20010904//EN"
 "http://www.w3.org/TR/2001/REC-SVG-20010904/DTD/svg10.dtd">
<svg style="fill: black; stroke: black;" version="1.0" xmlns="http://www.w3.org/2000/svg"
 width="940.208333pt" height="833.929227pt" viewBox="0 0 940.208333 833.929227"
 preserveAspectRatio="xMidYMid meet">
<metadata>
Created by potrace 1.16, written by Peter Selinger 2001-2019
</metadata>
<g transform="translate(-29.000000,897.929227) scale(1.000000,-1.000000)"
fill="#87CEEB" data-original="#000000" stroke="none">
<path d="M305 897 l-1 0 1 -4 0 -4 -1 0 -1 -1 0 -2 0 -2 3 -5 3 -5 4 0 3 0 4
-3 3 -2 0 -1 0 -1 2 -2 1 -2 3 1 3 1 2 -1 3 0 -1 -3 0 -3 1 -3 2 -3 0 -3 0 -3
-4 -1 -3 -1 -4 -1 -3 -1 -2 2 -2 2 -1 0 -1 0 -2 -2 -2 -1 0 -3 0 -3 2 -1 2 0
1 0 1 0 -1 -1 0 -2 -2 0 -1 -1 0 -1 0 -2 -3 0 -3 0 0 -1 0 -1 -5 -3 -4 -3 -1
-1 -1 0 -2 0 -2 0 -2 -3 -3 -2 -1 0 -2 -1 -2 -2 -3 -1 -1 -3 -2 -3 0 -1 1 -1
-2 -1 -1 -1 0 -1 0 -1 -6 -5 -6 -5 -1 1 -1 1 -3 -2 -2 -2 -1 0 -1 0 -3 -2 -3
-2 -2 1 -2 2 -1 0 -2 -1 0 -2 0 -1 2 -3 2 -2 0 -1 0 -1 -10 -10 -10 -10 -1 1
-1 1 -2 0 -2 0 -1 -1 0 -2 1 -2 1 -2 -1 -1 -1 0 -1 1 -2 1 -1 0 0 0 -2 0 -2 0
1 2 0 2 -2 0 -2 0 0 -1 0 -2 -1 0 -1 0 1 -1 0 -2 -2 0 -2 0 -5 -4 -4 -5 -1 0
-2 0 -1 -2 -1 -1 1 -2 1 -2 0 0 0 -1 -3 0 -3 0 0 -2 0 -2 2 0 3 -1 2 1 2 1 1
0 0 -1 -1 -2 -1 -3 1 -1 1 0 0 -3 -1 -2 2 -3 1 -3 -2 -3 -3 -3 -2 -5 -3 -5 -2
-6 -1 -6 -2 -4 -2 -3 -2 -3 -2 -2 -2 0 -2 0 -3 -3 -3 -3 -1 -3 0 -2 1 -2 1 -2
0 -1 0 -1 -3 -1 -2 0 -3 -1 -2 0 -2 0 -2 0 1 -1 0 -1 -1 -1 -1 -1 -2 -1 -1 0
-1 0 -1 0 0 -1 0 -2 -1 0 -1 0 0 -4 1 -4 -1 -4 -1 -3 2 -3 3 -4 -1 0 0 -1 0
-1 -1 -1 -1 -3 -1 -3 0 -3 0 -4 -1 -1 -2 -1 0 -2 0 -2 -1 -1 -2 -2 0 -3 1 -4
-3 -3 -3 -3 -1 0 -1 1 0 -1 0 -1 1 0 1 0 -1 -6 0 -5 -1 1 -1 0 0 -1 -1 -1 1 0
1 0 0 -2 0 -1 -1 1 -1 0 0 -1 0 -2 -3 1 -3 0 -1 -1 -1 -2 1 -2 1 -3 1 0 2 0 1
1 1 1 0 -2 0 -2 1 1 0 2 1 0 2 0 -2 2 -2 1 2 0 3 -1 -1 1 0 1 1 1 0 2 3 0 3 0
0 -1 0 -2 2 -2 3 -2 0 -2 0 -1 -1 1 0 1 -1 0 -1 0 0 -2 0 -2 2 0 2 0 1 -1 1
-1 0 2 0 2 -1 0 -1 0 0 1 0 1 2 0 2 -1 0 1 0 1 0 2 0 3 2 -1 3 0 1 -2 2 -2 -1
-5 0 -4 0 -7 -1 -7 0 -6 -1 -6 -1 -3 -1 -3 -2 0 -1 0 -1 -2 -1 -2 1 -1 2 0 0
-4 -1 -3 -2 -2 -2 -1 0 -3 0 -3 2 0 2 0 -1 -1 -1 -2 0 -2 1 -1 0 -2 1 -1 -1 0
-1 0 0 -6 0 -5 0 -1 -1 -1 1 -1 1 0 0 1 -1 1 1 0 1 -1 0 -2 0 -3 1 -1 2 -2 1
0 1 0 1 -5 0 -5 -1 0 -2 0 0 -2 0 -3 1 1 2 0 1 -2 1 -2 0 -3 0 -4 -6 -2 -5 -3
-1 -2 0 -1 -4 0 -3 0 -5 -3 -4 -4 -2 -3 -1 -4 2 -4 1 -4 0 -3 0 -3 -1 -1 -1 0
0 -2 -1 -2 2 -1 2 -2 0 0 1 0 0 2 0 1 3 1 4 1 8 -4 8 -4 2 0 2 0 1 1 1 2 1 -3
2 -3 1 -6 1 -6 1 2 0 2 1 0 1 0 1 -3 1 -3 0 -3 0 -2 1 -4 2 -4 2 -5 2 -4 2 -1
2 0 1 -4 1 -3 2 -3 1 -2 2 -2 2 -2 5 -7 4 -7 3 -3 4 -3 2 0 2 0 1 -1 1 0 3 -5
3 -5 0 0 0 -1 4 -7 5 -8 0 -1 0 0 5 -7 5 -7 9 -9 8 -9 2 1 1 0 12 -10 12 -11
1 -1 1 -2 6 -5 6 -4 2 0 2 0 1 1 2 2 1 0 2 0 0 1 1 2 3 -2 3 -1 2 -4 3 -3 6
-5 6 -5 8 -4 8 -5 1 0 1 0 3 -2 4 -2 1 -1 0 -1 -1 -1 -1 -1 0 -2 0 -1 2 -1 1
-2 1 0 2 0 1 3 1 2 0 3 0 3 1 0 2 1 -2 1 -1 2 -1 3 0 3 3 3 3 3 0 1 0 1 1 0 2
0 3 -3 4 -4 0 0 1 0 -1 1 -1 2 2 1 1 0 1 -1 0 -1 1 0 1 0 5 -4 6 -4 1 0 1 0 4
-4 5 -4 7 -3 6 -4 2 2 2 2 5 -3 5 -2 1 0 1 0 0 1 0 1 -2 1 -2 1 2 1 2 1 1 -1
0 -1 3 1 4 0 0 -1 1 -1 2 0 2 0 2 -1 3 -2 3 0 4 -1 5 -2 5 -1 1 -2 2 -1 2 1 1
1 2 -2 1 -1 -1 1 0 2 1 1 2 1 1 -1 0 -1 -1 -1 -1 -1 2 -3 2 -3 3 1 3 0 2 0 2
0 2 -1 1 -2 -3 -1 -3 0 -1 -2 -1 -1 1 -2 2 -1 4 0 4 0 0 -2 0 -2 1 1 0 2 3 -1
3 0 0 1 1 1 -3 1 -3 1 1 2 1 1 2 0 1 0 1 -2 1 -1 0 2 0 2 3 0 3 1 3 -1 4 0 2
-2 3 -2 6 -1 6 -1 5 -2 6 -1 2 0 2 0 0 -1 1 -1 7 -1 7 0 0 1 -1 1 2 1 2 0 0 1
1 1 4 0 3 0 1 -1 1 -1 3 -1 4 0 -1 -2 -1 -1 1 -2 2 -1 -2 -1 -1 0 0 -2 0 -1 1
0 1 0 0 1 0 1 2 -1 2 -1 2 1 2 1 0 3 -1 3 2 1 3 0 1 0 1 0 3 -3 3 -3 0 1 -1 2
2 1 2 2 0 0 1 0 1 -1 1 -1 2 0 3 0 2 0 2 0 -3 1 -2 2 1 0 2 1 -3 -1 -3 0 0 2
0 2 1 2 2 1 -1 2 -1 2 -2 0 -1 0 0 1 0 1 2 2 1 2 1 -1 0 0 0 1 0 1 -2 1 -1 2
-1 -1 -2 -1 -2 3 -2 3 -3 0 -2 1 -2 -1 -1 -1 -1 -3 -1 -2 -4 -1 -3 0 -1 0 0 1
1 2 1 2 -1 3 -1 2 -1 0 -1 -1 -1 -2 0 -2 -2 0 -2 0 0 1 1 1 -2 1 -2 2 -4 0 -3
-1 0 2 1 2 -3 2 -3 1 0 0 -1 0 -1 0 0 0 2 2 2 3 4 0 5 1 2 2 2 1 1 0 1 -1 0 1
0 2 -2 -1 -1 0 0 2 0 1 -1 0 0 -1 -2 1 -1 1 -1 -1 -2 -1 -2 1 -2 1 -2 0 -3 0
-1 2 -1 1 -2 -1 -1 0 -10 -1 -9 0 0 2 -1 1 4 0 5 -1 0 1 0 1 -2 0 -2 1 -7 1
-6 0 2 -1 3 -1 0 -1 0 -1 -1 -1 -2 0 -3 1 -3 2 -5 1 -5 1 0 2 1 2 -5 2 -4 1
-7 3 -6 4 0 2 0 2 -4 1 -3 1 -2 0 -1 0 -3 1 -2 2 2 0 2 1 0 1 0 2 -1 0 -1 1 3
3 2 2 -1 0 0 0 -3 0 -3 1 0 -3 1 -2 -2 0 -1 0 -3 1 -3 0 0 -3 0 -3 -1 1 -1 0
0 1 1 1 -2 0 -1 1 0 1 0 1 2 0 1 -1 0 1 0 1 -2 0 -1 1 -1 -1 -1 -1 -1 0 -1 1
1 1 0 1 -1 1 -1 1 -3 0 -2 0 1 -1 0 -1 -2 0 -3 0 -1 1 0 1 1 1 2 1 -1 2 0 1 1
0 1 0 -1 2 0 3 1 -2 1 -1 2 0 3 -1 0 1 0 1 -1 -1 -1 0 0 1 0 2 -3 1 -3 1 -8 6
-8 5 -1 0 0 0 -4 3 -4 3 -6 0 -5 0 -4 2 -3 2 -2 0 -2 0 -1 5 -2 6 0 1 0 2 1 0
1 0 2 -2 2 -2 2 1 2 2 3 -1 2 -1 0 -3 0 -2 5 -2 5 -3 2 3 2 4 0 1 0 1 1 0 1 0
0 1 0 2 3 -1 3 0 -1 2 -2 3 2 3 1 3 2 -1 1 0 -1 -1 0 -1 5 -1 4 -2 4 -2 3 -3
5 -2 5 -2 -1 -1 0 -2 2 0 2 -1 1 2 0 1 3 0 2 0 0 -1 -1 -1 -2 -1 -2 -1 2 0 2
0 1 -1 1 -2 3 1 2 1 0 1 0 1 -2 0 -2 0 0 1 0 1 4 -1 5 0 2 -2 3 -1 3 -2 4 -2
-1 -2 0 -2 1 0 1 -1 1 1 2 2 2 1 1 1 -1 1 -1 1 1 0 2 1 2 -1 2 -1 -3 2 -2 2
-3 0 -3 -1 -1 1 -1 1 -1 1 0 2 1 0 2 0 0 2 0 1 4 -1 5 0 -1 1 -1 1 -2 0 -2 1
4 0 5 0 0 -1 1 0 -1 -2 -1 -1 3 0 3 0 0 1 0 1 1 0 2 0 0 -1 1 -1 0 1 0 1 2 0
1 0 0 -1 0 -1 3 1 3 1 0 -1 0 -2 2 1 2 0 4 -2 5 -2 3 0 2 1 2 -2 2 -1 8 0 9 0
1 -2 1 -1 0 -1 0 -1 -3 1 -2 1 0 -1 1 0 -2 -2 -2 -2 1 -1 2 -1 1 0 2 0 2 -4 3
-3 -1 -1 -1 0 0 -2 0 -1 2 0 1 0 1 2 0 2 4 1 4 1 2 2 3 3 3 0 2 0 1 2 0 2 1 0
1 0 0 -1 0 -2 4 0 4 0 1 1 1 1 8 0 8 1 0 -1 0 -1 0 -1 0 -1 5 0 5 0 -3 -1 -2
-1 -1 -1 0 -1 2 0 2 0 1 2 2 1 2 0 2 0 0 1 1 2 2 -1 2 0 0 -1 0 0 0 -4 0 -3 2
-2 2 -1 0 -2 0 -2 2 -1 3 -1 -3 -1 -3 -1 0 -1 0 -2 -10 -3 -10 -3 -5 -1 -5 -1
-1 1 -1 2 0 -2 0 -2 -9 -1 -9 -2 0 -1 0 -1 2 0 2 1 5 1 6 0 13 3 13 3 5 1 5 2
1 0 2 0 0 -1 -1 -2 1 -1 2 -1 1 2 1 1 4 -1 4 -1 -1 -2 -1 -1 1 0 2 1 2 1 1 0
0 -1 0 -1 2 -1 3 -1 -2 0 -1 0 0 -1 0 -1 3 0 4 1 2 0 2 1 3 1 4 2 3 0 3 1 5 3
6 2 0 1 0 1 2 2 2 2 -2 5 -1 5 2 4 1 4 4 1 3 0 1 2 1 2 3 0 3 -1 2 -1 3 -1 0
-1 0 -1 1 1 2 1 1 0 2 0 2 0 2 1 0 -1 0 -1 -6 -3 -6 -3 0 -1 0 0 2 0 1 1 0 -1
-1 -2 2 0 2 0 0 1 0 1 5 1 5 2 1 -1 1 0 0 -1 0 -2 -2 -2 -3 -2 -1 0 -1 1 -1
-2 -2 -2 -1 1 -1 0 0 -1 0 -1 2 -1 3 -1 2 1 2 0 0 2 0 1 -1 0 -1 0 2 2 3 1 1
0 1 0 0 -1 0 -2 1 0 1 0 0 1 0 2 4 2 3 3 3 -2 3 -1 0 0 1 0 0 3 0 4 6 3 5 3 3
1 2 0 4 4 5 4 -3 1 -2 1 -2 0 -1 -1 2 3 2 3 -1 0 -2 0 1 2 1 1 3 -1 2 0 1 2 0
2 1 -1 2 0 4 5 5 5 0 -1 1 0 2 -1 2 0 0 0 0 1 -2 1 -1 2 1 3 1 2 2 0 1 -1 0 2
-1 2 1 3 1 3 2 1 1 2 2 -1 2 -1 3 2 2 3 0 2 0 2 -1 5 0 5 2 -1 3 0 1 1 1 2 0
1 0 1 -2 0 -2 0 -1 -1 -1 -1 0 1 0 1 -2 2 -1 2 1 1 2 1 -1 1 0 1 2 3 3 2 0 1
0 2 2 2 1 3 -2 0 -1 -1 0 0 0 1 3 3 3 3 0 -2 0 -2 1 0 2 0 1 1 0 1 0 4 0 3 2
1 2 0 0 1 0 1 3 4 4 4 0 -1 1 -1 3 1 4 2 3 5 3 5 0 1 0 1 1 1 2 1 3 0 3 0 1 2
1 3 1 1 2 1 0 3 0 3 2 1 1 2 1 0 0 0 -1 -1 0 -2 2 1 3 0 0 1 0 1 3 0 3 1 1 2
1 2 0 3 1 3 1 3 2 3 1 1 1 2 2 -1 2 0 2 1 1 1 1 -2 0 -2 4 -1 3 -1 1 0 1 1 1
3 2 4 -2 3 -1 3 -2 0 -2 1 -3 -2 -3 -1 0 -2 -1 -1 -2 1 -2 1 -1 -1 -1 -1 -1 1
-1 1 0 5 0 5 -3 1 -2 0 -2 0 -1 0 1 2 2 2 0 3 1 4 2 1 3 1 0 2 0 3 -2 0 -2 0
-1 -2 -2 -2 -2 0 -2 0 0 -3 -1 -2 -2 -3 -2 -2 -1 0 -1 0 -1 -2 -2 -2 -1 0 -1
0 0 -1 0 0 -3 -4 -4 -4 -1 0 -2 0 0 -2 1 -1 -3 -1 -2 -1 0 -1 0 -1 -3 -3 -3
-4 -2 -2 -1 -1 0 2 1 3 -2 1 -1 0 -1 -2 -1 -3 -2 -1 -2 -1 -1 0 0 0 0 -1 0 0
1 0 1 0 1 1 2 0 0 -1 0 -1 -3 -4 -4 -3 0 3 0 4 -3 5 -2 4 -4 2 -4 2 0 1 -1 2
3 3 2 3 0 1 0 1 1 0 1 0 0 -2 0 -2 2 0 2 -1 2 2 1 1 0 1 0 1 -3 0 -3 -1 0 1 0
1 2 3 2 3 2 2 3 3 0 1 -1 0 1 2 1 2 -1 2 -1 2 1 3 1 3 1 0 2 1 0 0 1 0 0 -1
-1 0 2 -2 2 -1 -1 -2 0 -2 -2 0 -1 0 -2 0 -1 -1 3 -2 3 -3 -1 -1 0 0 1 1 2 2
0 2 1 2 1 0 2 0 1 1 2 2 0 1 0 1 1 0 1 1 1 -2 1 -2 -1 1 -2 0 0 -1 0 -1 2 0 2
1 1 0 2 1 0 3 0 3 1 2 1 3 2 -1 2 0 0 1 0 1 -1 1 -1 0 2 2 1 2 -1 2 -2 2 2 1
2 1 0 1 0 1 -1 1 -2 2 0 4 1 4 -1 0 -2 1 -1 -1 -2 -2 0 -1 0 0 0 -3 -1 -2 -3
-3 -2 -2 0 -2 1 -2 -1 -1 -2 0 -1 -3 -1 -3 -3 -1 -3 0 0 1 0 1 2 1 2 2 1 1 1
2 0 1 0 1 1 1 2 1 0 3 0 3 -4 3 -4 3 2 3 1 4 2 6 1 6 2 2 1 1 -1 2 -1 2 -3 -3
-2 -2 0 1 0 2 -1 0 -2 0 -1 1 0 1 2 2 2 2 1 3 0 2 1 0 2 0 2 2 2 2 -1 3 -1 3
2 3 2 4 -1 3 0 3 -2 0 -2 0 -3 0 -3 0 0 5 1 6 1 3 0 4 1 0 1 -1 2 2 2 1 1 3 1
4 3 0 4 1 -1 2 0 2 0 1 -1 1 0 0 -1 0 -1 1 -1 1 -4 1 -5 0 -1 0 0 1 1 3 1 2
-2 2 -2 2 -2 0 -1 0 1 5 0 5 1 1 1 1 -1 2 -1 2 1 2 1 1 0 2 0 2 1 1 1 2 0 2 1
3 -2 6 -1 6 0 10 0 11 0 6 0 6 0 4 -1 4 -2 5 -2 5 -3 2 -3 3 -1 -1 0 -1 1 -2
0 -2 -1 0 -1 0 0 -4 1 -3 -1 -4 -1 -4 -2 1 -1 2 -1 -1 0 -1 0 -6 -1 -6 1 -1 1
0 1 2 1 3 0 -5 -1 -5 0 -4 0 -3 -1 0 -1 0 0 1 1 1 -1 0 -1 0 0 -1 0 -1 1 -3 0
-2 -2 0 -3 0 1 1 0 2 -3 -3 -3 -3 -3 -4 -3 -3 0 -10 -1 -10 -1 -17 -1 -16 0
-2 -1 -2 -2 -5 -2 -5 -3 -7 -2 -7 -2 -4 -3 -4 0 1 0 1 -1 0 -1 0 0 -2 0 -2 -1
-1 -2 -1 0 -1 0 -1 1 1 2 0 -2 -1 -2 -2 -1 -2 0 -2 0 -1 -1 0 -1 -4 -1 -3 -1
0 -1 0 1 2 0 1 -1 0 -2 0 0 -2 -1 -2 1 0 1 0 0 -1 0 -1 -2 0 -2 -1 -1 0 0 1 2
5 2 5 0 1 -1 2 -1 -4 -1 -4 -1 -2 -1 -1 0 3 0 3 3 4 2 3 0 2 0 2 1 2 1 2 -1 0
-1 0 0 2 1 1 1 3 0 2 -1 0 -1 0 -1 3 -1 3 -2 1 -1 2 0 2 0 2 -2 -1 -1 -1 0 5
0 6 1 -1 1 0 1 1 2 2 1 2 1 3 2 5 1 6 1 -1 1 0 -1 -3 -1 -2 0 -1 0 0 2 0 2 0
0 -1 -1 -2 1 0 1 0 0 5 0 4 1 1 0 2 0 2 0 2 1 2 1 2 -2 2 -2 2 -2 -1 -1 -1 0
1 0 2 -1 6 0 6 -1 8 -1 9 0 6 -1 6 2 0 1 -1 0 1 0 1 -1 1 -2 0 -1 6 0 7 -3 10
-2 10 -4 10 -4 11 -2 4 -3 4 -1 -4 0 -3 -1 0 0 0 -1 1 -2 2 -2 6 -3 7 -2 1 -2
2 -2 5 -3 6 -2 3 -1 3 -6 9 -5 9 0 1 0 1 1 -1 1 -1 1 0 1 0 -2 3 -1 3 -1 1 -2
1 0 -1 -1 -1 0 -1 1 -1 -1 0 -1 -1 -2 5 -3 5 -4 5 -3 5 -1 0 -1 0 0 1 0 2 -8
8 -7 8 -8 6 -8 5 -3 0 -2 1 0 -2 0 -2 3 -3 4 -3 5 -5 5 -4 2 -1 3 -1 0 -2 0
-2 -1 -1 -2 -1 0 -2 0 -3 1 -2 2 -1 0 -2 0 -1 2 -2 1 -1 5 -6 5 -6 0 -1 0 -1
5 -3 5 -3 0 -1 0 -1 3 -1 2 -1 3 -7 4 -7 5 -6 6 -5 2 -3 1 -3 3 -8 2 -7 5 -5
5 -5 1 0 0 0 -1 2 -1 3 0 1 0 1 -1 0 -1 1 0 -1 0 -1 -2 2 -1 3 0 1 0 0 2 0 2
0 1 -1 1 -1 0 1 0 1 3 -5 2 -4 4 -8 3 -8 1 -7 2 -6 1 -9 1 -9 0 -2 0 -2 -1 4
-2 4 -3 4 -2 5 -2 7 -1 7 -1 5 -1 6 -1 2 -1 3 -1 -1 -1 -1 1 -1 1 0 1 -5 1 -5
0 -8 0 -8 -1 -3 -1 -2 1 -7 2 -7 1 -3 0 -2 0 -20 1 -20 0 -1 1 -1 -1 -5 -1 -4
-3 -4 -2 -3 -4 -6 -4 -5 -1 -4 -1 -3 0 -4 0 -3 1 -3 1 -2 2 -3 2 -3 -1 -6 -1
-6 -3 -6 -2 -6 0 -4 0 -3 -2 -4 -2 -4 0 -2 0 -2 1 0 2 0 1 4 2 3 0 1 0 2 2 3
3 3 0 -2 0 -1 -2 -6 -2 -6 -6 -12 -6 -12 -2 -3 -2 -2 0 1 -1 1 1 2 1 2 2 6 2
7 1 0 1 0 0 1 0 1 -2 0 -1 -1 0 -1 0 -1 -3 0 -3 1 -1 -3 0 -3 -2 -1 -1 -1 0
-2 0 -2 -1 0 -1 0 -1 -2 -1 -2 2 1 1 0 0 -1 0 -2 1 0 0 0 2 1 2 1 0 -1 -1 -1
-2 -1 -1 0 -1 -1 -1 -1 0 1 0 2 -1 0 -2 -1 0 1 0 1 -3 -3 -4 -4 0 -1 0 -2 -4
-5 -4 -5 0 -3 -1 -4 1 -2 1 -3 2 0 1 0 -1 -1 0 -1 -3 0 -2 1 -5 -5 -4 -5 -6
-6 -5 -6 -4 -1 -3 -2 0 -1 -1 0 0 -3 -1 -3 3 0 2 0 3 3 4 4 4 3 5 4 4 2 4 2 2
2 3 2 6 7 7 7 0 -1 0 -1 -2 -3 -2 -3 -2 -2 -2 -2 0 -2 1 -1 -2 0 -1 0 -1 -2 0
-1 -1 1 -1 2 0 -2 0 -1 -3 -1 -3 -1 0 -2 0 -1 -2 -1 -2 -2 -7 -6 -6 -6 -3 -1
-2 0 -4 -3 -3 -3 -3 0 -2 -1 0 1 0 1 4 3 3 2 -1 2 -1 1 -2 -2 -1 -1 0 1 0 1
-1 -2 -1 -2 -1 1 -1 1 -9 -6 -10 -7 -6 -4 -6 -3 -3 -2 -3 -2 -3 -2 -3 -2 1 -1
1 -2 3 1 3 1 1 0 1 -1 -5 -3 -5 -3 -8 -5 -8 -4 -18 -6 -18 -6 -7 -1 -7 -2 -7
0 -7 -1 0 2 0 1 4 3 4 4 2 0 3 0 0 -1 1 -1 2 1 3 0 1 1 1 2 3 1 4 2 7 1 8 2 2
1 2 0 0 2 -1 2 2 1 2 0 0 2 0 1 2 0 2 0 -2 -1 -1 -1 4 0 4 1 2 2 3 3 2 -1 2
-1 1 1 1 1 -1 0 -1 0 0 2 1 2 -5 -3 -4 -2 0 1 1 2 3 0 3 1 0 3 1 3 2 0 2 1 0
2 0 1 -4 0 -3 1 0 -1 0 -1 -2 0 -2 0 -4 -2 -3 -1 -8 -4 -7 -3 -3 0 -3 0 -3 -1
-3 -2 -2 1 -2 1 -2 -1 -1 0 0 -2 0 -1 2 -1 2 -2 3 1 4 1 3 2 3 1 7 2 8 3 2 0
1 0 3 2 3 1 1 0 0 -1 -2 -1 -1 -2 -2 0 -2 0 -1 -2 -2 -2 -1 1 -1 0 -7 -4 -7
-4 0 -1 0 0 3 1 2 0 -1 -2 0 -1 1 0 1 1 0 0 0 -1 -4 -1 -3 -2 -2 0 -2 0 1 1 1
1 -2 1 -1 2 -11 -1 -11 0 -2 1 -1 1 -5 0 -4 -1 -3 -2 -3 -2 -5 0 -4 0 -5 2 -4
2 -7 1 -6 0 -1 1 -1 1 -3 0 -3 1 -2 1 -2 0 -3 1 -3 0 1 -2 2 -2 1 0 0 0 -1 1
0 1 3 -2 3 -2 1 -1 1 -2 3 -1 3 -2 0 -1 0 -2 -1 -1 -2 -1 -3 0 -3 0 -7 1 -7 1
-5 2 -4 2 -1 -1 0 0 1 -2 2 -1 6 -2 7 -3 3 -1 4 -1 1 0 2 0 0 -1 0 -2 2 1 2 0
1 -1 2 -1 3 0 3 -1 2 -1 2 0 1 -1 1 0 -7 0 -7 1 -9 3 -9 2 -4 1 -4 1 -2 1 -2
0 2 -1 2 -2 -2 1 -2 0 -4 1 -3 1 -1 1 -1 1 -3 0 -3 1 -6 5 -6 4 -1 0 -1 0 -1
-1 0 -1 -4 0 -4 1 1 -3 0 -3 1 -1 1 0 2 -5 2 -4 1 -2 1 -1 1 -3 1 -2 2 -2 3
-2 0 -2 0 -2 1 -1 1 -1 -1 0 -1 0 -3 2 -3 2 -4 3 -3 3 -1 0 -1 -1 -1 4 -1 3
-2 -1 -2 -1 0 -2 0 -2 -1 0 -1 0 0 -1 0 -2 1 0 1 0 3 -3 4 -4 4 -2 4 -2 2 -1
3 -1 1 -2 0 -1 -1 1 -2 2 -1 0 -1 0 1 -1 1 0 1 -3 1 -3 -1 -1 -1 -1 1 0 2 0 2
0 2 -1 2 -2 3 -3 3 -1 3 0 5 -1 5 -1 1 -1 1 -1 5 0 5 0 -1 -2 0 -1 -1 -3 0 -3
2 -1 2 -1 5 0 5 0 2 1 3 0 3 0 4 -1 0 -2 0 -1 -1 0 -1 0 0 -2 1 -3 -1 0 0 0
-3 0 -3 0 -1 -2 0 -2 -2 0 -2 1 -2 0 -2 0 -1 1 0 1 -4 2 -3 1 -2 -1 -1 -1 -4
1 -3 0 0 1 0 1 -2 0 -2 0 -1 1 -1 1 -1 -1 -1 -1 -3 0 -3 0 7 -4 7 -3 1 0 1 -1
-2 -1 -1 -1 1 0 2 0 3 -2 4 -2 2 0 2 0 0 -1 -1 -1 2 -2 2 -2 -1 -1 -1 0 0 -3
1 -2 -1 1 -1 0 -1 3 -1 2 -4 0 -3 -1 1 1 1 1 0 1 -1 0 -3 0 -4 0 -2 1 -3 1 0
-1 -1 -1 -1 1 -1 1 -4 1 -4 2 -2 -1 -2 0 0 1 0 1 1 0 1 0 -2 3 -2 2 -4 3 -3 4
1 0 1 1 2 5 2 4 -1 3 -2 3 -2 0 -2 0 -2 -2 -1 -3 0 -2 1 -2 -1 0 -1 0 0 2 0 1
-1 0 -2 0 -5 3 -6 3 -6 0 -6 0 -2 2 -2 2 1 1 0 1 2 -1 3 0 -2 1 -2 2 1 2 1 3
2 0 1 0 1 2 1 3 -1 1 -1 1 1 0 0 1 2 -1 1 -1 0 1 0 2 2 0 1 0 0 1 0 2 -1 0 -2
1 0 3 -1 3 -1 0 -2 0 -1 2 -2 2 0 1 0 2 -1 0 0 0 -3 2 -3 3 -3 3 -2 4 0 2 0 1
-4 4 -5 5 -4 5 -4 5 -2 1 -1 2 -2 3 -3 4 1 0 1 0 -1 3 0 4 -1 1 -1 1 -3 0 -2
0 -3 5 -2 4 0 2 1 2 -2 2 -2 2 -1 3 0 2 -5 6 -5 5 -2 0 -1 0 -1 2 -1 1 -5 3
-5 2 -1 1 -1 0 -2 -3 -1 -4 -2 1 -2 1 -1 0 -1 0 1 1 0 2 -2 2 -2 2 -2 7 -1 8
0 3 -1 3 -1 1 -1 2 0 5 0 5 -1 0 -1 0 0 4 1 5 -3 -1 -3 0 0 1 0 1 1 1 1 2 1
-2 1 -1 2 1 2 1 -2 2 -2 2 0 3 -1 2 1 4 0 4 3 1 2 1 1 2 0 2 1 0 1 0 0 3 0 4
1 1 0 2 1 0 1 0 0 -2 -1 -2 2 -2 2 -3 3 0 2 0 3 2 2 2 0 -1 0 -2 2 -3 3 -2 1
0 2 1 0 5 0 5 -1 3 -1 3 -3 1 -3 0 -2 0 -2 -1 -2 1 -2 1 1 1 1 1 0 2 0 2 -1 1
-2 2 -2 -1 -2 -1 0 -2 0 -1 -1 1 -2 0 0 3 1 4 1 0 2 1 1 3 0 4 -1 0 -1 1 -2
-1 -3 0 0 -2 0 -1 -3 -2 -2 -1 -1 -4 0 -4 -1 1 -1 1 -1 0 -1 -1 0 -2 0 -2 -1
-1 -1 0 0 5 1 6 1 2 1 3 1 6 0 7 1 1 1 0 0 2 0 2 -1 0 -1 0 -2 -3 -1 -2 -1 2
-1 2 0 4 0 5 2 6 3 6 1 1 2 1 4 -4 4 -4 1 0 2 0 0 -3 0 -3 -1 -2 -1 -2 2 1 2
1 -1 1 0 1 4 0 3 -1 4 2 3 1 0 1 0 1 2 0 3 0 3 1 4 2 2 2 2 3 0 1 0 2 0 4 -1
4 3 6 3 7 0 1 0 1 2 1 3 1 0 -1 0 0 -2 -4 -3 -3 0 -2 0 -1 2 0 2 0 1 2 0 1 -1
1 -1 1 2 2 2 2 1 0 1 0 0 -5 -1 -6 -3 -5 -4 -6 -2 -1 -3 -1 0 -3 -1 -3 1 -3 1
-4 -1 -4 -1 -4 0 -2 0 -2 2 -1 2 -1 2 1 1 1 0 3 -1 2 2 4 1 4 1 1 1 2 2 0 3 1
2 0 3 1 3 2 3 3 2 3 2 3 -1 5 -1 5 -1 3 -1 3 3 3 3 3 1 5 0 5 2 3 2 3 2 1 2 1
4 5 4 4 1 0 1 0 0 1 0 2 3 3 2 3 1 0 2 -1 1 2 2 1 3 -2 3 -2 2 2 1 2 0 1 0 2
-2 1 -2 2 3 1 3 2 1 -1 2 -1 2 0 2 0 2 1 2 0 2 2 3 2 -1 1 0 1 -3 -1 -2 0 1 2
1 2 7 2 8 2 5 0 5 -1 6 0 7 -1 4 2 5 1 1 2 1 2 -1 1 0 2 -2 0 -1 1 -5 1 -5 0
0 1 -1 1 6 1 6 2 5 6 5 5 0 2 1 1 3 0 3 0 0 -1 -1 -2 2 0 2 0 0 1 1 1 5 0 5 0
0 -2 1 -1 1 0 1 0 0 2 -1 1 2 2 1 1 2 -1 3 -1 4 -1 5 -1 1 -2 2 -2 2 0 2 0 0
-2 0 -3 1 -1 1 -1 2 0 2 0 0 2 0 1 -1 0 -1 0 -2 1 -1 1 0 1 1 1 4 -2 3 -1 2 1
3 0 5 -5 6 -6 1 1 2 0 1 -2 1 -2 2 -2 2 -1 -1 -2 0 -2 1 -1 2 0 2 -4 3 -4 1 0
2 0 5 -3 6 -3 2 0 1 0 -1 -2 -2 -1 -1 -6 -1 -5 2 -3 1 -3 1 0 1 0 3 -4 4 -3
-1 -2 0 -3 2 -2 3 -3 3 0 4 -1 2 -1 3 -1 3 -2 3 -2 2 1 3 1 2 -1 2 -1 2 1 2 0
2 -3 2 -3 1 -5 2 -5 2 -3 1 -3 2 0 3 0 1 0 2 0 1 -1 1 -1 0 1 0 2 -1 4 -2 5
-1 2 -2 3 1 1 1 1 0 -1 0 -2 1 -1 2 0 1 -4 2 -3 1 -4 0 -4 -2 -2 -1 -1 1 0 2
0 0 -4 1 -3 3 -5 3 -5 2 1 1 0 1 -2 0 -3 2 -1 1 -1 0 3 0 4 1 1 1 0 1 -1 1 -1
0 -4 1 -5 1 1 2 0 2 1 2 0 1 2 2 1 3 0 4 0 2 2 2 2 1 3 0 2 1 0 1 0 0 2 0 1
-1 0 -1 0 0 6 0 7 -2 5 -2 6 1 1 0 2 1 0 2 -1 2 2 3 1 -1 2 0 3 -1 0 -1 1 0 2
-1 3 -2 1 -3 1 0 2 0 2 -2 3 -1 3 -1 0 -1 0 -1 0 -1 0 -3 7 -3 6 1 1 2 2 0 1
-1 2 -2 0 -2 -1 -1 4 -2 4 -1 -1 -2 0 0 2 0 1 -2 4 -3 3 0 0 1 1 -2 2 -1 2 0
-1 0 0 -1 -2 -1 -1 2 -4 2 -3 2 -2 1 -1 4 -7 4 -8 0 -3 0 -3 0 -1 -1 -1 -1 0
-1 0 -1 5 -2 5 -2 1 -1 1 0 -1 0 -1 2 -5 3 -5 -1 -2 0 -1 -2 0 -1 0 0 -1 0 -2
1 0 2 0 -2 -1 -2 -1 -1 1 -1 0 0 2 1 1 -2 0 -1 1 0 2 0 3 -1 1 -1 0 0 1 0 1 1
-1 1 -1 1 0 1 0 -1 2 0 1 1 0 1 -1 -1 2 0 2 -2 -1 -1 0 1 1 0 2 -2 1 -1 2 0
-2 1 -1 -1 1 -2 2 1 1 1 0 0 1 0 1 -1 2 -2 1 0 3 0 3 1 0 1 0 0 -1 0 -2 1 0 1
0 0 2 0 2 -2 2 -2 2 -1 -1 -1 -1 0 0 0 1 -1 1 0 2 -1 1 -1 1 0 3 -1 3 -3 5 -3
6 0 1 0 1 1 -1 2 0 2 -4 2 -3 1 0 0 1 -2 3 -2 4 1 2 1 2 2 -1 2 0 0 1 0 2 1 2
0 2 -1 0 -2 0 -1 2 -2 2 1 0 0 1 -1 1 -1 2 -3 3 -2 3 0 0 0 1 -1 0 -1 0 -3 4
-2 4 0 0 0 1 -5 4 -4 4 -4 4 -4 4 -4 5 -4 5 0 2 0 3 -1 1 -2 1 0 0 0 -1 -4 4
-4 4 0 1 0 1 -4 4 -3 4 -2 0 -1 0 -2 3 -1 3 -9 6 -8 6 -6 4 -6 4 0 1 0 1 -2
-1 -1 0 -3 1 -2 2 0 3 1 2 -2 1 -2 1 0 2 1 1 -2 2 -1 1 2 -1 2 0 -2 2 -2 3 -4
1 -3 1 -9 2 -8 1 -5 1 -4 0 -2 0 -1 1 -5 0 -4 1 0 1 1 1 -3 1 -2 0 0 -1 1 -1
-2 -1 -1 -1 -1 0 0 0 -1 0 0 0 2 -2 2 -1 -1 -1 0 -1 0 -2 1 -3 2 0 3 -1 -6 1
-6 0 -1 1 -1 0 0 2 1 1 -2 -1 -1 0 0 1 0 2 -2 0 -2 0 1 -1 0 -1 -1 0 -2 0 1 1
0 1 -2 -1 -3 0 0 1 0 1 -1 -1 -1 0 -2 1 -2 0 0 3 1 2 -3 1 -3 0 -12 0 -11 0
-1 0 -1 -1 0 1 0 2 -1 -2 -1 -1 -3 0 -3 1 -1 1 -2 1 0 -1 -1 -1 -6 1 -5 1 0 1
0 2 1 -1 2 0 0 1 0 1 8 0 8 0 3 0 3 1 6 1 7 0 6 1 6 2 3 1 3 2 -1 0 0 1 4 1 4
1 0 2 0 1 -2 0 -2 0 -2 2 -2 2 -17 -1 -17 0 -3 1 -2 2 -4 -1 -4 -1 -4 -2 -4
-2 -5 0 -5 -1 -2 -1 -2 -1 -8 -2 -7 -1 -5 0 -5 0 -1 1 -1 1 -2 0 -2 -1 -1 -3
-1 -2 -5 0 -4 0 -7 -2 -6 -1 -3 0 -3 -1 -4 1 -3 1 -3 3 -2 3 -4 2 -3 1 -1 2 0
2 -1 2 -1 2 -4 1 -4 2 -4 1 -4 0 -7 2 -6 2 0 2 0 2 -2 2 -3 3 -3 0 -4 0 0 -1z
m169 -46 l3 -1 -7 0 -6 0 -2 2 -1 1 5 -1 6 0 2 -1z m71 -4 l2 -1 -1 -1 0 -1
-2 0 -1 1 1 -1 2 -2 -2 0 -1 0 -6 1 -5 2 1 2 1 2 4 -1 4 0 3 -1z m24 -10 l2
-2 3 -1 2 -1 0 -1 0 -1 -4 2 -3 1 -1 3 -2 3 1 0 1 0 1 -3z m4 1 l0 -1 -1 0 -1
0 0 1 -1 1 1 0 1 0 1 -1z m-337 -90 l0 -1 -1 0 -1 -1 0 1 0 1 1 0 1 0 0 0z
m99 -16 l-1 -2 -1 0 -1 0 1 2 1 1 1 0 1 0 -1 -1z m451 -63 l0 -1 -1 1 -1 2 0
1 0 2 1 -2 1 -1 0 -2z m-116 -31 l1 -1 -1 1 -2 1 0 1 0 0 1 0 1 0 0 -2z m189
-32 l0 -1 -2 -2 -2 -1 1 2 1 2 1 0 1 0 0 0z m-80 -6 l0 -3 -1 -1 -1 -1 0 4 0
4 1 0 0 1 1 0 1 0 -1 -4z m38 -6 l0 -2 -1 0 -1 1 1 2 0 1 1 0 0 0 0 -2z m38 0
l0 -2 0 -1 0 0 -1 1 -1 0 1 2 1 2 0 0 1 0 -1 -2z m-41 -3 l-1 -1 0 1 0 2 1 0
0 -1 0 -1z m2 -5 l-1 0 -1 0 0 1 1 2 0 2 1 -2 0 -2 0 -1z m-41 -2 l0 -2 -3
-11 -2 -10 -2 -2 -1 -2 0 3 1 3 2 9 2 9 0 1 -1 0 2 3 3 2 0 0 0 0 -1 -3z m79
2 l0 -2 -1 0 -1 0 0 2 0 1 1 0 1 0 0 -1z m-703 -15 l0 -2 -1 0 -1 -1 0 2 0 2
1 0 1 0 0 -1z m180 -2 l0 -1 -1 0 -2 0 0 1 0 1 2 0 1 0 0 -1z m-10 -12 l0 -1
-1 0 -1 0 0 1 0 1 0 0 1 0 1 -1z m461 -7 l-1 -1 1 2 0 2 1 -1 0 -1 -1 -1z m8
1 l0 -1 -2 -1 -1 -1 1 1 0 2 1 0 1 0 0 0z m-4 -3 l0 -2 -1 0 -1 -1 0 2 0 3 1
0 1 0 0 -2z m-5 -9 l-2 -3 1 2 0 3 1 2 1 3 1 -2 0 -1 -2 -4z m-617 -3 l0 -1 1
0 1 0 -1 -3 -1 -3 -1 1 -1 1 0 4 0 4 1 -1 1 0 0 -2z m157 0 l0 -1 -1 1 -1 0 0
1 0 1 1 0 1 -1 0 -1z m-149 -17 l0 -5 0 -1 0 -1 -1 5 -1 5 1 1 0 2 1 0 0 -1 0
-5z m572 -9 l0 -1 -1 0 -1 -1 0 1 0 1 1 0 1 0 0 0z m-9 -8 l2 -1 -2 0 -1 1 -1
-1 -1 -1 0 1 0 2 1 0 0 1 1 0 0 0 1 -2z m89 1 l-1 -1 1 -3 1 -2 2 0 1 0 -1 -2
-1 -2 0 -1 0 -1 3 1 2 1 -3 -3 -2 -4 0 -1 1 -1 0 0 -1 0 -1 -1 -2 0 1 2 0 1
-1 0 -1 -1 0 -2 0 -1 -1 -1 -2 0 1 -2 0 -1 -1 0 -1 0 0 -2 1 -1 -1 0 -1 1 -1
-2 0 -2 -3 -5 -3 -4 -1 -1 -1 0 -2 -4 -2 -3 -4 -5 -3 -5 -1 0 -2 0 -4 -4 -5
-5 -4 0 -3 0 -3 -3 -2 -2 -2 -1 -2 -1 0 0 0 1 4 5 4 4 2 4 1 3 4 3 3 4 4 4 5
4 3 4 3 4 3 6 4 7 -1 2 0 2 1 0 1 0 0 1 0 1 2 2 1 3 1 0 1 0 0 2 0 1 4 4 4 4
1 0 0 0 0 -1z m11 -4 l-1 -2 -1 0 0 1 0 2 1 2 1 0 1 0 -1 -3z m4 -5 l-1 -4 -2
-1 -1 -1 1 -1 0 -1 -2 -1 -1 -1 0 -3 0 -2 -1 0 -1 -1 -1 -3 -2 -3 3 2 3 2 0 0
1 0 0 -3 0 -3 -2 -2 -1 -1 2 0 2 1 -1 -3 -2 -2 -3 -3 -3 -3 -1 -3 -1 -3 -3 0
-2 1 -4 -3 -3 -3 -1 0 0 1 1 1 1 1 0 2 0 2 3 1 3 2 -1 2 0 1 2 2 2 1 0 2 0 2
-1 0 0 0 -2 -2 -2 -1 0 1 0 1 -3 -2 -3 -1 -1 0 0 1 2 2 2 2 0 -1 1 0 0 1 0 1
2 3 2 3 1 0 1 0 0 2 0 2 1 0 1 0 0 2 0 1 2 0 1 0 0 -1 0 -1 -2 -1 -2 -2 0 -1
0 -1 2 2 1 2 2 0 2 0 0 2 -1 1 1 0 1 0 0 3 0 2 1 2 2 1 0 1 0 1 1 0 1 0 0 2
-1 2 2 1 2 2 1 0 0 -1 -1 -3z m-101 1 l0 -1 -3 -3 -2 -3 0 -1 0 -1 -1 0 -1 1
1 4 0 4 2 1 3 1 1 0 1 0 -1 -2z m95 0 l-1 -1 -1 0 -1 0 1 1 0 1 1 0 1 0 0 -1z
m-84 -4 l0 -1 -2 -1 -1 -1 1 1 1 2 1 0 0 0 0 0z m96 -2 l0 -1 -2 -2 -1 -1 0
-2 0 -1 -1 0 -1 0 0 1 0 1 2 3 2 3 1 0 0 0 0 -1z m11 -5 l0 -1 -1 0 -1 0 0 1
0 1 1 0 1 0 0 -1z m-115 -2 l0 -1 -1 0 -1 0 1 1 0 1 1 0 0 0 0 -1z m-2 -4 l-1
-1 -1 0 -1 0 1 1 2 2 0 -1 0 0 0 -1z m78 -17 l0 -1 0 -1 -1 -1 -1 1 -2 0 1 2
0 1 1 0 1 0 1 -1z m-17 -17 l-2 -1 1 2 1 2 1 0 0 -1 -1 -2z m19 0 l0 -1 -2 -1
-1 -1 1 1 0 2 1 0 1 0 0 0z m-445 -13 l1 -1 1 0 0 1 -1 1 -1 2 1 0 1 0 1 -2 2
-2 0 -1 0 -1 -2 1 -2 0 0 -1 0 -2 2 -2 2 -2 -1 -1 -1 -1 0 1 0 1 -3 2 -2 3 -1
3 -1 2 0 2 0 3 1 -2 2 -2 1 -2z m304 -2 l0 -1 -2 -1 -2 -1 -3 0 -2 -1 -6 -6
-6 -6 -1 0 -1 0 0 1 1 2 5 4 5 4 2 1 2 1 3 2 3 2 1 0 1 0 0 -1z m95 -4 l-2 -1
-1 1 -1 0 2 1 2 1 0 0 1 0 -1 -2z m-403 -2 l1 -1 -1 1 -1 0 0 1 0 1 0 0 1 0 0
-2z m437 -4 l-3 -2 0 0 0 1 2 3 2 3 1 -1 0 -1 -2 -3z m-415 -9 l2 -1 -2 1 -2
1 0 1 0 0 0 0 1 0 1 -2z m414 1 l0 -1 -2 -1 -1 -2 0 0 -1 0 1 2 2 3 0 0 1 0 0
-1z m-20 -9 l0 -1 2 2 2 1 0 -1 0 -2 -2 -2 -2 -2 -2 -1 -1 -1 -4 1 -4 1 4 2 5
3 0 1 0 1 1 0 1 0 0 -2z m-394 -3 l2 0 1 -2 1 -2 -1 0 -1 0 -2 2 -2 2 0 1 0 2
1 -2 0 -1 1 0z m81 -35 l0 -2 1 0 1 0 0 -1 -1 0 -3 1 -4 1 0 1 -1 1 2 -1 2 0
1 1 1 2 1 -1 1 0 -1 -2z m-122 -10 l4 -3 3 -3 3 -2 2 -3 1 -3 -1 0 -1 0 -1 1
-1 2 -2 0 -2 1 -2 2 -2 2 0 0 0 1 -3 3 -3 3 0 1 0 1 0 0 1 0 4 -3z m-7 -10 l0
-1 -2 2 -2 2 0 1 0 0 2 -1 2 -2 0 -1z m38 -31 l2 -2 1 0 2 -1 -1 -1 -1 0 -4 4
-4 4 2 -1 2 -1 1 -2z m136 0 l2 -1 -2 1 -2 1 0 1 0 0 0 0 1 0 1 -2z m244 -3
l2 -2 0 -1 -1 0 2 -2 1 -1 0 0 1 0 2 -1 2 0 0 -1 0 -1 -1 0 -1 0 0 0 1 -1 3 1
4 1 2 -1 1 0 -1 -1 0 -1 -5 -4 -5 -4 -6 -3 -6 -3 1 2 0 1 2 0 1 0 1 1 0 1 -1
1 -2 2 0 3 -1 3 -1 0 -1 0 0 -1 -1 -1 1 0 2 0 -2 -1 -1 0 -3 -2 -2 -2 -1 0 -1
0 1 1 1 2 0 3 -1 3 2 2 2 3 3 3 3 3 0 0 1 0 2 -2z m-386 -3 l2 -1 -2 1 -2 1 0
1 0 0 0 0 1 0 1 -2z m38 -1 l0 -1 1 0 0 1 3 -2 3 -1 0 -2 1 -1 -6 3 -5 2 0 1
0 1 2 0 1 0 0 -1z m103 -1 l5 -1 2 -2 2 -1 0 -1 0 -1 -4 1 -3 0 -3 2 -2 1 -1
-1 -1 -1 0 1 0 1 -2 0 -3 0 0 1 0 2 1 0 2 1 1 -1 2 0 4 -1z m-25 -8 l0 -1 -2
0 -1 -1 1 1 0 1 1 0 1 0 0 0z m5 -3 l2 -1 -3 0 -2 0 0 1 0 1 1 0 1 0 1 -1z
m70 -2 l0 0 -1 0 -2 0 0 1 0 1 2 -1 1 0 0 -1z m6 -1 l-1 0 -1 0 -1 1 2 0 3 0
-2 -1z m170 -14 l-1 -1 -2 0 -1 0 2 1 1 2 1 -1 0 0 0 -1z m-47 -5 l-1 -1 -3
-1 -3 0 -1 1 -1 0 1 2 1 1 1 -1 1 0 2 1 3 1 0 -1 1 0 -1 -2z m-12 -4 l0 -1 -3
-1 -3 -1 -1 0 -1 0 1 1 0 2 2 1 3 1 0 0 1 -1 1 -1z m-24 -6 l-1 0 -1 0 -1 1 1
0 2 0 0 -1z m-203 -1 l0 -1 -1 0 -1 0 0 1 0 1 1 0 1 0 0 -1z m25 -17 l0 -1 -2
0 -1 0 1 1 0 1 1 0 1 0 0 -1z m76 -40 l-2 -1 -1 1 -1 1 3 0 4 0 -3 -1z m13 -8
l1 -1 -1 1 -2 0 0 1 0 0 1 0 1 0 0 -1z m18 -10 l0 -1 -2 0 -3 0 0 1 0 1 2 0 1
-1 0 1 0 1 1 0 1 -1 0 -1z m20 -9 l2 -1 -1 0 -1 0 -2 1 -1 1 1 0 1 0 1 -1z"/>
<path d="M825 489 l-1 -2 1 0 1 0 0 2 0 1 0 0 -1 0 0 -1z"/>
<path d="M815 452 l0 -1 1 1 1 0 0 1 0 0 -1 0 -1 0 0 -1z"/>
<path d="M560 893 l-1 0 1 -1 0 -1 2 0 2 0 0 1 -1 2 -1 0 -2 0 0 -1z"/>
<path d="M618 880 l-1 0 0 -2 0 -1 2 0 2 1 0 1 0 1 -2 1 -1 0 0 -1z"/>
<path d="M628 880 l0 -1 2 0 2 0 0 1 0 1 -2 0 -2 0 0 -1z"/>
<path d="M509 879 l-1 0 0 -1 0 -1 2 0 2 0 0 1 0 1 -1 0 -2 1 0 -1z"/>
<path d="M680 877 l0 -1 1 1 1 0 0 1 0 1 -1 0 -1 0 0 -2z"/>
<path d="M382 877 l0 -1 1 0 1 0 0 1 0 1 -1 0 -1 0 0 -1z"/>
<path d="M522 876 l0 -2 2 0 3 0 1 1 1 2 -2 0 -1 1 -2 0 -2 0 0 -2z"/>
<path d="M517 875 l-1 -1 1 0 1 0 0 1 0 1 0 0 -1 0 0 -1z"/>
<path d="M413 873 l-1 0 0 -1 0 -1 2 0 2 1 0 0 0 1 -1 1 0 0 -2 -1z"/>
<path d="M548 873 l-1 -2 0 -1 1 0 1 0 0 1 0 2 -1 2 0 -2z"/>
<path d="M501 869 l-1 -1 1 -1 0 -1 1 1 1 0 0 2 0 1 -1 0 -1 0 0 -1z"/>
<path d="M534 868 l0 -1 1 -1 1 -1 1 0 2 1 0 1 0 1 -2 1 -2 1 -1 -2z"/>
<path d="M567 868 l-1 0 -3 -2 -2 -2 1 -3 0 -2 2 -2 1 -2 2 0 3 -1 2 2 3 1 1
3 0 3 -2 3 -2 3 -2 0 -1 0 -2 -1z"/>
<path d="M493 864 l-1 -1 0 -2 0 -1 2 0 2 0 0 1 0 2 -1 1 0 2 -1 0 -1 0 0 -2z"/>
<path d="M549 863 l-1 -2 1 -2 1 -2 1 0 1 0 1 2 2 1 0 1 0 1 -2 1 -2 1 0 0 -1
0 -1 -1z"/>
<path d="M500 858 l2 -1 4 0 4 0 0 1 0 1 -4 0 -3 -1 -1 1 0 1 -2 0 -1 0 1 -2z"/>
<path d="M550 854 l1 0 1 0 0 1 -2 0 -1 0 1 -1z"/>
<path d="M582 838 l-2 -1 1 -1 0 -1 1 -2 1 -1 2 1 2 1 0 2 0 2 -2 1 -2 1 -1
-2z"/>
<path d="M309 836 l0 -1 0 -1 1 0 1 0 2 1 -1 1 0 2 -1 0 -1 0 -1 -2z"/>
<path d="M779 836 l0 -2 1 0 0 0 0 2 0 1 -1 0 -1 0 1 -1z"/>
<path d="M589 833 l-1 -1 1 -1 2 0 1 1 1 0 -1 2 -1 1 -1 0 -1 0 0 -2z"/>
<path d="M782 829 l-2 -1 1 0 1 0 0 -1 0 -2 1 0 1 0 0 -1 0 -2 2 0 2 0 0 4 0
4 -2 1 -1 0 -3 -2z"/>
<path d="M293 827 l-1 -2 1 -1 2 0 1 1 1 1 0 1 -1 1 -1 0 -1 0 -1 -1z"/>
<path d="M596 819 l4 -2 1 0 0 1 -3 2 -4 2 -1 0 0 0 3 -3z"/>
<path d="M272 820 l-2 -2 -1 -2 0 -2 2 -1 2 -2 3 0 2 1 1 1 2 2 -2 3 -2 2 -1
1 -1 0 -3 -1z"/>
<path d="M283 818 l-1 -2 1 -1 0 -1 1 0 2 0 0 2 1 2 0 1 -1 1 -1 0 -1 0 -1 -2z"/>
<path d="M610 816 l0 -1 1 0 1 0 0 1 0 1 -1 0 -1 0 0 -1z"/>
<path d="M606 812 l0 -1 1 0 1 0 0 1 -1 1 -1 0 -1 0 1 -1z"/>
<path d="M195 810 l-1 -1 1 -1 0 -1 2 0 1 0 0 2 0 2 -1 0 -2 0 0 -1z"/>
<path d="M196 803 l0 -2 0 -2 1 -1 2 0 3 1 0 2 0 3 -2 0 -3 0 -1 -1z"/>
<path d="M269 803 l-1 0 0 -2 0 -1 3 0 2 0 0 2 -1 1 -1 1 -2 0 0 -1z"/>
<path d="M213 802 l-1 0 0 -2 0 -2 2 -1 2 -1 1 1 1 2 0 2 -1 2 -1 0 -1 0 -2
-1z"/>
<path d="M230 794 l1 -1 1 -1 1 0 0 1 0 2 -2 0 -1 0 0 -1z"/>
<path d="M792 794 l-1 -1 0 -1 1 0 1 0 0 1 0 1 -1 1 0 -1z"/>
<path d="M780 788 l-1 -1 1 0 2 0 0 1 0 1 -1 0 -1 0 0 -1z"/>
<path d="M807 787 l-1 -1 1 -3 1 -2 1 1 1 2 0 0 0 1 -1 0 -1 -1 1 1 0 2 -1 0
-1 1 0 -1z"/>
<path d="M746 782 l0 -1 1 0 0 0 0 1 0 1 -1 0 -1 0 1 -1z"/>
<path d="M747 780 l1 -1 4 -7 3 -6 2 -2 2 -2 0 1 1 1 -5 6 -4 6 -2 2 -2 3 0
-1z"/>
<path d="M819 767 l-1 0 0 -1 0 -1 2 0 2 0 0 1 0 1 -1 0 0 1 -2 -1z"/>
<path d="M827 767 l-1 0 0 -2 0 -2 1 -2 1 -3 5 0 4 1 -1 2 -1 3 -2 2 -2 2 -1
0 -1 0 -2 -1z"/>
<path d="M215 756 l1 -1 1 -1 1 0 0 1 0 2 -2 0 -1 0 0 -1z"/>
<path d="M826 756 l0 -2 1 1 1 0 0 1 0 1 -1 0 -2 0 1 -1z"/>
<path d="M817 747 l0 -1 1 -1 2 -1 1 1 1 2 -1 0 0 1 -2 0 -2 0 0 -1z"/>
<path d="M164 738 l-3 -1 0 -3 0 -3 2 -2 2 -2 3 0 2 0 2 2 2 2 0 3 0 2 -3 2
-2 2 -1 0 -1 0 -3 -2z"/>
<path d="M179 728 l-1 -2 0 -2 1 -1 3 0 2 1 2 -2 1 -1 1 0 2 1 0 2 -1 1 -3 2
-3 2 -2 0 -1 0 -1 -1z"/>
<path d="M837 720 l0 -2 1 0 1 -1 0 1 0 2 -1 1 -1 2 0 -3z"/>
<path d="M792 715 l1 -1 1 0 2 0 0 1 0 1 -2 1 -2 0 0 -2z"/>
<path d="M566 713 l-1 -1 1 -1 0 -1 2 0 2 0 0 1 0 1 -1 1 -1 1 -1 0 -1 0 0 -1z"/>
<path d="M688 711 l-2 -1 0 -1 0 -2 2 -1 2 -1 2 1 1 2 -1 2 -1 1 -1 1 0 0 -2
-1z"/>
<path d="M877 711 l0 -1 1 0 1 0 0 1 0 1 -1 0 -1 0 0 -1z"/>
<path d="M185 706 l-2 -1 0 -2 0 -3 1 0 2 -1 2 2 2 2 -1 2 -1 2 -1 0 0 0 -2
-1z"/>
<path d="M703 704 l0 -1 1 0 1 0 0 1 0 1 -1 0 -1 0 0 -1z"/>
<path d="M788 703 l1 -2 1 -4 0 -3 1 1 1 0 -1 4 -2 4 0 1 -1 1 0 -2z"/>
<path d="M166 700 l0 -1 1 1 1 0 0 1 0 0 -1 0 -1 0 0 -1z"/>
<path d="M125 695 l1 -2 -2 0 -1 0 1 -1 0 -1 1 -4 0 -3 0 -3 1 -2 1 0 1 0 0
-1 0 -1 1 1 1 0 0 -1 0 -2 1 0 1 0 0 -1 0 -2 1 0 2 0 0 0 1 0 0 -1 -1 -1 1 0
2 0 0 0 1 0 0 -2 0 -2 -1 0 -1 0 1 -2 0 -3 3 0 2 -1 -1 -1 0 -1 1 0 2 0 4 -1
5 0 3 3 3 3 -1 1 0 1 1 0 2 0 0 1 0 1 -1 0 -1 0 1 4 1 4 0 1 -1 0 -2 -1 -1 -1
2 2 2 2 -3 -1 -2 0 -1 -1 -1 -1 0 1 0 1 -1 -2 -1 -1 0 1 0 1 -2 0 -2 -1 -1 0
-1 -1 0 0 0 1 -3 -1 -2 -1 -2 2 -2 3 -2 1 -2 0 -2 2 -1 2 0 2 0 2 -2 2 -1 1 1
1 0 1 -1 0 -1 0 0 3 1 3 -2 0 -1 0 0 -3z m15 -32 l-1 -1 0 1 0 2 1 0 0 1 1 0
0 -1 -1 -2z"/>
<path d="M163 694 l0 -1 1 0 1 0 0 1 0 1 -1 0 -1 0 0 -1z"/>
<path d="M142 692 l-1 -1 0 -2 0 -1 2 -1 2 -1 2 1 1 2 -1 2 -1 2 -1 0 -2 0 -1
-1z"/>
<path d="M694 691 l0 -1 1 0 1 -1 0 1 0 1 -1 1 -1 0 0 -1z"/>
<path d="M184 690 l-1 0 1 -1 0 -1 1 0 1 0 0 2 0 1 -1 0 -1 0 0 -1z"/>
<path d="M703 690 l0 -1 1 0 1 0 0 1 0 1 -1 0 -1 0 0 -1z"/>
<path d="M160 684 l-1 -1 1 -1 1 -1 1 1 1 1 -1 1 -1 1 -1 -1z"/>
<path d="M689 681 l0 -1 1 0 1 -1 0 1 0 2 -1 0 -1 0 0 -1z"/>
<path d="M95 668 l0 -2 2 0 2 0 0 2 0 2 -2 0 -2 0 0 -2z"/>
<path d="M133 669 l0 -2 2 1 1 0 0 1 0 0 -1 0 -2 1 0 -1z"/>
<path d="M123 662 l-1 -2 1 -1 0 0 1 0 1 1 -1 2 0 2 1 0 2 -1 -1 1 0 1 -1 0
-2 0 0 -3z"/>
<path d="M725 657 l-1 -1 0 -3 0 -3 2 -1 2 -1 2 1 2 1 0 2 0 2 -2 2 -2 2 -1 0
-1 0 -1 -1z"/>
<path d="M793 654 l0 -1 1 0 1 0 0 1 0 1 -1 0 -1 0 0 -1z"/>
<path d="M793 650 l-1 -1 3 0 2 0 0 2 0 1 -2 0 -2 0 0 -2z"/>
<path d="M812 629 l-1 -2 1 -1 1 -2 1 0 1 0 1 1 1 1 0 2 -1 2 -1 0 -2 0 -1 -1z"/>
<path d="M867 625 l-1 -2 1 -1 1 0 1 1 1 1 -1 1 -1 1 -1 -1z"/>
<path d="M813 621 l-1 -1 1 -1 0 -1 2 0 2 0 0 2 0 2 -2 0 -2 0 0 -1z"/>
<path d="M124 620 l-2 -1 0 -2 0 -2 2 -1 2 -1 1 0 2 0 1 2 0 2 -2 2 -1 2 -1 0
0 0 -2 -1z"/>
<path d="M653 612 l-1 -1 1 -1 0 -1 1 1 1 0 0 2 0 1 -1 0 -1 0 0 -1z"/>
<path d="M808 612 l0 -2 0 -1 -1 0 0 -2 -1 -1 2 0 2 1 0 2 0 2 -1 1 -1 1 0 -1z"/>
<path d="M124 611 l0 -1 1 0 1 0 0 1 0 1 -1 0 -1 0 0 -1z"/>
<path d="M675 611 l-1 -1 1 -1 0 -1 2 0 1 0 0 2 0 1 -2 1 -1 0 0 -1z"/>
<path d="M793 604 l-1 -7 0 -2 0 -1 2 2 2 2 0 2 0 3 0 1 1 1 -1 3 0 4 -1 0 -1
0 -1 -8z"/>
<path d="M917 610 l-1 0 0 -2 0 -2 2 -1 1 0 2 2 1 1 -1 2 -1 1 -1 0 -2 0 0 -1z"/>
<path d="M138 608 l-1 -1 0 -2 1 -2 2 1 3 0 0 1 0 0 -1 2 -1 1 -1 1 0 0 -2 -1z"/>
<path d="M659 605 l0 -1 1 1 1 0 0 1 0 0 -1 0 -1 0 0 -1z"/>
<path d="M675 602 l-2 -2 0 0 0 -1 2 0 2 -1 1 2 0 1 -1 1 -1 2 -1 -2z"/>
<path d="M650 596 l-3 -3 0 -3 0 -3 2 -3 3 -2 4 0 4 0 2 1 3 1 1 2 0 2 2 0 1
1 0 3 0 4 -2 0 -1 0 -1 1 -2 2 -5 0 -5 0 -3 -3z"/>
<path d="M805 594 l0 -3 1 1 1 0 0 3 0 2 -1 0 0 1 -1 -4z"/>
<path d="M917 595 l0 -2 1 0 1 1 0 1 0 0 -1 1 -1 0 0 -1z"/>
<path d="M713 591 l-1 -2 0 -3 1 -3 1 -1 2 0 2 2 2 1 0 3 -1 3 -2 1 -1 1 -1 0
-1 0 -1 -2z"/>
<path d="M941 592 l0 -1 1 -2 0 -2 1 0 1 0 1 2 2 1 -1 2 -1 1 -2 0 -1 0 -1 -1z"/>
<path d="M122 590 l-1 -1 0 -3 0 -2 3 2 2 3 0 1 -1 1 -1 0 -1 0 -1 -1z"/>
<path d="M791 590 l-1 -2 0 -2 0 -2 1 2 1 2 0 2 -1 2 0 -2z"/>
<path d="M804 587 l0 -1 -1 -1 0 -1 1 0 1 0 0 3 1 2 -1 0 0 0 -1 -2z"/>
<path d="M909 583 l-1 -1 1 0 1 0 0 1 0 1 0 0 -1 0 0 -1z"/>
<path d="M332 582 l0 -2 1 0 1 -1 0 1 1 0 -1 2 0 1 -1 0 -1 0 0 -1z"/>
<path d="M704 582 l0 -1 1 1 1 0 0 1 0 0 -1 0 -1 0 0 -1z"/>
<path d="M803 582 l0 -1 -1 -2 0 -1 1 1 1 2 0 1 -1 2 0 -2z"/>
<path d="M687 581 l-1 -1 1 -1 2 -2 1 1 2 1 -2 1 -1 2 -2 -1z"/>
<path d="M709 574 l-2 0 0 -1 0 -1 1 0 1 -1 0 -2 0 -1 -1 1 -1 0 0 -1 0 -1 2
0 1 1 1 0 1 0 0 3 0 3 -1 0 0 1 -2 -1z"/>
<path d="M870 573 l-1 0 1 -1 0 -1 2 0 1 0 0 2 0 1 -1 0 -2 0 0 -1z"/>
<path d="M633 565 l0 -1 1 0 1 0 1 1 0 1 -1 0 -2 0 0 -1z"/>
<path d="M792 564 l0 -1 0 -1 1 0 1 1 1 2 -1 0 -1 0 -1 -1z"/>
<path d="M53 562 l0 -1 1 0 1 0 0 1 0 1 -1 0 -1 0 0 -1z"/>
<path d="M682 560 l-1 0 0 -3 0 -2 2 -1 1 -1 2 2 2 2 -1 2 -1 2 -2 0 -2 0 0
-1z"/>
<path d="M889 558 l-3 -1 2 -3 2 -3 1 0 1 0 1 2 2 1 0 2 0 2 -1 1 -1 1 -1 0 0
0 -3 -2z"/>
<path d="M72 558 l0 -1 0 -1 1 0 2 0 1 1 0 1 -1 1 -1 0 -1 0 -1 -1z"/>
<path d="M131 554 l-2 -2 -1 -3 0 -2 2 -2 2 -1 -2 0 -1 0 0 -1 1 -2 -2 0 -1 0
0 -2 0 -1 2 1 2 0 -1 -2 -1 -1 1 0 1 1 2 -2 2 -2 -1 1 0 2 1 0 1 -1 0 1 0 2 2
-1 3 -1 -1 1 -1 0 1 1 2 2 1 2 0 3 -1 0 -1 -1 0 1 1 2 1 -1 1 0 -1 1 0 2 0 2
0 2 -2 0 -1 -1 0 1 1 2 -1 0 -1 0 -3 0 -3 1 -2 -2z"/>
<path d="M154 555 l0 -1 1 0 1 0 0 1 0 1 -1 0 -1 0 0 -1z"/>
<path d="M905 536 l-1 -1 1 0 2 0 0 1 0 1 -1 0 -1 0 0 -1z"/>
<path d="M98 535 l0 -1 1 0 1 0 0 1 0 1 -1 0 -1 0 0 -1z"/>
<path d="M618 533 l1 -1 0 0 1 0 1 1 0 2 -1 0 -2 0 0 -2z"/>
<path d="M870 533 l0 -2 1 0 1 1 0 1 0 0 -1 1 -1 0 0 -1z"/>
<path d="M912 533 l0 -1 1 0 1 0 0 1 0 1 -1 0 -1 0 0 -1z"/>
<path d="M153 530 l0 -2 0 0 1 0 0 2 1 1 -1 0 -1 0 0 -1z"/>
<path d="M866 529 l-1 -2 1 -1 1 0 -1 -4 0 -3 1 0 2 1 0 4 0 4 0 1 1 1 -2 1
-1 0 -1 -2z"/>
<path d="M872 529 l-2 -3 2 -2 2 -2 2 2 2 2 0 2 -1 2 -1 0 -1 1 -3 -2z"/>
<path d="M146 528 l-1 0 -3 0 -2 -1 -1 -2 0 -3 -1 -2 -1 -2 1 0 1 1 0 -3 1 -3
1 0 2 0 0 2 0 3 -1 1 -2 2 0 0 0 1 1 0 2 0 1 0 1 0 -1 3 0 2 2 0 1 0 0 -2 0
-2 1 1 0 2 -1 1 -1 2 0 -1z"/>
<path d="M964 528 l0 -1 1 1 1 0 0 1 0 0 -1 0 -1 0 0 -1z"/>
<path d="M340 524 l-2 -2 0 -2 0 -2 2 -2 1 -2 4 0 3 0 1 2 2 2 0 2 0 2 -2 2
-2 2 -3 0 -3 0 -1 -2z"/>
<path d="M746 525 l-1 -2 1 0 1 0 0 2 1 1 0 0 -1 0 -1 -1z"/>
<path d="M897 524 l-2 -2 0 -2 0 -3 2 -2 1 -1 3 0 3 0 1 2 2 2 0 2 0 2 -2 1
-2 2 -2 0 -3 0 -1 -1z"/>
<path d="M933 524 l-1 0 0 -2 0 -2 2 0 2 0 1 1 0 1 -1 2 -1 1 -1 0 -1 0 0 -1z"/>
<path d="M384 520 l1 -1 0 -1 0 0 1 0 1 0 -1 2 0 2 -1 0 -1 0 0 -2z"/>
<path d="M29 517 l0 -1 2 0 1 0 0 1 0 1 -1 0 -2 0 0 -1z"/>
<path d="M332 517 l-1 -1 1 -1 1 -1 1 1 0 1 -1 1 -1 1 0 -1z"/>
<path d="M53 509 l0 -2 1 0 1 1 0 1 0 0 -1 1 -1 0 0 -1z"/>
<path d="M958 509 l0 -1 1 0 0 0 0 1 0 1 -1 0 -1 0 1 -1z"/>
<path d="M916 506 l0 -1 1 0 1 1 1 1 0 1 -1 0 -2 0 0 -2z"/>
<path d="M329 505 l0 -2 1 0 1 0 0 1 0 1 -1 1 -1 0 0 -1z"/>
<path d="M121 501 l0 -1 -1 0 -1 1 0 -1 -1 -1 2 0 2 1 0 -2 0 -2 -1 -1 -1 0 1
-1 0 -1 2 1 1 2 0 1 -1 1 1 0 1 1 -1 2 -1 2 -1 0 -1 0 0 -2z"/>
<path d="M142 501 l0 -1 1 0 1 0 0 1 0 1 -1 0 -1 0 0 -1z"/>
<path d="M701 499 l-2 -1 0 -2 0 -3 2 -1 1 -1 3 1 2 1 0 2 0 3 -1 1 -1 1 -1 0
-1 0 -2 -1z"/>
<path d="M877 496 l0 -1 2 -2 1 -1 0 1 0 1 -1 1 -2 1 0 0z"/>
<path d="M946 493 l0 -1 1 0 1 1 1 1 0 1 -1 0 -2 0 0 -2z"/>
<path d="M335 493 l1 -1 1 -1 1 0 0 1 0 2 -2 0 -1 0 0 -1z"/>
<path d="M873 491 l0 -1 1 0 1 0 0 1 0 1 -1 0 -1 0 0 -1z"/>
<path d="M889 490 l-1 -1 1 0 1 1 1 1 0 1 -1 0 -1 0 0 -2z"/>
<path d="M901 491 l-1 -1 1 0 1 0 0 1 0 1 0 0 -1 0 0 -1z"/>
<path d="M931 491 l0 -1 1 0 1 0 0 1 0 1 -1 0 -1 0 0 -1z"/>
<path d="M101 488 l-1 -1 1 0 1 -1 1 1 1 0 -1 1 0 1 -1 0 -1 0 0 -1z"/>
<path d="M881 486 l-1 -1 1 0 1 0 0 1 0 1 0 0 -1 0 0 -1z"/>
<path d="M850 485 l-1 -1 1 0 1 0 0 1 0 1 0 0 -1 0 0 -1z"/>
<path d="M907 485 l0 -1 1 0 1 0 0 1 0 1 -1 0 -1 0 0 -1z"/>
<path d="M883 483 l-1 -1 1 -1 1 -1 2 0 1 1 0 2 0 1 -2 1 -1 0 -1 -2z"/>
<path d="M333 483 l1 -1 1 0 0 0 1 1 0 1 -1 0 -2 0 0 -1z"/>
<path d="M880 478 l-1 0 0 -2 0 -1 1 0 2 0 1 1 0 1 -1 1 0 1 -2 -1z"/>
<path d="M857 475 l0 -1 1 0 1 0 0 1 0 1 -1 0 -1 0 0 -1z"/>
<path d="M126 474 l-1 -2 0 -2 1 -2 2 0 1 0 1 2 1 2 -2 1 -1 2 0 0 -1 0 -1 -1z"/>
<path d="M632 469 l0 -1 1 0 1 0 0 1 -1 1 -1 0 0 0 0 -1z"/>
<path d="M911 469 l0 -2 0 -2 1 -1 1 -1 2 -1 2 1 2 1 0 3 0 3 -4 0 -3 0 -1 -1z"/>
<path d="M949 467 l0 -1 1 0 1 0 0 1 -1 1 -1 0 0 0 0 -1z"/>
<path d="M368 464 l1 -1 1 0 0 0 1 1 0 1 -1 0 -2 0 0 -1z"/>
<path d="M845 463 l-2 -2 0 -1 0 -2 1 0 2 0 1 2 2 2 0 2 0 1 -1 0 -2 0 -1 -2z"/>
<path d="M137 460 l-1 0 0 -3 0 -3 1 0 1 1 0 0 0 1 1 1 1 2 -1 1 -2 1 0 -1z"/>
<path d="M845 456 l-1 -2 -1 1 -1 0 0 -1 0 -1 2 -1 3 -1 1 2 2 2 -1 1 0 2 -2
0 -1 0 -1 -2z"/>
<path d="M85 450 l0 -1 1 0 1 0 0 1 0 1 -1 0 -1 0 0 -1z"/>
<path d="M70 448 l-1 0 0 -1 0 -1 2 0 2 0 0 1 -1 1 -1 1 -1 0 0 -1z"/>
<path d="M125 444 l0 -2 1 1 2 0 -1 1 0 1 -1 0 -1 0 0 -1z"/>
<path d="M127 440 l-1 -1 0 -1 1 -1 2 1 1 0 0 2 0 1 -1 0 -2 0 0 -1z"/>
<path d="M931 438 l-1 0 0 -1 0 -1 2 0 1 0 0 1 0 1 -1 0 -1 1 0 -1z"/>
<path d="M75 437 l-1 -1 1 -2 0 -1 2 1 1 0 0 2 0 1 -1 0 -1 1 -1 -1z"/>
<path d="M385 435 l0 -1 1 0 1 0 0 1 0 1 -1 0 -1 0 0 -1z"/>
<path d="M644 434 l0 -1 0 -1 1 0 1 0 2 1 0 1 0 1 -2 0 -1 1 -1 -2z"/>
<path d="M92 431 l0 -2 1 0 2 1 0 1 0 1 -2 1 -1 0 0 -2z"/>
<path d="M894 431 l-1 -3 1 -1 1 0 1 1 0 2 0 2 -1 1 -1 -2z"/>
<path d="M885 417 l-1 -2 0 -1 0 -2 2 -1 2 0 2 1 1 1 0 1 0 2 -2 2 -3 2 -1 -3z"/>
<path d="M124 417 l0 -1 1 1 1 0 0 1 0 0 -1 0 -1 0 0 -1z"/>
<path d="M436 417 l0 -1 2 -2 3 -2 2 -2 3 -1 -1 1 0 2 -3 3 -3 3 -1 0 -2 0 0
-1z"/>
<path d="M492 411 l2 -1 1 0 1 0 -2 1 -1 1 -1 0 -1 0 1 -1z"/>
<path d="M414 410 l0 -2 2 -1 1 -2 1 0 2 0 -2 1 -2 1 0 1 0 2 -1 1 -1 0 0 -1z"/>
<path d="M917 409 l0 -1 2 0 1 0 0 1 0 1 -1 0 -2 0 0 -1z"/>
<path d="M920 404 l1 -1 1 0 1 0 1 1 0 2 -2 0 -2 0 0 -2z"/>
<path d="M463 404 l-1 -1 1 0 1 -1 1 0 0 1 0 1 0 1 -2 -1z"/>
<path d="M890 404 l-1 0 1 -1 0 -1 1 0 1 0 0 2 0 1 -1 0 -1 0 0 -1z"/>
<path d="M456 400 l2 -3 1 0 1 0 -1 2 -1 1 -2 1 -2 1 2 -2z"/>
<path d="M469 400 l0 -1 2 -1 1 0 1 0 0 1 -1 1 -1 1 -1 0 -1 0 0 -1z"/>
<path d="M911 400 l0 -2 0 -1 1 -1 2 0 2 0 0 1 0 1 -1 1 0 2 -2 0 -1 0 -1 -1z"/>
<path d="M900 398 l0 -1 1 0 1 0 0 1 0 1 -1 0 -1 0 0 -1z"/>
<path d="M425 397 l0 -1 2 0 1 0 0 0 0 1 -1 0 -2 1 0 -1z"/>
<path d="M431 395 l1 -3 0 -1 1 0 1 0 2 1 -1 3 -2 3 -1 0 -1 0 0 -3z"/>
<path d="M440 397 l0 -1 1 0 1 0 0 1 0 1 -1 0 -1 0 0 -1z"/>
<path d="M84 395 l0 -2 1 0 1 1 0 1 0 0 -1 1 -1 0 0 -1z"/>
<path d="M437 394 l1 -1 2 -1 1 0 -1 1 -1 2 -1 0 -1 0 0 -1z"/>
<path d="M907 389 l-1 -1 0 -1 1 0 1 0 0 1 0 1 -1 1 0 -1z"/>
<path d="M95 387 l0 -1 1 0 1 0 0 1 0 1 -1 0 -1 0 0 -1z"/>
<path d="M889 384 l-2 -1 -1 -3 -2 -4 -3 -1 -4 -1 0 -2 -1 -1 2 -3 2 -2 -1 -1
-1 -1 -1 1 -1 1 -3 -1 -3 0 -2 -2 -1 -2 1 -4 2 -3 3 -1 4 -2 3 0 3 1 2 1 2 2
0 2 0 2 -3 3 -3 3 1 0 1 1 0 1 -1 1 2 2 2 1 0 -1 0 -2 1 0 2 -1 1 1 1 1 0 1
-1 2 2 0 3 0 2 2 2 2 0 3 0 3 -3 1 -4 2 0 0 0 0 -3 -1z"/>
<path d="M444 381 l-1 -1 1 -2 2 -2 2 0 2 1 1 0 0 1 -3 2 -2 2 -1 0 -1 0 0 -1z"/>
<path d="M425 378 l-1 -1 1 0 1 0 0 1 0 1 0 0 -1 0 0 -1z"/>
<path d="M429 375 l1 -1 1 -1 2 0 0 1 -1 2 -1 0 -2 0 0 -1z"/>
<path d="M457 366 l0 -1 1 0 1 0 0 1 0 1 -1 0 -1 0 0 -1z"/>
<path d="M851 365 l0 -1 1 -2 2 -1 2 1 1 2 0 1 -1 1 -2 0 -2 0 -1 -1z"/>
<path d="M929 365 l0 -2 2 0 1 0 0 2 0 1 -1 0 -2 0 0 -1z"/>
<path d="M159 363 l0 -2 2 0 1 0 0 2 0 1 -1 0 -2 0 0 -1z"/>
<path d="M850 357 l0 -1 1 0 1 0 0 1 0 1 -1 0 -1 0 0 -1z"/>
<path d="M906 355 l-2 -2 1 -2 1 -2 3 0 2 0 1 2 1 3 -1 1 0 1 -2 0 -2 1 -2 -2z"/>
<path d="M854 353 l-1 -1 1 0 1 -1 1 1 1 0 -1 1 0 1 -1 0 -1 0 0 -1z"/>
<path d="M117 352 l0 -1 -1 1 -1 0 0 -2 0 -2 0 -6 0 -6 -4 -6 -5 -7 1 -2 0 -2
2 1 2 1 3 5 4 6 0 2 1 3 0 8 1 8 -2 0 -1 0 0 -1z"/>
<path d="M140 352 l0 -1 1 0 1 0 0 1 -1 1 -1 0 0 0 0 -1z"/>
<path d="M451 351 l0 -1 1 0 1 -1 0 1 0 1 -1 1 -1 0 0 -1z"/>
<path d="M849 347 l-1 -1 1 -1 0 -1 1 1 1 0 0 2 0 1 -1 0 -1 0 0 -1z"/>
<path d="M913 347 l0 -1 1 1 1 0 0 1 0 0 -2 0 -1 0 1 -1z"/>
<path d="M428 346 l-1 -1 1 0 1 -1 1 1 1 0 -1 1 0 1 -1 0 -1 0 0 -1z"/>
<path d="M177 344 l0 -1 1 0 1 0 1 1 0 1 -1 0 -2 0 0 -1z"/>
<path d="M433 343 l-1 -1 1 -1 2 -1 0 1 1 1 0 1 -1 1 -1 0 -1 0 0 -1z"/>
<path d="M178 341 l0 -2 2 0 1 0 0 1 -1 1 -1 1 -1 0 0 -1z"/>
<path d="M928 341 l1 -1 1 0 0 0 1 1 0 1 -1 0 -2 0 0 -1z"/>
<path d="M829 336 l-1 -2 -2 -1 -2 0 0 -2 0 -1 -1 -2 0 -2 2 -2 1 -1 1 0 1 0
1 2 2 1 -1 4 0 4 1 1 2 0 0 2 0 1 -2 0 -2 0 0 -2z"/>
<path d="M835 336 l2 -2 1 1 1 0 -1 1 -1 0 1 1 0 1 -2 0 -2 0 1 -2z"/>
<path d="M850 337 l-1 -1 0 -2 0 -1 -1 0 -1 0 1 -2 1 -2 2 1 2 0 2 2 1 2 0 2
-1 2 -2 0 -2 0 -1 -1z"/>
<path d="M871 337 l-1 0 1 -1 0 -1 2 0 1 0 0 2 0 1 -1 0 -2 0 0 -1z"/>
<path d="M880 336 l-2 -1 1 -2 1 -2 2 0 2 0 1 2 1 2 -2 2 -1 1 -1 0 -1 0 -1
-2z"/>
<path d="M897 333 l0 -2 2 0 1 0 0 2 0 1 -2 1 -1 0 0 -2z"/>
<path d="M470 331 l-1 -1 1 0 2 0 0 1 0 1 -1 0 -1 0 0 -1z"/>
<path d="M838 327 l-1 -1 2 0 1 0 0 1 -1 1 0 0 -1 0 0 -1z"/>
<path d="M842 326 l-3 -2 0 -1 0 -1 2 -1 1 -2 3 2 2 1 0 3 0 2 -2 1 -1 0 -2
-2z"/>
<path d="M865 325 l0 -2 1 0 1 0 0 1 0 1 -1 1 -1 0 0 -1z"/>
<path d="M878 325 l-1 -1 1 -2 1 -1 2 1 2 1 -1 2 -1 1 -1 0 -1 0 -1 -1z"/>
<path d="M460 322 l0 -1 1 0 1 0 0 1 0 1 -2 0 -1 0 1 -1z"/>
<path d="M835 322 l-1 -1 2 -1 1 -1 0 1 0 2 -1 0 -1 1 0 -1z"/>
<path d="M501 321 l-1 -1 1 -1 1 -1 1 1 0 1 -1 1 -1 1 0 -1z"/>
<path d="M871 321 l0 -1 1 1 1 0 0 1 0 0 -1 0 -1 0 0 -1z"/>
<path d="M844 318 l-2 -2 0 -1 0 -1 1 1 1 2 0 -3 -1 -2 2 -2 1 -2 -1 -1 0 -1
1 0 1 -1 0 1 0 2 5 0 6 0 0 0 1 0 -2 1 -1 1 -1 4 0 4 -1 1 -1 0 -4 1 -4 0 -1
-2z"/>
<path d="M827 314 l-1 -1 1 0 1 0 0 1 0 1 0 0 -1 0 0 -1z"/>
<path d="M895 313 l0 -1 1 0 1 0 0 1 0 1 -1 0 -1 0 0 -1z"/>
<path d="M837 311 l-1 0 0 -2 0 -2 1 -1 1 0 2 2 3 2 -2 1 -1 1 -2 0 -1 0 0 -1z"/>
<path d="M801 307 l-4 -2 -1 -2 0 -2 0 -2 1 -3 3 -1 2 -1 2 0 2 0 3 3 2 3 1
-1 1 -1 2 1 1 0 0 2 0 1 -1 1 -2 0 -1 3 -1 3 -2 0 -2 1 -1 0 -1 0 -4 -3z"/>
<path d="M490 306 l0 -1 1 0 1 0 0 1 0 1 -1 0 -1 0 0 -1z"/>
<path d="M856 304 l-1 0 0 -3 0 -2 3 -1 2 0 1 1 1 2 0 1 0 2 -2 0 -1 1 -1 0
-2 0 0 -1z"/>
<path d="M450 302 l1 -2 0 0 1 0 -1 2 0 2 -1 0 -1 0 1 -2z"/>
<path d="M850 298 l0 -2 1 0 1 -1 0 1 1 1 -2 1 -1 2 0 -2z"/>
<path d="M883 297 l-1 -2 1 -1 2 -1 0 1 1 1 0 2 -1 1 -1 0 -1 0 0 -1z"/>
<path d="M458 294 l1 -2 1 -1 2 0 0 1 -1 1 1 0 2 1 -2 0 -2 0 0 1 0 1 -1 0 -1
0 0 -2z"/>
<path d="M814 295 l0 -1 1 0 1 0 0 1 0 1 -1 0 -1 0 0 -1z"/>
<path d="M840 294 l0 -1 0 -1 1 0 1 1 1 1 -1 0 -1 1 -1 -1z"/>
<path d="M422 290 l1 -2 2 0 1 0 -2 2 -2 2 -1 0 -1 0 2 -2z"/>
<path d="M470 291 l2 -2 -1 -1 0 0 1 0 1 1 0 1 0 1 -2 0 -2 1 1 -1z"/>
<path d="M813 288 l-1 -2 0 -1 1 -2 2 0 2 0 1 2 0 1 -1 2 -1 1 -1 0 -1 0 -1
-1z"/>
<path d="M464 285 l1 -1 1 0 0 1 0 1 -1 1 -1 0 -1 0 1 -2z"/>
<path d="M802 285 l1 -1 1 0 0 0 1 1 0 1 -1 0 -2 0 0 -1z"/>
<path d="M452 284 l-1 -1 0 -2 0 -2 2 -2 3 -2 3 1 2 2 -1 2 0 3 -2 1 -1 1 -2
0 -2 0 -1 -1z"/>
<path d="M784 282 l0 -2 2 0 1 0 0 2 0 1 -1 0 -2 0 0 -1z"/>
<path d="M797 282 l-1 -1 2 -2 2 -2 1 1 1 1 0 2 -1 2 -2 0 -2 0 0 -1z"/>
<path d="M617 280 l0 -1 1 -1 1 -1 2 0 1 1 0 1 -1 2 -1 0 -2 0 -1 -1z"/>
<path d="M772 278 l-2 -1 0 -2 0 -1 3 0 2 0 0 2 0 2 -1 0 -1 1 -1 -1z"/>
<path d="M565 277 l0 -1 1 0 1 0 0 1 0 1 -2 0 -1 0 1 -1z"/>
<path d="M713 276 l0 -2 2 0 2 -1 2 0 3 0 0 1 0 1 -1 0 -1 -1 0 1 0 1 -2 0 -3
-1 0 1 0 1 -1 0 -1 0 0 -1z"/>
<path d="M855 275 l-2 -1 -3 -6 -3 -6 3 -3 3 -3 5 0 5 0 2 2 3 2 1 2 1 2 0 3
0 2 -2 3 -1 3 -2 1 -2 1 -3 0 -3 0 -2 -2z"/>
<path d="M552 273 l-1 -2 0 -1 1 -2 2 0 3 0 1 2 1 1 -1 2 -1 1 -2 0 -2 0 -1
-1z"/>
<path d="M837 272 l-1 -1 1 -1 0 -2 2 0 2 0 1 2 0 1 -1 1 -1 1 -2 0 -1 0 0 -1z"/>
<path d="M460 270 l0 -1 1 -1 1 -1 1 0 1 1 0 1 0 1 -1 0 -2 1 -1 -1z"/>
<path d="M574 270 l0 -1 2 0 1 0 0 1 -1 1 -1 0 -1 0 0 -1z"/>
<path d="M814 269 l0 -2 0 -1 1 0 1 1 1 1 -1 1 -1 1 -1 -1z"/>
<path d="M721 268 l-1 -2 -2 0 -2 0 -2 -2 -1 -1 1 0 2 1 0 -2 1 -1 2 1 1 1 0
2 0 1 1 0 2 0 0 2 1 1 0 0 -1 0 -2 -1z"/>
<path d="M832 265 l-1 -2 2 -1 2 -2 1 2 1 2 -1 1 0 1 -1 0 -2 0 -1 -1z"/>
<path d="M728 263 l-2 -2 -1 -3 0 -3 0 -1 -1 -1 1 -1 0 -2 2 -1 2 0 2 1 1 2 0
0 1 0 3 3 3 3 -1 2 -1 2 -3 1 -3 1 0 0 0 0 -3 -1z"/>
<path d="M816 262 l0 -1 1 -2 2 -1 2 1 2 1 0 2 0 2 -3 0 -3 0 -1 -2z"/>
<path d="M785 257 l0 -1 1 0 1 0 0 1 0 1 -1 0 -1 0 0 -1z"/>
<path d="M532 256 l0 -2 1 0 1 1 0 1 0 0 -1 1 -1 0 0 -1z"/>
<path d="M769 254 l-2 -3 1 -2 0 -1 2 0 1 0 1 2 1 3 1 1 0 1 -1 1 -1 1 -1 0
-1 0 -1 -3z"/>
<path d="M476 254 l1 -1 1 0 0 1 -2 0 -1 1 1 -1z"/>
<path d="M479 253 l0 -1 1 0 1 0 0 1 -1 1 -1 0 0 0 0 -1z"/>
<path d="M563 250 l-1 -2 1 -2 1 -2 0 -1 -1 -1 3 1 4 0 1 2 1 3 -1 2 -1 2 -3
0 -3 0 -1 -2z"/>
<path d="M653 251 l1 0 1 0 0 1 -2 0 -1 0 1 -1z"/>
<path d="M642 249 l-1 -2 2 0 2 0 0 2 0 1 0 0 -1 0 -2 -1z"/>
<path d="M668 247 l0 -1 1 0 1 0 0 1 0 1 -1 0 -1 0 0 -1z"/>
<path d="M598 246 l0 -1 2 0 1 0 0 1 0 1 -1 0 -2 0 0 -1z"/>
<path d="M787 246 l0 -1 1 0 1 0 0 1 0 1 -1 0 -1 0 0 -1z"/>
<path d="M516 245 l1 -1 2 0 2 -1 0 1 0 1 -3 0 -3 1 1 -1z"/>
<path d="M586 244 l-1 -1 1 0 1 0 1 1 0 1 -1 0 -1 0 0 -1z"/>
<path d="M782 242 l0 -1 1 -2 2 -1 1 0 2 1 0 2 0 3 -3 0 -2 0 -1 -2z"/>
<path d="M616 241 l1 -2 0 -1 0 -1 2 1 2 0 0 2 0 3 -3 0 -2 0 0 -2z"/>
<path d="M502 238 l-1 -1 3 -1 3 -1 5 -1 6 -1 4 -2 4 -1 1 1 1 1 -1 1 -2 1 1
1 0 2 -2 0 -2 0 0 -1 0 -1 -5 0 -5 1 -5 1 -4 2 -1 -1z"/>
<path d="M644 238 l-1 -1 1 0 1 0 0 1 0 1 0 0 -1 0 0 -1z"/>
<path d="M734 236 l0 -1 1 -1 1 -1 1 1 2 1 -1 1 0 1 -1 0 -2 0 -1 -1z"/>
<path d="M694 234 l-1 -1 0 -2 0 -2 1 -1 2 -1 2 1 2 0 0 2 1 2 -2 2 -1 1 -1 0
-2 0 -1 -1z"/>
<path d="M535 233 l-1 -1 3 0 2 0 0 1 -1 1 -1 0 -2 0 0 -1z"/>
<path d="M609 228 l0 -1 1 0 1 0 0 1 -1 1 -1 0 0 0 0 -1z"/>
<path d="M536 226 l0 -1 1 1 1 0 -1 1 0 1 -1 0 0 0 0 -2z"/>
<path d="M584 226 l0 -1 1 0 1 0 0 1 0 1 -1 0 -1 0 0 -1z"/>
<path d="M721 225 l0 -1 1 1 0 1 0 1 -1 0 0 -2z"/>
<path d="M529 221 l0 -2 1 0 0 0 0 2 0 1 -1 0 -1 0 1 -1z"/>
<path d="M563 220 l-1 -1 2 0 1 0 0 1 -1 1 0 0 -1 0 0 -1z"/>
<path d="M760 219 l0 -1 1 0 1 0 0 1 0 1 -1 0 -1 0 0 -1z"/>
<path d="M827 219 l0 -1 1 1 1 0 0 1 0 0 -1 0 -1 0 0 -1z"/>
<path d="M641 217 l-2 -2 0 -3 1 -4 0 -1 1 0 2 0 2 1 0 2 1 2 1 0 2 0 0 1 1 2
-1 1 -2 1 -2 1 -2 0 -2 -1z"/>
<path d="M630 216 l0 -2 1 0 1 0 0 1 0 1 -1 1 -1 0 0 -1z"/>
<path d="M577 215 l1 0 1 0 0 1 -2 0 -1 0 1 -1z"/>
<path d="M274 213 l0 -2 2 0 1 0 0 2 0 1 -2 1 -1 0 0 -2z"/>
<path d="M374 212 l1 -1 1 0 0 1 0 1 -1 1 -1 0 -1 0 1 -2z"/>
<path d="M618 213 l-1 -1 1 -1 2 -2 1 0 1 0 1 2 0 1 -1 1 -1 1 -1 0 0 0 -2 -1z"/>
<path d="M381 213 l0 -1 2 -1 2 -1 0 0 0 1 -2 1 -2 1 0 0z"/>
<path d="M767 211 l0 -1 1 0 1 0 0 1 0 1 -2 0 -1 0 1 -1z"/>
<path d="M369 210 l1 -1 1 0 1 0 0 1 0 1 -2 0 -1 0 0 -1z"/>
<path d="M684 210 l-1 -1 0 -2 0 -2 2 -1 3 -1 1 1 2 1 0 1 0 2 -2 1 -2 2 -1 0
-1 0 -1 -1z"/>
<path d="M384 207 l0 -1 3 -1 4 -1 0 0 1 0 0 -1 0 -1 4 -1 3 -1 1 0 0 1 -6 3
-5 3 -3 0 -2 1 0 -1z"/>
<path d="M382 204 l1 -2 1 0 1 0 -1 2 0 1 -2 0 -1 0 1 -1z"/>
<path d="M281 203 l-1 -2 0 -2 1 -1 1 -1 2 -1 2 1 3 1 0 2 0 2 -2 1 -2 1 -1 0
-2 0 -1 -1z"/>
<path d="M387 202 l0 -1 1 0 0 0 0 1 0 1 -1 0 -1 0 1 -1z"/>
<path d="M367 201 l1 -1 2 -1 2 -1 0 1 -1 1 -2 1 -2 1 0 -1z"/>
<path d="M312 200 l0 -1 1 -1 1 -1 2 0 1 1 0 1 -1 2 -1 0 -2 0 -1 -1z"/>
<path d="M381 200 l1 -1 1 0 0 0 1 1 0 1 -1 0 -2 0 0 -1z"/>
<path d="M586 200 l-2 -1 2 -1 2 -2 1 1 1 1 0 1 -1 2 -1 0 0 0 -2 -1z"/>
<path d="M635 200 l0 -2 0 -1 1 -2 1 0 2 0 1 2 1 1 -1 2 -1 1 -2 0 -1 0 -1 -1z"/>
<path d="M614 197 l-1 -1 1 -1 2 0 1 1 1 0 -1 2 -1 1 -1 0 -1 0 0 -2z"/>
<path d="M292 197 l-1 -1 0 -3 0 -2 2 -1 1 -1 2 1 2 1 0 3 0 2 -2 1 -2 1 0 0
-1 0 -1 -1z"/>
<path d="M405 195 l-1 -2 0 -1 1 0 1 0 0 1 0 2 -1 2 0 -2z"/>
<path d="M660 195 l0 -2 1 -1 1 -1 2 1 2 1 0 1 0 1 -1 0 -1 0 -1 1 -2 0 -1 -1z"/>
<path d="M698 195 l-1 -1 1 0 1 0 1 1 0 1 0 0 0 0 -2 -1z"/>
<path d="M441 193 l0 -2 1 0 1 0 0 -2 -1 -1 2 -2 1 -2 3 0 2 0 1 -1 0 -1 3 0
2 0 0 -2 0 -2 -1 0 -1 1 -2 0 -1 1 0 -1 0 -1 3 -2 4 -3 1 0 1 0 1 1 1 2 -1 0
-1 1 1 2 0 2 1 0 1 0 -5 5 -4 4 -2 0 -3 0 -2 2 -2 1 -1 0 0 -1 -2 1 -1 1 0 -1z"/>
<path d="M800 192 l-1 -1 1 0 1 0 0 1 0 1 0 0 -1 0 0 -1z"/>
<path d="M623 189 l0 -1 0 -2 1 -3 1 -1 1 -2 3 0 2 0 2 3 2 2 0 3 0 3 -6 0 -5
0 -1 -2z"/>
<path d="M288 189 l-1 0 0 -1 0 -1 2 0 1 0 0 2 0 1 -1 0 -1 0 0 -1z"/>
<path d="M318 188 l-1 -1 1 0 1 0 1 1 0 1 -1 0 -1 0 0 -1z"/>
<path d="M639 188 l-1 0 0 -2 0 -1 1 0 1 -1 1 1 2 0 0 2 0 1 -1 0 -1 1 -2 -1z"/>
<path d="M688 186 l0 -1 1 1 1 0 0 1 0 1 -1 0 -1 0 0 -2z"/>
<path d="M756 185 l-1 -1 1 -1 0 -1 1 0 1 0 0 2 0 2 -1 0 -1 0 0 -1z"/>
<path d="M662 181 l-1 -1 1 0 1 0 0 1 0 1 0 0 -1 0 0 -1z"/>
<path d="M362 178 l0 -2 1 0 1 -1 1 1 1 2 -1 0 0 1 -2 0 -1 0 0 -1z"/>
<path d="M386 178 l-1 -2 1 -2 1 -1 2 1 1 2 -1 2 -2 1 -1 -1z"/>
<path d="M770 176 l-1 -1 -2 0 -1 1 -7 -3 -7 -4 -3 2 -2 2 -2 -1 -2 -1 -1 0
-1 0 -1 -1 -2 -2 -4 -1 -4 0 -2 1 -3 2 -2 -1 -2 -1 -1 0 -2 0 -3 2 -3 2 -2 1
-2 0 -5 1 -4 1 -7 -3 -8 -3 -7 -2 -7 -2 -1 0 -1 0 -2 -1 -1 -1 -3 0 -4 1 -4
-2 -4 -1 0 -2 0 -1 -1 -1 -2 0 -1 0 -2 -1 -1 0 0 -1 -3 0 -2 0 1 2 2 1 0 1 0
1 -2 1 -1 0 -1 -1 -1 -1 1 -2 0 -1 -3 -2 -2 -3 -3 1 -3 1 -2 1 -2 1 -1 -1 0
-1 -2 0 -2 0 0 1 0 1 -3 -1 -4 0 -5 -1 -4 -2 -3 0 -2 0 0 -1 1 -1 -2 0 -2 1
-2 1 -2 2 -3 0 -2 0 -2 -2 -2 -2 0 -2 0 -3 2 -2 3 -2 3 1 3 1 2 -1 3 0 0 0 1
0 3 -1 2 -1 2 1 2 0 1 1 1 0 0 -1 0 -1 2 0 1 0 0 -1 0 -1 -2 0 -2 0 0 1 0 1
-1 0 -2 0 1 -2 0 -2 -2 -1 -2 0 0 -1 0 -1 2 0 1 -1 5 1 5 1 2 0 1 0 0 -1 -1
-1 1 0 1 0 0 1 0 2 3 0 4 0 8 1 8 1 5 1 5 0 1 0 1 0 1 -1 2 0 2 2 2 2 6 1 7 1
1 -1 1 0 0 -3 0 -3 -2 -1 -2 -1 -2 0 -2 1 -2 -2 -2 -1 0 -1 0 -1 2 -1 2 -1 8
2 7 1 3 -1 3 -1 5 1 5 0 1 0 1 1 3 1 3 1 0 1 0 1 5 0 5 1 3 2 4 1 4 0 5 1 5 3
6 4 4 5 5 4 2 3 3 3 1 2 1 3 7 6 8 5 0 1 0 0 -1 0 -2 0 -1 -2z"/>
<path d="M292 175 l-2 -2 0 -3 0 -2 2 -2 2 -2 3 0 3 0 2 2 2 2 0 3 0 2 -2 2
-2 2 -3 0 -3 0 -2 -2z"/>
<path d="M472 176 l-1 -1 1 0 1 0 0 1 0 1 0 0 -1 0 0 -1z"/>
<path d="M639 174 l-1 -3 1 -2 2 -2 2 0 2 0 1 2 2 2 -1 2 -2 3 -3 0 -2 0 -1
-2z"/>
<path d="M466 172 l-2 -2 0 -2 0 -1 1 -2 1 -1 3 1 2 1 0 1 0 1 -2 3 -1 3 -2
-2z"/>
<path d="M317 171 l0 -2 0 -2 1 -1 2 0 1 1 1 1 0 2 -1 1 -1 1 -1 0 -1 0 -1 -1z"/>
<path d="M428 170 l0 -1 1 1 1 0 0 1 0 0 -1 0 -1 0 0 -1z"/>
<path d="M517 167 l1 0 1 0 0 1 -2 0 -1 0 1 -1z"/>
<path d="M521 166 l1 -1 1 0 2 0 0 1 0 1 -2 1 -2 0 0 -2z"/>
<path d="M518 165 l0 -1 1 0 1 -1 0 1 0 1 -1 1 -1 0 0 -1z"/>
<path d="M494 164 l-1 -1 1 1 2 0 0 1 0 0 -1 0 -1 0 0 -1z"/>
<path d="M525 164 l0 -1 1 0 1 0 0 1 0 1 -1 0 -1 0 0 -1z"/>
<path d="M497 162 l1 -2 -1 0 -1 1 -1 -3 -1 -2 1 0 1 0 0 1 0 2 1 -2 1 -2 2 1
2 0 0 3 0 3 -2 1 -2 1 -1 0 0 0 0 -2z"/>
<path d="M302 162 l-1 0 1 -2 0 -1 2 0 1 0 0 2 0 2 -1 0 -2 0 0 -1z"/>
<path d="M479 162 l0 -1 0 -3 1 -3 2 0 1 -1 1 1 1 1 -1 3 0 4 -2 0 -2 0 -1 -1z"/>
<path d="M583 161 l-1 -1 1 0 2 0 1 1 0 1 -1 0 -2 0 0 -1z"/>
<path d="M432 159 l0 -2 2 0 1 0 0 2 0 1 -1 0 -2 0 0 -1z"/>
<path d="M541 158 l0 -1 1 -1 2 0 0 -2 0 -1 1 1 2 1 -2 1 -1 0 0 2 0 1 -1 0
-1 0 -1 -1z"/>
<path d="M604 157 l0 -2 1 0 1 1 -1 2 0 1 -1 0 0 0 0 -2z"/>
<path d="M581 155 l0 -2 1 0 1 0 0 2 0 2 -1 0 -1 0 0 -2z"/>
<path d="M557 153 l-2 -2 1 -1 2 -1 2 2 2 1 -1 2 -1 1 -1 0 -1 0 -1 -2z"/>
<path d="M517 150 l-3 -2 0 -2 -1 -2 1 -2 1 -3 2 -1 2 -1 2 0 2 0 1 2 2 2 2
-1 2 0 0 1 0 1 -2 1 -2 0 0 3 0 3 -2 1 -3 2 0 0 0 0 -4 -2z"/>
<path d="M475 141 l0 -2 2 0 1 0 0 2 0 2 -1 0 -2 0 0 -2z"/>
<path d="M571 141 l-1 -2 1 0 2 0 1 1 0 1 0 1 -1 0 -2 -1z"/>
<path d="M553 140 l-1 -1 1 0 1 0 0 1 0 1 0 0 -1 0 0 -1z"/>
<path d="M331 136 l0 -1 1 1 1 0 0 1 0 1 -1 0 -1 0 0 -2z"/>
<path d="M556 131 l-1 -1 1 -1 1 -1 2 0 1 1 0 1 -1 1 -1 1 0 0 -2 -1z"/>
<path d="M544 127 l-1 -1 1 0 1 0 0 1 0 1 0 0 -1 0 0 -1z"/>
<path d="M564 125 l-1 0 0 -2 0 -1 2 -1 1 -2 1 1 2 0 0 2 1 1 -1 2 -1 1 -2 0
-2 0 0 -1z"/>
<path d="M613 123 l0 -1 1 0 1 -1 0 1 0 2 -1 0 -1 0 0 -1z"/>
<path d="M922 118 l-1 -1 -7 -15 -8 -14 -1 0 0 1 1 1 1 2 1 8 0 8 0 0 -1 0 -3
-6 -3 -5 -2 -4 -2 -3 1 0 1 0 3 7 4 7 0 0 1 0 -1 -6 -1 -6 -2 -4 -1 -4 0 -1 0
-1 1 0 2 0 4 10 5 9 0 0 1 0 -2 -8 -1 -7 0 -7 0 -6 1 9 1 10 2 6 1 7 4 6 4 6
0 1 0 1 -1 0 -1 0 -1 -1z m1 -3 l-1 -2 -1 0 0 0 1 2 1 2 1 0 0 0 -1 -2z"/>
<path d="M894 111 l0 -1 2 -1 3 0 0 -5 0 -4 -2 -5 -2 -5 -4 -5 -3 -4 1 -1 0
-1 2 1 1 1 0 1 0 1 2 3 2 3 1 1 0 2 2 6 2 6 -2 4 -1 4 -2 0 -2 0 0 -1z"/>
<path d="M920 96 l-2 -2 -1 -5 -2 -4 0 -2 0 -3 1 -1 2 -1 1 0 2 1 5 6 5 6 2 3
2 2 -1 0 -2 0 0 2 0 2 -1 -2 -1 -2 0 -1 -1 -2 -2 -4 -3 -4 -3 -3 -3 -3 -1 2
-1 3 1 3 1 3 3 1 3 1 1 2 1 2 -1 1 0 2 -2 0 -1 0 -2 -3z m4 -1 l-1 -2 -1 0 -2
-1 0 1 0 1 2 2 1 2 1 -1 1 0 -1 -2z"/>
<path d="M936 92 l-4 -6 0 -2 0 -3 2 0 2 0 5 5 5 5 0 -3 0 -3 2 -1 2 -1 6 2 7
2 0 0 1 0 2 -3 2 -3 0 0 0 1 -2 3 -1 3 -1 0 0 0 -7 -2 -7 -1 -1 0 -2 1 0 3 0
3 1 2 1 2 0 1 -1 1 -3 -5 -4 -6 -3 -2 -3 -2 -1 1 -1 0 1 2 0 2 3 4 3 4 0 1 1
1 -1 0 0 0 -4 -6z"/>
<path d="M968 78 l0 -1 1 1 0 1 0 1 -1 0 0 -2z"/>
<path d="M913 71 l0 -2 2 -2 2 -3 1 0 1 0 0 1 0 1 -2 0 -1 0 -2 3 -1 4 0 -2z"/>
</g>
</svg>
