<?xml version="1.0" standalone="no"?>
<!DOCTYPE svg PUBLIC "-//W3C//DTD SVG 20010904//EN"
 "http://www.w3.org/TR/2001/REC-SVG-20010904/DTD/svg10.dtd">
<svg version="1.0" xmlns="http://www.w3.org/2000/svg"
 width="256.000000pt" height="256.000000pt" viewBox="0 0 256.000000 256.000000"
 preserveAspectRatio="xMidYMid meet">
<metadata>
Created by potrace 1.16, written by Peter Selinger 2001-2019
</metadata>
<g transform="translate(0.000000,256.000000) scale(0.100000,-0.100000)"
fill="#9e964d" stroke="none">
<path d="M878 2105 c-20 -11 -45 -28 -56 -38 -10 -9 -28 -17 -40 -17 -12 0
-40 -7 -62 -16 -24 -10 -51 -14 -68 -10 -15 4 -57 6 -94 6 -56 -1 -68 2 -68
15 0 18 -43 65 -60 65 -6 0 -25 -13 -41 -29 -22 -22 -29 -39 -29 -68 0 -22 5
-44 12 -51 10 -10 2 -22 -34 -57 -39 -37 -47 -52 -53 -94 -4 -28 -4 -55 0 -61
4 -6 -7 -26 -24 -46 -38 -42 -39 -67 -5 -101 23 -23 24 -27 10 -35 -24 -13
-19 -31 10 -45 25 -12 26 -11 10 6 -9 10 -14 20 -11 23 8 8 72 -7 88 -20 7 -6
23 -12 37 -15 17 -3 10 -5 -20 -7 -25 -1 -51 -2 -58 -1 -28 4 20 -48 64 -69
24 -12 48 -29 54 -38 9 -16 9 -16 10 1 0 19 15 23 25 6 4 -5 17 -14 30 -19 12
-5 33 -24 46 -42 22 -32 22 -33 1 -14 -22 19 -32 10 -12 -10 17 -17 20 -55 7
-78 -6 -11 -12 -25 -12 -31 -1 -18 -57 -98 -86 -123 -16 -13 -26 -29 -22 -34
4 -7 1 -8 -7 -3 -8 5 -20 -1 -32 -16 -68 -85 -75 -138 -28 -212 16 -25 39 -69
51 -96 19 -44 59 -96 59 -76 0 4 11 0 25 -9 32 -21 38 -20 32 4 -5 18 -3 18
22 6 39 -20 79 -27 86 -16 3 5 -3 10 -14 10 -12 0 -21 7 -21 15 0 8 9 15 20
15 30 0 24 12 -15 35 l-36 20 22 23 c21 23 21 23 1 45 -18 21 -42 60 -42 70 0
3 15 5 33 5 17 0 54 10 80 21 27 12 57 21 67 21 10 0 36 18 59 40 38 37 59 51
47 31 -3 -5 5 -20 19 -35 35 -38 41 -54 43 -114 1 -29 6 -62 12 -72 5 -10 7
-47 3 -85 -7 -81 -25 -104 -80 -106 -69 -3 -86 -6 -97 -21 -6 -8 -23 -18 -37
-21 -19 -5 -26 -13 -26 -30 0 -21 4 -24 28 -21 20 3 29 -1 29 -11 0 -11 8 -13
33 -10 17 3 26 3 19 -1 -7 -3 -16 -13 -21 -22 -8 -16 -1 -17 77 -15 48 1 88 7
90 13 2 5 21 10 42 10 52 0 83 15 104 51 10 17 26 29 38 29 14 0 18 5 14 16
-4 10 -2 13 6 8 8 -5 9 2 5 24 -5 22 1 44 20 79 14 26 32 70 40 96 8 26 23 57
35 69 17 17 21 34 22 102 2 104 6 110 65 100 25 -4 55 -7 66 -6 11 0 14 -2 8
-5 -7 -3 -13 -11 -13 -19 0 -11 5 -10 22 6 12 11 23 18 25 16 2 -2 -11 -34
-29 -71 l-32 -68 36 -68 c19 -38 31 -69 27 -69 -5 0 -6 -6 -3 -14 6 -15 -29
-32 -45 -22 -9 6 -90 -20 -143 -44 -30 -14 -39 -36 -11 -26 15 6 15 4 -2 -14
-23 -26 -12 -39 15 -15 17 16 21 16 35 2 29 -29 75 -30 160 -2 44 14 90 32
102 40 12 8 29 15 38 15 9 0 30 7 46 16 24 12 30 20 25 37 -3 15 3 29 19 45
18 17 23 31 19 47 -4 17 1 32 20 52 14 15 26 35 26 44 0 9 9 24 20 34 19 18
21 17 40 -5 10 -12 28 -41 40 -64 39 -82 121 -157 133 -123 2 8 11 7 28 -4 20
-13 66 -30 91 -33 22 -3 17 -21 -17 -56 -26 -27 -45 -38 -57 -35 -19 7 -68
-15 -88 -40 -8 -10 -24 -21 -37 -26 -13 -5 -23 -13 -23 -18 0 -6 7 -8 15 -5 8
4 15 1 15 -6 0 -6 4 -9 9 -6 5 4 20 2 33 -3 16 -6 30 -4 46 7 30 20 39 9 18
-24 -21 -31 -13 -44 11 -21 13 11 23 13 35 6 17 -9 48 -3 48 11 0 4 11 8 25 8
15 0 22 -5 18 -11 -4 -6 0 -8 11 -4 10 4 20 7 22 7 3 0 3 4 0 8 -7 11 58 83
78 86 21 3 56 36 56 53 0 8 10 27 22 43 17 24 19 32 8 45 -10 12 -10 18 0 30
10 12 10 21 2 40 -7 14 -16 25 -22 25 -6 0 -9 4 -6 9 3 5 -2 8 -11 7 -21 -1
-63 59 -63 90 0 13 -5 24 -10 24 -7 0 -8 34 -4 98 4 70 3 93 -5 82 -15 -21
-14 -4 4 62 12 49 13 66 0 135 -15 81 -43 178 -66 226 -10 22 -10 33 -1 48 32
50 -15 128 -91 151 -30 9 -59 31 -101 76 -33 35 -78 74 -100 87 -65 38 -176
60 -291 57 -266 -7 -348 -3 -383 17 -13 7 -48 35 -78 61 -29 27 -65 52 -79 55
-14 3 -37 8 -52 12 -47 11 -57 10 -95 -12z m-518 -296 c0 -18 -2 -19 -15 -9
-8 7 -15 16 -15 21 0 5 7 9 15 9 9 0 15 -9 15 -21z m126 -133 c13 -63 14 -79
2 -103 -20 -41 -73 -49 -137 -20 -53 25 -53 32 -6 59 34 19 43 49 22 67 -8 6
-34 15 -58 19 l-44 8 60 38 c33 21 69 44 80 51 30 19 63 -28 81 -119z m80 113
c9 -16 -12 -33 -31 -25 -14 5 -15 9 -5 21 15 18 26 19 36 4z m899 -759 c-3 -5
-11 -10 -16 -10 -6 0 -7 5 -4 10 3 6 11 10 16 10 6 0 7 -4 4 -10z m-695 -60
c-6 -11 -16 -20 -22 -20 -6 0 -3 9 7 20 10 11 20 20 22 20 2 0 -1 -9 -7 -20z
m1144 -189 c-2 -3 -12 3 -22 13 -16 17 -16 18 5 5 12 -7 20 -15 17 -18z
m-1084 -321 c0 -5 -8 -10 -17 -10 -15 0 -16 2 -3 10 19 12 20 12 20 0z"/>
<path d="M2030 414 c0 -8 5 -12 10 -9 6 4 8 11 5 16 -9 14 -15 11 -15 -7z"/>
<path d="M2056 404 c-4 -9 -4 -19 -1 -22 2 -3 7 3 11 12 4 9 4 19 1 22 -2 3
-7 -3 -11 -12z"/>
</g>
</svg>
