<?xml version="1.0" encoding="UTF-8"?>
<svg width="256" height="256" viewBox="0 0 256 256" xmlns="http://www.w3.org/2000/svg">
  <g fill="#FFD700" stroke="none">
    <path d="M2536 4889 c-24 -57 -62 -96 -138 -141 -73 -43 -137 -112 -164 -176
-24 -58 1 -62 29 -5 14 27 32 55 40 62 26 21 28 -5 4 -40 -75 -110 -74 -253 1
-331 14 -16 23 -29 19 -29 -4 -1 -11 -3 -17 -4 -5 -1 -13 -3 -16 -4 -4 0 5
-12 20 -26 35 -32 33 -41 -13 -64 -65 -34 -69 -82 -12 -143 82 -88 223 16 157
117 -24 37 -1 40 25 3 29 -40 37 -129 19 -204 -13 -55 -64 -129 -81 -118 -6 4
-3 14 7 25 16 17 13 24 -10 20 -5 -1 -31 17 -59 40 -63 53 -134 73 -227 62
-87 -10 -83 -9 -103 -18 -25 -10 -74 12 -59 27 7 7 20 7 39 1 71 -25 143 51
151 159 2 40 9 79 15 86 7 9 -8 30 -58 78 l-67 67 -55 -7 c-95 -11 -165 -61
-199 -141 -17 -41 -26 -288 -10 -313 3 -6 2 -13 -4 -17 -9 -6 -14 1 -12 17 1
3 -5 11 -13 18 -18 15 -40 3 -26 -13 20 -26 32 -97 21 -131 -8 -26 -6 -43 10
-91 44 -127 -4 -219 -80 -157 -28 22 -21 71 10 79 38 10 54 51 26 64 -30 14
-65 4 -48 -13 9 -9 4 -18 -19 -38 -25 -20 -31 -33 -31 -65 0 -22 -4 -45 -9
-51 -18 -21 55 -76 108 -81 126 -13 171 150 94 334 -27 67 -28 113 0 61 63
-118 87 -149 149 -189 57 -37 59 -49 10 -62 -212 -55 -174 -374 48 -397 64 -6
69 -23 7 -30 -58 -8 -95 -36 -119 -92 -63 -153 122 -286 302 -218 56 21 72 20
72 -7 0 -9 16 -36 36 -60 35 -42 35 -44 20 -69 -19 -28 -14 -44 14 -44 29 0
52 43 48 87 -2 28 1 38 12 38 37 0 41 -38 38 -405 -1 -195 2 -369 6 -386 7
-27 3 -36 -23 -66 -17 -20 -31 -43 -31 -53 0 -10 -20 -35 -45 -57 -109 -96
-88 -256 37 -283 48 -11 63 -46 39 -86 -25 -40 -26 -74 -6 -122 29 -69 22
-637 -9 -685 -42 -67 -43 -97 -4 -155 62 -94 85 -133 118 -197 32 -63 60 -69
60 -13 0 8 24 67 53 131 49 107 54 123 49 173 -8 104 161 332 210 283 4 -3 0
-17 -7 -31 -26 -50 18 -113 80 -113 89 0 136 120 76 196 -16 21 -19 30 -9 41
21 25 -5 32 -147 38 -175 8 -165 4 -165 62 0 92 68 221 128 244 31 12 49 -2
27 -21 -37 -31 13 -120 68 -120 77 0 124 123 69 183 -15 17 -15 20 6 36 39 29
10 41 -98 41 -52 0 -109 -4 -125 -8 -93 -27 -128 35 -106 189 12 83 11 93 -9
154 -16 49 -19 69 -11 79 8 10 7 17 -4 26 -8 7 -16 10 -16 6 -1 -3 -2 -10 -3
-16 0 -5 -6 -14 -12 -20 -29 -29 -43 64 -15 94 58 62 92 271 53 319 -24 29
-18 525 6 550 24 24 47 15 32 -13 -33 -62 37 -156 79 -106 10 12 8 17 -8 26
-25 13 -27 42 -4 61 9 8 25 33 35 57 21 47 24 48 99 26 124 -37 245 -5 287 76
64 125 -28 255 -155 221 -42 -12 -84 -54 -76 -78 2 -6 0 -14 -6 -17 -14 -9
-25 14 -13 26 6 6 8 16 6 23 -8 19 62 73 103 80 150 26 213 81 213 186 0 98
-47 174 -129 212 l-45 20 30 21 c59 42 128 112 161 164 28 44 37 51 49 41 11
-9 17 -4 30 27 9 22 20 47 25 56 6 10 5 19 -1 23 -5 3 -16 -8 -25 -26 -23 -44
-30 -29 -26 59 5 144 -30 290 -82 340 -85 82 -252 97 -243 21 4 -34 -15 -49
-38 -30 -22 18 -50 -30 -30 -51 11 -11 12 -21 5 -39 -48 -128 104 -280 189
-189 17 18 31 26 35 20 9 -14 -58 -80 -81 -80 -11 0 -44 7 -74 15 -111 30
-204 11 -253 -50 -45 -55 -98 -33 -117 49 -9 41 0 52 31 35 106 -56 219 95
124 167 -44 33 -44 32 14 92 156 160 111 389 -104 527 -80 52 -135 104 -135
129 0 41 -29 51 -44 15z m492 -1984 c-11 -12 -82 61 -73 75 3 5 23 -7 44 -28
24 -23 35 -41 29 -47z m71 19 c-6 -7 -15 -11 -21 -8 -5 3 -4 12 3 20 6 7 15
11 21 8 5 -3 4 -12 -3 -20z"/>
  </g>
</svg>