<?xml version="1.0" standalone="no"?>
<!DOCTYPE svg PUBLIC "-//W3C//DTD SVG 20010904//EN"
 "http://www.w3.org/TR/2001/REC-SVG-20010904/DTD/svg10.dtd">
<svg style="fill: black; stroke: black;" version="1.0" xmlns="http://www.w3.org/2000/svg"
 width="720.133156pt" height="616.365957pt" viewBox="0 0 720.133156 616.365957"
 preserveAspectRatio="xMidYMid meet">
<metadata>
Created by potrace 1.16, written by Peter Selinger 2001-2019
</metadata>
<g transform="translate(-159.192087,846.333333) scale(1.000000,-1.000000)"
fill="#FF4500" data-original="#000000" stroke="none">
<path d="M827 845 l0 -1 -1 1 -1 0 0 -1 0 -1 -3 -2 -2 -3 -2 0 -1 0 -2 -1 -2
-1 -5 -1 -4 0 -2 0 -2 0 0 -1 0 -1 -2 0 -1 -1 3 1 3 0 2 0 3 0 3 -1 3 -1 -3
-3 -3 -3 -1 0 -1 0 -1 -2 -1 -2 -1 0 -1 1 -2 -3 -2 -3 -5 -3 -5 -2 -1 0 -1 0
-1 -1 0 -1 -1 1 -2 0 0 -1 -1 -2 -1 1 -2 0 1 2 0 1 -2 0 -2 1 0 1 1 1 0 -1 1
0 0 1 0 0 -4 2 -4 1 -1 0 -1 0 -2 0 -2 -1 -2 0 -1 -1 -4 0 -4 -1 -1 -1 -2 -2
0 1 -1 0 -4 -4 -3 -3 -1 1 0 1 -2 -1 -1 0 1 -1 2 -1 -2 -1 -1 -1 1 0 1 -1 -1
-1 0 -2 -2 2 -2 1 0 -1 0 -1 -1 0 -1 1 -1 -2 -1 -2 1 1 2 1 0 0 1 -1 -1 -1 -2
-2 -1 0 -2 -1 -1 -1 -2 -1 0 -2 0 -1 -1 0 0 0 -2 -3 -2 -3 -1 1 -1 0 0 -1 1
-1 -4 -1 -3 -1 0 -2 0 -1 -2 0 -2 1 -2 0 -1 1 -1 -1 0 -1 -1 0 -2 1 -2 -2 -2
-2 -4 -1 -3 0 0 0 -1 0 2 -3 1 -2 0 1 0 1 1 -1 1 0 -1 -2 -1 -2 0 -1 0 0 0 -1
0 -2 -2 -1 -3 0 0 -1 0 -1 -3 1 -4 0 0 -1 -1 -2 -1 0 -1 0 1 1 0 1 -1 0 -1 0
0 -1 0 -1 -1 1 -2 0 0 -1 0 -1 -3 0 -3 0 -2 -2 -1 -1 1 -1 1 0 4 2 3 2 3 0 3
0 -4 -3 -4 -4 0 0 0 -1 1 1 2 0 -2 -1 -1 -2 -1 1 -1 1 -1 -1 0 -2 -2 1 -1 0 1
1 1 1 -1 1 -1 2 -1 -1 -1 -1 2 -2 1 -3 0 -1 0 0 -1 1 -1 0 0 -1 1 -1 -1 0 -2
0 0 -1 -1 -2 1 0 1 -1 1 2 2 2 1 0 1 -1 -3 -2 -2 -2 -2 0 -1 0 0 2 0 2 -1 0
-1 0 0 1 0 1 0 0 0 1 -1 -1 -2 -1 -1 -3 -1 -3 1 -1 1 0 0 1 -1 1 1 0 1 -1 0 0
0 -1 1 -1 2 -1 -2 -1 -1 -1 -1 -3 0 -4 -2 0 -1 -1 0 -3 -1 -3 -1 0 -1 0 0 1 1
1 -1 0 -1 1 0 -2 0 -2 2 0 1 0 0 -1 -1 0 -2 0 -1 -1 -1 0 -1 0 -2 -4 -1 -4 -3
-1 -2 -1 1 -1 0 -2 -2 -2 -1 -3 -2 0 -1 0 1 1 0 1 -1 0 -1 0 -1 -5 -1 -4 -2 0
-1 1 0 -1 0 -2 -3 0 -3 -1 1 3 2 2 -1 0 -1 1 -2 -1 -2 -2 -7 -1 -6 -2 -4 -2
-3 -1 -4 -3 -4 -3 0 -2 0 -1 -2 -1 -2 -1 0 1 0 0 -2 -2 -2 -2 -2 1 -2 0 -1 1
0 1 -2 0 -2 0 0 -1 0 -1 2 1 1 0 -1 -1 0 -2 -2 1 -1 0 0 1 0 2 -1 -2 -2 -2 0
1 -1 1 -1 0 -1 -1 0 -1 0 -1 -3 0 -2 0 0 1 0 1 -1 1 -1 1 2 2 3 3 0 1 0 1 1 0
1 0 0 -1 0 -1 2 0 2 0 -1 2 0 2 -1 0 -1 1 2 2 2 2 1 0 1 0 -1 -1 0 -1 1 -1 2
0 2 2 2 1 0 1 -1 0 1 2 1 1 -1 0 -1 0 0 3 0 3 -1 1 -1 2 -3 1 -2 2 -4 0 -4 0
-3 1 -2 0 0 3 -1 2 1 1 1 1 0 3 1 3 -3 1 -3 2 -1 -1 -1 -1 -1 1 -1 0 2 1 2 1
3 0 4 0 1 -1 0 -1 1 0 1 0 0 2 0 3 0 1 0 1 0 1 0 1 -3 0 -3 -1 0 1 0 1 1 1 1
1 0 -1 1 -1 2 0 3 0 0 1 0 1 -1 1 -2 1 -1 0 -1 -1 0 1 0 1 -1 0 -2 -1 0 1 1 2
-4 0 -3 0 -1 1 -1 1 -4 -1 -4 -1 -4 -1 -3 -1 -1 1 -2 1 1 2 0 3 -1 3 -1 4 -3
2 -4 2 -4 1 -5 0 -1 2 -1 1 -3 0 -2 0 -4 -2 -4 -1 -3 -1 -3 -2 -6 -2 -6 -3 -1
0 -1 0 -7 -3 -8 -4 -2 -3 -3 -2 -2 -4 -2 -4 0 -1 0 -2 -2 -3 -3 -3 -4 -3 -4
-3 0 1 -1 0 -2 -3 -3 -4 -4 1 -4 0 -1 -1 0 -1 -2 0 -2 0 -2 -1 -3 -1 -5 -7 -4
-7 -4 -3 -5 -3 0 -1 0 -1 -1 0 -1 0 -2 -2 -2 -1 -6 -6 -6 -6 -6 -1 -5 -1 -3
-2 -3 -2 -3 0 -3 0 -2 -1 -1 -2 -4 -1 -4 -1 -4 -3 -4 -2 -11 -11 -10 -10 0 -1
0 0 1 1 1 0 0 -1 0 -2 -1 -1 -2 -2 -1 -4 -1 -4 -4 -8 -3 -8 -1 -1 -1 0 -2 -5
-1 -5 -4 -2 -3 -1 -2 -1 -1 -1 0 -1 0 -2 -5 -4 -4 -4 -1 -1 0 0 -4 -3 -4 -4
-4 -2 -3 -1 -2 -2 -2 -1 -2 -5 -2 -4 -2 -5 -1 -5 1 -16 0 -15 0 -7 1 -6 -2 -2
-2 -2 0 -1 0 -2 -2 -1 -2 -1 -2 -1 -2 0 0 -2 0 -1 -4 -4 -4 -4 -1 -3 -2 -2 -3
-5 -4 -5 0 -3 -1 -3 3 -3 2 -3 0 -2 0 -1 0 -3 0 -3 -1 -1 -1 -1 1 -2 0 -2 1 0
1 0 0 -3 1 -3 -1 -1 -1 -2 0 -4 0 -5 -2 -1 -1 0 1 -4 0 -3 -1 1 0 1 -2 -2 -2
-3 0 -1 0 0 2 1 1 2 1 0 0 -1 -2 -3 -1 -3 -6 -2 -6 -1 0 -1 0 -1 -1 0 -2 0 0
-2 -1 -2 -1 0 -1 0 -1 -3 -1 -2 0 -2 0 -2 3 -3 2 -2 -3 -1 -3 -2 -1 -1 -1 -2
-1 -2 0 -1 0 -1 0 0 -1 1 -1 2 1 -4 0 -3 1 -1 0 -1 -1 0 -1 1 0 -3 -1 -3 -2
-1 -1 -2 -1 -4 -1 -4 1 0 1 -1 0 -4 0 -5 2 1 2 0 4 3 4 3 1 0 1 0 1 -1 2 -1
-2 0 -1 0 0 -1 0 -1 -4 -5 -4 -4 -1 -3 0 -3 -2 -1 -1 -1 0 -2 0 -2 -1 0 -1 0
0 -1 0 -2 -1 0 -1 0 -1 1 -1 1 -1 -2 -1 -3 0 -2 0 -1 -1 0 -1 1 0 -2 -1 -1 3
0 3 1 -2 -1 -1 -1 1 0 1 0 0 -1 -1 -1 -2 1 -1 0 0 -1 1 -1 -2 0 -1 0 0 -1 1
-1 -1 0 -1 0 1 -2 0 -2 -3 -1 -2 -1 1 -1 1 -1 -1 -1 -1 -2 0 -1 1 -1 -1 -2 -1
-2 1 1 2 2 0 0 1 0 2 1 1 2 2 1 1 2 1 0 2 0 -2 -1 -1 0 -1 -3 -1 -2 0 -1 0 -1
3 4 3 4 1 0 2 0 -2 -1 -1 -1 0 -1 1 -1 2 0 1 1 0 -2 -1 -1 0 -1 0 -1 -1 0 -1
0 0 2 1 1 0 0 -1 0 -2 -3 -3 -3 1 1 2 0 0 -1 0 -1 -5 -4 -5 -5 -1 1 -1 0 0 -1
1 -1 -2 -2 -3 -2 0 -2 0 -2 1 1 1 0 0 1 -1 1 2 2 2 1 0 -1 0 -2 2 1 1 0 0 -1
0 -1 -2 -2 -3 -1 0 -1 1 -1 -1 -1 -2 -1 -2 -1 -3 0 -1 -2 -1 -2 1 0 0 -1 -1
-1 -2 -1 0 -1 0 -1 -3 -2 -3 -2 1 -1 0 -1 2 2 3 2 2 1 2 1 -1 1 0 1 2 0 1 0
-1 -1 0 -1 1 0 2 0 -1 3 -2 3 1 1 1 0 0 -1 -1 -1 3 3 3 3 4 0 4 1 1 1 1 0 0
-2 -1 -1 2 1 2 2 0 -1 0 -1 -2 -1 -2 -2 1 0 1 0 3 3 2 2 1 0 0 -1 2 2 3 2 3 1
3 1 1 0 2 0 -2 -1 -1 -1 2 1 3 0 1 1 1 2 2 1 2 1 0 -1 -1 -1 1 0 1 0 1 2 0 2
3 -1 2 -2 0 2 0 1 -1 0 -1 -1 0 1 0 2 2 0 1 1 0 -1 0 -1 3 1 3 0 1 2 2 1 6 1
5 1 1 1 1 1 3 0 2 0 -1 -2 -2 -3 2 -1 2 -1 3 0 2 1 0 -1 0 -1 -1 0 -1 -1 0 -1
0 -1 2 1 1 2 2 0 2 1 2 4 2 3 1 -1 1 0 0 1 0 1 4 2 5 1 1 0 1 0 -1 -1 0 -1 2
2 2 2 0 -1 1 0 3 2 3 2 6 1 5 1 1 1 1 1 5 1 5 0 0 -2 1 -2 1 -1 2 0 4 2 4 1 2
2 2 2 0 2 0 1 3 2 3 3 3 0 2 -1 1 2 0 2 3 1 2 2 3 0 3 0 3 2 4 1 2 0 1 -1 2 1
1 1 8 0 8 0 2 -1 3 0 5 2 6 3 4 4 4 4 1 -1 0 0 0 1 -1 2 1 1 1 1 2 1 3 1 -1 2
-1 1 2 0 3 0 12 0 12 1 3 3 4 3 1 0 2 -1 4 2 5 2 0 2 1 2 0 6 0 6 -2 0 -2 0 0
-1 0 -2 -1 0 -1 0 0 -2 0 -2 -1 -2 -2 -2 0 2 -1 2 -1 0 -1 0 0 5 0 5 -2 1 -3
1 -1 0 -1 -1 0 -2 0 -1 -1 0 -2 0 0 1 -1 1 1 1 1 0 0 -1 -1 -1 1 0 1 0 0 1 0
2 1 2 2 2 1 -2 1 -1 0 1 0 2 3 1 4 2 6 0 6 0 2 2 3 1 1 2 2 3 2 2 1 3 4 4 3 3
2 3 1 4 1 0 1 0 2 5 2 5 0 3 1 3 2 7 2 7 0 2 1 3 3 3 3 4 1 0 1 0 4 3 5 3 1 0
1 0 5 5 6 6 7 2 8 2 6 0 7 0 2 -1 2 -1 0 -1 0 0 0 -2 0 -2 1 0 1 0 2 -2 3 -3
3 -2 4 -3 0 0 1 0 0 2 0 2 1 0 1 0 0 1 -1 0 -1 1 -1 0 -1 0 -1 0 0 1 -1 2 1 1
1 0 0 -1 -1 -1 2 -1 2 0 2 -3 1 -2 1 0 2 0 2 -4 3 -4 -2 -3 -2 -4 -3 -1 -2 0
-3 0 -2 1 -2 0 -1 1 0 -2 0 -1 -6 -1 -6 -1 0 -1 0 -1 1 1 2 0 1 -1 1 -1 -1 -2
-1 -3 -1 0 0 0 -2 4 -2 4 -1 0 -2 0 0 -2 1 -2 3 -3 3 -3 3 -2 4 -2 5 0 5 0 -2
-1 -2 -1 -3 1 -3 0 0 0 1 -1 3 -1 3 0 1 -1 2 0 9 0 8 0 1 -2 1 -1 1 0 1 0 3
-2 4 -2 -2 1 -1 2 4 1 4 1 2 0 2 0 -2 1 -1 1 0 0 1 0 3 -1 2 -2 2 1 2 1 4 4 5
5 2 2 2 3 0 2 1 1 4 4 4 3 1 0 1 0 1 1 0 2 3 1 4 1 2 1 2 1 2 -1 2 -1 0 1 0 0
2 -1 1 -2 1 0 1 0 0 1 -1 1 1 0 2 0 1 2 0 1 3 0 3 0 2 -1 1 -2 0 0 0 -1 1 2 1
1 0 -1 1 -1 2 1 3 1 -4 -3 -4 -4 1 0 1 0 1 1 2 2 3 0 3 0 0 -1 0 -1 -2 1 -2 0
2 -2 2 -2 4 0 4 0 2 0 3 0 0 1 0 1 1 3 1 3 1 2 1 2 3 -1 3 -1 1 1 0 1 1 -1 1
0 0 2 0 1 2 0 1 -1 4 4 3 4 0 0 0 1 -1 -1 -2 0 0 1 0 1 1 0 1 1 1 4 1 5 2 2 1
1 1 -1 0 0 -1 -1 -1 -1 1 0 2 0 0 1 0 2 1 0 1 0 1 3 1 3 -2 2 -2 2 0 1 0 1 3
5 3 4 -1 0 0 0 1 1 1 2 -1 3 0 4 1 1 2 1 0 1 0 1 4 6 4 6 0 2 0 2 1 0 2 0 1 1
2 1 4 6 4 6 1 0 1 0 5 5 5 5 4 5 4 4 1 0 1 -1 4 1 4 2 4 3 4 3 3 2 4 2 1 -1 1
0 1 2 2 2 4 1 4 2 1 0 1 -1 1 1 0 1 -1 0 -1 -1 0 1 -1 1 2 0 2 0 1 1 0 2 2 0
1 1 2 -2 3 -2 4 3 4 3 0 2 1 2 -2 -1 -1 -1 0 1 0 1 2 1 3 1 1 2 1 3 0 3 -1 3
2 1 1 0 0 1 0 1 -1 0 -1 -1 0 1 0 2 -1 -2 -1 -1 0 2 0 3 1 1 2 2 3 2 4 2 1 1
2 0 0 1 0 1 -1 0 -1 0 -6 -3 -6 -3 -1 0 0 0 3 3 3 3 -3 0 -3 0 -2 1 -1 2 0 -1
-1 0 0 1 0 1 1 0 1 0 1 -1 1 -1 -1 1 0 2 1 1 1 1 -1 1 -1 2 3 4 2 4 -1 3 -1 3
1 1 2 1 3 0 3 -1 0 1 -1 1 3 1 3 2 0 2 1 3 2 1 2 1 0 2 0 1 -1 0 -1 0 2 2 3 3
0 -1 1 -1 0 0 0 1 -1 2 -1 2 -1 0 -1 0 -2 -2 -1 -1 -3 0 -2 1 1 -1 1 -1 -1 0
-2 -1 -2 1 -3 0 -1 -1 -1 -2 -1 0 -1 0 -2 -2 -1 -1 -2 1 -1 1 -5 -1 -4 -1 -2
-2 -3 -3 0 0 -1 0 -3 -2 -2 -2 0 1 1 1 -1 0 -2 0 0 -1 -1 -1 -2 0 -1 1 1 1 2
2 -1 0 -1 1 -3 -1 -2 -1 0 -1 0 -1 -2 0 -2 0 0 -1 0 -1 -3 -1 -3 -1 0 -2 0 -2
-2 0 -3 1 1 0 0 1 -3 1 -3 1 0 2 1 1 -1 0 -1 -1 0 1 -1 1 -2 0 -2 1 1 -1 1 -2
-1 0 -1 -1 -1 2 -1 1 -3 -1 -4 -2 -3 0 -2 0 1 1 1 1 0 1 -1 0 -3 0 -4 0 -2 -2
-3 -3 -2 0 -2 -1 -1 0 -1 -1 0 1 1 1 -2 -1 -2 -1 0 -2 0 -1 -2 0 -1 0 -2 0 -2
-1 -5 -2 -5 -3 -6 -5 -5 -6 -2 -2 -2 -2 -3 -4 -3 -4 0 -1 0 -1 1 1 1 0 0 0 0
-1 -1 -3 -2 -2 0 -2 0 -2 -1 0 -1 0 1 -1 0 -2 -1 -2 -1 -2 0 -2 0 -2 -1 0 -2
-1 0 0 -1 0 -4 -5 -5 -4 0 -1 0 -1 -2 0 -2 0 -1 -1 -1 -1 0 1 0 1 1 1 1 1 -1
0 -1 0 1 3 0 3 4 6 4 6 0 1 0 1 2 2 2 1 2 3 1 3 -1 1 -1 1 -3 -1 -2 -1 0 -1 0
-1 -3 -3 -4 -4 0 -1 0 -1 -1 0 -2 0 -1 -3 -1 -2 1 1 1 0 -1 -2 -1 -1 1 -4 0
-3 -2 -2 -2 -2 0 -3 -1 -2 -4 -3 -3 -3 1 0 2 0 0 1 1 2 1 -1 0 -1 -1 -1 -1 -2
1 -1 1 0 -2 0 -2 1 1 -2 1 -1 -2 0 -1 1 -1 0 -1 1 -1 0 -2 -1 1 -1 0 -1 -2 1
-2 1 1 1 0 1 -1 0 -1 0 0 -1 -1 -1 -1 1 -2 1 0 -1 0 -1 -1 0 -1 1 -4 -2 -3 -2
-1 -1 -1 -1 0 1 0 1 -2 0 -2 0 -2 1 -1 1 -2 -1 -1 -1 0 1 1 2 -1 -1 -2 -1 -3
1 -3 0 -4 2 -3 2 -5 6 -6 6 -2 0 -2 0 -1 1 0 1 1 0 2 0 3 3 3 3 2 0 2 0 1 2 2
2 0 3 0 2 -4 3 -3 3 -2 0 -2 0 -1 1 0 1 -2 -1 -2 -1 -2 1 -1 0 -6 2 -6 1 -7 1
-7 1 -7 -1 -7 -1 -3 -1 -2 0 0 1 0 1 1 0 2 0 0 1 1 2 4 2 4 1 5 2 6 2 3 3 2 2
1 0 2 0 1 0 1 1 1 0 1 0 -2 1 -1 1 5 -1 5 0 4 1 5 1 1 0 1 1 2 0 2 1 1 1 2 1
0 -1 0 -1 4 2 5 3 4 2 5 3 0 -1 0 -1 4 1 4 0 2 2 3 1 1 3 0 3 0 1 0 1 1 0 1
-1 2 4 2 4 3 3 4 4 1 0 2 0 5 5 5 6 1 2 1 2 -1 1 0 1 1 0 1 0 0 2 0 2 3 5 2 5
1 0 1 0 -1 1 -1 1 2 2 2 2 2 6 2 6 3 6 3 6 2 1 1 2 2 2 2 2 0 1 0 1 2 3 2 2 0
2 0 1 5 5 5 5 0 -4 0 -4 2 0 3 -1 2 0 3 0 5 4 5 4 -1 2 -1 2 0 1 1 0 7 1 8 0
1 1 1 2 3 0 4 0 3 3 3 4 1 0 2 0 4 6 5 6 6 2 7 3 0 3 0 3 4 6 3 5 0 1 0 0 2 4
1 3 2 0 1 0 1 2 1 3 5 4 5 4 1 0 2 0 2 2 3 3 0 1 0 1 4 -1 3 0 0 2 -1 3 2 0 2
1 -2 2 -2 2 1 1 0 1 2 0 2 0 -2 2 -2 1 -1 0 -1 0 -2 -2 -2 -2 -3 -1 -2 0 -2
-2 -2 -2 -4 -1 -3 -2 -2 -1 -2 0 -2 -2 -2 -1 0 1 0 1 1 0 2 1 -2 0 -1 0 -1 -2
0 -1 -4 -4 -3 -4 -2 1 -1 0 -3 -1 -3 -2 1 2 2 2 5 4 6 5 3 4 2 3 0 -1 0 -1 1
2 1 2 0 0 0 1 -2 -1 -1 0 2 2 3 2 5 3 5 4 0 2 0 3 2 1 3 2 -2 0 -1 -1 -1 1 -1
1 1 2 2 2 0 1 -1 0 0 -1z m-109 -95 l2 0 0 -1 0 -1 2 0 2 -1 0 -1 -1 -1 -1 0
-1 1 -1 -1 -1 -1 -3 -4 -2 -4 -4 -7 -4 -7 -3 -6 -3 -7 -1 0 -1 0 0 2 0 2 -1 1
-1 1 0 -2 1 -3 0 -1 1 0 0 -2 0 -2 -2 1 -1 2 0 -3 0 -3 0 -3 -1 -2 0 -3 -1 -2
-3 -6 -2 -5 0 -2 0 -2 -2 1 -1 0 -2 -3 -2 -3 -5 -3 -5 -3 0 -2 0 -1 -2 0 -2
-1 0 -1 0 -2 1 0 1 0 0 1 0 1 2 0 2 0 -3 -2 -2 -2 -1 1 0 0 -4 -2 -4 -1 -3 -2
-2 -2 -2 0 -2 0 -3 -3 -3 -3 0 -2 1 -2 -2 0 -1 0 1 -2 0 -1 -1 0 -1 0 -1 -3 0
-3 -2 -1 -2 0 0 -2 1 -1 -1 1 -2 1 -6 -2 -6 -3 -3 -1 -3 -2 -2 0 -1 0 1 2 0 1
-4 0 -5 0 1 -1 0 -1 3 0 3 1 0 -1 -1 -1 -7 -2 -7 -2 -2 0 -2 0 1 1 0 1 2 0 2
0 0 2 0 1 -1 -1 -2 -1 -1 0 -2 1 -4 -2 -4 -2 -5 -4 -4 -3 0 -2 0 -2 -2 -2 -2
-2 -6 -4 -6 -4 1 1 1 2 -2 1 -1 0 -1 -2 -1 -1 -5 -5 -5 -5 -1 1 0 1 -2 -1 -1
-1 0 0 0 1 -3 -2 -3 -1 0 -2 1 -1 -2 -1 -2 -2 1 -1 1 0 -2 0 -1 1 -2 -1 -2 -1
1 -1 0 -1 1 1 2 0 0 -3 -1 -3 -1 -1 -1 0 0 -1 0 -1 6 5 6 4 2 0 1 0 0 -1 0 -2
-2 -1 -2 0 -3 -4 -2 -3 -3 -2 -3 -1 -1 0 -1 0 -2 -2 -1 -2 -2 0 -1 0 0 -1 0
-1 -1 0 -2 0 0 -1 0 -1 -1 0 -1 0 -4 -3 -3 -3 -3 -3 -3 -2 -4 -4 -3 -3 -7 -7
-6 -7 -1 -3 -1 -2 -1 -3 0 -2 1 0 1 1 0 -1 0 -1 -2 0 -1 -1 0 -2 1 -2 3 -1 3
0 -1 -3 0 -3 2 0 2 0 5 5 5 6 3 1 3 2 1 3 2 2 2 0 1 0 0 1 -1 2 2 1 1 1 0 -1
0 -1 4 2 3 2 2 0 2 0 0 1 1 1 3 1 4 2 5 2 5 3 1 1 1 1 2 0 1 -1 0 1 1 1 3 -1
3 -1 -1 -1 -2 -1 1 -2 0 -1 2 0 1 0 1 -1 0 -1 -2 0 -2 1 -2 -2 -2 -2 -3 0 -3
0 -1 -1 -1 -1 1 0 0 1 2 -2 1 -1 -1 -1 0 -1 -2 1 -2 1 0 -2 0 -1 -1 1 -1 2 0
-2 0 -1 -1 0 -2 1 0 -1 0 -2 1 0 0 -1 2 1 1 1 1 -2 2 -1 0 -1 -1 -1 -1 -1 -1
0 -1 0 -2 0 1 -1 0 -2 2 1 1 0 2 -1 2 -2 2 0 1 0 0 4 0 3 1 1 2 0 2 -2 3 -3 1
0 1 0 0 -1 0 -2 -3 1 -3 0 0 -1 -1 -1 -2 0 -2 0 -2 -1 -1 -1 6 1 7 0 2 1 3 1
3 -1 4 0 1 1 2 2 2 -1 2 0 0 1 -1 1 -1 0 -1 -1 0 1 -1 1 1 0 2 0 1 0 1 1 1 0
0 1 1 0 1 0 -1 -1 0 -1 1 0 1 1 0 -1 1 0 -1 1 0 1 2 1 2 0 0 1 1 1 3 1 3 1 1
-2 1 -2 3 -1 3 -2 0 -2 0 -2 1 0 1 0 0 -8 -1 -7 0 -2 0 -2 1 -1 1 -1 -1 0 -1
-1 0 1 0 1 -1 0 -2 0 -2 2 -2 3 0 1 1 2 -2 1 -2 1 0 -2 0 -1 -2 1 -1 2 -4 1
-3 2 -1 -1 -1 0 1 -1 0 -1 -1 1 -2 0 1 2 0 1 -1 0 -1 -1 -3 0 -3 -1 1 1 0 1
-1 0 0 0 -3 1 -3 0 -2 -1 -2 -2 -4 -1 -4 -1 -2 0 -2 -1 -3 0 -2 -1 0 1 1 1 -1
0 -1 0 0 -1 0 -1 -1 1 -2 1 -1 -1 -1 -1 -2 1 -2 1 -3 -1 -2 -1 0 -1 0 -1 -3 0
-3 0 0 2 1 2 -2 0 -1 0 -1 -1 0 -1 0 -1 0 -1 -1 0 -1 0 -2 0 -1 0 0 1 1 1 -2
-1 -2 0 0 -1 0 -1 -3 0 -3 0 0 1 0 1 -1 0 -1 0 -2 -3 -1 -2 0 -1 1 0 1 1 2 2
1 0 2 1 0 -1 0 0 -1 -2 -1 -2 -1 0 -2 0 -1 -2 -2 -2 -1 1 -2 0 -2 -2 -1 -2 2
1 3 2 0 -1 0 -1 -1 -1 -1 -1 1 0 2 1 0 -2 0 -1 -1 -1 -2 0 0 -2 0 -1 -1 0 -2
0 -1 1 0 1 -1 -1 -1 0 -1 1 -1 1 -2 -1 -1 -2 1 -2 0 -1 1 -2 2 -1 0 -1 0 -2 2
-1 2 -2 -1 0 0 -1 -2 0 -1 0 -3 -3 -3 -3 -1 1 -1 0 0 -1 0 -1 -1 1 -2 0 -1 -1
-1 -1 0 -1 0 -1 -1 0 -1 0 -2 -1 -1 -1 1 -1 0 -1 -1 0 -1 0 -3 -3 -2 -2 -1 0
-1 0 0 -1 0 0 0 -1 -1 0 -3 -3 -3 -3 -1 1 -2 0 0 -1 0 -1 -3 -4 -3 -5 -1 0 -1
0 0 2 0 2 -1 0 -1 -1 0 -3 1 -3 -2 1 -2 0 -1 1 0 2 -2 -2 -2 -1 1 0 1 0 0 0 1
0 0 -1 0 -1 -1 0 -1 0 -2 2 -1 1 0 2 1 3 0 1 0 1 1 0 1 -1 0 2 1 2 -2 0 -2 1
0 2 -1 3 3 2 4 2 3 0 3 -1 1 1 0 1 -1 0 -1 0 1 2 1 1 0 0 -1 0 -1 -2 -2 -1 0
0 -1 1 4 4 4 4 -1 -3 0 -2 2 2 2 2 -1 1 0 1 1 0 2 0 -2 1 -1 1 1 3 2 2 -1 1 0
1 -2 0 -1 -1 0 1 -1 0 2 2 1 3 -3 -3 -3 -3 0 1 0 1 -2 -1 -2 -2 0 -3 0 -3 -2
-2 -2 -2 1 -2 0 -1 -2 0 -1 1 0 -2 0 -1 -4 -2 -3 -2 -2 0 -1 0 0 1 0 1 -8 0
-8 0 0 -2 0 -2 -2 0 -2 0 0 1 0 1 1 0 2 1 -3 0 -2 0 0 1 0 1 -1 0 0 -1 -2 2
-1 2 1 -3 1 -2 -1 -1 -1 -1 0 -1 1 -1 2 0 1 0 0 -1 0 -1 -1 0 0 -1 -2 2 -2 1
0 2 0 1 -1 0 0 -1 -2 2 -2 1 -2 0 -2 0 -4 -2 -5 -3 0 2 -1 1 1 1 0 1 -2 0 -1
0 0 -2 1 -2 -1 1 -2 0 0 -2 -1 -1 -2 -10 -1 -9 0 -3 -1 -3 0 -2 0 -2 -2 0 -1
0 -3 1 -2 2 -4 -2 -3 -1 -1 1 -1 2 1 0 2 1 -3 2 -2 2 -2 0 -1 -1 0 -1 1 -1 -1
0 -2 0 1 -4 0 -3 3 -3 3 -3 0 -2 -1 -1 -3 0 -4 0 -1 -1 -2 -1 -4 0 -3 0 -1 0
-1 0 -4 -2 -4 -2 0 -1 0 0 1 1 1 0 0 0 0 -1 -3 -2 -3 -1 -2 0 -1 0 -2 -2 -2
-3 -1 1 -1 0 0 -1 0 -2 -2 0 -2 0 1 -1 2 -1 -2 -1 -1 -1 -2 1 -2 0 0 -2 0 -2
-2 -1 -1 0 -4 -3 -4 -3 -2 0 -2 1 -1 -2 0 -2 -1 0 -2 1 -2 -3 -3 -2 -1 0 -1 0
0 -1 0 -1 1 0 1 0 1 1 1 1 4 -1 5 0 0 0 1 0 1 0 2 1 0 -2 0 -2 1 -1 2 -2 0 0
1 0 0 2 0 1 1 0 1 0 2 1 2 0 -2 -2 -2 -2 0 -1 0 -1 -1 0 -2 -1 0 1 0 1 -1 0
-2 0 0 2 0 1 -1 0 -1 0 0 -1 0 -1 -1 0 0 1 -2 -2 -1 -1 -1 0 -1 1 0 -3 0 -3 0
-1 -1 0 -1 1 -2 2 -2 -2 -2 -2 1 1 0 2 -2 -1 -1 0 -2 -2 -2 -2 1 2 0 2 -1 -1
-2 0 1 -2 0 -1 -1 0 -1 0 -1 0 -1 0 -2 -2 -2 -2 -2 0 -1 1 0 -1 0 -2 1 -1 1
-1 -1 -1 -1 0 0 1 1 1 -2 0 -1 0 -1 2 -2 1 -4 -2 -4 -2 -2 -2 -1 -1 1 -4 1 -3
-1 -1 -1 0 0 1 1 1 -1 1 -2 0 1 2 0 1 -2 0 -2 0 1 1 0 1 -1 0 -1 0 0 1 1 1 -2
0 -1 0 -2 0 -1 0 1 2 0 2 2 1 2 1 1 3 0 3 1 0 1 0 3 3 2 2 0 1 0 1 2 0 2 0 -1
2 0 3 2 0 2 1 0 3 0 2 1 -1 1 -1 2 1 1 1 -1 2 0 1 2 2 1 2 2 4 2 5 2 1 3 1 1
4 2 4 2 1 2 0 -1 2 0 2 1 1 1 2 1 -2 0 -1 2 0 1 0 0 2 0 1 1 0 1 0 0 3 0 3 1
0 1 0 0 -1 1 -1 0 2 -1 3 1 -1 1 0 0 1 1 1 -1 0 -1 0 0 3 -1 3 3 2 2 2 0 2 -1
1 2 0 3 0 -1 -2 0 -1 -2 -3 -3 -2 -1 1 -1 0 0 -1 0 -1 2 0 1 -1 3 2 2 3 0 2 0
2 1 1 1 1 0 3 1 4 1 2 0 2 1 -1 1 -1 0 1 0 2 2 3 2 3 0 1 1 1 3 8 4 9 1 1 1 1
4 2 4 1 -2 1 -1 0 1 2 0 2 2 1 1 1 -1 0 -1 0 -2 -1 -2 -1 0 -1 0 -1 -2 -2 -2
-2 -1 0 -2 1 1 3 1 3 0 4 -1 4 1 0 1 1 -1 1 0 1 1 0 1 1 0 -2 0 -1 1 1 2 1 1
-1 0 0 -1 1 -1 2 2 0 2 0 1 5 1 4 2 1 2 2 1 2 1 2 0 7 1 7 2 2 2 2 1 0 0 0 0
-2 -1 -1 2 -2 2 -2 -2 -2 -3 -3 0 -1 0 0 1 -2 1 -1 -1 0 -1 0 0 1 0 1 -1 0 -1
0 0 -1 0 -2 2 -1 2 -2 2 0 2 0 -2 1 -1 0 0 1 0 2 3 0 3 -1 1 0 1 -1 2 -1 3 0
5 -1 6 0 2 2 1 1 2 3 1 3 3 4 3 4 0 -1 1 -1 0 2 -1 2 2 2 2 3 0 1 0 1 1 1 2 0
0 3 0 3 -3 7 -3 6 1 2 0 2 2 2 3 2 1 2 1 2 2 -1 1 -1 0 -5 -1 -4 0 -2 -1 -1 1
0 0 1 2 -1 1 0 0 3 0 3 1 2 0 2 2 5 2 5 1 0 2 0 1 1 2 2 5 1 4 1 2 2 2 2 3 2
2 3 0 -2 -1 -1 0 0 1 0 2 2 2 3 0 -2 -1 -1 2 1 3 1 1 2 1 2 1 -2 0 -1 2 1 2 0
-1 1 0 1 -1 -1 -1 0 -1 1 -1 1 -8 -4 -8 -4 -1 1 0 1 4 4 3 4 4 2 3 1 0 1 -1 1
2 0 3 0 1 0 2 0 1 2 0 2 1 0 1 0 5 5 6 5 1 0 1 0 1 2 1 2 -1 0 0 1 2 3 2 2 1
0 1 0 0 -1 0 -2 1 0 1 0 0 2 -1 3 1 1 1 2 0 -2 -1 -2 1 0 1 0 1 1 1 2 0 -3 -1
-2 2 0 2 0 0 1 0 2 1 -3 1 -2 0 0 1 0 4 -5 5 -4 -1 -1 -1 -1 3 -5 2 -5 1 1 1
2 2 -3 2 -2 2 -4 1 -4 1 0 1 0 0 -1 -1 -1 2 0 2 1 1 -2 2 -1 1 0 1 0 0 2 0 1
1 -1 1 0 0 1 -1 2 -5 1 -4 2 -4 5 -4 5 -2 0 -1 0 -1 4 -1 3 1 0 0 0 3 -2 2 -2
0 -1 0 -1 3 -3 3 -3 3 -1 3 -1 4 0 4 0 2 0 3 1 3 0 4 1 0 2 0 2 -2 1 -2 2 0 1
1 2 -1 -1 -2 0 0 2 -1 1 1 1 1 2 -1 1 -2 1 1 1 0 1 -1 0 -1 1 0 1 0 1 2 -1 2
0 -1 -2 -1 -2 3 1 2 0 0 1 0 1 -1 0 -1 1 1 1 0 2 4 -1 3 0 0 -1 0 -1 2 0 1 0
0 2 0 3 1 -2 0 -2 1 0 1 0 0 2 0 1 2 0 2 -1 1 2 1 2 3 -1 2 0 3 2 3 2 1 -1 1
-1 1 0 0 1 -1 2 -2 1 0 0 1 0 2 -1 2 -1 1 1 1 2 0 -2 0 -2 1 0 0 1 3 -1 3 -1
4 3 3 3 3 -1 3 0 4 3 4 4 3 2 3 2 1 3 1 3 2 1 2 1 0 0 1 0 0 -1 -1 -1 1 -1 1
0 0 1 -1 1 2 1 2 2 2 -1 1 0 0 -1 0 0 0 -2 0 -2 1 0 1 0 2 2 3 3 0 1 0 2 1 0
2 0 2 1 2 0 -2 -1 -1 -2 3 0 3 -1 0 1 1 2 0 -2 0 -2 2 1 1 0 0 -1 0 -1 4 0 3
1 0 -1 0 -1 1 0 1 1 -1 2 0 2 2 0 2 0 4 2 4 1 2 3 3 3 1 -1 2 0 -1 2 0 2 5 6
6 5 4 3 5 2 3 0 3 0 1 2 1 3 1 0 0 1 1 2 1 2 2 0 1 0 0 2 0 1 3 0 2 -1 0 1 0
2 0 0 0 1 1 0 2 0 1 4 1 4 2 2 1 2 0 3 -1 4 1 -1 2 0 0 4 0 4 0 3 1 4 0 2 1 3
0 1 0 1 -1 2 -1 2 -3 1 -2 1 0 -1 1 -1 -1 0 -1 -1 0 1 0 1 -1 0 -1 0 -2 -3 -1
-2 1 1 1 1 2 0 2 0 0 -1 0 -2 -2 -2 -2 -2 0 -1 0 -1 -1 0 -1 0 0 3 0 3 -1 -5
-1 -4 -3 -3 -2 -2 0 -1 0 -1 -1 0 -1 0 0 1 1 1 -1 2 -1 2 1 1 1 1 -1 1 0 2 1
2 0 2 1 0 0 1 0 1 0 1 1 0 1 -1 1 3 0 4 3 3 4 3 2 -1 2 -1 4 4 5 5 6 1 7 2 0
1 1 1 3 2 4 1 0 -2 0 -1 2 1z m-171 -21 l0 -2 1 1 0 1 1 0 1 0 0 -1 -1 -1 1 0
1 0 1 -3 2 -3 -2 -2 -2 -2 1 1 0 2 -1 0 -1 0 0 2 1 1 -3 0 -3 -1 -3 -1 -2 -2
-4 -1 -4 -2 0 -1 1 -2 -2 0 -2 0 3 4 3 4 2 1 1 0 0 2 0 3 1 -2 1 -1 2 2 3 3 0
1 0 1 2 0 2 0 -1 -2z m-11 -16 l-2 -1 -1 0 0 1 0 1 1 1 2 0 1 0 -1 -2z m-6 -3
l0 -2 -1 0 -1 0 0 1 -1 0 1 2 1 1 0 0 1 0 0 -2z m168 -8 l0 -1 -1 0 -1 0 0 2
0 1 1 0 1 -1 0 -1z m-30 -8 l-2 -1 1 -3 0 -2 -1 1 -1 0 1 -1 1 -2 -3 -2 -3 -3
-1 1 -1 1 1 2 0 1 -1 0 -1 -1 0 1 1 1 1 -1 2 0 2 5 3 5 1 -1 1 0 -1 -1z m11
-27 l-1 -1 1 1 0 2 1 0 0 -1 -1 -1z m-30 -5 l-2 -3 -2 0 -1 -1 -1 0 0 1 4 3 3
4 1 0 0 -1 -2 -3z m-37 -19 l-1 0 -1 1 -2 2 1 0 0 1 2 -2 1 -1 0 -1z m6 -2
l-1 -1 -2 0 -2 0 -1 0 0 1 1 3 0 3 3 -3 2 -2 0 -1z m219 -2 l0 -1 -1 0 -2 0 0
1 0 2 1 0 0 1 1 -1 1 0 0 -2z m-239 0 l0 -1 -2 0 -1 -1 1 1 1 2 1 0 0 0 0 -1z
m-128 -14 l0 -1 0 -1 0 -1 -2 1 -1 1 -1 0 0 -1 2 -2 2 -3 2 -1 3 0 0 -3 0 -2
-1 0 -2 0 -4 2 -4 2 -5 0 -4 1 -3 -1 -3 -2 -1 2 0 2 0 2 -1 2 2 0 3 0 4 2 4 3
6 0 5 0 -1 -2z m16 -2 l0 -2 2 0 2 1 0 -3 0 -3 -1 0 0 0 -2 1 -2 1 0 1 0 2 -2
-1 -2 0 0 1 0 2 -2 0 -1 1 -2 -1 -1 0 0 -1 0 -1 1 0 1 1 1 -2 0 -1 -1 1 0 1
-1 -1 -1 0 -1 2 -1 2 1 0 1 -1 1 1 2 1 3 0 4 0 1 -2z m-2 -5 l0 -1 -2 1 -1 0
1 -1 2 -1 1 -2 1 -2 -3 2 -3 2 0 1 0 1 1 0 0 1 2 0 1 0 0 -1z m-39 -6 l0 -1
-1 1 -1 0 0 -1 0 0 0 -2 0 -1 -4 -4 -3 -4 -4 -3 -3 -3 -4 -3 -5 -3 -2 0 -2 0
0 1 0 1 2 2 3 2 0 -1 1 0 0 1 0 2 2 0 2 0 3 0 3 1 2 2 1 2 -1 1 -1 1 1 1 1 2
1 -1 2 0 0 2 1 1 -2 -1 -1 -1 0 1 1 2 1 1 0 2 2 0 3 1 1 0 2 0 -1 -1z m168 0
l-1 0 -1 0 -1 1 1 0 2 0 0 -1z m-154 -1 l0 -2 -1 0 -1 0 1 2 0 1 1 0 0 0 0 -1z
m132 -5 l0 -1 -1 1 -1 0 0 1 0 1 1 0 1 0 0 -2z m-2 -1 l0 -1 -2 0 -2 0 1 1 2
1 0 0 1 0 0 -1z m250 -7 l-1 -2 -1 0 -1 0 2 2 1 2 1 0 0 -1 -1 -1z m-118 -3
l0 -1 -1 0 -1 0 0 1 0 1 1 0 1 0 0 -1z m109 -3 l-1 -1 0 1 0 2 1 0 0 -1 0 -1z
m15 -2 l1 -3 -1 1 -1 0 1 -3 0 -4 -2 -4 -2 -4 -2 0 -1 -1 -1 1 -1 1 2 5 2 5 1
0 1 0 0 -1 -1 -1 2 0 1 0 0 3 -1 2 -1 1 -1 1 1 0 1 0 0 1 -1 1 1 1 0 1 0 0 1
0 1 -3z m-443 1 l0 -2 -1 0 -1 0 1 2 0 1 1 0 1 0 -1 -1z m159 -4 l0 -1 -2 0
-1 0 1 1 0 1 1 0 1 0 0 -1z m-19 -1 l0 -1 -2 -1 -1 -2 -1 0 -1 0 0 1 0 1 2 1
3 1 0 0 0 0 0 0z m-174 -6 l-2 -2 0 0 0 -1 2 1 1 1 2 -1 2 0 0 -1 0 -1 -1 0
-2 0 -2 -2 -2 -3 0 -1 1 -1 -1 0 -1 1 0 -2 0 -2 -1 1 -1 0 0 -1 0 -2 1 1 2 0
0 -3 0 -2 -2 -1 -1 0 1 -8 0 -7 1 -4 1 -3 0 -5 0 -4 -1 0 -1 0 -4 -3 -3 -4 -4
0 -3 0 -1 0 -1 0 -2 0 -2 0 -1 2 -1 2 1 1 1 1 1 -1 1 -1 2 1 2 1 0 2 0 1 2 0
2 0 1 2 2 2 0 3 1 3 -3 1 -2 0 1 -1 0 -1 -1 0 -1 1 0 -1 -1 -1 -1 0 -1 0 1 2
0 2 2 2 2 3 -1 0 0 1 1 0 1 0 0 1 -1 1 1 0 2 1 -3 -1 -2 0 0 2 -1 2 1 0 2 -1
0 2 1 2 -1 0 -1 0 1 1 1 2 -1 0 0 1 1 2 1 3 1 0 1 -1 2 4 3 4 0 3 1 3 1 1 1 2
2 0 1 0 -1 -2z m174 0 l0 -1 -1 0 -1 0 1 1 0 1 1 0 0 0 0 -1z m-152 -5 l0 -3
-1 2 -1 2 1 1 0 1 0 0 1 0 0 -3z m-29 0 l0 -1 -1 1 -1 0 0 1 0 1 1 0 1 -1 0
-1z m176 1 l-1 -2 -1 1 0 0 0 1 1 1 2 0 1 0 -2 -1z m-150 -4 l0 -3 -4 1 -4 0
-1 0 -1 0 0 1 1 1 1 -1 2 0 1 2 2 1 0 -1 0 0 1 1 1 1 1 0 0 0 0 -3z m-84 0 l0
-1 -1 0 -1 0 0 1 0 1 1 0 1 0 0 -1z m71 1 l0 -1 -2 0 -1 -1 1 1 0 1 1 0 1 0 0
0z m461 -2 l0 -2 1 0 2 0 1 1 0 1 2 0 1 0 0 -1 0 -1 -2 0 -2 0 -1 -1 -1 -1 -1
1 -2 1 1 2 0 1 1 0 1 0 -1 -1z m-547 -10 l-1 -1 -2 -1 -2 0 2 1 2 2 0 0 1 0 0
-1z m408 -5 l0 -1 -1 0 -1 0 1 2 0 2 -2 -3 -2 -2 0 1 0 1 2 2 1 2 1 -1 1 -1 0
-2z m-324 -7 l-2 -6 -1 0 -1 0 0 3 0 3 1 -2 1 -1 0 3 -1 4 1 -2 0 -1 1 0 1 0
1 2 0 2 1 0 1 0 -3 -5z m317 4 l0 -1 -1 0 -2 -1 0 1 0 1 1 0 0 1 1 0 1 0 0 -1z
m-337 -6 l-1 -2 -1 0 0 1 0 1 1 2 1 0 1 0 -1 -2z m217 -29 l3 0 -1 -2 -1 -1
-1 1 -1 0 0 -1 0 -1 -4 1 -3 1 -1 0 0 1 1 1 2 1 1 0 2 0 3 -1z m-4 -9 l-1 0
-1 0 -1 1 1 0 2 0 0 -1z m185 -3 l-1 -1 -1 0 -1 0 1 1 0 1 1 0 1 0 0 -1z
m-413 -2 l1 -1 -1 1 -1 0 0 1 0 1 0 0 1 0 0 -2z m402 -10 l-1 -1 1 -2 0 -1 -1
-3 -2 -3 -1 0 -2 0 0 3 -1 2 2 3 1 3 3 0 2 0 -1 -1z m-6 -13 l-1 0 0 2 -1 2 1
-2 1 -1 0 -1z m-162 -34 l-1 -1 -1 0 -1 0 1 1 2 1 0 0 0 0 0 -1z m-274 -12
l-1 -1 0 1 1 2 1 2 0 2 1 -2 0 -2 -2 -2z m-3 -8 l-1 -1 -1 -1 0 0 0 2 1 3 0 0
0 0 1 -1 1 0 -1 -2z m-1 -6 l0 -1 -1 0 -1 0 0 1 0 1 0 0 1 0 1 -1z m298 -5 l0
-1 -1 0 0 -1 -1 1 -1 0 1 1 0 1 1 0 1 0 0 -1z m-5 -9 l0 -1 -1 0 -2 0 0 1 -1
1 2 0 2 0 0 -1z m-257 -22 l-2 -1 -2 0 -2 0 3 2 4 1 0 0 1 0 -2 -2z m143 -14
l-1 -2 -1 0 -1 0 1 2 1 1 1 0 1 0 -1 -1z m-172 -2 l0 -2 -1 0 -2 -1 1 2 1 2 1
0 0 0 0 -1z m137 -18 l0 -1 -2 1 -1 1 -1 -1 -1 0 1 -1 2 -1 -3 0 -2 0 -1 1 -1
2 1 0 1 1 2 0 1 -1 0 1 1 1 2 -1 2 0 -1 -2z m-147 -4 l0 -1 -1 1 -1 0 0 1 0 1
1 0 1 -1 0 -1z m164 -11 l0 -2 0 0 -1 0 0 2 -1 1 2 0 1 0 -1 -1z m-216 -13
l-1 -3 -2 -1 -1 0 0 -2 1 -2 -1 -1 -1 -1 -1 0 -1 0 -2 -1 -2 0 -2 -1 -1 0 1 2
0 2 -1 -2 -2 -2 0 -2 0 -1 -3 -1 -3 -1 1 -1 0 -2 -1 0 -1 -1 0 3 0 3 6 5 5 4
1 3 0 2 2 1 1 1 2 -1 3 -2 1 2 2 1 -1 1 -1 1 2 0 2 0 -2 -3z m-25 -12 l-1 -1
0 1 0 1 1 0 0 1 1 -1 0 0 -1 -1z m-1 -6 l0 -1 0 -1 0 -2 -2 0 -2 -1 -1 1 -1 1
0 0 1 1 2 0 2 0 -1 2 0 1 1 0 1 -1 0 0z m110 -12 l0 -1 -1 0 -2 -1 0 1 0 1 2
0 1 0 0 0z m-123 -5 l-1 -1 -1 1 0 0 0 1 1 1 2 -1 1 0 -2 -1z m109 1 l0 0 -2
-2 -3 -1 0 1 1 2 1 0 1 1 1 0 1 0 0 -1z m-7 -2 l0 -1 -1 1 -1 0 -1 -1 0 -2 -2
0 -1 0 2 2 1 2 2 0 1 0 0 -1z m-37 -11 l-1 0 -1 0 -1 1 1 0 2 0 0 -1z"/>
<path d="M703 736 l0 -1 1 0 1 -1 -1 1 0 2 -1 0 0 0 0 -1z"/>
<path d="M699 733 l-1 0 0 -1 0 -1 2 1 2 0 0 1 0 1 -1 0 0 0 -2 -1z"/>
<path d="M693 729 l-2 -2 0 -1 1 0 2 2 2 2 0 1 0 0 0 0 0 0 -3 -2z"/>
<path d="M671 674 l-1 -1 1 0 1 0 0 1 0 1 0 0 -1 0 0 -1z"/>
<path d="M664 660 l-1 -2 2 1 2 1 -1 1 0 1 -1 0 0 0 -1 -2z"/>
<path d="M616 625 l-1 -1 2 0 2 0 0 1 -1 1 -1 0 -1 0 0 -1z"/>
<path d="M564 615 l-1 -1 1 1 2 1 0 1 0 0 0 0 -1 0 -1 -2z"/>
<path d="M448 606 l-2 -2 1 -1 2 0 -1 0 -1 1 2 2 1 1 0 0 -1 1 -1 -2z"/>
<path d="M517 599 l-2 -1 0 -1 0 -1 1 1 2 0 0 2 1 1 0 0 0 0 -2 -1z"/>
<path d="M436 589 l-1 -1 0 0 0 1 -2 -1 -2 -1 1 -1 0 -1 -1 0 -1 0 -2 -3 -2
-3 1 0 2 0 0 2 1 3 2 0 3 1 1 0 1 0 1 1 1 1 0 2 0 1 -1 0 -1 0 -1 -1z"/>
<path d="M529 572 l0 -1 -1 1 -2 0 0 -1 -1 -1 -3 0 -2 0 0 -1 1 -1 3 1 4 0 1
2 1 1 0 1 -1 0 0 -1z"/>
<path d="M513 569 l0 -1 1 0 1 0 0 1 -1 1 -1 0 0 0 0 -1z"/>
<path d="M508 564 l-1 -1 -3 0 -2 0 1 -1 0 -2 -1 -1 -2 -1 0 1 0 2 -2 0 -2 0
0 1 -1 1 -2 0 -2 0 0 1 0 1 -1 -1 -1 -1 0 -1 1 -1 1 1 2 1 0 -1 1 0 0 -2 0 -1
-1 1 -1 0 1 -2 1 -2 4 0 5 0 -1 1 0 1 1 0 2 0 1 1 1 2 2 -1 3 0 1 2 1 3 1 -1
1 0 0 1 -1 1 -3 0 -2 0 -2 -2z"/>
<path d="M379 547 l-1 -1 1 1 1 1 0 1 -1 0 0 -2z"/>
<path d="M382 536 l-1 -1 0 -7 0 -7 1 4 1 4 0 2 1 2 1 1 0 1 -1 -1 -1 0 0 1 1
2 0 0 -1 0 -1 -1z"/>
<path d="M381 518 l-1 -1 1 1 2 1 0 1 0 0 -1 0 -1 0 0 -2z"/>
<path d="M379 514 l0 -2 1 1 1 0 0 2 0 1 -1 0 -1 0 0 -2z"/>
<path d="M378 509 l-1 -3 0 -1 1 0 1 1 1 2 0 2 -1 2 -1 -3z"/>
<path d="M331 508 l0 -1 1 0 0 0 0 1 0 1 -1 0 -1 0 1 -1z"/>
<path d="M377 503 l0 -1 -1 -2 0 -1 2 1 2 2 -1 1 0 1 -1 0 -1 0 0 -1z"/>
<path d="M519 499 l-1 -1 0 -1 1 0 1 0 0 1 0 1 -1 1 0 -1z"/>
<path d="M370 495 l-3 -2 -3 -3 -2 -2 -1 1 -1 0 0 -1 1 -1 -2 -2 -2 -2 -1 0
-1 0 -3 -2 -2 -2 3 1 3 0 4 3 5 3 3 3 3 4 0 -2 -1 -1 1 0 1 -1 1 2 1 3 1 2 2
2 -2 0 -2 0 -3 -3z m3 -1 l-2 -1 1 2 1 2 1 -1 0 0 -1 -2z"/>
<path d="M514 496 l1 -1 1 1 1 1 -2 0 -2 0 1 -1z"/>
<path d="M459 469 l0 -1 1 1 1 0 0 1 0 0 -1 0 -1 0 0 -1z"/>
<path d="M339 467 l0 -1 -1 0 -2 0 0 -1 0 0 -1 -3 0 -2 1 2 2 3 1 -1 1 0 0 2
1 2 -1 0 -1 0 0 -1z"/>
<path d="M451 463 l1 -1 1 -1 1 0 0 1 0 1 -2 0 -1 1 0 -1z"/>
<path d="M426 452 l-1 -1 0 -1 0 -1 3 1 2 1 0 1 0 1 -1 0 -2 0 -1 -1z"/>
<path d="M465 452 l0 -1 1 0 1 0 0 1 -1 1 -1 0 0 0 0 -1z"/>
<path d="M453 445 l1 -1 1 -1 1 0 0 1 -1 1 -1 1 -1 0 0 -1z"/>
<path d="M454 440 l-1 -2 1 0 0 -1 2 1 1 2 0 0 0 1 -1 0 0 0 -2 -1z"/>
<path d="M294 408 l-1 -1 1 1 2 1 0 1 0 0 0 0 -1 0 -1 -2z"/>
<path d="M289 400 l-2 -4 1 0 1 0 1 2 2 2 0 2 0 1 -1 0 -1 0 -1 -3z"/>
<path d="M258 364 l0 -1 1 1 1 0 0 1 0 0 -1 0 -1 0 0 -1z"/>
<path d="M280 355 l0 -1 0 0 1 -1 1 1 2 1 -1 0 -2 1 -1 -1z"/>
<path d="M283 348 l-1 -1 2 0 1 -1 1 0 0 1 -1 1 -1 1 -1 -1z"/>
<path d="M263 339 l-1 -1 1 0 1 0 1 1 0 1 -1 0 -1 0 0 -1z"/>
<path d="M829 843 l-1 -1 1 0 1 0 0 1 0 1 0 0 -1 0 0 -1z"/>
<path d="M851 821 l-2 -2 2 -1 2 -2 0 0 1 0 0 1 0 1 -2 0 -1 0 1 1 2 2 1 -1 1
0 0 1 -1 1 -1 0 0 0 -3 -1z"/>
<path d="M676 762 l0 -1 1 0 1 0 0 1 -1 1 -1 0 -1 0 1 -1z"/>
<path d="M625 691 l-1 -2 1 0 1 0 0 2 0 1 0 0 -1 0 0 -1z"/>
<path d="M606 690 l1 0 -2 -2 -1 -2 2 1 2 1 0 1 0 1 -1 1 -1 0 0 -1z"/>
<path d="M682 654 l-2 -2 0 -1 -1 -1 3 2 2 3 0 0 0 1 -2 -2z"/>
<path d="M678 648 l0 -1 1 0 0 0 0 1 0 1 -1 0 -1 0 1 -1z"/>
<path d="M836 646 l1 -1 1 0 0 1 -2 0 -1 1 1 -1z"/>
<path d="M722 618 l-2 -1 -1 -2 -1 -1 -2 0 -2 0 0 -2 -1 -1 0 -1 0 0 1 0 2 0
3 3 3 3 0 -1 1 0 1 1 0 2 0 0 0 1 -2 -1z"/>
<path d="M874 612 l-1 -2 2 0 3 1 1 1 0 2 -2 -2 -1 -1 0 1 1 2 0 0 -1 0 -2 -2z"/>
<path d="M868 608 l-1 -2 -3 -1 -3 0 0 -2 0 -2 1 1 1 1 3 0 3 0 0 2 0 1 2 1 2
2 -2 0 -2 0 -1 -1z"/>
<path d="M829 563 l-1 -2 2 1 2 2 0 -1 1 0 0 1 0 1 -1 0 -1 0 -2 -2z"/>
<path d="M661 555 l-2 -2 2 0 2 0 0 2 1 1 -1 0 -1 0 -1 -1z"/>
<path d="M646 549 l-1 -1 1 0 1 0 0 1 0 1 0 0 -1 0 0 -1z"/>
<path d="M564 442 l3 -2 0 0 1 0 -1 2 -2 2 -2 0 -1 0 2 -2z"/>
<path d="M558 427 l-1 -1 1 0 1 0 0 1 1 1 -1 0 -1 1 0 -2z"/>
<path d="M565 407 l0 -1 1 0 1 0 0 1 -1 1 -1 0 0 0 0 -1z"/>
<path d="M613 392 l0 -1 1 -1 1 -1 0 2 0 3 -1 0 0 0 -1 -2z"/>
<path d="M629 393 l0 -2 3 -2 2 -1 0 2 -1 3 0 0 0 1 -2 0 -2 0 0 -1z"/>
<path d="M617 390 l-1 -1 1 -2 2 -1 0 2 0 3 0 0 0 0 -2 -1z"/>
<path d="M621 390 l1 0 1 0 0 1 -2 0 -1 0 1 -1z"/>
<path d="M193 314 l-1 0 0 -1 0 -1 1 1 1 1 0 0 -1 1 0 -1z"/>
<path d="M183 300 l-1 0 0 -1 0 -1 1 1 1 1 0 0 -1 1 0 -1z"/>
<path d="M186 299 l-2 -2 1 0 2 0 1 2 0 1 0 0 0 1 -2 -2z"/>
<path d="M179 278 l-1 -2 0 -1 1 0 2 3 2 2 -1 0 -1 0 -2 -2z"/>
<path d="M186 273 l-1 -2 0 -1 0 0 2 2 2 3 0 -2 -1 -2 1 1 1 1 0 1 -1 1 -1 0
-1 0 -1 -2z"/>
<path d="M182 268 l-2 -1 0 -1 1 0 1 1 1 2 2 -1 1 0 0 0 0 1 -1 0 -2 1 -1 -2z"/>
<path d="M242 267 l-1 -1 1 1 2 0 0 1 0 0 -1 0 -1 0 0 -1z"/>
<path d="M237 264 l-1 0 0 -1 0 -1 1 0 1 0 0 2 1 1 -1 0 -1 0 0 -1z"/>
<path d="M174 261 l-1 -1 0 -2 -1 -2 2 1 1 1 1 2 0 2 -1 0 0 0 -1 -1z"/>
<path d="M167 254 l-1 -2 -1 0 -1 0 0 -1 0 -1 3 2 3 2 0 0 -1 1 -1 1 -1 0 0
-2z"/>
<path d="M204 252 l-1 -2 2 1 1 0 -1 1 0 1 0 0 -1 0 0 -1z"/>
<path d="M172 249 l0 -1 1 1 0 1 0 1 -1 0 0 -2z"/>
<path d="M161 247 l-1 -1 -1 -2 0 -1 2 1 2 1 1 2 1 2 -1 0 -2 0 -1 -2z"/>
<path d="M169 246 l-1 -1 1 0 1 0 0 1 0 1 0 0 -1 0 0 -1z"/>
<path d="M204 245 l0 -1 1 1 1 0 0 1 0 0 -1 0 -1 0 0 -1z"/>
<path d="M181 242 l-1 -2 0 -1 0 -1 2 2 2 1 1 2 1 2 -2 0 -2 0 -1 -3z"/>
<path d="M199 242 l-3 -3 2 1 2 1 1 2 2 2 0 0 -1 0 -3 -3z"/>
<path d="M233 243 l1 -1 -1 0 -1 -1 1 -1 1 -2 -1 0 -1 -1 1 0 1 1 1 1 1 2 -1
2 -2 2 0 -2z"/>
<path d="M210 240 l0 -1 2 -1 1 0 1 0 0 1 -2 1 -2 1 0 -1z"/>
<path d="M170 234 l-1 -1 1 1 2 0 0 1 0 0 -1 0 -1 0 0 -1z"/>
<path d="M193 231 l0 -1 1 1 1 0 0 1 0 0 -2 0 -1 0 1 -1z"/>
</g>
</svg>
