<?xml version="1.0" standalone="no"?>
<!DOCTYPE svg PUBLIC "-//W3C//DTD SVG 20010904//EN"
 "http://www.w3.org/TR/2001/REC-SVG-20010904/DTD/svg10.dtd">
<svg version="1.0" xmlns="http://www.w3.org/2000/svg"
 width="256.000000pt" height="256.000000pt" viewBox="0 0 256.000000 256.000000"
 preserveAspectRatio="xMidYMid meet">
<metadata>
Created by potrace 1.16, written by Peter Selinger 2001-2019
</metadata>
<g transform="translate(0.000000,256.000000) scale(0.100000,-0.100000)"
fill="#F98D8D" stroke="none">
<path d="M986 2134 c-4 -16 -6 -76 -5 -134 l3 -105 -32 -16 c-49 -25 -62 -39
-62 -68 0 -32 -45 -58 -116 -68 -34 -4 -44 -10 -44 -24 0 -11 7 -19 15 -19 8
0 15 -5 15 -11 0 -5 19 -18 43 -28 37 -16 54 -17 139 -8 101 11 134 3 122 -28
-3 -8 -1 -21 4 -31 7 -12 1 -40 -19 -97 -16 -44 -26 -84 -23 -88 2 -5 -5 -28
-17 -51 -28 -54 -33 -95 -15 -114 8 -7 19 -37 25 -66 7 -29 18 -59 25 -68 12
-13 18 -38 42 -170 3 -19 8 -70 11 -114 4 -73 3 -78 -14 -71 -24 11 -210 19
-200 9 4 -4 -23 -23 -60 -41 -75 -37 -77 -38 -67 -20 5 8 2 7 -10 -2 -13 -11
-14 -16 -4 -22 7 -5 22 -6 33 -3 11 3 2 -6 -20 -20 -22 -14 -45 -26 -51 -26
-11 0 -54 -42 -54 -52 0 -14 46 -16 77 -3 36 15 41 11 18 -15 -14 -16 -12 -17
36 -12 52 5 122 -11 150 -35 8 -7 32 -13 53 -13 22 0 39 -5 42 -14 3 -8 15
-14 27 -14 32 0 109 -21 125 -34 12 -10 42 -11 177 -6 104 4 124 0 120 -22 -5
-24 -7 -24 37 -1 21 10 34 22 30 26 -4 5 -2 5 4 2 6 -4 31 8 55 25 41 30 43
30 20 5 -14 -15 -21 -30 -18 -34 4 -3 -3 -18 -15 -32 -13 -14 4 -1 37 28 33
30 64 60 68 67 4 8 14 14 22 14 8 0 22 12 31 26 12 18 19 22 25 13 11 -18 22
32 17 76 -4 36 7 49 15 18 3 -12 5 -10 6 7 1 14 10 38 21 55 31 48 0 115 -54
115 -23 0 -24 3 -28 93 -4 62 -12 107 -25 138 -31 68 -148 192 -234 248 -46
29 -95 79 -117 119 -12 21 0 33 13 12 3 -5 11 -10 17 -10 6 0 2 12 -7 28 l-18
27 28 -25 28 -25 -19 34 c-12 21 -35 41 -63 53 -29 14 -40 23 -31 28 9 6 6 12
-12 24 -16 10 -25 25 -24 39 1 12 -4 36 -11 53 -16 41 -7 77 18 71 25 -7 24 5
-1 28 l-21 19 22 12 22 12 -21 11 c-13 7 -19 17 -16 26 4 8 -1 18 -10 21 -13
5 -15 15 -10 55 4 26 3 56 -1 66 -5 10 -20 52 -34 93 -20 59 -30 75 -45 75
-17 0 -24 -15 -41 -87 -20 -80 -30 -108 -38 -97 -1 2 -20 42 -42 89 -50 109
-60 121 -69 84z m309 -1154 c41 0 45 -2 36 -18 -6 -10 -7 -30 -4 -43 8 -31 67
-112 101 -139 l27 -21 -55 7 c-72 10 -97 9 -115 -6 -24 -20 -18 -37 16 -49 25
-9 38 -8 62 4 19 9 55 15 96 14 36 -1 57 -4 46 -6 -11 -3 -27 -10 -35 -17 -26
-19 -168 -12 -229 12 -29 12 -58 20 -63 19 -17 -3 -18 33 -2 123 20 115 31
142 54 130 10 -6 39 -10 65 -10z"/>
<path d="M1815 430 c-3 -5 1 -10 9 -10 9 0 16 5 16 10 0 6 -4 10 -9 10 -6 0
-13 -4 -16 -10z"/>
</g>
</svg>
