<?xml version="1.0" standalone="no"?>
<!DOCTYPE svg PUBLIC "-//W3C//DTD SVG 20010904//EN"
 "http://www.w3.org/TR/2001/REC-SVG-20010904/DTD/svg10.dtd">
<svg style="fill: black; stroke: black;" version="1.0" xmlns="http://www.w3.org/2000/svg"
 width="752.014878pt" height="703.500000pt" viewBox="0 0 752.014878 703.500000"
 preserveAspectRatio="xMidYMid meet">
<metadata>
Created by potrace 1.16, written by Peter Selinger 2001-2019
</metadata>
<g transform="translate(-170.000000,885.500000) scale(1.000000,-1.000000)"
fill="#87CEEB" data-original="#000000" stroke="none">
<path d="M457 882 l2 -4 0 -2 0 -2 -1 -2 0 -1 -3 0 -2 -1 -2 -1 -2 0 -4 -3 -4
-3 -5 -7 -5 -8 0 -3 0 -3 1 -3 1 -2 3 -4 3 -3 1 1 1 0 -1 -1 0 -2 2 -4 3 -3 1
-3 0 -3 -2 -2 -1 -2 1 0 1 1 0 -1 0 -1 -3 -4 -2 -4 -1 1 -1 1 -1 -1 -1 0 0 1
1 1 2 0 1 -1 1 2 1 2 -3 -2 -3 -2 -2 -2 -1 -1 -3 -4 -3 -3 -8 -1 -7 0 -4 -1
-3 0 -5 -5 -5 -5 1 2 1 2 0 1 -1 0 -1 -2 -1 -3 0 -1 0 -1 -2 -2 -2 -1 -1 0 0
1 -3 -2 -3 -1 -3 -1 -3 -1 -3 1 -2 1 0 2 1 2 0 2 1 3 1 1 2 1 1 0 2 0 4 3 4 3
1 4 2 3 0 5 -1 5 -2 4 -2 5 -1 0 -1 0 0 2 0 3 1 1 2 1 2 0 2 1 2 1 2 1 1 2 1
2 0 1 0 1 -2 -2 -2 -2 -3 -1 -2 -1 -2 0 -3 0 -3 -2 -2 -2 0 -11 1 -11 -3 -2
-3 -2 -4 -1 -4 0 -5 -1 -5 -1 0 -1 0 -1 -1 0 -2 0 0 1 0 2 0 0 0 1 -1 0 -1 -1
0 4 0 4 0 2 -1 3 1 1 1 0 0 -1 -1 -1 1 0 1 0 3 1 4 1 1 2 1 1 0 3 0 3 -1 1 -1
0 0 -2 0 -3 -2 -2 -3 -2 0 1 -1 0 -3 -1 -4 -1 0 -2 -1 -1 0 -4 -1 -4 -2 -1 -2
-1 -5 -1 -4 0 2 4 2 4 2 1 2 1 1 2 2 3 0 5 0 5 -1 2 -1 3 -2 5 -2 5 0 4 0 4 3
3 4 3 1 0 2 0 1 1 0 1 -2 0 -2 0 -3 -1 -2 -1 -5 -4 -4 -3 -1 -2 -1 -2 -1 -4 0
-4 2 -6 2 -5 0 -2 0 -1 -3 -3 -3 -3 0 1 0 0 -3 -2 -3 -3 -3 0 -3 0 -4 -1 -5
-1 -4 -4 -5 -4 -1 -3 -2 -3 0 1 0 2 -1 -2 -2 -1 0 -4 0 -3 -1 -3 -1 -2 -1 -1
0 -1 0 -1 0 -1 -7 7 -6 6 1 7 2 6 -1 3 -1 2 -3 2 -3 2 -7 2 -7 1 -1 1 -2 0 0
1 0 2 0 1 -1 2 2 2 2 2 0 1 -1 0 -3 -1 -2 -1 -2 -3 -1 -3 1 -3 1 -3 2 -1 2 -1
5 -2 5 -1 1 1 2 0 1 -1 2 -2 0 -3 0 -3 -2 -3 -2 -4 -1 0 -1 0 1 2 0 2 -1 -2
-1 -1 0 -3 0 -2 -1 1 -2 1 0 3 -1 3 0 0 -1 0 -3 -8 -4 -8 1 -5 1 -4 1 -3 0 -2
-2 1 -1 0 -5 4 -4 4 -3 0 -3 1 -4 0 -4 0 -5 -2 -5 -2 -3 0 -3 0 -2 3 -3 3 0 0
-1 0 0 -2 0 -2 3 -3 2 -4 2 0 2 0 -2 -1 -1 -1 -3 0 -3 0 -2 1 -2 2 -1 4 -1 5
-1 3 0 3 0 3 -1 3 -2 4 -1 3 -3 -1 -3 -1 -1 -1 0 0 2 -4 2 -3 0 -3 0 -2 -2 -4
-2 -4 0 -2 0 -1 1 1 1 2 -1 -4 0 -4 2 -4 1 -3 1 -1 0 -1 -2 1 -1 2 1 -2 1 -2
2 -1 3 -1 7 -4 7 -4 -1 -1 0 -1 3 -3 3 -3 3 0 4 0 5 2 5 3 2 0 2 0 -6 -3 -6
-4 -3 -1 -3 -1 0 -3 -1 -2 1 -5 0 -4 -2 -1 -2 -1 -5 0 -5 0 0 -1 0 -1 -1 0 -2
0 -4 -3 -5 -4 -4 -2 -5 -2 -2 0 -1 0 -4 4 -3 4 0 -2 0 -1 2 -2 2 -2 2 -1 2 -2
4 0 3 0 -2 -2 -1 -2 -3 0 -3 1 0 -1 1 -1 1 0 1 0 1 -1 0 -1 4 0 3 0 5 4 5 5
-1 0 0 1 4 2 3 2 3 -1 4 -1 5 0 5 0 2 1 2 0 -4 -3 -4 -4 -5 1 -5 0 -2 -1 -2
-1 3 0 3 0 3 -1 4 -2 2 0 3 0 6 3 6 4 2 3 2 4 0 5 1 5 1 0 2 1 2 0 3 1 4 4 4
4 1 2 2 3 0 1 0 2 1 0 2 0 1 3 2 4 -1 1 -1 1 1 1 0 2 3 -2 3 -1 -1 -2 0 -2 -4
-6 -4 -6 0 -1 0 -1 -1 0 -1 1 -3 -4 -3 -4 1 0 0 0 3 3 3 4 -2 -4 -2 -4 -3 -4
-4 -3 0 -3 0 -2 2 -3 2 -3 0 -4 0 -4 -1 -4 -1 -4 -3 -11 -2 -10 0 -3 -1 -2 2
5 2 5 1 6 1 6 1 0 1 0 0 2 1 3 -1 -4 0 -3 -4 -15 -4 -14 -1 -5 -1 -4 -2 -1 -1
0 -2 -2 -2 -1 -1 -4 0 -5 2 -3 2 -3 3 -6 3 -6 0 -3 -1 -3 1 -5 1 -4 4 -4 3 -3
3 0 2 0 5 1 4 1 2 -1 2 -2 1 1 2 0 4 3 4 3 1 3 1 3 1 6 0 7 1 4 1 4 1 0 1 1 5
7 6 8 6 5 5 6 2 3 1 4 4 1 5 1 0 -1 0 -1 2 1 2 0 -3 -1 -2 -2 0 -2 -1 -2 3 -5
2 -4 2 -6 3 -6 0 -15 0 -15 -2 -9 -2 -9 -1 -12 0 -12 1 -6 1 -6 -3 -7 -2 -7
-2 -5 -2 -4 -1 -5 0 -5 3 -13 3 -13 7 -13 7 -14 -1 0 0 -1 -2 1 -1 1 -3 -5 -3
-4 -2 -6 -3 -5 -4 -9 -3 -9 -7 -11 -6 -10 -3 -5 -3 -4 -1 1 -2 2 0 0 -1 0 -4
-5 -4 -6 -1 -3 -2 -3 0 -10 1 -9 2 -6 3 -5 1 0 1 0 6 -6 7 -7 4 -7 3 -7 1 -4
2 -4 1 0 1 0 2 -6 3 -6 2 -6 1 -6 0 -3 -1 -2 2 -5 1 -5 7 -6 7 -6 3 -5 2 -5 2
-6 3 -6 6 -8 6 -8 2 -3 2 -3 3 -3 3 -3 1 2 1 2 1 4 1 5 1 10 0 10 1 6 1 6 -1
1 0 1 -5 5 -5 5 -2 0 -1 1 -5 -2 -5 -3 -2 2 -1 1 -2 4 -1 4 3 7 2 6 -1 4 -1 4
-8 8 -8 8 -3 3 -2 4 1 -3 1 -2 3 -3 2 -3 0 0 -1 0 3 -3 3 -3 1 -2 2 -2 1 0 2
-1 -1 -1 -1 0 -1 1 0 1 -2 0 -1 0 -3 3 -4 3 -3 5 -3 6 -3 8 -3 8 -2 0 -1 0 1
1 1 1 -1 2 0 2 -1 0 -1 0 0 1 1 1 -2 7 -2 8 -1 5 -2 5 1 3 0 4 1 -2 1 -2 0 3
0 4 2 1 2 1 1 0 0 -1 11 9 12 8 5 4 6 4 7 6 8 7 -8 -5 -7 -6 -1 0 -1 0 0 0 0
1 9 7 8 8 1 -1 1 -1 7 -1 8 0 -2 1 -2 2 4 -1 4 0 0 -1 0 0 -2 -9 -2 -9 -3 -9
-3 -8 -9 -19 -9 -18 -1 1 -1 1 -1 -3 -2 -3 0 -7 0 -7 2 -5 3 -4 5 -4 5 -4 8
-6 9 -6 6 -6 7 -6 4 -8 5 -8 3 -2 4 -2 6 0 6 0 2 2 2 1 0 1 0 2 3 2 3 3 0 1 0
1 2 1 3 0 1 0 1 0 0 1 -1 1 4 2 4 2 1 0 0 0 0 -1 -1 -1 1 0 2 0 6 2 5 2 3 5 2
6 6 5 6 6 0 1 -1 1 -5 2 -4 2 -8 2 -8 1 -3 0 -3 -1 -1 2 -1 1 -1 0 -2 -1 0 -2
0 -2 -1 0 -2 0 -2 -3 -3 -2 0 -4 -1 -3 -1 -5 -1 -5 -3 0 -2 0 -2 2 -1 2 -2 1
-1 2 -2 0 -1 0 2 -1 2 -1 0 -1 1 -2 -1 0 -1 0 0 2 -1 1 -3 0 -2 0 0 1 1 1 -1
-1 -2 0 -3 2 -3 1 1 1 0 1 -1 0 -1 -1 -3 2 -2 1 -1 2 -1 1 -1 -1 -1 0 0 1 1 1
-5 5 -5 4 -2 0 -1 0 1 1 0 2 -1 0 -1 0 1 3 1 3 -1 3 -2 3 0 1 0 2 7 10 7 10 8
9 8 9 7 8 8 8 6 10 7 10 0 1 1 2 3 -2 3 -2 8 -1 9 0 15 1 16 2 12 2 13 1 7 2
8 2 13 5 14 4 2 1 1 1 1 0 0 -1 -2 -1 -1 -2 -6 -2 -6 -2 -3 -1 -2 -2 -1 -7 0
-7 1 -3 2 -3 3 -13 3 -13 2 -6 2 -6 2 -7 3 -6 0 -7 0 -7 -2 -1 -2 0 0 -2 -1
-1 1 -1 1 -1 -1 -2 0 -1 1 -2 1 -2 -5 -7 -5 -6 -12 -14 -11 -13 -6 -5 -6 -6
-7 -3 -7 -4 -2 -3 -3 -3 -2 -6 -1 -5 -3 -5 -2 -4 -8 -7 -8 -8 0 -1 0 -2 -2 -1
-1 -1 -3 -6 -3 -6 -5 -6 -4 -6 1 -1 1 0 0 -3 1 -2 4 -1 4 -1 4 0 5 1 5 3 5 2
6 1 7 2 2 2 1 1 0 2 0 1 3 1 2 2 0 3 -1 3 -1 3 -2 3 0 4 -1 4 2 4 1 4 1 0 2 0
4 1 5 1 5 0 5 1 2 0 2 1 1 2 0 3 2 5 3 5 1 2 1 3 4 6 4 6 9 11 9 11 6 5 5 5
-1 0 0 1 1 0 2 0 0 1 -1 1 2 0 1 1 9 8 9 8 5 4 5 5 -1 5 0 6 -1 2 -2 2 -2 8
-2 9 -1 1 -1 2 1 5 1 5 1 4 0 4 4 7 5 7 2 4 2 3 0 0 1 0 1 1 1 1 2 -1 3 -2 6
-8 5 -7 2 -3 3 -2 2 -4 2 -3 3 -4 4 -3 2 -4 2 -4 0 -3 -1 -2 1 0 1 -1 -1 -3
-2 -4 -10 -15 -10 -14 -8 -10 -7 -10 -12 -10 -12 -9 -3 -3 -2 -3 1 -2 0 -2 -2
-8 -1 -7 -2 -4 -1 -3 -7 -11 -7 -10 -2 -9 -2 -8 0 -3 0 -3 -2 -5 -1 -4 -1 -4
-1 -3 2 -3 2 -3 1 0 1 0 3 3 3 2 3 2 4 3 6 3 7 4 4 3 4 4 2 4 2 4 -2 5 -1 5
-4 4 -3 3 2 4 1 5 2 2 3 2 4 3 5 2 4 1 5 0 2 2 2 2 1 6 1 6 3 6 2 6 -1 -2 -1
-1 -3 -6 -3 -5 1 3 0 3 4 5 3 6 2 1 1 2 -1 -3 -2 -3 1 0 1 0 2 4 2 3 1 2 1 1
2 3 3 3 3 4 3 3 5 4 6 3 9 9 9 9 13 11 12 12 0 0 1 0 3 3 3 3 3 4 2 3 -1 0 -1
1 1 2 1 3 -2 5 -3 5 -6 3 -5 3 -3 3 -3 3 2 -3 3 -3 5 -4 5 -3 0 -1 0 -1 1 -1
2 -2 1 -2 1 -2 -1 0 -1 0 -7 6 -6 7 -5 5 -5 5 -2 3 -2 4 -4 5 -4 6 -2 6 -1 7
1 4 2 5 -1 1 0 2 3 6 3 6 5 8 4 9 3 5 4 6 1 3 2 4 3 9 2 8 0 10 0 9 1 1 1 1 0
1 0 2 1 1 0 2 0 1 1 0 3 -2 2 -1 2 -2 2 -1 2 -4 1 -3 0 -8 1 -8 -5 -11 -5 -11
-1 -1 -1 -1 -1 -5 -1 -4 -1 -1 0 0 0 -4 -1 -4 -2 -5 -2 -5 -1 -3 0 -2 -1 -7 0
-7 1 -5 1 -5 2 -2 2 -2 -1 -1 0 -1 2 -1 2 0 0 -1 0 -1 3 -3 3 -3 1 0 1 0 2 -2
2 -2 3 0 4 -1 1 -1 2 0 0 1 0 1 -4 1 -4 1 -5 4 -6 3 -1 3 -1 3 -1 4 -1 4 -1 8
0 8 -1 0 -1 0 0 -6 0 -5 -1 5 -2 6 2 2 1 3 1 3 2 4 -1 -4 0 -3 -1 -2 0 -2 1 0
1 0 1 6 1 6 4 9 5 9 0 0 1 0 0 -2 -1 -1 -1 -8 0 -8 1 -5 1 -5 1 -2 1 -1 0 -1
-1 -1 1 0 1 0 3 -6 3 -5 1 0 1 0 2 -4 2 -3 1 -4 0 -3 1 -7 0 -6 2 -8 2 -8 2
-5 3 -5 5 -6 5 -6 4 -2 4 -2 0 1 -1 1 4 -1 4 0 0 -1 1 -1 0 1 0 1 4 0 4 0 5 2
5 3 7 0 6 -1 -1 2 0 2 2 0 2 1 -1 -2 -1 -1 1 0 1 0 6 4 7 4 0 1 1 1 6 2 6 1 2
1 3 0 2 -2 3 -1 1 0 0 0 -1 2 -2 2 3 0 4 1 6 -4 7 -5 3 -2 4 -2 4 0 4 -1 2 2
2 2 0 0 0 1 2 1 2 1 -2 0 -1 0 -2 0 -2 0 0 0 0 1 4 4 4 4 0 2 0 3 -5 -2 -5 -2
-8 2 -8 1 -2 1 -1 2 -3 3 -3 4 1 1 0 1 -5 5 -5 5 -4 0 -3 1 -6 -1 -5 -1 -6 -3
-6 -3 -6 -4 -6 -4 -5 -2 -5 -3 -6 -1 -5 -1 -2 1 -2 1 3 0 4 0 -1 1 0 1 1 0 1
-1 1 1 2 2 3 0 3 1 -2 1 -1 0 0 1 0 1 2 0 1 0 0 1 0 1 3 1 3 2 5 4 5 4 0 1 0
1 4 1 5 2 5 4 6 3 4 0 4 1 3 1 3 0 0 -1 0 -1 0 -1 0 -1 1 1 1 0 4 1 3 1 1 -2
2 -1 6 -5 6 -4 1 0 1 0 0 -1 0 -1 1 0 2 0 -1 -1 0 -1 2 0 1 0 0 1 -1 1 3 -2 3
-1 6 2 7 2 0 1 1 1 2 1 2 1 0 -1 0 -1 2 0 3 1 1 0 1 1 0 1 0 2 4 4 5 4 -1 1 0
0 2 2 2 2 2 3 3 3 1 6 0 6 -1 -3 -2 -3 -2 0 -2 -1 -2 -2 -2 -2 -3 -2 -2 -2 0
-2 0 -1 -1 0 -1 0 -1 -2 0 -3 -1 0 -1 0 0 -1 1 -1 -1 -1 -2 -1 -1 0 -1 0 -1
-1 -1 -1 -3 0 -3 -1 -1 3 -1 3 -4 1 -4 1 -2 2 -2 2 0 -1 0 0 -1 1 -2 2 -9 3
-8 2 -1 -1 0 0 -3 -1 -3 0 6 8 6 7 4 1 3 1 -1 1 -1 1 -4 0 -4 0 -3 -3 -3 -3 0
-2 -1 -1 -3 -3 -4 -2 -5 -1 -4 -2 -6 1 -6 0 -2 0 -1 1 7 3 7 4 1 1 0 1 -1 0
-1 -1 0 1 0 1 2 1 3 1 -2 0 -1 0 0 2 1 1 1 0 2 1 2 2 2 3 0 2 1 2 1 2 0 3 -2
-2 -2 -2 0 -2 0 -2 -1 -3 -2 -3 -1 0 0 0 0 2 1 2 -2 -3 -2 -3 -4 -2 -3 -2 -2
-1 -3 0 0 0 0 1 5 5 5 4 2 4 2 4 2 5 1 5 0 7 0 8 -1 -2 -1 -2 0 -4 0 -3 -2 -5
-1 -4 0 10 1 10 1 3 2 3 1 -1 1 0 1 2 1 2 0 -1 1 0 3 1 3 2 6 0 7 -1 4 -1 5
-2 2 0 2 0 1 1 0 2 0 -1 -1 -1 -4 3 -4 3 -3 1 -3 0 -1 -1 -1 -1 0 1 0 1 -2 0
-1 0 1 -1 0 -1 -1 0 -1 1 -4 0 -5 1 -5 -3 -6 -2 0 -1 0 -1 -4 -5 -3 -6 -2 -9
-2 -8 -2 -4 -1 -3 -4 -1 -3 -2 -1 0 -1 1 -1 -1 0 -1 -2 1 -2 0 -2 2 -1 2 -2
-1 -2 0 1 1 1 1 -3 2 -2 2 -4 3 -3 4 -4 6 -3 6 0 4 -1 3 1 2 1 2 3 10 3 10 2
2 1 3 0 -1 0 -1 -1 -4 -1 -4 1 -3 2 -3 1 1 1 0 0 2 0 1 1 0 1 0 1 -3 2 -3 5
-2 5 -2 1 -2 2 -1 2 -3 1 -3 0 -2 0 -1 1 4 1 5 -1 2 0 3 -2 1 -2 1 1 -2 2 -1
1 -3 0 -3 -2 3 -2 3 -1 0 -1 0 -1 1 -2 2 -3 1 -3 2 -1 2 -2 2 0 -1 -1 0 0 1 1
2 0 6 1 6 1 2 1 3 0 9 0 10 -2 5 -2 6 0 1 0 0 1 0 2 0 5 -6 5 -5 5 -2 4 -2 0
0 1 0 -1 2 0 2 1 0 2 0 0 1 0 1 1 0 0 -1 2 1 1 2 -1 0 0 1 -3 -1 -3 0 -4 -1
-3 0 -5 5 -4 4 -3 4 -2 4 -3 3 -3 3 -1 0 -1 0 1 -1 0 -1 -1 0 -1 1 0 1 1 1 -2
2 -2 2 1 -2 1 -2 0 -1 -1 0 0 1 0 1 -3 0 -2 1 0 1 1 1 -4 1 -4 1 1 1 1 1 2 -1
2 -1 1 0 0 0 -1 1 -1 1 -3 0 -3 1 -10 2 -10 3 -1 -1 -1 0 0 1 -1 1 2 1 2 2 6
0 6 0 2 -1 3 -1 5 -4 6 -3 2 -2 2 -2 1 -1 2 -1 2 -2 2 -2 -1 2 -1 2 -1 0 -1 0
-4 5 -4 4 -5 3 -4 2 0 1 1 0 10 -3 10 -3 2 -1 2 0 -3 2 -2 2 -4 2 -4 2 -4 1
-4 1 -3 0 -4 0 0 2 0 1 -2 0 -1 0 -3 0 -2 0 0 1 0 1 -4 0 -3 -1 -8 -2 -7 -2 1
-1 0 -1 -1 1 -2 0 -11 -11 -11 -12 -3 -1 -2 -2 0 -2 0 -2 -3 -1 -2 -1 -10 -1
-10 0 -4 3 -3 4 -20 10 -20 10 -7 2 -6 2 -13 -1 -12 -1 -10 -3 -11 -4 -8 -4
-7 -3 -5 -2 -4 -1 -6 -2 -6 -2 -11 -2 -10 -2 -11 0 -11 0 -5 1 -5 1 -3 1 -3 2
-9 4 -9 4 1 1 0 2 5 -1 5 0 7 -1 8 -2 2 0 2 0 -1 1 0 2 2 1 3 1 5 1 5 1 4 2 4
2 2 3 2 4 -2 -3 -2 -2 0 1 -1 2 0 -2 0 -1 -2 0 -3 0 0 -1 0 -1 -2 -1 -3 0 0
-2 -1 -1 -4 0 -4 0 0 1 0 1 -1 0 0 -1 -2 1 -1 1 -2 0 -1 -1 0 1 1 0 -5 3 -5 2
-2 0 -1 0 -2 3 -2 2 2 0 2 0 2 0 2 0 5 0 5 -1 1 1 0 1 2 0 1 0 3 2 2 3 2 1 2
2 2 1 3 1 2 3 1 4 3 2 4 3 -2 0 -1 0 5 5 5 4 4 5 5 4 2 4 2 5 0 4 1 4 -1 0 -1
0 -1 -3 -2 -3 0 -3 0 -3 -1 1 -1 0 0 -1 0 -1 -2 -2 -2 -3 -5 -1 -5 -2 -3 -3
-3 -3 -9 -3 -9 -3 -6 -1 -5 0 -4 2 -4 2 -6 2 -5 2 -1 2 -1 2 10 0 10 0 0 -1 0
-1 6 5 5 6 0 1 0 2 2 4 2 5 3 3 3 3 6 3 5 2 6 0 6 0 -1 1 -1 2 3 0 3 0 4 2 4
1 4 2 5 1 8 7 7 8 -1 1 -1 2 1 0 0 1 -1 0 -1 0 -1 -1 -1 -1 1 1 1 2 0 6 -1 6
0 2 -1 2 0 3 0 3 -1 -2 -1 -2 0 2 0 2 2 1 1 2 0 1 0 2 -1 -2 -1 -1 0 1 0 1 3
2 3 3 3 2 3 2 0 -1 1 0 0 1 0 1 5 -1 4 0 3 1 2 1 -1 1 0 1 2 1 3 2 1 4 2 4 2
2 1 3 0 2 -1 2 1 2 1 2 0 1 -1 0 -2 -4 -2 -5 -1 0 -1 -1 0 -1 1 -1 -5 -2 -4
-2 -4 0 -4 0 -5 0 -4 0 -3 0 -2 -1 -4 -2 -3 -2 -3 -2 -2 -3 1 0 1 0 -2 -1 -2
-1 -1 -4 -2 -4 0 -6 0 -6 0 -5 1 -5 -1 -2 -1 -1 -4 2 -4 3 -5 1 -6 1 -3 0 -2
-1 -3 -1 -2 0 1 1 1 1 -1 1 -1 2 2 3 2 3 0 2 1 2 2 2 2 2 2 1 2 1 4 -1 4 -1 1
1 1 0 0 -1 1 -1 1 0 1 0 0 1 0 1 -6 4 -5 5 -4 1 -3 0 -4 -1 -4 -1 0 -2 -1 -1
-2 -3 -1 -3 0 -3 -1 -3 -1 -2 -1 -2 -2 -1 -2 -1 -3 0 -3 1 -5 4 -6 3 0 1 0 0
4 -2 3 -1 2 -1 1 -1 0 1 -1 1 -4 2 -4 2 -3 0 -3 0 0 -1 1 -1 -3 1 -4 0 -6 -2
-5 -2 -1 1 -1 0 1 2 1 2 0 7 1 7 -1 0 -1 1 1 1 1 1 2 5 2 5 3 0 4 1 -3 0 -3 0
-3 -1 -2 -1 -1 0 -1 0 0 -1 1 -1 -2 -2 -2 -1 -1 -4 -1 -3 0 -5 0 -5 -1 -1 -2
-1 0 -2 0 -1 -4 -2 -4 -2 -5 0 -4 0 -4 0 -3 0 1 1 0 1 -1 0 -1 0 0 -1 -1 -1
-3 1 -3 0 1 1 0 1 -2 0 -1 1 9 4 9 4 0 0 1 0 0 1 -1 1 2 2 2 2 0 -2 -1 -1 2 2
3 2 0 1 -1 0 -1 -1 -2 -1 0 0 0 1 2 3 2 3 1 8 0 7 -1 0 -1 0 0 1 0 1 1 0 1 0
0 1 1 2 3 1 4 2 -2 0 -2 -1 -2 -1 -2 0 2 2 3 2 3 1 3 1 4 -1 4 -1 1 -1 1 -1 1
0 1 1 -1 -2 0 -1 -2 0 -2 1 -3 0 -2 1 1 -1 2 0 4 -2 4 -2 3 -3 2 -2 5 -2 4 -2
0 -1 0 0 -5 0 -5 1 1 -1 1 -1 8 0 8 1 1 1 1 1 2 0 2 1 2 2 2 1 1 3 2 3 -1 4
-1 4 0 -3 0 -2 -3 -3 -3 -3 -1 0 -2 0 0 1 0 2 0 0 0 1 0 3 1 4 -1 -3 -1 -2 -2
0 -2 0 -3 -2 -3 -2 -3 1 -2 1 -6 4 -5 4 -1 1 -1 1 -3 1 -2 2 -8 0 -7 1 -2 -2
-3 -1 -1 1 0 0 0 -1 0 0 -3 -4 -4 -4 -1 -5 -2 -4 -1 -5 -1 -4 -2 -1 -2 -1 0 0
-1 0 1 2 0 2 -1 0 -1 0 0 -1 -1 -1 0 1 0 1 2 2 2 3 -1 -2 0 -2 1 1 1 1 -1 2 0
1 1 0 2 1 -1 2 0 3 2 4 1 4 0 1 0 0 -1 0 -2 0 0 1 -1 2 1 -3 0 -2 -1 -4 -1 -5
-1 0 -1 0 0 -1 0 -2 -4 -3 -3 -3 -1 1 -1 1 0 -1 -1 -1 -5 0 -6 0 0 1 -1 0 -4
0 -4 0 3 2 3 1 0 1 -1 0 3 3 2 3 0 2 0 1 0 1 1 1 1 2 1 2 -1 -1 -1 0 4 4 4 5
0 0 1 0 3 1 4 2 1 0 2 0 2 3 3 3 1 2 2 3 6 2 6 2 -1 1 -2 1 1 1 2 2 2 4 2 4 0
1 0 2 2 2 2 3 1 -3 1 -3 -3 -5 -2 -4 0 -1 1 0 2 4 2 3 0 3 0 4 -1 2 0 3 2 -2
1 -1 -4 5 -3 6 -3 2 -2 3 0 0 1 1 -2 1 -2 2 0 2 1 2 -1 1 -1 0 1 4 2 5 0 3 -1
4 1 1 2 2 2 1 2 1 0 1 -1 1 1 0 1 1 0 -1 0 -1 1 0 1 0 4 4 4 4 0 3 0 4 -3 3
-3 4 2 -4z m-3 -15 l0 -1 -1 0 -1 -1 0 1 0 1 1 0 1 0 0 0z m-12 -14 l-1 -1 0
3 0 4 1 -2 0 -2 0 -2z m-4 -19 l1 -2 -1 0 -1 1 -1 2 -1 2 1 0 1 -1 1 -2z
m-107 -11 l0 -1 -1 1 -1 2 0 1 0 1 1 -2 1 -1 0 -1z m123 -3 l0 -1 -1 0 -1 0 0
1 -1 2 2 -1 1 0 0 -1z m-143 -18 l-2 -1 -6 -6 -6 -5 1 2 0 2 3 3 4 4 2 0 2 1
2 1 2 1 0 0 1 0 -3 -2z m34 -8 l0 -2 -1 0 -1 0 0 -1 0 -2 -2 -1 -2 -1 3 4 3 5
0 0 1 0 -1 -2z m-37 -18 l2 -4 0 0 -1 -1 -3 6 -4 6 1 -2 2 -1 3 -4z m196 -20
l0 -1 -2 -2 -2 -1 1 2 2 2 1 0 0 0 0 0z m-108 -7 l-1 -2 2 0 2 -1 -3 0 -3 0
-6 -3 -5 -3 -3 0 -2 -1 4 2 4 3 3 1 3 2 1 0 1 0 2 2 1 1 1 0 0 0 -1 -1z m174
-11 l-4 -1 -2 -1 -2 -1 0 0 0 1 3 1 3 2 3 0 4 0 -5 -1z m-16 -5 l0 -1 -2 -1
-2 -2 0 0 0 1 2 1 1 2 1 0 0 0 0 0z m-303 -29 l2 -4 0 0 -1 0 -2 5 -3 4 0 2 0
3 1 -3 1 -2 2 -5z m240 8 l0 1 1 0 0 -1 -1 -1 0 -2 -2 0 -2 0 -3 2 -3 1 4 0 4
-1 0 1 0 2 1 -2 1 -1 0 1z m5 -3 l-1 0 -1 0 -1 1 0 1 0 1 2 -1 1 -1 0 -1z
m-272 0 l0 -1 -1 0 -1 0 1 1 0 1 1 0 0 0 0 -1z m337 -4 l1 0 0 -5 -1 -6 -1 -1
-1 -2 -3 0 -3 0 3 4 3 5 0 3 -1 3 1 1 1 0 0 -1 0 -2 1 1z m-223 -13 l0 -9 -2
-4 -2 -3 -1 0 -1 0 2 6 2 7 0 7 -1 8 1 -1 1 -1 1 -10z m187 5 l0 -1 2 0 3 1 0
-2 0 -1 -2 1 -2 1 0 -1 -1 0 -2 0 -3 -1 -1 1 0 1 1 0 1 -1 0 2 1 2 1 0 2 0 0
-2z m-273 -7 l-1 -1 0 1 0 2 1 0 0 -1 0 -1z m263 0 l0 -1 -2 0 -2 0 2 1 2 1 0
0 0 0 0 -1z m15 -1 l10 -2 2 0 2 0 1 -1 2 -2 -2 0 -1 0 -4 0 -3 0 -8 2 -8 2
-2 0 -1 1 -1 0 -1 0 0 1 0 1 2 0 3 0 9 -2z m-19 -1 l2 0 -2 -2 -2 -2 -4 -1 -3
-1 -1 -1 -1 -1 2 0 2 0 0 1 1 1 6 1 6 1 4 0 4 -1 2 -1 2 -1 2 0 2 1 -6 2 -6 2
-2 0 -2 1 4 -1 4 0 8 -2 7 -3 3 0 3 0 -3 -1 -3 -1 4 0 4 1 1 1 1 1 1 0 2 0 3
1 3 0 -3 -2 -2 -2 -6 -3 -5 -2 -1 0 -1 -1 -5 -1 -4 -2 -11 -1 -10 -2 -2 -1 -1
-2 -3 -1 -3 -1 -2 -4 -2 -3 -2 -4 -2 -3 -1 -4 -2 -3 -2 -1 -2 -2 -6 -1 -5 -1
-1 0 0 1 7 3 7 4 3 4 2 4 0 1 -1 0 -1 -1 0 -2 -6 -3 -5 -3 -5 0 -5 -1 -8 5 -7
4 3 -1 3 0 -1 1 -1 2 -1 -1 -1 0 0 1 0 1 3 0 3 0 3 0 4 1 2 2 2 1 3 4 3 4 3 2
3 2 0 1 1 1 -1 1 -1 2 2 3 3 3 6 3 7 2 2 1 3 1 0 -1 0 -1 2 1z m4 -1 l0 -1 -1
0 -1 0 0 1 0 1 0 0 1 0 1 -1z m-28 -14 l0 -1 -1 0 -1 0 1 1 0 1 1 0 0 0 0 -1z
m-34 -14 l0 0 -3 0 -3 0 0 1 0 1 3 -1 3 0 0 -1z m-144 -4 l0 -1 -2 -2 -1 -1 1
2 1 3 1 0 0 0 0 -1z m142 -1 l-2 -1 -2 1 -2 0 1 1 2 1 3 -1 2 0 -2 -1z m-129
-6 l2 -3 0 0 -1 0 -1 3 -2 3 0 1 0 0 0 0 1 0 1 -4z m4 -8 l0 -1 -1 2 -1 2 0 1
0 1 1 -2 1 -1 0 -2z m82 -10 l-1 -1 0 1 0 2 1 0 0 -1 0 -1z m163 -52 l0 -1 -2
0 -1 -1 1 1 0 1 1 0 1 0 0 0z m128 -18 l-2 0 -2 0 -1 1 3 0 4 0 -2 -1z m121
-11 l-1 -1 -1 0 -2 0 0 1 -1 1 3 0 2 0 0 -1z m-494 -9 l-1 -2 0 -3 -1 -2 -3
-8 -4 -7 0 2 0 2 3 7 3 7 0 1 0 1 1 2 1 3 1 0 0 0 0 -3z m380 -12 l0 -1 -1 1
-1 0 0 1 0 1 1 0 1 -1 0 -1z m2 -5 l0 -1 -1 0 -1 0 0 2 0 3 1 -2 1 -1 0 -1z
m-391 -8 l-1 -1 0 1 0 2 1 0 0 -1 0 -1z m411 -12 l0 -5 -1 6 -1 7 0 3 -1 4 2
-5 2 -4 -1 -6z m72 2 l-1 -1 0 1 0 2 1 0 0 -1 0 -1z m-446 -9 l2 -4 0 -1 0 -1
-1 1 -1 0 0 -2 1 -2 -1 -4 -1 -3 -2 8 -2 8 0 3 -1 4 2 -1 3 -1 1 -5z m248 -5
l-1 -2 -3 -8 -3 -7 -1 0 -1 0 0 -1 0 -1 -1 0 0 1 3 8 2 9 1 -2 0 -1 -1 -2 -1
-2 0 -1 0 -1 2 4 2 5 1 2 1 1 1 0 0 0 -1 -2z m180 -13 l1 -1 -1 1 -1 0 0 1 0
1 0 0 1 0 0 -2z m-60 -7 l-4 -7 -1 -3 -2 -3 0 1 0 2 3 5 2 5 2 4 2 3 1 0 0 0
-3 -7z m63 3 l1 -2 0 0 -1 0 -1 2 -1 2 0 0 1 0 1 -2z m-4 0 l-1 0 3 -3 3 -3 0
-1 -1 -1 7 -7 8 -8 5 -1 5 -2 6 0 6 1 0 -1 0 0 -4 -2 -4 -2 -3 0 -3 0 -6 3 -6
3 -2 1 -2 2 -2 3 -3 4 1 0 2 0 -2 2 -2 1 0 0 1 0 -3 3 -3 4 0 1 1 1 -1 0 -1
-1 0 1 -1 1 1 1 0 1 1 0 0 0 0 -1z m-66 -9 l0 -1 -1 0 0 1 0 1 1 1 1 0 0 0 -1
-2z m62 -12 l3 -5 5 -7 6 -7 4 -2 5 -2 1 -1 0 -1 -2 0 -2 0 -3 1 -3 1 0 1 0 1
-2 0 -1 0 -5 4 -5 4 -2 3 -1 3 -1 5 0 6 -1 1 0 1 1 0 1 0 2 -6z m-63 1 l-1 -1
0 0 0 1 1 1 0 2 1 0 0 -1 -1 -2z m-126 -10 l0 -1 -4 -1 -3 -2 -1 -1 -1 0 1 1
1 1 3 2 4 2 0 0 0 0 0 -1z m-139 -12 l-3 -6 -1 -3 -1 -2 -1 0 -1 0 1 2 2 2 0
2 0 1 3 6 2 5 1 0 0 -1 -2 -6z m-58 -3 l-2 -6 1 4 0 5 1 3 1 2 1 0 0 -1 -2 -7z
m176 5 l0 -1 -3 -1 -2 -1 1 1 2 2 1 0 1 0 0 0z m251 -1 l0 -1 -3 1 -4 0 0 1 0
0 4 0 3 0 0 -1z m-368 -3 l-1 -2 -1 0 0 0 1 2 1 2 1 0 0 0 -1 -2z m414 -12 l2
0 1 -1 1 0 2 -1 2 -2 5 -3 6 -3 2 0 1 0 -1 -1 -1 -1 -5 0 -6 0 -2 2 -3 3 -2 0
-2 0 -1 1 0 2 1 -2 1 -1 0 0 1 1 -5 4 -5 4 1 0 0 1 3 -1 3 -1 1 -1z m-422 -4
l0 -1 -3 -4 -2 -4 -1 0 0 1 2 3 1 4 -1 0 0 0 1 1 0 1 2 0 1 0 0 -1z m440 0 l0
-1 0 0 -1 0 0 1 -1 1 1 0 1 0 0 -1z m-121 -22 l2 -3 -1 0 -1 0 -3 1 -3 1 0 -1
0 -1 1 0 2 0 3 -2 3 -1 3 -1 2 0 1 0 2 0 0 -1 1 -1 4 -1 4 -2 2 0 3 0 1 0 1 0
2 0 3 0 4 2 4 2 0 1 0 1 1 0 1 -1 0 1 0 1 2 0 2 0 1 1 1 2 6 4 6 4 2 1 3 1 0
-1 0 -1 1 0 1 1 3 -1 4 0 -1 -1 0 -1 -2 0 -2 0 -3 -2 -3 -1 -4 -3 -4 -3 0 1
-1 0 -4 -4 -5 -5 -1 -3 -2 -3 -5 -3 -5 -3 -3 0 -3 -1 -2 -1 -1 -1 0 1 0 1 -4
0 -4 1 -3 1 -3 1 -1 0 -1 0 -3 4 -4 3 -1 0 0 0 4 -4 4 -4 1 1 1 0 1 -1 0 -2 6
-1 5 -2 3 0 2 1 0 -1 0 -1 -1 0 -2 0 0 -1 0 -1 2 0 2 0 -3 -1 -3 -1 -3 0 -2 0
1 1 0 2 -1 -2 -2 -1 0 1 1 1 -3 0 -4 -1 1 1 0 1 -1 0 -1 0 -5 4 -4 5 -4 8 -4
8 0 4 -1 3 1 -1 2 -1 1 1 0 1 -1 0 -1 -1 -1 3 -1 2 -1 6 0 6 4 -7 5 -7 3 -3z
m28 -2 l-1 -1 -1 0 -1 0 1 1 2 1 0 0 0 0 0 -1z m-5 -2 l-1 0 -1 0 -1 1 1 0 2
0 0 -1z m10 -6 l0 -1 -1 0 -1 0 1 1 0 1 1 0 0 0 0 -1z m14 -17 l0 -1 -2 -1 -2
0 -2 -2 -1 -1 -2 0 -1 1 2 1 2 2 3 1 3 1 0 0 0 0 0 -1z m-48 -5 l1 -1 -1 1 -2
0 0 1 0 0 1 0 1 0 0 -1z m-438 -36 l0 -1 -1 1 -1 2 0 0 0 1 1 0 1 -1 0 -2z m6
-12 l3 -6 2 -3 2 -2 -1 0 -1 0 -2 4 -3 4 -2 5 -3 5 0 0 1 0 4 -7z m257 -1 l0
-1 -3 -3 -3 -2 2 3 3 3 1 0 0 0 0 0z m-176 -8 l3 -1 1 -1 1 -1 -1 -1 0 -1 -4
3 -4 3 -2 0 -1 0 -1 1 0 1 2 -1 3 0 3 -2z m166 0 l-2 -1 -2 -1 -2 -2 1 0 1 0
4 3 3 2 -6 -7 -6 -6 -2 -3 -2 -3 -7 -7 -6 -6 -1 -3 -2 -2 1 1 0 1 0 0 -1 0 -2
-3 -1 -2 1 1 2 2 -2 -4 -2 -4 -1 1 -1 0 -2 -5 -3 -5 0 -2 1 -1 -1 1 -1 0 0 -2
0 -2 -1 -2 -1 -2 -1 -1 -1 -1 -3 1 -3 0 -4 -1 -4 -2 -1 0 -1 0 2 2 2 1 6 1 7
1 1 1 1 1 0 1 0 1 -1 0 -2 0 1 3 0 4 2 3 2 4 -2 -3 -1 -2 -2 -2 -1 -1 1 2 0 2
1 3 0 3 -1 -3 -2 -3 0 2 0 2 2 3 2 3 0 -1 0 -1 4 6 5 6 4 4 5 4 10 9 10 9 3 2
3 2 0 0 1 0 -2 -2z m-227 -15 l-1 -1 0 2 0 3 1 -2 0 -1 0 -1z m274 -32 l-1 -1
0 2 0 3 1 -2 0 -1 0 -1z m-82 0 l0 -1 -1 0 0 1 0 1 1 1 1 0 0 0 -1 -2z m-2 -4
l-1 -2 -1 0 0 0 1 2 1 2 1 0 0 0 -1 -2z"/>
<path d="M522 697 l0 -1 1 0 1 0 0 1 -1 1 -1 0 0 0 0 -1z"/>
<path d="M490 673 l-4 -4 -1 -4 -2 -4 -3 -3 -2 -2 -1 1 -1 0 0 0 1 -1 -1 -2
-1 -1 -1 0 -1 0 1 1 0 1 -1 0 -1 0 0 -1 -1 -1 2 0 1 -1 5 4 5 4 1 4 2 4 4 4 4
5 0 0 0 0 -5 -4z"/>
<path d="M464 652 l-1 -1 2 1 2 0 0 1 0 0 -1 0 -2 0 0 -1z"/>
<path d="M353 489 l0 -3 1 -1 0 0 0 2 0 2 -1 1 -1 2 1 -3z"/>
<path d="M783 469 l0 -1 1 0 1 -1 -1 1 0 2 -1 0 0 0 0 -1z"/>
<path d="M752 387 l1 -2 1 0 0 0 -1 2 -1 2 -1 0 0 0 1 -2z"/>
<path d="M756 380 l1 -2 1 -1 1 0 0 0 0 1 -2 2 -2 3 1 -3z"/>
<path d="M563 291 l-5 -6 -5 -6 -5 -5 6 6 6 6 5 6 6 6 -1 0 -1 0 -6 -7z"/>
<path d="M422 797 l-3 -2 2 1 2 0 2 2 1 2 -1 0 0 0 -3 -3z"/>
<path d="M436 776 l-2 -1 0 0 0 -1 2 1 2 0 1 1 0 1 0 0 0 0 -3 -1z"/>
<path d="M428 721 l-2 -2 1 0 1 0 2 1 2 2 -1 0 0 0 -3 -1z"/>
<path d="M583 691 l2 -2 0 0 1 0 -2 1 -1 2 -1 0 -1 0 2 -1z"/>
<path d="M240 654 l0 -1 1 1 0 1 0 1 -1 0 0 -2z"/>
<path d="M530 623 l-1 -1 1 0 1 0 1 1 2 1 -1 0 -1 0 -2 -1z"/>
<path d="M525 621 l-1 -2 1 0 1 0 1 2 1 1 -1 0 -1 0 -1 -1z"/>
<path d="M504 599 l-5 -1 -1 -1 0 0 5 0 6 1 1 1 0 0 0 0 0 1 -6 -1z"/>
<path d="M502 586 l2 0 1 0 2 1 -3 0 -3 0 1 -1z"/>
<path d="M828 554 l-1 -1 1 0 1 0 0 1 0 1 0 0 -1 0 0 -1z"/>
<path d="M847 504 l-5 -2 1 0 1 0 4 2 4 1 0 1 0 1 0 0 0 0 -5 -3z"/>
<path d="M815 483 l-1 -2 0 0 0 -1 1 0 1 1 0 2 1 2 -1 0 0 0 -1 -2z"/>
<path d="M819 404 l-1 -1 1 1 2 0 0 1 0 0 -1 0 -1 0 0 -1z"/>
<path d="M881 401 l0 -1 2 0 2 0 0 0 0 1 -1 0 -2 1 -1 -1z"/>
<path d="M811 400 l-1 -1 1 0 1 0 1 1 0 1 0 0 0 0 -2 -1z"/>
<path d="M802 395 l-1 -1 1 0 1 0 1 1 0 1 0 0 0 0 -2 -1z"/>
<path d="M771 352 l1 0 1 0 0 1 -2 0 -1 0 1 -1z"/>
<path d="M701 223 l0 -1 0 -4 0 -4 -2 -3 -1 -3 1 1 2 2 1 3 1 3 -1 3 -1 4 0
-1z"/>
<path d="M710 218 l-1 -4 0 -2 0 -2 1 2 1 3 2 0 1 0 -1 -2 0 -3 1 0 1 -1 3 2
2 1 0 -1 -1 -2 2 1 2 1 0 2 1 2 -1 1 -1 1 -2 -3 -3 -2 0 1 -1 1 1 2 0 3 -1 0
0 0 -2 -2 -2 -1 0 3 1 3 -1 0 -1 0 -1 -4z"/>
<path d="M707 214 l-1 -4 -1 -1 -1 0 1 4 0 3 -1 0 -1 -1 0 -4 0 -4 1 1 2 0 1
4 1 3 0 1 -1 2 0 -4z"/>
<path d="M727 213 l-2 -1 0 1 1 1 -1 0 -1 0 0 -1 0 -2 2 0 2 0 1 2 2 1 0 -1 0
-1 2 0 2 0 0 -1 0 -1 1 2 2 3 -1 0 0 0 -2 -1 -2 -1 0 1 0 1 -2 0 -1 0 -3 -2z"/>
<path d="M696 211 l0 -3 1 1 0 2 0 1 -1 2 0 -3z"/>
<path d="M702 203 l0 -2 2 -1 1 0 5 1 6 1 8 1 9 1 0 1 -1 0 -11 -2 -11 -1 -4
-1 -3 0 0 2 -1 3 0 -3z"/>
</g>
</svg>
