<?xml version="1.0" standalone="no"?>
<!DOCTYPE svg PUBLIC "-//W3C//DTD SVG 20010904//EN"
 "http://www.w3.org/TR/2001/REC-SVG-20010904/DTD/svg10.dtd">
<svg style="fill: black; stroke: black;" version="1.0" xmlns="http://www.w3.org/2000/svg"
 width="863.471241pt" height="856.639943pt" viewBox="0 0 863.471241 856.639943"
 preserveAspectRatio="xMidYMid meet">
<metadata>
Created by potrace 1.16, written by Peter Selinger 2001-2019
</metadata>
<g transform="translate(-75.028759,930.500000) scale(1.000000,-1.000000)"
fill="#9370DB" data-original="#000000" stroke="none">
<path d="M473 930 l0 -1 -6 0 -6 -1 -3 -1 -2 0 -1 0 -1 0 -8 0 -8 1 0 -1 -1
-1 -2 1 -1 0 0 -1 0 -1 -3 0 -3 0 -1 -1 -2 -2 -3 0 -3 0 -3 -1 -4 -1 -1 1 -2
2 0 0 1 1 -1 -1 0 0 -2 1 -2 1 -2 1 -1 0 -5 0 -4 1 -1 0 0 1 -3 0 -3 0 0 -1
-1 -2 -2 0 -3 0 -2 1 -3 1 -1 -1 -1 -1 -3 0 -2 0 0 -1 0 -1 1 1 1 0 0 -1 0 -1
-2 0 -2 0 -1 2 0 2 -1 0 -1 0 0 -1 0 -2 1 0 1 0 -1 -1 -1 -1 -3 0 -3 0 -2 -2
-2 -1 -2 -2 -2 -2 -3 -1 -2 0 -9 -4 -8 -4 0 -3 -1 -2 -2 0 -1 0 0 -2 1 -3 -2
0 -2 0 -3 -2 -2 -3 -1 0 0 0 1 1 0 1 -1 0 -1 0 0 -1 0 -2 -1 -1 -1 0 0 1 1 2
-1 0 -1 0 -2 -2 -1 -1 1 0 1 1 0 -1 0 -1 -9 -5 -8 -5 -13 -10 -13 -9 -1 0 -2
0 0 1 -1 2 -4 0 -4 1 -2 0 -1 0 -5 -2 -4 -2 -3 -2 -3 -1 -1 -1 0 -1 -1 1 -1 0
-4 -3 -3 -2 -1 -1 -1 -1 0 0 0 1 -3 -3 -3 -2 -2 -5 -3 -4 2 -1 1 0 0 -2 0 -1
-4 -3 -4 -4 -3 -4 -2 -4 -1 0 -1 0 -2 -5 -3 -6 -2 -2 -3 -3 -2 -3 -1 -3 -1 -1
-1 0 -4 -6 -5 -6 -5 -4 -4 -4 -1 -4 -2 -3 1 1 2 2 0 1 0 1 2 0 1 0 -1 -2 0 -1
-3 -5 -3 -4 -1 0 -1 0 2 3 1 2 0 1 -1 0 -3 -3 -2 -3 -2 -2 -1 -2 2 -1 1 -2 -1
-3 -2 -3 1 -2 0 -2 2 0 2 1 0 -1 0 -1 -3 -3 -2 -3 0 0 0 0 -6 -11 -7 -10 -2
-4 -1 -3 -1 -1 -1 -1 0 0 0 -1 -1 -5 -1 -4 -2 -3 -2 -3 -2 0 -1 0 0 -1 1 -1
-1 -1 -2 -1 -2 -4 -2 -4 1 0 0 0 -2 -3 -2 -2 -1 -6 -1 -6 -2 -2 -1 -1 1 0 1 1
0 0 0 -1 -2 -5 -2 -6 -1 0 -1 1 -2 -2 -2 -2 -2 1 -3 1 -1 -1 -2 -1 0 0 -1 1
-2 -2 -3 -2 -1 -7 0 -6 -2 -1 -1 -1 0 -2 0 -1 -1 0 -2 0 0 -1 0 -1 1 1 1 0 0
-1 0 -1 -2 -7 -1 -6 -2 -4 -2 -4 0 -5 0 -5 0 -9 1 -9 3 -3 4 -4 0 -4 -1 -3 0
-5 -1 -4 -1 -4 0 -3 -1 -3 0 -2 -1 1 -1 1 -1 0 0 -1 -1 -4 0 -3 0 -1 -1 0 1
-3 0 -2 1 0 1 0 -1 -1 -1 -1 1 -3 1 -3 -1 0 0 -1 0 -6 -1 -7 -1 -1 0 0 0 3 0
4 -2 1 -1 0 -1 -1 0 0 1 -1 1 0 0 -1 0 -1 -1 0 0 1 0 -7 0 -6 -1 -4 -1 -4 2
-5 2 -5 0 -7 0 -7 1 -2 0 -2 1 -1 1 -2 1 -5 0 -6 1 0 1 0 0 -1 0 0 0 -2 0 -1
1 0 1 1 3 -3 4 -2 0 -1 0 0 4 -16 4 -16 0 -9 1 -8 0 -3 1 -2 -1 0 -2 1 0 -1 0
-1 1 0 2 0 0 -4 1 -4 -1 0 0 0 0 -3 0 -2 1 -3 0 -2 1 0 1 0 2 -4 2 -4 2 -3 3
-3 0 -1 0 -2 1 0 1 0 0 -1 0 -1 3 -10 4 -9 3 -5 3 -5 1 -1 1 0 0 -2 0 -2 2 0
1 -1 -1 2 0 2 1 0 1 -1 3 -6 3 -6 3 -4 3 -5 1 0 0 0 -1 2 -1 2 0 1 1 0 3 -3 2
-4 1 1 1 0 0 1 0 1 -1 0 -1 -1 -2 6 -2 6 -1 0 -1 1 1 2 0 1 -2 2 -3 3 0 1 0 2
-3 4 -2 3 -4 8 -3 7 -1 -1 -1 0 0 1 0 2 -1 0 -1 0 -1 -1 0 -1 1 0 1 1 1 -4 1
-3 -1 -1 0 -1 2 0 1 -1 0 -1 0 -1 -1 1 -1 0 0 -1 1 -1 1 0 1 0 0 -4 0 -3 -1 1
-1 1 -3 6 -3 6 -1 0 -1 1 -2 5 -3 6 -1 2 0 3 3 0 4 -1 0 -1 0 -2 1 1 1 0 0 1
-1 1 3 0 4 0 3 -6 2 -6 2 -5 2 -4 3 -3 3 -3 2 -5 2 -5 4 -7 4 -7 2 -3 2 -3 0
-1 -1 -1 1 0 1 0 3 -7 4 -7 2 -1 2 -2 0 -1 0 -1 3 -4 3 -4 -2 -2 -3 -2 1 -2 0
-1 1 -1 1 0 1 -4 2 -3 3 -3 4 -4 6 -6 6 -7 3 -3 3 -4 1 1 2 0 5 -5 5 -6 -1 0
0 0 -5 5 -5 5 -1 -1 0 0 3 -3 4 -3 8 -9 9 -8 0 1 0 0 -5 5 -4 4 0 1 1 0 7 -6
7 -5 6 -5 6 -5 3 -3 3 -2 -1 -3 -1 -2 0 0 1 -1 4 -3 4 -4 -1 0 0 0 -4 3 -4 2
-1 0 0 -1 2 -3 3 -2 6 -4 7 -3 2 0 2 0 0 -1 0 -1 1 0 2 0 6 -6 6 -7 5 -2 5 -3
2 0 1 1 -4 2 -4 3 1 1 1 0 8 -5 9 -5 8 -4 8 -4 4 -2 5 -2 6 0 6 1 1 -2 2 -1
11 -4 11 -5 4 -1 4 -1 0 -1 1 0 -1 -1 -1 -2 0 -3 1 -3 1 -2 2 -2 1 -1 1 -2 7
-2 8 -2 1 -1 2 0 3 3 3 3 4 0 4 0 3 1 3 1 1 0 1 0 3 -1 3 0 1 -1 1 -1 0 1 1 0
0 -1 0 -1 1 1 1 0 0 -1 0 -1 7 0 7 1 3 -1 3 -1 -1 -2 -2 -1 2 0 1 -1 1 0 1 0
0 1 -1 1 1 -1 2 0 0 -1 0 -1 6 -2 6 -2 2 1 3 1 2 -1 3 0 2 -1 1 -2 5 0 6 1 4
2 4 2 -1 2 0 2 0 2 -1 3 1 1 1 1 2 0 2 -1 1 -3 0 -2 2 -3 1 -3 2 0 2 0 0 -2 0
-2 2 0 3 -1 1 -1 2 0 4 -1 4 0 4 1 5 2 9 0 10 -1 5 0 5 -1 1 1 1 1 1 0 1 0 1
0 2 1 1 3 0 3 2 0 1 0 0 1 0 1 2 0 2 1 1 0 0 0 2 1 1 2 0 1 0 2 2 2 2 2 2 1 2
0 7 2 8 2 4 0 3 0 2 2 3 3 4 1 5 1 8 2 9 3 3 0 3 1 2 1 3 0 9 4 9 4 6 5 6 5 5
3 5 3 1 0 1 1 -3 -1 -3 -1 -1 -1 -1 -1 -2 0 -3 -1 -2 -1 -2 0 0 0 1 1 15 8 16
8 6 4 6 3 -3 -2 -2 -1 -2 -2 -2 -2 5 3 5 2 5 3 5 3 0 -1 0 0 7 5 7 4 -2 -2 -2
-2 0 -1 0 -1 4 2 4 2 3 3 3 4 5 3 6 4 3 3 4 4 3 2 3 2 1 -1 1 0 3 2 3 1 2 3 3
3 -1 -2 -1 -2 -3 -3 -3 -3 2 1 2 1 7 7 7 7 7 8 8 8 1 0 2 0 3 1 4 2 2 2 2 2 2
5 2 5 1 9 0 9 0 1 1 1 -1 1 -1 0 0 -1 1 -1 -3 -2 -3 -3 -2 0 -2 -1 5 7 4 7 2
2 2 2 0 0 0 1 4 5 4 5 7 11 8 12 1 2 1 2 1 0 1 -1 1 1 0 1 -1 0 -1 -1 0 1 0 1
2 3 1 4 0 2 0 2 -2 -2 -1 -2 -5 -9 -5 -8 0 -2 0 -1 -1 -1 -1 0 0 1 1 1 0 0 -1
0 -1 -2 -1 -2 1 0 1 1 -1 -1 0 -2 -1 1 -1 0 0 -1 0 -1 0 -1 0 -1 -6 -9 -7 -9
-1 0 -1 0 1 -1 1 -2 -6 -7 -6 -6 0 1 1 2 -1 0 -1 0 -1 -1 -1 -1 2 3 3 4 1 3 2
4 3 3 3 3 4 6 5 6 5 9 5 9 6 10 5 10 -1 2 -1 1 0 1 1 1 2 0 1 0 0 2 0 1 1 0 1
0 0 1 0 1 4 9 5 9 0 0 1 0 -2 -5 -2 -5 1 -1 0 -1 1 0 2 0 4 9 4 9 1 0 1 0 0 1
-1 1 1 0 1 1 0 2 0 3 2 2 1 2 3 1 3 1 0 0 1 0 1 4 1 3 1 0 1 0 0 3 0 2 1 0 1
0 -1 3 0 3 1 2 1 3 -1 2 0 1 -1 0 -1 0 0 2 0 1 -1 0 -1 -1 0 2 0 3 -1 0 -1 -1
0 3 -1 3 -2 1 -1 1 1 2 0 2 -1 0 -1 0 0 -1 0 -1 -3 0 -2 0 -2 2 -2 1 0 -1 0
-1 -4 0 -5 0 0 2 0 2 -1 -3 -1 -2 -2 0 -2 1 0 1 0 1 -2 -1 -1 0 -2 2 -1 1 0
-1 0 -1 -2 -1 -1 -2 -1 0 -1 0 0 2 0 2 -2 -1 -2 -2 0 1 -1 1 -3 -1 -2 0 -1 -2
0 -2 -1 0 -1 0 0 -3 1 -4 -1 1 -1 0 -1 -1 0 -1 -1 -3 0 -3 3 -3 3 -2 -1 -1 0
0 0 -1 0 -1 2 0 1 0 0 -1 0 0 -1 -2 -2 -1 -1 -4 -1 -4 1 -3 1 -4 3 0 3 1 -1
-2 0 -1 1 0 2 0 4 -2 5 -3 2 0 3 0 -3 -7 -3 -7 1 -1 1 -1 4 8 4 8 1 -1 1 -2
-2 -8 -3 -7 -4 -8 -4 -8 -1 -2 -1 -1 1 -1 0 -2 -1 0 -1 1 0 -2 -1 -1 -5 -9 -5
-8 -2 -2 -1 -1 0 1 1 1 -1 1 -2 2 1 1 0 1 1 0 1 -1 -1 2 0 2 2 3 1 3 1 1 0 1
1 1 0 2 0 0 -1 0 -3 -5 -2 -4 -2 -3 -2 -2 -2 -1 -1 0 1 2 1 2 -1 1 -1 0 -2 -1
-2 -2 0 0 -1 0 2 3 1 3 -1 -2 -1 -1 -1 0 -1 0 2 4 2 5 -1 0 -1 0 0 2 0 1 -1 0
-1 -1 0 0 0 1 6 12 6 11 -1 1 0 1 -1 0 -1 0 -3 -5 -3 -5 -1 0 -2 0 0 -2 -1 -1
-2 -5 -2 -5 -2 0 -3 -1 -1 -2 -2 -1 -1 0 0 1 1 0 1 0 -1 1 0 1 -5 -6 -4 -7 -2
-1 -1 0 -1 0 0 1 4 6 4 6 0 1 -1 0 -2 -3 -2 -4 -3 -2 -2 -2 2 4 3 4 2 3 1 4 3
2 2 3 -1 2 0 2 1 1 1 0 0 2 -1 1 1 2 1 1 -1 0 -1 0 0 2 1 2 -1 -1 -1 0 0 -1 0
-1 -3 -4 -3 -4 -8 -13 -8 -13 -2 -1 -1 -1 0 1 0 1 -2 -1 -2 -1 -1 1 -1 1 -5 0
-4 0 -3 -2 -3 -2 -3 -4 -3 -3 -3 0 -2 0 0 -1 1 0 -2 -2 -2 -1 0 -2 0 -1 -2 -1
-3 -1 0 -3 0 -3 -1 0 -1 0 -1 -3 -2 -3 -3 -2 -3 -2 0 -5 0 -5 -2 -1 -1 0 -1 0
-1 0 -9 -8 -9 -7 0 -1 0 -1 3 0 3 1 2 1 3 0 0 -1 0 -1 -4 -3 -4 -4 -2 0 -1 0
0 -1 0 -1 -2 0 -1 0 -4 -4 -4 -3 -3 -3 -2 -2 -5 -2 -5 -2 -1 -3 -1 -3 -9 -5
-9 -6 -8 -5 -8 -4 -2 0 -2 0 0 -1 1 -1 -2 -1 -2 -1 1 2 2 1 -3 -1 -2 -1 1 1 2
2 -2 0 -1 -1 -4 -1 -4 -1 -3 -2 -3 -2 -4 -2 -4 -1 1 -1 2 -2 0 1 1 0 -1 1 -1
1 2 0 2 1 1 -1 1 0 3 0 2 1 -1 1 -1 1 3 1 2 1 0 -1 -1 -1 1 0 1 -1 -7 -3 -6
-2 -3 -2 -2 -1 -6 -2 -5 -2 -3 -1 -3 0 -2 0 -2 0 -1 -1 0 -1 -1 1 -1 0 -4 -2
-3 -2 -9 -2 -9 -2 -1 1 0 1 -1 0 -1 0 -2 1 -1 2 1 0 0 1 -1 0 -1 0 -4 0 -3 1
-5 -3 -4 -2 -2 -1 -1 -1 -4 0 -4 0 -5 0 -5 -1 -1 0 -1 -1 -13 -1 -13 0 -2 -1
-2 0 -2 -2 -2 -2 -2 2 -1 2 -3 1 -3 1 -6 1 -5 0 -6 1 -6 2 -10 0 -10 -1 -4 -1
-3 -1 -2 -2 -2 -2 0 -1 0 -1 -3 1 -2 0 -3 2 -2 2 -4 1 -4 0 -2 1 -1 0 -5 0 -5
1 -2 1 -1 1 -6 0 -7 -1 0 1 -1 0 -7 2 -6 2 -1 0 -1 1 -5 1 -4 1 -2 2 -2 2 0
-1 0 0 -3 3 -4 2 0 0 0 -1 -2 1 -1 2 -3 1 -2 0 -9 5 -9 4 -7 4 -6 4 -4 3 -4 3
-7 5 -7 5 -5 4 -5 3 -3 2 -2 2 -2 1 -1 1 -6 4 -5 5 -1 2 0 2 -2 2 -2 2 0 0 1
0 -9 10 -9 9 -3 3 -3 3 -1 0 -1 -1 -6 7 -6 7 -4 4 -3 5 -3 5 -4 5 0 1 0 0 -1
1 -2 2 -1 -1 -1 0 1 1 1 1 -2 3 -2 3 -1 -1 -1 0 0 1 0 2 -1 0 -1 0 0 2 0 1 -1
0 -1 0 0 2 1 1 -1 0 -2 -1 -5 11 -5 11 -1 1 0 1 -1 3 -1 3 0 0 0 1 -1 0 -1 0
-1 5 -1 4 -1 0 -1 0 0 2 -1 3 -1 3 0 3 0 2 0 3 0 2 0 3 0 3 -1 3 -1 1 -1 2 1
1 0 2 -1 2 -1 2 -1 3 0 3 0 2 -1 2 0 0 0 0 0 6 -1 6 -3 3 -4 4 -1 4 0 4 -1 2
-1 2 -1 3 -1 4 0 4 1 5 -1 0 -1 0 0 2 0 1 1 0 1 0 0 1 0 1 -1 -1 -1 0 0 3 0 4
-1 1 0 2 1 0 1 -1 0 4 0 4 -1 -3 -1 -3 0 17 0 17 2 0 1 1 0 4 0 5 1 -2 1 -1 0
0 0 1 1 5 0 6 -1 -2 -1 -1 1 -2 0 -2 -1 -1 -1 0 0 8 1 8 1 6 1 6 0 4 1 5 1 4
1 4 1 0 1 0 0 -1 -1 -1 1 -2 1 -1 2 3 3 2 0 2 0 3 2 9 3 9 -1 1 -1 1 1 6 1 6
0 2 0 2 0 1 -1 0 -2 -3 -1 -3 -1 -3 0 -2 -3 -10 -3 -11 0 -2 0 -2 -1 -2 -1 -1
-2 -6 -1 -5 -1 -2 0 -1 -1 -3 0 -3 -1 -1 -1 0 0 1 1 1 0 5 1 6 1 2 0 3 1 7 2
8 2 7 2 7 3 8 2 9 3 7 3 8 3 6 3 6 1 3 2 4 0 1 0 1 -2 -3 -1 -3 -1 0 0 1 3 5
3 6 1 0 1 0 3 3 2 4 1 -1 1 0 0 1 0 2 2 2 3 2 1 3 1 3 1 0 2 1 -1 0 -1 0 1 2
1 2 7 0 7 0 2 0 2 1 2 1 3 1 0 0 1 0 0 1 -1 1 4 3 4 4 2 3 1 3 1 1 0 2 8 8 7
7 0 2 0 1 2 1 2 2 0 2 -1 2 1 2 1 2 1 -1 2 0 0 1 1 1 -1 0 -1 0 4 4 5 4 0 1 0
1 -3 -2 -3 -3 -1 0 0 1 3 3 3 3 3 0 3 0 3 3 3 2 0 2 0 2 3 2 4 2 1 2 1 2 -5
-3 -5 -4 0 2 0 3 4 3 4 4 1 0 1 1 5 4 4 5 0 -2 -1 -1 2 1 1 0 0 2 -1 1 4 4 4
5 0 -1 0 -1 -2 -1 -1 -2 1 0 1 -1 0 1 0 1 2 0 1 0 6 5 5 4 -1 0 0 0 -4 -2 -3
-2 3 2 3 3 0 0 1 0 0 2 1 1 -3 -2 -3 -1 -1 0 -1 1 -1 -1 0 -1 1 0 1 1 0 -1 -1
-1 -1 0 -1 1 -2 -3 -2 -2 -2 0 -1 1 -1 -1 0 -1 1 0 2 1 -2 -1 -2 -2 -1 0 -1 0
0 1 0 1 4 3 5 4 8 6 9 6 6 3 6 4 11 6 11 6 9 3 9 4 1 0 0 -1 -5 -2 -4 -3 -3 0
-2 -1 -5 -2 -4 -2 0 -1 0 -1 -2 0 -2 0 0 -1 0 0 -6 -3 -5 -3 1 -1 1 0 3 1 4 2
1 -1 1 -1 3 1 3 2 0 -1 1 0 1 1 2 1 0 0 0 -1 7 5 7 4 1 0 1 0 2 2 2 1 -3 0 -2
-1 1 1 0 2 2 1 2 0 0 2 0 1 3 1 3 1 5 2 6 2 0 -1 0 -1 -2 -1 -3 -1 -1 -1 0 -2
-2 -1 -2 -1 2 1 2 0 5 1 6 0 2 2 2 1 6 1 6 0 2 0 3 1 3 2 3 2 1 2 0 2 1 0 1 0
0 2 0 1 3 0 3 0 2 0 2 1 1 1 1 1 2 1 3 0 -1 2 -1 1 3 1 3 0 5 1 6 0 0 -1 0 -1
-1 0 -2 0 -1 -1 0 -1 2 0 3 1 2 -2 3 -2 -1 -1 0 0 3 -2 2 -2 6 0 6 -1 4 1 3 1
-1 -2 -1 -1 1 0 1 0 2 -1 3 0 0 1 1 0 7 1 7 0 4 0 5 0 12 -1 12 -1 10 -1 10 0
-3 1 -2 0 0 2 0 1 -2 0 -1 0 1 1 2 1 3 -1 4 0 7 -2 7 -2 3 -3 2 -2 2 1 2 0 1
-1 1 -2 -1 0 -2 0 0 -1 -1 -1 -6 0 -6 0 -2 -3 -3 -3 1 0 1 0 2 -3 3 -2 3 0 2
0 0 -1 0 -2 3 0 4 0 2 0 3 0 2 1 2 1 1 2 0 2 -2 2 -1 2 1 1 2 0 5 -2 4 -1 3
-2 3 -1 -2 0 -1 0 -2 0 -1 0 0 -1 0 -2 3 -2 3 -1 0 -1 0 -1 2 0 1 0 1 -1 0 -2
1 1 2 0 2 -1 3 -2 8 -4 9 -4 1 -1 2 -1 2 0 2 0 1 -1 1 -1 1 1 1 1 3 -1 3 0 4
-2 5 -3 1 0 0 1 -4 3 -3 2 2 -1 3 0 1 -1 2 0 -3 2 -2 2 2 1 3 1 4 -2 5 -2 8
-6 8 -5 2 -3 3 -2 0 -1 0 -1 3 -2 3 -2 -1 -1 0 0 -1 1 0 1 -1 0 -1 0 0 -1 0
-2 -2 1 -1 0 -2 2 -2 2 -2 0 -1 0 0 1 -1 2 0 -1 -1 -1 4 -2 4 -3 1 -2 2 -2 -1
0 -2 -1 0 -2 0 -1 2 -5 3 -6 7 -4 6 -4 2 1 1 2 1 0 2 0 0 1 -1 1 2 1 2 2 2 -2
2 -2 2 -2 3 -2 2 -1 3 0 0 0 1 0 1 -2 1 -2 -1 1 -1 0 0 -1 1 -1 2 0 1 0 -1 -2
0 -1 1 -2 1 -1 1 0 1 0 0 1 0 1 -1 0 -1 0 -1 1 0 1 1 0 1 0 1 -1 1 -2 0 -2 -1
-1 3 -7 3 -6 2 -1 1 0 0 -2 0 -1 2 1 2 0 0 -1 -1 -1 6 -6 5 -6 13 -18 12 -17
2 -1 1 0 3 -7 4 -6 2 -8 3 -7 3 -7 4 -7 0 0 1 0 -1 2 0 2 1 -2 2 -2 4 -12 4
-11 0 -1 -1 0 -2 1 -3 1 -1 -2 0 -1 -1 1 -1 0 0 -1 0 -1 -1 0 -2 0 -1 -4 -1
-4 1 -2 0 -2 -1 1 -2 0 -1 -1 -1 -1 0 1 0 1 -1 0 -1 -1 2 -6 3 -7 0 0 1 0 0 2
0 3 1 1 2 1 -2 0 -1 -1 -1 1 0 2 0 1 1 0 1 -1 2 0 0 -4 1 -4 -1 -2 0 -3 -2 1
-1 1 1 -2 0 -2 1 1 2 0 0 -2 1 -3 -1 0 -1 0 0 -1 0 -1 1 1 1 0 0 -1 0 -1 0 -1
0 -1 1 0 1 0 0 -1 -1 -2 2 -3 1 -3 1 -4 0 -4 2 -7 1 -7 3 -3 2 -3 1 1 2 1 1
-1 1 -2 0 -15 -1 -14 -2 -4 -1 -4 0 -1 0 -1 -1 -1 -2 0 -2 -3 -2 -3 0 -7 0 -6
0 -5 0 -5 2 -2 2 -2 2 0 2 1 2 -2 2 -2 0 -1 0 -1 1 0 1 0 0 -1 0 -2 2 -1 2 0
0 -1 1 0 1 0 2 -1 0 -3 0 -3 1 3 1 3 3 0 4 -1 1 0 1 -1 0 -1 0 -2 2 -1 2 0 2
0 2 -1 1 -1 1 0 4 0 4 0 3 2 2 2 1 -1 2 0 0 1 1 1 2 -1 2 -1 2 2 3 3 2 1 2 1
-1 -6 0 -6 1 1 2 1 1 0 1 -1 0 2 1 1 1 0 2 0 0 -1 1 -1 1 2 2 3 1 9 1 10 0 2
1 2 0 2 1 3 0 5 1 6 -1 -1 -1 0 0 2 0 2 0 1 0 2 -1 -2 -2 -2 0 2 0 2 -3 4 -2
5 -2 2 -1 2 2 2 1 2 -1 0 -1 0 1 9 0 8 4 4 4 4 0 2 1 3 -1 0 -1 0 1 3 1 2 1 0
0 -1 2 4 2 5 0 0 0 1 0 7 -1 7 -1 1 0 2 1 0 1 0 2 0 2 0 -2 1 -2 1 1 0 1 1 0
2 0 2 -1 -2 -1 -1 -1 5 -1 5 1 1 1 0 0 1 0 1 -1 -1 -1 0 -1 3 0 3 -2 0 -2 0
-1 7 -1 7 -1 0 -1 0 0 -3 1 -3 1 -6 0 -5 -1 1 0 2 -1 0 -1 0 0 -2 0 -1 -3 11
-2 12 -1 6 -2 7 -3 10 -3 11 -1 2 0 2 1 -2 1 -1 0 1 0 2 -1 0 -2 0 0 3 -1 3 1
1 1 1 1 -1 2 0 -1 0 -1 1 2 2 1 1 -1 3 0 3 -3 6 -3 5 -1 -2 -1 -2 -4 8 -5 9
-1 3 -2 3 0 1 1 0 0 0 1 0 4 -10 5 -10 1 0 0 1 -3 6 -2 7 -2 4 -2 4 0 3 -1 4
-2 5 -2 5 -2 3 -2 4 1 2 0 1 1 -1 1 -2 0 -1 -1 -1 2 0 3 -1 0 1 0 1 0 0 0 1 2
-1 1 -1 0 1 0 1 -2 1 -2 0 0 2 1 1 -2 0 -1 0 0 1 0 1 0 1 -1 2 -2 -1 -1 -1 -1
0 0 1 1 1 1 1 0 1 -1 0 -2 -2 -2 -2 1 0 0 -1 0 0 -1 0 -2 2 -2 3 -2 3 -2 3 1
1 0 1 -1 -1 -1 0 0 1 1 2 -1 0 -1 0 -2 4 -2 4 0 3 0 3 -1 0 -1 0 1 1 0 2 -1 1
0 2 -1 1 0 1 -3 5 -2 4 -5 7 -5 7 -5 6 -4 6 -7 5 -7 6 0 1 1 0 -4 4 -4 4 -3
-1 -2 -1 -1 -1 -2 -2 0 -1 -1 -1 -6 5 -6 6 0 -1 -1 0 0 1 1 1 -1 1 -2 0 0 1 1
1 -2 1 -1 1 0 2 0 1 2 2 3 2 -5 4 -4 4 -5 3 -5 2 0 2 -1 2 -7 5 -8 6 -3 1 -2
0 -3 -2 -2 -1 0 1 0 1 -1 0 -1 -1 -4 3 -5 2 -1 -1 -1 -1 0 1 0 1 0 0 0 1 -2 0
-1 1 1 -1 0 -1 -1 1 -1 1 -2 0 -2 0 0 2 -1 2 -1 0 -1 0 1 -1 1 -1 0 -1 -1 0
-2 1 -2 1 -1 0 0 -1 1 0 1 0 2 -3 3 -2 -1 0 -1 0 -5 2 -4 3 -3 2 -2 1 -1 -1
-1 -1 -1 1 -1 1 1 0 2 0 -1 2 -2 1 2 2 1 2 2 -1 2 0 -4 3 -4 2 -1 1 -1 1 1 1
0 1 -2 1 -2 0 -1 0 -1 1 -5 2 -5 2 0 2 0 1 -2 1 -2 1 -2 1 -1 1 -7 3 -7 3 -3
1 -2 1 -2 -1 -1 0 -3 0 -3 0 -3 3 -2 2 -3 1 -2 1 -9 2 -8 2 0 1 0 1 -5 2 -5 2
-2 0 -2 0 0 1 -1 1 -3 0 -3 1 -2 -3 -1 -2 0 1 0 1 -2 -1 -1 0 -11 3 -11 2 -2
-1 -1 -1 -1 1 -1 2 -3 0 -3 1 0 -1 0 -1 1 0 2 -1 -2 0 -2 0 -2 1 -1 1 2 0 2 0
-5 1 -5 1 -1 -1 -1 -1 -9 0 -9 1 -1 1 0 0 2 0 2 0 4 0 4 0 -3 1 -2 1 -7 0 -6
0 0 -1 0 -1 2 0 3 -1 -9 1 -9 0 -4 1 -3 0 1 1 0 2 -1 -2 -2 -1 -16 -1 -16 0 0
1 -1 2 -3 0 -4 0 0 0z m-1 -6 l0 2 1 -1 0 -1 9 0 8 1 1 -1 0 -1 -1 0 0 1 -3
-2 -3 -1 2 0 3 0 -3 -1 -3 -1 -5 0 -5 0 0 -1 0 -2 -1 0 -2 0 0 -1 -1 0 1 -4 1
-3 2 0 3 1 -2 -3 -1 -3 -1 0 -1 0 1 -2 1 -1 0 -1 -1 0 -6 0 -5 0 0 1 0 1 -3 0
-2 0 -2 1 -1 1 0 3 0 4 -2 2 -3 2 1 2 1 1 -1 0 -2 0 1 1 2 2 2 0 2 1 1 -1 1
-1 2 2 3 1 2 0 2 0 0 1 0 1 3 0 2 -1 -1 1 0 2 1 -2 2 -1 0 1z m106 -1 l0 -1
-1 0 -1 0 0 1 -1 1 1 0 2 0 0 -1z m-156 -3 l0 -1 -1 0 -2 0 1 1 0 1 1 0 0 0 1
-1z m8 -12 l0 -2 -2 0 -2 -1 -1 1 -1 1 0 1 1 1 3 0 3 0 -1 -1z m47 -13 l1 -1
-2 0 -2 -1 -10 -1 -9 -2 -1 1 -1 1 4 1 5 1 7 1 7 1 0 0 1 0 0 -1z m-147 -7 l0
-2 -5 -3 -6 -3 -2 1 -2 1 6 4 6 4 2 0 1 0 0 -2z m-16 -3 l-2 -2 -1 0 -1 0 0 0
0 1 3 1 3 2 0 0 1 0 -3 -2z m22 -7 l2 0 -4 -2 -3 -2 -1 0 0 0 2 3 2 2 1 0 0 0
1 -1z m72 -2 l0 -1 0 -2 1 -2 -1 0 -1 0 0 -1 1 -2 -3 -1 -2 0 -3 -2 -2 -2 -2
1 -1 0 0 -1 1 -1 -3 -1 -2 -1 -1 0 0 0 2 2 3 1 -4 0 -3 -1 -2 1 -1 2 1 1 1 0
-2 0 -2 -1 -4 -1 -3 0 -2 -1 -2 -1 1 1 2 2 -1 0 -1 0 1 1 1 1 1 -1 1 0 2 1 1
1 1 -1 1 0 0 1 -1 1 3 1 3 1 0 -2 0 -1 1 0 1 0 1 1 1 2 2 -1 1 0 -1 1 0 2 2 1
2 0 0 1 0 1 1 0 1 -1 0 1 1 2 4 0 4 0 0 -2z m-53 -1 l0 -1 2 1 2 0 0 -1 0 -1
-5 -2 -6 -3 -4 -1 -5 -2 0 1 0 1 3 1 3 2 0 1 0 1 2 0 1 -1 0 1 -1 1 3 1 4 2 0
0 1 0 0 -1z m-62 -5 l0 -2 -2 1 -1 0 -1 -2 0 -1 0 -1 0 -1 -3 -2 -2 -1 0 1 0
1 1 0 1 0 0 1 0 1 -2 -1 -2 -2 1 -1 0 -1 -1 -1 -2 -1 1 -1 0 -1 -1 0 -1 1 -3
-3 -3 -4 -2 1 -1 0 0 2 0 1 -1 0 -1 -1 0 1 0 1 3 2 3 3 4 2 4 3 5 3 5 3 0 0 1
0 0 -1z m75 -1 l-1 -2 1 0 1 -1 -2 1 -1 0 -1 -1 -1 -1 -5 -1 -5 0 3 2 3 2 1 0
0 -1 2 2 1 1 3 0 2 0 -1 -1z m0 -5 l0 -1 -2 0 -1 -1 1 1 0 1 1 0 1 0 0 0z
m-79 -6 l-2 -3 -7 -4 -6 -5 -1 0 0 1 1 1 0 2 1 -1 1 0 0 1 0 1 7 4 8 5 0 0 1
0 -3 -2z m421 -18 l0 -1 -3 2 -3 2 -1 1 -1 1 4 -2 4 -2 0 -1z m-91 -9 l1 -1
-2 1 -2 0 0 1 0 0 1 0 2 0 0 -1z m60 -27 l1 -1 -2 0 -1 1 -1 1 0 1 1 0 2 0 0
-2z m142 -5 l4 -3 -2 0 -1 1 0 -1 0 -1 0 -1 0 -1 -2 1 -2 2 0 2 0 1 -1 0 0 -1
-2 2 -2 2 1 1 0 1 2 -1 2 -1 3 -3z m-651 -65 l-1 -4 0 -2 0 -2 -3 -5 -2 -5 -2
-2 -1 -1 -2 -3 -2 -4 -1 0 -1 0 -2 -4 -2 -3 -2 -2 -1 -1 0 3 0 2 2 1 2 0 0 1
0 2 2 4 2 4 0 1 0 1 -2 2 -1 1 1 1 2 1 1 3 1 4 3 3 3 3 2 3 2 3 1 -1 1 0 0 -4z
m1 -13 l-2 -2 0 0 0 -1 1 1 1 0 -1 -2 -2 -3 1 0 0 -1 -1 0 -1 0 1 -1 0 -1 -1
0 -2 1 1 -1 1 -2 -1 0 -1 -1 0 -1 0 -1 3 4 4 4 0 -2 0 -2 -4 -7 -4 -6 0 -1 1
0 2 4 3 4 1 0 0 0 0 -2 -1 -1 3 2 3 1 0 -1 0 -2 1 0 2 0 1 -2 2 -2 1 -2 1 -2
-1 -1 -1 -1 -1 -2 -1 -2 -5 -9 -5 -8 -3 -5 -3 -4 -1 0 0 1 1 3 2 4 -1 -2 -2
-2 -1 -4 -1 -4 -1 0 -1 0 0 -2 0 -1 0 -3 -1 -2 -1 1 -1 0 0 -2 0 -2 -1 1 -2 0
-2 -6 -2 -6 -3 -5 -2 -5 -1 -3 0 -3 1 0 1 1 -1 -2 0 -2 -1 -1 -1 0 1 2 0 2 -1
-3 -2 -3 0 1 -1 0 0 2 0 2 6 17 7 17 3 7 4 8 0 1 -1 0 -4 -8 -4 -8 -5 -11 -5
-10 0 4 1 4 -1 0 -1 0 1 2 0 3 2 1 1 2 0 3 -1 3 7 13 7 13 1 3 1 2 2 0 1 -1 0
2 0 1 -1 -1 -1 0 1 1 1 2 2 -1 2 0 -2 1 -1 2 3 2 2 3 0 1 0 0 -1 -1 -1 -1 -3
0 -2 0 -1 -1 0 -1 -1 0 -1 1 0 -1 0 -2 -3 -7 -3 -6 -2 -2 -1 -2 0 -1 0 0 -3
-7 -4 -7 -4 -9 -3 -9 -2 -2 -1 -1 -1 -3 0 -3 -1 -1 -1 0 0 1 0 0 4 12 4 13 2
4 2 5 3 6 3 7 0 1 0 1 5 8 5 9 2 0 1 0 -1 -2 0 -1 1 1 2 2 -1 1 0 1 3 3 3 3
-3 -2 -3 -2 -2 -2 -1 -1 0 0 0 1 5 9 4 10 3 2 2 3 1 0 0 0 -1 -2z m-17 1 l0
-1 -2 -1 -1 -1 1 1 1 2 1 0 0 0 0 0z m-2 -8 l-1 0 -3 -6 -3 -6 -2 -2 -2 -2 0
-2 -1 -2 1 1 1 0 0 -3 -1 -2 -2 -3 -2 -2 -2 0 -2 -1 4 7 4 8 2 3 2 3 2 4 2 3
-1 0 0 0 2 3 2 2 1 -1 0 -1 -1 -1z m-5 -23 l0 -2 -1 -1 -1 0 0 -2 1 -2 -1 1 0
1 -2 -2 -2 -1 -1 0 0 1 0 2 1 3 2 2 2 2 1 0 1 0 0 -2z m745 -9 l1 -3 1 -3 1
-3 -1 0 -1 0 -2 5 -3 6 1 0 0 1 1 0 0 0 2 -3z m-770 -26 l-1 -2 -3 -8 -3 -8
-1 2 0 3 2 5 2 5 1 3 1 3 1 0 1 0 0 -3z m16 -34 l-1 -3 -1 -1 -1 -1 0 4 1 4 1
1 1 1 1 0 0 -1 -1 -4z m709 -17 l1 -3 -2 4 -2 4 0 2 0 2 1 -3 2 -2 0 -4z m-15
-17 l0 -1 0 0 -1 0 0 1 -1 1 1 0 1 0 0 -1z m92 -11 l0 -1 0 0 -1 0 0 1 -1 1 1
0 1 0 0 -1z m-760 -44 l-1 -1 0 1 0 2 1 0 0 -1 0 -1z m0 -9 l-1 -2 0 4 0 4 1
-2 0 -2 0 -2z m695 -5 l0 -5 -1 1 -1 1 -1 6 0 6 1 -2 1 -1 1 -6z m-695 -1 l0
-3 -1 2 -1 3 1 0 0 1 1 0 0 0 0 -3z m755 -3 l0 -2 -1 1 -1 0 0 1 0 1 1 0 1 0
0 -1z m8 -51 l0 -2 -1 0 -1 -1 0 2 0 2 1 0 1 0 0 -1z m-1 -14 l0 -4 -1 -1 -1
-1 0 6 0 7 1 0 0 1 1 -2 1 -2 -1 -4z m-774 -105 l0 -1 1 -2 2 -2 -1 -2 0 -1 1
0 1 1 0 0 0 -1 1 -1 0 -2 -1 0 -1 1 -1 1 -1 2 0 1 0 0 -1 1 0 1 -3 4 -2 5 0 1
0 2 3 -4 3 -3 -1 -1z m681 2 l-1 -1 0 0 0 1 1 1 0 2 1 0 0 -1 -1 -2z m-681
-22 l0 -1 -2 0 -2 0 1 1 2 1 -2 1 -2 0 -3 4 -3 4 -1 -1 -1 -1 -1 2 -1 2 0 3 0
4 -1 -1 -1 0 0 1 0 1 1 0 1 0 0 1 0 2 2 0 2 1 5 -12 6 -12 0 0z m7 -12 l3 -7
0 -1 0 -2 -3 1 -2 0 -4 7 -4 7 0 1 0 1 2 2 1 1 2 -2 1 -1 4 -7z m2 8 l1 -1 -1
1 -1 0 0 1 0 1 0 0 1 0 0 -2z m5 -7 l1 0 0 -1 -1 -1 -2 1 -1 2 1 1 0 2 1 -3 0
-2 1 1z m-31 -2 l0 -1 0 0 -1 0 0 1 -1 1 1 0 1 0 0 -1z m3 0 l0 -1 -1 0 -1 0
0 1 0 1 0 0 1 0 1 -1z m88 -12 l2 -2 0 -1 0 -1 2 -2 2 -2 2 -3 3 -3 1 -2 1 -1
-1 0 -1 1 -5 7 -6 7 -1 1 -2 2 -1 2 -1 2 0 1 0 1 1 -2 1 -2 3 -3z m-59 -9 l0
-2 -3 3 -2 3 0 0 0 1 1 0 1 -1 0 1 0 1 2 -2 2 -2 -1 -2z m5 -9 l1 -1 0 1 -1 2
2 -1 1 -1 -1 -1 -1 -1 -2 0 -1 0 0 2 -1 2 1 0 0 0 2 -2z m69 -2 l2 -1 -2 1 -2
1 0 1 0 0 0 0 1 0 1 -2z m-56 -12 l2 -2 0 1 0 1 4 -4 4 -4 -3 -2 -2 -1 -2 3
-3 3 -2 4 -3 5 1 0 0 1 1 -2 1 -1 2 -2z m15 -4 l0 -1 6 -6 6 -7 1 1 2 0 -1 0
-1 -1 5 -6 5 -5 0 -2 0 -1 1 0 1 0 -1 -1 0 -1 -6 6 -6 6 -4 6 -5 6 -1 1 -2 2
-3 4 -4 5 0 2 -1 2 4 -5 4 -4 0 -1z m36 6 l-1 -2 0 0 -1 0 0 2 -1 2 2 0 2 0
-1 -2z m-1 -4 l0 2 1 0 1 1 1 0 0 -1 -1 -2 -1 -1 4 -5 4 -4 0 0 -1 -1 -5 5 -5
5 -1 2 -2 2 0 1 0 1 3 -3 3 -3 -1 1z m-19 -12 l0 -1 -1 1 -2 1 0 1 0 0 2 -1 1
0 0 -1z m-10 -7 l7 -7 -1 2 -1 2 3 -3 3 -3 -1 -1 0 0 -1 1 -1 1 -2 -3 -2 -2 0
-1 1 0 0 1 0 1 1 0 1 -1 -1 -1 0 -2 5 -5 5 -5 0 -1 0 -1 4 -2 4 -2 2 -2 3 -2
2 -3 3 -2 0 1 1 0 4 -4 5 -5 0 -2 0 -3 1 1 2 0 3 -3 4 -3 3 -2 3 -3 -4 1 -3 1
0 1 0 1 -4 0 -4 1 0 -2 0 -1 -1 0 0 0 -4 3 -4 3 -7 6 -7 6 -7 6 -6 6 0 1 0 1
-7 7 -7 7 0 3 0 3 0 3 0 4 1 -1 1 0 -1 1 0 2 -1 1 0 2 -2 3 -1 2 1 0 1 0 6 -7z
m613 -34 l0 -1 -2 -2 -3 -3 0 1 0 0 2 3 2 3 1 0 0 0 0 -1z m-563 -7 l3 -2 5
-5 6 -5 -2 1 -1 0 -5 4 -5 3 -1 1 -1 2 0 -2 0 -1 4 -3 4 -2 1 -1 2 -1 2 -2 2
-1 0 1 1 2 0 -2 0 -2 1 0 1 0 6 -4 6 -4 0 -2 0 -1 -1 0 -2 0 -2 2 -2 1 -14 10
-13 11 1 0 2 0 0 1 0 1 -1 1 -1 1 1 0 1 0 2 -2z m557 0 l0 0 -3 -2 -2 -2 2 2
2 3 0 0 1 0 0 -1z m-589 -2 l0 -1 -1 0 -1 1 -1 1 0 1 1 0 1 -1 1 -1z m53 -31
l0 -1 3 -1 4 -2 1 -1 1 -2 0 -1 -1 -1 1 0 1 0 0 -1 0 -1 -1 0 -1 0 -4 3 -3 2
-3 0 -2 -1 -1 2 -2 2 1 1 0 1 -2 0 -1 0 -1 1 0 1 2 -1 2 0 -2 1 -2 2 0 3 -1 3
6 -4 5 -3 0 -2z m75 -25 l0 -1 -1 0 0 0 -2 1 -1 1 1 0 2 0 1 -1z m-28 -3 l0
-1 -1 1 -2 0 0 1 0 0 2 0 1 0 0 -1z m36 0 l2 -1 0 -1 -1 0 -3 1 -3 2 1 0 1 0
3 -1z m346 1 l0 -1 -5 -2 -4 -3 -4 -1 -4 -2 0 1 0 0 8 4 8 4 1 0 0 0 0 0z
m-19 -9 l0 -1 -2 0 -1 -1 1 1 0 1 1 0 1 0 0 0z m9 -2 l-1 -2 -1 0 -1 0 1 2 2
1 1 0 0 0 -1 -1z"/>
<path d="M463 908 l-2 -1 0 -1 1 0 3 1 4 0 0 1 -1 2 -2 0 -2 0 -1 -2z"/>
<path d="M388 867 l-1 -1 1 0 2 -1 0 1 0 1 1 -1 1 0 0 1 -1 1 -1 0 0 0 -2 -1z"/>
<path d="M274 854 l0 -1 -2 0 -1 1 1 -2 0 -1 2 2 2 1 0 1 0 0 0 0 -1 0 -1 -1z"/>
<path d="M137 688 l-1 -1 1 0 1 0 0 1 0 1 0 0 -1 0 0 -1z"/>
<path d="M528 928 l1 0 1 0 2 1 -3 0 -2 0 1 -1z"/>
<path d="M553 927 l0 -1 1 0 1 0 0 1 0 1 -1 0 -1 0 0 -1z"/>
<path d="M557 926 l1 0 1 0 0 1 -2 0 -1 0 1 -1z"/>
<path d="M347 920 l-2 -1 0 -1 0 -1 3 1 3 0 0 1 0 1 -1 0 -1 0 1 1 2 1 -1 0
-1 0 -3 -2z"/>
<path d="M642 918 l0 -1 2 -2 2 -1 1 0 2 0 1 -1 1 -1 5 -1 5 -2 1 0 0 1 -1 2
-2 1 -7 3 -7 3 -1 0 -1 0 -1 -1z"/>
<path d="M724 868 l-1 -1 0 -1 1 0 0 1 0 1 2 0 3 1 -2 0 -2 1 -1 -2z"/>
<path d="M759 861 l0 -2 2 0 2 0 0 0 0 1 -3 1 -2 1 1 -1z"/>
<path d="M400 832 l-1 -1 1 0 1 0 1 1 2 1 -2 0 -2 0 0 -1z"/>
<path d="M799 825 l0 0 3 -3 4 -2 -3 3 -3 3 -1 0 0 0 0 -1z"/>
<path d="M496 819 l-1 0 -4 0 -4 -1 0 -1 1 0 -1 -2 -1 -1 1 0 0 0 -2 -1 -1 -2
1 0 1 0 -2 -2 -1 -2 -7 -1 -6 -1 -6 -1 -6 -1 -1 -1 -1 -1 3 1 3 0 6 0 6 1 0 0
0 1 3 0 3 -1 1 0 0 -1 -2 0 -2 -1 -8 -1 -8 -1 -1 0 -1 1 -12 -4 -12 -4 -2 -1
-1 0 0 -1 1 0 4 1 4 2 2 -1 1 0 0 1 -1 1 1 0 1 0 0 -1 0 -1 3 1 3 0 6 2 6 2 5
1 6 1 4 0 4 0 0 -1 0 -1 -2 0 -2 -1 1 -2 0 -1 -2 0 -3 0 0 -1 0 -1 2 1 3 0 -3
-1 -3 -2 1 0 0 -1 3 1 2 0 0 -1 1 -1 -2 -1 -2 0 0 -2 0 -1 -4 0 -5 1 1 -1 0 0
-5 -2 -4 -1 -2 0 -1 0 1 1 2 1 -4 -1 -3 0 -7 -3 -7 -2 -2 0 -3 1 -3 -1 -3 -1
0 1 0 0 3 1 3 1 -3 1 -2 0 -5 -1 -4 -1 -3 -2 -2 -2 0 0 1 0 -1 -2 -1 -2 -1 0
-1 0 0 1 0 2 -3 1 -2 1 -2 0 -1 0 1 -3 0 -3 -2 -1 -2 -2 -4 -1 -4 0 0 1 1 1
-1 0 -1 0 1 1 1 2 4 1 3 1 0 1 0 1 -5 -2 -4 -3 -12 -5 -12 -6 -1 0 0 0 1 2 2
2 9 5 9 5 0 1 0 1 -2 0 -1 0 2 2 1 2 4 2 5 2 5 2 6 1 0 2 1 2 -8 -3 -8 -3 -6
-2 -6 -3 -9 -4 -10 -5 -1 0 -2 0 -3 -3 -3 -2 -4 -2 -4 -2 -6 -4 -5 -5 1 0 1 0
-6 -5 -6 -6 -5 -3 -4 -3 -3 -3 -3 -3 -1 0 -2 0 0 1 0 1 3 2 4 2 2 3 3 2 5 4 6
4 0 1 0 1 -1 0 -1 0 -7 -6 -7 -6 -6 -6 -6 -6 2 2 2 1 1 0 0 -1 -1 -1 -1 -1 0
-2 0 -1 -11 -11 -12 -11 -6 -8 -7 -7 1 2 0 2 1 1 1 1 6 7 5 7 3 2 2 2 0 1 0 0
-3 -3 -3 -2 -3 -3 -3 -3 -4 -6 -4 -5 -2 2 -1 1 -3 0 -3 0 -6 -4 -5 -4 -1 -1
-2 -1 -3 -6 -3 -5 0 -2 -1 -2 -1 -1 0 -1 1 -4 1 -3 2 -1 1 -1 -1 -3 -1 -3 -1
-4 0 -3 1 1 0 1 2 0 2 0 -2 -3 -2 -2 0 -1 0 -1 -4 -8 -4 -9 1 -2 1 -1 2 3 2 2
0 2 0 1 4 6 4 5 0 -1 1 0 -2 -4 -1 -4 0 -1 0 0 2 4 3 4 0 -1 0 -1 -1 -2 -1 -1
-3 -7 -3 -7 -1 -2 0 -2 -1 -3 -2 -4 -1 0 0 0 0 3 1 4 -2 -3 -2 -2 0 4 1 3 -2
1 -2 0 -1 -3 -1 -2 -2 -6 -2 -6 0 -2 0 -1 1 1 0 1 2 2 1 1 1 4 0 3 1 0 1 0 0
-2 -1 -1 -1 -3 0 -2 -2 -6 -2 -6 -1 0 -1 0 1 -1 0 -1 -1 -2 -2 -1 -1 -3 0 -3
-1 0 0 0 -1 -5 0 -5 -1 -3 -1 -3 0 -5 -1 -4 0 -4 -1 -3 -1 -6 -1 -5 0 -1 -1 0
-1 1 0 1 -2 -1 -3 0 0 -2 -1 -2 0 -7 0 -7 1 1 1 1 1 0 1 -1 0 -3 0 -3 2 -1 2
0 0 0 1 0 0 -7 -1 -6 0 -2 0 -2 -1 1 -1 0 0 -3 0 -3 1 0 1 0 0 -9 0 -9 1 -7 1
-8 1 -1 1 -1 1 1 1 1 1 -1 2 -1 2 -4 1 -3 0 3 -1 3 1 2 1 2 0 -2 1 -1 1 -5 1
-5 0 -3 0 -3 1 0 1 0 0 -1 0 0 1 -3 1 -3 0 -1 0 -2 1 -3 2 -2 1 -5 2 -5 0 -3
1 -2 -3 0 -2 1 -2 3 -2 3 0 1 -1 0 0 -4 1 -4 0 0 1 0 0 -3 1 -2 1 -2 0 -2 -2
1 -2 1 3 -3 3 -3 -1 -1 -1 -1 1 -1 1 0 -1 -1 0 -1 -1 1 -2 2 -1 3 -2 4 -2 0
-1 1 -1 -3 -1 -3 1 -4 2 -5 0 -2 1 -2 1 -2 1 -2 2 -2 1 -2 2 1 2 0 4 -9 5 -10
2 -2 2 -2 1 0 0 1 -1 2 -2 1 0 1 0 1 1 0 1 0 -1 2 -2 3 1 0 1 1 -1 2 0 2 3 -4
3 -3 3 -5 3 -4 1 0 2 0 3 -5 3 -5 1 0 1 -1 1 1 0 1 -1 0 -1 -1 -1 3 -2 3 2 -1
2 -1 3 -2 2 -2 2 -2 2 -2 0 2 -1 2 0 1 -1 2 3 -4 4 -4 0 -2 0 -2 -3 0 -3 1 -1
-2 0 -2 -1 0 0 0 -3 3 -3 3 2 -3 2 -2 1 -4 1 -3 0 -2 -1 -1 -1 1 -1 1 -1 0 0
-1 -2 2 -2 1 1 1 0 1 -1 0 -1 -1 -1 3 -1 3 -2 3 -2 3 -3 2 -2 3 0 -2 0 -2 5
-8 5 -7 2 -2 2 -1 0 -1 0 -1 -1 1 -2 2 -1 0 -1 -1 2 -3 3 -3 -1 -1 0 -1 2 0 2
-1 1 -2 1 -2 2 -3 1 -2 -1 1 -2 1 0 -1 0 0 -2 2 -2 3 -2 1 -1 1 3 -4 3 -4 1 1
1 0 0 -1 -1 -1 3 -4 2 -3 8 -8 8 -8 5 -5 6 -5 10 -8 10 -8 3 -2 3 -2 2 -1 2 0
0 1 -1 2 3 0 2 1 1 -1 1 -1 2 0 2 0 4 -3 4 -3 8 -5 8 -4 1 0 1 0 -6 4 -6 4 0
0 0 1 3 -1 2 -1 3 -2 3 -2 2 0 2 -1 -2 1 -2 2 -2 1 -2 2 1 1 1 1 5 -3 5 -4 2
1 2 1 10 -5 11 -4 1 -1 2 -1 0 -1 -1 0 -5 3 -6 2 -1 0 0 -1 8 -4 9 -4 7 -2 7
-2 2 -1 3 -1 -1 -1 0 -2 3 0 3 -1 0 -1 0 -1 2 0 2 -1 3 -2 3 -1 11 -1 12 0 5
-1 5 -1 5 0 4 0 0 1 1 1 -3 1 -3 1 -6 0 -5 1 -1 1 -1 1 5 -1 5 0 8 -1 9 -1 11
-1 11 -1 1 -1 1 0 2 0 2 0 3 0 3 1 8 0 9 1 10 1 11 1 0 1 0 1 1 -1 2 -1 6 2 7
1 1 1 1 1 -2 0 -1 -1 0 1 0 1 5 1 4 1 2 -2 2 -2 -1 0 -1 -1 5 1 5 0 3 1 4 1 9
3 10 3 1 0 2 0 1 -2 2 -1 3 2 2 1 -1 1 -1 1 3 2 4 1 4 3 5 2 1 0 0 0 0 -1 -1
-1 1 0 2 0 -4 -2 -3 -2 0 -1 0 0 3 1 3 2 2 -2 1 -1 3 1 2 2 2 2 3 2 5 4 5 3 1
0 2 1 2 1 2 1 1 0 1 0 10 8 11 8 3 3 3 3 4 4 5 3 3 0 2 -1 0 -1 0 -1 1 0 1 0
7 7 6 7 2 2 1 3 1 -1 1 0 0 2 0 2 -2 2 -2 2 1 1 1 1 0 1 0 1 -1 -1 -2 0 0 1 0
1 4 5 4 6 2 2 2 3 7 10 8 10 1 2 1 2 0 -2 0 -2 -4 -5 -3 -5 0 -1 1 0 3 4 3 5
3 2 2 2 0 1 0 1 2 3 2 3 0 2 -1 1 8 15 7 15 1 0 1 1 0 2 0 2 2 4 2 4 0 1 0 2
-3 -7 -3 -6 -1 0 0 1 5 12 5 13 2 3 1 4 2 -1 1 0 0 -2 0 -2 1 1 0 2 3 1 2 2 0
-1 -1 -1 0 0 1 0 2 4 1 3 0 4 0 4 1 0 1 1 1 5 1 6 0 3 -1 4 -3 3 -3 3 0 3 0 3
-1 -2 0 -2 -5 0 -4 0 -3 -1 -3 -1 0 2 0 1 -1 0 -1 -1 -2 2 -2 2 -1 0 0 0 -2 1
-2 0 1 5 0 5 1 1 0 2 0 5 1 6 0 11 1 11 -1 17 -1 17 -1 8 -1 8 -2 0 -1 1 0 -2
1 -1 -2 1 -2 1 -1 -1 -1 0 -1 -3 -1 -2 1 -3 0 -3 1 1 1 1 0 -1 1 -1 -1 -2 -1
-2 0 -6 1 -6 1 -3 2 -3 0 -3 0 -3 1 0 1 0 0 -6 -1 -6 -1 -3 -2 -3 0 -4 0 -4 1
-1 1 0 0 -9 -1 -9 -1 -5 -1 -4 -1 0 -1 0 1 4 0 3 0 0 -1 0 -1 -3 -1 -3 -1 -1
-1 0 -2 0 -2 -1 -1 0 -1 1 -1 -1 -1 -2 -3 -5 -3 -4 -5 0 -5 0 2 -1 3 -1 -4 0
-4 0 -2 1 -2 1 3 0 3 -1 0 1 0 1 -3 0 -3 0 0 3 0 2 -2 3 -2 2 -1 7 0 7 0 1 -1
1 -1 -2 0 -1 -1 0 -1 1 1 7 1 7 0 3 0 3 -1 -2 0 -2 -1 -1 -1 -1 1 2 0 3 -1 18
-1 18 -2 9 -1 9 -1 2 0 3 0 0 0 0 -1 1 0 2 -1 5 -2 6 2 2 1 1 0 0 1 0 2 -4 1
-4 1 0 0 1 -1 4 -2 4 0 1 0 1 -3 7 -3 7 -3 6 -3 6 -1 0 -1 1 0 -1 0 -1 1 -2 2
-1 2 -6 2 -6 -1 1 -1 1 -8 15 -9 16 1 1 0 0 2 -2 2 -2 -1 2 -2 3 -1 1 0 2 -1
1 0 2 2 1 2 0 0 2 0 2 -1 0 -1 1 1 2 0 1 -2 4 -3 5 -4 4 -5 4 -2 5 -2 5 -3 1
-3 1 -2 1 -2 0 -2 0 -2 0 -4 0 -4 -1 -1 -1 0 -1 -2 1 -2 1 -5 4 -4 4 -3 2 -3
1 2 -2 3 -3 -4 2 -3 2 1 1 0 1 -3 2 -2 2 -1 -1 0 0 1 -1 2 -1 -4 0 -3 1 1 -1
1 -1 -1 -2 0 -1 -2 0 -2 0 4 -4 4 -4 3 -2 4 -2 2 -2 2 -2 0 -1 -1 0 -2 1 -3 1
0 0 0 -1 2 -1 1 -2 -1 0 -1 0 -6 4 -5 4 -4 2 -3 3 -5 3 -4 2 -2 1 -1 0 -7 3
-7 3 0 2 1 1 -2 1 -1 1 -2 -1 -1 0 0 1 1 2 -1 0 -1 1 1 2 1 3 5 -3 5 -2 1 0 0
1 -2 0 -2 1 -3 3 -3 2 1 0 1 0 -6 3 -6 3 -1 0 0 1 6 -2 5 -2 1 0 1 1 -8 3 -8
3 -1 1 -1 1 1 0 2 0 3 -1 4 -1 -4 3 -4 4 4 -1 5 -1 3 -1 3 -1 0 2 0 1 2 0 2 0
0 2 1 1 -2 0 -2 0 -4 1 -4 1 1 4 0 5 0 5 1 6 0 1 1 2 1 -1 1 0 0 1 0 1 4 1 3
1 2 -1 1 0 0 -1 0 -1 1 0 2 0 3 -2 3 -3 4 -2 5 -2 5 -2 5 -2 2 1 2 1 1 -1 1 0
-1 1 0 2 -1 0 -1 0 0 1 1 1 -2 2 -3 3 1 1 1 1 3 -1 4 -2 4 -3 5 -3 4 -2 4 -2
1 1 1 1 7 -4 7 -3 3 -3 4 -2 11 -10 12 -9 0 -1 1 0 2 -2 3 -2 -9 8 -9 9 -9 8
-10 9 1 1 1 0 4 -3 4 -2 7 -6 7 -6 1 -2 2 -2 2 -2 2 -1 -2 2 -2 3 1 2 2 1 -4
2 -3 2 -7 5 -7 6 -3 3 -2 3 2 -2 3 -2 1 0 1 0 6 -5 6 -4 1 -2 0 -1 1 0 1 0 7
-6 7 -6 2 -3 3 -2 7 -9 8 -9 5 -6 5 -6 4 -7 5 -7 2 -4 2 -4 0 -1 0 -1 -2 1 -2
1 0 1 1 1 -2 3 -1 4 -1 0 -1 0 2 -2 1 -3 0 -2 1 -2 0 -2 1 -1 -1 -1 -1 0 -9
13 -8 12 -1 2 -1 1 -5 6 -5 6 -3 3 -3 2 -1 -1 0 -2 2 -3 3 -4 3 -3 4 -3 3 -5
4 -4 4 -6 4 -6 2 -5 2 -4 -1 0 -1 -1 -3 5 -4 6 0 1 -1 2 -2 1 -2 0 -9 12 -9
12 -12 12 -12 12 -11 8 -10 8 -5 3 -4 3 -1 -1 -1 -1 2 -2 2 -2 2 0 1 1 -1 -1
0 -2 4 -3 5 -4 3 -2 4 -2 -1 1 -1 1 -7 5 -6 5 1 0 1 0 7 -5 7 -6 5 -4 5 -4 0
-1 0 0 8 -9 9 -8 0 0 1 0 0 -1 -1 -1 7 -7 7 -7 0 -1 1 0 2 -4 2 -3 0 -2 0 -1
3 -4 4 -4 3 -5 3 -5 1 -3 0 -3 -2 -1 -2 0 -2 -2 -2 -1 0 -3 0 -2 2 -2 2 -2 3
-4 2 -4 2 0 1 0 2 0 2 0 3 1 3 1 1 -1 1 -1 1 -3 0 -3 1 -2 1 -2 1 -1 1 -1 1
-3 2 -3 0 1 0 1 -1 2 -1 3 0 0 1 1 2 0 2 1 1 -4 1 -3 1 1 1 0 0 -1 -1 -1 1 -1
1 -1 1 1 1 0 -1 4 0 4 -1 3 -1 4 -2 4 -2 4 -1 3 0 2 1 0 2 -1 0 1 0 2 2 1 3 1
1 -4 1 -3 1 -2 0 -2 1 -1 1 -1 3 -7 2 -7 1 -2 1 -1 1 1 1 1 -1 3 -1 4 1 1 1 2
-1 3 -2 2 0 1 0 2 -2 5 -3 6 0 1 0 0 1 0 1 -1 -1 1 0 2 1 0 1 1 3 -6 3 -5 0 1
0 2 -2 5 -2 5 0 1 0 0 1 0 2 0 2 2 2 3 0 5 1 4 -2 4 -1 4 -3 2 -2 2 -2 0 -1 0
-2 2 -2 2 -1 -1 -1 0 -1 1 0 2 -2 0 -1 0 0 -1 0 0 2 -2 1 -2 -2 0 -2 0 -1 3
-2 4 -3 3 -2 3 3 -6 3 -6 0 -1 0 -2 -1 1 -1 0 0 -1 0 -1 0 -1 0 -1 -3 0 -3 0
-4 7 -4 7 -9 12 -9 12 -15 16 -15 15 0 2 0 1 -1 0 -1 0 0 -1 0 -1 -3 3 -4 3 0
0 0 1 2 -1 2 -2 1 0 2 0 -3 3 -3 2 -2 1 -2 1 1 -1 1 -2 0 -1 -1 0 -3 3 -3 4 0
-1 -1 0 -2 2 -3 2 0 0 0 1 0 1 0 2 -3 1 -3 2 0 0 -1 0 1 -2 1 -2 -1 0 0 0 -7
4 -6 5 -6 3 -5 3 0 0 0 1 1 0 1 -1 0 1 0 2 0 1 0 2 5 -3 6 -2 1 -2 2 -1 1 0 0
0 1 0 1 0 2 -2 2 -2 8 -5 8 -6 5 -5 5 -5 8 -6 8 -6 9 -11 10 -10 -1 -1 0 -1 1
0 1 1 5 -6 6 -6 1 1 0 1 -1 -1 -1 0 0 1 1 2 -3 5 -4 5 0 2 -1 2 7 -8 7 -7 1 1
1 1 1 0 1 -1 0 0 0 1 -2 3 -3 3 -7 8 -6 7 -9 9 -9 9 0 1 1 1 -4 3 -4 4 -2 1
-2 1 0 -1 0 0 -3 2 -2 3 -1 0 0 0 1 -2 2 -1 -2 1 -1 0 -8 6 -8 6 -1 0 0 0 -6
4 -5 3 2 0 2 -1 2 0 2 -1 -4 2 -3 3 1 1 0 2 -1 0 -1 1 1 1 0 1 -5 4 -5 4 -5 2
-6 2 -2 -1 -3 -1 -1 1 -1 1 0 0 0 -1 -7 3 -6 4 -1 0 0 -1 2 -1 2 -1 0 -1 0 -1
-3 1 -2 1 -2 0 -2 0 1 -1 2 -2 -1 -1 0 0 1 0 1 1 6 -3 7 -4 -1 0 0 0 -5 2 -5
1 -1 1 -1 1 -15 5 -14 6 -11 3 -11 4 -12 2 -11 2 -9 2 -8 2 -9 0 -8 1 0 0 0 1
4 0 5 0 11 -1 12 -1 10 -2 10 -2 3 -1 4 -1 1 1 0 1 -1 0 -1 1 -8 2 -8 2 -4 1
-3 1 -13 2 -13 1 -2 1 -2 1 -4 0 -3 1 -4 1 -3 0 -3 1 -2 1 -1 1 -1 2 0 1 1 1
-4 1 -3 1 -7 0 -7 1 -2 -1z m69 -25 l-1 0 -1 0 -1 1 1 0 2 0 0 -1z m12 -1 l2
0 1 -1 1 -1 0 -1 -1 -1 -3 1 -2 2 -1 -1 -2 0 -3 1 -3 1 0 1 0 1 5 -1 5 -1 1 0z
m29 -8 l15 -5 6 -2 6 -2 1 -2 2 -1 1 0 1 0 2 -2 3 -2 2 1 2 0 0 -1 0 -1 1 0 1
1 3 -2 2 -3 0 -1 -1 0 -4 1 -3 2 -3 1 -3 1 2 -2 2 -2 0 0 -1 -1 -5 3 -5 2 1 1
0 1 2 -1 1 0 0 1 -1 1 -1 0 -1 0 -3 1 -3 1 -3 1 -3 1 -1 1 0 0 -2 1 -2 0 -2 2
-2 2 -1 -1 -1 -1 -3 0 -2 1 -4 1 -3 0 -5 3 -5 3 1 0 2 -1 0 1 -1 1 -3 1 -3 1
-1 -1 0 -1 -1 0 -1 0 1 1 2 2 3 -1 4 0 14 -5z m51 -18 l0 -1 0 0 -1 0 0 1 -1
1 1 0 1 0 0 -1z m-252 -2 l-2 -1 -1 0 -1 0 1 2 1 1 2 0 2 0 -2 -2z m-19 -3 l0
-3 -2 -2 -1 -1 -3 0 -3 0 1 2 0 1 -1 0 -1 -1 1 1 2 2 4 2 4 2 0 0 0 0 -1 -3z
m-21 -6 l0 -2 2 0 3 0 -2 -1 -1 0 0 -1 0 -2 -4 -2 -4 -3 0 -1 0 0 1 1 1 0 0
-1 0 -1 -2 -2 -2 -2 -8 -5 -8 -6 -1 0 -1 0 1 2 2 1 -4 -2 -3 -1 -5 -5 -5 -5 1
1 2 1 0 0 0 -1 -2 -2 -2 -1 0 1 1 1 -2 0 -1 -1 -2 1 -1 1 5 5 5 4 -5 -3 -4 -3
-3 -2 -2 -3 -1 0 -1 1 -8 -8 -8 -7 -1 0 0 1 1 1 0 2 1 1 0 1 1 2 1 1 1 0 1 0
-2 -2 -2 -2 0 -1 0 0 0 0 1 0 3 4 4 3 -2 -1 -2 -1 0 1 0 1 7 5 7 4 8 7 8 7 5
4 6 5 10 5 10 6 1 0 1 0 0 -1z m194 -4 l3 -1 -1 -1 0 -1 1 -1 2 -1 -2 0 -1 0
0 -1 1 -1 -1 0 -1 -1 0 -2 0 -1 -4 -10 -3 -9 -1 -2 -1 -2 0 -2 0 -1 -2 0 -1 1
-15 1 -14 1 -11 -1 -11 -1 -8 -1 -8 0 -8 -2 -8 -2 -7 -2 -6 -2 -10 -3 -10 -4
-4 -2 -4 -2 -2 -2 -1 -1 -1 0 -1 0 0 -2 -1 -3 -6 -3 -5 -2 -5 -3 -5 -3 -4 0
-3 -1 0 2 -1 2 -6 -4 -5 -3 -4 -3 -4 -3 0 -3 -1 -3 -4 -3 -4 -4 -2 -5 -1 -4
-2 -2 -1 -2 1 0 1 0 -1 -3 -1 -3 2 0 1 0 0 -1 0 -1 -2 -2 -1 -2 1 1 2 1 1 -1
1 -1 1 0 1 0 1 -2 1 -2 0 1 1 0 2 -2 2 -2 1 0 2 -1 -2 -3 -2 -3 2 1 2 1 0 1 1
1 3 -1 2 -1 2 1 2 1 6 1 6 0 3 2 4 2 2 5 2 5 5 4 5 3 1 1 0 2 -1 -2 -1 -1 -2
0 -2 -1 1 1 1 2 13 6 14 7 4 1 4 1 5 2 5 2 5 0 4 0 1 2 1 2 4 1 4 1 10 2 10 2
4 0 5 1 1 -1 2 -1 -2 0 -2 0 0 -1 0 -2 1 -1 1 0 2 1 1 1 3 0 4 -1 10 0 10 -1
1 -1 1 -1 -1 -2 0 -2 -2 1 -2 1 0 0 -1 0 -1 -2 -1 -2 2 -5 1 -4 -1 -2 -1 -2 0
-5 -1 -5 0 -1 -1 0 -11 -1 -11 0 -2 -1 -2 -1 11 0 12 0 1 0 0 -1 0 -1 -1 -2
-4 0 -3 0 -3 -1 -2 -1 2 0 2 0 0 -1 -1 -1 1 0 1 0 0 -2 1 -2 -7 -1 -6 0 1 2 1
1 -3 0 -3 -1 1 1 0 1 3 0 2 0 -1 1 0 1 -3 0 -3 -1 0 1 1 1 -5 0 -6 -1 0 1 0 1
-2 -1 -2 0 1 -1 2 -1 -1 0 -1 0 -2 -1 -1 0 0 1 1 1 -1 -1 -2 0 0 -1 0 -1 -2 0
-3 -1 -1 -1 -2 0 1 2 0 1 -1 0 -2 -1 0 1 0 1 -2 -2 -3 -1 0 1 0 1 -1 0 -2 0
-1 1 0 1 1 0 1 -1 3 2 2 3 -2 -1 -2 0 -2 0 -2 0 1 -1 0 -1 -1 0 -1 0 0 1 0 1
-2 -1 -2 -1 -2 0 -3 0 -5 -3 -5 -4 -2 0 -1 0 -3 -2 -2 -2 0 0 1 0 -1 -1 -1 -2
-1 0 -1 0 1 1 0 1 -1 0 -1 0 -1 -2 -1 -1 1 1 2 0 0 -1 0 -1 -1 -1 -2 0 0 -1 0
-1 -2 -3 -2 -2 1 1 2 1 1 0 2 1 0 0 0 -1 -6 -4 -6 -4 0 -1 1 0 -3 -4 -2 -3 -2
-1 -1 -1 -3 -4 -2 -4 -2 -1 -1 -1 1 -1 0 -2 -1 0 -1 -1 1 -1 0 -2 -2 -3 -3 -2
-1 -2 -1 -2 1 2 0 3 2 3 2 3 0 1 -1 0 -2 -3 -1 -2 -3 -3 -3 -3 -2 -6 -2 -5 -1
-2 -1 -2 -3 -9 -4 -8 1 0 0 -1 2 0 2 0 2 8 2 8 2 4 2 4 2 0 2 1 0 2 1 2 -1 -1
-1 0 0 1 0 0 2 2 2 3 3 3 3 3 0 -1 0 -1 -4 -6 -4 -6 0 -3 -1 -2 -2 -6 -2 -5
-2 -11 -3 -10 -1 0 -1 0 -2 0 -2 0 0 3 0 3 -1 0 -1 0 0 -3 1 -2 -2 0 -1 0 0
-2 0 -2 -1 0 -1 0 0 1 -1 2 0 -3 0 -2 -1 -2 -1 -2 -1 1 -1 0 -2 -3 -2 -3 0 -2
0 -2 -1 1 -1 0 0 -3 0 -2 0 -3 0 -3 1 -5 1 -4 -3 -3 -3 -3 1 -5 0 -4 0 -5 1
-5 1 -5 2 -5 2 -3 1 -3 2 0 2 -1 1 1 0 1 5 -9 4 -9 1 0 0 1 -1 1 -1 2 -2 7 -3
7 0 1 1 0 2 -2 2 -1 0 1 0 2 1 -1 2 0 0 1 0 1 1 0 1 0 4 -8 4 -8 3 -4 3 -3 -7
13 -6 13 -1 4 0 4 2 -3 3 -3 0 4 0 4 1 -1 1 -1 2 2 1 1 1 -1 2 -1 0 -2 0 -1 1
0 1 0 0 2 0 1 2 1 1 0 3 -2 2 -3 2 1 2 0 0 0 1 0 -1 1 0 2 2 -3 3 -3 6 -13 6
-12 1 -1 1 0 3 -4 4 -4 -2 0 -1 1 -7 8 -6 8 -2 2 -2 3 2 -4 1 -4 4 -5 4 -5 4
-5 5 -5 0 -1 0 -1 -8 8 -7 8 -4 4 -3 4 -1 1 0 1 -1 -1 -1 0 2 -3 2 -3 0 -1 0
-1 11 -11 10 -11 -2 1 -1 0 1 -1 1 -1 0 -2 0 -2 -1 0 -1 0 3 -4 2 -3 -1 0 -1
0 -4 4 -4 3 -3 4 -3 3 -5 5 -5 6 -3 3 -3 4 4 -6 3 -5 4 -3 3 -4 0 -1 -1 -1 1
0 1 0 7 -7 7 -7 -1 0 0 0 -1 0 -1 0 3 -3 4 -3 2 -1 2 0 -1 -1 0 -1 1 0 2 0 1
-1 1 -2 1 0 1 0 -2 1 -1 2 0 0 1 0 2 1 3 0 3 -1 3 -2 0 0 1 0 -2 3 -3 2 1 1 1
0 3 -1 3 -2 6 -2 6 -1 0 -1 0 -1 2 0 2 0 0 -1 -1 0 3 -2 4 -2 4 -1 5 -1 0 -2
-1 -1 2 0 2 -1 0 -1 -1 -1 -3 1 -4 0 -1 1 0 1 -2 0 -3 0 -11 4 -12 3 -1 0 0
-1 6 -1 5 -2 -1 -1 -1 -2 4 -1 4 -2 6 -2 6 -2 2 -1 2 -1 5 0 5 -1 6 -1 7 0 2
-2 1 -1 0 -3 0 -2 3 -1 3 -2 0 1 0 1 1 0 1 -1 1 -2 0 -2 1 -1 1 -1 2 1 2 0 0
2 0 1 1 0 1 -1 0 1 0 2 1 0 2 0 1 1 1 1 8 0 8 1 8 2 8 2 0 1 -1 0 -3 -1 -4 -1
-1 0 -1 1 2 2 2 2 5 2 5 2 2 0 3 1 0 -1 -1 -1 1 0 2 0 7 4 7 3 0 2 0 2 2 0 2
1 6 5 7 4 1 0 1 0 -1 -1 -1 -1 -3 -2 -2 -3 5 3 5 3 3 2 2 2 3 3 3 3 1 3 1 4 3
3 3 2 7 9 6 9 2 1 2 0 1 3 1 3 4 -1 4 -2 3 0 4 -1 2 3 2 2 1 -1 1 -1 -1 -1 -1
0 0 -2 -1 -2 1 -2 2 -3 -1 -1 0 -1 1 0 1 1 1 -2 1 -2 0 -2 -1 -1 -5 -7 -4 -7
-3 -5 -3 -4 -2 -2 -2 -1 -5 -5 -6 -5 -1 0 0 1 4 4 3 4 0 0 -1 0 -5 -6 -5 -5 1
1 2 1 1 0 0 -1 -4 -4 -4 -4 -3 -2 -3 -3 -7 -4 -6 -4 0 -1 -1 -1 4 1 4 2 0 -2
0 -2 1 0 0 -1 2 1 2 1 3 3 2 3 3 2 4 1 2 2 2 3 1 0 1 0 0 -1 1 -2 -6 -4 -5 -4
0 -1 0 -1 1 1 1 0 -1 -2 -2 -3 -8 -5 -8 -5 -3 -3 -3 -3 2 1 2 1 7 4 8 3 6 4 6
4 7 7 8 6 9 11 9 11 1 0 1 0 6 8 6 9 1 0 1 0 -1 -1 0 -2 2 1 2 0 0 -1 -1 -1 2
1 2 0 0 -1 0 -1 2 1 3 0 4 2 4 2 2 5 1 5 1 0 1 1 0 3 0 2 3 2 4 2 3 6 3 7 1 0
1 1 8 0 8 0 2 0 3 0 0 -2 0 -2 2 -1 1 -1 0 -2 0 -3 -3 -7 -3 -7 -2 -3 -1 -2 0
-3 1 -2 -4 -8 -4 -8 1 0 2 1 0 -1 0 0 -2 -4 -2 -4 -4 -6 -3 -5 -6 -8 -6 -8 -6
-7 -5 -6 -6 -6 -5 -6 -1 1 -1 0 0 -2 -1 -2 -1 0 0 0 -4 -4 -4 -3 -1 1 0 1 -2
0 -2 0 -7 -7 -7 -7 -4 -3 -4 -2 -7 -6 -7 -5 -6 -3 -5 -2 -3 -2 -3 -2 -2 -1 -3
0 -5 -2 -6 -3 -3 -3 -3 -4 -6 -1 -6 -2 -7 -3 -7 -2 -3 0 -3 0 -6 -1 -5 -2 -5
0 -5 -1 -1 2 -1 3 -4 0 -3 0 -3 -3 -3 -2 -12 -1 -11 0 -3 -1 -3 -1 -2 1 -2 0
-5 1 -4 0 -13 1 -12 1 -3 1 -2 0 0 2 0 1 -1 0 -1 0 0 2 0 2 -1 1 -2 1 -1 2 -2
3 1 0 1 1 -1 2 0 2 1 0 1 0 0 1 0 1 -1 1 0 1 -2 0 -2 0 -2 1 -2 1 0 -1 -1 -1
-3 1 -3 1 -1 -1 -2 -1 0 -2 0 -2 -2 -2 -3 -1 0 -1 0 -2 -1 -1 -2 -2 -5 1 -6 2
-11 5 -11 4 -3 2 -3 3 -5 2 -4 3 -2 -1 -1 0 0 1 1 1 -1 0 -2 0 -3 2 -2 1 -2 2
-1 2 -4 0 -4 1 -2 2 -3 2 -6 4 -7 5 -1 -1 0 -1 0 0 1 -1 4 -2 4 -3 2 -2 3 -3
1 0 1 0 1 -2 1 -1 -4 2 -3 1 -5 4 -4 5 -5 3 -4 3 -1 1 0 1 -6 4 -5 4 0 0 -1 0
0 -1 0 -2 1 0 1 1 5 -5 6 -5 0 -1 0 -1 -1 0 -2 0 -3 3 -3 4 -3 1 -2 2 2 -2 3
-3 -2 1 -2 1 -5 4 -4 5 0 0 1 0 3 -2 4 -2 -3 2 -3 3 0 1 0 1 1 1 1 1 -2 1 -2
2 -1 0 -1 0 1 -1 1 -2 -1 0 0 0 -3 2 -2 2 1 -1 0 -2 1 0 1 0 0 -3 0 -3 -1 1
-1 1 -1 0 -1 -1 -3 3 -2 3 -7 7 -7 8 -1 4 0 4 -5 5 -6 5 1 1 0 1 -2 2 -1 3 -1
-1 -1 0 1 2 0 1 -1 0 -1 -1 0 1 -1 1 1 0 1 0 0 3 0 3 1 2 2 3 2 -2 2 -2 0 -1
0 -1 1 -1 2 -1 3 -5 3 -6 1 -1 2 0 -2 2 -2 3 0 3 0 3 -2 0 -1 0 -3 4 -2 4 0 2
0 2 -3 5 -3 6 1 0 0 0 -2 3 -3 4 -3 8 -4 8 1 1 1 1 -1 1 -1 1 -1 2 0 1 -1 2
-2 1 -2 5 -2 6 -1 5 -1 6 0 2 0 2 -1 0 -1 1 -2 11 -1 11 1 1 2 1 1 -1 2 0 2 1
3 2 1 4 1 5 1 1 1 1 0 2 -1 3 -3 1 -3 1 0 2 0 2 -1 0 -2 0 -2 1 -3 2 1 5 0 5
1 2 1 3 1 0 1 1 -1 -1 0 -2 1 0 1 0 0 3 -1 2 1 1 1 0 -2 3 -1 3 0 6 1 7 1 6 2
7 -2 2 -1 1 -1 -1 -1 0 0 4 1 5 1 4 1 5 2 5 3 5 -1 2 0 2 2 4 3 4 1 1 2 0 -1
-3 -1 -2 1 0 1 0 4 8 4 8 -1 1 0 1 1 0 1 -1 0 2 0 1 1 0 1 -1 0 1 0 2 3 4 2 3
3 2 4 1 2 3 2 3 0 1 -1 2 2 3 2 4 -1 1 0 1 3 0 4 0 1 -1 0 -1 2 0 3 0 2 3 2 2
0 5 0 4 5 5 5 5 4 3 4 2 1 3 1 2 3 2 2 1 0 2 0 1 1 0 1 0 0 2 0 2 1 1 1 1 0 5
1 4 2 1 2 1 3 2 4 3 2 0 2 1 0 2 0 2 2 1 2 1 -1 0 -1 0 -7 -5 -7 -4 -2 0 -1 1
2 2 1 2 9 6 10 6 6 3 6 3 1 0 1 0 0 -1 0 -1 2 1 2 0 2 3 2 3 6 3 6 2 7 3 7 3
6 2 7 3 8 2 8 2 12 3 12 2 4 0 3 0 0 -2 -1 -2 2 -1 3 -1 0 -1 0 -1 1 0 1 1 4
-4 4 -4 2 1 2 0 2 0 3 1 -1 1 0 1 2 0 2 0 2 3 3 3 0 1 0 1 2 1 1 1 0 -1 0 -1
2 -1 3 -1 2 2 2 1 10 0 11 0 5 0 6 -1 -1 1 -1 0 -3 1 -3 0 -2 0 -2 1 -5 0 -4
0 0 1 0 1 9 0 10 -1 3 -1z m130 -4 l6 -3 9 -8 10 -8 1 -1 1 -2 -1 0 -1 0 0 -1
0 -2 -1 0 -1 0 -1 1 0 1 1 0 2 -1 -3 2 -2 2 -5 4 -4 4 -2 1 -1 1 -9 6 -10 6 1
2 1 1 2 -1 2 0 5 -4z m-353 -1 l-1 -2 -9 -7 -9 -7 -4 -3 -3 -3 -1 0 0 1 6 6 7
6 5 3 5 3 2 3 3 2 1 0 0 0 -2 -2z m30 0 l-1 -1 -1 0 -1 0 1 1 2 1 0 0 0 0 0
-1z m256 -7 l3 -1 0 -1 0 -1 -2 -1 -2 -1 0 1 0 1 -5 2 -5 2 1 1 0 2 4 -1 4 -2
2 -1z m-57 -1 l0 -2 0 -2 -1 -1 -1 0 -1 1 1 3 1 2 1 0 1 0 -1 -1z m-2 -8 l0
-2 -1 -1 -1 0 0 1 1 2 0 1 0 1 1 0 1 0 -1 -2z m10 -6 l0 -2 -1 -1 -1 0 0 1 1
2 -1 0 -1 0 2 1 2 1 0 0 0 0 -1 -2z m-12 -1 l-1 -2 1 0 1 0 0 -1 -1 -1 1 0 1
0 0 1 1 2 -1 -3 0 -2 -1 -3 -1 -2 -2 1 -2 0 0 2 0 1 2 4 1 4 1 0 1 0 -1 -1z
m167 -8 l8 -7 -2 -1 -2 0 -5 5 -5 4 -2 3 -2 3 0 0 0 1 1 0 1 0 8 -8z m-160 -1
l0 -1 -1 -1 -2 -1 0 1 0 2 1 0 0 1 1 0 1 0 0 -1z m1 -2 l0 -2 -1 0 0 0 0 2 0
1 1 0 1 0 -1 -1z m18 -18 l-1 0 -1 0 -1 1 1 0 2 0 0 -1z m13 -8 l0 -1 -1 0 -2
0 0 1 0 1 1 0 1 0 1 -1z m-173 -3 l-2 -1 -7 -3 -6 -3 -1 0 0 1 3 1 3 1 -1 1 0
1 5 2 6 2 1 0 1 0 -2 -2z m-18 -9 l-1 -1 -1 0 -1 0 1 1 1 2 -1 0 0 1 1 -1 2 0
-1 -2z m-4 -2 l0 -1 -1 0 -1 0 1 1 0 1 1 0 0 0 0 -1z m-19 -1 l-1 -1 -3 -2 -3
-2 3 3 3 3 1 0 0 0 0 -1z m13 -4 l-2 -1 -1 0 0 1 0 1 1 1 2 0 1 0 -1 -2z m182
-1 l2 -1 -2 1 -1 0 0 0 1 -1 0 0 1 0 4 -1 3 -2 1 0 0 0 -1 1 -1 2 2 -1 2 0 0
0 0 0 3 -1 3 0 -4 2 -3 2 0 1 1 0 1 -1 1 -1 2 1 1 1 5 -2 6 -2 1 -2 2 -2 1 1
2 0 0 -1 0 -1 1 0 1 0 3 -1 3 -1 4 -2 4 -2 0 -3 0 -2 2 -1 3 -2 0 -2 0 -3 -1
0 -1 0 1 -1 0 -1 2 2 2 2 2 -1 2 -1 0 -2 0 -2 -1 1 -1 0 0 -2 0 -2 -1 0 -2 0
-6 7 -6 6 -1 0 -1 0 -1 -2 -1 -3 -4 2 -3 3 0 0 0 1 1 0 1 0 0 0 1 0 -2 2 -1 1
1 0 2 -1 0 1 -1 1 -2 0 -2 1 0 -1 0 -1 -1 1 -1 0 0 -1 0 -1 -3 0 -3 1 2 -2 2
-2 6 -3 6 -3 0 -1 -1 0 -2 1 -2 1 -2 -2 -1 -1 0 -4 1 -4 1 -1 1 0 -4 -7 -3 -6
-1 0 0 0 -3 3 -3 2 -2 1 -2 0 -6 1 -5 0 -4 3 -4 2 -3 0 -3 0 -6 1 -5 1 -3 3
-3 3 1 1 0 1 -1 1 -1 2 2 4 1 4 0 -2 0 -1 1 0 1 0 1 3 1 3 -1 1 0 1 1 0 1 0 0
2 0 2 1 0 1 1 0 -1 1 -1 2 1 1 0 -1 2 -1 1 4 0 3 0 -2 1 -1 2 2 -1 2 0 0 1 0
1 -1 1 -1 1 3 0 3 -1 -1 1 0 1 1 0 1 0 2 -2z m-34 -3 l-1 -4 -1 -1 -1 0 0 4 1
3 1 1 0 1 1 0 0 -1 0 -3z m11 -3 l0 0 2 1 2 1 1 0 0 -1 -2 -4 -2 -4 -1 -1 -1
-1 0 1 1 2 -1 0 -1 0 -1 -3 -1 -3 -1 -4 0 -3 -1 -1 0 0 0 6 1 6 2 6 1 6 1 -2
0 -2 1 0z m99 0 l0 0 -2 1 -1 2 2 -1 2 -1 -1 -1z m-3 -2 l4 -3 -1 -1 0 0 -5 4
-6 3 0 1 0 0 2 0 1 -1 5 -3z m11 -4 l0 0 -2 1 -2 1 -1 2 -1 1 3 -2 3 -2 0 -1z
m-122 -8 l-2 -5 0 -1 -1 0 1 4 0 4 1 2 1 2 0 0 1 0 -1 -6z m-287 -3 l-3 -5 0
0 -1 0 0 2 1 2 3 2 3 3 0 0 0 0 -3 -4z m374 -8 l0 -1 -1 1 -2 0 0 1 0 1 2 -1
1 0 0 -1z m-1 -2 l1 -1 0 1 0 1 1 0 2 0 2 -3 3 -3 -3 -1 -3 -2 0 -3 1 -3 6 -6
5 -5 2 1 2 2 1 -1 2 -1 6 -7 6 -7 0 -5 1 -4 2 -2 3 -3 2 1 2 1 2 -3 2 -2 3 -7
4 -7 2 -5 2 -5 2 -3 2 -2 1 1 1 1 2 -6 2 -6 2 -9 2 -8 0 -3 0 -3 -1 0 -1 0 1
-6 1 -6 0 -11 0 -11 -1 -3 0 -2 -2 -1 -1 0 -10 0 -10 0 -1 -2 -1 -1 -2 0 -2 0
1 -1 0 -1 -2 0 -2 0 0 1 -1 1 -1 0 -1 0 0 -1 0 -2 -2 0 -1 0 0 6 1 6 -2 -5 -1
-4 0 -1 -1 0 1 19 0 20 1 6 0 7 -1 2 -1 3 -1 1 0 2 -1 1 -1 2 -2 7 -2 7 -4 8
-5 9 0 2 0 1 2 0 1 0 -1 2 0 2 0 2 -1 2 0 0 0 0 0 1 -1 2 -1 3 -2 4 -3 3 -4 4
-4 1 -4 1 3 3 3 3 0 2 0 2 -3 0 -2 0 -2 -3 -1 -3 -3 -1 -2 0 0 2 0 1 -1 0 -1
0 0 2 -1 2 -1 0 -1 0 0 2 0 3 -1 -2 -1 -1 -1 0 0 1 0 1 1 1 2 1 2 1 -1 -2 0
-2 1 1 1 0 0 2 0 2 6 6 6 7 0 1 0 1 -1 0 -1 0 -2 -2 -3 -2 -3 -5 -3 -4 -1 0 0
0 -2 -1 -2 -2 0 2 -1 2 2 3 1 3 6 6 7 6 1 -1 2 0 0 -1z m-65 -4 l1 -1 1 0 0
-1 2 0 2 0 0 -1 0 -1 -4 0 -3 1 -2 1 -2 1 0 1 0 1 2 0 2 -1 1 0z m4 -6 l3 -1
-2 0 -1 0 1 -1 2 -1 -2 0 -1 0 -1 1 -2 2 0 -1 -1 0 -2 1 -3 1 1 1 0 1 2 -1 3
0 3 -2z m-281 -5 l-3 -4 0 -1 0 -1 -4 -6 -3 -6 -1 -1 -1 -1 1 2 0 3 4 8 4 8 2
2 2 3 1 -1 0 -1 -2 -4z m-54 2 l-1 -3 -1 1 0 0 1 2 2 3 0 0 1 0 -2 -3z m273
-2 l0 -1 -1 0 -1 0 0 1 0 1 0 0 1 0 1 -1z m12 -12 l0 -3 -2 0 -1 -1 -8 -1 -7
0 -1 -1 -1 0 -4 -1 -5 0 0 1 0 1 1 0 2 0 -3 1 -2 1 2 1 3 1 8 1 7 2 1 1 0 0 5
0 5 0 0 -3z m141 -1 l0 0 -2 1 -2 1 -1 1 0 1 2 -2 3 -1 0 -1z m48 -3 l2 -3 0
0 -1 -1 -2 4 -2 3 1 0 1 0 1 -3z m-188 -2 l1 0 -2 -2 -2 -1 2 0 3 0 -2 -1 -1
-1 -3 0 -3 0 4 -1 4 -1 0 -2 0 -2 -1 1 -1 2 -1 -4 -1 -4 -1 -2 -2 -2 -1 -6 -1
-6 0 -4 0 -3 1 1 1 2 0 0 1 0 -1 -2 0 -2 1 0 1 0 0 -3 0 -4 -2 0 -1 -1 -1 1
-1 0 1 2 0 2 -1 -2 -1 -2 -2 -1 -1 0 -1 0 -2 0 1 -2 0 -1 -2 0 -3 1 -4 -3 -3
-2 0 2 0 2 0 4 0 4 -4 4 -4 4 -4 0 -4 0 -4 1 -4 2 0 2 0 2 1 0 2 0 4 2 5 2 1
0 1 0 0 1 -1 0 2 2 3 1 0 0 1 0 0 0 -1 1 2 4 1 3 -1 0 -1 0 4 1 4 2 4 1 4 1
-1 2 0 1 -6 0 -5 -1 1 1 1 1 8 2 8 2 5 -1 5 0 0 0z m50 -3 l0 -1 -1 -1 -1 -1
3 -1 3 -1 1 -2 0 -2 1 0 1 0 0 -1 -1 -1 1 0 2 0 -2 -1 -1 0 -5 3 -6 2 -1 0 0
-1 5 -3 6 -2 0 -1 -1 0 -3 2 -4 1 -1 0 0 -1 3 -2 4 -1 2 -2 3 -3 -2 -2 -1 -3
-6 -6 -6 -7 -2 0 -2 -1 -1 1 0 1 1 0 1 0 0 1 -1 1 -1 -1 -2 0 0 2 -1 1 -1 -1
-1 0 1 1 2 2 -1 0 -2 0 1 1 0 2 -3 1 -3 1 0 1 0 1 1 0 2 0 -2 1 -1 1 1 1 1 2
-1 3 0 3 -1 -1 -1 0 0 2 1 3 0 1 0 1 4 -1 4 0 4 -2 4 -1 1 0 0 1 -6 2 -6 2 0
1 0 1 1 0 0 1 3 -1 3 -1 -2 1 -2 2 2 0 2 1 -1 2 0 1 2 1 2 1 3 -2 3 -1 1 -1z
m-136 0 l-2 -2 -1 1 0 0 2 2 2 2 1 -1 1 0 -3 -2z m279 -4 l0 -1 -1 1 -1 2 0 0
0 1 1 0 1 -1 0 -2z m-216 0 l-3 -1 -1 0 0 1 2 1 3 1 1 0 2 0 -4 -2z m30 -3 l0
-2 -1 -2 -1 -1 0 3 0 4 1 0 1 0 0 -2z m15 -8 l-1 -1 0 1 0 2 1 0 0 -1 0 -1z
m140 -4 l0 -1 -1 2 -2 3 0 1 0 1 2 -3 1 -2 0 -1z m-94 -1 l0 -1 -1 0 -1 0 0 1
-1 1 1 0 1 0 1 -1z m-114 -2 l-2 -2 -1 1 -1 0 1 1 2 1 1 0 2 0 -2 -1z m118 0
l1 -1 0 0 0 1 3 -3 3 -3 -1 -1 -1 0 -4 4 -4 4 1 0 1 0 1 -1z m-9 -2 l2 -2 1 1
0 1 0 -2 0 -1 -5 -4 -4 -5 -1 0 -1 0 -2 0 -1 0 0 -1 0 -1 -3 -2 -2 -3 -1 0 -2
0 0 2 1 1 7 9 8 8 1 0 1 0 1 -1z m10 -9 l1 -2 3 -4 4 -4 4 -6 5 -6 2 -4 1 -4
1 -4 2 -4 -2 0 -3 0 0 -3 0 -3 3 -6 2 -6 2 0 2 -1 0 -3 1 -3 0 -4 0 -3 -2 -2
-2 -2 0 -1 0 -2 -1 -1 -1 -1 1 -1 2 -1 0 -1 0 -1 -1 -2 -2 -2 -9 3 -9 4 -1 0
0 0 -4 2 -3 1 1 2 0 3 -1 1 -1 2 -4 1 -4 1 -2 0 -2 -1 0 1 0 1 -3 2 -3 1 -2 3
-1 3 -5 2 -4 2 -1 -1 -1 -1 -3 0 -3 1 0 2 0 2 -2 1 -1 1 1 1 2 2 2 0 2 0 -2 2
-2 1 1 0 2 -1 3 4 4 5 -1 0 0 1 -2 -1 -1 -1 1 2 2 2 2 0 1 -1 1 2 1 2 1 -1 1
0 0 1 0 1 -1 0 -1 0 -1 -1 -1 -1 -1 0 0 1 4 3 3 4 2 1 3 1 -1 0 0 1 0 1 0 1 2
0 1 0 0 1 -1 1 2 0 2 -1 0 2 1 2 0 0 1 0 3 3 3 3 1 0 2 0 1 1 1 2 -1 0 -1 1 0
1 1 1 1 0 1 0 1 -1z m-184 -5 l-1 -1 -1 -3 0 -2 2 3 2 4 1 0 1 0 0 -1 0 0 -3
-6 -3 -5 -1 1 -1 0 -2 -2 -1 -3 -2 0 -1 0 0 1 0 0 5 8 4 8 1 0 0 0 0 -2z m128
-1 l0 -3 -2 -6 -1 -5 -1 0 0 0 -2 1 -1 1 0 6 1 6 2 2 1 1 2 0 2 0 -1 -3z m15
2 l0 -1 -1 0 -1 0 -1 0 -1 0 1 -2 2 -1 -2 0 -1 1 -3 -3 -4 -2 0 0 -1 1 1 4 1
4 4 0 5 0 1 -1z m-138 -5 l0 -2 -1 0 -1 0 0 1 0 1 1 1 1 1 1 0 0 -1 -1 -1z
m139 -6 l-2 -1 -1 0 0 1 1 2 2 1 1 -1 0 0 -1 -2z m8 -6 l-5 -4 -1 0 -1 0 0 -1
1 0 -2 -3 -2 -2 -2 -3 -2 -3 -3 -1 -3 -2 0 2 0 1 2 3 3 2 -1 1 0 0 -1 -1 -1
-1 -1 0 -1 0 1 1 1 2 -1 0 0 1 1 0 1 0 1 1 0 1 -1 -1 -1 0 1 1 1 2 1 0 0 -1 2
2 2 2 -2 -4 -2 -4 5 4 4 4 3 2 3 2 -3 -1 -2 -2 -1 0 -1 0 2 2 2 3 4 0 3 0 -4
-5z m230 -1 l0 -1 -1 1 -1 0 0 3 0 4 1 -3 1 -2 0 -2z m-530 -3 l-1 -6 0 -5 0
-5 -1 0 -1 0 1 6 0 7 1 5 1 5 1 0 0 -1 -1 -6z m191 4 l3 0 1 -4 0 -3 4 -4 3
-3 -1 -3 -2 -3 0 0 0 -1 -2 -3 -1 -3 -1 -4 0 -3 3 -2 2 -2 1 0 1 0 0 -1 0 -1
3 0 2 -1 -1 -1 0 -1 1 -2 1 -1 0 -4 -1 -4 1 0 1 0 0 -1 0 -2 1 0 1 0 0 -2 1
-2 4 -1 4 -1 4 0 5 0 0 -2 0 -1 -1 -2 -1 -1 1 -1 1 -1 1 -4 0 -3 0 -1 0 -1 1
0 1 0 0 -2 -1 -2 2 0 1 0 0 -4 -1 -3 -1 -6 0 -6 -1 -2 -1 -1 0 -3 -1 -2 2 -4
1 -4 0 -4 0 -3 -2 -3 -1 -4 -1 -1 -2 0 -1 -4 -2 -3 -1 0 -1 0 1 -2 0 -1 -3 0
-3 1 1 -1 2 -1 -2 0 -1 0 -4 2 -3 3 -6 3 -6 4 -6 5 -6 6 0 1 1 0 3 -3 3 -3 6
-4 6 -4 1 0 1 0 0 1 0 1 -7 5 -8 6 -4 5 -5 5 -2 -1 -1 -1 -3 1 -2 1 -3 4 -3 4
-2 4 -3 5 -1 4 -2 4 2 1 1 2 1 -2 1 -2 0 1 0 1 -1 4 -2 4 0 3 0 3 1 1 1 1 0 2
1 3 -2 4 -2 4 0 5 0 6 1 3 1 3 2 0 2 0 0 -1 1 -1 4 1 5 1 1 3 0 2 0 2 0 2 -3
2 -2 1 -1 1 -1 1 -3 0 -2 1 2 2 3 3 0 3 -1 2 2 4 2 5 3 4 3 4 4 -1 3 -2 4 1z
m92 -2 l0 -1 -2 -2 -3 -2 0 1 -1 2 1 1 0 2 3 0 2 0 0 -1z m-111 -3 l-2 -3 0 0
-1 0 1 2 0 2 1 1 1 1 1 0 0 0 -1 -3z m-214 0 l-1 -1 0 1 0 2 1 0 0 -1 0 -1z
m300 -1 l0 -1 -1 0 -1 0 0 1 0 1 0 0 1 0 1 -1z m-4 -1 l0 -1 -1 0 -1 0 0 1 0
1 1 0 1 0 0 -1z m8 -2 l0 -1 -1 0 -2 0 0 1 0 1 2 0 1 0 0 -1z m-266 -2 l0 -3
-1 0 0 0 0 3 0 2 1 0 1 0 -1 -2z m274 0 l0 -2 -2 -2 -2 -2 1 1 0 2 -1 -2 -2
-1 -1 2 -2 1 1 1 2 1 -2 0 -2 0 2 1 2 2 3 0 3 0 0 -2z m-49 -1 l1 -1 -1 0 -1
1 -1 1 0 1 1 0 1 0 0 -2z m72 0 l-1 -1 -1 1 0 0 1 1 2 1 0 0 0 0 -1 -2z m-159
-3 l0 -3 1 2 2 2 0 1 0 1 1 1 1 0 0 -1 -1 -2 -1 -7 -1 -6 -1 -1 -1 -1 0 1 0 1
-1 0 -2 -1 0 3 0 3 2 6 1 5 1 0 0 0 -1 -4z m33 2 l-1 -1 1 1 0 2 1 0 0 -1 -1
-1z m122 -2 l0 -1 -4 -4 -3 -4 -1 0 -1 0 3 3 3 3 1 2 2 2 1 0 0 0 -1 -1z
m-125 -2 l1 0 0 -2 -1 -1 -2 -6 -1 -6 -1 -12 -1 -11 -2 1 -1 1 1 12 1 12 2 5
1 6 1 1 0 1 1 -1 0 -1 1 1z m-169 -4 l-1 -1 0 0 0 1 1 1 0 2 1 0 0 -1 -1 -2z
m0 -7 l-1 -2 0 4 0 4 1 -2 0 -2 0 -2z m537 -10 l0 -12 -1 -9 -1 -9 -2 -10 -1
-9 -1 0 -1 0 0 1 1 1 2 14 2 14 -1 16 0 16 1 0 0 1 1 -1 1 -1 0 -12z m-250 8
l2 -2 -1 -2 0 -2 -1 -1 -1 -1 -2 1 -1 0 1 1 0 1 -1 0 -2 0 0 2 0 2 2 1 1 2 1
0 0 0 2 -2z m-328 -4 l-1 -1 0 2 0 3 1 -2 0 -1 0 -1z m445 -8 l1 -7 -1 -10 -1
-10 0 0 -1 -1 -2 1 -2 0 0 3 0 4 2 2 2 2 0 8 0 9 -2 0 -1 0 -1 1 0 2 2 2 2 3
1 -1 0 0 1 -8z m-446 2 l-1 -1 0 1 0 2 1 0 0 -1 0 -1z m492 -12 l0 -11 -1 -2
-1 -2 0 6 1 6 0 8 0 7 1 0 0 -1 0 -11z m-168 9 l-1 -1 0 1 0 1 1 0 0 1 1 -1 0
0 -1 -1z m107 -7 l-1 -1 0 3 0 4 1 -2 0 -2 0 -2z m-431 -16 l0 -3 0 0 -1 1 0
4 -1 5 1 -2 1 -1 0 -4z m390 0 l10 -4 -1 -1 0 -1 0 -2 0 -2 -4 1 -4 1 -3 2 -3
1 -2 0 -1 0 1 1 2 1 -2 0 -1 0 1 2 0 2 -3 1 -3 2 2 0 2 0 9 -4z m-58 -1 l1 0
0 -2 0 -1 -1 0 -1 1 -1 2 0 2 1 -2 0 -1 1 1z m-34 -4 l0 -2 -1 -1 -1 0 0 -3 1
-2 -3 0 -2 0 0 3 -1 2 1 2 0 3 3 0 3 0 0 -2z m187 0 l2 -1 0 -2 0 -1 -3 -3 -3
-3 0 2 0 3 -2 1 -1 2 0 1 0 0 2 1 2 1 1 0 1 0 1 -1z m-446 -3 l-1 -1 0 1 0 2
1 0 0 -1 0 -1z m5 -6 l1 -5 2 -10 2 -9 2 -6 2 -6 -1 -1 -1 0 -1 2 -1 2 0 3 -1
4 -2 6 -2 7 -1 10 -2 10 1 0 0 1 1 -1 1 -1 0 -6z m353 2 l2 -1 3 -1 4 -1 0 -1
0 0 -1 -2 0 -1 -9 3 -8 3 0 -1 0 -1 3 -1 3 -1 -4 0 -3 0 1 -1 1 -1 -1 -1 0 -1
1 1 1 0 3 0 2 1 -1 -2 0 -1 1 0 2 0 0 -1 0 -1 -1 0 -1 0 -5 1 -4 1 -6 2 -5 1
1 2 1 2 -1 1 0 0 1 0 1 -1 1 2 1 1 2 1 3 0 -1 -1 0 -1 1 0 1 1 -1 1 0 1 -2 0
-1 -1 0 1 0 1 3 0 3 1 4 -1 4 -1 1 -2z m-69 1 l2 -1 0 -2 0 -2 0 -14 0 -14 -1
-9 0 -8 1 0 1 1 0 6 1 6 0 3 1 4 0 8 1 8 1 1 0 2 0 1 0 2 1 1 2 2 5 -1 5 -2 4
-2 5 -2 4 -1 4 0 1 1 2 0 1 1 1 0 2 1 2 0 0 -1 -1 -1 1 1 2 0 2 -1 3 -1 -1 -2
-1 -1 1 0 1 1 2 -1 3 0 0 -2 0 -1 -2 1 -1 1 -1 0 0 -1 2 -2 2 -3 3 0 2 -1 2 3
1 3 2 0 2 0 0 -1 0 0 -4 -7 -3 -6 1 1 1 1 3 4 4 5 1 -1 1 0 -1 -2 -2 -2 0 0 0
-1 3 3 3 4 0 -2 0 -1 -2 -2 -1 -2 2 1 2 2 2 0 3 0 0 -1 0 -1 -2 -1 -1 -1 1 2
0 2 -1 -2 -2 -2 0 -1 0 -1 -1 0 -1 1 0 -3 -1 -2 -3 -4 -4 -5 -1 1 0 1 0 -2 1
-1 -6 -6 -6 -6 -8 -5 -7 -6 -4 -1 -3 -2 -5 1 -5 1 -2 0 -1 -1 -1 2 -1 2 -6 -2
-5 -1 -3 0 -2 1 -1 5 0 5 0 1 -1 0 0 -4 0 -5 0 -1 0 -1 -2 -1 -2 0 0 1 0 1 -2
0 -1 0 0 1 0 1 -1 0 -1 0 1 -2 0 -2 -2 0 -3 0 1 5 0 5 2 2 2 2 0 2 0 1 1 0 1
0 0 2 0 2 -1 -2 -1 -1 0 0 0 1 0 1 -1 2 1 1 1 0 0 -1 0 -1 1 2 1 2 0 7 0 7 -2
1 -1 1 0 8 0 9 0 2 1 2 0 4 1 4 1 0 1 0 3 -2z m119 -1 l-1 0 -1 0 0 1 1 1 0 1
1 -1 0 -1 0 -1z m-407 -5 l1 -4 3 -11 2 -10 1 -2 1 -2 0 -2 0 -3 1 1 1 0 0 -2
0 -2 1 1 0 1 2 -1 1 -1 0 -2 0 -2 -1 0 -1 0 1 -1 1 0 -1 -3 -2 -2 -1 2 -1 2
-4 10 -3 10 -1 9 -2 10 0 6 -1 6 1 -2 1 -1 0 -5z m280 1 l-1 -6 0 -2 0 -1 -1
0 -1 0 -1 5 -1 4 1 3 0 3 2 0 2 0 0 -6z m81 -8 l0 -1 -1 1 -1 1 0 -1 -1 -1 0
1 0 2 1 0 1 -1 1 -1z m-364 -2 l1 -1 -1 1 -1 0 0 1 0 1 0 0 1 0 0 -2z m134 -3
l1 -1 -1 1 -1 0 0 1 0 1 0 0 1 0 0 -2z m-132 -7 l-1 -1 0 2 0 3 1 -2 0 -1 0
-1z m178 -9 l0 0 -3 5 -4 6 0 1 0 1 4 -6 3 -6 0 -1z m-180 4 l0 -4 1 -2 1 -1
0 -1 -1 -1 1 0 1 0 0 -1 0 -2 -1 0 0 0 -1 3 -2 3 0 4 0 3 -1 0 -1 -1 1 2 0 2
-1 0 -1 -1 0 1 0 1 1 0 2 0 1 -5z m507 4 l3 -2 -2 0 -2 0 -5 1 -4 2 4 0 4 0 2
-1z m-503 -6 l-1 -1 0 1 0 2 1 0 0 -1 0 -1z m503 -1 l1 1 0 -1 1 -1 -7 -1 -7
0 1 1 2 1 -2 0 -1 0 3 1 3 1 2 -1 3 -1 1 0z m-502 -3 l-1 -1 0 1 0 2 1 0 0 -1
0 -1z m16 -24 l1 -2 -1 0 -1 0 0 2 0 1 0 0 1 0 0 -1z m416 -5 l0 -1 0 -2 0 -2
-1 -3 -1 -3 -2 0 -1 0 -3 -3 -3 -3 0 -1 0 -2 -3 -3 -2 -3 3 2 3 3 0 0 1 0 -2
-3 -2 -3 -4 -6 -5 -5 -1 0 -1 0 1 2 0 2 -1 -2 -2 -1 1 4 0 4 5 6 5 7 6 8 6 9
1 0 1 0 1 -1z m-236 -2 l1 -2 3 0 2 0 0 -1 0 -1 2 -1 3 0 1 -3 1 -2 -6 4 -5 3
-3 0 -2 1 1 0 0 1 -1 0 -2 0 1 2 0 1 2 0 1 0 1 -2z m-214 -4 l0 -1 2 0 1 1 -1
-2 0 -1 0 -2 0 -2 0 0 -1 1 -2 3 -2 4 1 0 1 0 1 -1z m240 -12 l-2 0 -5 3 -5 2
0 1 0 1 6 -3 7 -3 -1 -1z m206 4 l0 -2 -1 0 -2 -1 1 3 2 2 0 0 1 0 -1 -2z
m-214 -2 l5 -3 2 -1 3 -1 -2 0 -2 0 -6 3 -6 3 0 1 0 0 0 0 1 0 5 -2z m-28 -2
l2 -1 -3 1 -2 1 0 1 0 0 1 0 1 0 1 -2z m-203 -8 l1 -2 0 -1 0 0 -1 0 -2 0 1 2
0 1 -1 0 -1 -1 0 2 0 2 1 0 1 0 1 -3z m410 -17 l0 -1 -3 -3 -3 -4 -2 0 -2 0 1
1 0 2 4 2 3 3 1 0 1 0 0 0z m-391 -8 l0 -1 0 0 -1 1 -1 2 -1 3 1 -2 2 -2 0 -1z
m34 1 l0 -1 -1 1 -1 0 0 1 0 1 1 0 1 -1 0 -1z m271 -4 l-2 -1 -4 0 -4 -1 0 1
0 1 1 0 1 -1 2 1 2 1 3 0 3 0 -2 -1z m-248 -32 l0 -1 1 0 2 1 -1 -1 0 -2 1 0
1 -1 0 -2 0 -1 -4 4 -4 4 1 -2 1 -2 2 -3 3 -2 -3 2 -3 3 -2 2 -2 3 2 -1 2 0 0
1 1 1 -1 0 0 0 -8 7 -7 7 0 1 0 1 9 -9 9 -9 0 -1z m-13 -4 l4 -4 -1 0 0 -1 2
-2 2 -1 -1 -1 0 -1 1 0 1 0 0 -1 -1 0 -5 4 -4 5 -1 0 -1 0 -1 2 -1 2 1 1 0 1
0 0 1 0 4 -4z m-29 -1 l1 -2 0 0 -1 0 -1 2 -2 2 0 0 1 0 2 -2z m22 -1 l2 -1
-1 -1 0 -1 -2 1 -2 1 0 1 0 1 1 0 0 0 2 -1z m-16 -7 l2 -3 -2 1 -2 1 -1 2 -2
2 0 1 0 1 2 -1 1 -1 2 -3z m404 -5 l0 -1 -3 -2 -3 -2 3 2 3 3 0 0 0 0 0 0z
m-304 -14 l0 -1 -1 0 0 0 -2 1 -1 1 1 0 2 0 1 -1z m-72 -15 l0 -1 0 0 -1 0 -2
2 -1 2 2 -1 2 -1 0 -1z m109 -3 l9 -4 8 -2 7 -3 2 0 2 0 -1 -2 -1 -2 -2 1 -1
1 -1 0 0 0 -2 0 -1 1 -8 2 -7 2 -8 3 -7 4 0 1 -1 1 2 0 2 0 8 -3z m302 -2 l0
0 -3 -2 -2 -2 -1 -1 0 0 -7 -4 -6 -5 -2 0 -1 -1 1 1 2 2 5 4 5 4 0 0 1 1 2 2
3 2 1 0 2 0 0 -1z m-390 -11 l2 -1 0 -1 -1 0 -4 3 -5 3 0 1 0 0 3 -1 2 -2 3
-2z m25 -4 l4 -2 0 -1 0 0 -2 1 -2 1 -3 2 -2 2 1 0 0 0 4 -3z m2 -6 l3 -2 -6
2 -5 3 -1 2 -1 1 4 -2 4 -2 2 -2z m225 -33 l-2 -1 -2 0 -2 0 2 1 2 1 2 0 3 0
-3 -1z"/>
<path d="M358 750 l-2 -2 2 1 2 1 1 1 0 1 0 0 0 0 -3 -2z"/>
<path d="M444 743 l-2 0 -1 -2 -1 -1 2 0 3 0 3 2 4 2 -3 0 -2 0 -3 -1z"/>
<path d="M431 738 l1 0 1 0 0 1 -2 0 -1 0 1 -1z"/>
<path d="M454 718 l-3 -2 -2 0 -1 -1 1 -2 1 -2 3 1 4 0 3 0 3 0 -1 1 0 2 2 0
3 1 2 -1 1 0 1 1 1 1 -1 1 0 1 -3 -1 -3 -1 -2 2 -1 1 -3 0 -2 0 -3 -2z"/>
<path d="M517 644 l-1 -1 3 0 4 0 0 1 0 1 -2 0 -2 0 -2 -1z"/>
<path d="M522 640 l1 0 1 0 0 1 -2 0 -1 0 1 -1z"/>
<path d="M495 639 l-6 -1 -2 -1 -1 -1 1 0 1 0 -1 -1 0 -2 2 0 2 0 0 1 0 1 7 1
6 0 1 1 0 1 -2 -1 -2 0 1 1 1 2 -1 0 -1 0 -6 -1z"/>
<path d="M520 638 l0 -1 1 1 1 0 0 1 0 0 -1 0 -1 0 0 -1z"/>
<path d="M338 617 l-2 -3 1 0 1 0 2 3 1 2 0 0 0 1 -3 -3z"/>
<path d="M414 603 l-7 -8 8 7 8 8 0 1 0 0 0 0 -1 0 -8 -8z"/>
<path d="M415 600 l-8 -7 0 -1 1 0 -1 -2 -1 -1 -1 0 -1 1 -4 -4 -3 -5 -4 -4
-3 -3 -2 -4 -2 -4 -2 -5 -2 -5 2 0 2 0 3 3 2 4 0 2 1 3 1 2 1 3 0 1 0 0 4 6 4
6 0 -1 0 -1 3 3 4 4 -1 1 0 1 1 0 1 0 7 7 7 7 0 0 -1 0 -8 -7z m-10 -11 l0 -1
-2 -1 -1 -1 1 1 1 2 1 0 0 0 0 0z"/>
<path d="M329 603 l-1 -2 -1 1 -1 1 -2 -6 -3 -6 0 -1 0 -1 2 0 2 0 3 7 3 8 1
0 0 1 -1 0 -1 0 -1 -2z"/>
<path d="M321 600 l-1 -2 0 -1 1 0 1 3 1 2 0 1 -1 0 -1 -3z"/>
<path d="M370 601 l-1 0 0 -2 0 -1 2 0 1 0 0 2 0 2 -1 0 -1 0 0 -1z"/>
<path d="M342 597 l-2 -2 -2 -4 -1 -4 0 -1 1 0 3 5 3 6 0 1 0 1 0 0 -1 0 -1
-2z"/>
<path d="M352 591 l-1 -2 0 -1 1 0 1 1 1 1 0 2 -1 2 -1 -3z"/>
<path d="M387 574 l-3 -3 -1 -3 -1 -2 0 0 1 0 4 6 3 5 0 1 -1 0 -2 -4z"/>
<path d="M313 572 l0 -3 -1 -1 -1 0 0 3 0 3 -1 -3 -1 -3 -2 0 -1 0 -1 -1 0 -1
0 -4 -1 -5 0 -1 -1 -1 0 -2 -1 -1 -2 -10 -2 -9 -1 -10 -2 -9 1 -17 0 -16 0 -7
1 -7 -3 0 -2 0 -2 -1 -1 -1 1 -4 0 -4 2 -3 1 -3 1 0 1 1 1 -3 0 -2 2 1 2 0 0
1 0 2 -1 3 -2 4 0 2 0 2 1 0 1 0 0 -1 0 0 4 -12 4 -12 4 -10 3 -10 1 -1 1 0 0
2 -1 2 1 0 1 -1 1 -4 0 -4 1 0 1 1 4 -10 5 -9 4 -6 4 -6 6 -8 5 -8 2 0 2 0 4
-4 3 -4 2 0 2 0 2 -2 2 -2 -2 0 -2 1 8 -8 9 -8 6 -6 6 -5 0 -1 -1 0 -4 3 -3 3
-1 0 -1 0 -2 3 -3 2 -1 0 0 -1 3 -2 3 -2 0 -2 0 -2 -3 2 -4 1 0 1 0 1 -2 -1
-1 0 0 1 1 1 -1 1 -2 1 0 -1 -1 -1 -5 5 -5 5 -1 0 -1 0 1 -2 1 -2 4 -3 3 -3 0
-4 1 -3 2 -2 2 -1 1 -3 2 -3 2 0 1 0 0 -1 0 -1 3 0 3 0 0 0 1 0 2 -1 3 0 1 -2
1 -1 0 1 1 0 0 -1 0 -1 1 1 1 0 0 -1 -1 -1 4 -2 5 -2 3 -2 3 -2 1 0 1 0 0 2 0
1 1 0 1 0 0 2 1 2 -2 2 -1 2 0 1 1 0 12 -6 12 -6 4 -1 5 -2 0 -1 1 0 2 -1 3
-1 1 0 2 0 3 -2 4 -2 13 -4 13 -3 2 -1 3 0 3 2 2 2 8 -1 8 0 2 -2 2 -2 3 1 4
0 1 -2 1 -3 4 -1 4 -2 2 0 3 0 0 1 1 1 4 1 5 0 3 1 4 0 2 2 3 3 2 1 2 1 -2 0
-2 0 0 1 1 1 1 1 2 1 9 2 10 2 3 2 3 1 -3 -1 -2 0 -10 -3 -9 -2 -2 0 -2 0 0 3
0 2 3 1 3 0 1 1 2 0 0 -1 -1 -1 1 1 2 0 2 1 2 0 2 1 2 0 2 0 3 0 -1 1 0 1 2
-1 2 0 1 2 2 3 -1 1 -1 1 1 2 1 1 -1 0 -2 0 -5 -2 -5 -2 -1 0 -1 0 0 1 0 1 4
1 3 2 1 -1 1 0 0 1 0 1 1 0 2 0 3 1 4 1 0 1 0 1 -5 -2 -5 -2 -5 0 -4 -1 2 1 2
2 1 -1 1 0 0 1 0 1 1 0 0 -1 2 3 2 3 3 0 3 1 0 0 -1 1 -6 -2 -6 -1 -1 0 -2 1
0 1 0 1 2 0 1 0 13 6 14 5 1 2 2 1 -5 -1 -4 -2 0 1 0 0 8 4 8 4 4 3 5 3 4 2 4
3 3 4 4 3 -1 0 -1 0 0 -1 -1 -1 -6 -4 -6 -4 0 1 0 0 2 3 2 2 -2 0 -3 0 -2 -2
-3 -2 0 -1 1 -1 -3 -2 -2 -2 2 1 2 1 0 -1 -1 -1 -12 -6 -12 -6 -2 0 -1 0 1 1
0 1 -1 0 -1 0 0 -2 -1 -2 -4 -1 -4 -1 -1 1 -1 1 -4 -1 -4 -2 -1 0 0 -1 3 0 3
1 0 -1 -1 0 -5 -2 -5 -1 -3 1 -3 0 -3 -1 -3 0 1 -1 2 -1 -2 0 -1 0 -1 1 -2 0
0 3 0 3 -1 0 -2 1 0 1 0 2 -3 1 -3 2 -2 -1 -2 -1 -1 -2 -1 -1 -1 -3 -1 -3 -2
0 -1 1 -3 -2 -2 -2 0 -2 0 -1 -6 0 -6 0 -3 -1 -3 0 -2 -2 -2 -2 -4 0 -3 0 -8
1 -8 2 -7 2 -7 1 -2 1 -2 2 -4 0 -3 1 -5 4 -5 4 -2 0 -3 0 -7 3 -6 3 -6 4 -5
3 -3 3 -2 2 -5 4 -5 4 -3 3 -2 3 1 1 0 2 -1 0 0 0 0 4 0 4 -3 0 -3 0 -3 1 -3
2 -1 3 -2 3 0 2 1 3 -3 4 -3 4 -2 0 -3 0 -1 2 -1 3 -2 0 -2 1 0 1 1 1 -1 1 -1
0 0 1 1 1 -1 3 -1 3 0 0 0 1 -5 4 -5 5 -2 5 -2 5 -1 4 -1 5 -1 4 0 5 -2 3 -1
4 -1 2 -1 2 -1 13 -2 13 -1 1 -1 1 0 8 0 8 1 -2 1 -1 1 2 1 3 -1 1 0 2 1 2 1
2 -1 2 -1 2 2 4 2 3 -1 2 0 2 -1 0 -1 0 0 2 0 3 1 1 1 0 0 2 0 2 -1 0 -1 0 3
9 2 9 -1 1 -1 1 1 2 1 3 0 1 -1 0 -1 -3 -1 -3 -1 0 -1 0 -1 1 0 1 -1 -1 -1 0
0 1 0 1 0 1 0 1 -1 -2 -1 -1 -5 2 -6 2 -2 0 -2 0 0 2 0 3 -2 -2 -1 -2 0 1 0 2
-2 -2 -1 -2 0 1 0 1 0 2 0 2 0 0 -1 0 -1 -3z m-9 -27 l-1 -3 -1 -4 0 -4 -1 -1
-1 0 0 1 0 2 1 4 1 5 1 2 0 2 1 0 0 0 0 -4z m-1 -61 l0 -3 -1 0 -1 0 0 8 0 8
1 -5 1 -5 0 -3z m37 -12 l-1 -1 0 2 0 3 1 -2 0 -1 0 -1z m-22 -43 l0 -1 -1 1
-1 2 0 1 0 2 1 -2 1 -1 0 -2z m7 -17 l0 -3 1 -2 1 -1 0 -1 -1 0 -2 4 -2 3 0 1
0 0 2 0 1 -1 -1 1 -1 2 1 0 2 0 -1 -3z m33 -49 l3 -4 0 -1 -1 0 -3 4 -3 5 0 0
1 0 3 -4z m203 -38 l-1 -1 -2 0 -1 0 1 1 2 1 1 0 2 0 -2 -1z m-160 -5 l1 -1
-2 0 -2 1 -1 1 0 1 2 0 2 0 0 -2z m173 1 l0 -2 -2 1 -2 0 0 -1 -1 -1 -2 0 -2
0 1 1 1 2 3 0 3 1 1 0 1 0 -1 -1z m-180 -2 l0 -1 -1 1 -1 0 0 1 0 1 1 0 1 -1
0 -1z m169 -1 l0 -1 -1 0 -2 0 -1 -1 -2 0 0 1 0 2 3 0 3 0 0 -1z m21 0 l-1 -1
-1 0 -1 0 1 1 2 1 0 0 0 0 0 -1z m-156 -7 l3 0 1 -1 2 0 -1 -1 0 -1 1 0 2 1 2
-1 3 -2 10 -3 10 -3 0 -1 1 -1 -2 -1 -2 -1 -9 3 -9 4 -8 4 -8 3 -2 2 -2 2 3
-1 3 -1 2 -1z m136 1 l0 -1 -2 0 -1 0 1 1 2 1 0 0 0 0 0 -1z"/>
<path d="M381 553 l-1 -1 -1 -2 0 -2 1 1 1 1 1 2 1 3 -1 0 -1 0 0 -2z"/>
<path d="M377 542 l-2 -6 1 1 1 0 1 5 1 4 0 1 -1 0 -1 -5z"/>
<path d="M344 542 l0 -2 1 1 0 1 0 1 -1 2 0 -3z"/>
<path d="M378 530 l-1 -1 0 -2 0 -1 1 2 1 3 0 1 -1 0 0 -2z"/>
<path d="M367 522 l-1 -5 0 -1 1 0 0 5 1 5 0 1 -1 0 0 -5z"/>
<path d="M376 522 l0 -2 1 1 0 1 0 1 -1 2 0 -3z"/>
<path d="M402 445 l0 -1 1 -2 1 -1 0 1 0 1 -1 1 -1 2 0 -1z"/>
<path d="M394 438 l0 -1 2 -3 2 -2 -1 3 -1 3 -1 1 -1 0 0 -1z"/>
<path d="M383 433 l0 -1 1 0 1 -1 0 -1 0 -1 -1 0 -1 1 2 -3 1 -3 1 1 0 0 2 -2
2 -2 0 1 0 1 -2 3 -3 4 0 1 0 1 -1 1 -2 1 0 -1z"/>
<path d="M394 413 l0 -1 4 -5 3 -5 2 0 1 -1 0 1 0 1 -1 1 -1 0 -2 5 -2 4 -2 1
-2 1 0 -2z"/>
<path d="M312 412 l0 -1 2 -4 2 -4 1 0 0 1 -2 4 -3 5 0 -1z"/>
<path d="M432 406 l3 -4 1 0 0 0 -3 4 -4 4 -1 0 0 0 4 -4z"/>
<path d="M413 399 l0 -1 2 -2 2 -1 -1 -1 -1 -1 1 0 1 0 0 1 1 0 -2 2 -1 2 1 0
1 0 -2 1 -1 1 -1 0 -1 0 1 -1z"/>
<path d="M418 399 l0 -2 1 0 1 0 0 -2 -1 -3 2 1 2 1 0 1 0 1 -1 0 -2 1 0 1 0
2 -1 0 -1 0 0 -1z"/>
<path d="M672 395 l-1 0 -2 -2 -1 -2 1 0 1 1 0 -1 1 -1 0 0 1 1 0 2 1 3 0 0 0
0 -1 -1z"/>
<path d="M699 391 l-1 -1 1 0 1 0 0 1 0 1 0 0 -1 0 0 -1z"/>
<path d="M424 386 l4 -4 1 0 1 0 -4 4 -4 4 -1 0 -1 0 4 -4z"/>
<path d="M696 386 l-2 -2 -1 -2 0 -2 1 0 1 0 1 3 1 3 1 0 1 1 0 1 0 1 -3 -3z"/>
<path d="M425 378 l1 -1 6 -4 6 -5 1 0 1 1 -4 3 -5 3 -1 0 -1 0 -1 2 -2 2 -1
0 -1 0 1 -1z"/>
<path d="M441 374 l0 -1 5 -3 5 -3 -1 1 -1 2 -4 2 -4 2 0 0z"/>
<path d="M478 368 l2 -1 1 0 2 0 -2 1 -1 1 -2 0 -1 0 1 -1z"/>
<path d="M485 366 l3 -1 2 0 2 0 -2 1 -2 1 -3 0 -2 0 2 -1z"/>
<path d="M292 364 l0 0 4 -5 3 -4 0 0 0 1 -3 5 -3 4 -1 0 0 0 0 -1z"/>
<path d="M643 364 l-1 -1 0 -1 0 -1 2 1 1 2 0 1 -1 0 -1 -1z"/>
<path d="M686 359 l-3 -4 0 1 -1 0 -2 -3 -2 -2 2 2 2 2 2 -2 1 -1 0 1 -1 1 1
0 1 0 2 3 3 2 0 2 1 2 -2 0 -1 0 -3 -4z"/>
<path d="M668 354 l-3 -4 2 1 2 2 2 0 1 -1 0 1 -1 1 1 2 1 2 -1 0 -1 0 -3 -4z"/>
<path d="M579 356 l-2 -1 1 0 2 0 1 1 2 1 -1 0 -1 0 -2 -1z"/>
<path d="M291 356 l1 0 3 -3 3 -2 -3 2 -2 3 -1 0 -1 0 0 0z"/>
<path d="M582 354 l-6 -3 1 0 1 0 5 2 5 2 1 0 0 1 -1 0 0 0 -6 -2z"/>
<path d="M732 354 l-1 -1 1 1 2 1 0 1 0 0 0 0 -1 0 -1 -2z"/>
<path d="M299 354 l0 -1 2 -1 2 -1 -2 1 -1 2 -1 0 0 0 0 0z"/>
<path d="M728 350 l-1 -2 0 0 1 -1 1 3 2 2 0 0 -1 0 -2 -2z"/>
<path d="M308 349 l2 -3 1 0 0 0 -2 2 -1 3 -1 0 -1 0 2 -2z"/>
<path d="M303 348 l1 -1 5 -6 5 -5 -1 1 0 2 -5 5 -4 6 -1 0 -1 0 1 -2z"/>
<path d="M500 344 l3 -1 4 0 5 0 -3 1 -2 1 -5 0 -4 0 2 -1z"/>
<path d="M304 342 l2 -3 1 0 0 0 -2 3 -2 2 -1 0 0 0 2 -2z"/>
<path d="M313 343 l0 -1 2 -1 2 -1 -2 2 -1 2 -1 0 0 0 0 -1z"/>
<path d="M320 336 l3 -4 6 -7 7 -7 1 0 1 1 -3 4 -3 5 -2 1 -2 0 -2 2 -3 3 -3
3 -3 3 3 -4z"/>
<path d="M663 336 l-3 -2 -5 -5 -5 -4 -6 -4 -6 -3 0 -1 1 0 10 7 11 7 4 3 4 4
-2 0 -1 0 -2 -2z"/>
<path d="M312 333 l3 -4 1 0 0 0 -3 4 -4 4 -1 0 0 0 4 -4z"/>
<path d="M637 327 l-2 -2 1 0 1 -1 1 1 2 2 1 -1 1 0 -1 1 -1 0 1 1 0 1 -1 0 0
0 -3 -2z"/>
<path d="M639 323 l-1 -1 1 0 1 0 1 1 0 1 0 0 0 0 -2 -1z"/>
<path d="M339 317 l0 -2 2 0 1 -1 -1 2 -1 2 -1 0 0 0 0 -1z"/>
<path d="M599 314 l-1 -1 1 0 2 0 1 1 2 1 -2 0 -1 0 -2 -1z"/>
<path d="M696 313 l-2 -2 0 0 0 -1 1 0 1 0 1 2 1 2 0 0 0 0 -2 -1z"/>
<path d="M350 310 l0 0 5 -4 5 -4 0 0 1 0 0 1 0 1 -5 3 -5 4 0 0 -1 0 0 -1z"/>
<path d="M607 306 l-5 -3 2 1 2 0 5 2 4 2 0 1 0 0 -1 0 -1 0 -6 -3z"/>
<path d="M594 301 l-5 -2 0 -1 1 0 5 2 6 2 0 1 0 0 -1 0 0 0 -6 -2z"/>
<path d="M606 296 l0 -2 2 1 2 0 1 1 0 1 -2 0 -3 0 0 -1z"/>
<path d="M576 290 l-10 -2 -1 0 0 -1 3 0 4 1 5 1 6 0 2 2 3 1 0 0 0 1 -1 0 -1
0 -10 -3z"/>
<path d="M571 282 l1 0 1 0 0 1 -2 0 -1 0 1 -1z"/>
<path d="M566 281 l1 0 1 0 0 1 -2 0 -1 0 1 -1z"/>
<path d="M478 249 l0 -1 2 0 2 0 0 1 0 1 -2 0 -2 0 0 -1z"/>
<path d="M585 658 l3 -2 1 0 1 0 -3 2 -2 1 -1 0 -1 0 2 -1z"/>
<path d="M597 651 l1 -1 8 -4 9 -4 -2 1 -2 2 -4 2 -4 3 0 1 1 1 -4 0 -4 1 1
-2z"/>
<path d="M618 647 l0 -2 1 0 1 -1 1 1 2 1 -2 0 -2 0 0 1 0 1 1 0 1 1 -1 0 -2
1 0 -3z"/>
<path d="M632 646 l0 -1 1 0 1 0 0 1 -1 1 -1 0 -1 0 1 -1z"/>
<path d="M511 559 l0 -1 1 1 0 1 0 1 -1 0 0 -2z"/>
<path d="M559 584 l0 -1 1 -1 2 -1 -1 -2 -1 -2 2 -2 1 -1 2 0 1 0 3 3 3 4 -4
2 -3 2 -3 0 -2 0 -1 -1z"/>
<path d="M430 446 l0 -1 3 -6 3 -6 1 0 1 0 0 1 1 1 -4 5 -4 6 -1 0 0 0 0 0z"/>
<path d="M594 462 l2 -1 2 0 2 0 -2 1 -1 1 -3 0 -2 0 2 -1z"/>
<path d="M592 418 l-8 -8 1 1 2 0 5 5 6 5 1 3 2 2 0 0 0 0 -9 -8z"/>
<path d="M598 419 l-2 -2 1 0 1 0 1 2 1 2 0 0 -1 0 -1 -2z"/>
<path d="M579 410 l-1 -1 2 1 2 1 0 1 0 0 0 0 -1 0 -2 -2z"/>
<path d="M533 410 l0 -1 0 -1 1 0 0 1 1 2 0 0 -1 0 -1 -1z"/>
<path d="M533 405 l0 -1 1 1 1 0 0 1 0 0 -1 0 -1 0 0 -1z"/>
<path d="M569 405 l-1 -1 1 0 1 0 1 1 0 1 0 0 0 0 -2 -1z"/>
<path d="M663 369 l-1 -1 1 1 2 0 0 1 0 0 -1 0 -1 0 0 -1z"/>
<path d="M712 261 l-1 -1 1 1 2 1 0 1 0 0 -1 0 -1 0 0 -2z"/>
<path d="M547 808 l2 0 2 0 2 1 -4 0 -3 0 1 -1z"/>
<path d="M567 806 l0 -1 3 0 3 0 -2 1 -2 1 -1 0 -1 0 0 -1z"/>
<path d="M428 798 l-1 -1 2 0 2 0 0 1 0 1 -1 0 0 0 -2 -1z"/>
<path d="M426 794 l-2 0 -3 -1 -3 -1 -5 -2 -4 -2 0 -1 1 -1 5 2 5 1 5 2 6 3 1
0 0 1 -2 0 -1 0 -3 -1z"/>
<path d="M472 794 l2 0 2 0 2 1 -4 0 -3 0 1 -1z"/>
<path d="M694 792 l1 -2 1 0 1 0 0 1 0 1 -3 1 -2 1 2 -2z"/>
<path d="M451 791 l-7 -2 0 0 1 0 9 2 9 1 0 1 0 0 -3 0 -2 0 -7 -2z"/>
<path d="M458 787 l-1 -1 1 0 2 0 2 1 2 1 -2 0 -2 0 -2 -1z"/>
<path d="M701 786 l0 -1 2 -1 2 -1 0 2 0 2 -2 0 -2 0 0 -1z"/>
<path d="M380 782 l-7 -3 0 -1 0 0 7 4 8 3 0 1 0 0 -1 0 0 0 -7 -4z"/>
<path d="M426 783 l1 0 1 0 0 1 -2 0 -1 0 1 -1z"/>
<path d="M461 783 l-2 -1 1 0 2 0 1 1 2 1 -1 0 -1 0 -2 -1z"/>
<path d="M404 776 l-1 -1 1 0 1 0 1 1 2 1 -1 0 -1 0 -2 -1z"/>
<path d="M298 764 l-1 -1 1 1 2 1 0 1 0 0 0 0 -1 0 -1 -2z"/>
<path d="M692 752 l0 -1 2 -1 3 -1 -2 2 -2 2 -1 0 0 0 0 -1z"/>
<path d="M697 751 l0 -1 2 -2 1 -2 1 0 1 0 2 -2 2 -2 1 1 0 0 -3 3 -3 3 -2 1
-2 1 0 0z"/>
<path d="M868 746 l0 -1 1 0 0 0 0 1 0 1 -1 0 -1 0 1 -1z"/>
<path d="M870 741 l0 -1 1 0 0 0 0 1 0 1 -1 0 -1 0 1 -1z"/>
<path d="M708 741 l0 -1 2 0 1 -1 -1 1 0 1 -1 0 -1 0 0 0z"/>
<path d="M751 740 l0 -1 2 -1 2 -1 -2 1 -1 2 -1 0 0 0 0 0z"/>
<path d="M875 731 l0 -1 2 0 1 -1 -1 1 0 1 -1 0 -1 0 0 0z"/>
<path d="M886 726 l1 -1 1 -1 1 0 -1 1 0 2 -1 0 -1 0 0 -1z"/>
<path d="M718 714 l-1 -1 1 0 1 -1 0 2 0 1 -1 0 0 0 0 -1z"/>
<path d="M732 700 l8 -9 1 0 0 0 -8 9 -9 9 -1 0 0 0 9 -9z"/>
<path d="M128 698 l-1 -1 -1 -4 -2 -3 -1 -2 -1 -3 1 0 0 0 4 7 3 7 0 0 -1 0
-1 -1z"/>
<path d="M689 697 l2 -3 1 0 0 0 -2 3 -2 2 -1 0 0 0 2 -2z"/>
<path d="M898 691 l1 -3 2 -4 2 -5 1 0 1 0 0 1 -1 1 -2 5 -3 6 -1 0 -1 1 1 -2z"/>
<path d="M624 685 l0 -1 3 -1 3 -2 0 0 0 1 -3 2 -3 1 0 0z"/>
<path d="M718 682 l0 -2 1 0 0 1 -1 1 -1 2 1 -2z"/>
<path d="M770 675 l4 -6 1 0 0 0 -2 3 -2 4 -3 3 -2 3 4 -7z"/>
<path d="M760 677 l0 -1 3 -4 3 -3 2 -2 2 -2 -2 4 -2 4 -3 2 -3 3 0 -1z"/>
<path d="M736 673 l0 -2 1 0 1 0 -1 2 -1 1 -1 0 0 0 1 -1z"/>
<path d="M636 660 l2 -1 2 -1 2 -1 -2 2 -2 1 -2 1 -2 1 2 -2z"/>
<path d="M822 642 l7 -15 1 -1 0 0 0 2 -1 3 -6 12 -6 12 -1 1 -2 1 8 -15z"/>
<path d="M195 654 l0 -1 0 -1 1 0 0 2 1 2 -1 0 0 0 -1 -2z"/>
<path d="M230 654 l-1 -2 0 0 1 0 1 2 1 2 0 0 -1 0 -1 -2z"/>
<path d="M772 654 l0 -1 1 0 1 -1 -1 1 0 2 -1 0 0 0 0 -1z"/>
<path d="M195 636 l-2 -3 -3 -6 -2 -5 1 0 1 1 0 -1 0 -2 1 0 2 1 1 1 1 2 0 5
0 6 1 2 1 1 0 1 -1 1 -1 -4z"/>
<path d="M712 606 l1 -2 1 0 0 0 -1 2 -1 2 -1 0 0 0 1 -2z"/>
<path d="M923 601 l0 -2 1 0 1 -1 0 1 0 1 -1 1 -1 2 0 -2z"/>
<path d="M716 599 l1 -2 1 0 0 0 -1 2 -1 2 -1 0 0 0 1 -2z"/>
<path d="M796 594 l0 -1 1 1 0 1 0 1 -1 0 0 -2z"/>
<path d="M782 573 l0 -2 1 0 1 0 -1 2 0 2 -1 0 0 0 0 -2z"/>
<path d="M802 571 l0 -2 0 -2 0 -2 1 0 1 0 0 -2 0 -2 1 1 1 1 -1 5 -2 6 -1 0
-1 0 1 -3z"/>
<path d="M935 569 l0 -2 1 1 0 1 0 1 -1 2 0 -3z"/>
<path d="M735 552 l1 -2 1 -4 1 -3 0 -3 1 -3 1 0 0 1 -2 7 -1 7 -1 1 -1 1 0
-2z"/>
<path d="M802 541 l0 -2 1 0 1 -1 0 2 0 3 -1 0 -1 0 0 -2z"/>
<path d="M817 507 l0 -2 1 0 1 0 0 2 0 2 -1 0 -1 1 0 -3z"/>
<path d="M804 498 l0 -12 -2 1 -2 0 0 -5 0 -5 1 0 1 0 0 1 1 2 0 -6 0 -6 1 5
2 6 1 -1 1 0 0 5 1 4 0 5 0 4 -1 2 -1 2 0 4 -1 4 0 1 -1 0 -1 -11z"/>
<path d="M199 500 l-1 -3 1 -1 1 -2 0 -7 0 -7 1 -1 1 0 1 1 1 1 -1 3 -1 2 1 6
1 6 -1 2 0 2 -2 0 -1 0 -1 -2z"/>
<path d="M742 497 l-1 -4 0 -6 0 -6 1 2 1 2 0 8 0 8 -1 -4z"/>
<path d="M800 495 l0 -3 1 0 1 0 0 1 0 2 -1 1 -1 2 0 -3z"/>
<path d="M930 494 l0 -1 1 0 0 0 0 1 0 1 -1 0 -1 0 1 -1z"/>
<path d="M818 493 l0 0 -1 -6 0 -6 1 1 1 1 0 5 -1 6 0 -1z"/>
<path d="M744 471 l0 -1 1 1 0 1 0 1 -1 0 0 -2z"/>
<path d="M206 464 l1 -7 1 -2 1 -1 0 2 -1 3 -1 6 0 6 -1 0 -1 0 1 -7z"/>
<path d="M197 467 l0 -2 1 1 0 1 0 1 -1 2 0 -3z"/>
<path d="M201 464 l0 -4 1 -3 1 -3 0 2 0 3 -1 4 -1 5 0 -4z"/>
<path d="M932 462 l0 -1 -1 -8 -1 -7 -1 -5 -1 -5 -1 -3 -1 -3 -1 1 -1 0 1 -2
0 -2 -1 0 -1 1 0 -2 0 -1 -1 -6 -1 -5 1 -1 1 0 1 1 0 2 2 0 1 0 1 4 0 4 2 2 1
1 0 4 0 4 0 6 1 7 1 2 1 3 0 4 -1 5 0 1 -1 0 0 -1z"/>
<path d="M198 458 l0 -3 1 1 0 2 0 1 -1 2 0 -3z"/>
<path d="M223 429 l0 -2 1 0 1 1 -1 2 0 1 -1 0 0 0 0 -2z"/>
<path d="M219 429 l-1 -1 2 0 1 -1 0 -2 0 -1 1 0 1 1 -1 2 -1 3 -1 0 -1 0 0
-1z"/>
<path d="M913 427 l0 -1 1 1 0 1 0 1 -1 0 0 -2z"/>
<path d="M920 426 l0 -1 0 -1 1 0 0 1 1 2 0 0 -1 0 -1 -1z"/>
<path d="M228 423 l0 -1 1 0 0 0 0 1 0 1 -1 0 -1 0 1 -1z"/>
<path d="M857 416 l0 -1 1 1 1 0 0 1 0 0 -1 0 -1 0 0 -1z"/>
<path d="M920 407 l0 -1 1 1 0 1 0 1 -1 0 0 -2z"/>
<path d="M101 375 l0 -1 1 0 1 -1 -1 1 0 2 -1 0 0 0 0 -1z"/>
<path d="M843 364 l-1 -3 0 -1 0 0 1 1 2 1 -1 1 0 1 1 0 1 1 0 1 0 1 -1 0 -1
0 -1 -3z"/>
<path d="M907 363 l-2 -3 0 -3 -1 -2 1 0 1 1 1 5 2 4 0 1 -1 0 -1 -3z"/>
<path d="M896 334 l-7 -13 -4 -7 -3 -7 -3 -2 -2 -3 0 -2 0 -1 2 0 2 0 1 3 1 3
4 7 4 7 1 -1 1 -1 0 1 1 2 -1 0 -1 0 1 1 0 1 1 0 1 -1 1 2 1 2 -1 0 -1 -1 0 1
0 1 2 2 3 2 -2 0 -1 -1 1 1 2 2 2 6 3 6 0 1 0 2 -1 0 -2 1 -6 -14z"/>
<path d="M258 347 l0 -1 3 -3 2 -3 -1 2 -1 2 -1 2 -2 2 0 -1z"/>
<path d="M250 343 l0 -2 1 1 1 1 -1 1 -1 1 0 -2z"/>
<path d="M873 337 l-3 -5 0 -1 1 0 3 5 2 5 0 1 -1 0 -2 -5z"/>
<path d="M265 335 l1 -2 1 0 0 0 -1 2 -1 2 -1 0 0 0 1 -2z"/>
<path d="M277 332 l0 -1 1 0 1 -1 0 1 0 1 -1 1 -1 0 0 -1z"/>
<path d="M257 319 l1 -3 4 -4 4 -4 -3 5 -4 5 -2 2 -2 3 2 -4z"/>
<path d="M883 300 l-2 -3 1 1 2 1 1 2 1 2 -1 0 -1 1 -1 -4z"/>
<path d="M865 282 l-2 -3 0 -1 0 -1 -3 -3 -2 -4 0 -1 1 0 4 6 5 6 0 2 0 1 0 0
-1 0 -2 -2z"/>
<path d="M856 267 l-1 -1 1 1 2 0 0 1 0 0 -1 0 -1 0 0 -1z"/>
<path d="M842 263 l-1 -1 0 -1 0 -1 2 2 1 2 0 0 0 1 -2 -2z"/>
<path d="M165 263 l1 0 2 -1 1 0 0 1 -1 0 -2 1 -1 0 0 -1z"/>
<path d="M167 250 l0 -1 3 -4 4 -3 0 1 0 1 -3 4 -2 3 -1 0 -1 0 0 -1z"/>
<path d="M175 247 l1 -2 3 -5 3 -4 1 -1 2 -1 2 -3 2 -3 -1 -1 0 -1 0 0 1 1 6
-5 5 -5 -1 -2 0 -2 1 1 1 1 4 -4 4 -3 0 -2 -1 -2 4 -4 5 -5 2 0 2 1 -1 1 0 2
0 1 0 1 -6 3 -5 4 -6 7 -5 6 -5 5 -5 6 -2 2 -1 2 -5 6 -5 7 -1 0 0 1 1 -3z"/>
<path d="M193 220 l2 -3 1 -1 1 0 0 1 0 1 -3 3 -3 3 2 -4z"/>
<path d="M489 202 l1 0 1 0 0 1 -2 0 -1 0 1 -1z"/>
<path d="M718 147 l-6 -3 0 -1 1 0 5 3 5 2 1 1 0 1 0 0 -1 1 -5 -4z"/>
<path d="M709 142 l-1 -1 1 0 1 0 1 1 0 1 0 0 0 0 -2 -1z"/>
</g>
</svg>
