<?xml version="1.0" standalone="no"?>
<!DOCTYPE svg PUBLIC "-//W3C//DTD SVG 20010904//EN"
 "http://www.w3.org/TR/2001/REC-SVG-20010904/DTD/svg10.dtd">
<svg version="1.0" xmlns="http://www.w3.org/2000/svg"
 width="256.000000pt" height="256.000000pt" viewBox="0 0 256.000000 256.000000"
 preserveAspectRatio="xMidYMid meet">
<metadata>
Created by potrace 1.16, written by Peter Selinger 2001-2019
</metadata>
<g transform="translate(0.000000,256.000000) scale(0.100000,-0.100000)"
fill="#c2e294" stroke="none">
<path d="M1013 2363 c14 -9 7 -33 -10 -33 -15 0 -14 -2 3 -15 10 -8 25 -15 31
-15 10 0 134 -82 162 -106 9 -8 -89 5 -106 14 -19 10 -88 10 -98 0 -3 -3 25
-9 63 -13 38 -4 75 -11 83 -17 10 -7 -6 -8 -50 -4 -35 3 -80 6 -100 6 -27 0
-32 3 -21 10 11 7 4 10 -25 9 -22 0 -34 -3 -27 -6 41 -16 -35 -23 -138 -11
-16 2 -24 -2 -23 -9 2 -8 -7 -13 -21 -13 -34 0 -57 -10 -50 -22 4 -6 1 -14 -6
-18 -7 -4 16 -6 51 -4 80 4 137 -10 135 -34 -1 -12 8 -18 29 -20 37 -4 59 -22
27 -22 -12 0 -22 -4 -22 -10 0 -5 -16 -10 -35 -10 -19 0 -43 -4 -53 -9 -9 -5
-48 -25 -85 -43 -104 -50 -107 -52 -107 -60 0 -4 -18 -11 -40 -14 -22 -4 -40
-9 -40 -13 0 -3 -13 -12 -30 -19 -18 -8 -30 -21 -30 -33 0 -22 17 -24 44 -4
14 11 21 11 31 2 10 -9 9 -14 -4 -25 -14 -11 -12 -11 7 -2 13 7 34 14 48 16
18 3 22 1 17 -12 -5 -13 -1 -15 18 -10 23 7 23 6 4 -6 -11 -7 -69 -36 -130
-65 -60 -29 -115 -60 -121 -67 -6 -8 -16 -16 -24 -18 -19 -4 -48 -31 -43 -40
2 -5 15 -8 29 -8 27 0 32 -21 10 -39 -20 -17 -26 -49 -11 -55 8 -3 19 2 26 10
7 8 18 13 25 10 14 -5 47 27 38 37 -4 3 7 9 22 13 16 3 47 14 68 25 51 24 60
15 20 -19 -45 -39 -89 -113 -74 -122 10 -6 7 -14 -10 -31 -12 -13 -34 -42 -48
-64 -14 -22 -42 -56 -64 -77 -40 -38 -45 -48 -27 -48 5 0 7 5 4 10 -3 6 -2 10
3 10 6 0 12 -7 16 -15 3 -8 12 -15 20 -15 8 0 16 -6 19 -12 3 -9 12 -4 26 12
39 46 74 80 83 80 10 0 10 -13 1 -26 -5 -5 2 1 15 14 12 13 22 22 22 20 0 -2
-15 -39 -33 -83 -49 -116 -62 -171 -49 -198 6 -12 13 -29 15 -37 3 -8 8 4 12
28 10 55 21 45 56 -51 19 -50 32 -71 42 -69 8 1 27 -12 41 -29 23 -26 26 -28
26 -10 0 11 -8 25 -17 30 -16 9 -16 10 3 11 22 0 54 -28 54 -48 0 -7 7 -12 16
-12 8 0 50 -35 92 -79 73 -75 80 -79 130 -84 30 -4 52 -2 52 3 0 6 -9 10 -20
10 -11 0 -20 5 -20 11 0 7 7 8 18 4 9 -4 24 -8 32 -10 8 -2 31 -9 50 -14 44
-14 107 -14 115 -1 3 6 24 10 46 10 46 0 44 15 -4 26 -30 6 -31 7 -10 17 12 5
42 6 67 3 57 -9 80 -39 66 -87 -12 -41 -12 -39 0 -39 6 0 17 15 25 33 10 24
11 35 2 47 -10 13 -10 13 6 1 30 -23 20 -55 -30 -103 -27 -24 -70 -59 -98 -78
-27 -19 -58 -44 -67 -56 -21 -26 -111 -66 -131 -58 -20 7 -29 -22 -11 -37 12
-10 22 -10 42 -2 64 25 68 26 42 7 -14 -10 -28 -22 -32 -28 -3 -5 -32 -9 -62
-8 -61 1 -75 -12 -24 -23 44 -10 98 -8 131 4 16 6 32 9 37 6 5 -3 11 -1 14 4
3 5 23 12 43 16 21 4 43 11 50 17 7 5 17 8 24 6 6 -2 0 -9 -13 -15 -91 -42
-115 -58 -111 -70 3 -7 -2 -13 -11 -13 -27 0 -18 -18 12 -22 19 -2 38 6 66 29
22 18 55 37 74 42 18 6 63 28 98 50 47 30 66 37 70 27 7 -19 53 -8 89 21 55
44 92 80 98 97 4 9 18 21 31 26 14 5 34 22 46 38 15 20 28 28 41 25 16 -5 19
0 19 38 1 24 7 55 15 69 23 40 19 70 -8 70 -18 0 -28 10 -42 40 -10 22 -23 40
-30 40 -6 0 -18 11 -25 25 -8 14 -32 38 -55 53 -23 15 -40 33 -37 40 7 21 -30
54 -53 48 -19 -5 -71 7 -107 25 -10 5 -52 9 -93 9 -88 0 -159 29 -194 79 -20
28 -28 71 -15 84 10 9 44 -16 44 -33 0 -8 6 -4 13 10 13 26 57 41 57 20 0 -7
8 -2 19 11 l18 22 5 -26 c3 -14 1 -24 -3 -21 -5 3 -9 -4 -9 -15 0 -11 5 -23
10 -26 6 -3 10 0 10 9 0 20 19 25 51 12 33 -12 63 7 54 34 -7 22 51 68 97 77
28 5 29 7 13 15 -13 5 -4 6 24 3 50 -5 68 -16 127 -72 51 -48 63 -79 37 -100
-16 -13 -16 -14 0 -9 9 3 17 3 17 -1 0 -3 -8 -12 -17 -19 -29 -22 7 -17 45 6
43 26 48 25 27 -7 l-18 -27 37 22 c20 12 36 17 36 12 0 -5 -4 -12 -10 -15 -5
-3 -10 -12 -10 -18 1 -19 78 72 82 96 2 14 10 21 21 21 20 -2 20 0 5 41 -10
30 -13 32 -44 25 -21 -5 -42 -3 -61 6 -43 22 -89 61 -80 70 4 5 12 2 17 -5 11
-19 139 -35 157 -20 7 7 27 9 44 5 41 -8 65 7 79 48 8 24 20 38 41 45 30 10
40 37 15 43 -22 5 -156 136 -156 152 0 8 -8 21 -19 28 -20 15 -33 76 -17 81 7
3 7 12 -3 29 -17 34 -5 56 53 93 25 16 43 32 40 37 -3 5 -1 15 6 22 11 14 3
73 -8 61 -5 -5 -31 55 -36 85 -5 32 -19 50 -37 50 -16 0 -18 -5 -14 -37 4 -31
1 -43 -19 -65 -14 -16 -27 -28 -30 -28 -3 0 -8 21 -12 48 -5 40 -34 105 -54
122 -3 3 -13 17 -23 33 -10 15 -24 27 -32 27 -8 0 -15 7 -15 15 0 15 -70 99
-77 92 -8 -9 21 -57 34 -57 7 0 13 -8 13 -17 0 -15 -2 -16 -10 -3 -9 13 -10
13 -10 0 0 -10 -7 -7 -21 10 -14 16 -19 19 -15 8 8 -27 -7 -22 -39 12 -16 17
-34 30 -41 30 -6 0 -17 6 -23 13 -6 8 -24 14 -41 15 l-30 1 40 -42 c22 -23 40
-47 40 -53 0 -6 9 -19 20 -29 11 -10 20 -25 20 -33 0 -12 -5 -11 -22 5 -34 30
-86 61 -72 43 6 -8 14 -24 18 -35 6 -16 2 -15 -21 8 -16 15 -34 27 -40 27 -6
0 -13 6 -16 14 -3 8 -39 32 -79 54 -71 39 -113 48 -162 35 -18 -5 -17 -7 8
-20 15 -8 25 -17 23 -20 -8 -8 -66 7 -73 19 -5 7 -2 8 7 3 11 -6 12 -5 1 6 -7
7 -32 21 -55 30 -23 10 -41 22 -39 28 1 6 -4 11 -12 11 -8 0 -20 2 -28 3 -7 2
-10 2 -5 0z m786 -582 c28 -27 51 -55 51 -62 0 -9 -3 -9 -14 0 -11 9 -15 9
-18 0 -2 -7 -18 -2 -42 15 -21 14 -44 26 -51 26 -20 0 -36 25 -24 37 8 8 8 13
0 17 -6 4 -11 12 -11 18 0 24 61 -4 109 -51z m-47 -108 c7 -15 22 -30 33 -33
24 -6 65 -40 65 -54 0 -5 -9 -1 -19 8 -11 10 -37 20 -58 23 -24 3 -52 18 -78
41 -22 19 -32 32 -23 29 10 -3 20 -2 23 3 12 19 44 10 57 -17z m248 -223 c0
-5 -2 -10 -4 -10 -3 0 -8 5 -11 10 -3 6 -1 10 4 10 6 0 11 -4 11 -10z m-185
-57 c-27 -8 -56 -20 -62 -25 -9 -7 -13 -7 -13 1 0 16 58 40 95 40 25 0 22 -3
-20 -16z m-242 -397 c4 -10 1 -13 -9 -9 -7 3 -14 9 -14 14 0 14 17 10 23 -5z
m147 -314 c0 -27 -39 -89 -40 -64 0 7 -4 10 -10 7 -14 -9 -13 -4 11 49 21 49
39 53 39 8z m-170 -167 c-7 -9 -15 -13 -19 -10 -3 3 1 10 9 15 21 14 24 12 10
-5z"/>
<path d="M1610 2279 c7 -11 14 -19 16 -16 7 7 -7 37 -17 37 -6 0 -5 -9 1 -21z"/>
<path d="M1108 2223 c7 -3 16 -2 19 1 4 3 -2 6 -13 5 -11 0 -14 -3 -6 -6z"/>
<path d="M666 2201 c5 -5 20 -12 34 -15 l25 -7 -25 15 c-28 17 -50 21 -34 7z"/>
<path d="M2030 1885 c-8 -9 -8 -15 -2 -15 12 0 26 19 19 26 -2 2 -10 -2 -17
-11z"/>
<path d="M368 1803 c7 -3 16 -2 19 1 4 3 -2 6 -13 5 -11 0 -14 -3 -6 -6z"/>
<path d="M323 1456 c3 -8 1 -17 -6 -19 -7 -2 -9 -8 -5 -12 8 -8 38 12 38 25 0
4 -7 11 -16 14 -11 4 -15 2 -11 -8z"/>
<path d="M1639 966 c7 -9 19 -16 26 -16 6 0 24 -13 38 -30 27 -30 52 -40 45
-18 -6 17 -69 65 -98 73 -22 7 -23 6 -11 -9z"/>
<path d="M870 319 c0 -11 25 -22 39 -17 6 1 -1 8 -14 15 -14 6 -25 7 -25 2z"/>
<path d="M884 276 c22 -18 66 -22 66 -6 0 6 -11 10 -24 10 -13 0 -33 3 -43 6
-16 5 -16 4 1 -10z"/>
<path d="M965 280 c-3 -5 1 -10 9 -10 8 0 18 5 21 10 3 6 -1 10 -9 10 -8 0
-18 -4 -21 -10z"/>
<path d="M1045 170 c-3 -5 -2 -10 4 -10 5 0 13 5 16 10 3 6 2 10 -4 10 -5 0
-13 -4 -16 -10z"/>
</g>
</svg>
