<?xml version="1.0" standalone="no"?>
<!DOCTYPE svg PUBLIC "-//W3C//DTD SVG 20010904//EN"
 "http://www.w3.org/TR/2001/REC-SVG-20010904/DTD/svg10.dtd">
<svg style="fill: black; stroke: black;" version="1.0" xmlns="http://www.w3.org/2000/svg"
 width="819.422118pt" height="826.070368pt" viewBox="0 0 819.422118 826.070368"
 preserveAspectRatio="xMidYMid meet">
<metadata>
Created by potrace 1.16, written by Peter Selinger 2001-2019
</metadata>
<g transform="translate(-92.077882,916.070368) scale(1.000000,-1.000000)"
fill="#483D8B" data-original="#000000" stroke="none">
<path d="M598 916 l0 -1 2 -1 2 -1 0 0 0 1 -2 1 -2 1 0 0z"/>
<path d="M572 903 l0 -1 -2 -2 -1 -2 2 1 2 2 0 1 1 1 0 0 0 1 -1 0 -1 0 0 -1z"/>
<path d="M562 892 l-4 -2 -1 -3 0 -2 -1 0 -1 0 1 2 0 1 -2 -2 -2 -2 0 -1 0 -1
-1 0 -2 0 0 0 0 -1 2 -2 2 -2 3 1 4 1 0 0 1 1 2 2 2 3 -2 2 -1 3 2 3 2 2 0 0
-1 0 -3 -3z"/>
<path d="M508 879 l-2 0 -3 -1 -2 0 0 -2 0 -1 1 1 2 1 2 0 3 0 0 -3 0 -2 -1 0
-2 -1 1 1 0 1 -1 0 0 0 -4 -2 -3 -3 0 0 -1 0 0 3 0 4 1 -2 1 -1 0 2 0 3 -3 -3
-3 -3 1 -1 1 -1 -2 -2 -1 -1 1 2 0 2 -1 0 -1 0 -1 -3 -1 -2 1 -1 1 -1 -2 -3
-2 -4 -6 -5 -6 -4 0 -1 0 0 2 0 1 1 -1 -2 -1 -1 -1 1 -1 1 -1 0 -1 0 0 -2 1
-3 -1 0 -1 0 -2 -3 -3 -2 -1 -3 -1 -2 -1 0 -2 0 -1 1 0 1 -1 -1 -1 0 0 -1 1
-1 -4 -4 -4 -3 1 1 2 2 -3 -1 -3 -2 -2 0 -2 0 1 1 0 1 -1 1 -2 2 1 2 0 2 -1 0
-1 1 0 -1 -1 -1 -2 1 -2 0 0 1 0 1 -1 0 -1 -1 0 -2 0 -2 -1 0 -1 0 -6 -6 -6
-6 -2 -1 -2 0 -5 -4 -4 -3 0 -2 0 -1 0 -2 -1 -2 -1 -3 -1 -2 -2 -1 -2 0 -1 -1
0 -1 0 -3 -1 -2 -2 1 -1 0 0 -1 0 -1 0 -2 0 -2 -1 0 -1 1 0 2 0 1 -1 -1 -1 0
1 2 2 2 0 2 0 2 -2 0 -2 1 0 -2 0 -1 -3 -4 -3 -3 0 2 0 2 -1 -2 0 -1 -2 -2 -1
-1 0 -1 0 -2 -2 0 -1 -1 3 -2 3 -1 1 -2 0 -1 1 -3 1 -2 2 1 2 0 1 2 0 2 0 3 1
4 2 2 3 2 0 0 1 0 0 -3 -1 -3 1 1 1 0 0 2 0 2 1 -2 1 -2 -2 -3 -1 -3 0 -3 0
-4 -2 0 -1 0 -3 -5 -3 -4 -3 0 -2 0 0 2 0 2 -1 1 -1 0 0 3 0 2 -3 -2 -2 -1 -1
1 0 1 -2 -1 -2 -1 -1 1 -2 2 -2 -3 -1 -3 0 -1 0 -1 -1 -1 -1 0 -2 0 -1 0 -1 1
-1 1 -1 -2 -1 -1 0 -2 0 -2 1 0 1 0 0 -1 -1 -1 2 -6 1 -5 -1 -2 0 -2 -4 -2 -4
-2 0 -2 0 -2 -1 0 -1 -1 1 -2 0 -2 -1 -2 -1 -1 -1 1 -1 1 -2 0 -2 -1 -1 -1 0
-1 1 1 2 0 0 -1 0 -1 -4 0 -3 1 0 -2 0 -2 2 -3 2 -2 0 0 -1 0 1 -1 1 -2 -1 -3
-1 -4 -1 1 -2 1 -4 -1 -5 -1 -2 -2 -1 -1 -1 1 0 0 1 1 1 0 0 1 0 1 -2 -1 -1
-1 0 -2 1 -1 -1 -1 -2 -1 0 -3 -1 -3 1 -1 1 -1 0 -1 0 -1 1 -2 0 -2 1 0 1 0
-1 -1 -1 -2 1 0 1 0 0 -2 0 -2 -1 -1 -2 -1 1 -1 0 -1 -2 0 -2 1 0 -1 0 -2 -2
0 -1 0 -1 0 -1 0 -3 -1 -2 -2 -1 1 -1 0 1 -1 0 -2 -2 -1 -3 -2 0 -2 0 -2 -2 0
-3 0 0 -1 -1 -1 -1 1 -1 1 0 -2 -1 -2 1 -1 1 -1 -3 -2 -3 -2 -1 1 -1 0 -1 2
-1 3 0 -3 0 -2 0 -1 0 -1 -2 1 -2 0 0 -1 0 -1 -1 0 -1 1 -5 -4 -4 -5 0 -1 1 0
-2 -4 -1 -3 0 -2 0 -3 1 1 2 0 0 -1 1 -1 -2 0 -1 0 1 -3 0 -3 2 -3 2 -3 2 0 2
0 0 -1 0 0 0 -3 1 -2 -2 -1 -1 0 0 -1 1 -1 -2 -1 -1 -1 1 -1 1 -1 -1 -2 0 -2
-1 1 -1 1 -1 0 -1 -1 0 -2 0 -1 -4 0 -4 0 0 -2 0 -1 1 1 2 1 1 -1 0 -2 0 -1
-1 -1 -2 0 -1 0 0 -2 0 -1 -2 -3 -2 -2 0 -2 0 -2 -1 0 -2 0 -1 -2 -2 -2 1 0 0
0 -1 -1 -1 -1 0 -2 0 -2 -5 -4 -4 -4 -1 3 0 4 -1 0 -1 1 0 -1 0 0 -2 -1 -2 0
-6 0 -5 -1 -1 -1 -1 -1 0 -2 0 -1 1 -2 1 -3 2 -1 2 0 -1 -2 0 -2 1 0 1 0 0 -2
0 -2 4 -2 4 -3 -2 -1 -2 -2 0 -3 0 -2 3 -2 3 -2 0 -1 0 -2 -1 0 -1 0 -2 2 -1
1 -2 -2 -1 -1 -2 1 -1 2 -2 -1 -2 -1 -3 -4 -2 -3 0 -1 0 -2 1 -1 1 -1 0 -4 -1
-4 -1 -2 -2 -2 -3 0 -2 1 -2 -3 -1 -2 0 -4 0 -4 2 -1 1 -1 -1 -1 0 -2 -1 0 -2
0 -5 -4 -4 -3 -5 0 -4 0 -3 -1 -2 -2 -1 -3 -1 -2 -3 -2 -2 -2 0 1 0 2 -2 3 -1
2 -4 0 -4 0 -2 -1 -3 -1 -1 -3 -2 -4 -1 -2 -1 -3 -1 -1 -2 0 -2 1 -1 1 0 2 1
1 -2 1 -2 1 -2 0 -1 -1 -2 0 -1 0 -1 -2 -1 -1 0 -1 1 0 0 1 0 1 2 0 2 0 0 -1
0 -1 -4 -3 -3 -3 0 -1 0 -1 1 0 1 0 0 2 1 2 2 0 3 0 -2 -1 -2 -1 0 -7 1 -6 -2
-1 -2 0 0 -1 0 -2 2 0 3 -1 2 0 3 0 0 -1 0 -1 3 -1 4 0 0 -4 1 -3 1 0 1 0 0
-2 0 -2 -3 -3 -3 -3 0 -1 0 -1 -2 0 -2 0 0 1 1 1 -1 1 0 1 -1 -1 -2 -2 0 -3 0
-2 1 0 1 0 1 -3 1 -2 2 -2 1 -2 1 1 1 0 0 -1 -1 -1 3 -2 4 -3 5 0 5 0 0 1 -1
1 2 0 3 0 2 2 3 3 2 0 2 1 4 -1 5 -2 -1 0 0 -1 2 0 3 1 1 1 1 1 1 3 2 3 0 -1
1 0 1 2 2 2 0 3 1 3 -1 0 -1 -1 0 2 1 2 2 0 2 0 2 1 3 1 0 1 0 1 -1 0 -1 0 1
2 2 2 2 3 3 3 0 2 -1 1 2 -1 2 -1 2 -6 1 -5 3 -3 3 -2 2 0 2 1 2 -1 3 -1 2 1
3 0 2 5 2 5 0 1 0 2 -1 1 -1 1 2 1 2 0 0 1 0 1 -2 2 -1 1 -3 -1 -3 -1 0 2 -1
1 -1 0 0 0 -4 -4 -4 -3 -1 0 -1 0 0 2 0 3 1 1 2 1 -2 0 -1 -1 0 2 0 1 4 5 3 4
2 1 3 0 1 2 2 2 2 1 2 0 1 0 2 0 0 1 0 1 0 1 1 2 2 0 1 0 0 1 0 2 3 3 4 4 3 4
3 4 1 -1 2 0 1 2 1 3 1 0 2 0 1 0 1 1 1 -1 1 -1 0 -2 0 -1 0 -1 0 0 2 -2 2 -2
0 -2 1 -2 1 0 2 0 2 1 2 1 1 -2 2 -2 0 -2 0 -1 -1 1 -2 2 -1 -2 0 -1 0 -3 0
-3 2 -2 2 -2 0 -1 0 -1 1 0 1 0 1 1 0 1 2 -1 1 -1 -1 2 0 3 1 0 2 -1 -1 -1 0
-1 1 0 1 0 1 1 1 1 0 -1 0 -1 -2 -1 -2 -1 1 -1 2 0 1 1 0 1 1 0 1 0 0 -3 1 -2
2 -1 3 -1 1 3 0 3 1 -1 1 0 0 1 0 1 -1 1 -1 1 2 0 3 -1 1 -1 1 -1 -2 -2 -2 -1
0 -1 0 -1 1 1 1 1 2 -1 2 0 1 -4 2 -4 0 -1 -1 0 1 -3 1 -3 3 -2 3 -2 0 -1 0
-1 1 -2 0 -3 -1 0 -1 0 0 -1 0 -2 1 -1 1 0 0 1 -1 1 2 0 1 0 -1 2 0 3 1 -2 2
-2 -2 -2 -1 -2 0 -1 0 -1 1 0 1 0 0 1 0 1 1 0 1 0 -1 -2 0 -1 2 0 1 0 -1 -1
-1 -2 1 -1 1 0 1 -2 2 -1 0 2 0 2 1 1 1 0 -1 -1 0 -2 1 0 1 0 1 2 1 2 -1 2 -1
1 1 0 2 0 0 1 0 2 -1 1 -1 1 1 0 1 0 -1 2 -1 1 1 0 0 0 -1 1 -1 1 0 2 0 2 1
-2 1 -1 0 1 0 1 1 2 2 1 0 0 1 0 0 -1 0 -2 2 0 2 -1 0 -1 0 -1 1 0 2 0 1 0 1
0 0 -2 0 -1 2 -2 2 -2 2 0 3 0 2 1 2 0 0 2 -1 1 1 0 1 0 1 -3 2 -3 -1 -2 -1
-2 1 -1 0 -1 -3 -3 -2 -2 0 -1 0 -1 -2 0 -2 0 0 2 1 1 1 2 0 1 -2 0 -1 0 0 -1
1 -2 -1 0 -1 0 0 1 0 2 0 1 0 1 -2 -1 -2 0 0 2 1 2 -3 0 -3 1 1 3 0 3 -1 1 -1
1 -1 -1 -2 0 0 -3 0 -2 -1 -1 0 -2 3 -3 3 -3 0 0 1 0 -1 2 0 3 1 -2 1 -2 0 -1
-1 -1 2 -5 1 -4 -1 -1 -1 -1 0 1 0 1 -1 0 -1 0 0 -2 0 -2 -1 0 -1 0 -1 0 -1 0
0 -2 1 -2 0 -2 0 -1 1 0 1 0 4 -4 4 -4 1 0 1 0 0 1 0 1 2 0 2 0 0 1 0 2 2 -1
2 0 3 -3 3 -3 1 2 1 1 0 -1 1 -1 1 0 1 1 2 -2 1 -1 0 1 -1 2 1 1 1 0 0 -1 0
-1 3 0 3 0 0 2 0 2 1 0 1 0 1 -1 1 -2 2 0 1 0 0 1 0 1 2 0 2 0 -1 -2 0 -1 1
-1 2 -1 1 0 1 0 0 -2 0 -1 0 -1 1 -1 0 -6 0 -6 -2 1 -2 1 -1 -1 0 -1 1 -1 2
-1 0 -3 1 -2 -2 1 -1 0 1 -1 2 -2 0 0 0 -1 -1 0 -1 1 1 -1 0 -2 -1 0 -1 0 0
-3 1 -2 1 -1 2 -1 2 -2 2 -2 0 -1 0 -1 -3 1 -2 1 -2 0 -1 1 0 -2 0 -2 0 -3 0
-3 2 0 2 -1 3 0 3 1 1 1 2 2 4 -1 4 -1 1 0 0 1 -3 3 -2 3 1 1 1 1 0 1 1 2 -1
0 -1 -1 -1 2 0 2 1 1 1 1 -1 2 -1 2 -2 2 -2 2 0 1 0 1 -2 -1 -3 0 -1 2 0 3 0
2 1 1 2 -1 2 -1 2 0 2 0 1 -2 2 -1 -2 0 -1 1 1 -2 1 -2 1 0 1 0 0 1 1 1 2 -1
2 -1 0 -1 0 -1 -1 1 -1 1 -1 0 -1 0 1 -2 1 -2 1 0 1 0 1 0 1 0 0 -2 0 -2 -1 0
-2 0 -1 2 -2 2 -1 0 -1 0 1 -1 1 0 0 -3 1 -2 3 -2 3 -1 5 0 4 1 0 -2 1 -2 -1
0 -1 -1 1 -2 2 -1 0 -1 0 -1 4 -1 4 -1 0 1 0 1 -1 0 -1 1 0 1 0 1 1 0 1 0 1
-3 1 -2 2 0 2 0 0 -2 1 -2 -1 -1 -1 0 -3 -1 -3 0 1 1 0 1 -1 0 -2 0 -3 3 -3 2
-3 1 -2 0 -2 1 -1 2 -2 0 -2 0 2 -2 3 -3 2 0 3 0 -1 -3 0 -2 1 -2 1 -1 -1 -1
-2 0 -2 1 -1 1 -3 0 -3 1 0 1 0 1 -1 0 0 0 -2 -1 -1 -2 1 -1 1 0 -5 0 -4 1 -2
-1 -1 -1 -1 -2 -2 -1 0 -3 0 -3 -1 0 -1 0 1 -2 0 -1 -2 0 -3 0 0 -2 0 -1 -3 0
-3 1 -2 -2 -1 -2 -2 0 -1 0 0 1 1 1 -3 2 -2 2 -2 -2 -3 -2 -3 2 -3 2 -2 0 -1
0 0 -2 -1 -2 1 -2 1 -1 -1 0 -1 0 -1 2 -2 2 1 1 0 2 0 -1 -1 -1 -2 2 -1 2 0 1
0 2 1 0 1 0 3 -2 2 -1 0 0 0 1 -1 2 -1 2 1 2 1 2 -1 2 -1 1 -3 0 -2 0 0 -1 0
-1 -1 0 -1 0 0 1 1 2 -1 1 -1 1 1 2 1 1 -1 1 -1 1 0 -1 0 -2 -3 1 -3 0 -3 2
-3 2 -1 4 -1 4 -2 2 -2 3 0 -3 1 -3 -1 0 -2 0 0 -1 0 -2 1 0 2 -1 -2 -1 -1 -1
1 -2 1 -2 2 -2 2 -2 0 -3 1 -2 1 0 1 0 4 -4 3 -3 2 -2 1 -2 0 -2 -1 -3 3 -3 4
-3 -1 -1 0 -1 3 -1 3 -1 0 -2 -1 -1 1 -1 1 -1 1 1 0 2 2 -1 2 -1 4 -4 3 -3 -1
-1 -1 0 -1 1 -1 2 0 -2 1 -1 1 -1 2 -1 1 1 1 1 -1 1 0 2 1 -2 2 -1 1 -1 1 0 2
-2 1 -1 -1 -1 0 -1 2 1 2 0 0 -1 -1 -1 -1 0 -1 0 0 -2 0 -1 -1 1 0 1 -1 -1 -1
0 0 2 1 2 -2 0 -1 1 0 -1 1 -1 -1 -1 0 -2 -1 0 -1 0 0 2 0 1 -1 2 -2 1 0 0 -1
0 0 -1 1 -1 -1 0 -1 -1 -1 2 -1 1 1 0 1 0 -1 1 0 1 -1 -2 -1 -2 -1 0 -1 0 0 1
0 1 -2 2 -3 3 0 0 -1 0 1 -1 0 -2 -2 0 -2 0 -6 4 -6 5 -1 0 -1 0 0 2 -1 1 0 2
0 2 -1 1 -2 1 0 -1 -1 -2 -1 0 -1 0 -5 6 -5 5 -2 1 -1 2 -2 3 -3 4 0 -1 0 -1
-1 0 -1 0 0 2 0 2 -1 0 -1 0 -1 1 0 1 2 0 2 -1 -1 4 0 3 0 2 0 2 -3 0 -3 1 0
1 0 1 -3 2 -3 2 -2 2 -3 3 -1 0 0 -1 1 -2 2 -2 2 -3 3 -3 -2 1 -2 0 -1 1 -1 2
0 -1 0 -1 1 -2 1 -3 -2 0 -2 0 0 -2 1 -1 -1 0 -1 0 0 1 0 1 -2 0 -2 1 -3 3 -3
3 -1 -1 -1 0 0 2 0 2 -1 -2 -2 -2 0 1 -1 0 0 1 0 1 2 0 2 1 3 -1 4 -1 1 1 1 2
0 -2 -1 -1 2 0 3 -1 0 0 1 0 0 2 0 2 -1 -2 -1 -1 -1 3 -2 3 -2 0 -1 1 0 -1 1
-1 -3 2 -3 1 -2 2 -2 2 1 0 1 1 2 -1 2 0 -2 1 -1 1 0 1 1 2 -3 0 -3 1 -1 -2
-1 -1 -1 1 -1 0 0 -1 0 -2 -1 0 -1 1 0 -4 0 -3 -2 1 -2 0 0 -2 1 -1 -1 -1 -1
0 -3 0 -2 -1 0 -2 1 -1 -2 0 -2 0 0 -1 0 -1 1 1 1 0 0 -1 0 -1 -3 -3 -4 -3 -1
1 -1 0 1 1 2 2 -1 2 0 2 -1 0 -1 0 2 2 2 3 0 1 0 1 -1 0 -1 0 0 4 -1 4 -1 1
-1 1 -2 -2 -1 -3 -2 0 -1 0 0 -2 0 -1 -1 1 0 1 -2 -1 -1 -1 0 1 1 2 -1 -1 -2
-1 0 1 -1 1 -2 -1 -1 0 0 -2 1 -2 -1 -1 -2 -2 -4 0 -3 -1 -1 -1 0 0 0 -2 -1
-1 1 1 2 0 -3 -2 -2 -3 -1 2 -2 1 -3 -1 -3 -1 -3 -3 -3 -3 1 -1 1 -1 -1 -1 -1
-1 -4 -1 -5 0 1 -1 0 -1 -1 0 -1 0 0 1 -1 0 -3 1 -2 0 -3 -2 -2 -2 -5 1 -5 0
-1 -2 -2 -1 -2 1 -1 1 -2 0 -2 1 -4 -2 -3 -2 -2 2 -2 2 1 2 2 1 -1 0 -1 1 -2
-1 -2 -1 -1 0 -1 0 0 -1 0 -1 -2 0 -2 0 1 -1 0 -2 -1 0 -1 -1 -3 1 -2 1 -1 -1
-1 -1 -1 -6 0 -5 -3 0 -2 0 -4 -2 -3 -2 0 -2 -1 -1 3 1 3 0 -2 -1 -2 -2 -2 0
-1 0 -1 1 -2 2 -2 0 -2 1 0 2 1 2 -1 1 -1 1 -5 1 -6 0 -3 -1 -2 -1 -2 -2 -2
-1 0 -3 0 -2 -2 0 -2 1 1 -1 1 0 -1 -1 0 -2 2 -2 2 -2 0 -2 1 -2 4 1 5 0 2 -2
2 -1 0 -2 -1 -2 3 0 3 1 2 -2 1 -1 0 0 0 -1 -1 0 -1 1 1 -2 0 -1 2 -3 2 -2 1
0 1 0 0 2 1 2 3 -1 4 0 1 -1 1 -1 0 1 0 1 1 -2 2 -1 3 1 4 1 2 -1 2 -1 1 1 1
1 8 1 8 0 4 0 4 -1 0 -3 1 -2 1 1 2 2 3 1 3 2 -1 1 0 2 2 3 2 3 0 1 0 1 3 2 3
2 -1 0 -1 1 0 1 0 1 2 0 2 0 -1 1 -1 1 -1 -1 -1 -1 -3 0 -2 0 -1 -1 0 -1 -2 0
-2 1 -1 -1 -1 -2 0 -1 1 -1 -4 -1 -3 -1 -2 -1 -1 -1 0 1 0 0 2 2 1 2 -1 2 -1
1 2 2 2 2 3 0 2 0 -1 -1 0 -2 2 1 2 0 1 2 1 3 1 0 1 1 0 4 1 4 0 1 0 2 4 2 5
2 1 -1 1 0 4 0 4 0 2 1 3 1 2 -1 2 -1 1 -1 1 0 1 0 0 -1 -1 -1 -1 -1 1 -3 1
-3 4 -2 3 -1 1 1 1 0 4 0 4 0 -2 1 -1 1 2 0 2 0 2 -1 2 0 0 -2 0 -1 1 1 2 1 1
0 1 -1 -1 -4 0 -3 2 1 3 0 2 -2 1 -2 3 0 3 1 0 -1 -1 0 3 -2 2 -1 2 0 2 0 0
-1 1 0 2 2 3 2 -2 0 -2 -1 -1 3 -1 3 2 0 1 0 0 -2 0 -1 1 0 2 0 2 -3 2 -3 0
-1 0 -1 -1 0 -1 1 0 -1 -1 -1 2 -3 1 -3 2 -2 1 -2 0 0 -1 0 2 -2 2 -2 0 -1 0
-1 4 -5 4 -5 0 -1 0 0 3 -4 3 -3 2 -2 2 -2 0 -3 1 -3 2 -1 2 0 3 -4 3 -4 1 -1
1 0 1 0 2 0 2 -2 3 -2 2 -4 3 -4 0 0 0 -1 -2 1 -2 1 -2 0 -1 -1 -5 2 -5 3 0 1
-1 2 -3 0 -4 0 -2 -2 -2 -3 -4 0 -3 0 0 1 0 1 -7 -1 -6 0 0 2 1 1 -2 0 -1 0
-2 1 -1 1 -3 0 -3 1 0 2 0 1 -1 0 -2 0 -4 4 -3 3 -1 0 0 -1 -4 1 -3 1 -1 1 -1
2 0 -2 0 -1 1 -1 1 0 -1 -1 0 -1 -2 1 -1 1 0 -1 0 -1 -1 1 -2 2 -1 0 -1 -1 -1
1 -2 0 0 1 1 1 -2 1 -2 2 -1 -1 -1 -1 1 0 2 1 0 -2 0 -1 -1 0 -1 0 0 1 -1 1
-2 0 -2 0 1 1 2 0 1 1 1 0 -1 1 0 1 -1 -1 -1 -1 0 1 0 2 -2 0 -3 0 0 -1 0 -1
1 0 1 -1 0 -2 0 -2 -1 0 -1 0 1 1 0 1 -1 1 -2 0 -3 -2 -2 -1 -2 0 -2 0 -3 0
-2 -1 0 -2 1 -1 -2 0 -1 0 -1 -3 0 -2 -2 -2 -1 -1 1 -1 1 0 -1 -2 0 -1 1 0 2
1 -1 1 0 1 1 -1 1 0 -1 -2 -1 -1 0 -1 1 0 2 1 1 2 1 0 1 -1 0 -1 -1 -1 3 0 2
-1 0 2 0 2 1 -3 1 -2 0 2 0 2 1 -2 1 -1 2 1 3 2 0 -1 0 -2 -1 -1 0 -2 -2 1 -1
0 -1 -1 -1 0 -4 -1 -3 0 -1 0 0 -1 2 0 3 0 4 -2 4 -2 0 -1 1 -1 0 -3 0 -3 -5
0 -5 0 1 1 0 1 -3 -2 -3 -1 2 -1 3 -2 0 -1 1 0 0 0 1 0 4 0 3 1 3 -2 4 -2 0
-2 0 -2 -2 0 -2 0 0 -3 -1 -2 1 1 1 0 0 -2 0 -1 2 0 1 1 0 -2 0 -1 2 0 2 0 1
-1 1 -2 3 0 3 0 -1 -1 0 -1 2 0 3 0 0 -1 0 -1 2 0 1 -1 0 1 -1 1 2 0 1 1 1 0
0 0 0 -1 -1 -2 7 1 7 0 0 -1 1 -1 -2 0 -2 -1 1 -2 1 -1 1 1 0 1 2 -1 3 -1 0
-1 1 -1 0 1 0 1 3 0 2 -1 0 1 0 1 -2 1 -2 2 -1 -2 -1 -1 0 1 0 2 -1 0 -1 1 2
1 1 1 2 -2 2 -2 2 0 1 0 1 -1 2 -1 3 -2 4 -1 2 0 2 0 0 -1 0 -2 1 -1 1 0 0 1
-1 1 2 0 2 1 2 -1 3 -1 -1 -1 0 -1 1 0 1 0 0 1 0 1 2 0 3 0 -2 1 -2 1 2 0 3 1
-2 2 -1 1 0 1 0 1 4 0 4 -1 0 2 0 2 -1 0 -1 1 3 1 3 0 1 1 1 1 1 0 1 0 2 1 3
1 2 0 2 -1 1 2 1 3 0 -2 0 -1 5 1 6 0 5 1 5 1 0 2 1 1 -1 0 -1 -1 0 2 -1 1 -1
0 -1 0 -2 0 -1 0 0 1 0 1 2 0 1 0 -1 1 0 2 0 -1 1 -1 2 1 1 1 -1 -1 0 -2 2 -1
1 0 2 1 1 2 1 0 1 -1 2 1 2 1 3 -2 4 -1 -1 -3 0 -2 1 0 1 0 0 1 0 1 1 0 2 -1
0 2 1 1 4 0 4 -1 0 2 0 1 4 -1 5 0 1 0 1 0 0 -1 0 -1 2 0 2 1 1 -2 2 -1 9 0
10 0 2 0 2 1 0 0 1 0 -3 2 -3 1 1 2 0 1 1 -1 1 -2 3 1 3 1 2 1 2 0 2 -2 1 -1
2 1 2 2 1 0 1 0 2 1 3 2 2 1 2 2 0 0 0 -1 3 2 2 1 2 1 2 0 1 -1 0 -1 1 0 1 0
-1 1 -1 2 1 0 2 1 -3 -1 -2 0 0 1 1 1 -5 1 -6 1 -1 -1 -2 0 0 1 1 1 6 1 6 2 2
1 3 1 0 2 1 2 6 1 6 0 4 4 4 3 6 3 6 4 3 1 4 0 3 2 4 1 6 0 5 0 -1 -1 -1 0 0
-1 0 -1 2 0 2 1 -1 -2 0 -2 1 1 2 1 2 0 3 1 1 -1 0 -1 -2 -2 -1 -1 1 0 1 0 2
3 3 3 1 0 1 0 0 2 0 2 1 -2 1 -1 0 2 1 2 1 0 1 0 0 1 0 2 4 4 5 5 2 -1 2 0 0
-3 0 -2 -2 0 -1 -1 0 -1 1 -2 -2 -2 -1 -2 1 1 1 1 1 0 1 0 -1 -2 -1 -2 0 -1 1
-1 -5 -3 -4 -2 -2 -2 -2 -1 0 0 0 1 3 2 2 3 1 0 1 0 0 1 0 1 -3 -1 -2 0 0 1 1
2 -1 0 -1 0 -1 -1 -1 -2 0 -2 1 -1 -1 0 -1 1 -1 -2 -1 -1 -2 0 -1 1 0 -1 1 -1
-3 -2 -2 -2 -2 1 -1 1 -1 -2 0 -2 -2 0 -1 0 0 -1 -1 -2 4 0 3 1 1 0 0 1 2 -1
1 -1 -1 2 0 3 1 1 1 0 0 -1 -1 -1 1 0 1 0 -1 -1 0 -1 1 -1 2 -1 1 0 1 0 3 3 4
3 0 3 1 4 1 -2 0 -1 1 0 1 0 4 3 4 4 2 0 1 0 0 1 0 1 2 -1 3 -2 1 1 2 2 2 1 3
2 1 0 0 0 -1 -3 -2 -2 0 -1 1 -1 -3 -3 -2 -2 -2 -4 -1 -3 0 -1 0 -1 2 1 1 2 0
-1 0 -1 -1 -2 -2 -1 0 -2 0 -2 -1 0 -1 1 -1 -3 0 -2 2 0 1 0 0 1 1 2 0 -2 0
-1 4 3 3 3 3 0 2 0 0 -1 1 0 -1 -2 -1 -2 -1 -1 -1 -1 1 -1 1 0 -2 -2 -2 -2 -1
0 0 0 -2 -2 -2 -1 -1 1 -1 2 0 -2 0 -1 1 -1 1 -1 -2 0 -3 0 0 -1 0 -2 -2 -2
-3 -2 -3 0 -2 -1 -4 -2 -4 -1 0 -1 0 -1 -1 0 -2 1 0 -2 0 -2 2 1 2 1 0 -1 -1
-2 1 -1 1 0 1 1 2 1 1 -1 1 -1 0 -1 -1 -1 -3 -1 -3 -2 2 0 2 0 4 2 4 1 1 -1 0
-1 1 0 1 0 -1 2 -1 1 1 1 1 1 -1 1 -1 0 -3 0 -3 0 1 1 1 1 0 1 1 2 0 1 0 0 2
1 2 1 1 0 1 0 -1 -1 0 -1 1 -1 1 -1 3 1 4 2 1 -1 1 0 0 1 1 1 2 0 2 0 0 -1 0
-1 -2 -1 -2 -2 1 0 2 0 0 1 0 1 2 0 2 0 0 1 0 2 -3 2 -2 3 1 -1 2 0 3 3 3 3 0
2 -1 1 1 -1 2 -1 1 1 2 2 0 1 0 0 3 3 3 3 1 0 1 0 -1 1 0 2 2 0 1 1 2 -1 1 -1
-2 -1 -2 0 1 -1 2 -1 1 -2 0 -2 -2 -2 -2 -1 0 -2 0 -2 -1 0 -1 0 0 -2 0 -1 -2
-5 -3 -4 -2 -3 -1 -2 -1 0 0 1 -2 -2 -2 -2 -2 0 -2 0 0 -2 -1 -2 0 -3 0 -2 -1
0 -1 -1 1 0 1 0 1 1 0 1 2 0 2 0 0 -1 0 -1 -1 1 -1 0 -2 -2 -1 -1 2 -3 1 -2
-2 -1 -1 -1 2 0 2 -1 0 1 0 1 2 0 2 0 8 4 7 3 3 1 3 0 0 -1 0 -1 1 0 2 1 -1 1
0 1 1 0 1 0 3 5 3 5 3 1 2 0 2 0 3 1 2 4 2 3 4 0 4 -1 0 1 0 1 1 -1 1 0 4 3 3
4 0 2 0 2 2 2 2 2 2 3 2 3 0 1 0 1 -2 2 -1 2 0 2 1 2 3 2 3 2 -1 -2 -2 -3 0
-1 1 0 3 3 4 2 0 1 0 1 0 1 0 1 1 -2 1 -1 3 1 3 1 1 -1 2 0 -1 -2 0 -2 1 0 1
0 0 2 0 1 1 -1 1 -1 3 0 3 0 1 2 0 3 0 1 -1 2 2 1 2 2 0 0 1 0 1 -3 1 -2 0 -3
0 -2 1 0 1 0 0 1 0 2 3 0 3 1 0 2 0 2 1 0 2 0 1 1 1 1 -1 1 0 1 4 1 3 2 2 0 2
1 -1 -3 -1 -2 1 -1 1 -2 1 0 1 0 -1 1 0 2 1 1 1 0 -1 1 -2 1 3 1 2 2 0 -3 -1
-3 1 0 1 0 0 1 -1 1 1 0 2 0 1 3 2 2 1 -2 1 -2 1 0 2 0 1 -2 1 -1 2 1 2 2 1
-1 1 -2 1 0 2 0 -2 1 -1 1 0 3 -1 3 -2 2 -1 2 5 0 5 0 2 1 2 0 -1 -1 0 -2 2
-2 3 -2 4 1 4 0 0 -2 -1 -1 2 0 2 1 1 1 1 0 2 -2 3 -3 1 1 2 0 1 -3 1 -3 1 0
1 0 1 2 0 2 4 0 3 -1 3 2 2 1 3 4 3 3 2 -1 2 0 2 2 2 2 -1 0 -1 0 0 1 0 1 1 1
2 2 -1 1 0 1 1 0 2 -1 0 2 0 2 2 0 1 0 -1 -2 0 -2 1 0 2 1 2 0 2 0 0 1 -1 0
-2 1 -1 0 -1 1 0 1 -2 0 -2 0 1 1 0 1 -3 0 -4 -1 0 1 1 1 -1 0 -1 0 -2 -2 -2
-2 -1 1 -1 1 0 6 0 5 0 1 1 0 1 -1 1 -1 1 0 1 0 -1 2 -1 1 2 0 3 0 1 1 0 2 1
0 1 0 -1 -1 0 -1 1 0 2 1 -1 2 0 2 1 0 1 1 -1 1 0 1 1 0 1 0 2 -2 1 -1 0 1 -1
2 1 0 1 0 0 1 0 2 4 1 3 1 0 1 0 1 -1 0 -2 1 -1 -1 -1 -1 -2 2 -2 3 -1 0 -1 0
0 -2 -1 -1 1 1 1 0 -1 -2 -1 -2 -2 0 -1 0 0 -1 0 -1 -3 0 -3 0 -2 0 -2 -1 1 3
0 4 -1 2 -1 1 1 1 1 1 1 -1 2 0 -1 0 -1 1 1 2 1 2 3 0 3 0 -1 2 0 2 -2 0 -2 1
-5 -2 -6 -2 -1 1 -2 1 2 1 3 2 2 0 2 1 5 0 5 0 3 -3 4 -4 1 0 1 0 0 1 0 1 6 0
6 -1 1 1 0 1 -1 1 0 1 -4 1 -3 2 -2 0 -3 0 -1 2 -1 2 -1 -1 -1 0 1 -1 0 -1 -1
1 -1 1 -11 0 -10 -1 0 1 -1 2 -1 -2 -2 -1 -2 1 -2 1 -2 -1 -2 0 0 1 -1 1 2 -1
1 0 0 1 -1 1 -3 0 -3 0 0 1 1 1 -2 1 -1 1 1 0 1 0 0 2 1 2 -2 0 -1 0 0 1 -1 1
-2 -2 -3 -3 -2 0 -2 1 0 -1 0 -1 1 0 1 0 0 -2 1 -1 -2 1 -2 1 0 1 -1 1 -1 -2
-1 -2 -2 1 -2 1 0 -1 1 -1 -1 0 -2 -1 -1 1 -1 1 1 1 2 0 0 1 0 1 -2 -1 -1 0
-1 -1 -1 -1 0 1 0 1 -2 -1 -2 -1 -1 1 -2 2 0 -1 -1 -1 1 0 2 -1 -2 -1 -1 -1
-2 1 -1 0 1 -1 1 -2 -1 0 -1 0 -1 2 -1 1 0 -2 -1 -2 -2 1 -2 0 -1 3 -1 2 0 1
0 0 1 0 1 -1 0 2 -1 2 0 1 -1 1 1 1 2 1 1 0 1 0 0 2 1 1 -1 1 -1 2 1 1 1 1 -1
0 -1 0 -2 0 -1 0 0 1 1 1 -1 1 0 1 -2 -3 -1 -2 0 1 0 2 -2 -1 -1 -2 -2 -1 -2
-1 0 2 0 2 1 0 2 0 1 0 1 0 0 1 0 2 -2 -1 -2 -1 1 1 1 2 2 0 3 -1 -2 1 -2 2 0
1 0 2 -1 -2 -1 -1 -2 1 -1 0 1 -1 1 -2 -1 -1 -1 -2 1 0 0 0 -1 -1 -1 -1 -4 0
-3 0 -1 -1 0 -2 -2 0 -2 0 0 1 -1 1 -2 -1 -3 -1 -1 1 -1 1 -1 -2 -1 -2 -2 -1
-2 -1 1 4 0 4 -1 -5 -2 -4 -1 -1 -1 0 -1 4 -1 4 -1 -1 -1 0 1 2 0 2 1 -1 2 0
0 2 1 2 -2 1 -2 0 0 1 1 1 -4 1 -3 2 0 -2 0 -1 -1 0 0 0 -3 -1 -3 0 -2 0 -1
-1 -1 2 -1 2 -4 0 -4 0 0 -2 0 -1 -2 2 -1 2 -3 1 -3 1 -1 -1 0 -1 -2 1 -2 2
-2 -3 -2 -2 -2 0 -2 0 -1 -2 -1 -1 -2 1 -1 1 0 -1 0 0 -1 1 -1 2 -4 0 -4 -1 0
2 -1 2 -1 0 -1 0 -2 -2 -3 -3 -1 0 -2 0 0 2 1 1 -2 0 -2 0 0 -1 -1 -1 -2 1 -2
0 1 1 1 1 1 0 2 1 -2 2 -2 2 1 1 0 1 1 -1 1 0 0 2 -1 2 2 1 2 1 0 2 0 2 -1 0
-2 0 0 -1 -1 -1 -2 0 -1 0 -1 -2 -2 -1 -1 0 -1 1 0 2 0 2 -2 2 -2 1 0 2 0 1
-1 0 -1 0 1 2 0 2 2 0 1 0 0 2 1 3 -2 2 -1 2 0 1 0 2 -1 0 -1 0 0 1 1 2 0 1 1
0 1 -1 1 -1 2 2 1 2 2 0 2 -1 0 1 0 1 1 0 1 0 2 0 3 0 -1 1 0 1 3 4 3 4 4 4 3
4 0 2 0 2 3 1 3 0 3 4 4 3 2 0 2 0 4 2 3 1 3 0 2 -1 0 1 1 1 3 0 3 -1 3 -1 3
-1 5 -1 6 0 0 2 1 2 -1 -1 -1 0 0 1 1 2 -1 0 -2 0 -2 3 -2 2 -1 4 0 3 -1 1 0
1 -2 0 -2 0 -4 1 -4 1 0 1 0 1 -1 0 0 -1 -2 1 -1 1 -2 -1 -1 -1 -5 0 -4 1 -1
1 -1 1 1 2 2 2 0 0 0 1 -2 0 -2 0 -4 2 -4 2 1 0 0 1 2 0 2 0 0 1 -1 1 -3 -1
-3 0 -3 -3 -3 -3 -1 0 -1 -1 1 -1 1 0 0 -1 0 -1 -1 0 -1 1 -2 -2 -2 -1 -2 0
-1 1 2 3 3 3 0 1 1 2 -4 0 -3 0 0 -1 0 -1 -1 0 -2 0 0 1 0 1 2 1 3 2 3 3 3 3
4 1 4 1 4 0 4 0 -1 1 0 1 2 -1 2 0 0 1 0 1 3 1 4 0 1 1 2 0 3 0 4 1 1 -1 2 -2
1 0 1 1 0 -1 0 -1 1 -1 2 -2 0 1 1 2 0 -2 0 -1 3 0 2 -1 2 1 2 0 0 1 0 2 1 0
2 1 0 3 0 3 -2 -1 -2 -1 1 2 1 2 0 0 0 1 -1 -1 -1 0 0 1 1 1 2 0 2 0 3 1 4 0
0 -1 0 -1 2 0 2 0 7 -4 7 -3 -1 -1 0 -1 -2 0 -1 0 0 -1 0 -1 2 0 2 -1 2 1 2 1
3 -1 3 -2 2 1 1 2 4 0 4 0 0 1 0 1 1 2 0 3 -1 0 -1 0 0 -1 0 -1 -2 0 -3 0 -1
-1 0 -1 -1 1 -1 0 -3 0 -4 0 0 2 0 1 -4 1 -4 1 0 2 0 1 3 0 3 0 -4 4 -4 3 -1
0 -1 0 0 -1 0 -1 -2 0 -1 1 0 -2 0 -2 -4 0 -3 -1 -4 3 -4 2 -1 3 0 3 -1 4 -1
4 -4 3 -3 3 -2 1 -2 1 -1 -1 -2 0 -1 4 -1 4 -2 1 -2 0 0 2 0 3 3 2 2 2 -2 0
-2 -1 -1 0 -1 -1 -1 0 0 1 1 2 0 2 3 1 2 1 0 1 -1 0 -2 -1 -3 -1 -2 2 -2 2 0
1 0 1 3 0 4 0 2 -1 3 -1 0 -1 0 -2 3 -3 4 -3 1 -2 2 -2 5 0 5 0 1 -1 0 -1 3 1
3 0 0 1 0 0 0 2 1 3 -1 1 -1 2 1 2 1 1 -2 0 -2 0 -1 -2 -1 -3 -1 0 -1 0 0 3 1
2 -2 -2 -2 -3 -4 1 -3 0 -5 5 -4 4 0 1 0 0 2 0 1 0 0 1 -1 1 -2 0 -2 0 0 1 0
1 -3 0 -3 0 -4 0 -3 0 -3 -2 -3 -3 -3 0 -3 -1 0 -2 -1 -1 1 0 1 0 0 -1 -1 -1
1 -1 0 -2 3 1 2 0 0 -2 0 -2 -5 -4 -5 -5 0 0 -1 0 -2 -2 -2 -3 -3 0 -3 0 -2
-2 -2 -1 -1 -3 0 -3 -2 -1 -2 0 -4 -2 -4 -1 -4 -5 -3 -5 0 -1 0 -1 -1 -1 -2
-1 -2 0 -2 -1 0 1 -1 1 -2 -1 -2 0 -3 2 -3 2 0 -1 -1 0 0 -3 0 -2 -1 0 -1 -1
0 1 -1 2 0 -2 0 -2 -3 0 -3 0 -4 0 -4 0 -2 -2 -2 -1 -1 -2 -1 -2 -2 -1 -2 0
-4 0 -4 0 -2 -2 -2 -1 1 -2 0 -1 -1 -2 -2 -2 0 1 0 1 -2 0 -2 0 0 -1 0 -1 2 0
2 0 -2 -1 -1 0 3 -2 4 -2 2 0 3 0 1 -1 0 -1 0 -1 -1 -1 -4 2 -3 1 -1 -1 -2 -2
1 -1 1 -1 4 -2 5 -2 0 -1 1 -1 1 0 1 1 0 -1 0 -1 -1 0 -1 -1 3 0 4 1 1 1 1 1
3 -1 4 0 1 -1 0 -1 -1 -3 -2 -4 -3 -1 -2 -1 -2 0 -1 0 -2 -1 -1 -1 3 0 3 1 2
1 2 0 0 -1 0 -1 2 0 2 0 -3 -1 -2 -2 4 1 4 0 -1 -1 -1 -1 -5 -1 -5 0 0 -1 0
-1 2 1 2 0 -1 -1 -1 -2 -4 0 -4 1 1 -1 2 -1 -2 0 -1 0 -2 1 -3 1 -2 -1 -2 -1
-1 1 -1 1 -1 -1 0 0 -2 -1 -1 0 -3 0 -2 -1 -3 3 -2 3 -2 0 -2 1 -1 -1 0 -1 -2
1 -1 0 2 -1 2 -1 1 -2 2 -2 0 -1 0 0 -3 0 -2 0 -2 0 -2 0 0 -1 0 -1 3 1 3 0 3
-3 3 -3 0 1 -1 1 1 0 1 0 0 -2 1 -2 -4 2 -4 2 -2 0 -2 0 1 2 1 1 -2 -1 -3 0
-2 2 -2 2 -4 -1 -3 0 0 1 1 2 -1 1 -1 0 1 2 1 2 -1 0 0 1 -1 0 -1 0 0 -2 0 -2
-1 1 -1 1 -1 0 -1 0 1 -1 1 -2 -1 0 -1 -1 0 -2 0 -1 1 1 2 0 -2 -1 -1 -1 -3 1
-4 2 -1 1 0 1 2 -2 3 -1 1 1 0 2 -1 1 -1 2 2 0 1 1 0 1 -1 2 -1 0 0 0 -2 1 -2
0 -3 3 -3 3 -4 3 -4 2 0 1 0 1 -2 1 -2 1 0 -2 -1 -1 1 0 1 0 3 -3 2 -2 0 -1 0
-1 4 -3 4 -4 0 0 1 0 2 -1 2 0 0 -2 0 -2 -1 1 -2 2 0 -1 -1 -1 1 -1 0 -1 -4 1
-3 0 -1 1 0 1 -3 0 -3 1 1 1 1 0 0 2 0 1 -1 -1 -1 -1 -2 0 -2 0 -2 1 -1 2 1 2
2 2 2 0 3 0 0 0 0 1 -1 0 0 0 -2 2 -2 1 -3 -2 -2 -1 0 1 0 1 -1 -2 -1 -1 -3 3
-3 3 0 0 0 1 2 0 3 -1 -1 1 0 2 -2 0 -1 1 0 2 1 1 -1 0 -2 -1 0 1 0 2 -1 -2
-2 -2 0 1 -1 1 1 1 2 2 1 -1 1 -1 1 0 0 1 -2 3 -3 3 -1 0 0 0 -2 0 -2 1 0 2 0
1 3 -2 2 -1 0 1 0 2 -1 0 -1 0 1 2 0 1 -1 0 -1 0 -2 2 -2 2 0 0 0 -1 -2 2 -2
2 -1 -1 -1 0 0 2 1 2 -2 1 -1 1 -1 0 -1 -1 1 -1 0 -1 -1 -1 -1 0 0 0 1 1 -1 2
-1 1 1 1 2 0 -1 2 -1 1 0 3 1 3 -1 0 -2 0 0 2 1 2 -2 1 -2 1 1 1 0 1 -1 -1 -2
0 0 1 -1 1 3 0 2 -1 1 -1 1 -1 0 0 0 1 2 -2 2 -1 0 1 -1 1 2 0 2 -1 0 -1 0 0
1 -3 0 -2 2 0 1 0 -1 2 0 3 -2 2 -1 2 -1 0 -1 0 1 1 0 1 -1 0 -2 -1 -2 3 -2 3
1 1 0 1 1 -1 1 -1 3 3 3 4 1 1 1 1 -1 2 0 2 -1 2 -1 2 -3 0 -3 0 0 2 0 3 -2 0
-3 1 -1 -2 -1 -1 -3 0 -3 1 0 -1 -1 -1 -2 1 -2 2 0 -1 0 -2 -2 0 -1 -1 0 -1 1
-1 -2 0 -1 0 -1 -2 0 -1 -3 0 -2 -1 0 1 0 1 -1 -1 -1 0 1 -1 0 -1 -1 0 -1 0 0
1 0 1 -1 0 -1 -1 1 1 0 2 -2 1 -1 2 1 -2 1 -2 -1 0 -2 0 0 3 0 2 -1 1 -2 0 0
2 0 3 1 -2 1 -1 0 0 0 1 0 1 1 2 -2 2 -1 2 1 2 1 2 -1 1 -2 2 0 2 -1 2 -1 -1
-1 0 1 2 0 1 1 0 0 -1 2 2 1 2 1 -1 1 -1 1 1 1 1 -1 4 -2 4 1 3 1 3 2 0 2 0 0
1 0 1 -1 0 -1 0 1 2 0 3 -2 0 -2 1 1 1 2 1 -2 0 -1 0 0 5 0 4 2 0 1 0 1 2 2 3
0 3 1 4 2 0 1 1 1 0 0 0 0 -1 0 -2 3 1 3 0 2 -1 2 -1 0 -1 0 -1 -3 -1 -4 -1 0
-2 -1 -1 1 -3 1 -3 1 -1 0 0 1 1 2 1 0 -1 0 -1 1 1 1 1 1 -1 2 0 0 -1 1 -2 -2
-2 -2 -2 0 1 0 1 -1 -2 -1 -1 0 -4 0 -4 3 -3 2 -4 3 0 2 0 0 2 0 1 -1 -1 -1 0
2 3 2 3 0 1 -1 2 2 2 1 2 -1 0 0 1 1 1 1 1 -2 2 -3 3 -1 6 0 6 3 3 3 3 0 1 -1
1 2 1 2 0 0 1 0 1 2 -1 2 0 1 2 1 2 3 1 3 1 0 1 -1 2 1 0 1 1 5 -2 5 -2 2 -1
3 -1 3 -3 3 -3 0 -11 0 -11 1 -1 2 -1 2 1 2 0 0 -1 0 -1 0 -4 1 -3 -1 0 -2 0
-1 2 -2 2 0 1 0 2 -1 0 -1 0 1 -1 0 -2 -1 0 -2 0 1 -3 2 -3 3 -2 3 -2 3 0 3 1
3 1 3 0 4 -7 5 -7 1 0 1 -1 2 0 3 1 0 2 1 2 -2 2 -1 2 -5 1 -5 2 -7 5 -7 6 -1
3 0 2 0 3 1 2 -1 1 -1 1 0 5 0 6 -1 0 -1 0 -1 4 -1 3 3 4 2 4 1 0 1 0 0 6 -1
6 -1 3 -2 4 2 -1 1 0 0 1 0 1 4 0 3 1 0 2 0 1 -5 1 -5 2 -2 -1 -1 0 -2 1 -1 2
-3 1 -2 0 -5 5 -5 5 -1 0 -1 0 1 -2 2 -3 -1 -2 -1 -3 1 0 1 0 0 -1 -1 -1 1 -2
2 -3 -2 0 -2 0 -2 3 -3 2 0 1 1 1 -2 3 -1 4 -1 1 -1 2 0 2 0 2 -1 2 -1 2 1 1
1 0 0 2 0 1 1 0 1 0 1 -3 1 -2 0 -2 0 -1 1 0 1 0 2 1 2 0 0 4 0 3 -3 4 -3 4
-2 0 -1 0 0 -1 -1 -1 -1 1 -1 2 -1 0 -2 0 0 1 0 1 -3 0 -2 1 -2 -2 -2 -2 -3 0
-2 0 -3 1 -2 2 -3 1 -3 1 0 5 0 6 -3 2 -2 2 -4 3 -4 4 0 2 -1 2 3 4 2 4 0 2 0
2 1 1 1 1 2 -2 2 -2 1 0 1 1 0 1 0 2 3 2 3 2 0 0 1 0 3 2 3 1 0 1 -1 1 2 -1 2
0 0 1 -1 1 2 3 1 4 0 4 0 4 -1 1 0 2 -5 3 -4 3 1 2 2 3 0 3 1 4 -3 2 -3 2 0 2
0 1 2 1 2 1 0 2 0 1 -1 -1 -1 -1 -2 0 -2 0 0 -1 0 -1 -1 0 -1 0 0 1 1 2 -1 0
-1 1 1 1 1 2 2 0 1 0 3 2 3 2 1 0 1 0 -1 2 0 1 -2 3 -2 3 1 2 0 2 4 -1 4 0 0
2 0 2 -2 5 -3 4 1 2 1 1 0 0 -1 1 5 0 5 0 2 1 3 1 0 3 -1 2 2 1 2 1 4 0 3 1 1
1 1 1 0 1 1 2 1 2 2 1 -2 0 -2 -1 -1 1 -1 1 -2 0 -2 0 0 -1 0 -1 -1 0 -1 0 0
1 1 1 -2 0 -2 1 -1 -1 -1 0 0 1 1 2 0 1 0 1 5 2 6 2 1 3 1 2 1 0 1 0 -1 1 0 2
2 2 3 2 3 3 4 3 4 2 5 3 1 0 2 0 -2 -1 -1 -1 1 0 2 0 2 -1 3 0 3 1 2 2 1 -1 1
0 1 2 2 1 -1 2 0 1 1 0 2 -1 1 2 1 1 2 0 1 0 0 2 1 1 2 0 1 0 -2 1 -1 2 1 1 2
1 -2 1 -1 0 0 1 0 1 3 -1 3 -1 1 -1 1 -1 4 1 5 0 0 2 1 1 -2 2 -1 3 0 0 1 1
-1 -1 -1 -1 -5 1 -5 1 -1 -1 0 -1 4 0 4 -1 0 -1 0 -1 -3 1 -2 0 -3 1 -3 1 -2
-1 -2 -1 -1 1 0 1 -5 0 -4 -1 0 1 0 1 2 0 3 1 1 0 2 0 0 1 1 2 -1 0 -1 0 -4 0
-4 1 -2 -1z m-2 -24 l0 -1 -3 -1 -2 0 1 2 1 2 1 0 2 -1 0 -1z m-36 -23 l-2 -2
-2 -1 -1 0 2 2 2 3 1 0 1 0 -1 -2z m-3 -4 l0 -1 -1 0 -1 -1 0 1 0 1 1 0 1 0 0
0z m-47 -17 l-1 0 -1 1 0 1 -1 -1 -1 0 0 1 0 1 1 0 0 1 2 -1 1 -2 0 -1z m0 -9
l0 -2 -1 0 -1 0 1 2 0 2 1 0 0 0 0 -2z m-1 -4 l0 -1 -1 0 -1 0 0 -1 1 -1 -1 0
-1 -1 -2 1 -2 2 2 1 2 1 1 0 2 0 0 -1z m-28 -13 l0 -1 -2 0 -1 1 -1 1 0 1 2 0
2 0 0 -2z m-16 -25 l0 -1 -1 0 -1 0 0 1 0 1 0 0 1 0 1 -1z m0 -7 l-2 -2 -1 -1
-1 0 0 1 0 1 2 1 1 2 1 0 1 0 -1 -2z m-5 -7 l1 -1 -1 0 -1 -1 1 -1 1 0 -1 -4
0 -3 0 -1 0 -1 -1 0 -2 1 -1 -1 0 -1 -1 1 -1 0 0 -1 0 -2 -1 0 -1 0 1 3 1 3
-1 1 0 1 1 0 1 -1 1 3 0 4 1 1 1 1 1 0 1 0 0 -1z m-21 -46 l0 -2 -1 0 -1 -1 0
1 -1 1 1 1 0 2 1 0 1 0 0 -2z m1 -20 l-1 -2 -2 0 -2 0 -2 2 -2 1 0 1 0 1 2 -1
2 0 2 1 3 2 0 -1 1 -1 -1 -3z m140 -56 l-1 -1 -3 0 -2 0 1 1 2 1 1 0 2 0 0 -1z
m-50 -47 l-1 -1 1 0 2 -1 -1 0 -1 -1 -1 1 -1 1 0 1 1 1 1 0 0 0 0 -1z m-25
-30 l1 -2 -1 0 -2 0 0 2 0 1 1 0 0 0 1 -1z m1 -4 l0 -2 -1 0 -2 0 0 1 0 1 1 0
2 1 0 0 0 0 0 -1z m40 -28 l-1 0 2 -1 1 -2 -1 -1 0 -2 -2 0 -1 0 -1 -1 0 -1 1
-1 2 -1 -3 0 -2 1 -1 0 0 0 1 2 2 1 -1 0 -1 0 1 2 2 1 -1 1 0 1 1 1 2 1 0 0 0
0 0 -1z m-5 -2 l-1 -1 0 1 0 2 1 0 0 -1 0 -1z m213 -3 l0 -1 -1 0 -1 0 1 1 0
1 1 0 0 0 0 -1z m-219 -2 l1 -1 -1 0 -2 0 1 1 0 1 1 0 0 0 0 -1z m-4 -3 l0 -1
-1 0 -1 0 0 1 0 2 1 0 0 1 1 -1 1 0 -1 -2z m7 -4 l1 -3 0 -1 -1 0 -1 2 -2 1 0
2 1 1 -1 2 -1 1 1 -1 2 0 1 -4z m-16 1 l0 -1 0 -1 0 -2 -1 0 -1 0 0 3 0 2 1 0
1 -1 0 0z m22 -3 l0 -1 -2 1 -1 1 -1 1 0 0 1 1 0 1 2 -2 1 -1 0 -1z m-231 -3
l2 -1 0 -1 0 -1 -2 -2 -3 -1 -2 0 -2 1 0 2 0 1 2 1 2 2 1 0 0 0 2 -1z m229
-11 l0 -1 -1 0 -1 0 0 1 0 1 0 0 1 0 1 -1z m182 -1 l0 -1 -1 0 0 -1 -1 1 -1 0
1 1 0 1 1 0 1 0 0 -1z m-5 -2 l0 1 1 -2 1 -1 -1 -2 -1 -2 -2 0 -1 0 0 -1 0 -1
-2 -3 -2 -2 -4 0 -3 0 0 2 1 1 3 1 3 1 0 1 0 1 2 3 3 2 -1 1 0 2 1 -2 2 -1 0
1z m-354 -1 l0 -1 -2 0 -1 0 1 1 2 1 0 0 0 0 0 -1z m177 -3 l-1 -1 0 1 0 2 1
0 0 -1 0 -1z m177 -5 l-2 -2 0 1 0 1 -1 -2 -1 -1 0 0 -1 1 3 2 2 3 1 0 0 -1
-1 -2z m-191 0 l1 -2 -1 0 -1 0 -1 1 -1 1 0 1 0 1 1 0 1 0 1 -2z m16 -1 l-1 0
1 -1 0 -1 -1 0 -1 0 0 1 0 0 1 2 1 2 1 -1 0 -1 -1 -1z m-244 -5 l0 -1 -3 0 -2
1 -2 -2 -1 -2 -3 0 -3 0 -1 -1 -1 -2 -1 0 -2 0 -2 -2 -2 -3 1 0 0 -1 -2 0 -2
0 0 1 -1 2 2 1 2 1 0 2 -1 1 2 4 1 3 2 0 1 0 1 2 1 1 3 -1 3 0 3 -1 3 0 2 2 1
1 1 -2 1 -2 -1 -2z m235 1 l0 -1 -1 0 -2 -1 0 1 0 1 2 0 1 0 0 0z m202 -3 l-1
-2 -1 0 -1 0 0 1 0 2 1 1 1 1 1 0 0 -1 0 -2z m-200 -6 l1 -1 -1 1 -1 0 0 1 0
1 0 0 1 0 0 -2z m12 0 l0 -1 -1 1 -2 1 0 1 0 0 2 -1 1 0 0 -1z m12 -7 l2 -2
-2 0 -1 -1 -1 0 0 0 1 2 0 1 -1 0 -1 0 0 1 0 1 0 0 1 0 2 -2z m-103 -1 l0 -1
-1 0 -2 0 0 2 -1 1 2 0 1 0 1 -2z m3 -7 l0 -1 -2 2 -1 3 0 1 0 1 2 -2 1 -2 0
-2z m-34 1 l-2 0 1 -1 0 -1 -1 1 -2 2 0 1 1 1 2 -1 2 -1 -1 -1z m254 2 l0 -1
-1 -2 -2 -1 -1 1 -1 1 1 1 1 2 1 0 1 0 1 -1z m-226 -2 l0 -2 1 0 1 -1 0 1 1 1
0 -1 1 -2 -2 0 -1 0 0 -1 0 -1 -2 1 -1 0 1 -1 0 -2 -1 -1 -2 0 0 -2 0 -1 -1 0
-1 0 0 2 0 1 1 0 1 0 0 1 0 2 2 1 1 1 0 1 0 1 -2 -1 -3 0 0 1 0 1 3 0 2 0 0 2
-1 1 1 0 1 0 0 -2z m261 -3 l-1 -1 1 1 0 2 1 0 0 -1 -1 -1z m-26 -3 l0 -2 -2
0 -1 0 1 2 1 1 0 0 1 0 0 -1z m-263 -1 l-1 0 -1 0 -1 1 1 0 2 0 0 -1z m34 -3
l-1 -1 1 1 0 2 1 0 0 -1 -1 -1z m-14 -3 l0 0 -1 0 -1 1 0 2 0 1 1 -2 2 -1 -1
-1z m11 3 l0 -1 -1 0 -1 0 0 1 0 1 0 0 1 0 1 -1z m-22 -1 l0 0 1 -4 0 -3 -2 1
-2 1 0 3 1 3 0 0 0 0 1 0 1 0 0 -1z m7 -3 l-1 -1 -1 0 -1 1 -1 1 0 2 3 -1 2 0
-1 -2z m-135 -1 l-1 -2 -2 0 -2 0 0 -1 -1 -1 2 0 3 0 -1 -2 0 -2 -2 0 -1 0 1
1 2 1 -2 0 -1 0 -1 1 -2 2 1 1 0 1 2 0 2 0 1 2 1 1 1 0 1 0 -1 -2z m168 0 l-1
-1 0 1 0 2 1 0 0 -1 0 -1z m-134 -2 l-1 -1 1 -2 1 -2 -1 0 -2 0 -1 0 0 0 -1 2
0 2 0 1 1 1 2 0 1 0 0 -1z m-40 -6 l1 0 -2 0 -1 1 -3 -1 -2 -1 0 1 0 1 1 1 1
1 2 -1 3 -1 0 -1z m337 -6 l1 0 -1 -2 -1 -1 -2 0 -1 0 1 1 1 0 0 2 0 1 1 0 1
0 0 -1z m-350 -2 l0 -1 -1 -1 -1 0 2 -1 2 -1 0 -1 0 -1 -3 -3 -2 -3 -3 1 -3 2
0 -1 0 0 0 -2 0 -1 -3 0 -2 -1 -4 0 -3 -1 -1 0 -1 0 -1 0 0 1 -1 1 -1 1 1 1 1
1 -1 2 -1 2 1 0 2 -1 2 -1 3 0 0 1 1 2 4 0 3 0 -1 -1 0 -1 4 2 4 2 0 2 1 2 1
0 1 0 0 -1z m403 -2 l-2 -1 -1 0 -1 0 -2 -2 -2 -2 -3 1 -2 1 0 1 0 1 4 1 4 0
2 1 3 1 1 0 1 0 -2 -2z m-76 0 l1 -2 -3 1 -2 0 0 1 -1 1 2 0 2 0 1 -1z m-368
-8 l0 0 -2 0 -1 0 0 1 1 2 -1 0 -1 1 0 1 1 1 2 -3 1 -2 0 -1z m237 -22 l0 -1
-1 0 -1 0 0 1 0 1 0 0 1 0 1 -1z m39 -19 l1 -1 -1 1 -2 0 0 1 0 0 1 0 1 0 0
-1z m-130 -14 l0 -1 -1 1 -1 0 0 1 0 1 1 0 1 -1 0 -1z m-22 -1 l0 -1 -2 -1 -1
-2 -2 0 -1 0 2 2 3 2 0 0 1 0 0 0z m345 -5 l0 -1 -1 -1 -1 0 0 0 1 1 -1 2 -1
1 1 -1 2 0 0 -1z m-193 -3 l1 -2 -2 0 -2 0 0 2 0 1 1 0 1 0 1 -1z m35 0 l1 0
0 -2 0 -2 -1 0 -1 0 0 2 1 1 -2 0 -1 -1 -2 0 -1 0 0 1 0 1 -1 0 -1 0 0 -1 -1
-1 -1 0 0 1 1 1 1 1 4 0 4 -1 0 0z m155 -10 l2 -2 0 -1 -1 -1 -1 0 -1 0 0 2 0
1 -2 0 -3 0 0 2 0 1 2 0 3 0 1 -2z m-30 -3 l0 -1 -1 0 -1 0 0 1 -1 2 1 1 1 1
1 -1 1 -1 -1 -2z m22 -4 l1 -2 0 -1 -1 0 -5 0 -5 -1 -1 1 0 1 1 0 1 0 2 1 1 2
-1 1 -1 1 3 0 4 0 1 -3z m72 -1 l-3 -1 -1 1 -1 0 1 1 0 1 3 0 4 0 -3 -2z m56
-5 l-1 -1 -2 -1 -2 0 1 2 0 3 1 1 1 1 1 -2 1 -2 0 -1z m-62 -1 l0 -1 -1 1 -1
0 0 2 0 1 1 0 1 -1 0 -2z m23 1 l1 -2 -1 0 0 0 -2 1 -1 1 0 1 1 1 0 0 1 0 1
-2z m-98 -1 l0 -1 -3 0 -3 0 0 1 0 1 1 0 2 1 1 -1 2 0 0 -1z m-136 -1 l-1 -1
-1 0 -1 0 0 1 0 1 2 0 1 0 0 -1z m237 -4 l0 -1 -1 0 -1 0 0 1 0 1 1 0 1 0 0
-1z m60 -3 l0 -1 -1 0 0 1 0 1 1 1 1 0 0 0 -1 -2z m-485 -1 l0 -1 -2 0 -1 0 1
1 0 1 1 0 1 0 0 -1z m493 -1 l-1 -2 0 0 1 -1 -2 -1 -2 -1 0 1 1 2 -4 -1 -4 0
0 1 0 1 3 1 2 2 4 0 3 0 -1 -2z m4 0 l0 -1 -1 0 -1 0 0 1 0 1 0 0 1 0 1 -1z
m10 -2 l0 -1 2 0 2 1 0 -1 1 -2 -1 -2 0 -1 -2 -2 -2 -2 -2 0 -1 0 0 -2 1 -1
-1 1 -1 0 0 -1 0 -1 -2 0 -2 0 0 -1 -1 -1 -2 1 -2 0 -1 -1 0 -1 -3 1 -3 0 0
-1 0 -1 -3 0 -2 -1 0 -1 1 -1 1 0 1 0 0 -1 -1 -2 2 0 2 0 2 0 2 0 -2 -3 -2 -4
-2 0 -1 -1 0 2 0 3 -1 1 -1 0 -1 1 0 0 -3 1 -3 1 0 2 0 3 -3 2 -3 3 -2 0 -1 1
1 1 0 1 2 -1 1 -1 1 2 1 3 -1 0 -1 0 0 1 0 1 2 0 1 0 2 -2 1 -1 -1 2 -1 3 0 0
0 1 2 0 2 1 2 -1 1 -1 1 0 2 1 0 -1 0 -1 3 0 3 0 3 1 2 2 1 -1 1 0 1 1 1 1 1
-1 2 -1 1 1 0 2 2 0 1 0 0 -1z m-378 -11 l1 0 -1 -2 -1 -1 -2 1 -1 0 -1 0 -1
0 0 1 0 1 1 1 1 2 1 -2 2 -1 1 0z m254 1 l-1 -1 0 1 0 1 1 0 0 1 1 -1 0 0 -1
-1z m-239 -6 l0 -2 3 -1 3 -1 1 1 1 1 2 0 2 0 0 -1 0 0 -4 -5 -4 -4 -2 1 -1 1
1 0 1 0 2 1 1 2 0 1 0 0 -1 0 0 -1 -2 2 -2 2 -2 1 -2 2 -1 0 -1 -1 1 0 2 0 0
-1 0 -1 -1 -2 -1 -3 -2 0 -1 0 0 -1 0 -1 -1 0 -1 0 0 1 1 2 -2 0 -2 1 0 2 -1
1 2 0 2 0 0 1 0 1 -2 1 -2 0 3 1 3 1 4 0 4 -1 -1 -1z m-287 -1 l2 0 0 -1 0 -1
-2 1 -2 0 -1 1 0 1 1 0 1 0 1 -1z m59 -2 l1 -2 -2 0 -1 -1 0 3 0 3 0 0 1 0 1
-3z m252 -1 l2 -1 -3 0 -2 1 -4 0 -3 0 0 2 -1 1 5 0 4 -1 2 -2z m-253 -4 l0
-1 -2 0 -2 0 0 1 0 1 1 0 0 1 2 -1 1 0 0 -1z m227 -2 l0 -1 -1 0 -1 0 0 1 0 1
0 0 1 0 1 -1z m74 -1 l2 0 0 -1 0 -1 -2 0 -1 -1 3 0 3 0 0 -1 1 -1 3 1 4 0 1
2 1 1 2 0 1 0 0 -1 -1 -1 2 0 3 0 0 -1 0 -1 -1 -1 -1 0 -5 -2 -4 -2 0 -1 0 -1
-2 -1 -2 0 -6 2 -6 2 -3 0 -2 0 -2 0 -1 0 1 2 0 1 -1 0 -1 0 0 1 1 0 2 -1 2
-1 3 1 3 2 -1 2 0 3 1 0 1 0 2 -1z m-69 -3 l0 -1 -2 0 -1 -1 -1 1 -2 0 0 1 0
1 3 0 2 0 1 -1z m-6 -4 l0 -1 -1 0 -1 0 0 1 -1 1 1 0 2 0 0 -1z m76 -10 l1 -2
-1 0 -1 0 -1 2 -1 1 1 0 2 0 0 -1z m101 -1 l0 0 -2 -3 -2 -3 -1 1 -1 0 0 2 0
2 1 1 1 1 2 0 2 0 0 -1z m-48 -7 l0 -1 1 1 2 1 1 -1 1 -1 -1 -2 -2 -2 -3 -4
-3 -3 -3 0 -2 0 -3 -2 -4 -1 0 1 0 1 2 2 2 2 -1 1 0 1 1 0 1 0 2 3 2 4 2 0 2
1 1 0 1 0 1 -1z m42 -5 l0 -1 -2 -3 -1 -2 -2 2 -1 1 1 1 0 2 2 1 3 1 0 0 1 0
-1 -2z m-76 -1 l1 -1 -2 1 -1 2 0 -2 1 -2 -1 0 -1 0 0 1 -1 1 1 1 0 1 1 0 2 0
0 -2z m121 -3 l1 -4 -3 0 -4 0 -1 -1 -1 -1 -2 0 -2 0 -1 -1 0 -2 -2 0 -1 0 -3
-2 -3 -2 1 -2 0 -1 -2 -2 -2 -3 -3 -1 -3 -1 0 5 0 4 1 0 1 0 -1 1 -1 2 1 1 0
2 1 -1 1 0 -1 -2 0 -1 1 0 1 1 -1 2 0 2 1 -1 2 0 2 2 3 3 0 2 0 1 2 0 3 1 1 0
2 0 0 -1 0 -1 2 1 2 0 1 -1 2 -1 2 3 3 3 0 0 0 0 0 -4z m8 1 l0 0 -2 -1 -1 0
0 1 0 1 1 0 1 0 -1 1 0 2 1 -2 2 -1 -1 -1z m-52 -3 l-1 -2 1 0 0 -1 -1 1 -1 1
1 1 2 1 0 0 0 0 -1 -1z m52 0 l0 -1 -1 0 -1 0 1 1 0 1 1 0 0 0 0 -1z m18 -1
l-1 -1 0 -1 0 0 -3 0 -4 0 0 1 -1 2 4 0 4 1 0 0 1 0 0 -2z m-14 0 l-1 -2 -1 0
-1 0 2 1 2 2 0 0 0 0 -1 -1z m-6 -2 l0 -1 -1 0 -1 -1 0 1 0 1 1 0 1 0 0 0z
m-6 -3 l1 -1 -3 -1 -2 -1 0 -2 0 -1 -3 1 -3 1 1 1 0 1 2 0 3 0 -2 1 -1 1 1 0
2 1 2 0 2 1 0 0 0 0 0 -2z m-374 -1 l0 -1 -1 0 -1 0 0 1 0 1 0 0 1 0 1 -1z
m-5 -3 l1 -2 -2 1 -1 0 0 1 0 1 1 0 1 0 0 -1z m13 -3 l2 -2 -1 -1 0 -1 1 0 2
0 0 1 0 1 2 1 2 0 0 -1 0 -2 1 0 2 0 -2 -1 -1 -1 0 -1 1 -1 1 0 1 0 0 1 -1 1
1 0 1 0 0 -1 1 -1 -2 -1 -2 -1 0 0 -1 0 -1 2 -2 1 -1 -2 0 -1 1 -1 2 -1 -4 0
-3 0 -1 0 -1 -1 0 1 -1 2 -2 0 -1 0 -3 1 -3 1 1 3 0 4 -3 0 -2 0 0 1 1 0 2 1
2 0 1 0 0 1 4 0 4 -1 2 -1z m347 -4 l0 -2 -2 -2 -2 -3 0 -1 1 0 1 1 0 2 1 0 1
0 -1 -2 -1 -3 -1 0 -1 0 -3 -3 -3 -3 -1 0 0 1 1 1 0 2 2 -1 1 0 0 4 -1 5 1 0
1 0 2 3 2 2 1 0 1 0 0 -1z m-50 -1 l0 0 -2 -2 -1 -1 1 1 1 0 0 -1 -1 -1 -2 0
-1 0 0 2 1 2 -1 0 -1 1 3 -1 3 0 0 0z m-278 -10 l0 0 -3 1 -3 1 1 2 0 1 3 -2
2 -2 0 -1z m318 3 l-1 -1 -1 0 -1 0 1 1 2 2 0 -1 1 0 -1 -1z m-352 -2 l-1 0
-1 1 -1 1 2 -1 2 0 -1 -1z m31 -3 l-1 0 -1 0 -1 1 1 0 2 0 0 -1z m-28 -9 l0
-2 -3 0 -2 0 1 1 0 1 -1 1 -2 0 1 2 0 2 3 -2 3 -1 0 -2z m335 -13 l-2 -2 -1 0
-1 0 2 2 2 2 1 0 0 0 -1 -2z m-16 -4 l-1 -2 -1 1 0 0 1 1 2 1 0 0 1 0 -2 -1z
m-266 -1 l-1 0 -1 0 -1 1 1 0 2 0 0 -1z m5 -2 l3 -2 -1 -1 -2 0 -1 1 0 1 -2 0
-1 0 0 2 0 1 1 0 1 0 2 -2z m-25 -8 l0 -1 -1 1 0 1 -1 -1 -1 0 0 1 0 1 2 0 1
0 0 -2z m316 -3 l-1 0 -1 0 -1 1 2 0 3 0 -2 -1z"/>
<path d="M280 224 l-1 -1 2 0 1 0 0 1 -1 1 0 0 -1 0 0 -1z"/>
<path d="M544 876 l1 -1 1 1 1 1 -2 0 -2 0 1 -1z"/>
<path d="M457 851 l-2 0 -1 -1 -1 -1 0 -4 -1 -5 1 1 1 0 3 6 3 5 -1 0 0 0 -2
-1z"/>
<path d="M428 845 l-1 -1 -2 0 -2 0 -2 -1 -1 -1 0 -5 -1 -4 1 -3 1 -3 1 0 2 1
-1 2 0 2 2 1 2 1 -1 2 0 2 4 0 3 1 2 -2 1 -1 0 0 1 1 -1 2 -1 2 -4 1 -3 0 1 2
0 2 0 0 -1 0 0 -1z"/>
<path d="M439 836 l-1 -2 1 0 1 -1 1 1 0 1 -1 1 -1 1 0 -1z"/>
<path d="M373 776 l-1 -1 1 0 1 0 0 1 0 1 0 0 -1 0 0 -1z"/>
<path d="M334 706 l-1 -1 1 0 1 0 0 1 0 1 0 0 -1 0 0 -1z"/>
<path d="M269 612 l-1 -2 -2 0 -2 -1 -1 1 -1 1 0 -1 -1 -1 1 -1 0 -2 3 0 2 1
0 -2 0 -2 2 2 3 1 0 3 1 2 -1 2 -2 1 -1 -2z"/>
<path d="M514 604 l0 -2 -5 -4 -4 -5 -1 -4 -1 -3 0 -2 0 -2 2 0 1 0 0 -1 0 -1
1 0 0 1 -1 1 -1 2 0 2 1 3 2 4 2 4 1 1 1 2 0 -2 0 -1 2 3 2 4 0 0 0 1 -1 0 -1
0 0 -1z"/>
<path d="M469 594 l0 -2 1 0 1 0 -1 2 0 1 -1 0 0 0 0 -1z"/>
<path d="M499 577 l0 -1 2 0 1 -1 -1 1 -1 2 -1 0 0 0 0 -1z"/>
<path d="M763 571 l0 -1 1 0 1 0 0 1 0 1 -1 0 -1 0 0 -1z"/>
<path d="M507 571 l0 -1 4 -3 3 -4 1 1 1 1 -1 2 -2 2 -3 1 -3 1 0 0z"/>
<path d="M523 569 l0 -1 1 0 0 0 0 1 0 1 -1 0 -1 0 1 -1z"/>
<path d="M531 568 l-1 -2 0 -1 0 -2 1 0 1 0 1 2 2 1 0 1 0 1 -1 1 -2 1 -1 -2z"/>
<path d="M431 563 l-1 0 0 -1 0 -1 2 0 1 0 0 2 0 1 -1 0 -1 0 0 -1z"/>
<path d="M466 542 l-1 0 0 -1 0 -1 2 0 2 0 1 -2 1 -2 -1 -1 0 -2 -2 1 -1 0 0
2 0 1 -1 0 -2 1 -1 -1 -1 -1 -4 -1 -3 0 -1 0 -1 0 1 -1 1 -1 6 0 6 0 0 -1 -1
-1 3 0 2 -1 3 -3 3 -3 1 1 1 0 0 -1 0 -1 1 1 1 0 1 -1 1 -1 0 -1 0 -1 -2 1 -2
0 1 -1 2 0 1 -2 1 -1 2 0 3 -1 -1 2 -1 2 1 0 0 1 -1 1 -1 2 -1 -1 -1 0 -1 2 0
2 -1 0 -1 1 -1 1 0 1 0 1 0 1 -1 -2 -1 -1 -1 2 0 3 -2 0 -1 1 0 1 0 2 -2 2 -3
2 -1 -1 -1 0 0 1 1 1 -1 0 -1 0 0 -1z"/>
<path d="M475 538 l0 -2 1 1 2 0 -1 2 0 1 -1 0 -1 0 0 -2z"/>
<path d="M743 534 l-1 -2 -2 0 -2 0 0 -2 1 -2 2 -1 3 0 1 1 2 1 0 1 1 2 -2 2
-1 2 -2 -2z"/>
<path d="M451 533 l1 -2 1 1 0 0 -1 1 -1 2 -1 0 -1 0 2 -2z"/>
<path d="M705 529 l0 -1 2 0 1 0 0 1 -1 1 -1 0 -1 0 0 -1z"/>
<path d="M731 528 l-1 -1 0 -1 1 0 1 1 0 2 0 1 -1 0 0 -2z"/>
<path d="M419 528 l-1 0 1 -1 0 -1 2 0 1 0 0 1 0 1 -1 0 -2 1 0 -1z"/>
<path d="M714 525 l0 -2 2 1 2 0 0 0 1 0 0 1 -1 1 -2 0 -2 0 0 -1z"/>
<path d="M734 525 l-3 -2 -1 0 0 0 -1 -1 0 -1 2 0 2 -1 2 2 3 1 -1 2 0 1 0 0
0 0 -3 -1z"/>
<path d="M491 515 l0 -1 1 0 1 0 0 1 -1 1 -1 0 0 0 0 -1z"/>
<path d="M650 512 l-1 -1 1 0 1 0 0 1 0 1 0 0 -1 0 0 -1z"/>
<path d="M468 511 l0 -1 1 0 1 0 0 1 -1 1 -1 0 0 0 0 -1z"/>
<path d="M488 511 l0 -1 1 0 1 -1 0 1 0 2 -1 0 -1 0 0 -1z"/>
<path d="M796 510 l2 -1 1 0 1 0 0 1 0 1 -3 0 -3 0 2 -1z"/>
<path d="M817 510 l0 -1 2 0 1 -1 0 1 0 1 -1 0 -2 0 0 0z"/>
<path d="M466 507 l0 -1 2 -1 2 0 0 -1 0 -1 1 0 2 1 2 -2 2 -2 0 1 0 2 -3 2
-2 2 -2 0 -1 -1 0 1 0 1 -1 0 -2 0 0 -1z"/>
<path d="M785 506 l-4 -1 -1 -1 0 -1 4 1 5 1 0 1 1 1 0 0 0 0 -5 -1z"/>
<path d="M620 501 l0 -1 1 1 1 0 0 1 0 0 -1 0 -1 0 0 -1z"/>
<path d="M810 499 l1 -2 2 0 1 0 3 -2 2 -2 2 0 3 0 2 -2 1 -2 3 0 2 0 0 1 0 1
-1 0 -2 0 -3 3 -4 2 0 2 0 2 -2 0 -2 -1 -1 1 0 1 -4 0 -4 0 1 -2z"/>
<path d="M614 497 l0 -1 1 -1 2 0 2 1 2 1 0 1 0 1 -4 0 -3 0 0 -2z"/>
<path d="M748 494 l-1 -2 -3 -3 -2 -3 -1 0 -2 0 -2 -4 -2 -4 -2 0 -2 -1 8 1 8
0 1 1 1 2 3 0 2 0 0 -2 -1 -2 1 -1 1 -1 4 3 5 3 0 -2 1 -1 -2 -3 -3 -2 2 0 3
1 1 1 2 1 -1 1 0 2 4 1 3 1 -1 2 0 2 0 1 0 2 -2 1 -2 0 0 2 1 1 -2 -1 -2 0 0
-2 -1 -2 1 0 1 0 -2 -2 -1 -1 0 3 1 3 -1 0 0 0 -2 -4 -2 -4 -3 2 -4 1 0 1 0 1
1 3 1 3 -3 0 -2 0 0 2 1 1 -1 0 -1 0 -1 -2z"/>
<path d="M719 493 l-1 -3 0 -1 1 0 4 -1 4 0 2 0 2 1 -4 2 -4 2 -2 -1 -1 -1 0
2 1 2 0 0 -1 0 -1 -2z"/>
<path d="M726 494 l0 -1 2 0 2 0 -2 1 -1 1 -1 0 -1 0 1 -1z"/>
<path d="M463 492 l0 -1 1 0 1 1 1 1 0 1 -1 0 -2 0 0 -2z"/>
<path d="M843 493 l-1 -1 1 0 1 0 1 1 2 1 -2 0 -2 0 0 -1z"/>
<path d="M606 487 l-1 -2 1 0 1 0 0 2 0 1 0 0 -1 0 0 -1z"/>
<path d="M487 473 l0 -2 3 -2 4 -2 0 0 1 0 -1 1 0 2 -1 -1 -1 0 -3 3 -2 3 0
-2z"/>
<path d="M758 471 l0 -1 1 0 1 0 0 1 0 1 -1 0 -1 0 0 -1z"/>
<path d="M755 469 l-1 -1 -2 -2 -1 -2 2 0 2 0 1 2 2 3 -1 0 -1 1 -1 -1z"/>
<path d="M731 458 l2 -1 -1 0 -1 0 -1 0 -1 0 -1 -2 -1 -2 0 -1 1 0 3 1 4 2 0
2 1 1 -1 0 -2 0 -2 1 -1 0 1 -1z"/>
<path d="M723 455 l-1 -1 1 0 1 0 1 1 0 1 0 0 0 0 -2 -1z"/>
<path d="M494 453 l1 -1 -1 0 -1 -1 1 -2 2 -1 1 0 0 0 2 -2 2 -1 0 1 0 1 -4 4
-3 4 0 -2z"/>
<path d="M502 453 l0 -1 1 0 1 0 0 -1 -1 -1 2 0 1 -1 1 0 0 0 -1 2 -1 2 -1 0
-2 1 0 -1z"/>
<path d="M558 451 l0 -1 1 0 0 0 0 1 0 1 -1 0 -1 0 1 -1z"/>
<path d="M273 450 l0 -2 1 0 1 0 0 2 0 1 -1 0 -1 0 0 -1z"/>
<path d="M491 448 l2 -1 0 -2 0 -1 1 0 0 1 0 2 -1 2 -2 0 -1 0 1 -1z"/>
<path d="M502 444 l0 -1 3 -2 3 -3 0 2 1 1 -3 1 -2 1 1 1 0 1 -1 0 -2 0 0 -1z"/>
<path d="M137 440 l-2 -2 -1 1 -1 1 -3 0 -3 -1 -1 -3 -1 -3 -1 0 -1 0 -2 -2
-3 -3 -3 0 -3 0 -2 -1 -2 -1 0 1 0 1 -2 -1 -1 0 1 -2 1 -1 -3 -1 -3 0 -1 -1 0
-1 -1 1 -1 0 0 -1 0 -1 2 0 3 0 1 -1 2 -1 -1 0 -1 0 2 -2 3 -1 2 0 1 1 0 -2
-1 -2 3 2 4 1 0 2 0 1 1 1 1 0 0 -1 0 -1 2 -1 2 0 1 1 1 2 0 2 1 1 2 3 2 3 2
-1 1 0 0 1 0 2 2 2 2 2 1 0 2 0 1 1 0 1 -1 1 -1 1 0 2 1 2 -1 0 -1 1 -2 -3z"/>
<path d="M318 441 l0 -1 1 0 1 0 0 1 0 1 -1 0 -1 0 0 -1z"/>
<path d="M321 441 l0 -1 1 0 1 1 0 -1 1 -1 0 1 0 1 -1 0 -1 1 -1 -1z"/>
<path d="M327 441 l-1 0 0 -1 0 -2 2 0 1 0 0 2 0 1 -1 0 -1 1 0 -1z"/>
<path d="M490 441 l-1 -2 1 0 2 -1 0 1 1 2 -1 0 0 1 -1 0 -1 0 0 -1z"/>
<path d="M299 433 l0 -1 1 0 1 0 0 1 0 1 -2 0 -1 0 1 -1z"/>
<path d="M336 427 l-1 -1 2 -2 2 -2 1 1 0 1 -2 2 -2 2 0 -1z"/>
<path d="M358 427 l0 -1 1 0 1 0 0 1 -1 1 -1 0 0 0 0 -1z"/>
<path d="M93 426 l-1 -1 2 -3 2 -2 0 2 0 3 -1 1 -1 1 -1 -1z"/>
<path d="M709 426 l-1 -1 -2 -2 -2 -1 2 0 2 0 1 -1 0 -2 2 1 3 0 0 1 1 1 -1 2
0 2 -1 0 -1 0 -1 0 -1 1 -1 -1z"/>
<path d="M539 425 l0 -1 2 0 1 0 0 1 -1 1 -1 0 -1 0 0 -1z"/>
<path d="M519 424 l0 -1 2 0 1 0 0 1 0 1 -1 0 -2 0 0 -1z"/>
<path d="M530 423 l0 0 1 -2 1 -2 1 0 2 0 -2 1 -1 1 0 1 1 1 -2 0 -1 1 0 -1z"/>
<path d="M99 415 l1 0 1 0 2 1 -3 0 -2 0 1 -1z"/>
<path d="M306 410 l0 -2 2 0 2 0 0 1 0 1 -2 1 -2 1 0 -2z"/>
<path d="M340 408 l-1 0 0 -1 0 -1 2 0 1 0 0 1 0 1 -1 0 -1 1 0 -1z"/>
<path d="M344 408 l1 -1 -1 0 -1 -1 0 -1 0 -1 2 1 1 2 0 1 0 1 -1 0 -1 0 0 -1z"/>
<path d="M653 406 l-1 -2 0 -1 1 0 1 1 1 2 -1 1 -1 1 0 -2z"/>
<path d="M308 403 l-2 -1 0 -1 0 0 2 0 3 0 1 2 1 2 -2 0 -2 0 -1 -2z"/>
<path d="M291 403 l0 -1 -2 0 -2 -1 0 -2 1 -1 1 -1 1 0 1 3 1 3 0 1 -1 0 0 -1z"/>
<path d="M321 403 l0 -1 1 0 1 0 0 1 0 1 -1 0 -1 0 0 -1z"/>
<path d="M345 402 l0 -2 1 0 1 -1 0 2 0 2 -1 0 -1 0 0 -1z"/>
<path d="M327 401 l0 -1 1 1 1 0 0 1 0 0 -2 0 -1 0 1 -1z"/>
<path d="M298 401 l0 -1 0 -1 -1 0 0 -2 -1 -1 1 0 0 -1 3 0 2 0 0 1 1 1 -1 1
-1 1 -1 0 -1 -1 0 2 -1 2 0 -1z"/>
<path d="M647 397 l-3 -3 0 -1 0 -1 1 0 1 0 -1 -2 -1 -3 1 0 1 0 1 2 1 2 -1 0
0 1 0 2 1 2 1 -2 1 -2 1 1 1 1 -1 3 0 4 -4 -4z"/>
<path d="M350 399 l0 -1 0 -1 1 0 1 0 1 1 0 1 0 1 -1 0 -1 0 -1 -1z"/>
<path d="M139 398 l0 -1 1 0 0 0 0 1 0 1 -1 0 -1 0 1 -1z"/>
<path d="M306 397 l0 -2 1 1 1 0 0 2 0 1 -1 0 -1 0 0 -2z"/>
<path d="M338 398 l-1 -1 2 0 1 -1 0 2 0 1 -1 0 -1 0 0 -1z"/>
<path d="M327 397 l-1 -2 1 -1 1 0 1 1 1 2 0 0 0 1 -1 0 -1 0 -1 -1z"/>
<path d="M130 396 l-1 -1 1 -4 1 -3 0 -1 1 0 0 0 1 1 0 3 1 4 -1 1 -2 1 -1 -1z"/>
<path d="M286 394 l-1 0 0 -1 0 -1 2 0 1 0 0 1 0 1 -1 0 -1 1 0 -1z"/>
<path d="M336 394 l0 -2 -1 1 -2 1 -2 -2 -2 -2 1 -2 1 -2 2 0 2 1 0 1 1 1 2
-2 2 -1 1 0 0 0 -1 2 -1 2 0 2 0 2 -1 1 -1 0 -1 -1z"/>
<path d="M95 390 l-1 -2 0 -1 1 0 2 1 2 1 0 1 0 1 -2 1 -1 0 -1 -2z"/>
<path d="M123 390 l0 -1 1 1 0 1 0 1 -1 0 0 -2z"/>
<path d="M308 389 l-1 -1 2 0 2 0 -1 1 0 1 -1 0 -1 0 0 -1z"/>
<path d="M127 388 l0 -1 1 0 0 0 0 1 0 1 -1 0 -1 0 1 -1z"/>
<path d="M314 388 l-1 0 0 -1 0 -1 1 1 1 1 0 0 -1 1 0 -1z"/>
<path d="M318 386 l0 -1 1 1 1 0 0 1 0 0 -1 0 -1 0 0 -1z"/>
<path d="M164 382 l0 -1 1 0 1 0 0 1 0 1 -2 0 -1 0 1 -1z"/>
<path d="M350 382 l0 -1 1 0 1 0 0 1 -1 1 -1 0 0 0 0 -1z"/>
<path d="M307 375 l-1 -1 1 0 1 0 0 1 0 1 0 0 -1 0 0 -1z"/>
<path d="M269 375 l0 0 0 -5 -1 -4 1 2 0 2 1 0 1 0 0 3 0 2 -1 0 -1 0 0 0z"/>
<path d="M357 372 l-4 -1 -1 -1 -1 -1 1 -2 0 -2 1 -3 0 -2 1 -2 2 -1 1 1 2 2
2 0 2 0 1 -2 1 -2 0 1 1 1 1 0 2 0 1 -4 2 -4 1 -1 2 -1 1 0 0 1 -2 3 -1 3 -2
1 -2 2 0 1 0 1 2 0 1 0 0 1 0 1 -2 3 -2 4 -3 2 -3 3 -5 -2z"/>
<path d="M730 368 l0 -1 1 0 1 0 0 1 0 1 -2 0 -1 0 1 -1z"/>
<path d="M272 367 l-1 0 0 -2 0 -1 2 1 1 2 0 0 0 1 -1 0 -1 0 0 -1z"/>
<path d="M415 367 l0 -1 1 0 1 0 0 1 -1 1 -1 0 0 0 0 -1z"/>
<path d="M632 364 l-1 -1 1 -1 1 -1 -1 1 0 2 1 0 2 -1 -1 2 0 1 -1 0 -1 0 0
-2z"/>
<path d="M722 365 l0 -2 1 0 1 0 -1 2 0 1 -1 0 0 0 0 -1z"/>
<path d="M654 363 l0 -1 1 0 0 0 0 1 0 1 -1 0 -1 0 1 -1z"/>
<path d="M719 363 l0 -1 1 1 1 0 0 1 0 0 -1 0 -1 0 0 -1z"/>
<path d="M350 357 l0 -2 -1 0 -1 1 0 -1 -1 -1 2 -5 3 -5 0 1 1 0 0 -1 0 -1 2
-1 2 -1 1 1 1 1 -1 2 -2 3 2 0 2 1 0 1 -1 1 -2 0 -2 0 -1 2 0 2 -2 2 -2 1 0
-1z m3 -8 l0 -2 1 0 1 0 0 -1 -1 0 -1 1 -2 1 0 1 0 1 1 0 1 0 0 -1z"/>
<path d="M717 354 l-1 -1 1 0 1 0 0 1 0 1 0 0 -1 0 0 -1z"/>
<path d="M772 351 l1 0 1 0 0 1 -2 0 -1 0 1 -1z"/>
<path d="M782 340 l0 -1 1 1 1 0 0 1 0 0 -2 0 -1 0 1 -1z"/>
<path d="M703 339 l-1 -1 1 0 1 0 0 1 0 1 0 0 -1 0 0 -1z"/>
<path d="M758 337 l0 -1 2 0 1 -1 -1 1 0 1 -1 0 -1 0 0 0z"/>
<path d="M775 335 l0 -1 1 0 0 0 0 1 0 1 -1 0 -1 0 1 -1z"/>
<path d="M773 331 l0 -1 1 0 1 1 1 1 0 1 -1 0 -2 0 0 -2z"/>
<path d="M803 331 l-1 -1 1 0 1 0 1 1 0 1 -1 0 -1 0 0 -1z"/>
<path d="M235 330 l0 -1 1 0 0 0 0 1 0 1 -1 0 -1 0 1 -1z"/>
<path d="M351 328 l0 -1 1 -2 2 -1 -1 2 0 2 -1 1 -1 0 0 -1z"/>
<path d="M191 326 l0 -1 2 0 2 0 0 1 -1 1 -2 0 -1 0 0 -1z"/>
<path d="M796 326 l-2 -2 -3 -2 -3 -3 0 0 1 0 3 2 3 2 1 1 2 1 1 1 0 1 -1 0 0
0 -2 -1z"/>
<path d="M780 323 l-1 -2 2 1 3 0 -1 1 0 1 -1 0 -1 0 -1 -1z"/>
<path d="M873 322 l0 -1 2 0 1 0 0 1 0 1 -1 0 -2 0 0 -1z"/>
<path d="M205 321 l1 -1 1 0 0 1 -2 0 -1 1 1 -1z"/>
<path d="M809 318 l-1 0 0 -1 0 -2 2 0 1 -1 -1 -1 -2 -2 1 0 1 -1 1 1 1 2 1 0
2 0 0 1 1 1 -2 -1 -1 0 0 1 1 2 -1 1 -1 0 0 -1 0 -1 -1 1 0 2 -2 -1z"/>
<path d="M366 311 l0 -1 1 0 1 0 0 1 0 1 -1 0 -1 0 0 -1z"/>
<path d="M826 311 l-1 -1 1 1 2 0 0 1 0 0 -1 0 -1 0 0 -1z"/>
<path d="M846 309 l-1 -2 1 -1 0 -1 1 0 1 0 0 2 0 2 1 -1 1 0 -1 2 0 1 -1 0
-1 0 -1 -2z"/>
<path d="M813 308 l0 -1 1 0 1 0 0 1 0 1 -2 0 -1 0 1 -1z"/>
<path d="M373 307 l-1 -1 2 0 1 0 0 1 -1 1 0 0 -1 0 0 -1z"/>
<path d="M377 303 l0 -1 1 0 1 0 0 1 0 1 -1 0 -1 0 0 -1z"/>
<path d="M380 300 l0 -1 1 1 0 1 0 1 -1 0 0 -2z"/>
<path d="M239 298 l-1 -1 2 0 2 1 0 0 0 1 -1 1 -1 0 -1 -2z"/>
<path d="M860 299 l-1 -2 1 0 1 0 0 2 0 1 0 0 -1 0 0 -1z"/>
<path d="M391 289 l-1 -1 1 0 2 0 0 1 0 1 -1 0 -1 0 0 -1z"/>
<path d="M266 288 l3 -2 1 -1 2 0 -3 2 -2 2 -2 0 -1 0 2 -1z"/>
<path d="M277 283 l3 -2 3 1 4 0 1 -1 1 -1 0 1 0 2 -1 0 -1 1 -6 0 -6 1 2 -2z"/>
<path d="M394 284 l0 -1 1 0 1 0 0 1 0 1 -1 0 -1 0 0 -1z"/>
<path d="M864 281 l0 -1 1 1 1 0 0 1 0 0 -1 0 -1 0 0 -1z"/>
<path d="M890 279 l1 -1 4 -3 4 -2 -1 0 -2 -1 -3 1 -2 0 2 -2 2 -2 2 1 1 0 0
-1 0 -1 1 1 1 0 0 -1 -1 -2 1 0 2 -1 1 2 1 2 -1 -2 0 -1 1 1 2 1 1 -1 2 0 0 1
0 1 -3 2 -3 2 -2 1 -1 2 -1 2 -1 2 -4 0 -4 0 0 -1z"/>
<path d="M869 277 l-2 -2 0 0 0 -1 3 0 2 0 0 1 0 2 -1 0 -1 1 -1 -1z"/>
<path d="M228 275 l-1 -2 2 1 2 0 0 1 0 1 -1 0 -1 1 -1 -2z"/>
<path d="M863 274 l-1 -2 -2 0 -2 0 -1 -1 0 -1 -5 -1 -4 -1 1 -1 1 -1 2 1 2 1
-1 -1 0 -1 1 -1 2 -1 -2 0 -1 0 -2 0 -2 0 2 -2 2 -1 2 1 1 1 0 -1 0 -2 -4 -1
-3 0 0 -2 1 -1 -2 -2 -1 -2 2 0 3 0 2 1 2 0 1 4 1 3 2 -1 1 0 0 1 0 1 3 1 4 1
1 2 0 2 2 0 2 1 2 -1 3 0 0 -2 1 -2 1 2 0 2 2 1 3 2 -4 0 -3 0 -3 0 -2 0 0 1
0 1 -1 -1 -1 -1 -3 0 -2 0 0 2 1 1 -1 0 -2 0 0 1 -1 1 0 -1z"/>
<path d="M885 272 l0 -2 2 0 1 0 0 2 0 1 -2 0 -2 0 1 -1z"/>
<path d="M844 269 l-1 -1 1 0 1 -1 0 1 1 1 -1 0 -1 1 0 -1z"/>
<path d="M200 266 l1 -1 1 0 0 0 1 1 0 1 -1 0 -2 1 0 -2z"/>
<path d="M845 260 l-1 -1 1 0 1 1 1 1 0 1 -1 0 -1 0 0 -2z"/>
<path d="M178 260 l-1 -2 2 0 2 0 -1 2 0 1 -1 0 -1 0 0 -1z"/>
<path d="M840 260 l-1 -1 2 -1 3 -1 -2 1 -1 2 1 0 0 1 -1 0 -1 0 0 -1z"/>
<path d="M845 257 l0 -1 -1 0 -2 0 0 -1 0 -1 0 0 1 0 2 1 3 1 0 1 0 1 -1 0 -2
0 0 -1z"/>
<path d="M211 254 l-2 -2 1 0 0 -1 1 0 1 0 1 2 1 2 0 0 0 0 -3 -1z"/>
<path d="M204 252 l-1 -2 1 0 1 0 2 2 1 1 -2 0 -2 0 0 -1z"/>
<path d="M198 250 l-1 -1 1 0 1 0 1 1 2 1 -1 0 -1 1 -2 -2z"/>
<path d="M310 248 l0 -2 1 1 1 0 0 -1 0 -2 2 1 2 1 0 0 1 0 0 1 0 1 -2 0 -1 0
-1 1 0 1 -2 0 -1 0 0 -2z"/>
<path d="M838 246 l-1 -1 1 0 1 0 0 1 0 1 0 0 -1 0 0 -1z"/>
<path d="M172 241 l0 -1 1 -1 1 -1 1 1 1 1 0 1 -1 1 -1 0 -1 0 -1 -1z"/>
<path d="M305 241 l-1 -1 1 0 2 -1 2 1 3 0 0 1 0 1 -3 0 -2 0 -2 -1z"/>
<path d="M306 236 l0 -1 2 -1 1 0 1 1 1 1 -2 0 -3 1 0 -1z"/>
<path d="M579 235 l-1 -2 1 1 1 1 0 1 -1 1 0 -2z"/>
<path d="M226 235 l0 -1 1 0 2 -1 0 1 1 0 0 1 0 1 -2 0 -2 0 0 -1z"/>
<path d="M823 231 l-1 -1 1 1 2 0 0 1 0 0 -1 0 -1 0 0 -1z"/>
<path d="M292 230 l0 -1 2 0 2 0 0 1 0 1 -3 0 -2 0 1 -1z"/>
<path d="M593 228 l-1 -2 0 -3 0 -2 -1 -1 -2 0 0 -2 0 -1 2 1 2 1 1 2 0 2 1 0
1 0 -1 2 0 3 2 1 1 2 -2 0 -2 0 -1 -3z"/>
<path d="M829 229 l-1 -1 -2 0 -1 1 0 -3 0 -2 -2 -2 -2 -2 -1 0 -1 0 0 0 -1 1
-1 -2 -2 -1 0 -3 0 -2 4 1 3 0 2 2 1 1 1 0 1 0 2 3 3 2 0 3 1 2 -1 1 -1 2 1 0
0 1 -1 0 -2 0 0 -2z"/>
<path d="M820 226 l0 -1 0 -1 1 0 1 0 1 1 0 2 0 1 -1 0 -1 0 -1 -2z"/>
<path d="M808 222 l0 -1 2 0 1 -1 1 0 0 0 0 2 0 1 -2 0 -2 0 0 -1z"/>
<path d="M310 221 l0 -1 1 1 1 0 0 1 0 0 -1 0 -1 0 0 -1z"/>
<path d="M190 219 l-2 -2 0 0 0 -1 2 1 2 0 0 -1 0 -2 2 0 1 0 0 2 0 3 -2 0 -2
1 -1 -1z"/>
<path d="M523 217 l-1 -2 3 -1 3 0 3 1 2 2 0 1 0 0 -1 -1 -1 0 -3 -1 -2 0 -2
1 -1 1 0 -1z"/>
<path d="M552 210 l-4 -2 0 -1 0 -1 1 0 1 0 0 1 0 1 1 0 1 -1 0 1 0 1 3 1 4 2
-2 0 -1 0 -4 -2z"/>
<path d="M229 210 l1 -2 -1 0 0 -1 1 0 1 0 1 2 1 1 -1 0 0 0 -2 0 -2 1 1 -1z"/>
<path d="M223 209 l0 -1 -1 0 -2 0 1 -2 0 -2 1 0 1 -1 2 0 3 -1 0 2 0 1 -2 0
-2 0 0 2 1 2 -1 1 -1 0 0 -1z"/>
<path d="M232 207 l0 -1 1 0 1 0 0 1 -1 1 -1 0 0 0 0 -1z"/>
<path d="M528 206 l0 -1 1 0 1 0 0 1 0 1 -2 0 -1 0 1 -1z"/>
<path d="M216 205 l-1 -1 1 -3 1 -2 3 -2 4 -2 2 -1 2 -2 2 0 2 -1 1 0 2 -1 0
-1 0 -2 1 -1 1 -1 3 5 2 4 0 1 0 0 -1 -2 -2 -1 -1 1 -2 1 0 -1 0 -1 -2 1 -2 2
-1 0 -2 0 0 1 -1 1 1 0 2 0 -4 2 -3 1 -3 0 -2 -1 0 2 1 3 -1 -1 -2 0 0 2 -1 2
0 -2z m10 -9 l0 -1 -1 0 -1 0 0 1 0 1 0 0 1 0 1 -1z"/>
<path d="M511 201 l-3 -2 -3 1 -2 1 -3 -1 -2 -1 1 0 2 -1 1 1 1 0 0 0 0 -1 -4
-4 -4 -5 -2 1 -1 1 0 -2 -1 -1 1 0 2 1 1 -1 0 -1 4 -2 3 -1 4 2 3 1 2 0 2 0 3
2 2 1 0 2 -1 1 3 2 3 1 0 4 0 3 -4 0 -4 0 -4 -2z m0 -4 l-1 -1 -1 0 -1 0 1 1
0 1 1 0 1 0 0 -1z"/>
<path d="M493 196 l0 -1 1 0 2 0 0 1 1 1 -2 0 -2 1 0 -2z"/>
<path d="M612 193 l-3 -3 0 0 1 -1 3 3 3 3 1 0 1 0 0 1 0 1 -1 0 -1 0 -4 -4z"/>
<path d="M245 192 l1 -2 0 0 -1 0 3 -2 2 -2 0 1 0 1 -2 1 -1 1 0 0 1 0 -1 2
-1 1 -1 0 -1 0 1 -1z"/>
<path d="M475 192 l-1 -1 2 -2 1 -2 1 1 2 0 0 3 0 2 -2 -2 -1 -1 -1 0 0 0 1 2
0 1 0 0 0 0 -2 -1z"/>
<path d="M471 189 l-1 -1 2 -1 1 0 1 0 0 1 -1 0 -1 0 1 1 1 1 -1 0 -2 1 0 -2z"/>
<path d="M388 188 l0 -2 2 1 2 0 0 1 0 1 -2 0 -2 0 0 -1z"/>
<path d="M507 184 l-1 -1 1 0 1 0 1 1 0 1 0 0 0 0 -2 -1z"/>
<path d="M597 184 l-1 0 1 -2 1 -2 -1 0 -1 0 -1 2 -1 2 -2 -2 -1 -2 0 -1 1 0
1 1 1 2 0 -1 0 -1 0 -1 0 -1 2 0 3 -1 0 3 1 2 -1 0 -1 0 0 2 0 1 -1 -1z"/>
<path d="M240 183 l-1 -1 2 0 1 -1 1 1 1 0 -1 1 0 1 -1 0 0 0 -2 -1z"/>
<path d="M589 183 l-1 -1 1 0 1 0 1 1 0 1 -1 0 -1 0 0 -1z"/>
<path d="M247 181 l0 -1 2 0 1 -1 0 2 0 1 -1 0 -2 0 0 -1z"/>
<path d="M566 181 l-3 -2 2 0 3 0 1 -2 1 -1 0 1 0 1 -1 1 -1 1 1 0 2 0 0 1 0
1 -1 0 -1 0 -3 -1z"/>
<path d="M603 181 l0 -1 1 1 1 0 0 1 0 0 -1 0 -1 0 0 -1z"/>
<path d="M555 178 l-2 -1 3 1 3 0 2 1 2 1 -3 0 -3 0 -2 -2z"/>
<path d="M556 175 l0 -1 1 1 1 0 0 1 0 0 -1 0 -1 0 0 -1z"/>
<path d="M538 173 l-3 -1 -4 -1 -3 -2 1 0 2 0 4 2 5 1 1 1 0 1 0 0 0 0 -3 -1z"/>
<path d="M894 165 l0 -1 0 -1 -1 -1 0 -1 0 0 0 -1 -1 -1 -1 -3 -1 -2 -1 0 -1
0 0 1 0 1 2 2 1 2 -1 0 -1 0 0 2 0 3 -1 -1 -2 0 -1 -3 -1 -3 -2 -3 -2 -3 1 0
1 0 2 4 3 5 0 -2 0 -2 -1 0 -1 -1 0 -1 0 -1 2 0 1 0 0 -1 0 -1 2 1 3 1 1 3 2
3 2 0 1 0 0 2 0 1 -2 0 -2 -1 1 2 0 2 -1 0 -1 0 0 -1z"/>
<path d="M396 161 l0 -1 1 1 0 1 0 1 -1 0 0 -2z"/>
<path d="M312 159 l0 -2 2 1 1 0 0 -1 -1 -2 1 0 2 0 0 0 1 0 0 -1 0 -1 2 0 1
0 0 -1 0 -1 0 -1 0 -1 2 1 2 2 1 -1 2 -1 0 1 0 1 2 0 3 0 -4 2 -4 2 -2 0 -1
-1 -3 2 -3 1 -2 2 -2 2 0 -3z"/>
<path d="M342 160 l1 0 1 0 2 1 -3 0 -2 0 1 -1z"/>
<path d="M895 155 l-1 -1 0 -1 0 -1 2 0 2 0 1 1 1 1 -1 1 -1 2 -2 0 -1 0 0 -2z"/>
<path d="M338 154 l0 -1 2 0 1 0 0 1 0 1 -2 0 -2 0 1 -1z"/>
<path d="M560 152 l-1 -1 2 0 2 0 0 1 0 1 -1 0 0 0 -2 -1z"/>
<path d="M887 147 l0 -1 1 1 0 1 0 1 -1 0 0 -2z"/>
<path d="M894 143 l-2 -1 -2 -1 -2 -1 0 2 1 2 -1 0 -1 0 0 -3 -1 -2 -1 -2 0
-2 1 1 1 2 -1 -9 0 -8 0 -5 0 -5 -2 -2 -2 -2 1 0 1 -1 1 1 1 0 0 -2 0 -1 1 1
2 2 2 1 3 1 -2 -2 -2 -2 0 0 0 -1 3 1 2 2 0 -1 0 -1 -2 -1 -2 -1 1 -1 2 -2 3
0 4 -1 0 1 0 1 -2 1 -2 1 0 1 0 1 3 1 3 2 -3 0 -2 0 0 1 1 1 2 1 2 1 -1 0 -1
1 -1 -1 -2 0 0 1 0 2 2 1 2 1 -2 1 -1 1 1 0 1 1 0 1 0 1 -2 -1 -2 0 -2 1 -1 1
-1 0 0 -1 1 -2 1 -3 -1 0 -1 0 -2 -2 -2 -1 -1 0 0 1 0 11 0 11 1 1 0 1 2 -2 1
-2 2 0 1 0 0 -2 -1 -3 1 0 1 0 0 7 -1 6 1 0 1 0 0 1 0 1 -1 0 0 0 -2 -2z m0
-5 l0 -2 -1 0 -1 0 0 1 -1 1 1 1 0 1 1 0 1 0 0 -2z m-4 -28 l-2 -2 -1 0 0 1 1
1 1 2 2 0 2 0 -3 -2z"/>
<path d="M403 142 l0 -1 1 0 1 0 0 1 -1 1 -1 0 0 0 0 -1z"/>
<path d="M898 141 l0 -1 -1 -2 0 -1 1 1 1 2 0 1 -1 2 0 -2z"/>
<path d="M907 91 l-1 -1 1 0 2 0 1 1 2 1 -3 0 -2 0 0 -1z"/>
</g>
</svg>
