<?xml version="1.0" standalone="no"?>
<!DOCTYPE svg PUBLIC "-//W3C//DTD SVG 20010904//EN"
 "http://www.w3.org/TR/2001/REC-SVG-20010904/DTD/svg10.dtd">
<svg style="fill: black; stroke: black;" version="1.0" xmlns="http://www.w3.org/2000/svg"
 width="838.584580pt" height="664.770771pt" viewBox="0 0 838.584580 664.770771"
 preserveAspectRatio="xMidYMid meet">
<metadata>
Created by potrace 1.16, written by Peter Selinger 2001-2019
</metadata>
<g transform="translate(-92.212316,868.000000) scale(1.000000,-1.000000)"
fill="#c2e294" data-original="#000000" stroke="none">
<path d="M482 867 l0 -1 1 0 1 1 0 -2 1 -1 -1 1 -1 0 1 -2 1 -2 0 -1 -1 0 -5
-1 -5 0 -3 0 -2 0 0 -1 1 0 -3 -1 -3 0 -2 0 -2 -1 -2 0 -1 -1 -6 -1 -5 -2 -5
-1 -4 0 -2 0 -1 0 1 -1 0 -1 2 1 1 0 0 -1 0 -1 -3 0 -4 -1 0 -2 0 -2 6 2 6 2
1 0 1 0 2 1 2 0 0 1 0 2 1 -2 1 -1 0 1 0 1 8 0 7 0 1 1 1 1 2 -1 2 -1 1 0 2 0
0 1 0 1 -1 0 -2 -1 -1 1 -1 1 1 1 1 1 2 -2 3 -2 1 0 2 -1 -1 1 -1 2 2 1 2 0 2
1 3 0 2 0 3 0 -1 1 0 2 -2 -1 -2 -1 -1 0 0 0 2 2 3 2 -2 0 -1 -1 -1 1 0 2 -1
1 0 1 2 0 2 0 -2 1 -1 1 1 0 1 0 -2 1 -1 1 -3 0 -2 0 1 -1z m-19 -14 l0 -1 -1
0 -1 0 0 1 0 1 1 0 1 0 0 -1z"/>
<path d="M494 858 l-2 -1 1 0 1 0 0 -1 -1 -1 1 0 1 0 0 1 0 1 1 -1 2 -1 1 0 2
0 0 2 0 2 -3 0 -2 0 -2 -1z"/>
<path d="M541 858 l2 -1 3 0 3 0 0 1 -1 1 -4 0 -4 0 1 -1z"/>
<path d="M553 858 l1 0 1 0 2 1 -3 0 -2 0 1 -1z"/>
<path d="M560 857 l-1 -1 1 1 1 1 0 1 -1 0 0 -2z"/>
<path d="M503 857 l0 -1 1 -1 1 0 0 1 -1 1 4 0 4 -1 -3 1 -2 1 -2 0 -2 0 0 -1z"/>
<path d="M512 857 l0 -1 5 0 5 0 0 1 0 1 -5 0 -5 0 0 -1z"/>
<path d="M526 857 l2 0 0 -1 0 -1 2 1 3 1 0 -1 1 0 0 1 1 1 -5 0 -5 0 1 -1z"/>
<path d="M570 857 l1 0 1 0 2 1 -3 0 -2 0 1 -1z"/>
<path d="M539 856 l2 -1 1 0 2 0 -2 1 -2 1 -1 0 -1 0 1 -1z"/>
<path d="M580 856 l-1 -1 2 0 2 -1 1 1 1 1 -1 -1 0 0 -2 1 -2 1 0 -1z"/>
<path d="M532 854 l0 -2 1 0 0 1 -1 1 -1 2 1 -2z"/>
<path d="M536 854 l0 -2 1 0 0 0 0 2 0 1 -1 0 -1 0 1 -1z"/>
<path d="M593 852 l2 -2 1 1 0 1 0 1 1 0 -3 1 -3 0 2 -2z"/>
<path d="M425 845 l0 -1 0 -1 1 0 2 0 2 1 0 1 0 1 -2 0 -2 0 -1 -1z"/>
<path d="M415 842 l2 -1 1 0 1 0 -2 1 -1 1 -1 0 -1 0 1 -1z"/>
<path d="M392 837 l-4 -1 -1 -1 0 -1 -2 1 -1 0 0 0 0 -1 2 -2 1 -1 0 1 0 1 2
0 2 0 -2 1 -1 1 4 1 4 2 0 0 0 1 0 0 0 0 -4 -2z"/>
<path d="M381 834 l-2 -1 1 0 1 0 0 -1 0 -1 -1 0 -1 0 -3 0 -3 0 0 -1 0 -2 -1
0 -1 0 0 1 0 1 -1 -1 -1 -1 -3 0 -2 0 -1 -1 0 -1 -2 0 -1 1 1 -1 0 -1 -1 0 0
0 -2 0 -2 -1 -5 -2 -5 -2 -6 -3 -5 -2 -3 -2 -3 -1 -2 0 -2 0 -2 -2 -2 -1 -2 0
-1 1 0 -1 1 -1 -2 0 -1 0 -3 -4 -4 -3 0 -1 0 -1 -2 -1 -2 0 -1 -3 0 -3 -2 0
-1 1 1 -1 0 -1 -1 0 -2 0 -1 -1 -1 -2 1 -1 2 -1 0 1 0 2 2 0 1 1 2 0 1 0 2 2
1 2 0 1 0 1 -1 -2 -1 -2 -1 0 -1 0 1 2 1 2 2 0 2 0 0 2 -1 2 2 1 3 0 0 0 1 0
0 1 -1 2 2 -1 2 0 0 1 0 2 3 -1 4 0 0 0 -1 1 2 3 3 2 1 -1 1 -2 3 1 4 1 2 2 1
1 0 2 0 2 2 0 1 1 0 -1 0 -1 2 1 2 2 1 0 2 0 4 2 4 2 0 -1 0 -2 1 0 1 0 0 1 0
2 4 2 3 1 2 0 2 -1 -1 1 0 1 2 0 2 -1 0 1 0 1 -1 0 -1 -1 1 1 0 2 2 -1 1 0 -1
-1 0 -1 3 2 4 3 0 0 0 1 -1 0 -1 0 1 1 0 1 0 0 0 0 -2 -1z m-40 -20 l0 -1 0 0
-1 0 0 1 -1 1 1 0 1 0 0 -1z"/>
<path d="M508 833 l-8 -1 -6 0 -5 0 -6 0 -6 0 -1 -1 -1 -1 -2 0 -2 1 0 -1 0
-1 -2 -1 -3 -1 -1 1 -1 1 0 -1 0 -1 -2 1 -1 0 0 -1 1 -1 -2 0 -1 0 -4 -1 -3
-2 -5 0 -4 -1 0 1 0 2 -3 -3 -2 -3 -1 0 0 0 -2 -1 -2 0 -1 2 -2 1 -1 -1 -2 -1
0 1 0 1 -3 -1 -2 -1 -2 -2 -2 -2 -7 -2 -6 -2 -3 1 -2 0 -3 0 -2 0 -3 -2 -3 -2
-2 0 -2 0 -6 -2 -6 -2 -2 -1 -2 -1 -6 -2 -6 -2 -7 -4 -6 -3 -5 -3 -4 -2 -7 -4
-7 -5 -1 1 -1 2 0 -2 0 -1 -1 1 -1 0 0 -1 0 -2 -1 1 -2 0 0 -1 0 -1 0 -1 1 0
-4 -2 -3 -2 -1 -2 -1 -2 -2 0 -3 -1 0 -1 0 -1 -3 -2 -3 -1 -1 0 -1 1 -1 -1 0
-1 1 1 2 0 -2 -1 -1 -2 -1 1 -1 0 0 -1 0 -1 -4 -4 -4 -4 -1 0 0 0 1 1 1 2 -1
1 -1 0 0 -1 1 -1 -1 0 -1 0 0 -2 0 -2 -2 -2 -2 -3 -1 0 -1 0 0 -1 0 -1 -1 1
-1 2 0 -3 0 -2 -4 -3 -3 -3 -1 1 -1 1 -1 0 -1 0 1 -1 2 -2 -5 -5 -5 -5 -3 -1
-2 0 1 2 1 2 1 0 1 0 0 -1 -1 -1 1 -1 1 0 0 1 -1 1 1 0 1 0 -1 2 -1 2 0 0 0 1
-1 1 -1 0 1 -1 0 -2 -2 0 -2 0 -1 -1 0 -1 2 0 2 1 -2 -1 -1 -1 0 -3 0 -3 -1 0
-1 0 0 -1 1 -1 -1 0 -1 0 -2 0 -1 0 0 -1 0 -1 2 0 1 0 -1 -1 -1 -2 1 0 1 0 -2
-1 -1 -1 -1 0 -1 0 0 1 1 1 -1 0 -1 0 0 -1 0 -2 -1 0 -2 0 -4 -4 -4 -4 2 -1 2
-1 -3 0 -2 1 -3 -3 -2 -2 0 -2 1 -1 -2 0 -2 1 0 -1 1 -2 -7 -6 -6 -7 0 -1 0
-1 1 0 1 0 -1 -1 0 -1 -1 0 -1 1 -1 -2 -2 -1 -4 -6 -5 -6 0 -1 0 0 4 3 3 4 -1
-2 0 -2 -3 -4 -3 -3 -1 -3 0 -2 -1 0 -1 0 1 3 1 2 1 2 1 1 -1 0 -2 1 0 -1 0
-2 -3 -3 -2 -3 1 1 2 1 0 -1 0 -1 -1 -3 -2 -2 -2 -3 -1 -2 -1 1 -1 0 1 2 1 3
-1 -2 -2 -1 -2 -4 -1 -3 -2 -4 -1 -4 -1 0 -1 0 1 -1 0 -1 -2 -3 -2 -3 0 -2 0
-2 -2 0 -1 0 0 -1 1 -1 -3 -5 -3 -4 0 -1 0 0 -3 -6 -3 -7 -2 0 -2 -1 1 -1 0
-2 -3 -8 -4 -8 -1 -5 -1 -6 -3 -6 -3 -7 -3 -8 -3 -8 -4 -10 -3 -10 0 -2 1 -1
-1 -1 -1 0 1 -2 1 -2 -2 -2 -1 -1 1 3 0 3 -1 -3 -1 -2 0 -1 1 0 -2 -2 -1 -2 0
-2 0 -2 1 2 1 2 1 0 1 1 0 -3 0 -3 -1 -2 -1 -2 -2 0 -1 0 1 2 0 2 0 0 -1 0 -1
-4 -1 -4 -1 -2 0 -2 1 1 2 2 1 -2 1 -2 0 -5 0 -5 -1 -4 -1 -4 -1 -2 -1 -1 1
-2 0 -2 -1 -1 -1 -1 -1 -3 0 -3 1 1 1 0 0 -1 -1 -2 1 0 1 0 -1 -4 0 -4 -2 -2
-2 -2 1 -1 1 -1 -1 -5 0 -5 -1 -7 0 -6 -2 -4 -1 -3 0 -2 1 -2 0 -1 0 -1 1 1 1
2 0 -2 0 -1 2 1 3 0 -2 -1 -1 0 -1 -2 -1 -2 1 0 1 0 1 0 2 0 -2 -3 -2 -3 -1 1
-1 0 0 -1 0 0 0 -2 0 -2 -2 4 -1 4 0 -6 0 -5 2 0 1 0 -1 -3 0 -4 -1 0 -1 0 1
-1 1 0 0 -12 1 -11 0 -6 0 -6 1 1 1 1 0 -4 0 -4 0 -3 0 -2 -1 -1 -1 0 0 -6 1
-5 -1 -2 -1 -1 1 0 1 1 0 -1 0 -1 -1 0 -2 -1 1 -1 0 -2 2 1 2 0 -1 -1 -1 -1 1
-4 0 -3 1 1 1 0 -1 -2 -1 -2 1 0 1 1 1 -5 1 -5 0 0 1 -1 0 3 0 2 1 1 1 1 -1 2
-1 3 0 1 1 0 -1 2 -1 2 2 0 2 0 -1 -2 0 -2 1 0 1 0 0 2 0 2 2 0 1 1 0 -4 -1
-5 2 -1 1 -1 0 -2 0 -1 -1 1 -1 0 1 -2 1 -2 0 -2 0 -1 -1 2 -2 2 0 -3 0 -3 -1
0 -1 -1 0 2 -1 2 0 -3 -1 -3 2 1 1 0 -1 -4 0 -5 0 -1 -1 -1 -1 1 -1 0 0 4 0 4
-1 2 -1 3 0 -8 0 -7 1 -1 1 0 0 -2 -1 -1 3 1 4 0 1 1 1 1 0 -1 0 -2 -1 0 -1 1
-1 -2 0 -3 -2 0 -1 -1 4 -4 4 -3 1 0 1 0 1 1 1 1 0 -2 0 -2 1 0 1 1 -1 2 0 1
1 0 1 0 1 -2 1 -2 2 0 1 0 -2 3 -2 2 1 1 1 1 0 1 0 0 1 1 2 0 0 -1 0 -1 1 2 2
1 1 1 1 0 1 0 1 0 0 1 0 2 2 1 1 1 4 -1 4 0 0 1 0 1 2 0 2 -1 0 1 0 1 1 0 2
-1 2 2 3 1 2 -1 1 0 -1 2 0 3 -1 0 -1 1 1 3 2 3 -1 2 0 1 -1 0 -1 0 0 2 0 3 2
1 2 1 0 0 1 0 1 -2 2 -1 0 -2 0 -1 -1 0 -1 1 0 -1 -1 -2 1 0 2 1 0 1 1 1 0 2
0 2 -2 0 -2 1 -1 3 0 3 -1 -1 -1 -1 -1 0 -1 0 0 1 1 2 1 1 2 2 0 2 0 2 1 0 1
0 1 7 1 7 1 10 1 11 1 8 0 8 2 4 1 5 0 1 -1 1 1 0 1 0 -1 2 -1 2 0 24 -1 25 0
8 -1 9 0 4 -1 4 1 1 1 0 -1 2 -1 2 0 2 1 1 3 0 3 1 -3 0 -3 0 0 5 1 6 1 0 2 0
1 2 2 2 0 2 0 2 1 0 1 0 1 -1 0 -2 1 1 1 0 -1 2 -1 2 0 0 1 1 -1 5 -2 5 2 4 1
4 1 -1 0 0 1 1 1 2 0 0 0 1 -2 0 -1 0 0 2 0 3 2 4 2 4 0 0 0 0 1 -1 1 -1 -1
-2 -1 -2 1 0 1 0 0 1 1 2 0 -2 0 -2 1 1 2 2 0 0 1 0 1 0 0 0 -1 1 -1 2 -2 -1
-1 -1 0 2 1 2 -1 1 -2 1 0 4 -1 3 1 1 1 0 -1 1 0 1 1 0 1 0 0 2 1 2 0 0 1 0 2
1 1 2 1 1 2 1 2 3 3 3 0 2 0 1 -1 0 -1 1 1 3 1 4 0 1 1 1 0 1 1 2 0 2 0 2 -1
0 -1 1 2 0 3 0 1 2 1 1 -1 0 -2 0 0 1 -1 2 1 0 1 1 -1 1 0 2 -2 -2 -1 -2 0 3
1 4 4 9 5 9 2 2 3 3 0 2 0 3 0 0 0 1 1 0 1 0 0 2 0 3 -1 1 -1 1 3 2 3 2 -1 0
0 1 1 2 1 2 2 0 2 0 -2 1 -1 0 1 1 0 1 2 0 2 0 2 3 2 3 -1 0 -1 0 -1 -1 0 -1
-1 0 -1 0 3 2 4 3 2 3 2 3 1 0 1 1 -1 1 0 2 0 -1 1 -1 3 2 4 2 -1 0 -1 -1 1
-2 1 -1 -1 0 -1 0 0 -3 1 -3 -2 -1 -1 0 3 -3 2 -2 1 0 2 1 1 2 1 2 0 -2 1 -2
-1 1 -1 0 0 -2 1 -2 -1 -1 -2 -1 -1 1 0 2 -2 0 -1 1 0 -2 0 -1 1 1 1 0 0 -3 0
-3 -1 -2 0 -1 -1 1 -1 2 0 -2 0 -2 1 0 0 -1 2 1 1 0 0 2 0 1 1 0 1 0 1 -2 0
-1 1 -3 0 -2 -1 0 -1 0 0 1 0 2 -1 1 -1 0 -1 -1 -1 0 1 -1 0 -1 1 1 1 2 0 -3
0 -2 1 0 1 0 0 -3 -1 -2 -1 -2 0 -2 3 4 2 4 1 -1 1 -1 0 -4 1 -3 -1 0 -1 1 -3
-4 -2 -4 1 1 2 1 -1 -2 0 -2 -1 0 -1 0 0 -2 0 -2 -2 -2 -2 -2 -1 -4 -1 -3 1 1
1 0 0 -2 -1 -2 2 1 1 2 -1 1 -1 0 2 2 1 2 0 2 0 2 1 0 1 0 0 -1 0 -2 -1 0 -1
-1 0 -2 0 -1 2 2 2 3 -1 -4 -1 -4 -1 1 0 0 -2 -2 -1 -1 1 -2 1 -1 -1 0 -1 1 0
-2 0 -1 -1 0 -1 0 0 -1 0 -1 1 0 1 1 0 -2 0 -1 -2 1 -1 0 1 -1 1 -1 -2 -4 -2
-3 0 -2 0 -1 -1 -1 -2 0 0 -5 -1 -4 -1 0 -1 0 1 -2 1 -2 -1 -1 -1 -1 1 2 0 2
-1 0 -1 0 0 -1 1 -1 -1 0 -1 0 1 -1 0 -1 -1 0 -2 1 1 -2 0 -1 1 0 2 0 -2 -1
-2 -1 -2 -6 -3 -5 -2 0 -3 1 -1 -1 0 -1 1 0 1 1 0 -3 0 -3 -2 -1 -2 -1 -1 -3
-1 -4 0 -1 1 -1 -2 0 -1 -1 0 -3 0 -2 -1 0 -1 1 -1 -2 -1 -2 -2 1 -2 1 1 4 0
5 -1 -7 -1 -7 -2 -1 -1 -2 1 -1 2 -1 1 1 0 1 0 3 0 4 1 -2 0 -1 1 0 1 1 0 -2
-1 -1 -1 -3 -2 -3 -1 1 -1 1 -1 0 0 -1 1 -1 1 -2 -2 1 -3 0 1 -2 0 -1 -2 1 -2
0 0 2 0 2 1 1 1 0 0 2 -1 2 1 2 2 2 -1 -4 0 -4 1 0 1 0 0 3 0 2 2 0 1 0 0 1 0
1 -2 0 -2 1 0 1 0 1 1 0 2 0 0 -1 1 -1 0 6 -1 7 0 1 -1 0 0 -1 0 -2 -1 0 0 1
1 4 0 4 2 -1 2 0 0 0 0 1 1 3 1 3 -1 0 -2 -1 1 2 0 1 1 0 1 0 0 1 0 2 2 0 1 1
0 2 0 1 -1 -2 -2 -1 0 0 -1 1 2 1 1 2 1 0 1 0 0 -2 1 -1 0 2 1 2 -3 0 -2 0 -1
1 0 0 3 0 3 0 0 1 0 1 -3 0 -2 1 3 0 3 0 1 0 0 1 -2 2 -2 3 1 3 1 3 0 4 0 3 2
-1 1 0 0 1 -1 2 1 2 1 2 -1 2 0 2 -2 -1 -1 -1 -1 -3 0 -3 -1 -1 -1 -1 1 -1 1
-2 -1 0 -2 0 0 -2 1 -1 1 -2 0 -3 -1 0 -1 -1 0 2 1 1 -2 1 -1 0 -1 -3 -2 -3 1
-1 0 -1 -1 0 -1 1 0 -1 0 -1 1 0 1 0 0 -1 0 -1 -1 1 -2 0 -1 -2 -1 -2 1 -1 1
-1 0 -3 0 -4 -2 1 -1 0 0 -7 0 -6 0 -3 -1 -2 0 -2 -1 -2 -1 -2 0 -1 0 -1 -1
-1 0 -2 -1 -1 -1 -4 -1 -3 2 1 1 1 0 -1 0 -2 -1 0 -1 0 0 -3 -1 -3 2 1 1 0 0
-1 -1 -2 0 -2 0 -1 -1 0 -1 1 0 -2 0 -1 2 0 1 -1 -1 -1 -1 -2 0 -1 1 -1 -1 0
-2 0 0 -1 0 -1 -1 0 -2 1 0 -1 0 -2 3 1 3 0 0 -1 1 -2 -1 -2 -2 -1 -1 0 -1 1
0 -1 0 -1 -1 -2 -2 -2 0 -3 -1 -3 1 0 1 0 0 1 1 2 0 -2 -1 -2 -2 0 -3 0 1 -2
2 -1 0 -4 0 -4 -1 2 -1 2 0 -4 0 -3 0 -5 -1 -5 0 -1 -1 0 0 -2 0 -2 1 0 2 -1
-1 -1 -1 0 -1 1 -1 2 -1 -7 0 -7 1 1 1 1 1 -2 2 -2 0 -1 0 -2 -1 0 -1 -1 0 -2
0 -1 1 2 2 2 0 3 0 4 1 -4 1 -3 -1 -1 -1 -1 0 -3 -1 -3 1 0 1 0 -1 -2 -1 -2 2
1 2 1 -2 -2 -2 -2 0 -1 0 -1 2 0 3 1 -1 -1 0 -1 -2 0 -2 0 2 -1 3 -1 -2 0 -2
-1 0 -1 0 -2 2 -2 2 -2 1 -3 0 -3 -2 -2 -1 -2 1 1 2 0 1 -1 0 -1 -1 1 -1 0 0
-1 1 0 1 -1 2 0 0 2 1 1 -1 -1 -1 0 0 1 0 1 2 0 1 1 1 0 0 -1 -1 0 -1 0 1 -1
0 -2 1 1 1 0 0 -1 1 -1 1 1 1 0 0 -1 -1 -1 1 0 1 -1 0 1 0 2 0 3 1 3 2 -1 2 0
0 3 0 3 0 1 1 0 1 -1 2 -1 -1 -2 0 -2 1 0 2 0 1 0 1 0 0 -1 0 -1 1 0 1 1 1 -2
1 -3 1 1 1 0 0 -8 -1 -8 -1 -3 -1 -2 -1 -6 -1 -6 0 -6 1 -5 -1 -2 -1 -3 -2 1
-2 1 -3 0 -3 -1 0 2 0 2 -1 0 -1 0 -2 -2 -2 -2 0 0 0 -1 1 0 1 1 0 -1 0 -2 -1
0 -1 -1 0 -2 1 -2 1 0 1 0 2 -4 2 -4 1 -1 1 0 2 1 1 1 1 0 2 -1 0 3 1 2 1 0 1
0 0 -1 0 -1 2 -2 2 -1 -2 0 -1 1 0 -2 0 -1 0 -1 0 -2 1 0 1 0 0 2 -1 1 2 -1 2
-1 2 -3 3 -3 -1 -1 0 -1 3 0 4 1 2 -4 3 -3 1 1 1 1 4 -3 4 -4 4 -1 4 -1 2 1 2
2 1 0 2 0 2 3 2 3 0 2 0 2 1 1 2 2 1 0 1 0 0 1 0 1 -1 1 -1 1 1 2 0 2 1 0 1 0
2 4 1 5 2 1 1 2 0 4 -1 4 -1 1 -1 1 0 4 0 4 0 6 0 6 2 6 1 6 1 16 0 16 1 8 0
9 -1 0 -1 0 1 -2 0 -3 -1 0 -1 0 0 2 0 3 -1 3 0 3 0 1 0 2 0 2 0 2 3 2 2 3 1
3 0 3 -1 0 -1 -1 0 1 -1 2 2 -1 1 0 2 2 2 3 0 2 0 3 -1 1 -1 0 0 4 0 3 -1 2
-1 2 1 2 1 1 0 2 -1 2 1 1 1 1 2 -4 2 -3 0 3 0 3 -1 0 -1 -1 0 1 0 1 2 1 2 2
0 1 0 2 1 2 0 3 -1 -2 -1 -2 -2 0 -1 0 1 1 0 1 -1 0 -2 0 1 -1 0 -2 -1 0 -1 0
0 1 -1 1 1 0 1 1 0 3 1 3 1 -1 1 0 0 -2 1 -2 0 2 -1 3 2 0 1 -1 -1 2 -1 2 -1
0 -1 1 2 2 2 2 0 2 0 2 0 0 0 1 1 2 1 1 4 10 4 11 1 -1 2 0 0 5 -1 4 5 8 5 8
1 -1 0 -1 -2 -8 -2 -7 -2 -4 -2 -3 -1 -5 -2 -5 0 -4 0 -3 1 1 2 0 -2 -1 -1 -2
0 0 1 0 -2 -3 -2 -4 0 -1 0 -2 2 0 1 -1 1 1 0 0 1 4 0 4 1 1 1 1 2 -1 1 -1 -1
-2 0 -1 -2 -2 -1 -1 1 -2 1 -3 -1 0 -2 0 -1 -1 0 -1 1 0 1 1 0 -3 1 -2 -2 -3
-1 -2 1 1 2 0 0 -1 0 -1 -1 0 -1 -1 0 -3 0 -3 -2 -1 -1 0 1 -2 1 -2 1 -2 1 -2
-2 -2 -1 -1 1 -1 1 -1 -1 -6 -1 -5 0 -4 0 -3 0 -11 0 -10 0 -15 -1 -15 -1 -5
-1 -5 -1 -2 -1 -2 1 -1 1 0 -2 -3 -1 -3 1 -1 1 -1 -1 -3 -1 -3 1 -6 1 -5 1 -1
1 -1 0 -16 0 -16 0 -5 1 -4 0 -1 1 -1 -1 -1 -1 0 1 -1 0 -1 1 -3 0 -2 2 -4 1
-4 1 0 1 0 0 -2 0 -1 1 0 1 1 0 -2 1 -2 2 1 2 1 1 -1 1 -1 5 0 5 0 2 -1 3 -1
3 1 3 1 1 2 1 1 1 -1 1 0 0 1 0 2 1 0 1 0 0 -2 0 -1 1 0 1 1 0 4 1 4 2 4 1 4
-1 6 -1 6 0 10 -1 11 0 11 -1 12 2 4 2 4 -1 6 0 7 -2 2 -1 3 1 1 1 1 0 2 0 2
0 1 1 2 -1 0 -1 0 1 1 1 1 -1 1 -1 2 1 0 2 0 0 -2 0 -1 1 1 1 1 -1 8 -2 7 1 1
1 1 0 -1 0 -1 3 1 3 0 1 0 1 0 0 2 0 2 -2 1 -2 2 -1 0 -1 -1 0 2 -1 2 -1 0 -1
0 0 2 -1 2 1 1 2 1 -2 1 -1 1 -1 -1 -1 0 -1 3 -1 2 0 1 0 1 2 0 2 0 0 3 -1 3
1 0 1 1 0 3 0 3 2 0 1 0 0 3 0 4 0 1 1 0 0 3 0 4 -1 1 -1 1 1 0 1 -1 0 1 1 1
-1 0 -1 0 1 2 0 1 -1 0 -1 0 1 1 1 2 0 3 0 3 0 1 0 1 0 0 0 1 -1 2 0 2 -1 3 0
3 1 0 1 -1 0 1 0 1 -1 0 -1 0 0 3 0 4 2 4 1 4 0 3 0 3 1 2 2 1 1 0 1 0 1 3 0
2 2 0 1 0 0 3 0 3 1 6 1 6 2 3 2 3 4 2 3 2 1 0 1 0 0 2 0 2 2 2 2 3 0 2 0 2 4
2 3 2 0 1 0 2 -1 1 -1 1 3 3 2 2 1 2 0 3 2 1 2 1 -1 1 0 1 1 0 2 0 0 1 0 2 2
0 2 1 4 4 5 4 -2 -1 -2 -1 -3 -3 -3 -2 0 0 0 1 7 7 8 8 3 0 2 0 -1 -2 -1 -1 2
1 3 2 6 3 7 4 15 6 15 6 0 0 1 0 4 2 4 1 2 1 3 0 0 1 1 1 2 0 2 0 2 2 2 3 0
-2 -1 -1 3 1 3 0 1 1 2 1 4 1 5 1 -1 -1 0 -1 2 0 2 0 5 2 4 2 5 0 6 0 7 0 7
-1 8 -1 8 -1 5 -2 6 -2 1 1 2 2 1 -1 1 0 0 1 0 1 3 0 2 0 0 -2 -1 -1 1 1 2 1
3 0 4 -1 0 -2 1 -1 2 0 1 1 0 -1 0 -1 1 0 1 0 5 -2 4 -2 -1 -1 0 -1 1 0 1 -1
0 -2 0 -1 -1 1 -1 0 0 -1 0 -1 1 0 1 0 2 -2 2 -2 0 0 1 1 -1 2 -1 3 1 0 0 0 1
-2 1 -3 1 0 2 0 4 -4 4 -3 0 -1 0 -2 3 -3 4 -4 6 -7 6 -6 3 -7 3 -6 1 0 1 -1
0 -1 -1 -1 2 0 1 -1 0 -1 -1 -1 4 -5 3 -5 1 -3 2 -3 1 0 1 0 0 2 0 2 1 -2 1
-2 3 -4 4 -4 1 1 0 1 1 0 1 0 -1 -2 -1 -2 2 -2 2 -2 -1 -1 0 0 1 -2 0 -2 -2
-2 -2 -2 1 0 1 0 0 -2 1 -1 -1 -1 -1 -1 1 0 2 1 1 -4 1 -4 2 -3 2 -2 1 -5 2
-4 1 -2 2 -2 2 -1 3 0 0 2 0 2 1 -2 1 -1 0 -1 0 -1 -1 0 -2 0 0 -1 0 0 1 -4 1
-4 1 -3 0 -3 1 -1 1 0 0 -4 0 -4 -3 -1 -2 -1 -2 0 -1 0 -1 -2 -1 -2 1 -1 1 -1
-2 -3 -2 -3 -1 -6 0 -6 2 -3 2 -2 0 -3 -1 -2 1 -3 1 -2 1 1 1 0 0 -1 0 -1 -1
-1 -2 0 0 -2 0 -1 2 -4 2 -5 0 -18 -1 -18 1 -1 1 0 -1 -2 -1 -1 1 0 1 -1 -1
-2 0 -2 -1 -3 -1 -2 0 -2 -1 -2 2 -4 2 -3 -1 -9 0 -9 -1 -4 0 -3 -2 -8 -1 -7
-1 -1 0 -2 1 -1 1 -2 0 -2 -1 -1 1 -3 2 -4 3 -1 4 -1 0 -1 0 -1 1 0 2 0 3 1 2
2 3 -2 3 -2 0 -1 0 -1 2 -2 2 -2 2 1 2 0 3 -2 3 -1 1 1 1 2 2 0 2 0 0 1 0 2 4
5 4 6 0 1 0 1 2 5 2 6 3 -1 4 0 0 0 1 0 1 -2 1 -3 3 -1 3 -1 3 0 3 -1 0 1 0 1
2 0 2 0 2 2 2 1 1 -1 0 -2 1 0 1 0 1 3 1 3 1 0 1 0 0 3 0 3 2 1 2 2 0 3 0 3 2
10 1 10 2 3 1 3 1 -1 1 0 0 -3 -1 -3 1 0 1 0 0 3 0 4 2 -3 1 -2 0 3 -1 3 -2 1
-2 1 0 1 0 1 2 0 2 0 0 3 0 4 0 0 0 1 1 0 0 -1 2 2 1 2 0 -2 0 -1 -1 0 -1 -1
1 -2 0 -1 -1 0 -1 0 1 -1 0 -1 1 1 1 0 0 -1 0 -2 2 0 2 0 -1 -3 -1 -4 1 0 2 0
0 3 0 3 1 1 1 1 2 -1 2 -1 0 3 0 3 -2 -2 -2 -1 -1 0 0 1 1 1 2 0 -1 1 -1 1 1
0 2 -1 1 1 0 1 1 -1 1 0 0 -1 -1 -1 1 0 1 -1 0 1 1 2 -2 1 -2 2 1 1 1 2 -1 -2
0 -1 1 0 2 1 0 -2 0 -2 1 0 0 1 1 2 0 3 0 3 1 4 -1 -2 -1 -1 -2 0 -2 0 2 1 2
1 -1 2 -2 3 -1 2 -1 2 1 0 0 1 2 -3 1 -3 0 2 -1 2 1 2 1 2 -1 2 -2 2 0 -1 -1
0 1 1 0 2 1 2 0 2 -1 0 -1 0 1 2 0 2 1 1 1 0 0 2 0 2 1 -2 1 -2 0 1 0 2 -1 0
0 1 -2 -1 -1 -1 0 0 0 1 0 3 0 3 0 0 1 0 0 1 0 1 -1 -1 -1 0 1 1 1 2 1 0 0 -1
0 -2 1 -2 1 -1 1 0 0 3 0 3 -3 2 -3 2 1 1 0 1 2 -1 2 0 -3 2 -2 2 1 3 1 3 -1
0 -1 -1 -1 1 -1 1 1 1 2 2 -1 3 -1 3 1 1 1 2 -1 0 -1 1 0 2 1 2 1 0 1 1 -2 0
-1 0 1 4 1 3 -1 0 -1 0 0 7 -1 7 -1 0 -1 0 0 1 1 0 -2 2 -2 2 1 0 1 0 0 1 0 1
-2 -1 -1 0 0 1 1 1 1 0 2 -1 1 1 2 1 -2 1 -1 1 1 0 1 0 0 1 0 1 -1 0 -1 -1 -1
1 0 1 -1 -1 -1 -1 1 -1 2 -1 -2 0 -1 0 -1 2 -2 2 1 2 0 2 1 -1 1 0 2 1 2 1 -2
0 -2 -1 -2 2 -1 1 1 -1 1 0 -1 3 0 2 0 3 0 3 -1 0 -1 0 0 -1 -1 -1 1 2 0 2 -2
0 -2 1 1 1 1 2 -2 2 -2 1 0 -1 0 0 -2 2 -1 2 0 -2 1 -1 -2 0 -2 0 0 2 0 1 0 1
-1 1 -1 4 -1 4 -1 0 0 0 1 -4 0 -4 -1 0 -1 0 0 6 0 5 1 0 1 -1 -1 3 -1 4 -1 0
-1 0 1 -4 0 -4 -1 0 -1 -1 1 4 0 4 -2 -1 -1 0 2 2 2 2 0 -1 1 0 -1 2 -1 2 -1
-1 -1 0 0 -2 1 -1 -1 1 -1 0 -1 3 -2 4 -1 2 -1 2 -1 0 -1 1 0 3 1 3 -2 0 -1
-1 0 1 0 2 -1 3 0 3 0 2 -1 2 -1 -1 -2 0 0 1 1 1 -4 6 -4 6 0 2 0 3 -1 2 -2 1
1 2 0 1 -1 0 -1 -1 0 2 0 2 -2 1 -1 2 0 2 0 2 -1 0 0 0 -1 3 0 3 -1 1 -1 0 0
2 0 2 -2 1 -3 1 0 2 -1 2 1 2 1 2 -1 0 -1 -1 -1 2 -1 2 0 -2 0 -2 1 0 1 0 0
-1 0 -1 -1 0 -1 0 -1 4 -2 3 2 0 1 -1 0 2 0 2 -1 0 -1 0 0 -1 0 -1 -1 0 -1 0
1 1 1 2 0 1 -1 2 -1 0 -1 0 1 -1 2 -1 -2 0 -1 1 -1 2 0 2 -2 1 -2 1 1 2 1 1
-1 1 -1 1 0 -1 0 -1 -1 1 -1 0 0 2 0 2 -2 3 -2 3 -1 -1 -1 0 0 1 1 1 -3 3 -3
4 -1 0 -1 0 0 1 0 1 -1 0 -1 0 0 1 0 1 -3 2 -2 2 0 -1 1 -2 0 -1 0 0 1 0 1 1
0 -1 1 -1 -1 0 -2 0 -3 2 -2 3 -1 -1 -1 0 -3 3 -2 3 -2 0 -1 0 -2 3 -1 3 -8 6
-7 6 -1 -1 0 -1 -2 0 -1 1 -1 0 0 1 2 0 2 0 0 1 0 1 -2 1 -2 1 -1 -1 -1 0 0 1
1 1 -1 2 0 3 -7 4 -6 4 -1 0 0 0 -6 2 -6 3 -2 4 -3 4 1 1 1 1 -2 2 -3 3 -2 0
-2 0 2 -2 3 -3 1 1 2 0 -2 -1 -1 -2 -1 1 -1 2 0 -1 0 -1 -2 2 -3 2 2 2 1 2 -1
0 -1 0 -1 0 -1 1 -3 2 -3 3 -2 -1 -2 0 0 1 1 2 -2 1 -2 0 -1 0 -1 0 0 1 0 1
-2 0 -2 0 -3 1 -3 2 -1 -1 -2 0 0 1 0 1 -1 0 -2 -1 0 1 -1 1 -3 0 -2 -1 0 1 0
1 -2 0 -1 0 -3 2 -2 1 -1 0 0 -1 -2 1 -1 1 -6 2 -5 1 -7 1 -7 0 -3 0 -3 0 0 1
0 1 -4 0 -3 0 -1 1 0 1 -1 0 -1 0 0 -1 1 -2 -6 1 -5 0 -2 0 -1 1 1 -1 0 -1 -1
1 -2 1 0 -1 0 -1 -1 1 -2 0 -2 -1 -1 0 -3 -1 -3 0 -3 0 -3 -1 -2 0 -2 -1 -2
-1 -1 -1 0 -1 0 -2 -3 1 -2 0 -1 -1 0 -2 -3 -1 -3 -1 -6 0 -6 1 0 -1 -1 0 -2
-1 -2 0 -1 1 -1 1 -5 0 -4 0 -4 0 -3 0 1 -1 2 -1 -2 0 -2 1 -1 0 -1 0 0 2 0 3
3 0 2 1 0 1 -1 0 -3 -1 -3 -1 0 -2 0 -2 -2 0 -1 1 1 -1 1 0 0 -1 0 -1 1 0 2 1
0 -1 0 -1 -4 0 -5 0 0 -1 -1 -1 -2 0 -1 0 2 1 2 1 -3 0 -3 0 0 1 0 1 3 0 2 0
0 1 0 1 1 0 1 0 0 -1 -1 -1 1 0 1 0 0 1 0 1 -1 1 -2 0 -3 -1 -2 -1 -4 -1 -4 0
-5 -2 -5 -1 -2 -1 -1 0 1 -1 0 -1 -1 0 -1 1 -2 -1 -2 -1 -2 -2 -2 -2 0 -2 -1
-2 0 2 0 3 2 1 2 1 -2 0 -1 0 -4 -2 -4 -2 0 -1 0 0 1 1 1 0 0 -1 -1 -1 -3 0
-2 0 -1 -1 -2 -1 -1 -1 -1 0 -2 -1 -1 -1 3 0 3 1 -4 -3 -3 -4 -1 0 -1 0 -4 -1
-3 0 -2 -2 -1 -2 -2 0 -1 0 -4 -2 -3 -2 0 1 0 1 4 2 5 2 0 1 -1 0 -5 -2 -5 -3
0 -1 -1 -1 -1 1 -1 0 0 -1 -1 -1 -1 1 -1 0 0 -1 1 -1 -1 0 -1 0 0 -2 0 -1 -1
0 -1 1 -3 -2 -3 -1 1 -1 2 -1 -3 0 -2 1 0 -1 0 -1 1 0 2 -1 -2 0 -2 0 -1 0 -1
0 -1 -2 -1 -2 -1 -1 -1 -1 -1 1 -1 2 0 -2 0 -1 -1 0 -1 1 -1 -2 -1 -1 1 1 2 1
1 -1 1 -1 0 -1 -1 -1 -2 0 -3 0 0 1 -1 1 -2 -2 -2 -2 1 0 0 -1 -1 0 -2 1 -4
-4 -4 -5 -2 0 -1 0 -3 -3 -3 -4 1 0 1 -1 -2 0 -1 1 -3 -3 -3 -2 1 -1 0 -1 -1
0 -1 1 -7 -7 -7 -8 -3 -3 -3 -4 -4 -5 -3 -4 -1 -1 -1 -1 -2 2 -2 3 0 1 0 1 3
3 2 3 0 2 0 1 -2 1 -1 0 0 -1 1 -1 -2 -1 -3 -1 0 2 -1 2 -3 1 -2 1 0 3 0 2 1
4 1 5 2 3 1 3 2 0 1 -1 0 2 -1 2 1 2 1 2 -1 0 -1 1 2 1 3 1 -3 0 -2 0 0 1 0 1
1 0 2 0 0 0 1 0 1 2 0 2 1 -1 1 0 0 2 0 2 1 -1 1 0 0 2 0 3 1 -1 1 0 0 1 -1 1
3 3 3 3 2 1 1 2 2 2 2 2 -1 -2 0 -1 2 3 2 2 3 3 3 4 2 2 3 2 -1 0 -1 0 -4 -4
-5 -3 -1 -2 -1 -2 0 2 -1 3 5 5 6 6 2 0 3 1 0 2 -1 2 3 3 4 3 1 -1 2 -1 -2 1
-1 0 1 -1 1 -1 2 2 1 2 1 1 2 2 1 3 1 3 4 2 4 1 2 3 3 3 6 3 6 3 7 2 7 3 6 4
6 3 1 3 1 2 2 0 2 0 4 4 5 5 5 2 4 2 3 1 2 1 -1 -1 0 -1 1 0 2 0 0 2 0 1 2 0
3 0 2 1 2 1 0 -1 0 -1 5 2 5 1 4 -1 4 0 1 0 0 -1 -1 -1 -1 -1 -4 0 -3 0 -2 0
-1 1 -2 -3 -1 -3 -2 -1 -3 -2 -2 0 -2 0 -2 -2 -1 -2 -9 -4 -8 -4 -3 -2 -2 -2
-2 -5 -2 -4 -4 -1 -3 0 -3 -2 -2 -3 0 -1 0 -1 -1 0 -1 0 1 -1 0 -2 -1 0 -1 0
-7 -6 -6 -7 -1 0 -1 0 -3 -3 -3 -2 -1 1 -1 0 0 -1 1 -1 -2 0 -1 0 -2 -2 -2 -1
-2 0 -1 0 -2 -2 -2 -2 -1 0 -1 0 0 -1 0 -1 -2 -3 -2 -2 -2 0 -1 1 0 -2 -1 -1
-4 -2 -3 -3 -4 -2 -3 -3 -5 -4 -5 -5 -2 -1 -1 -1 -1 0 -1 0 0 -1 1 -1 -5 -5
-4 -4 0 -1 0 -1 2 0 2 0 1 1 0 1 3 0 3 0 1 1 2 2 0 1 0 1 2 1 2 1 0 -1 1 0 2
1 1 2 3 0 3 0 -1 2 0 3 1 -2 0 -1 2 1 3 0 1 2 1 2 0 1 0 2 2 0 1 0 0 1 0 1 2
0 1 0 1 -2 0 -1 2 1 1 1 0 0 0 -1 3 2 3 1 0 1 0 1 2 0 1 0 0 1 -1 1 2 2 1 2 1
-2 0 -1 4 3 4 3 9 5 10 5 2 0 2 0 0 1 1 2 4 0 4 -1 3 4 4 3 2 0 1 0 2 3 3 2 2
1 1 0 3 1 3 1 0 2 0 2 2 1 2 0 0 1 0 1 4 1 3 2 2 -1 1 -1 0 2 0 2 3 1 3 1 0 0
1 1 2 0 2 1 0 1 0 1 7 2 6 2 2 2 2 2 2 0 3 1 8 2 8 2 0 1 1 1 9 3 9 3 5 0 5 0
-2 -1 -1 0 20 0 20 0 8 -1 8 -1 0 1 -1 1 -3 0 -4 0 -2 1 -3 2 0 0 0 1 9 0 8 0
0 -1 0 -2 -1 0 -1 -1 2 0 2 0 1 2 2 2 1 -1 2 0 1 0 1 0 -1 -1 0 -1 1 1 1 1 3
0 3 0 0 -1 -1 -1 4 0 5 0 3 0 3 0 7 -2 7 -2 3 -2 3 -2 0 -1 -1 0 -6 1 -6 1 -2
0 -2 1 -1 0 -1 0 1 1 1 1 -4 -1 -4 0 -2 1 -3 2 -3 0 -2 0 2 -1 2 -2 3 0 4 -1
1 -1 1 -1 6 -1 7 -1 1 -2 2 -1 1 0 1 1 9 -3 10 -2 5 -1 6 -2 4 -2 5 -1 1 -3 2
-2 3 0 4 0 4 -2 4 -1 2 0 2 0 4 -3 5 -2 11 -8 11 -7 6 -5 7 -5 3 -3 3 -3 9 -9
8 -8 0 -2 0 -1 2 -2 1 -2 0 -1 1 -1 1 -3 1 -2 1 0 0 0 2 -3 2 -3 1 0 1 0 0 -1
0 -1 2 0 2 0 3 -5 4 -4 4 -6 5 -5 2 -2 2 -3 0 -1 0 0 3 -4 3 -4 0 -1 0 -2 6
-9 5 -8 2 -1 1 -1 0 -1 0 -1 -1 1 -1 2 0 -1 0 -1 1 -2 1 -1 0 0 0 1 1 -2 2 -1
0 -3 1 -3 1 -2 2 -1 1 -2 2 -2 0 -1 0 -1 3 -5 2 -4 3 -8 2 -8 2 -7 1 -7 1 -4
1 -3 2 -3 2 -3 3 -13 4 -12 2 -5 3 -5 1 -5 1 -4 2 -8 2 -8 0 -1 0 0 0 -2 1 -1
3 -21 4 -20 -1 -2 0 -1 1 -1 1 -2 1 -10 0 -9 0 -21 1 -21 0 -11 1 -10 1 -1 0
-1 1 -20 0 -19 -2 -8 -2 -7 2 -10 3 -9 1 -2 2 -3 4 -2 4 -2 3 0 2 0 3 1 3 2 5
2 5 2 1 1 2 0 1 1 2 2 0 1 0 1 1 1 1 0 3 1 2 0 2 -2 1 -1 -1 -3 0 -3 -2 -3 -1
-2 1 0 1 0 0 1 0 1 1 0 2 0 0 2 1 2 -1 1 -1 1 1 0 1 0 2 -2 2 -2 0 5 -1 5 -1
2 -1 3 1 3 1 3 0 3 -1 2 1 0 1 0 0 2 0 2 0 1 0 1 1 3 0 3 0 1 0 2 2 1 2 0 0 2
-1 1 1 0 1 0 -1 2 0 1 1 0 1 0 0 1 -1 0 1 2 1 1 0 4 0 4 1 0 1 0 0 2 -1 2 1 0
2 0 0 3 0 3 1 -1 2 0 0 3 0 3 -1 0 -1 1 -1 1 0 1 0 4 -1 5 -2 1 -2 1 -1 -1 -2
0 0 -3 -1 -2 -2 0 -2 0 0 1 -1 1 1 2 1 2 0 -2 0 -2 1 0 1 -1 -1 5 -1 6 0 1 -1
2 0 1 -1 1 1 8 0 8 0 2 0 2 2 -1 1 0 0 3 -1 3 3 0 2 0 -1 1 -1 2 -2 -1 -1 0 0
1 1 1 1 0 2 -1 1 3 1 2 -3 3 -3 4 -3 3 -3 3 -1 12 0 12 -1 3 0 3 -1 1 0 1 1 2
1 2 -1 2 -2 3 1 0 1 0 -1 1 -1 2 -1 3 0 3 1 0 1 0 0 4 -1 5 2 0 1 1 0 9 0 9
-1 4 -2 3 0 3 0 3 -1 0 -2 -1 0 2 0 2 -1 0 -1 0 0 5 1 4 -1 4 -1 5 -1 4 -1 4
-3 3 -3 2 0 2 0 2 0 8 0 8 1 1 2 2 0 2 0 3 1 2 1 1 -3 3 -3 3 -1 1 -2 1 -4 0
-3 1 -3 -2 -2 -1 -1 2 -1 3 1 3 0 3 -2 -1 -2 -1 0 0 -1 1 0 3 -1 3 2 1 3 0 -2
1 -1 2 0 1 0 1 0 1 0 2 -1 0 -1 -1 0 3 1 4 -1 1 -1 1 -1 0 -1 -1 -2 0 -1 -1 0
1 0 2 2 0 2 1 -1 2 0 1 -1 0 -1 0 1 -2 0 -1 -1 1 -2 0 0 2 0 1 1 0 1 0 0 1 -1
2 -1 -1 -1 0 -1 2 -1 3 -1 0 -1 0 0 -3 0 -3 0 -1 -1 0 -1 1 -1 1 0 3 -1 4 1
-1 2 0 0 1 0 1 -2 2 -3 2 0 -1 -1 -1 1 0 1 -1 0 -1 0 -1 -1 1 -2 1 0 2 0 1 -2
2 -1 2 1 1 1 1 0 0 -1 1 -2 0 -2 0 0 2 -1 1 1 0 1 0 2 2 2 1 -2 0 -1 -1 -2 2
-3 3 -1 0 -2 0 -1 2 -2 2 1 1 0 1 -1 2 -1 1 0 1 1 0 2 0 1 -1 0 -1 -1 -2 2 0
2 -1 0 2 -1 1 1 1 1 1 -2 1 -2 2 0 -1 0 -1 -1 0 -1 0 0 2 0 1 -2 0 -2 -1 -1 2
0 3 -1 0 -1 0 0 -1 1 -1 -2 2 -1 2 -2 0 -1 0 1 1 2 1 -2 0 -2 0 1 2 1 2 -2 2
-2 2 1 2 1 1 0 0 -1 0 1 2 1 2 -1 1 -1 1 -2 1 -1 2 0 0 -1 0 -2 2 -1 2 -2 0
-1 1 2 0 3 1 -1 -1 0 -1 1 0 1 0 0 -1 -1 0 4 -4 4 -3 1 1 1 0 -2 1 -1 0 -5 6
-4 6 -1 2 -2 2 -2 2 -2 3 -1 -1 0 -1 2 -1 1 -2 0 -1 -1 0 -2 -1 -3 0 0 2 0 1
2 0 1 -1 -1 1 -1 2 1 1 1 1 -1 2 0 1 -1 -1 -1 0 -1 2 0 3 0 2 1 1 -1 -1 -1 0
0 2 0 1 -1 0 0 -1 -5 4 -4 3 -1 0 0 0 3 -3 3 -3 1 0 1 0 -1 -1 -1 -1 -1 1 -1
1 -2 0 -2 0 -1 2 -2 3 0 0 0 0 -3 3 -3 3 -4 3 -3 3 1 1 0 1 2 -2 2 -1 0 -1 0
-1 3 -2 3 -1 -6 6 -6 6 0 1 1 1 -1 -1 -2 0 -3 3 -3 4 -2 0 -1 0 0 -2 -1 -1 1
1 2 1 0 -1 0 -2 -2 -1 -1 -1 2 1 3 0 2 -2 3 -2 -3 1 -3 1 -1 -1 -1 -1 0 1 0 1
-2 0 -2 0 0 2 1 3 -2 -1 -1 0 0 1 0 1 2 1 2 1 -1 0 -1 0 -2 -1 -2 -1 -1 3 -1
2 -2 0 -1 -1 -2 1 -2 1 0 2 1 1 -2 0 -2 0 0 -1 0 -1 -1 1 -1 0 1 1 0 1 -1 0
-1 0 -4 1 -3 2 1 1 0 1 1 0 1 0 0 -1 0 -2 2 1 2 0 -1 3 -1 2 -1 0 -1 0 0 -1 0
-1 -2 2 -2 3 -2 0 -1 -1 -2 1 -1 2 -1 -1 0 0 -2 0 -1 0 0 1 1 2 -3 3 -3 2 -2
1 -1 0 0 -1 0 -1 -1 1 -1 1 -1 6 0 6 -1 -1 -1 -1 -1 1 -2 1 -4 1 -4 0 -5 0 -5
0 0 1 0 2 0 0 0 1 -1 -1 -2 -1 -1 1 -1 1 1 1 1 0 -2 2 -2 2 -1 0 0 -1 1 -1 1
-2 -1 0 -2 0 1 1 0 1 -1 0 -2 -1 0 1 1 1 -1 1 -2 1 -1 -1 0 -2 -2 1 -2 0 1 1
1 1 -1 1 0 1 -5 2 -5 3 -7 2 -6 2 -2 1 -1 0 -2 0 -1 0 -2 2 -2 3 -2 0 -1 0 0
2 0 2 -3 1 -2 1 -4 0 -3 0 -1 1 -1 1 -4 0 -4 0 1 -1 2 -1 -2 0 -2 0 -3 1 -2 1
-1 0 0 0 -1 1 -1 2 -6 0 -5 0 -1 1 0 1 -2 0 -1 0 0 3 0 2 -2 0 -2 0 1 2 1 2 0
1 0 0 -3 0 -4 -1 0 2 0 1 -2 -1 -1 -1 -2 2 -2 1 0 -3 0 -2 -1 1 -1 1 -2 1 -2
0 -1 -1 0 -1 -1 0 -1 0 0 1 1 2 -1 0 -1 0 -2 2 -2 2 0 -1 1 -1 -2 -2 -1 -1 0
1 0 1 -2 0 -3 0 0 -2 -1 -1 0 1 0 2 -1 0 -1 0 0 -1 0 -1 -5 1 -5 0 -5 0 -4 0
1 1 0 1 -1 0 -1 0 -1 -1 -2 -2 -1 0 -1 0 -1 2 -1 2 -4 0 -3 0 -8 -1z m7 -2
l-1 0 -1 0 -1 1 1 0 2 0 0 -1z m67 -6 l2 0 -2 -1 -2 -2 -3 0 -2 0 -1 2 -2 2 3
0 3 0 1 1 0 2 1 -3 0 -2 2 1z m-146 -46 l0 -1 -2 0 -1 0 -2 0 -2 -1 2 1 2 2 1
0 2 0 0 -1z m271 -3 l1 0 -1 -1 -1 -1 1 -2 2 -1 -2 0 -2 1 -1 -2 -1 -1 0 1 -1
2 1 -1 1 0 0 1 0 1 -1 2 -2 2 3 -1 3 0 0 0z m-162 -14 l-1 -1 -1 0 -1 0 0 1 0
1 2 0 1 0 0 -1z m-5 -1 l-1 0 -1 0 -1 1 1 0 2 0 0 -1z m193 -12 l-1 -1 -1 0
-1 0 1 1 2 1 0 0 0 0 0 -1z m41 -25 l0 -1 -1 1 -2 1 -1 0 -1 -1 -2 1 -1 1 4 0
4 0 0 -2z m-321 -3 l0 -1 0 0 -1 0 0 1 -1 1 1 0 1 0 0 -1z m-5 -5 l1 -2 -2 1
-1 1 1 1 0 1 0 0 1 0 0 -2z m13 1 l-1 -1 -1 0 -1 0 1 1 2 1 0 0 0 0 0 -1z
m-17 -2 l0 -1 -1 0 -1 0 0 1 -1 1 1 0 1 0 1 -1z m-12 -5 l0 -2 1 1 2 0 0 2 1
2 0 -3 0 -2 -3 -1 -2 -1 -1 0 -1 0 1 1 0 1 -1 0 -2 0 0 2 0 2 2 0 2 1 0 -1 1
0 0 -2z m7 2 l0 -2 -1 0 -1 0 0 2 0 1 1 0 1 0 0 -1z m-202 -11 l0 -2 -1 0 0 1
-2 -1 -1 -1 0 0 0 1 1 1 0 2 1 0 2 0 0 -1z m170 -6 l0 -1 -1 0 -1 -1 0 1 0 1
1 0 1 0 0 0z m397 -4 l-1 -1 -1 0 0 1 1 2 1 1 1 -1 0 -1 -1 -1z m8 -6 l0 -1
-1 0 -1 0 0 1 -1 1 1 0 1 0 1 -1z m-589 -2 l0 -1 -2 -2 -1 -2 -1 0 -1 0 2 2 2
2 0 1 -1 1 1 0 1 0 0 -1z m465 -7 l0 -1 -1 0 -1 -1 0 1 0 1 1 0 1 0 0 0z
m-155 -4 l0 -2 1 0 2 0 0 1 -1 1 3 0 4 0 -2 -1 -2 0 0 -2 0 -1 -1 0 -1 0 -2 0
-1 0 -2 2 -1 1 -2 0 -1 -1 0 -1 1 -1 -2 0 -2 -1 -1 2 -1 1 3 1 4 0 2 1 3 1 0
0 0 0 -1 -1z m-16 -4 l-1 -1 -1 0 0 1 1 1 1 1 1 -1 0 0 -1 -1z m303 0 l1 -3
-1 1 -1 0 0 2 0 2 0 0 1 0 0 -2z m-610 -1 l2 -1 -4 0 -3 1 1 0 0 1 1 0 1 0 2
-1z m304 -1 l-1 0 -1 0 -1 1 1 0 2 0 0 -1z m-310 -3 l-1 -2 -1 0 -1 0 1 2 1 2
1 0 0 -1 0 -1z m510 -9 l-1 0 -1 0 -1 1 0 1 0 1 2 -1 1 -1 0 -1z m-376 1 l-1
0 -1 0 -1 1 1 0 2 0 0 -1z m125 -7 l-1 -1 -2 0 -1 0 2 1 2 1 1 0 1 0 -2 -1z
m-5 -1 l0 -1 -2 0 -1 -1 1 1 0 1 1 0 1 0 0 0z m-266 -6 l-2 -1 -2 -4 -2 -3 1
3 0 3 2 2 2 3 1 -1 1 0 -1 -2z m78 -1 l0 -1 -1 0 0 1 0 1 1 1 1 0 0 0 -1 -2z
m107 0 l-1 0 -1 0 -1 1 1 0 2 0 0 -1z m365 -6 l2 -2 -1 1 -1 1 -2 -1 -1 0 1 1
2 1 -2 0 -1 0 0 1 0 1 0 0 1 0 2 -3z m-558 -5 l0 -1 -1 0 -1 0 0 1 0 1 0 0 1
0 1 -1z m124 -1 l0 -1 -1 0 -2 0 0 1 0 1 1 0 0 1 1 -1 1 0 0 -1z m-31 -1 l0
-1 -1 0 -1 0 1 1 0 1 1 0 0 0 0 -1z m471 0 l0 0 -1 -2 -2 -1 0 1 -1 0 1 2 2 1
0 0 1 0 0 -1z m-473 -5 l2 0 -2 -2 -2 -1 -1 0 -1 0 0 2 -1 3 1 1 1 1 1 -2 1
-2 1 0z m-10 1 l-1 -1 0 1 0 2 1 0 0 -1 0 -1z m484 -3 l0 -1 -1 2 -1 2 1 1 0
1 1 -2 1 -2 -1 -1z m-468 3 l0 -1 -1 0 -1 0 0 1 0 1 1 0 1 0 0 -1z m0 -5 l0 0
-1 0 -2 0 0 1 0 1 2 -1 1 0 0 -1z m243 -1 l0 -1 -5 -1 -4 -1 -2 0 -2 0 0 -1 0
-1 -1 1 -1 0 0 -1 0 -1 -1 0 -1 1 -9 -4 -10 -4 -7 -2 -6 -2 -1 -1 -1 -1 -2 0
-1 0 3 2 3 3 2 2 1 2 0 -2 0 -1 3 2 3 2 0 2 0 1 2 1 3 1 8 2 8 1 4 0 5 0 0 1
1 1 4 0 5 0 -1 -1z m230 -6 l-1 -1 0 2 0 3 1 -2 0 -1 0 -1z m-472 -5 l0 -1 -1
0 -1 0 0 1 0 1 1 0 1 0 0 -1z m-6 -8 l-1 -2 -1 0 0 1 1 2 1 2 1 0 0 0 -1 -3z
m-50 -14 l-1 -1 0 1 0 2 1 0 0 -1 0 -1z m-5 -12 l-4 -8 -1 0 0 0 1 1 0 1 -1 0
-1 0 0 2 -1 2 1 -2 1 -1 1 0 1 0 -1 3 -1 2 2 3 2 2 0 -1 1 0 0 1 0 1 2 2 2 2
0 -1 0 -1 -4 -8z m48 2 l0 -1 -1 0 0 1 0 1 1 1 1 0 0 0 -1 -2z m405 -13 l2 -1
0 -3 0 -3 -3 1 -2 1 0 -1 0 0 -1 2 -2 3 0 0 0 1 2 0 2 1 0 0 1 0 1 -1z m1 -10
l0 -2 1 0 1 0 -1 -1 0 -2 2 0 2 -1 0 -1 0 -1 -2 0 -1 1 -1 1 -1 2 -2 3 -2 3 0
1 0 1 2 -1 2 -1 0 -2z m-440 -1 l0 -2 -1 0 -1 0 0 2 0 1 1 0 1 0 0 -1z m120
-4 l-2 -1 -1 0 0 1 1 1 2 2 0 -1 1 0 -1 -2z m330 2 l1 0 0 -1 0 -1 -1 0 -2 1
0 -1 0 -1 -1 0 -1 0 0 1 0 2 1 0 2 1 0 -1 0 -1 1 1z m3 -12 l0 -1 -2 0 -1 -1
1 1 0 1 1 0 1 0 0 0z m-4 -5 l2 -1 -2 1 -2 1 0 2 0 2 1 -2 0 -1 1 -2z m-471
-1 l-1 -1 -1 -1 -1 0 0 2 0 3 1 -1 2 -1 0 -1z m14 2 l0 -1 -1 0 -1 -1 0 1 0 1
1 0 1 0 0 0z m474 -15 l1 0 -1 -2 -1 -1 -1 1 -1 2 0 1 0 2 1 -2 1 -1 1 0z
m-371 0 l0 -1 -2 -1 -1 -1 1 1 1 2 1 0 0 0 0 0z m-200 -4 l0 -2 -1 -2 -2 -1 0
1 1 2 0 1 1 2 1 0 0 0 0 -1z m208 0 l0 -1 -1 0 -1 0 0 1 0 1 1 0 1 0 0 -1z
m-119 -23 l0 -2 -1 0 -1 0 0 2 0 2 1 0 1 0 0 -2z m601 -9 l1 -3 -1 0 -1 -1 0
4 -1 5 1 -1 1 0 0 -4z m-700 -3 l-1 0 -1 0 0 1 1 1 0 1 1 -1 0 -1 0 -1z m706
-10 l0 -2 0 0 -1 0 -1 1 -2 0 2 2 2 1 -2 0 -1 -1 0 2 0 1 2 -1 1 -1 0 -2z
m-606 1 l0 -2 -1 0 -2 0 0 -2 0 -1 -1 1 0 2 2 2 2 2 0 0 0 0 0 -2z m-4 -7 l1
-1 0 -1 -1 0 -1 1 -2 2 1 3 0 3 1 -3 0 -2 1 -2z m608 3 l0 -2 -1 1 -1 0 0 1 0
1 1 0 1 0 0 -1z m-607 -7 l0 -1 -1 0 -1 0 0 1 -1 2 1 -4 0 -3 -1 0 -1 0 0 3 0
3 1 0 0 1 2 -1 1 0 0 -1z m0 -5 l0 -3 -1 1 -1 1 1 2 0 2 1 0 0 0 0 -3z m689 2
l0 -1 -1 0 -1 0 0 1 0 1 0 0 1 0 1 -1z m-693 -12 l-1 -1 -1 0 -1 0 2 1 1 2 1
-1 0 0 -1 -1z m693 0 l0 -1 -1 1 -1 0 0 1 0 1 1 0 1 -1 0 -1z m-696 -6 l-1 -1
0 2 0 3 1 -2 0 -1 0 -1z m696 -2 l0 -3 -1 2 -1 3 1 1 0 1 1 0 0 0 0 -4z m-77
-4 l0 -2 -1 1 -1 0 0 2 0 1 1 0 1 0 0 -2z m-620 -3 l-1 -1 0 2 0 3 1 -2 0 -1
0 -1z m625 0 l0 -1 -1 1 0 1 -1 -1 -1 0 0 1 0 1 1 0 1 -1 1 -1z m-33 -4 l1 -3
1 1 2 0 -2 -1 -1 -1 1 -4 0 -4 -1 0 -1 1 -2 5 -1 6 0 2 0 3 1 -1 2 -1 0 -3z
m29 2 l0 -2 -1 1 -1 1 0 1 1 1 1 0 0 0 0 -2z m-650 0 l0 -1 0 0 -1 0 0 1 -1 1
1 0 1 0 0 -1z m124 -6 l-1 -1 0 1 0 2 1 0 0 -1 0 -1z m529 -1 l-1 -1 0 2 0 3
1 -2 0 -1 0 -1z m1 -3 l-1 -2 -1 0 0 1 1 1 1 2 1 0 0 0 -1 -2z m-466 -4 l-1
-1 0 1 0 2 1 0 0 -1 0 -1z m464 0 l1 0 0 -2 1 -2 -1 -1 -1 0 -1 1 -1 0 1 1 2
1 -2 0 -2 0 0 2 -1 1 2 0 1 -1 1 0z m-716 -11 l0 -3 -1 1 -1 1 1 2 1 2 -1 1 0
0 1 0 1 -1 -1 -3z m718 2 l0 -3 -1 0 0 0 -1 3 0 2 1 0 2 0 -1 -2z m-631 -6 l1
-2 0 -1 -1 0 -1 0 -1 1 0 2 0 2 1 0 1 0 0 -2z m631 -3 l1 -2 -1 0 -1 0 0 2 0
1 0 0 1 0 0 -1z m-458 -4 l0 -2 -1 0 -1 -1 0 1 -1 1 1 1 0 1 1 0 1 0 0 -1z
m-254 -8 l0 -4 -1 -1 0 -1 -1 0 -1 0 1 3 1 3 0 3 -1 3 2 -1 1 -2 -1 -3z m110
-5 l1 -2 -1 0 -1 0 0 2 0 1 0 0 1 0 0 -1z m603 -1 l-1 -1 0 1 0 2 1 0 0 -1 0
-1z m-720 -5 l0 -4 -1 -3 0 -3 -1 1 -1 0 1 5 0 5 1 1 1 2 0 0 1 0 -1 -4z m256
3 l1 -2 0 0 -1 0 -2 2 -1 1 1 0 1 0 1 -1z m-137 -2 l0 -1 -1 0 -1 1 1 -2 1 -2
1 0 2 -1 -3 0 -2 0 0 1 0 1 -1 2 0 2 1 0 1 0 1 -1z m-5 -1 l0 -1 -1 0 -1 0 0
1 -1 1 2 0 1 0 0 -1z m600 0 l1 -1 -1 -1 -2 -1 1 2 0 2 1 0 0 0 0 -1z m-593
-1 l0 -1 -1 0 -1 0 0 1 0 1 1 0 1 0 0 -1z m-52 -6 l-1 -1 -1 0 -1 0 0 1 0 1 2
0 1 0 0 -1z m-67 -8 l0 -3 -1 2 0 2 0 2 1 1 0 0 1 0 -1 -4z m119 3 l0 -2 -1 1
-1 0 1 1 0 1 0 0 1 0 0 -1z m3 -2 l0 -1 -1 0 -1 0 0 1 0 1 1 0 1 0 0 -1z m-55
-1 l0 -1 -1 0 -1 0 0 1 0 1 0 0 1 0 1 -1z m-69 -5 l-1 -1 0 1 0 2 1 0 0 -1 0
-1z m68 -4 l0 -4 -2 2 -1 1 1 1 0 2 0 2 0 2 1 0 1 -1 0 -5z m37 5 l0 -1 -1 0
-2 0 0 1 0 1 2 0 1 0 0 -1z m149 -10 l0 -5 -1 0 -1 -1 0 4 -1 4 0 5 0 5 2 -4
1 -3 0 -5z m471 8 l0 -1 -1 0 -1 1 -1 1 0 1 1 -1 2 0 0 -1z m-725 -4 l0 -1 0
0 -1 0 0 1 -1 1 1 0 1 0 0 -1z m801 -1 l0 -2 -1 0 -1 0 0 2 0 2 1 0 1 0 0 -2z
m-90 -5 l1 -1 -1 1 -1 0 0 1 0 1 0 0 1 0 0 -2z m-710 -3 l1 -3 -1 -2 0 -1 -1
2 -1 3 0 2 0 3 0 0 1 0 1 -4z m697 -6 l-1 -1 0 2 0 3 1 -2 0 -1 0 -1z m-634
-21 l0 -5 -1 1 -2 1 2 3 1 3 0 1 0 1 0 0 1 0 -1 -5z m68 2 l1 0 -1 -1 -1 -1
-2 -3 -2 -2 0 2 1 3 1 2 0 2 1 -1 0 -1 2 0z m-12 -15 l0 -1 -1 0 -2 0 1 1 0 1
1 0 1 0 0 -1z m6 -7 l-1 0 -1 0 -1 1 1 0 2 0 0 -1z m-113 -29 l0 -1 -1 0 -1 0
0 1 0 1 0 1 -1 2 2 -1 1 -1 0 -2z"/>
<path d="M355 819 l0 -1 2 0 2 0 0 0 0 1 -1 0 -2 1 -1 -1z"/>
<path d="M343 808 l-1 0 0 -1 0 -1 1 1 1 1 0 0 -1 1 0 -1z"/>
<path d="M335 805 l0 -1 1 0 1 0 0 1 0 1 -1 0 -1 0 0 -1z"/>
<path d="M332 802 l0 -1 2 0 1 0 0 1 0 1 -1 0 -2 0 0 -1z"/>
<path d="M294 787 l-1 0 0 -1 0 -1 1 0 1 0 0 2 1 1 -1 0 -1 0 0 -1z"/>
<path d="M301 787 l0 -1 1 0 1 0 0 1 -1 1 -1 0 0 0 0 -1z"/>
<path d="M302 784 l-1 -1 1 0 2 0 0 1 0 1 -1 0 -1 0 0 -1z"/>
<path d="M289 783 l-1 -1 1 0 1 0 0 1 0 1 0 0 -1 0 0 -1z"/>
<path d="M693 783 l-1 -1 1 0 2 0 0 1 0 1 -1 0 -1 0 0 -1z"/>
<path d="M700 781 l0 -1 2 0 1 0 0 0 0 1 -1 0 -2 1 0 -1z"/>
<path d="M284 778 l-3 -3 0 -1 1 0 3 1 4 1 -1 1 -1 2 0 -2 0 -1 -1 0 -1 0 0 1
0 1 2 2 2 1 -2 0 -1 0 -2 -3z"/>
<path d="M290 775 l-1 -1 -3 0 -2 0 2 -1 2 0 -1 -1 -1 -1 2 0 3 1 -1 0 0 1 1
2 1 1 -1 0 -1 0 0 -1z"/>
<path d="M278 769 l0 -1 1 0 1 0 0 1 -1 1 -1 0 0 0 0 -1z"/>
<path d="M303 767 l-1 -1 1 0 1 0 1 1 0 1 -1 0 -1 0 0 -1z"/>
<path d="M722 765 l0 -2 2 0 1 -1 -1 2 -1 2 -1 0 0 0 0 -1z"/>
<path d="M273 763 l-2 -2 1 1 2 0 -1 -2 -2 -3 1 -2 0 -2 1 0 1 0 0 1 0 1 -1 0
-1 1 1 2 1 3 1 0 1 0 0 2 0 2 0 0 0 0 -3 -2z"/>
<path d="M579 761 l1 -1 -2 -1 -3 0 -1 0 -1 1 1 -1 0 -2 2 0 1 -1 1 1 1 0 2
-1 2 -1 0 2 0 2 -1 1 0 2 -2 0 -1 0 0 -1z"/>
<path d="M280 759 l0 -1 1 1 1 0 0 1 0 0 -1 0 -1 0 0 -1z"/>
<path d="M267 756 l-2 0 0 -2 -1 -2 1 0 1 0 2 3 2 2 0 0 0 0 -3 -1z"/>
<path d="M605 756 l2 -1 2 0 3 0 -3 1 -2 1 -2 0 -1 0 1 -1z"/>
<path d="M284 753 l0 -1 1 0 1 0 0 1 0 1 -1 0 -1 1 0 -2z"/>
<path d="M262 749 l1 0 1 0 0 1 -2 0 -1 0 1 -1z"/>
<path d="M264 748 l-1 -1 1 0 1 -1 1 2 1 1 -1 0 0 0 -2 -1z"/>
<path d="M267 746 l-1 -2 1 0 1 -1 1 2 0 2 0 1 -1 0 -1 -2z"/>
<path d="M277 747 l1 -1 -1 -2 -1 -1 0 -1 1 0 1 2 1 2 -1 1 -1 2 0 -2z"/>
<path d="M749 746 l0 -1 1 0 1 -1 -1 1 0 2 -1 0 0 0 0 -1z"/>
<path d="M260 743 l-1 -3 2 -1 1 -1 1 1 0 1 -1 0 -1 -1 0 3 1 3 0 0 0 0 -2 -2z"/>
<path d="M749 742 l-1 -1 1 0 2 0 0 1 0 1 0 0 0 0 -2 -1z"/>
<path d="M247 739 l-1 -1 1 1 2 0 0 1 0 0 -1 0 -1 0 0 -1z"/>
<path d="M243 735 l-2 -2 0 1 -1 0 0 -2 1 -1 -2 0 -1 0 0 -1 0 -2 0 0 1 0 3 4
3 4 0 1 -1 0 -1 -2z"/>
<path d="M254 735 l-1 -2 0 -1 1 0 1 2 2 3 -1 0 -1 0 -1 -2z"/>
<path d="M522 734 l1 0 1 0 0 1 -2 0 -1 0 1 -1z"/>
<path d="M254 730 l-2 -2 2 0 2 0 0 2 0 2 0 0 -1 0 -1 -2z"/>
<path d="M517 729 l0 -1 1 1 1 0 0 0 0 1 -1 0 -2 0 1 -1z"/>
<path d="M255 726 l-1 -2 1 0 1 0 0 2 0 1 0 0 -1 0 0 -1z"/>
<path d="M466 726 l1 0 1 0 0 1 -2 0 -1 0 1 -1z"/>
<path d="M234 724 l-2 -1 1 0 2 0 1 1 0 1 0 0 0 0 -2 -1z"/>
<path d="M228 720 l0 -1 2 1 1 0 0 1 0 0 -1 0 -2 0 0 -1z"/>
<path d="M327 712 l-1 0 0 -1 0 -1 1 1 1 1 0 0 -1 1 0 -1z"/>
<path d="M330 710 l-1 -2 -4 -2 -3 -1 1 -1 1 -1 2 1 2 2 1 1 2 2 0 1 -1 2 0
-2z"/>
<path d="M319 702 l-1 -1 1 0 1 0 0 1 0 1 0 0 -1 0 0 -1z"/>
<path d="M394 698 l-1 -1 1 0 1 0 1 1 0 1 0 0 0 0 -2 -1z"/>
<path d="M713 689 l0 -1 -1 0 -1 -1 1 -1 0 -1 2 2 1 2 1 -1 2 0 -1 1 -1 0 -2
1 -2 0 1 -1z"/>
<path d="M721 688 l0 -1 1 1 0 1 0 1 -1 0 0 -2z"/>
<path d="M714 684 l-2 -2 0 -1 0 -1 1 -1 1 0 0 1 -1 1 1 0 1 -1 1 -1 0 -1 0
-2 1 -2 -1 -4 -2 -3 2 -2 1 -1 2 0 2 0 1 1 0 1 2 0 2 0 -1 1 0 2 2 0 2 1 1 -1
1 0 0 2 -1 1 1 1 2 1 -3 0 -2 0 -1 1 0 1 -1 0 -1 0 -3 0 -2 0 0 1 0 1 4 0 3
-1 0 1 0 1 -2 0 -2 1 -3 0 -2 1 -2 1 -1 1 1 1 0 2 0 0 0 0 -2 -2z m11 -11 l2
-1 -1 -1 -1 -1 -2 2 -3 1 0 1 0 1 2 -1 2 -1 1 0z"/>
<path d="M722 684 l-1 -1 1 0 1 1 1 1 0 1 -1 0 -1 0 0 -2z"/>
<path d="M333 674 l-2 -2 2 2 3 2 0 1 0 0 0 0 -1 0 -2 -3z"/>
<path d="M827 669 l0 -1 2 -1 2 -1 -2 1 -1 2 -1 0 0 0 0 0z"/>
<path d="M829 656 l-1 0 0 -2 0 -1 1 0 0 1 2 -1 1 -1 1 0 0 1 -2 2 -2 2 0 -1z"/>
<path d="M726 649 l-1 -1 1 0 1 0 0 1 0 1 0 0 -1 0 0 -1z"/>
<path d="M185 642 l-1 -1 1 1 2 0 0 1 0 1 0 0 -1 0 -1 -2z"/>
<path d="M848 624 l0 -1 1 0 1 0 0 1 -1 1 -1 0 -1 0 1 -1z"/>
<path d="M856 616 l0 -1 1 -2 2 -1 -1 2 0 2 -1 1 -1 0 0 -1z"/>
<path d="M861 609 l0 -1 1 -2 1 -1 0 1 0 1 -1 1 -1 2 0 -1z"/>
<path d="M612 606 l-1 -1 1 0 1 0 0 1 0 1 0 0 -1 0 0 -1z"/>
<path d="M266 603 l0 -1 1 0 1 0 0 1 -1 1 -1 0 0 0 0 -1z"/>
<path d="M619 602 l0 -1 0 -1 0 -1 1 2 1 2 -1 0 0 1 -1 0 -1 0 1 -2z"/>
<path d="M255 601 l0 -1 1 1 0 1 0 1 -1 0 0 -2z"/>
<path d="M248 596 l-1 0 -1 -2 0 -1 1 0 1 0 1 0 1 0 -1 -2 0 -2 0 0 1 1 0 1 0
1 2 2 1 2 -1 0 -2 1 1 -2 0 -1 -1 0 -2 0 1 2 0 1 0 0 0 0 -1 -1z"/>
<path d="M622 596 l1 0 1 0 2 1 -3 0 -2 0 1 -1z"/>
<path d="M767 597 l0 -1 1 -2 1 -2 2 -2 3 -1 -1 2 0 1 -2 0 -1 0 -1 3 -1 2 0
0 -1 0 0 0z"/>
<path d="M239 584 l-1 -2 0 0 0 -1 1 0 1 0 0 1 -1 0 1 2 1 2 0 0 -1 0 -1 -2z"/>
<path d="M243 583 l-1 -2 0 -1 0 -1 -2 -1 -2 -2 1 0 1 0 3 3 2 4 0 1 -1 1 -1
-2z"/>
<path d="M245 581 l-1 -1 1 0 1 0 1 1 2 1 -2 0 -2 0 0 -1z"/>
<path d="M236 577 l-1 -2 1 -1 0 0 1 2 1 2 -1 1 -1 1 0 -3z"/>
<path d="M243 574 l-1 -2 -1 1 -1 2 1 -3 0 -3 -1 0 -1 0 0 1 1 1 -1 0 -1 1 -1
-1 -2 0 0 -2 0 -1 2 0 2 1 0 -1 1 -1 -3 -1 -3 0 -1 -1 0 -1 0 -5 -1 -6 1 1 1
0 0 4 0 4 1 -4 0 -3 2 3 1 3 0 -4 -1 -3 1 0 1 0 0 2 0 3 1 1 1 1 -1 0 -1 0 2
3 1 3 0 2 0 2 1 1 2 0 0 3 0 2 -1 0 -1 0 0 -3z m-4 -3 l0 -1 -2 0 -1 -1 1 1 0
1 1 0 1 0 0 0z"/>
<path d="M223 556 l-1 -1 1 1 2 1 0 1 0 0 0 0 -1 0 -1 -2z"/>
<path d="M218 546 l-1 -1 1 1 2 1 0 1 0 0 -1 0 -1 0 0 -2z"/>
<path d="M802 522 l2 -2 0 -1 0 0 1 0 1 1 -2 2 -2 2 -1 0 0 0 1 -2z"/>
<path d="M227 512 l0 -1 1 0 1 1 0 -2 0 -2 1 1 0 2 -1 1 -1 1 -1 -1z"/>
<path d="M203 510 l-1 0 0 -2 0 -2 1 2 1 2 0 1 -1 0 0 -1z"/>
<path d="M226 505 l-1 -2 1 0 2 -1 -3 -2 -2 -2 1 0 1 0 0 1 1 2 1 -2 1 -1 0 1
0 1 0 3 1 3 -1 0 0 0 -2 -1z"/>
<path d="M692 499 l0 -1 1 0 2 0 -2 -1 -1 -1 0 0 1 -1 1 1 2 0 0 2 0 2 -2 0
-2 0 0 -1z"/>
<path d="M905 495 l0 -2 1 1 0 2 -1 1 -1 1 1 -3z"/>
<path d="M199 492 l0 -2 2 1 1 0 0 1 0 0 -1 0 -2 1 0 -1z"/>
<path d="M204 479 l-1 -1 1 -1 1 -1 0 2 1 2 0 0 0 0 -2 -1z"/>
<path d="M114 466 l-1 -7 -1 -3 0 -3 1 2 1 2 1 7 1 8 0 1 -1 0 -1 -7z"/>
<path d="M206 460 l0 -1 1 1 0 1 0 1 -1 0 0 -2z"/>
<path d="M319 461 l1 -1 -1 -1 -1 -1 2 -2 2 -2 1 1 1 0 1 2 1 3 -1 -1 0 -1 -2
2 -1 3 0 -2 1 -2 -2 -1 -2 -1 1 1 1 2 -1 1 -1 2 0 -2z"/>
<path d="M209 459 l0 -2 1 1 1 0 0 1 0 1 -1 0 -1 0 0 -1z"/>
<path d="M193 454 l0 0 -1 -3 0 -2 0 0 1 0 1 3 1 2 0 1 -1 0 -1 -1z"/>
<path d="M323 450 l0 -1 1 1 0 1 0 1 -1 0 0 -2z"/>
<path d="M185 450 l0 -1 2 -2 1 -1 0 1 0 1 -1 1 -2 1 0 0z"/>
<path d="M110 447 l0 -1 1 -1 1 -1 0 2 0 3 -1 0 0 0 -1 -2z"/>
<path d="M190 444 l0 -1 1 -1 2 -1 0 0 1 0 0 2 -1 1 0 1 0 1 -1 0 -1 0 -1 -2z"/>
<path d="M306 427 l0 -1 1 0 1 0 0 1 0 1 -1 0 -1 0 0 -1z"/>
<path d="M309 422 l-1 0 0 -2 0 -1 1 1 1 2 0 1 -1 0 0 -1z"/>
<path d="M109 406 l0 -1 1 1 0 1 0 1 -1 0 0 -2z"/>
<path d="M840 399 l0 -2 1 1 1 0 0 1 0 1 -1 0 -2 0 1 -1z"/>
<path d="M195 385 l0 -4 1 2 0 2 0 2 -1 3 0 -5z"/>
<path d="M93 384 l-1 0 1 -2 0 -2 2 1 1 1 0 2 0 1 -1 0 0 0 -2 -1z"/>
<path d="M111 381 l0 -1 1 1 0 1 0 1 -1 0 0 -2z"/>
<path d="M920 348 l0 -2 -1 -2 0 -1 2 2 2 2 -1 1 0 1 -1 0 -1 0 0 -1z"/>
<path d="M218 343 l0 -2 -1 -1 -1 -1 2 -1 2 -1 -2 0 -2 1 0 -1 0 -1 1 0 1 0 0
-3 0 -3 -1 1 -1 2 -2 0 -1 0 2 -2 2 -1 0 -1 0 -1 -1 1 -1 0 1 -1 2 -2 1 0 1 0
0 2 1 3 -1 -1 -1 0 0 1 0 1 1 2 2 3 -1 -1 -1 0 0 3 0 2 1 -1 1 0 -1 2 -1 2 1
1 0 1 -1 0 -2 0 0 -3z"/>
<path d="M209 342 l-1 0 0 -2 0 -2 1 0 1 0 -1 -1 0 -1 -1 1 -1 0 0 -1 0 -1 3
0 2 1 2 1 1 1 0 1 0 1 -1 0 -1 0 0 -2 -1 -1 -1 3 -2 3 0 -1z"/>
<path d="M840 340 l1 -3 1 0 0 1 -1 2 0 3 -1 0 -1 0 1 -3z"/>
<path d="M831 332 l0 -2 1 1 0 1 0 1 -1 2 0 -3z"/>
<path d="M206 330 l0 -1 1 0 1 0 0 1 0 1 -1 0 -1 0 0 -1z"/>
<path d="M827 329 l1 -1 3 -1 3 0 0 1 0 1 -3 -1 -2 0 -1 1 -1 2 0 -2z"/>
<path d="M825 329 l0 0 0 -5 -1 -4 0 -1 0 0 -1 1 -1 2 0 -4 0 -3 0 0 1 0 1 3
2 3 0 4 0 4 -1 0 0 0 0 0z"/>
<path d="M827 324 l0 -1 1 1 1 0 0 1 0 0 -1 0 -1 0 0 -1z"/>
<path d="M816 322 l0 -1 -1 -2 0 -1 0 0 1 1 2 -1 1 -1 0 2 0 2 -1 1 -2 1 0 -1z"/>
<path d="M209 318 l0 -2 1 1 0 1 0 1 -1 2 0 -3z"/>
<path d="M818 315 l0 -1 1 1 1 0 0 1 0 0 -1 0 -1 0 0 -1z"/>
<path d="M218 314 l0 -2 1 -2 2 -1 -1 3 -1 3 -1 0 0 0 0 -1z"/>
<path d="M819 311 l1 -1 -1 0 -1 -1 1 0 1 0 0 -1 -1 0 2 -2 1 -1 -1 3 0 3 -1
1 -1 1 0 -2z"/>
<path d="M818 304 l0 -1 -1 -3 0 -2 1 0 2 0 0 1 1 1 -1 3 -2 3 0 -2z"/>
<path d="M822 304 l-1 -1 1 -1 0 -1 1 1 1 2 0 1 -1 0 -1 -1z"/>
<path d="M826 303 l0 -1 1 0 0 0 0 1 0 1 -1 0 -1 0 1 -1z"/>
<path d="M820 296 l0 -2 -2 0 -1 1 2 -2 2 -2 -2 0 -1 1 -1 -2 -1 -2 1 -3 1 -2
-1 -3 -1 -2 1 0 2 0 1 -2 1 -2 -2 0 -1 0 0 1 0 1 -1 0 -2 0 1 -4 1 -4 -1 -1
-1 0 2 -1 3 -1 1 5 1 5 0 1 0 2 0 3 0 4 1 4 0 4 -1 0 -1 -1 0 1 0 1 1 1 1 0 0
2 0 1 -1 0 -1 0 -1 -2z m1 -10 l0 -1 -1 0 0 1 0 1 1 1 1 0 0 0 -1 -2z"/>
<path d="M107 292 l-1 -1 1 -1 1 -1 0 2 0 3 -1 0 0 0 0 -2z"/>
<path d="M112 293 l0 -1 -1 0 -2 0 0 -1 0 -2 2 1 1 1 0 -1 1 0 0 2 0 2 0 0 -1
0 0 -1z"/>
<path d="M122 283 l0 -3 1 2 2 1 -1 2 -1 2 -1 0 0 0 0 -4z"/>
<path d="M122 276 l0 -1 1 1 1 0 0 1 0 0 -1 0 -1 0 0 -1z"/>
<path d="M234 270 l-1 -1 1 0 1 0 0 1 0 1 0 0 -1 0 0 -1z"/>
<path d="M229 265 l0 -2 2 1 1 0 0 -1 0 -1 2 1 2 1 0 1 0 1 -3 -1 -2 0 -1 1
-1 1 0 -2z"/>
<path d="M235 262 l-1 -2 0 -1 1 -1 1 1 1 1 0 2 0 1 -2 -1z"/>
<path d="M234 253 l-1 -2 1 0 1 0 0 2 0 1 0 0 -1 0 0 -1z"/>
<path d="M727 233 l-7 -2 -9 -4 -8 -4 -12 -7 -12 -7 -1 -3 -2 -2 0 0 1 -1 12
8 12 8 10 5 10 5 7 2 7 3 0 -1 0 0 -5 -5 -5 -5 0 -1 1 -2 3 0 3 0 6 2 7 2 1 0
1 0 0 -3 0 -3 4 0 4 0 7 4 7 4 7 -2 6 -2 4 0 5 0 4 -2 4 -1 8 0 8 0 0 -2 1 -1
4 -1 4 -1 9 3 10 2 2 1 3 0 1 -2 2 -1 16 -1 16 0 5 0 5 -1 1 1 1 1 0 0 0 1
-12 1 -11 1 -10 -1 -9 -1 -2 2 -2 2 -2 0 -1 0 -9 -3 -8 -2 -6 0 -5 0 0 1 0 2
0 1 0 1 -6 0 -6 -1 -3 0 -3 1 2 3 3 2 0 1 0 1 -1 1 0 1 -3 1 -2 1 -3 0 -4 0
-1 -2 -2 -2 0 -2 1 -3 -5 0 -6 0 -4 3 -5 2 -8 -4 -7 -4 -3 0 -2 -1 0 2 0 3 -1
1 -1 1 -6 -1 -5 -2 -4 0 -4 -1 5 5 5 6 0 1 0 1 -2 0 -2 0 -8 -3z m74 -4 l1 -1
-1 -1 -1 -1 -4 -1 -4 0 0 1 -1 1 1 1 0 2 4 0 4 0 1 -1z"/>
</g>
</svg>
