<?xml version="1.0" standalone="no"?>
<!DOCTYPE svg PUBLIC "-//W3C//DTD SVG 20010904//EN"
 "http://www.w3.org/TR/2001/REC-SVG-20010904/DTD/svg10.dtd">
<svg style="fill: black; stroke: black;" version="1.0" xmlns="http://www.w3.org/2000/svg"
 width="485.996987pt" height="815.147891pt" viewBox="0 0 485.996987 815.147891"
 preserveAspectRatio="xMidYMid meet">
<metadata>
Created by potrace 1.16, written by Peter Selinger 2001-2019
</metadata>
<g transform="translate(-288.801646,898.000000) scale(1.000000,-1.000000)"
fill="#9e964d" data-original="#000000" stroke="none">
<path d="M480 891 l-7 -6 -1 0 -1 0 -3 -3 -2 -2 0 -1 0 0 1 1 2 0 -2 -1 -1 -1
-6 -9 -7 -9 0 -1 0 -1 -2 -2 -2 -2 -5 -6 -4 -5 -1 -1 -1 -1 -3 -4 -3 -4 -2 -4
-1 -3 1 -1 1 -2 -1 -1 -1 -1 1 0 2 0 0 -1 -1 -2 1 0 1 0 0 -1 0 -1 -2 0 -2 1
-1 -1 -1 -1 0 -1 0 -1 1 1 2 1 0 -4 0 -3 -1 1 -1 2 0 -2 0 -2 -2 -1 -2 -2 0
-1 0 -1 1 1 1 0 0 -1 -1 -2 2 1 1 0 0 -1 -1 -1 2 1 2 0 0 -2 1 -2 -2 0 -1 1 1
-1 2 -1 0 -3 -1 -2 1 0 1 0 0 -2 1 -3 4 -1 3 -2 3 0 2 0 -1 -1 0 -1 2 -1 2 -1
-1 0 -1 0 3 -3 3 -2 2 0 2 0 1 0 1 -1 0 1 0 1 4 -1 4 0 2 -2 3 -2 2 0 2 0 0
-1 0 -1 4 -1 3 -2 0 -1 0 -1 1 0 1 0 1 0 1 0 -2 -1 -1 -1 1 0 2 -1 0 1 0 1 2
1 2 0 -2 -1 -1 0 0 -1 0 -1 2 1 2 0 3 1 4 0 1 0 1 0 0 1 0 1 1 0 1 -1 0 1 0 1
1 0 0 -1 2 2 1 1 1 0 2 -1 1 2 1 1 5 1 5 0 1 0 2 1 1 1 2 2 1 -1 1 0 0 1 -1 1
5 2 5 3 1 -1 1 0 2 2 3 2 -2 1 -2 2 -1 -1 -1 0 0 1 1 1 -3 2 -2 2 -1 0 0 0 -3
3 -3 3 -3 1 -2 1 -1 -1 -1 0 -8 0 -8 0 -4 1 -4 2 -4 3 -4 3 -3 3 -2 2 0 3 0 3
0 6 -1 7 2 2 1 3 3 1 3 2 5 0 5 1 3 -1 3 -1 0 3 0 2 -2 0 -1 -1 1 1 0 2 3 3 2
3 0 1 0 2 1 -2 1 -1 0 2 1 3 3 3 3 3 6 -1 6 -1 7 -2 7 -2 3 -1 2 -2 0 1 1 1 3
-3 2 -2 2 1 1 0 2 -1 2 -1 0 -1 -1 -1 2 0 1 -1 -1 1 0 1 2 0 2 -1 1 0 1 0 6 0
6 1 4 0 5 1 0 -2 1 -2 0 -18 1 -18 -2 -4 -1 -3 -4 -5 -3 -5 1 0 1 0 1 1 1 2
-1 -2 0 -2 -2 0 -1 0 1 -1 1 -1 -1 -1 -2 -2 1 0 0 0 -4 -4 -4 -4 -1 1 -1 0 0
-1 1 -1 -6 -3 -6 -3 -2 -1 -1 0 -2 0 -1 -1 0 1 1 0 0 1 0 1 -3 -2 -4 -1 -1 0
0 0 1 1 1 1 -1 0 0 1 -9 -5 -9 -4 -1 0 0 0 -1 0 -1 0 0 -1 1 -1 -3 -1 -2 -1
-6 -2 -6 -2 -2 0 -2 0 0 -1 1 -1 -2 0 -1 -1 -3 -2 -2 -2 1 -2 0 -2 5 -6 5 -5
0 -1 0 -1 1 1 1 0 0 -1 0 -2 1 0 1 0 1 2 0 2 2 0 3 0 1 0 1 0 0 2 1 2 0 -3 0
-2 -1 -1 -2 0 0 -1 0 -1 -3 -4 -3 -3 4 -4 4 -4 2 -5 3 -4 1 -2 1 -1 1 0 1 0 0
-1 -1 -1 2 0 1 -1 2 1 1 2 2 1 2 0 1 0 0 -1 2 2 1 2 -1 -3 0 -2 -1 -1 -1 0 -1
-3 -1 -2 2 -5 1 -4 0 -1 0 0 0 0 0 -1 3 2 4 1 1 0 0 0 -1 -1 0 -1 1 1 2 2 1 0
2 0 0 1 0 1 1 0 2 0 1 2 2 2 0 1 0 1 4 3 4 4 0 -1 0 0 3 2 4 3 0 -1 1 0 2 2 3
2 0 1 0 1 1 1 1 0 0 -1 -1 -2 1 0 0 0 2 2 2 1 0 2 0 1 1 0 0 -1 2 2 2 2 0 0 0
-1 3 2 2 3 5 4 5 5 0 1 0 1 2 0 1 1 0 1 -1 1 1 0 1 0 1 3 1 2 2 3 3 3 1 2 2 2
-1 0 0 0 1 2 2 2 2 3 1 3 2 2 1 1 0 3 0 3 0 0 0 1 1 3 1 3 0 2 0 3 1 0 1 0 0
3 0 3 1 3 0 3 0 11 1 11 0 6 1 6 -2 6 -2 6 0 4 0 4 1 3 2 4 -1 0 -1 1 1 0 1 0
-1 4 0 5 0 6 -1 7 -1 1 0 1 -4 2 -5 2 -3 0 -4 0 -3 2 -3 2 -2 0 -2 -1 -6 -1
-6 0 -6 -2 -6 -1 -14 0 -14 0 -7 1 -7 1 -3 1 -2 0 -5 1 -5 0 -4 -2 -3 -2 -2 0
-1 0 0 -1 0 -1 3 1 3 1 0 -1 1 -1 3 -1 4 0 2 0 3 0 0 -1 -1 0 1 -1 1 -2 -3 0
-2 0 -2 0 -1 0 -6 0 -5 1 1 1 1 1 -1 0 -1 1 -2 0 -2 -1 1 1 1 0 0 1 0 1 -2 0
-2 0 -5 4 -4 4 -3 2 -2 2 -4 2 -4 2 -4 0 -3 0 -7 -7z m53 -18 l2 -1 0 -1 0 0
-3 -2 -2 -1 -1 1 -1 2 -1 -1 -1 0 0 1 0 1 0 1 0 1 -1 -1 -1 0 0 1 1 1 4 0 3 0
1 -2z m14 -112 l-2 -2 -2 1 -2 0 -3 -2 -4 -1 -1 0 -1 1 6 2 7 3 2 0 2 0 -2 -2z
m-19 -5 l0 -2 -2 0 -2 0 2 2 3 1 0 0 0 0 -1 -1z"/>
<path d="M535 849 l-2 -2 -1 1 -2 0 0 -1 0 -1 -3 0 -2 -1 -2 -2 -2 -2 1 1 0 2
-1 -1 -1 -1 0 -2 -1 -2 4 -2 4 -2 0 -3 0 -2 1 0 1 1 2 1 2 0 0 -1 -1 -1 4 -1
3 -2 0 -2 0 -1 1 0 2 0 1 -1 1 -2 -1 -1 -1 0 -2 1 -1 2 -4 1 -3 2 -6 0 -6 1 0
-1 0 -1 -1 1 -1 1 -1 0 -1 0 1 -1 2 -1 -3 0 -2 0 0 1 0 1 -1 0 -1 -1 -5 0 -5
0 -3 -1 -2 -1 1 -4 1 -4 0 -4 0 -3 1 -1 1 0 0 -1 -1 -1 6 1 7 0 4 0 4 1 6 -1
5 -1 1 -3 1 -2 3 -1 3 -1 4 2 4 2 0 1 0 1 2 -1 1 -1 0 1 -1 1 2 0 1 1 -1 -1 0
-1 1 0 2 1 -1 1 0 2 2 0 2 1 0 1 -1 0 2 2 2 1 -2 0 -1 0 1 1 1 1 0 4 0 5 -2 3
-1 3 -1 1 -1 1 -3 3 -2 3 0 0 0 1 -5 5 -4 5 -3 1 -2 1 -1 -1z"/>
<path d="M570 836 l0 -1 -2 1 -2 0 0 -1 1 0 -1 -2 -1 -1 1 0 1 0 -1 -1 -1 -2
1 0 1 0 0 -2 0 -2 2 -1 2 -2 0 -3 0 -3 -3 -4 -3 -4 -7 -4 -7 -5 -1 0 -2 0 1
-1 0 -1 -1 -2 -1 -3 1 -3 2 -3 2 -1 3 -1 -1 1 -1 0 3 2 3 2 6 3 6 3 2 2 3 2
-1 0 0 1 1 0 2 -1 2 2 3 2 0 2 0 1 -1 0 -1 0 1 1 1 1 0 5 1 5 -1 7 0 7 0 3 -1
2 -6 0 -6 0 0 -1z m12 -19 l-1 -1 0 1 0 2 1 0 0 -1 0 -1z"/>
<path d="M366 822 l0 -2 -1 0 -1 0 1 2 0 1 -1 0 -1 0 -1 -1 -2 -2 -1 1 0 0 -4
-2 -3 -2 0 -1 1 0 2 1 1 1 -2 -4 -2 -4 -1 0 0 1 1 2 1 2 -1 0 -1 0 -1 -4 -2
-3 0 -1 0 0 1 1 1 1 2 1 2 0 0 -2 1 -1 1 0 1 1 0 -2 1 -1 -1 -1 -1 -1 0 2 1 2
-3 -4 -3 -3 -1 -4 -1 -3 -1 -1 0 -1 -1 2 -1 3 0 -3 0 -2 -1 0 -1 -1 0 5 0 5
-1 -2 -1 -1 1 -2 0 -2 -2 -1 -1 -1 0 2 1 2 -2 -3 -2 -2 -2 1 -2 1 -2 0 -1 -1
0 -2 1 -1 -1 -1 -1 -1 0 -1 0 0 -2 -6 -3 -6 -2 1 -1 0 0 -2 0 -2 -1 -1 0 -2
-1 0 -1 0 -2 -2 -2 -1 -1 -6 -1 -5 -1 0 -1 0 -2 -4 -2 -4 -3 0 -2 -1 -1 -3 -1
-2 0 -3 0 -2 -1 0 -1 0 0 -2 -1 -3 -1 0 -1 0 0 -1 0 -1 -3 -3 -2 -3 0 -5 1 -5
1 -2 1 -2 9 -7 8 -6 5 -3 5 -3 3 -5 4 -5 2 -5 2 -4 1 -2 0 -2 1 -1 0 -1 0 0 0
-1 0 -1 1 0 0 -4 1 -3 1 0 1 0 0 -1 0 -1 1 0 1 0 0 -1 0 -1 1 0 1 0 0 -1 0 -2
1 0 1 0 0 -1 -1 -1 2 -1 2 -1 2 -3 1 -3 1 1 1 1 0 -2 1 -2 1 -2 0 -1 0 -4 1
-4 2 -3 1 -2 -1 2 0 3 -1 6 -1 6 -1 2 -2 3 0 1 -1 2 -3 5 -2 5 1 1 0 1 1 0 1
0 0 -1 0 -1 -1 1 -1 0 0 -1 0 -1 3 -1 4 -1 -2 -1 -1 0 4 -3 3 -4 0 -3 0 -2 1
1 1 2 0 -1 1 -2 -1 -1 -1 -1 1 0 1 1 0 -4 0 -4 0 -3 1 -2 3 -1 4 -1 1 1 1 1 0
-2 0 -1 0 -2 0 -2 1 1 1 2 0 -1 0 -1 7 -1 7 0 1 -1 1 -1 5 -2 6 -2 1 -2 0 -1
1 -1 2 -1 2 -1 3 0 0 1 0 2 1 -2 1 -1 1 0 2 0 3 0 3 -1 0 -2 0 -1 1 0 1 1 1
-1 0 -1 2 0 1 1 0 -2 0 -1 1 1 1 1 2 -4 3 -3 0 -2 0 -1 1 0 1 0 -1 3 -1 2 0 1
1 0 2 -1 1 -2 1 0 1 0 2 -1 1 0 0 1 -1 1 3 -2 4 -2 -1 -1 0 -1 4 0 3 0 0 1 0
1 2 0 3 1 0 0 1 0 2 1 2 1 0 -1 1 0 -3 -2 -3 -1 4 1 4 0 2 -1 1 -2 4 0 3 0 -1
1 -1 1 3 0 3 0 -2 1 -1 1 1 0 2 0 2 1 1 0 0 -1 -1 -1 1 0 1 1 3 -2 3 -2 3 0 4
1 3 0 4 0 0 1 -1 1 1 -1 2 0 2 1 2 1 -1 3 -1 2 0 2 1 1 -1 -1 -1 0 0 7 1 7 -1
1 -1 1 3 -2 4 -2 2 0 2 0 1 2 0 1 2 0 1 0 -3 3 -2 2 -2 3 -2 3 0 1 0 1 1 0 1
-1 0 1 0 1 -2 2 -1 2 -3 3 -3 4 0 0 0 1 -2 -1 -1 0 0 1 1 1 -4 3 -3 3 0 1 0 1
-1 0 0 0 -3 2 -2 2 -2 1 -1 2 -4 4 -3 4 -4 2 -4 3 -9 1 -8 2 -3 1 -2 0 -4 1
-3 0 -4 2 -3 1 0 1 0 1 -3 4 -3 4 -2 6 -1 6 -6 5 -5 6 0 -1 -1 0 1 1 0 2 2 -1
1 0 -1 2 0 2 -2 2 -2 3 -2 1 -1 2 0 0 0 1 -1 2 0 2 -1 -1 -1 0 0 1 0 2 0 1 0
1 -1 0 -1 -1 1 1 0 2 -1 1 -2 0 1 1 0 1 -1 0 -1 0 0 1 1 1 -2 2 -1 2 -1 -1 0
0 -2 3 -2 2 1 2 0 1 2 -4 2 -3 0 0 0 1 -2 6 -2 6 0 0 0 1 -1 0 -1 -1 0 2 0 1
-1 0 -1 -1 0 2 0 2 -1 1 -1 0 1 1 0 1 -1 0 -1 0 0 2 0 2 -2 4 -2 4 -1 1 -2 1
0 0 0 -1 -3 3 -3 2 -1 5 -1 4 0 7 1 7 1 4 2 5 1 3 0 3 -1 1 -1 1 -3 0 -2 0 0
1 1 1 -4 0 -3 0 0 -2z m-34 -50 l-1 -2 -2 -1 -2 -2 0 1 0 2 3 2 3 2 0 0 0 0
-1 -2z m30 -146 l-1 0 0 2 -1 2 1 -2 1 -1 0 -1z m148 -2 l-1 0 0 2 -1 2 1 -2
1 -1 0 -1z m-5 -24 l0 -2 -1 1 -1 0 0 1 1 1 -1 0 -2 1 -1 2 -1 3 2 -3 1 -2 1
0 1 0 -2 3 -1 3 2 -3 1 -2 1 -3z m-34 -12 l-1 0 -1 0 -1 1 2 0 3 0 -2 -1z"/>
<path d="M655 800 l-1 -6 -1 0 -1 0 0 -5 0 -4 0 -1 -1 -1 -1 -6 0 -5 0 -2 -1
-1 0 -2 0 -1 -1 -1 -1 0 -5 -11 -5 -10 -4 -5 -3 -4 -2 -2 -1 -2 5 2 5 1 5 2 6
1 5 0 4 0 2 2 2 2 0 0 1 -1 -2 -5 -1 -4 -4 -4 -3 -3 -7 -1 -8 0 -4 -3 -3 -2
-1 -1 0 -1 -7 -4 -6 -4 -6 -3 -7 -3 -3 -2 -3 -3 -2 0 -2 -1 0 2 -1 2 -2 -1 -2
-2 -2 -3 -2 -3 0 -1 0 -1 1 1 2 0 -2 -1 -1 -2 -2 0 -2 0 -2 -2 -1 -2 1 1 2 1
0 -1 0 -1 -1 0 -1 0 -2 -2 -2 -3 -1 1 -1 0 0 -1 0 -2 -3 -3 -3 -3 -1 0 -1 0
-2 -2 -3 -3 0 1 -1 0 0 -1 0 -1 -1 0 -2 0 -3 -4 -4 -3 -2 -3 -3 -2 -3 -3 -3
-2 0 -1 0 -1 2 0 3 1 -3 -2 -2 -2 1 0 1 1 0 -1 0 -1 -1 -1 -1 -1 1 0 2 1 0 -2
0 -1 -1 0 -1 0 0 -3 0 -3 5 -5 6 -4 -2 0 -1 1 2 -2 2 -1 -1 -3 0 -2 1 0 2 1 0
-2 -1 -2 1 1 0 1 2 0 1 0 2 -3 2 -2 -1 -2 -1 -1 1 0 1 0 -1 -1 0 -2 -2 1 -2 0
0 -1 1 -1 1 -2 2 -2 1 0 1 0 0 1 0 1 2 0 1 1 -1 -1 0 -1 2 1 2 2 3 0 3 0 -2 1
-1 1 4 0 4 1 3 1 4 1 5 0 5 1 8 1 8 1 5 1 4 2 1 0 0 -1 4 1 4 2 5 3 6 2 0 1 0
1 5 2 5 2 5 0 5 1 0 0 0 1 2 -1 2 0 2 1 3 1 4 6 4 6 0 1 1 1 0 0 -1 0 -2 -3
-2 -4 -2 0 -2 1 -1 1 0 2 1 0 2 0 -1 2 0 3 1 -2 1 -1 1 1 0 1 1 -1 1 0 0 1 0
1 2 1 3 1 -1 2 0 2 3 2 2 2 -1 0 0 0 2 1 2 1 0 1 -1 1 2 1 1 1 0 5 0 5 1 1 1
2 1 -1 1 0 0 1 0 1 2 0 1 0 1 2 0 1 2 0 2 0 2 3 3 2 2 0 1 0 0 2 1 2 1 2 2 3
2 5 3 6 5 4 5 5 2 0 2 0 4 4 4 5 2 -1 1 0 0 2 0 2 3 1 3 1 2 3 2 2 0 4 1 4 2
3 3 3 0 -1 1 0 0 1 0 1 -4 3 -4 4 -1 1 0 1 1 -1 1 0 0 1 -1 1 -1 0 -1 -1 -1 1
0 1 2 0 3 0 0 0 1 1 -3 2 -3 2 -2 1 -1 1 -1 0 -1 1 -4 1 -3 2 -2 1 -1 0 -6 0
-5 1 -3 1 -3 0 -6 4 -6 3 -5 5 -4 5 -4 4 -4 4 -2 0 -1 0 0 1 0 1 -4 1 -4 2 0
1 0 1 -1 -1 -1 0 -2 1 -3 2 -4 -1 -4 0 0 1 0 1 -1 0 -1 0 0 -2 0 -1 -1 2 -1 2
-2 -7z m32 -31 l-2 -1 -1 0 -1 0 1 1 0 1 2 0 3 0 -2 -1z m-5 -1 l0 -1 -2 0 -1
-1 1 1 0 1 1 0 1 0 0 0z m9 -2 l2 0 -1 -1 0 -2 -5 -2 -5 -2 -3 -5 -2 -5 -2 1
-1 0 0 -1 1 -1 -1 -1 -1 -1 -3 0 -2 -1 -2 -1 -1 -2 -2 1 -1 0 -1 0 0 0 2 2 2
3 -1 1 0 1 1 0 1 -1 0 2 1 1 -1 -1 -1 0 2 5 3 4 3 3 2 2 0 -1 0 -1 -1 0 -1 0
0 -1 0 -1 -2 -2 -1 -2 4 3 4 4 2 0 2 0 -1 1 0 1 1 0 1 0 2 0 2 1 1 0 0 1 1 -1
0 -1 2 0z m-147 -118 l-1 -1 1 1 0 2 1 0 0 -1 -1 -1z m125 -13 l2 1 0 -1 0 0
-2 -3 -2 -3 -2 0 -2 0 1 1 1 1 1 1 0 2 -1 -1 -1 0 0 2 0 2 1 0 0 1 1 -2 1 -2
2 1z m-4 -3 l0 -1 -2 0 -2 -1 1 2 0 1 2 -1 1 0 0 0z"/>
<path d="M668 754 l-1 -1 1 1 2 1 0 1 0 0 -1 0 -1 0 0 -2z"/>
<path d="M416 785 l1 -1 -1 0 -1 0 -1 -4 -1 -3 -1 -6 -1 -5 1 -10 0 -9 -1 0
-1 0 0 -1 0 -2 1 0 1 0 2 -4 3 -4 0 0 0 -1 -1 1 -2 0 1 1 0 1 -1 0 -1 0 0 2 0
1 -1 0 -1 -1 -2 2 -2 2 0 -2 1 -1 2 -2 3 -1 -1 0 -1 0 2 -2 1 -2 2 0 2 0 1 -3
0 -3 1 0 1 1 1 -1 1 -1 -1 -1 -2 -2 1 0 1 0 0 -1 -1 -1 1 0 1 0 0 -3 -1 -3 1
2 0 2 1 0 1 0 5 -9 4 -9 -1 -1 0 -1 1 0 1 0 0 -1 0 -2 1 0 1 0 0 -1 0 -2 2 -2
2 -1 2 -1 2 0 1 -1 1 -2 4 -2 4 -3 6 -2 7 -1 4 -2 4 -2 0 -1 1 0 5 -4 5 -3 3
-3 3 -3 1 1 1 0 1 -1 0 -2 1 0 1 1 1 -2 1 -1 -1 0 0 0 1 -1 1 -2 2 1 1 0 0 -1
0 -2 1 1 1 0 3 -2 2 -2 0 -2 0 -1 2 0 2 0 2 4 2 4 0 0 1 1 1 1 2 0 -2 -1 -1
-1 1 0 1 0 1 1 0 1 -1 1 -1 0 0 1 0 1 1 0 1 -1 2 2 2 2 -1 0 0 1 3 -1 3 -1 -2
1 -1 1 0 1 0 2 1 -2 1 -1 2 2 2 2 1 0 1 0 1 4 1 4 -2 3 -1 4 -1 0 -1 0 0 1 0
1 -3 5 -3 6 -2 2 -2 2 -4 6 -5 7 -2 4 -2 5 -1 0 -1 0 0 1 0 1 -8 9 -8 10 -12
6 -12 6 -2 0 -1 1 -2 1 -1 1 -8 3 -8 3 -2 2 -1 2 -4 4 -3 3 -1 0 -1 -1 -1 1
-2 2 -1 0 -1 0 -2 3 -3 3 -1 0 -1 0 0 1 0 2 -1 0 -1 0 -3 1 -2 0 0 -1z m8 -61
l-1 -1 0 1 0 2 1 0 0 -1 0 -1z m78 -68 l0 -1 0 0 -1 0 0 1 -1 1 1 0 1 0 0 -1z"/>
<path d="M564 777 l-7 -4 -2 -1 -2 0 0 -1 0 -1 1 0 1 0 5 4 5 3 2 0 1 -1 0 1
-1 1 3 1 3 2 0 1 0 0 -1 0 0 0 -8 -5z"/>
<path d="M521 730 l-1 -1 1 1 2 0 0 1 0 0 -1 0 -1 0 0 -1z"/>
<path d="M752 672 l-3 -1 -4 0 -3 0 -1 -4 -1 -4 -4 -4 -3 -4 -4 -3 -3 -4 -3 0
-2 -1 -7 0 -6 1 -3 -8 -4 -7 -3 -4 -3 -4 -3 -1 -2 -2 -4 -6 -4 -6 -4 -1 -3 -1
-2 -1 -1 -1 0 -2 -1 -2 -7 -3 -7 -4 0 1 0 0 -2 -1 -1 -2 -2 0 -2 0 -5 -2 -5
-1 0 -1 0 -1 -3 0 -3 0 -3 1 -4 2 0 -1 -1 -1 -4 2 -4 1 -3 -1 -3 0 0 -1 0 -1
-2 -1 -2 0 -1 0 -1 0 0 -1 0 -1 -3 0 -3 0 -2 -2 -2 -1 0 1 1 1 -3 -2 -2 -1 -7
2 -7 1 -1 0 -1 1 -8 3 -7 4 -4 1 -3 0 -2 0 -2 0 0 1 0 2 -1 -2 0 -1 -4 0 -3
-1 -7 -2 -6 -3 -2 0 -2 0 -8 0 -7 0 -1 -1 -2 -1 0 1 -1 0 0 -1 0 -1 -1 0 -2 0
-4 -4 -5 -4 -3 -1 -2 0 -2 -1 -2 0 -2 0 -1 0 0 -1 0 -2 -2 0 -1 1 0 -2 0 -1
-4 -3 -3 -3 -1 0 -2 0 -3 -2 -3 -3 -6 -2 -5 -2 -1 -1 -1 -1 1 0 2 1 -3 -2 -3
-3 0 -1 0 0 0 -4 -1 -4 -1 0 -1 0 0 -2 -1 -2 -1 0 -1 0 1 2 1 1 -1 1 -1 1 -2
0 -1 0 -1 -3 -2 -2 2 -4 2 -3 -1 -2 0 -2 0 -1 0 0 -3 -3 -2 -2 2 0 2 1 1 -1 0
-1 3 2 2 2 1 3 0 3 1 0 1 0 0 1 0 2 2 2 2 3 0 -1 0 -1 -2 -2 -1 -2 2 2 2 2 1
2 1 2 6 0 7 -1 4 1 4 1 5 2 4 2 1 3 2 3 2 0 3 0 -1 -2 0 -2 -4 -6 -4 -6 -3 -4
-3 -3 -2 0 -1 1 -1 -2 -2 -1 0 -2 1 -1 2 0 3 0 -1 -2 -1 -1 0 -1 1 0 -2 -3 -1
-2 2 1 2 1 1 0 2 0 0 -1 0 -1 -7 -3 -7 -3 -1 -1 -1 0 -2 0 -2 0 1 -1 1 -1 -8
-5 -7 -5 -6 -5 -7 -4 -1 -1 0 -1 1 0 2 0 9 8 10 8 6 3 6 2 2 2 2 2 5 3 6 3 0
-2 0 -2 3 -1 4 -1 1 0 2 0 3 3 3 3 1 0 2 0 1 -1 0 -1 3 -1 2 -1 0 -1 0 -1 -1
0 -1 0 1 -4 0 -4 -1 -1 -1 -1 1 -6 0 -6 0 -2 1 -1 0 -1 1 0 1 -3 2 -3 -6 -6
-6 -6 0 -4 0 -3 1 -2 1 -2 -1 -3 0 -2 -2 0 -1 0 -3 -3 -3 -2 -1 -2 0 -2 -4 -5
-4 -4 -3 -3 -2 -2 -3 1 -3 1 1 -1 0 -1 -1 0 -2 1 -3 1 -2 0 0 1 0 1 -3 -1 -4
0 -2 1 -3 2 0 -1 -1 0 2 -3 1 -2 1 -1 2 -1 2 1 3 0 1 -1 2 -1 2 0 3 -1 2 -2 1
-1 -4 0 -4 1 2 -1 3 -1 2 0 3 -1 1 -2 0 -2 8 -4 8 -4 1 1 1 0 0 -1 -1 -1 2 0
2 1 0 -3 0 -2 1 -1 1 -1 0 -4 0 -4 -1 0 -1 -1 0 -4 -1 -3 -1 1 -2 2 -3 -1 -3
0 -1 -1 -2 -2 -1 -7 -2 -7 0 -4 -1 -4 1 0 1 0 2 -4 3 -3 0 -5 0 -5 -2 -5 -1
-4 -2 -3 -1 -3 -5 -6 -4 -6 -2 -5 -3 -5 0 0 0 -1 -1 -1 -1 -1 -3 -3 -2 -3 -1
-2 0 -2 -1 0 -1 0 0 -2 0 -1 -4 -4 -3 -4 -2 0 -2 -1 1 -2 0 -2 0 -3 1 -2 1 0
2 0 -2 -1 -1 -1 -2 1 -1 1 -1 -1 -1 -1 2 0 2 -1 0 -1 0 0 1 -3 0 -3 -1 0 -1 0
0 -2 -1 -1 -2 -4 -3 -4 -7 -1 -7 -1 -3 -2 -2 -1 0 -1 0 -2 3 -5 2 -4 1 -5 0
-4 -1 -2 -1 -1 1 0 1 1 0 -3 -1 -3 -1 -2 -2 -2 0 1 1 2 1 3 0 3 -1 -4 -2 -3
-4 -4 -4 -4 -5 0 -4 0 -2 0 -2 0 -2 -2 -2 -2 0 1 0 1 -2 -4 -2 -3 -2 0 -1 0
-1 0 0 0 -2 -2 -2 -1 -4 -4 -4 -4 -2 -2 -1 -2 1 -3 1 -2 -1 -1 -1 -1 1 -1 2
-1 4 0 4 -1 2 -2 1 -1 0 1 0 1 1 -3 2 -2 -1 -1 0 -1 0 -3 -1 -3 -3 -3 -2 -3
-5 0 -5 0 -1 -2 -1 -2 0 -2 0 -2 -2 -3 -2 -4 -1 -1 -1 0 -1 -4 -2 -3 -7 -8 -7
-7 -1 1 0 0 7 8 8 7 0 1 0 0 -1 0 0 -1 -8 -8 -8 -7 1 -2 1 -1 -2 1 -2 0 -3 -3
-3 -3 -2 2 -2 3 -3 -1 -2 0 -2 -2 -1 -2 -3 0 -2 0 0 -1 0 -2 -2 -1 -1 -1 0 -4
1 -4 -1 0 -1 0 0 -2 -1 -2 4 -1 4 0 3 -1 3 0 1 -2 2 -1 2 1 3 1 2 4 2 3 1 5 0
4 4 5 4 4 6 2 6 3 1 2 0 3 -1 -2 -1 -2 -2 0 -2 -1 0 1 -1 1 5 5 5 5 4 6 4 6 3
2 3 3 4 1 4 1 3 3 3 3 2 3 2 3 4 1 5 1 2 4 2 4 1 0 0 -1 3 3 2 2 0 0 0 -1 7 7
7 7 4 1 4 0 0 1 1 0 2 0 3 0 1 1 2 2 4 1 5 2 1 0 2 0 1 2 2 2 0 2 0 2 0 1 -1
1 1 0 2 0 -2 1 -2 1 1 0 2 0 0 1 0 1 -1 0 -1 -1 1 2 1 3 -1 0 -1 0 1 2 1 1 0
2 0 2 1 3 2 3 0 1 0 2 2 1 2 2 1 0 1 0 1 -1 1 -2 3 1 2 1 1 -1 1 -1 5 2 6 2
-1 1 0 1 3 0 4 0 2 -3 1 -2 -1 -1 -2 -1 1 -2 0 -1 1 0 1 0 -1 2 0 1 1 0 1 0 0
1 0 2 1 1 1 1 4 1 4 1 3 -3 3 -2 3 -1 4 -1 2 1 2 1 1 3 1 3 -1 0 -2 0 0 1 -1
2 -6 0 -5 1 -1 1 0 1 -2 0 -1 0 0 -1 0 -1 -2 0 -2 1 0 -1 0 -1 -9 0 -9 0 -4 1
-4 0 0 1 0 1 1 0 2 -1 2 1 3 1 -1 0 -1 0 1 1 2 1 -4 0 -4 0 -2 1 -2 1 -2 0 -2
0 -2 3 -3 2 0 1 0 2 0 1 0 2 2 2 2 2 0 3 1 3 4 4 5 5 2 1 2 2 1 2 2 2 1 2 0 2
-2 2 -2 2 1 0 1 0 -2 2 -2 1 0 0 1 0 -1 2 -1 2 2 3 2 4 -1 2 0 1 1 0 1 -1 1 2
1 3 4 1 4 0 0 2 0 1 1 0 1 1 0 7 1 8 1 1 2 1 -3 -1 -2 -1 0 -1 1 -1 -2 0 -1
-1 3 5 3 6 2 1 3 0 -2 1 -2 1 2 2 2 2 1 -1 0 -1 2 1 1 1 0 -1 0 -1 3 2 2 2 6
0 6 0 4 4 5 5 0 1 0 1 -1 0 -1 0 -1 3 -1 3 1 1 1 1 -4 2 -4 2 -3 2 -3 3 1 2 1
2 2 2 2 2 1 -1 1 0 3 4 4 3 3 3 3 4 5 4 4 4 2 1 2 2 3 1 3 0 1 2 1 2 0 3 0 3
-3 0 -2 0 -5 4 -5 5 -2 0 -3 0 -4 -1 -3 -2 0 -1 0 0 1 1 2 0 -2 -1 -1 -1 1 -4
0 -3 -1 -1 -1 -1 1 0 2 0 -2 -1 -1 -1 2 0 2 1 -1 -2 -1 -1 -2 -1 -2 -1 0 2 1
2 -2 -1 -2 -1 0 -2 1 -1 -1 1 -1 0 -5 -5 -6 -6 -3 4 -3 5 0 -1 -1 0 0 1 0 2
-2 1 -1 0 1 2 1 1 -2 4 -2 4 0 12 0 13 1 0 1 0 0 2 -1 1 3 -1 3 0 0 -1 1 0 -1
-1 0 -1 1 1 2 1 1 -1 1 -1 0 1 0 2 3 2 4 2 1 6 2 6 5 3 5 4 1 0 1 0 1 2 1 1 6
-1 5 0 0 1 0 1 2 0 1 0 1 1 0 2 1 3 1 3 3 2 2 3 -1 3 -1 4 -3 0 -4 0 -1 -2 -2
-2 0 -1 0 -2 -5 -2 -5 -1 -3 0 -4 0 -3 2 -3 2 -5 4 -5 5 -1 4 0 3 0 4 1 3 4 4
5 5 0 3 0 3 -3 1 -3 1 0 2 0 2 1 5 2 5 1 0 2 0 1 -1 1 -1 -1 3 0 2 1 -1 2 0 0
-2 -1 -2 1 1 0 1 1 0 1 0 2 -2 1 -1 0 2 -1 2 1 -1 1 0 0 -2 0 -1 1 0 1 0 -1 1
0 1 1 0 1 -1 -1 -2 -1 -1 1 0 1 1 2 -3 2 -2 3 -1 4 0 1 0 1 0 0 -1 -1 -1 2 1
2 0 -2 2 -2 2 1 -1 2 -1 3 0 3 -1 1 0 1 -1 2 0 3 -1 3 2 4 2 2 0 3 0 -3 1 -2
1 3 0 4 1 2 1 2 0 0 -1 0 -1 1 0 2 0 -1 -1 0 -1 1 0 1 0 0 1 0 2 1 -1 1 -1 1
-1 1 0 1 0 2 0 -3 -1 -3 -2 2 0 3 0 0 -1 -1 -1 2 1 3 1 -1 -2 0 -1 1 1 2 0 -2
-1 -1 -2 1 0 0 -1 -1 0 -1 0 1 -2 0 -1 -1 0 -2 1 0 -2 0 -1 2 0 3 0 3 3 3 3 6
0 7 0 4 1 5 1 6 -2 7 -2 1 0 2 0 1 0 1 0 0 1 0 1 2 2 1 2 7 -1 7 0 0 2 0 2 1
1 1 0 0 -1 -1 -1 2 0 3 -1 0 1 -1 1 5 1 4 1 6 1 6 1 6 -1 7 -1 6 3 6 3 5 2 6
1 3 1 4 0 1 2 2 2 0 4 0 4 1 1 0 2 1 3 2 4 1 2 2 2 3 1 4 2 0 3 1 3 0 4 0 5 1
1 1 1 -1 0 -1 0 0 3 -1 2 1 0 1 1 -1 3 0 4 0 3 -1 4 -2 3 -1 4 0 4 1 5 2 3 2
3 3 1 4 2 4 3 4 3 -1 4 0 5 2 3 3 4 -1 2 0 3 -2 0 -1 0 0 3 1 3 -1 1 -1 1 0 0
-1 0 -4 1 -3 1 -4 0 -3 0 -3 -2z m-214 -126 l1 -1 -1 1 -2 0 0 1 0 0 1 0 1 0
0 -1z m75 -4 l3 -2 -4 0 -4 1 -1 1 -1 0 0 -1 1 0 4 -2 5 -2 -5 1 -4 0 -2 2 -1
2 -3 0 -2 1 -1 0 0 1 6 0 6 -1 3 -1z m-12 -2 l0 -1 1 0 1 1 1 -1 2 -1 -2 0 -2
0 -2 2 -2 1 1 0 1 0 1 -1z m-107 -16 l-2 -2 -1 0 -1 0 2 2 2 3 1 0 0 -1 -1 -2z
m8 -90 l-1 -1 1 2 0 2 1 -1 0 -1 -1 -1z m-34 -13 l0 0 -2 1 -2 1 0 1 0 0 2 -1
2 -1 0 -1z m89 1 l1 -1 0 -2 0 -2 -2 0 -1 0 0 1 1 1 -1 0 -1 1 0 2 0 1 1 0 1
0 1 -1z m-29 -24 l-2 -2 -1 0 0 1 1 1 0 2 2 0 3 0 -3 -2z m3 -4 l-1 -1 -3 -1
-3 0 0 1 0 0 2 2 1 1 2 0 2 0 0 -2z m-45 -164 l-1 0 -4 0 -4 -1 0 1 1 2 3 0 4
1 0 -1 1 -1 0 -1z m-59 -16 l-1 -2 -1 0 -1 0 1 2 1 3 1 -1 1 0 -1 -2z m-56
-76 l-1 -3 -2 -1 -1 -1 1 2 0 2 2 2 2 2 1 0 0 0 -2 -3z"/>
<path d="M355 630 l0 -3 1 -2 1 -1 -1 4 0 4 -1 1 0 0 0 -3z"/>
<path d="M357 623 l-1 -1 1 -1 1 -1 0 2 1 2 0 0 0 0 -2 -1z"/>
<path d="M514 624 l0 -1 3 -3 2 -2 -1 2 -1 2 -1 1 -2 1 0 0z"/>
<path d="M521 616 l0 -2 1 0 0 1 -1 1 -1 2 1 -2z"/>
<path d="M639 609 l-1 -2 1 0 1 0 1 1 0 1 0 1 -1 0 -1 -1z"/>
<path d="M633 603 l-1 -1 1 0 1 0 1 1 0 1 0 0 0 0 -2 -1z"/>
<path d="M584 534 l0 -1 2 0 1 0 0 0 0 1 -1 0 -2 1 0 -1z"/>
<path d="M578 533 l0 -2 1 1 1 0 0 1 0 1 -1 0 -1 0 0 -1z"/>
<path d="M565 530 l-1 -1 0 0 1 -1 2 0 3 -1 -2 1 -1 1 -1 1 -1 1 0 -1z"/>
<path d="M567 530 l0 -1 1 0 1 0 0 1 0 1 -1 0 -1 0 0 -1z"/>
<path d="M575 529 l0 -1 2 -2 1 -1 0 1 0 1 -1 1 -1 0 0 1 1 1 -1 0 -2 1 1 -2z"/>
<path d="M565 526 l0 -1 1 0 0 0 0 1 0 1 -1 0 -1 0 1 -1z"/>
<path d="M578 523 l1 0 1 0 0 1 -2 0 -1 0 1 -1z"/>
<path d="M566 522 l-1 0 1 -2 1 -1 2 1 2 0 -2 2 -1 1 -1 0 -1 0 0 -1z"/>
<path d="M428 510 l-1 -1 -1 -2 0 -1 2 0 2 0 1 2 1 1 -1 2 -1 1 -1 0 -1 0 0
-2z"/>
<path d="M520 440 l0 -2 1 1 0 1 0 1 -1 2 0 -3z"/>
<path d="M494 241 l0 -1 1 1 0 1 0 1 -1 0 0 -2z"/>
<path d="M496 242 l0 -2 3 0 4 0 -3 2 -3 1 -1 0 0 0 0 -1z"/>
<path d="M496 224 l-1 -1 1 0 2 0 0 1 0 1 -1 0 -1 0 0 -1z"/>
</g>
</svg>
