<?xml version="1.0" standalone="no"?>
<!DOCTYPE svg PUBLIC "-//W3C//DTD SVG 20010904//EN"
 "http://www.w3.org/TR/2001/REC-SVG-20010904/DTD/svg10.dtd">
<svg style="fill: black; stroke: black;" version="1.0" xmlns="http://www.w3.org/2000/svg"
 width="746.281580pt" height="753.285001pt" viewBox="0 0 746.281580 753.285001"
 preserveAspectRatio="xMidYMid meet">
<metadata>
Created by potrace 1.16, written by Peter Selinger 2001-2019
</metadata>
<g transform="translate(-143.000000,849.000000) scale(1.000000,-1.000000)"
fill="#4a4419" data-original="#000000" stroke="none">
<path d="M645 848 l0 0 -9 -10 -8 -9 2 1 2 1 1 1 1 2 4 2 4 2 3 5 3 4 -1 1 0
1 -1 0 -1 0 0 -1z"/>
<path d="M517 842 l0 -1 -2 -1 -3 -1 0 -1 0 -1 -3 -1 -4 -1 -1 -2 0 -2 -4 -2
-3 -1 -1 -2 0 -1 1 -1 1 -1 -1 0 -2 -1 -5 0 -4 0 -2 -1 -2 -1 -1 -1 0 0 1 -2
2 -1 -3 0 -2 1 0 -1 0 -1 -3 -1 -3 -2 -2 0 -1 0 -9 -4 -8 -5 -10 -9 -9 -9 -4
-8 -4 -8 -2 -7 -1 -8 1 -11 1 -11 1 -5 2 -5 -1 -5 0 -5 3 -1 3 -1 2 0 2 0 1 0
1 0 0 -3 1 -3 1 -12 0 -11 1 -3 1 -2 2 -1 2 -1 2 0 2 0 3 3 3 3 2 0 2 -1 0 -2
0 -2 1 -2 2 -1 1 1 2 0 0 -1 1 -1 -2 -2 -1 -1 0 -3 1 -2 -1 -1 -1 0 0 -1 1 -1
-2 -2 -2 -2 0 -4 0 -4 1 -2 1 -2 -1 -1 -2 -1 1 -2 0 -1 -1 0 -1 0 1 -2 0 -2
-2 -2 -1 -2 1 -1 1 0 1 -3 2 -3 -1 0 -1 -1 -2 -4 -3 -5 0 -3 0 -2 0 -4 1 -3
-1 -3 -1 -4 1 -4 1 -4 -1 -2 -1 -1 -2 1 -1 1 0 -2 0 -2 -1 0 -2 0 -1 -1 -1 -1
0 -4 -1 -4 2 0 1 1 3 -6 3 -5 -1 -3 -1 -3 2 -1 2 0 0 -2 0 -2 1 0 0 0 2 2 2 3
0 -2 0 -1 -2 -5 -1 -4 -1 0 -1 0 1 2 0 2 -3 -4 -3 -3 -3 -2 -2 -1 0 -2 0 -1 2
-1 1 0 1 1 2 2 2 1 3 1 2 -5 2 -5 1 1 1 0 0 3 1 4 2 4 2 4 0 -1 0 -1 2 1 2 2
2 0 2 1 2 1 2 2 0 2 1 3 0 0 1 1 0 3 0 4 -1 3 0 3 -2 0 -1 0 -1 1 0 1 1 0 2 0
0 2 0 2 1 0 0 1 2 -1 1 -1 0 1 1 1 2 -1 2 0 0 1 0 1 2 -1 1 0 0 1 0 1 2 0 1
-1 -1 2 0 2 0 1 0 2 -2 0 -1 0 1 1 0 2 1 -1 1 0 1 2 1 2 2 0 1 -1 2 3 3 3 -1
2 0 2 1 0 1 1 0 2 0 2 -1 0 -1 1 0 0 1 1 4 0 3 0 3 2 2 2 0 2 0 2 2 0 1 0 0 2
0 2 1 0 2 0 2 4 3 3 1 7 0 7 1 2 1 3 0 3 -1 2 -1 0 -1 0 0 1 0 1 2 2 2 2 4 2
5 2 3 -3 4 -3 1 0 2 -1 1 -2 0 -1 -1 -1 -2 -1 1 -3 0 -4 -3 -7 -4 -6 0 -3 0
-2 -1 0 -1 -1 -1 -6 0 -5 -1 -3 -1 -3 -4 -4 -3 -4 -7 -3 -8 -4 -3 -4 -3 -3 -1
-3 0 -2 -3 -3 -2 -3 0 -3 -1 -3 1 0 1 0 0 -6 0 -6 0 -2 1 -2 -4 -2 -4 -2 -3
-1 -2 0 -2 -2 -2 -1 0 -3 0 -2 -4 -4 -3 -3 -3 0 -3 1 -1 -1 0 -1 -2 0 -1 0 -6
-3 -5 -2 0 -1 1 0 -1 -2 -1 -1 -1 1 -1 0 0 -1 1 -1 -2 0 -1 0 -1 -1 0 -1 1 0
2 0 -2 -1 -2 -1 -3 0 -3 1 -7 5 -7 5 -5 3 -4 3 -6 2 -5 1 -3 2 -3 1 -3 3 -2 2
-7 4 -6 4 -6 3 -5 3 0 1 0 1 -1 2 -1 1 -4 2 -4 2 -1 1 -1 2 0 1 1 1 -4 3 -3 3
0 1 0 0 1 -1 1 0 0 1 -1 1 -1 0 -1 -1 -3 4 -3 3 -1 0 -1 0 -1 1 0 1 1 -1 2 0
-2 1 -1 2 -4 4 -3 4 -4 5 -4 5 -1 4 -2 4 0 1 -1 2 -2 0 -2 0 0 -1 -1 -1 -1 1
-1 1 -2 -1 -3 -1 -5 -4 -6 -4 -1 0 -1 0 -1 2 -1 2 1 1 1 1 2 3 2 4 5 2 6 3 0
1 0 1 -2 0 -2 1 -3 -2 -3 -2 -3 -1 -3 -2 -3 -2 -3 -3 3 -4 3 -5 0 -1 0 -2 -1
0 -1 -1 1 -1 1 0 0 -1 -1 -1 -2 1 -2 0 0 2 0 1 -2 -1 -2 0 -7 -4 -6 -3 -6 -4
-5 -3 -1 1 -1 0 -9 -2 -8 -2 -3 -2 -2 -2 -6 0 -6 0 1 -2 0 -1 -1 0 -1 1 -1 1
0 2 0 1 -1 1 0 -2 1 -1 -1 0 -1 0 -3 3 -3 3 -3 0 -3 1 0 -1 -1 -1 -1 3 -2 3
-1 1 -1 0 -2 -1 -1 -1 -1 1 -2 1 0 -1 0 -1 2 -2 1 -2 3 -3 2 -3 1 1 1 0 1 -2
1 -2 0 -2 0 -2 2 -1 2 -1 3 -6 3 -6 -1 -1 -2 -2 3 -6 3 -6 2 -2 3 -3 1 -2 0
-3 4 -2 4 -1 6 -4 7 -4 1 0 1 0 5 -3 5 -3 -1 -2 0 -1 1 -2 2 -2 2 0 3 -1 3 -7
3 -6 4 -3 4 -2 2 -3 3 -3 0 -3 1 -2 2 0 2 0 1 -2 1 -2 1 -1 2 -1 3 0 3 0 3 -3
2 -2 2 0 1 0 0 1 1 2 -1 -3 0 -3 4 0 4 -1 1 -1 2 -1 0 -1 0 -2 -5 -3 -6 -4 -5
-6 -5 -6 -1 1 0 1 0 1 0 2 -1 0 -1 0 -2 1 -1 2 -4 0 -4 0 -1 -4 0 -3 1 -1 1
-1 0 -3 1 -3 2 -1 1 -2 3 0 3 0 0 -2 0 -2 -3 -3 -2 -3 -1 -5 -1 -4 1 -1 1 -2
-1 0 0 -1 -1 -3 0 -3 -1 -4 0 -4 -1 1 -1 0 -1 -3 0 -3 -1 0 -1 0 0 -4 0 -4 1
1 1 1 1 0 0 -1 1 -5 0 -4 0 -3 -1 -2 -5 -4 -5 -3 0 -4 0 -3 -2 0 -1 1 -2 0 -1
0 0 2 0 1 -2 -1 -2 -1 -4 -4 -4 -3 0 -1 1 -1 -4 -2 -4 -2 -2 -1 -2 -1 -5 1 -6
0 -2 -2 -2 -2 -4 0 -3 0 -1 0 -1 -1 -2 0 -1 0 -4 -4 -4 -4 -5 -1 -4 0 -3 -1
-2 0 0 -1 0 -2 -1 -1 -2 -1 -4 0 -4 -1 -3 2 -3 1 -4 -2 -4 -2 -2 0 -2 0 -1 -2
-2 -2 -2 1 -3 0 -2 -2 -2 -3 -2 0 -2 0 0 -1 0 -1 -2 0 -1 0 0 -1 1 -2 -1 0 -1
0 -1 0 -1 -1 -2 0 -1 0 0 -1 0 -2 1 -1 2 -1 -1 -1 0 -1 2 -1 2 0 1 -3 1 -2 1
0 2 0 -2 1 -1 1 0 0 1 0 3 -2 3 -1 0 -1 0 -1 1 0 1 1 0 -1 0 -1 3 -1 3 -2 0
-2 -1 -1 1 -1 1 -1 1 -5 2 -5 2 0 1 -1 0 -2 0 -2 3 -2 4 -2 5 -2 6 -2 0 -2 0
-2 -1 -1 -1 0 1 -1 0 -1 -1 0 0 1 -3 -1 -2 -2 0 1 -1 1 -2 -1 -2 -2 -3 0 -3 0
0 -1 0 -2 -2 0 -2 -1 0 1 0 1 -3 0 -3 0 0 -1 -1 -1 -4 0 -4 0 -2 1 -2 1 -3 -1
-4 -1 -1 0 -2 0 -4 -2 -3 -1 -2 -4 -2 -3 1 0 1 0 -1 -3 -1 -2 0 -3 0 -3 3 -4
2 -3 4 -4 4 -3 8 -8 8 -7 1 -1 1 0 3 -1 3 -1 6 0 6 0 3 1 3 1 1 1 2 1 4 1 5 0
2 -1 2 -2 2 -3 2 -3 3 -2 3 -1 2 -4 2 -4 2 0 2 0 1 1 1 1 4 1 5 1 5 1 5 0 1
-1 2 -1 2 0 2 0 0 1 0 1 -1 1 -2 0 0 1 0 1 3 -1 3 -1 1 1 2 1 8 0 8 0 4 -5 5
-4 1 0 2 -1 2 -1 3 -1 8 -3 9 -2 10 1 11 1 2 1 3 0 6 0 7 0 2 0 2 -1 0 1 -1 1
4 2 4 1 4 4 4 4 3 2 4 3 5 1 5 0 3 1 4 1 4 1 5 0 4 0 5 1 5 -3 5 -2 9 1 10 2
0 1 0 1 2 0 1 0 -1 -1 0 -1 2 1 2 1 0 -1 1 0 0 -1 0 -1 -7 -1 -7 -1 -10 -3
-10 -3 -2 0 -3 0 0 -1 -1 -1 -6 -1 -5 -2 0 -1 1 0 7 2 7 2 12 4 13 3 14 1 15
0 2 -1 3 -1 0 -1 0 -1 5 -1 5 -2 1 1 2 0 0 -1 1 -1 2 0 1 0 0 1 -1 1 0 0 1 0
4 -2 4 -1 3 -1 3 -1 2 2 2 2 1 0 2 1 4 4 3 5 -1 2 -1 3 -1 0 -1 1 1 1 1 0 0 1
-1 1 4 1 4 1 5 -2 6 -1 0 -4 0 -3 1 -1 1 0 0 -1 0 -2 2 0 1 -1 6 1 5 1 0 2 0
2 0 1 0 1 4 0 3 1 4 -1 5 0 4 1 4 1 3 2 3 3 8 -2 9 -1 2 -1 3 -2 8 -2 9 -2 4
0 4 0 2 1 3 1 7 2 8 3 2 0 3 0 3 -1 2 -2 -3 -3 -2 -2 -4 -3 -3 -2 0 -2 0 -2
-1 -1 -1 0 1 -1 0 -1 2 0 2 0 3 -1 3 0 0 1 0 1 3 0 3 1 4 4 3 4 2 1 2 0 1 -1
1 -1 1 1 2 2 4 1 5 0 0 -1 0 -1 1 1 2 1 5 1 5 0 1 0 1 0 4 -1 5 0 1 2 2 2 6 1
7 0 3 1 3 0 8 1 8 1 6 -1 6 -1 3 -2 4 -2 4 0 5 1 0 1 0 2 2 0 1 0 0 1 0 1 2 0
2 1 2 0 2 1 4 1 4 1 2 3 2 2 0 1 1 1 5 1 6 0 6 0 6 0 2 -1 2 -2 3 0 4 0 4 -2
5 -2 4 0 3 0 2 2 1 3 5 2 5 2 4 0 5 0 1 -1 0 -1 2 0 1 0 0 4 -1 4 -1 1 -1 1
-6 1 -5 0 -3 1 -2 0 -7 2 -6 1 -2 1 -2 1 -8 3 -8 2 -6 0 -5 0 -6 3 -5 2 0 1 0
1 -1 0 -2 0 0 1 0 1 2 1 2 0 1 2 1 1 -1 1 0 1 2 -1 1 0 0 1 -1 1 2 1 1 1 0 3
-1 2 2 3 3 2 -1 0 -1 0 0 2 0 1 2 2 2 2 2 1 2 0 -1 -2 -1 -2 1 0 1 0 0 1 0 2
2 1 1 2 -1 0 -1 0 -2 2 -2 2 -2 0 -2 0 -1 3 0 3 0 0 0 1 -1 2 -1 1 1 3 2 3 0
2 0 1 2 2 2 2 3 -1 4 -1 4 3 3 2 2 0 1 0 1 2 0 2 1 0 2 0 1 2 2 3 3 0 4 0 1 2
2 2 0 4 0 4 -2 4 -1 4 -2 2 -2 2 -1 2 -2 3 0 3 1 4 3 4 4 4 0 0 0 1 -2 -2 -3
-3 -1 0 0 0 -2 -3 -2 -3 -1 0 0 0 -2 3 -1 3 0 1 -1 2 -1 2 -2 2 1 1 1 2 -1 0
-1 1 1 3 1 3 2 0 1 0 0 1 0 0 -1 2 -1 2 -3 -2 -4 -2 -2 0 -2 0 -1 1 -2 0 0 2
0 2 -1 0 -1 1 1 -1 0 -2 -1 0 -1 0 -3 2 -2 2 0 1 0 1 1 1 2 1 0 -1 1 -1 1 1 2
0 0 0 1 1 1 0 0 1 -1 0 -1 0 -1 3 -1 3 -3 -3 -4 -3 -1 -3 0 -2 -1 0 -1 0 0 1
0 1 -6 1 -5 2 -3 2 -2 1 0 3 0 2 -2 1 -3 0 0 2 0 1 3 1 3 2 0 0 1 0 0 0 1 0 3
1 4 0 1 0 0 1 -1 2 -1 1 -2 0 -1 -1 -2 1 -3 1 -4 -1 -4 -1 0 1 0 0 2 2 2 1 4
0 4 0 0 -1 0 0 0 -1 0 -1 2 1 1 2 2 -1 1 -1 3 -1 4 0 4 0 5 -1 7 -1 8 0 2 -1
3 0 1 1 0 1 3 0 2 0 2 3 3 2 0 -1 0 0 1 1 2 1 4 1 4 0 0 1 1 2 0 -2 0 -1 3 1
3 0 3 1 3 1 4 4 3 3 0 2 0 3 5 4 4 4 -2 0 -2 0 -4 -4 -3 -3 -2 -1 -2 0 -2 -1
-1 -1 -9 -1 -8 -1 -4 -1 -3 0 0 -1 0 -1 1 1 1 0 0 -1 -1 -1 -3 0 -3 -1 -1 -2
0 -2 -1 1 -1 1 -1 -1 -1 -2 -4 0 -4 -1 1 1 0 1 -2 -1 -2 -1 -1 1 -1 2 -2 0 -2
1 -1 0 -1 1 -4 0 -3 1 -5 1 -4 0 -10 0 -10 1 -4 1 -3 1 -2 1 -1 1 -3 0 -3 0 0
2 0 1 -1 0 -1 -1 0 -1 0 -2 -1 0 -1 1 0 1 0 2 -1 1 -1 0 0 -1 1 -1 -2 -1 -2 0
-1 1 -1 1 -1 0 -1 0 0 -1 0 -2 -2 0 -1 0 -4 2 -3 1 0 2 0 1 1 0 1 -1 0 2 0 2
2 3 1 3 1 0 1 -1 2 2 2 2 1 -1 2 0 -2 1 -1 2 1 1 2 1 0 -1 1 0 3 1 3 2 1 2 2
3 0 8 1 8 1 1 1 1 1 3 0 3 1 2 1 3 -1 3 0 4 -2 3 -2 4 -2 4 -3 5 -1 3 -1 4 0
6 -1 7 -1 3 -2 4 1 3 0 4 1 3 0 4 1 0 2 0 -3 1 -2 2 -2 3 -1 4 -2 2 -1 1 0 5
0 6 -4 8 -5 8 0 1 0 1 -1 0 -1 0 -1 3 -1 3 -1 1 -1 2 -1 4 -1 5 -2 6 -2 7 -3
6 -3 6 -2 1 -1 1 0 0 1 0 -1 2 -1 2 -2 2 -1 2 -8 8 -8 8 0 4 -1 4 0 7 0 7 0 1
-1 0 -1 -1 -2 -1 -5 5 -6 5 -2 4 -2 4 -3 3 -3 3 -2 1 -2 2 -1 0 0 0 0 -2 0 -1
-2 0 -1 1 -7 2 -7 3 -1 -1 -1 0 -2 2 -3 2 -1 0 -1 0 -2 1 -1 2 0 0 0 1 1 0 2
0 0 2 0 2 -1 0 -1 0 0 1 0 2 -3 2 -2 3 -4 2 -4 2 -2 -1 -3 -1 -1 -1 -1 -2 0
-1 1 -1 -3 0 -4 0 0 3 -1 3 1 2 0 1 -1 1 -1 1 -4 0 -4 0 0 1 -1 1 -2 0 -2 0
-2 -2 -3 -2 -2 0 -3 0 -2 -1 -2 -1 -2 2 -2 1 -2 1 -2 0 1 2 0 2 -4 1 -4 1 -5
4 -4 3 2 2 1 1 0 1 0 1 0 1 1 2 1 4 2 4 -1 0 -1 0 -1 3 0 2 -1 0 -1 0 -1 3 -1
4 -1 1 0 1 1 2 1 2 -1 1 0 2 -2 0 -2 0 2 -3 1 -2 0 -1 -1 0 -3 3 -3 3 0 0 0 1
-3 4 -2 5 -1 0 0 1 -2 2 -2 2 2 0 3 -1 -1 2 -1 1 -1 0 -1 0 -1 1 0 1 2 1 2 1
2 -1 3 0 4 -4 3 -3 3 -2 4 -1 -2 1 -2 2 -2 1 -1 1 3 -1 3 0 2 0 1 -1 1 -1 1
-1 1 1 2 0 2 -3 2 -3 5 -2 5 -3 3 0 4 0 3 2 3 3 1 -1 1 -2 2 0 3 1 1 -2 2 -1
3 1 3 2 2 3 2 2 -1 1 -1 0 -2 -1 -1 -2 -2 0 -2 0 -2 1 -2 1 -1 -1 -1 -1 -1 1
-1 1 1 0 2 -1 -2 1 -1 1 2 2 2 2 2 0 1 0 3 2 4 2 0 0 0 1 -1 3 -1 3 -1 0 -1 0
0 2 1 2 -1 0 0 0 -7 -4 -7 -3 -1 -2 -1 -1 -2 0 -3 0 0 -1 -1 -1 -1 0 -1 1 0 1
0 1 1 0 2 0 1 1 0 1 -2 0 -2 -1 1 1 0 1 -1 0 -1 1 -4 0 -5 1 -3 2 -2 2 1 0 1
1 0 -1 1 -1 3 1 3 1 1 -1 1 -1 1 1 2 1 0 2 0 1 -4 3 -5 4 -1 0 -2 0 0 -1 -1
-1 1 -1 0 -2 2 0 1 0 0 -1 0 -1 -5 0 -5 1 -3 2 -3 2 -3 6 -3 7 -3 1 -3 2 -2 0
-2 0 -1 -1 0 -2 -2 0 -2 0 -2 0 -1 1 -2 1 -2 0 -6 3 -6 3 -2 1 -2 2 -2 0 -2 0
0 -1z m40 -35 l1 -1 -1 -1 0 -1 -1 0 -1 0 0 3 0 2 1 0 1 0 0 -2z m-95 -169
l-1 -1 0 1 0 1 1 0 0 1 1 -1 0 0 -1 -1z m3 -16 l0 -1 -2 0 -2 0 1 1 0 1 2 0 1
0 0 -1z m-1 -4 l1 0 0 -1 0 -1 -2 0 -2 0 0 -1 0 -1 -1 0 -1 1 -1 -3 -1 -3 0 1
0 1 -1 1 0 2 2 3 2 3 1 -1 1 -2 2 1z m-140 -5 l3 -2 -1 -1 -1 0 -2 2 -3 2 0 0
0 1 1 0 1 0 2 -2z m-18 -16 l0 -1 1 -2 0 -1 -1 0 -1 1 -2 -2 -1 -1 -4 0 -4 0
0 1 0 1 2 1 1 1 2 0 2 0 0 1 1 1 2 0 2 0 0 0z m-68 -28 l1 0 1 -2 1 -1 -1 -1
-1 -1 -2 3 -3 2 0 1 0 1 2 -1 2 -2 0 1z m7 -4 l0 -1 -1 0 -2 0 0 1 0 1 1 0 1
0 1 -1z m233 -3 l0 -2 0 0 -1 0 0 2 -1 1 1 0 1 0 0 -1z m3 -3 l-1 0 0 2 -1 2
1 -2 1 -1 0 -1z m-244 -5 l2 -3 0 -1 -1 0 -2 3 -3 4 1 0 1 0 2 -3z m228 -1
l-1 0 -1 0 0 1 1 2 0 2 1 -2 0 -2 0 -1z m-28 -34 l0 -1 0 0 -1 0 0 1 -1 1 1 0
1 0 0 -1z m3 -4 l0 -1 -1 1 -1 0 1 1 0 1 1 0 0 0 0 -2z m10 -8 l0 -1 -2 1 -3
2 0 0 0 1 2 -1 2 -1 1 -1z m5 -3 l1 -2 -1 0 -1 0 -2 1 -1 2 1 0 1 0 2 -1z
m-116 -35 l2 0 -3 -1 -2 -1 -2 0 -1 1 0 1 0 1 2 0 3 -1 1 0z m119 -271 l1 -1
-6 0 -5 0 0 1 0 0 2 1 2 1 3 0 3 0 0 -2z"/>
<path d="M658 715 l0 -2 1 0 1 0 0 2 0 2 -1 0 -1 0 0 -2z"/>
<path d="M217 581 l0 -1 1 0 1 -1 -1 1 0 2 -1 0 0 0 0 -1z"/>
<path d="M801 391 l0 -1 1 1 1 0 0 1 0 0 -1 0 -1 0 0 -1z"/>
<path d="M796 389 l-3 -3 1 0 1 0 3 3 3 2 -1 0 -1 0 -3 -2z"/>
<path d="M840 354 l-1 -2 0 0 1 0 1 1 2 0 0 1 0 1 -1 0 -1 0 -1 -1z"/>
<path d="M170 279 l-2 -2 2 0 2 -1 1 1 2 0 -1 2 0 2 -1 0 -2 0 -1 -2z"/>
<path d="M559 189 l-1 -1 2 0 2 0 0 1 0 1 -1 0 -2 0 0 -1z"/>
<path d="M513 180 l-1 -1 2 0 2 0 0 1 -1 1 -1 0 -1 0 0 -1z"/>
<path d="M377 173 l1 0 1 0 2 1 -3 0 -2 0 1 -1z"/>
<path d="M391 169 l-1 -1 1 0 1 0 0 1 0 1 0 0 -1 0 0 -1z"/>
<path d="M747 147 l-3 -2 1 0 0 0 2 2 2 1 1 0 0 -1 -2 -3 -1 -3 -2 -2 -1 -2 1
0 1 1 3 5 3 4 0 2 0 1 -1 0 -1 0 -3 -3z"/>
<path d="M741 133 l-2 -2 2 2 3 2 0 1 0 0 0 0 -1 0 -2 -3z"/>
<path d="M736 128 l-1 -1 -5 -7 -5 -7 -2 -1 -2 -2 0 -2 1 -1 5 7 5 7 1 0 1 0
2 2 2 2 3 2 4 2 1 -1 2 0 -2 1 -1 1 -2 0 -2 -1 -3 -3 -3 -2 0 1 0 0 2 3 2 2 0
0 -1 0 -2 -2z"/>
<path d="M792 127 l-1 -2 2 0 3 1 0 1 0 1 -1 0 -1 0 -2 -1z"/>
<path d="M746 126 l0 -1 -4 -7 -4 -6 1 -1 0 0 7 5 6 6 3 1 4 2 1 -2 1 -1 0 2
-1 2 -2 -1 -2 0 -7 -4 -6 -5 0 1 0 0 3 5 2 5 -1 0 -1 0 0 -1z"/>
<path d="M819 123 l-3 -4 -2 0 -2 0 0 1 0 1 -2 0 -2 0 0 -1 -1 -1 -2 0 -1 0 0
3 0 3 -3 -2 -4 -2 -1 0 -1 0 0 1 0 2 -1 -1 -2 0 0 -2 0 -1 2 0 3 0 1 0 2 0 1
2 2 1 0 -3 0 -3 1 0 0 -1 2 2 2 1 2 -1 2 -1 3 1 3 1 3 3 2 2 2 -1 2 -2 6 -1 6
0 3 0 4 -1 0 1 0 1 -8 0 -9 1 -2 2 -3 2 0 0 -1 0 -4 -3z"/>
<path d="M758 118 l-1 -2 1 1 2 2 0 1 0 1 0 0 -1 0 -1 -3z"/>
<path d="M772 119 l-2 -1 -3 -3 -2 -2 0 -2 0 -1 2 0 1 -1 2 0 3 0 5 2 5 1 0 0
0 1 -7 -2 -6 -1 -1 0 -2 1 0 1 0 1 4 1 4 1 2 2 2 2 0 1 -1 1 -2 0 -2 0 -2 -2z
m5 0 l-1 -1 -3 -2 -3 -2 -1 1 0 0 3 3 3 2 1 0 1 0 0 -1z"/>
<path d="M786 115 l-2 -2 2 1 2 1 1 1 0 1 0 0 0 0 -3 -2z"/>
<path d="M755 113 l-1 -2 0 0 1 0 1 2 1 2 0 0 -1 0 -1 -2z"/>
<path d="M751 107 l-2 -3 0 -2 0 -1 1 0 2 0 1 1 0 1 -2 0 -1 0 2 4 2 3 -1 0 0
0 -2 -3z"/>
<path d="M697 99 l-2 -2 0 -1 1 0 1 1 2 1 0 2 1 2 -1 0 0 0 -2 -3z"/>
</g>
</svg>
