<?xml version="1.0" standalone="no"?>
<!DOCTYPE svg PUBLIC "-//W3C//DTD SVG 20010904//EN"
 "http://www.w3.org/TR/2001/REC-SVG-20010904/DTD/svg10.dtd">
<svg style="fill: black; stroke: black;" version="1.0" xmlns="http://www.w3.org/2000/svg"
 width="889.247135pt" height="894.000000pt" viewBox="0 0 889.247135 894.000000"
 preserveAspectRatio="xMidYMid meet">
<metadata>
Created by potrace 1.16, written by Peter Selinger 2001-2019
</metadata>
<g transform="translate(-69.000000,958.000000) scale(1.000000,-1.000000)"
fill="#FF4500" data-original="#000000" stroke="none">
<path d="M471 957 l-2 -1 1 0 1 -1 2 0 1 1 0 1 0 1 -1 0 0 0 -2 -1z"/>
<path d="M553 952 l-1 -1 -3 1 -3 0 0 -1 0 -1 2 0 2 0 0 -1 0 -1 -1 -1 -1 -1
1 0 2 0 3 -3 2 -2 1 -2 1 -2 -3 0 -3 1 -5 0 -4 0 0 1 -1 1 -6 -1 -6 0 -2 2 -2
2 -1 2 -1 2 -4 0 -4 0 0 -2 -1 -2 -4 -1 -3 0 -2 -2 -1 -2 -5 0 -4 1 -1 0 0 1
-3 -1 -2 -1 -9 1 -8 0 -1 1 -1 0 -5 1 -5 0 0 -2 -1 -1 -3 0 -3 0 -5 0 -4 -1
-3 -1 -2 0 -5 -1 -5 0 -2 0 -1 0 -5 1 -5 0 -2 -2 -2 -1 -2 -4 -1 -3 -1 0 -1 0
0 -1 0 -1 1 1 1 0 0 -1 0 -2 4 -4 3 -3 -2 -1 -2 -1 -1 -1 -1 -2 -3 0 -3 -1 -1
-2 -1 -1 0 -3 1 -3 -2 0 -1 0 0 -1 0 -1 4 1 3 1 1 0 2 -1 -7 -2 -6 -2 -5 0 -5
-1 0 1 0 1 -1 -1 -1 0 0 -1 1 -1 -4 -1 -4 -1 -1 0 0 1 1 1 2 1 -4 1 -3 0 1 1
0 1 -1 1 -1 0 -1 0 -1 1 -1 0 0 1 1 0 1 0 0 0 -1 1 -7 -3 -7 -2 -2 -1 -2 -2
-4 -1 -4 -1 -2 -2 -1 -1 -6 -2 -6 -1 -4 -1 -3 -1 -1 -1 0 0 -2 -2 -2 -1 -1 -1
0 -1 2 0 3 1 5 2 5 3 2 0 2 0 -1 -1 0 -2 2 0 2 1 1 1 0 1 -2 0 -1 1 3 1 3 1 0
1 0 1 1 0 1 0 3 0 3 1 2 2 3 1 3 0 4 1 0 -1 -1 -1 1 0 1 0 -1 -1 -1 -1 -1 1
-1 1 -1 -2 -2 -2 2 0 3 0 -4 -2 -4 -3 2 0 3 0 0 -1 -1 -1 1 0 2 0 0 -1 0 -1
-2 0 -1 -1 -1 0 0 0 0 2 0 2 -1 -2 -1 -2 -4 -1 -4 0 -7 -3 -6 -3 0 -1 0 -1 -4
-1 -4 -1 1 -1 0 -1 -4 -3 -4 -3 -1 0 -1 0 2 2 3 2 -5 -1 -4 -1 -3 -2 -2 -2 0
0 -1 0 1 1 0 1 -3 0 -2 0 -3 -2 -2 -2 1 0 2 0 0 1 1 1 2 -1 1 0 0 -1 -1 -1 -6
-2 -5 -3 -5 -4 -5 -4 -3 -2 -3 -1 -1 -2 -1 -1 -13 -8 -12 -8 -2 -1 -1 -1 -2
-2 -2 -2 -2 0 -3 1 -3 -5 -4 -5 1 -1 1 -1 -5 -3 -4 -4 -3 -2 -2 -3 1 0 2 0 1
2 1 1 2 0 1 0 0 -1 1 -1 2 1 1 2 -1 0 -2 0 1 1 0 2 3 1 3 2 1 0 0 0 -2 -2 -1
-2 0 -1 1 0 -2 -3 -2 -2 1 -2 2 -1 0 -1 0 0 -1 -2 -1 -2 1 -2 2 -1 0 -1 -1 -1
1 0 1 0 0 2 1 1 2 0 2 0 0 2 1 2 2 0 2 0 2 3 3 2 0 -1 0 -1 -3 -3 -2 -2 3 2 4
3 1 0 1 0 0 -2 -1 -2 3 -1 2 0 3 2 3 2 2 1 2 1 0 2 0 2 1 1 2 1 -2 0 -1 -1 0
1 -1 1 3 2 4 2 0 1 0 1 0 0 -1 0 -3 -2 -3 -3 -1 0 -1 0 0 2 0 2 1 0 1 0 3 2 4
3 1 0 2 0 0 -2 -1 -3 2 1 1 0 0 -1 -1 -2 1 0 2 0 1 0 1 0 0 -1 -1 -1 4 -3 3
-3 3 1 3 1 0 -3 1 -3 3 0 3 0 2 3 2 3 2 0 1 0 0 1 0 1 -1 0 -1 1 0 1 1 2 2 0
2 0 -1 -2 0 -2 1 -1 2 -1 3 1 4 0 4 2 4 1 1 2 2 1 0 3 0 2 2 2 2 2 0 1 -1 2 1
0 1 0 0 -1 0 -1 2 0 2 0 4 2 5 2 2 0 2 -1 0 2 1 3 3 0 3 0 -1 1 0 1 2 0 2 -1
1 1 1 1 2 -1 1 -1 4 1 3 2 -1 1 0 1 3 1 2 0 2 -1 1 -2 3 1 3 0 0 -1 -1 -1 1
-1 2 -1 1 1 0 1 -1 1 -1 0 0 2 0 2 3 0 3 0 2 -1 1 -1 2 1 2 0 0 1 0 1 6 0 7 0
9 0 10 1 15 1 16 0 3 2 3 1 0 0 0 1 -2 -1 -2 0 0 1 0 1 5 0 6 -1 3 0 4 0 -1
-3 0 -3 1 0 2 -1 1 1 0 1 0 1 -1 1 3 1 4 2 9 -1 9 -1 0 1 1 0 3 -1 3 -1 2 -1
2 0 3 -1 2 -2 4 0 3 -1 2 -1 2 0 3 -2 3 -2 7 0 7 0 1 -4 2 -4 0 -1 0 -1 2 -3
1 -3 3 -1 2 -1 2 0 2 0 2 2 2 3 0 3 1 3 1 0 2 0 4 -2 4 -2 2 0 3 0 3 -1 3 -1
0 -1 -1 -1 3 -2 2 -3 4 -1 5 -1 3 -2 3 -1 0 -2 1 -1 3 0 4 0 1 -1 2 -2 1 0 0
0 3 -2 3 -2 0 -2 -1 -1 1 0 1 0 2 -2 1 -1 2 1 2 1 1 -1 2 -1 1 -1 2 -2 -2 -2
-2 -2 3 -2 3 -3 3 0 2 0 3 -1 2 -1 5 -5 4 -4 1 1 0 1 2 -1 2 -1 -2 1 -1 2 -1
0 -1 -1 0 2 0 2 3 -2 4 -2 0 -3 0 -2 2 -3 2 -2 2 0 1 0 0 2 0 2 1 -2 2 -2 3
-1 4 -2 7 -8 8 -7 3 -4 3 -3 2 -4 2 -4 -2 -2 -1 -1 -1 0 -1 0 -1 2 0 1 -1 0
-1 0 -12 11 -11 12 -1 0 -2 1 0 -3 1 -3 1 -2 1 -1 1 -4 0 -4 0 -2 0 -1 1 1 0
0 4 -4 4 -4 3 -4 2 -3 4 -4 4 -4 2 1 2 2 2 0 1 0 1 -2 0 -1 5 -6 6 -5 1 -3 2
-2 1 0 2 1 0 5 -1 4 -2 3 -2 4 -2 0 -1 1 0 2 0 1 1 0 2 0 2 -4 1 -4 1 0 1 0 2
-4 2 -4 1 0 1 0 0 -1 -1 0 2 -2 2 -2 -1 -1 0 -1 1 0 1 1 0 -2 1 -2 0 -1 0 -1
6 -13 6 -12 -1 -1 -1 -1 2 0 2 0 0 1 0 1 -1 1 -1 1 -1 4 -2 4 1 0 0 0 3 -2 2
-1 3 -6 2 -5 0 -2 -1 -1 1 0 1 1 1 -3 0 -2 1 0 1 0 0 -4 0 -3 2 -2 2 -2 -1 -1
-1 -1 0 -1 1 -2 1 0 1 1 2 -4 1 -3 3 -10 2 -9 0 -2 0 -1 -1 2 -1 2 0 -2 0 -2
0 -1 -1 -1 -2 0 -1 0 -1 1 -1 1 -2 8 -3 9 -1 0 0 -1 -2 1 -3 1 1 -2 0 -2 1 1
0 1 2 -1 1 -2 0 -1 0 -1 -1 -1 -1 0 0 1 1 2 -1 -2 -1 -1 1 -4 2 -4 -1 -2 0 -1
1 -2 1 -3 0 -6 -1 -7 1 1 1 1 0 -1 1 -1 -1 -4 -1 -4 1 -7 1 -7 0 -8 0 -7 1 -2
2 -2 2 0 2 0 1 -2 0 -1 1 -3 1 -2 3 0 3 0 0 -3 -1 -2 0 -7 -1 -6 -3 -4 -3 -3
0 -3 0 -2 0 -3 0 -2 2 -3 2 -2 0 -2 0 -2 -3 0 -2 0 -1 -4 -1 -4 1 -2 0 -3 2 1
1 0 0 0 0 -1 -2 -6 -2 -6 -1 -1 -1 -1 0 -3 0 -2 -2 -1 -2 0 -1 -3 -1 -2 0 -1
0 -1 1 0 1 1 0 -1 0 0 -2 -4 -1 -3 -2 -3 -1 -3 -2 -4 -1 -4 -2 -3 -1 -2 -2 2
-1 1 -1 -1 -2 -1 0 -2 0 -2 -1 -5 -2 -4 -1 -1 -1 0 -1 0 -1 0 0 -3 1 -2 -2 -3
-3 -2 -1 -3 -1 -3 2 1 1 0 0 -1 0 0 -5 -7 -5 -7 -3 -1 -2 -2 0 -3 -1 -2 -3 -4
-3 -3 -2 1 -2 0 0 -1 1 -1 0 -1 1 -1 -4 -4 -4 -3 -1 0 -1 0 0 -1 0 -2 -9 -8
-8 -9 -4 -2 -3 -2 -1 1 0 1 -1 0 -1 0 0 -2 -1 -3 -6 -4 -5 -3 -3 -2 -3 -2 0 1
1 1 0 0 -1 0 -2 -1 -3 -1 -4 0 -4 -1 -2 -1 -2 -2 -7 -2 -6 -2 -6 -3 -5 -3 -1
-1 -1 -1 -9 -3 -9 -3 -7 -1 -7 -2 -7 -1 -7 -1 -10 -2 -10 -3 -13 0 -13 0 -2 1
-1 2 0 1 -1 2 -1 -1 -1 0 0 -2 -1 -2 -8 -1 -7 0 -7 3 -7 2 -7 2 -6 2 -6 2 -6
2 -3 1 -2 1 -9 3 -9 2 -5 4 -5 4 -2 2 -1 2 -9 6 -8 5 -6 6 -5 5 -10 9 -10 9
-5 6 -5 6 -3 5 -2 5 -3 5 -4 5 -2 4 -2 4 -4 7 -5 7 -3 6 -3 7 0 -1 -1 0 1 1 0
2 -1 0 -2 0 -2 2 -3 3 1 1 0 1 -1 0 -1 0 -2 0 -1 1 -2 3 -1 3 1 0 2 0 0 1 0 2
-2 3 -2 4 1 3 1 3 -1 1 -1 1 0 2 -1 2 2 1 1 1 -1 5 0 5 -1 1 0 2 -3 0 -2 0 -1
2 0 3 0 11 1 12 1 1 1 1 0 2 0 3 1 1 0 0 0 -3 0 -3 2 0 2 0 0 4 1 4 1 -1 1 -1
1 3 1 4 0 4 -1 4 1 1 1 1 3 8 3 9 1 3 0 3 -1 1 -1 1 -3 -2 -3 -2 0 1 -1 0 -1
-1 -1 -1 0 0 -1 1 1 5 1 4 4 6 3 6 0 2 0 1 -2 1 -2 0 -2 -1 -1 -1 -2 2 -2 2
-1 0 -2 0 -1 -3 -1 -3 -1 0 0 1 -2 -2 -2 -2 0 0 -1 0 -2 0 -2 0 -1 -3 -1 -4 1
-2 0 -2 1 1 1 0 0 -1 0 -1 -3 -5 -3 -6 -1 0 -1 0 0 -1 0 0 -1 -3 -1 -3 -1 -3
0 -3 -2 1 -2 1 -2 0 -1 -1 0 3 0 4 -2 1 -2 1 -1 -3 -2 -2 0 -4 -1 -3 -2 -4 -3
-3 0 -4 0 -3 -1 -2 -1 -2 -3 2 -2 2 0 2 0 1 2 0 1 0 2 1 1 2 1 4 0 3 -2 0 -1
-1 -2 1 -1 1 1 1 1 1 -1 3 0 2 -2 0 -1 -1 1 3 0 4 -1 -2 0 -2 -2 1 -1 0 -2 -2
-1 -2 0 -2 0 -2 -1 0 -1 0 0 4 0 4 -1 3 0 4 3 2 2 3 2 6 3 7 3 7 4 7 3 4 2 4
0 1 -1 0 -4 -6 -4 -6 -5 -8 -4 -7 -1 -2 -2 -2 -1 1 -2 0 0 -2 0 -1 1 -3 2 -3
-1 0 -2 -1 0 -3 -1 -3 -1 -2 -1 -1 -1 1 -2 0 0 -1 0 -1 0 -5 -1 -4 -3 -12 -3
-12 -2 -6 -3 -6 -2 -7 -2 -6 -1 0 -1 0 -2 3 -1 2 1 1 1 0 -1 3 -1 2 1 5 1 6 0
2 0 3 1 8 1 8 1 2 0 2 3 4 4 4 -1 1 -1 0 2 2 2 2 0 2 0 1 3 8 4 9 0 2 1 3 2 3
2 3 2 0 2 0 2 -1 2 -2 1 0 1 0 1 2 0 2 -3 3 -2 2 -2 0 -1 0 1 1 0 1 2 -1 2 0
0 1 0 1 0 2 1 3 0 2 1 2 3 1 4 1 -2 1 -1 1 1 2 2 3 3 0 4 0 2 2 1 2 -1 2 0 1
-2 1 -2 0 1 2 2 1 -2 0 -1 -1 3 4 4 4 0 1 0 1 7 7 7 7 1 -1 2 -2 1 1 1 0 2 -2
2 -2 2 1 3 1 5 4 4 4 1 0 0 -1 -1 -2 -1 -1 3 1 3 2 2 1 2 2 4 4 5 4 -2 -1 -3
0 -1 1 0 1 3 3 3 2 4 4 5 4 2 2 2 2 2 0 1 -1 4 3 4 2 0 1 0 1 0 1 1 1 5 -1 4
0 2 2 3 2 4 1 4 1 0 1 0 1 1 0 1 -1 0 -2 0 -2 -4 -2 -4 -1 -9 -5 -9 -5 -3 -1
-3 -2 1 -1 0 -1 -1 0 -1 1 -2 -1 -2 -1 0 -2 0 -1 -4 -3 -4 -3 -3 -2 -2 -2 -3
-2 -2 -1 -7 -7 -7 -7 3 2 3 3 3 3 3 3 1 1 2 1 8 6 9 6 3 0 3 0 4 4 4 4 -1 1
-1 1 3 2 3 2 1 0 0 -1 -1 -2 -1 -2 0 0 1 0 7 4 6 3 -1 1 -1 1 0 0 1 1 3 1 3 2
0 -1 0 -2 -2 -1 -2 -1 2 1 2 0 3 1 4 0 1 2 2 2 1 0 2 1 -2 0 -1 0 0 1 0 2 8 2
9 3 0 1 1 1 -3 -1 -2 -1 -6 -2 -6 -2 -4 0 -3 -1 3 2 3 2 8 3 8 3 1 -1 1 0 0 1
-1 1 3 1 4 1 0 0 1 0 1 1 1 1 4 1 5 0 1 -2 1 -2 -1 0 0 -1 -8 -1 -7 -2 0 -1 1
0 6 2 7 1 1 -1 1 -1 -1 0 -1 -1 -12 -3 -12 -3 -1 -1 0 0 2 0 3 1 8 2 8 2 5 1
5 0 1 -3 2 -2 2 -2 2 -1 2 1 2 1 7 2 8 2 3 -3 2 -2 -1 -3 0 -2 3 -2 2 -3 2 0
3 0 0 0 1 0 4 0 5 0 5 0 5 -1 6 0 7 -1 3 1 3 2 3 -1 4 -2 1 0 2 0 2 -1 2 -1 4
0 5 -1 5 -2 6 -3 7 -4 7 -5 3 -3 4 -3 3 3 2 2 1 -1 1 -1 2 2 2 2 8 -8 8 -7 1
-2 1 -2 -1 0 -1 1 0 -2 -1 -1 0 -3 0 -3 1 -2 1 -2 2 -1 1 -1 0 -1 0 -2 2 -2 3
-2 1 1 0 2 1 0 0 1 1 2 0 2 1 0 0 0 3 -2 2 -2 -1 2 -1 2 -1 1 -1 0 0 1 0 1 3
-2 2 -2 2 -4 2 -3 3 0 2 1 4 -6 4 -5 2 -5 2 -4 0 -2 -1 -2 2 0 1 0 -1 -1 0 -2
1 0 1 0 0 1 0 1 1 0 1 0 0 -2 0 -1 -2 -1 -2 0 0 -1 0 -1 2 -6 2 -7 -1 0 -1 0
0 -2 -1 -1 2 -2 2 -1 -2 -1 -2 -1 0 -2 1 -2 -2 0 -2 -1 1 -1 0 -2 1 0 2 0 1
-3 1 -3 1 -2 0 -2 1 -4 0 -4 -1 -1 -2 -2 0 -6 0 -6 0 -4 0 -3 1 -5 0 -4 -2 -6
-2 -6 -2 -6 -1 -6 -3 -7 -3 -6 -1 -2 0 -1 0 -2 0 -1 -1 0 -1 1 -4 -5 -4 -5 -2
-3 -2 -2 0 0 0 -1 -5 -8 -6 -7 -3 -2 -3 -1 0 -1 1 -1 1 -2 0 -2 6 7 6 6 2 1 2
1 0 -1 0 -2 -2 -2 -2 -2 1 -1 0 -2 -3 -2 -2 -3 -9 -6 -8 -7 -4 -2 -4 -2 -1 0
-2 0 0 2 -1 1 -1 0 0 0 -3 -3 -3 -2 -2 0 -1 0 2 2 3 1 -2 -1 -2 0 -4 -1 -3 -1
0 -1 0 -1 -1 0 0 1 -5 -3 -5 -2 3 1 3 0 5 2 6 2 0 -2 1 -1 -1 -1 -1 -1 -10 -4
-10 -3 -3 0 -3 0 0 1 0 1 -1 0 -2 0 -1 -3 -1 -3 -2 0 -1 0 -2 0 -2 -1 -2 0 -1
-1 0 -2 0 -2 -1 -1 -1 -1 3 0 3 0 1 -1 0 -1 3 0 3 0 -3 1 -3 1 9 0 9 0 1 1 2
2 1 0 1 -1 -1 -1 0 -1 2 0 1 0 -1 -1 -1 -1 -7 -2 -7 -2 4 0 4 1 3 1 3 0 -1 -2
-1 -2 -2 0 -2 0 0 1 1 1 -1 0 -1 0 -2 -2 -1 -2 -3 0 -2 -1 0 1 0 2 -1 -2 0 -1
-12 0 -12 0 -1 -1 -1 0 -2 -1 -2 0 -6 0 -5 -1 -1 -1 0 -1 -1 0 -1 0 0 1 1 2
-2 1 -1 1 1 0 2 0 1 0 2 0 0 3 0 2 -3 2 -2 2 1 1 0 2 -1 2 -1 1 1 0 1 0 -1 1
-1 1 -2 1 -1 0 -3 0 -3 1 -8 2 -8 3 -5 3 -5 2 -5 3 -4 3 -2 2 -1 2 -5 4 -4 5
-7 6 -6 6 -2 0 -1 0 0 -1 0 0 3 -5 3 -4 -1 -2 0 -3 3 -6 4 -5 1 0 1 0 2 -4 2
-4 4 -3 3 -3 2 0 2 1 2 -3 2 -3 6 -3 6 -3 -1 -1 0 -1 2 -1 3 -1 0 -1 0 -1 -3
2 -3 1 0 -2 1 -2 -1 0 -1 0 2 -2 3 -1 5 -1 6 -2 4 -1 4 -2 2 0 3 0 1 -1 0 -1
0 -2 0 -2 3 -1 3 -1 1 -1 0 -1 -2 0 -1 0 4 -1 4 -1 11 0 12 0 1 1 1 1 4 0 4 1
2 -2 3 -1 7 0 6 1 3 1 3 1 3 3 4 3 12 4 12 3 1 0 1 0 3 3 4 4 4 1 5 1 1 2 2 1
2 0 2 0 0 -1 -1 -1 1 0 1 0 2 2 3 2 1 0 2 0 2 -1 1 -2 6 4 6 4 2 3 3 2 5 4 5
4 -1 2 0 2 5 5 5 6 4 4 4 4 0 2 1 1 -1 -1 -1 0 -7 -9 -7 -8 -3 -2 -2 -1 -1 0
-1 0 -1 -1 0 -1 -1 0 -1 0 0 3 -1 2 4 5 4 4 1 0 2 0 4 7 5 7 3 1 3 1 0 1 0 1
1 0 2 0 2 5 2 5 3 6 4 7 2 0 2 1 1 2 0 3 3 7 3 7 2 7 2 7 1 -1 2 -1 1 1 2 2 3
-1 4 0 2 1 2 1 1 4 1 4 0 5 1 6 -2 3 -1 3 3 6 3 6 -1 11 -1 11 -1 4 -1 4 -2 1
-2 1 -1 1 0 1 0 2 -1 2 0 5 -1 6 -2 2 -2 2 -1 9 -2 9 -3 7 -2 8 -6 12 -5 11
-1 3 0 3 -3 5 -3 6 2 -1 2 -1 0 -2 1 -2 1 0 0 1 -1 3 -2 3 0 1 1 0 1 -1 1 0 3
-7 3 -6 1 0 1 0 0 2 0 2 -2 2 -1 2 -4 4 -4 4 -1 -2 -2 -1 -3 2 -2 3 -2 1 -2 2
-2 4 -2 4 -1 0 -1 0 0 1 0 1 -3 3 -3 3 -6 5 -5 4 0 -1 0 0 -2 1 -2 2 0 1 1 1
-2 0 -2 1 -1 2 0 2 -2 3 -1 4 -3 0 -2 0 -1 2 0 1 -2 0 -1 0 0 1 0 1 -3 3 -3 3
0 1 0 1 -2 0 -1 1 0 2 1 1 -1 0 -2 -1 -2 2 -1 1 -6 5 -6 5 -2 1 -2 0 -8 5 -7
5 -10 5 -10 5 -5 2 -5 2 -11 4 -10 4 -2 2 -2 2 1 2 0 1 2 0 3 -1 -2 1 -1 0 0
1 0 1 2 -1 2 0 1 0 2 0 0 2 0 3 1 0 1 0 1 2 0 2 2 -1 3 0 -2 1 -1 1 0 1 -1 2
-3 0 -2 1 -3 3 -3 3 -3 1 -3 1 -1 -1 0 -1 -4 1 -4 0 -2 1 -3 1 -1 1 0 2 -5 0
-5 0 0 1 0 1 -4 -1 -5 0 -1 1 -2 2 -3 1 -2 1 -3 0 -2 0 -2 -1 -1 -1 -1 1 -1 2
-4 0 -5 1 -1 2 -2 2 -10 0 -9 0 -8 0 -7 0 -2 -2 -2 -1 -3 1 -3 2 -3 -1 -4 0 0
-1 0 -1 -2 0 -3 0 -1 -1 0 -1 -1 0 -1 0 -3 -1 -3 -2 -1 1 -1 0 -2 -1 -2 -2 -1
1 -2 0 0 -1 0 -1 -2 -1 -2 0 -1 -1 -1 0 -1 0 0 0 -2 -1 -2 0 -3 -1 -2 0 -6 0
-5 0 -4 -3 -3 -4 -2 0 -2 0 -4 -2 -5 -2 0 1 0 0 -5 -2 -5 -3 0 0 0 -1 3 1 3 0
-2 -1 -1 -1 0 -1 1 0 1 1 2 2 0 -1 1 0 0 1 0 1 1 0 2 -1 -1 2 0 1 1 0 1 -1 3
1 4 1 1 0 0 -1 -1 -1 -1 -1 4 -3 3 -3 -1 -2 -1 -2 -2 0 -1 0 1 -1 0 -1 -1 0
-1 1 -2 -2 -2 -1 -2 -1 -2 0 -2 0 -1 0 0 -2 0 -3 -5 -2 -5 -2 -1 0 -1 1 0 -1
0 -1 -2 0 -2 1 1 -1 0 -1 -2 -1 -2 -1 -1 -1 0 -1 -5 -1 -5 -1 -1 1 -1 2 -1 0
-1 0 -7 -3 -7 -4 -7 -3 -7 -3 -1 -2 -1 -1 0 -1 0 -1 -2 -1 -1 0 -1 1 -1 0 1 2
1 1 -2 -1 -2 0 0 1 0 1 -1 1 0 2 11 7 11 7 1 3 1 2 1 0 2 0 -2 -1 -1 -1 1 0 1
-1 6 4 6 3 -2 0 -2 -1 -2 0 -2 -1 1 1 0 2 6 3 6 2 0 1 0 1 -2 -1 -1 0 -2 -2
-1 -1 -3 0 -2 0 0 -1 0 -1 -1 1 -1 1 1 1 1 1 0 1 0 1 -2 0 -3 -1 -1 2 -1 2 2
1 2 1 1 0 1 -1 0 1 1 1 -1 1 -1 2 -2 -1 -2 -2 -4 -2 -3 -1 1 -1 1 -1 -1 -1 -1
-1 -4 -1 -3 -2 -1 2 -1 2 0 0 0 1 4 2 3 2 -1 1 -1 1 -3 -1 -4 -2 -7 -5 -7 -5
-2 -1 -2 -2 -10 -7 -9 -7 0 -1 1 0 3 2 3 2 0 1 0 1 5 2 5 2 0 1 0 1 3 1 3 2 2
1 3 2 2 1 3 0 0 -2 0 -3 -5 -2 -5 -3 -4 -3 -4 -4 -2 0 -1 0 0 -1 0 -1 -1 0 -1
1 -2 -2 -2 -2 0 -4 0 -3 -2 0 -1 0 1 1 0 2 -1 -2 -2 -1 0 -1 0 -1 1 1 1 2 0
-2 -1 -1 -5 -4 -4 -4 -2 1 -1 0 -1 -1 -1 0 1 -1 1 -1 -3 -3 -4 -3 -2 -2 -2 -2
1 2 1 3 -1 -2 -1 -1 -1 0 -1 0 0 1 1 1 -1 0 -2 0 0 1 0 1 2 2 2 2 2 0 2 0 1
-1 0 -1 -1 -2 -1 -1 2 2 3 2 0 1 0 0 -1 -1 -1 0 -1 2 -2 1 1 2 0 2 2 1 2 1 5
6 6 5 0 1 0 0 -2 -1 -1 -1 -4 -3 -3 -2 -2 -2 -3 -1 -6 -7 -6 -6 -1 -1 0 -1 1
0 1 1 0 -1 0 -1 -2 0 -2 1 -3 -3 -3 -3 -2 -4 -2 -3 -4 -2 -4 -2 -1 -3 -2 -2
-2 1 -1 1 -2 -1 -1 -2 1 -2 1 -2 -10 -10 -9 -11 -5 -5 -4 -5 0 -2 -1 -2 3 -3
3 -3 -1 -1 0 -1 -1 1 -1 2 0 -3 0 -2 -1 1 -1 1 -2 -6 -1 -5 -2 0 -1 -1 -1 0 0
-1 1 0 2 1 -3 -2 -3 -2 -2 -7 -3 -6 -3 -6 -3 -6 -1 -3 -1 -3 -1 -4 0 -3 -2 -4
-1 -4 1 0 0 0 2 5 2 5 2 2 1 3 0 2 0 1 -1 -1 -1 0 1 1 2 2 3 6 3 7 2 -1 2 0 2
0 2 0 0 -1 0 0 -1 -4 -2 -3 0 -1 0 -1 3 6 3 6 1 1 1 2 1 0 0 -1 -4 -8 -3 -8
-3 -3 -3 -3 -3 -5 -2 -6 0 -2 1 -1 0 2 0 2 1 1 2 1 0 -1 1 0 -2 -6 -2 -6 -1 3
-1 4 0 -3 0 -2 -1 1 -1 1 -1 0 0 -1 -4 2 -3 1 -2 -3 -2 -3 0 1 -1 0 -1 -1 0
-2 1 -1 1 -1 -2 -8 -3 -9 -2 -12 -2 -13 -1 -1 -1 -2 2 -1 1 -2 1 0 2 1 0 2 0
3 1 6 1 6 0 0 0 1 2 -1 2 -1 1 1 0 1 0 -2 -1 -2 0 -2 0 -1 -2 0 -2 0 0 -2 0
-3 1 0 1 -1 0 -2 -1 -1 0 -1 0 0 -1 -4 -2 -3 0 -4 0 -3 -1 -2 -1 -2 0 1 0 1 0
0 -1 -1 -1 -11 0 -11 -1 -2 -1 -1 -1 1 -1 0 0 -1 -1 -1 -1 1 -1 2 0 -2 0 -2
-1 -1 -2 0 0 -2 0 -1 2 -2 1 -1 -1 -1 0 -1 -1 1 -1 0 -1 -2 0 -2 -1 0 -1 0 0
-1 0 -1 1 0 1 0 1 0 2 0 0 -3 0 -2 1 -3 0 -2 -1 0 -1 1 1 -1 0 -2 -1 -1 -2 0
1 -1 0 -1 2 0 2 0 0 -13 0 -12 1 -8 0 -8 0 -2 1 -2 2 -12 3 -11 1 -5 1 -5 2
-6 1 -5 2 -3 1 -3 1 -5 1 -5 1 -1 1 0 0 2 -1 2 -2 4 -1 4 1 1 0 1 -1 0 -1 0 0
1 0 2 1 0 2 1 1 -2 0 -2 1 -1 0 -1 0 -2 1 -1 2 -5 1 -4 1 -2 0 -1 2 -5 1 -5 1
0 1 0 0 -1 0 -1 -1 1 -1 0 0 -1 0 -1 1 0 1 -1 0 -1 0 -1 0 0 1 1 2 -2 2 -2 1
-3 1 -2 -2 -1 -2 -1 1 0 1 -1 0 1 0 1 2 -4 2 -3 0 -1 0 -2 1 0 2 -1 3 -6 3 -6
-1 -3 0 -3 2 1 1 0 0 -1 -1 -2 1 -1 0 -1 1 1 1 2 1 -3 2 -2 2 -1 1 -2 2 -4 1
-3 6 -9 6 -9 0 -1 0 -1 -1 0 -2 0 0 1 0 1 -1 2 -2 3 0 -1 -1 -1 2 -5 3 -4 8
-12 9 -11 3 -3 2 -2 5 -7 6 -6 2 -2 1 -2 1 -3 0 -3 2 1 1 0 0 -2 0 -1 1 0 2 0
-1 -1 0 -1 1 0 1 0 0 -2 0 -2 3 -1 3 0 1 -2 1 -2 2 0 3 -1 2 -2 2 -1 0 -1 0
-1 5 -5 5 -4 5 -5 5 -5 8 -6 9 -6 6 -4 6 -4 1 -3 1 -2 0 0 -1 -1 -3 1 -3 1 0
-3 1 -2 3 -3 4 -2 -1 2 0 1 1 0 2 -1 -1 -2 0 -1 1 1 2 1 1 0 1 -1 2 0 2 -1 1
1 1 0 -1 1 -2 1 -1 -1 -1 0 0 1 0 1 2 1 2 1 0 -1 0 -1 1 0 2 0 1 -2 2 -2 0 0
0 -1 -1 1 -2 0 0 0 0 -1 3 -3 4 -3 0 0 1 0 0 3 0 2 1 0 1 0 0 -1 1 0 1 0 1 0
2 -3 3 -2 -1 0 0 0 -2 0 -2 0 0 -1 0 -2 2 0 2 -1 0 1 0 1 1 0 1 0 2 -2 2 -2 3
-1 3 -1 2 1 2 1 1 -1 1 0 2 -1 1 -1 1 -2 2 -1 0 1 1 0 1 -1 2 -1 0 1 0 2 2 2
3 3 2 -2 3 -2 5 -2 6 -2 3 -1 4 -1 0 -2 0 -1 2 -2 3 -3 2 1 3 1 0 2 0 1 3 0 2
-1 0 2 0 2 -1 0 -2 0 0 1 0 2 -3 1 -4 2 0 1 0 1 6 -2 6 -1 1 -2 2 -2 1 1 2 0
2 -1 1 -2 3 0 2 1 0 -1 1 -1 7 -1 7 -1 5 -2 6 -1 2 2 3 1 6 -1 6 0 10 0 10 0
0 -2 -1 -1 1 0 1 0 0 2 0 1 2 0 2 -1 4 -1 4 0 2 -2 2 -3 2 -1 3 -1 1 0 2 0 -2
1 -2 1 1 1 2 0 1 -1 1 -1 1 0 1 1 0 -1 0 -1 2 0 2 0 7 0 7 0 3 2 2 1 4 0 5 1
1 -1 1 -1 6 -1 7 0 2 0 2 0 5 0 5 1 5 0 5 0 1 1 0 1 2 0 1 0 2 -2 2 -2 2 0 3
1 0 -1 0 -1 1 1 1 1 5 0 4 0 0 -1 1 -1 -1 0 -1 -1 2 0 2 0 1 2 0 1 1 -1 1 -1
2 0 1 1 -1 1 -1 1 5 -1 5 0 0 1 0 1 2 0 3 -1 4 2 4 1 2 0 2 1 1 1 1 1 9 2 9 1
7 2 8 3 2 -1 2 0 3 2 2 2 3 0 3 0 0 1 -1 0 2 2 3 2 1 0 2 0 0 1 1 0 8 4 8 3 1
-1 1 0 2 2 1 2 0 -2 0 -1 1 0 1 0 3 1 2 1 0 1 -1 0 -2 -1 -2 -1 0 1 0 0 1 1 2
2 2 1 3 2 0 2 0 2 2 1 2 0 0 1 0 1 3 1 4 0 1 1 1 0 0 -1 0 -2 2 -1 1 -1 0 1
-1 1 2 0 2 1 0 1 -1 0 1 2 1 1 -1 0 -1 0 0 1 0 1 4 3 5 3 0 2 0 3 2 0 2 1 0 4
0 4 2 2 3 2 3 3 3 3 4 3 4 3 -2 -1 -2 0 1 1 2 1 1 0 2 0 1 2 1 3 1 -1 2 0 3 3
3 4 2 2 2 3 -1 0 -1 -1 2 2 2 1 0 2 0 1 1 -1 2 0 3 2 3 2 1 2 1 3 3 2 3 2 1 5
0 5 -1 0 -1 0 2 2 2 3 2 0 2 0 0 -1 0 -1 2 1 1 1 -1 1 -1 1 1 1 0 2 1 0 1 0 1
2 1 3 3 0 3 -1 -1 2 0 1 2 0 2 0 1 1 0 1 -1 0 -2 -1 0 1 0 1 2 2 3 2 1 0 2 1
0 1 0 1 -1 -1 -2 0 1 2 0 2 1 1 1 0 0 1 0 1 -3 -1 -2 -2 0 1 0 0 1 2 1 2 2 -1
3 0 0 1 1 2 -1 1 -2 1 5 6 6 6 1 0 2 1 2 -1 3 -1 2 3 1 2 1 0 1 0 0 -2 -1 -3
1 0 1 -1 3 3 4 4 0 3 0 3 4 5 4 6 3 5 3 5 0 1 0 0 -2 -3 -3 -2 0 -2 -1 -2 -1
3 -1 3 1 1 1 2 0 2 1 3 3 0 3 0 0 -1 -1 -2 1 0 1 0 7 14 7 15 1 3 1 3 -1 0 -1
1 1 0 2 0 1 1 0 1 -1 0 -1 0 0 1 0 1 1 0 1 -1 1 2 2 3 0 0 0 1 -1 0 -1 0 0 -1
0 -2 -1 -1 -1 0 0 1 1 2 1 1 0 2 -1 0 -1 0 -2 -5 -2 -4 -1 0 0 1 2 6 2 6 1 0
1 0 0 -2 0 -1 1 1 2 1 2 7 2 8 3 6 3 6 -1 3 -1 2 1 1 1 0 0 -1 0 -2 1 0 1 0 1
3 1 3 -1 2 -1 2 -1 -1 -1 0 0 1 0 1 1 0 2 -1 1 3 1 3 2 3 2 3 0 3 1 3 2 4 2 4
0 4 1 5 0 2 1 2 -1 0 0 -1 -1 -1 0 -1 0 -2 0 -1 -1 1 -2 2 1 7 2 6 1 1 1 0 -1
-3 0 -3 0 -2 0 -1 1 -1 1 0 0 2 0 3 3 3 3 3 -1 2 -1 3 0 2 -1 2 2 7 3 7 0 1 0
0 -3 1 -2 1 0 7 1 8 1 4 0 5 0 12 0 12 0 9 0 9 -1 0 -1 0 -1 -2 0 -2 -1 0 -1
0 -1 -4 0 -5 -1 0 -1 0 0 6 0 7 -1 1 -1 0 1 1 0 1 -1 13 -1 13 0 9 -1 9 0 1
-1 0 0 -2 0 -1 -2 2 -1 3 0 -2 0 -2 -1 0 -1 0 0 2 -1 2 -1 5 -1 5 1 0 1 0 1
-1 1 -1 1 0 2 1 0 2 0 3 -1 2 0 2 -3 0 -2 0 0 -1 0 -2 -1 0 -1 0 -1 6 -1 7 -2
8 -2 8 -1 2 -1 2 -2 7 -2 7 -2 3 -2 4 0 3 0 3 -1 3 -2 4 -1 0 -1 1 0 3 0 3 -1
1 -1 0 -1 -1 -1 -1 0 0 -1 1 -1 3 -2 4 -1 2 -2 2 -1 2 -2 3 -1 -1 -1 0 2 -5 2
-4 3 -6 3 -6 0 -2 0 -2 -2 -1 -2 -1 0 1 0 1 -1 1 -2 2 0 3 -1 2 0 1 -1 0 0 -1
0 -1 -2 0 -2 0 1 4 0 3 -1 0 -1 0 0 -2 -1 -1 -1 3 -1 3 2 -1 2 0 -3 5 -3 6 1
0 0 1 -3 8 -3 8 -1 2 -1 3 -1 0 0 1 1 0 2 -1 1 1 2 0 -1 2 0 1 -3 -1 -2 -1 -1
1 0 1 -3 3 -2 3 0 -5 1 -4 2 -3 2 -2 0 -1 0 -1 -2 1 -2 1 0 -1 -1 -1 -2 2 -1
3 1 1 2 1 -1 2 0 1 -2 0 -1 0 0 2 0 1 -1 -1 -1 0 -1 2 0 2 -2 3 -1 4 0 1 0 1
-1 0 -1 -1 -5 5 -6 5 -3 4 -3 5 -2 1 -1 2 2 3 1 3 -3 3 -3 4 1 -2 0 -2 -1 0
-1 0 -1 1 -1 2 1 0 0 1 -1 2 -1 2 -2 0 -2 -1 -1 2 -1 3 1 1 0 2 -2 0 -2 1 0 2
0 1 -1 0 -2 0 0 2 0 1 -1 -1 -1 0 2 2 3 2 -2 0 -1 0 -2 -2 -1 -1 -1 1 -1 2 -2
0 -1 0 0 2 0 2 -1 0 -1 0 0 2 0 2 -1 0 -1 0 0 2 0 1 1 0 1 0 0 2 0 2 1 0 1 0
1 -2 2 -2 0 0 0 -1 -1 0 -2 0 0 -1 -1 -1 2 -2 3 -2 -1 -2 0 -2 1 0 2 1 1 0 1
0 -1 3 0 2 1 2 2 2 2 -1 2 0 1 2 0 2 1 0 1 0 0 3 0 3 -2 1 -2 2 -1 0 -2 0 1 1
0 1 -1 0 -1 0 -1 -3 -1 -3 -3 0 -3 1 -2 2 -2 1 0 1 1 0 -3 3 -3 3 -3 2 -4 3 0
2 -1 3 -3 1 -3 1 -2 2 -2 2 1 3 0 3 -1 1 -2 2 -1 3 0 3 2 -2 2 -2 1 0 1 0 2
-2 2 -3 1 0 1 0 0 2 -1 1 0 3 0 2 -2 -1 -1 0 0 0 1 1 -1 1 -1 2 -5 2 -4 3 -3
3 -4 4 -1 0 -1 0 -1 3 -2 4 -1 0 -2 1 -1 -1 -2 0 1 -2 1 -1 0 -2 1 -2 2 0 3 0
2 -2 3 -2 1 0 1 0 2 -5 2 -4 0 -1 -1 0 -2 0 -1 1 -6 6 -6 5 -2 1 -2 0 1 2 0 2
-1 0 -2 -1 -3 3 -3 2 1 1 0 1 -2 2 -1 2 1 0 1 0 2 -2 2 -1 -4 5 -5 6 -4 1 -3
0 -2 -1 -2 -2 1 0 2 0 1 -2 1 -2 -1 0 -1 -1 -2 1 -2 0 1 2 0 1 -1 0 -2 -1 0 1
0 1 -1 0 -1 0 1 -1 0 -1 -1 1 -2 2 -6 3 -7 4 1 0 0 1 -1 -1 -2 0 0 2 0 1 -1 0
0 -1 -5 3 -4 4 -3 1 -3 1 -4 3 -3 3 -7 3 -6 3 0 0 -1 0 0 -1 0 -2 -3 2 -4 1
-9 4 -10 5 0 1 0 2 -1 -2 -1 -1 -5 2 -4 2 -3 1 -3 1 0 1 0 2 -1 0 -2 1 0 -2 0
-1 1 -2 1 -1 3 0 3 -1 11 -5 12 -5 2 -1 3 0 8 -5 8 -4 0 -1 0 -1 1 0 1 1 2 -2
2 -1 -1 -1 0 -1 1 0 2 1 3 -2 3 -1 0 -1 0 -1 0 -1 1 -1 0 -1 1 0 1 1 2 2 7 -4
7 -3 2 -2 2 -2 -1 -2 -1 -3 -2 1 -2 0 -6 3 -5 4 1 0 0 1 -1 0 -2 0 0 1 0 1 -5
2 -5 2 -1 2 0 2 -6 1 -6 2 -1 0 -2 -1 -1 2 -1 2 -2 0 -2 0 -3 2 -3 1 0 1 1 0
-1 2 -1 2 -6 2 -5 2 -1 -1 -1 0 0 1 0 1 -4 1 -3 2 -1 -1 -1 -1 -3 1 -4 2 -2 0
-2 0 -1 2 -1 1 1 0 0 0 -1 1 -1 1 1 2 1 1 -3 1 -2 1 -2 2 -2 2 -4 1 -4 0 -6 1
-6 2 -1 -2 0 -1 -5 1 -5 0 -4 1 -4 1 -1 1 0 2 -5 0 -4 1 -1 1 -1 0 1 1 0 1 -1
0 -1 0 0 1 0 2 -2 0 -2 0 -4 2 -5 3 -1 -1z m22 -14 l0 -1 -1 1 -1 0 1 1 0 1 1
0 0 0 0 -2z m-159 -38 l-1 -1 -2 0 -2 0 0 1 0 1 3 0 4 0 -2 -1z m2 -6 l2 -1 0
-2 0 -1 -1 0 -1 0 0 1 1 1 -4 0 -4 -1 0 1 0 1 2 1 3 1 0 0 0 0 2 -1z m-13 -1
l0 -1 2 0 2 0 0 -1 0 -1 2 0 3 -1 -4 0 -3 -1 1 -2 1 -2 -2 -1 -2 -2 -1 0 -2 0
-3 1 -3 1 0 2 0 2 -1 0 -2 -1 0 1 -1 1 1 0 2 1 -3 0 -3 0 0 -1 1 -1 -1 0 -1
-1 -2 1 -3 0 0 1 0 1 2 0 1 0 0 1 0 1 5 0 4 0 1 1 1 1 2 0 2 -1 0 1 0 1 2 0 2
0 0 -1z m-31 -2 l0 -1 -1 0 -1 0 1 1 0 1 1 0 0 0 0 -1z m-7 -3 l-1 -1 -2 0 -1
0 0 1 0 1 2 0 2 0 0 -1z m14 -1 l3 -1 -1 -1 0 -1 -1 0 -1 0 1 1 0 1 -1 0 -1 0
-1 -2 -1 -1 -2 0 -2 1 -1 1 0 2 2 0 3 1 0 0 1 0 2 -1z m-1 -7 l1 -1 -1 -1 -1
-1 0 0 0 1 -1 -1 -2 -2 -2 0 -3 1 0 -1 0 -1 -3 -1 -2 -1 -4 -1 -3 -1 -1 1 -1
2 0 0 0 1 1 0 2 0 -2 1 -1 1 2 0 2 1 6 1 6 0 1 1 0 1 1 -1 1 0 0 1 0 1 1 0 2
0 1 -1z m368 -8 l0 -1 -1 0 -1 0 0 1 -1 1 1 0 2 0 0 -1z m19 -24 l1 -1 -1 0
-1 1 -1 1 0 1 1 0 1 0 0 -2z m-377 1 l0 -1 -2 0 -2 -1 -1 1 0 1 2 0 3 0 0 0z
m-9 -3 l-1 0 -1 0 -1 1 1 0 2 0 0 -1z m-5 -1 l-1 -1 -1 0 -1 0 1 1 0 1 1 0 1
0 0 -1z m405 -3 l0 -1 -1 1 -2 1 0 1 0 1 1 0 2 -1 0 -2z m-430 -5 l0 -3 -4 -1
-5 -2 -4 0 -3 -1 -1 -1 -2 -2 -2 0 -1 0 1 1 1 0 -1 2 0 2 1 1 1 1 2 -1 2 -1 1
1 2 1 -1 1 0 1 1 0 1 0 3 0 4 1 2 1 1 2 1 0 0 0 0 -3z m-27 -10 l0 -3 -2 0 -2
-1 -2 1 -2 0 0 2 0 1 1 0 1 -1 2 2 3 1 0 0 1 0 0 -2z m96 0 l0 -1 -1 0 -1 0 1
1 0 1 1 0 0 0 0 -1z m147 -5 l0 -1 -1 0 -1 0 0 1 0 1 0 0 1 0 1 -1z m-263 -3
l1 -2 -5 -3 -5 -2 0 -2 1 -2 -5 -3 -4 -2 0 1 0 1 -1 -1 -2 0 0 1 0 1 -3 -1 -2
0 5 4 5 5 2 1 3 0 0 1 0 1 1 0 1 -1 2 3 2 2 2 0 2 0 0 -2z m268 1 l0 -1 -1 1
-2 0 0 1 0 0 2 0 1 0 0 -1z m7 -3 l-1 0 -1 0 -1 1 1 0 2 0 0 -1z m-274 -4 l0
-1 -2 -1 -3 -1 0 1 0 1 2 1 3 1 0 0 0 0 0 -1z m298 -5 l0 -1 -3 0 -3 1 1 0 0
1 -1 0 -2 0 0 1 0 2 4 -2 4 -2 0 0z m199 2 l0 -1 -1 0 -1 0 0 1 0 1 0 0 1 0 1
-1z m-326 -34 l0 -2 -1 0 -1 0 1 1 0 1 -1 0 -2 0 0 -1 0 -1 -1 1 -1 2 0 0 0 1
3 0 3 0 0 -2z m53 0 l11 -2 2 -2 1 -1 -2 -2 -2 -1 0 -2 0 -2 -1 -1 -1 -1 1 0
1 0 0 -2 0 -2 -3 0 -3 1 -3 1 -3 1 0 2 0 1 2 0 3 0 -4 1 -4 2 -7 0 -6 1 0 3 1
3 0 1 0 1 2 0 1 0 0 1 0 1 2 0 2 0 10 -2z m294 1 l0 -1 0 0 -1 0 0 1 -1 1 1 0
1 0 0 -1z m-325 -3 l0 -2 -2 0 -1 0 1 1 1 0 0 2 0 1 1 0 0 0 0 -2z m332 -5 l0
-1 0 0 -1 0 0 1 -1 1 1 0 1 0 0 -1z m-277 -5 l-1 -1 -1 1 -1 0 1 1 2 2 0 -1 1
-1 -1 -1z m116 1 l1 -1 -1 0 -2 -1 0 2 0 1 1 0 1 0 0 -1z m-357 -5 l0 -1 -2
-1 -1 0 0 2 0 3 2 -1 1 0 0 -2z m388 -14 l0 -1 0 0 -1 0 0 1 -1 1 1 0 1 0 0
-1z m9 -7 l0 -1 -1 1 -1 0 1 -1 0 -2 1 1 1 0 -1 -1 0 -2 -2 2 -2 1 -1 3 -1 3
1 0 0 1 3 -2 3 -2 -1 -1z m11 -12 l0 1 2 -1 1 -1 0 -2 0 -2 -1 1 -2 0 0 2 0 1
-1 0 -1 -1 0 0 0 1 -1 2 0 2 1 -2 1 -1 1 0z m-473 -17 l-2 -2 0 0 0 -1 -3 -3
-3 -2 -1 1 -1 0 1 2 2 1 3 3 4 3 1 -1 0 0 -1 -1z m630 -4 l1 -2 -1 0 0 0 -1 2
-1 2 1 0 1 0 0 -2z m-644 -1 l1 -1 -1 0 -1 -1 0 2 0 1 1 0 0 0 0 -1z m4 -3 l1
-1 -1 -1 -1 -1 0 1 0 2 -1 0 -1 1 1 0 1 0 1 -1z m506 -6 l2 -3 3 -5 3 -4 0 -1
0 -1 -2 2 -2 1 0 1 0 1 -3 6 -4 5 1 0 1 0 1 -2z m9 -17 l1 -1 -1 1 -2 1 0 1 0
0 1 0 1 0 0 -2z m-86 -7 l6 -6 -1 -2 -1 -1 -7 6 -6 6 0 2 0 2 1 0 2 0 6 -7z
m-286 2 l1 -1 0 -1 0 -1 -4 -3 -3 -2 -2 -2 -1 -1 -1 0 -1 0 -1 -1 -2 -2 -5 -2
-5 -3 -1 -1 -1 -2 -1 0 -1 0 -5 -4 -5 -3 0 -1 0 -1 -1 0 -1 0 -6 -6 -5 -5 -2
0 -1 0 0 -1 0 -1 -2 -3 -2 -2 -3 1 -2 0 -1 2 0 1 6 5 5 6 4 1 3 0 0 1 0 1 -1
0 -1 1 1 2 2 2 2 0 1 -1 3 2 2 2 0 3 -1 2 5 3 4 4 8 5 9 5 1 -1 2 -1 2 1 3 1
0 1 0 1 1 0 2 0 1 -1z m291 -2 l1 -2 0 0 -1 0 -1 2 -2 2 0 0 1 0 2 -2z m-471
-7 l-1 -3 -3 -3 -3 -3 0 4 1 3 2 2 2 2 1 -1 1 0 0 1 0 1 1 0 1 0 -2 -3z m10
-1 l0 -2 -1 0 -1 -1 -5 -7 -4 -7 -1 -1 0 0 -1 1 -2 0 2 4 2 4 3 3 4 3 1 2 1 3
1 0 1 0 0 -2z m-7 0 l0 -1 0 -1 0 -1 -2 -3 -2 -2 -2 -1 -1 0 0 1 0 0 4 5 3 4
1 0 0 0 -1 -1z m474 -5 l2 -1 2 -2 3 -2 -2 1 -1 1 0 1 0 1 2 -2 2 -3 0 -1 0
-1 1 0 1 1 2 -4 2 -3 -2 3 -3 3 0 -1 0 -1 1 -3 1 -2 1 -1 2 -1 1 0 1 1 0 -1 0
-1 -1 0 -1 0 1 -1 0 -1 -2 1 -2 2 0 -1 0 -2 3 -2 3 -3 1 1 0 1 0 -2 -1 -2 1 0
1 1 1 -1 2 -1 2 -5 3 -5 5 -9 4 -8 3 -9 3 -8 2 -10 2 -10 -1 -1 0 -1 -3 0 -2
0 -1 2 -1 3 -1 7 -2 7 -2 6 -1 6 -2 2 -1 3 1 2 0 2 2 1 2 1 -2 0 -1 0 -2 -2
-1 -1 -2 1 -1 1 0 2 0 2 -2 2 -1 2 -1 -1 -1 0 0 1 1 2 -2 -1 -2 0 -2 3 -2 3
-2 4 -2 5 -5 5 -6 6 0 -1 -1 0 -2 2 -1 2 2 2 2 2 0 2 0 3 1 0 1 1 -1 1 -2 2 0
2 1 1 0 0 1 0 1 -1z m-486 -3 l1 0 0 -1 -1 -1 -2 0 -1 0 0 -1 0 -1 1 0 2 1 -1
-2 0 -2 -6 -10 -7 -9 -2 -4 -1 -3 -3 -1 -2 -1 -1 0 0 1 4 9 4 8 4 4 3 4 0 2 0
1 1 1 2 1 1 2 2 3 1 -1 0 -1 1 1z m3 -6 l-2 -1 1 2 1 2 1 0 0 -1 -1 -2z m-4
-6 l-1 -3 -1 0 -1 0 1 1 0 2 2 1 1 2 1 0 0 -1 -2 -2z m440 0 l3 -4 0 0 0 -1
-1 0 -1 0 1 1 0 1 -1 0 -2 -1 -3 3 -3 2 0 1 0 1 2 0 3 0 2 -3z m0 -9 l3 -4 -1
-1 0 -2 -1 1 -1 0 1 1 0 1 -1 -1 -2 0 1 -2 2 -1 1 -2 1 -1 1 1 1 0 0 -1 -1 -1
2 -1 1 -1 0 -2 0 -1 1 1 1 0 0 -1 -1 -1 -1 -1 -1 0 -2 2 -1 2 -5 5 -5 5 -5 4
-5 5 1 0 2 -1 0 1 0 1 2 2 1 2 4 -3 4 -3 3 -3z m-28 6 l1 -2 -1 0 -1 0 0 2 -1
1 1 0 1 0 0 -1z m8 -1 l1 -2 3 -2 3 -3 -2 0 -1 0 2 -3 3 -3 0 -1 -1 0 -4 4 -5
4 0 2 1 1 -2 1 -1 1 0 1 0 1 1 0 1 0 1 -1z m27 -4 l0 -1 -1 0 -1 0 1 1 0 1 1
0 0 0 0 -1z m-17 -6 l3 -2 -1 0 0 -1 -3 3 -3 2 1 0 1 0 2 -2z m21 0 l1 -1 -1
-1 -1 -1 -1 1 -1 1 -1 1 0 2 1 0 2 0 1 -2z m39 -1 l2 -3 3 -5 3 -4 0 -2 0 -1
-1 1 -2 2 -4 8 -4 8 1 -1 0 -1 2 -2z m-341 1 l-1 -1 -1 0 -1 0 1 1 0 1 1 0 1
0 0 -1z m297 -1 l1 0 1 -3 1 -2 0 -1 0 0 -3 3 -3 2 0 1 0 1 1 0 1 0 1 -1z
m237 -17 l1 -3 -2 1 -1 2 0 3 0 2 1 0 0 -1 1 -4z m-698 -9 l-1 -3 -1 -1 -1 -1
-1 1 -1 0 1 -1 0 -2 -1 0 -2 0 1 2 0 2 2 2 1 1 1 0 1 0 0 2 1 1 1 0 1 0 -2 -3z
m756 -5 l-1 -1 0 1 0 2 1 0 0 -1 0 -1z m-785 -35 l1 0 -2 -6 -2 -5 0 -2 1 -2
-1 0 -1 1 -1 -3 -1 -3 0 0 -1 0 1 3 0 4 1 5 1 5 1 2 1 2 1 0 1 0 0 -1z m133
-35 l-1 -2 -1 0 0 1 1 2 0 2 1 0 0 -1 0 -2z m658 -5 l-1 0 -1 0 0 1 1 1 0 1 1
-1 0 -1 0 -1z m-635 -2 l1 -1 -1 0 -1 1 -1 1 0 1 1 0 1 0 0 -2z m643 -3 l-1
-1 0 2 0 3 1 -2 0 -1 0 -1z m-649 -1 l-1 -1 0 2 0 2 1 -1 1 -1 -1 -1z m4 -1
l-1 -1 -1 1 0 0 0 2 1 1 1 -1 1 -1 -1 -1z m-151 -15 l0 -4 -1 -1 -1 -1 -1 0
-1 1 0 2 0 3 1 2 1 3 1 0 2 0 -1 -5z m783 0 l-1 -1 0 2 0 3 1 -2 0 -1 0 -1z
m-1 -13 l-1 -1 0 3 -1 2 1 1 1 1 0 3 0 3 1 -6 0 -5 -1 -1z m18 3 l0 -5 -1 2
-1 2 0 3 0 4 1 0 0 1 1 0 1 -1 -1 -6z m-292 -28 l0 -1 -1 0 -1 0 0 3 0 2 1 -1
2 -1 -1 -2z m-414 -1 l-1 -1 0 3 0 3 1 -2 0 -1 0 -2z m631 2 l-1 -2 0 -1 0 0
0 -1 -1 -1 0 -2 0 -2 -1 0 -1 0 1 3 0 4 0 2 1 2 1 0 1 0 0 -2z m-634 -7 l0 -5
-1 1 -2 0 0 5 0 5 1 -1 1 -1 1 -4z m409 -1 l-2 -2 0 -1 1 0 2 4 2 4 2 0 2 0 0
-2 0 -2 -4 -8 -4 -8 -3 -3 -3 -3 -2 0 -2 0 5 9 4 8 0 1 -1 1 2 4 1 3 1 -1 0
-1 -1 -3z m-406 -3 l-1 -1 0 1 0 2 1 0 0 -1 0 -1z m6 0 l0 -2 2 0 2 0 1 -4 1
-3 0 -3 -1 -2 -1 1 -1 0 0 -1 0 -1 -1 0 -1 0 -1 2 0 3 -1 1 0 1 0 0 0 1 -1 4
0 5 1 0 1 0 0 -2z m-115 -5 l-1 -1 -1 -1 -2 0 0 1 0 1 1 0 1 -1 0 1 0 2 1 0 1
0 0 -2z m735 -5 l0 -1 -1 -3 0 -3 -2 0 -2 0 1 3 0 3 1 1 1 1 1 0 1 0 0 -1z
m57 -4 l-1 -2 -1 0 0 1 1 3 0 4 1 -2 0 -1 0 -3z m6 -1 l0 -2 -1 0 -1 0 0 2 0
2 1 0 1 0 0 -2z m-72 -15 l0 -2 -1 0 0 0 0 2 0 1 1 0 1 0 -1 -1z m81 -1 l0 -2
-2 0 -1 0 2 2 1 2 1 0 0 -1 -1 -1z m-3 -9 l0 -1 -1 -2 -2 -1 -1 1 0 2 1 1 2 1
0 0 1 0 0 -1z m-3 -10 l0 0 -1 -2 -1 -1 0 2 0 2 1 0 1 0 0 -1z m-668 -4 l1 -2
-1 0 -1 1 -1 2 0 2 1 0 1 -1 0 -2z m-15 -1 l0 -1 -1 1 -1 1 1 1 0 1 1 -1 1 -1
-1 -1z m17 -6 l1 -3 -1 -1 0 -1 -2 0 -1 1 0 -1 0 -1 -1 1 0 2 -2 2 -2 2 0 1 0
1 2 -1 1 0 0 -2 -1 -1 1 0 1 0 0 2 0 2 1 0 0 1 1 0 1 0 1 -4z m-133 -8 l0 -1
-1 0 -1 0 0 1 0 1 0 0 1 0 1 -1z m777 -7 l-1 -1 -1 0 0 1 0 2 1 1 1 -1 1 0 -1
-2z m-776 -1 l-1 -1 0 1 0 2 1 0 0 -1 0 -1z m788 2 l0 -1 -1 -1 0 -2 -2 1 -1
1 0 1 0 1 2 0 2 0 0 0z m-786 -5 l-1 -2 2 -1 1 -2 0 -1 0 -1 -2 1 -1 0 0 2 1
1 -1 1 -1 0 0 2 0 1 1 0 1 0 0 -1z m783 -4 l0 -2 -1 -3 -2 -3 -1 -2 -2 -2 0 0
-1 1 1 4 2 4 1 2 1 3 1 0 1 0 0 -2z m-782 -4 l0 -1 -1 0 -1 0 0 1 0 1 0 0 1 0
1 -1z m434 -3 l0 -1 -1 0 -2 0 1 1 0 1 1 0 0 0 1 -1z m-71 -3 l3 0 -3 -1 -2
-1 1 -1 1 -1 -1 -1 -2 -2 1 0 2 -1 -3 1 -3 0 -4 1 -3 1 0 1 -1 1 2 -1 2 0 0 1
0 2 2 0 1 0 -1 1 0 1 3 0 3 -1 2 0z m324 -2 l0 -2 -3 -5 -2 -4 -6 -8 -5 -8 -4
-5 -3 -5 -1 -4 -2 -3 -5 -5 -5 -5 0 -1 0 -2 -1 -1 -2 -1 1 -1 0 -2 -2 -2 -2
-1 1 2 1 2 -8 -9 -8 -8 -3 -2 -3 -1 -4 -4 -5 -3 0 -3 0 -3 -2 -2 -2 -1 -4 -4
-4 -3 -2 2 -1 2 -2 0 -2 -1 -5 -4 -5 -5 0 -1 0 -1 -2 -1 -2 -1 1 -2 0 -1 1 1
2 0 -4 -3 -3 -3 -1 0 -1 0 1 1 0 1 -1 0 -1 0 -3 -3 -4 -3 -2 1 -2 1 -2 -2 -1
-2 -4 -2 -3 -2 0 -3 0 -2 -1 0 0 0 -2 2 -2 1 -1 -1 -2 0 0 -1 0 -1 3 1 2 0 0
0 0 -1 -3 -2 -3 -1 0 -1 1 -1 -1 -1 -1 0 1 1 0 1 -1 0 -1 -1 -6 -2 -5 -2 -1 1
0 1 -3 0 -3 0 -2 -2 -2 -2 -1 1 -1 0 -1 -3 -2 -4 -6 -2 -5 -2 -1 0 0 1 1 0 2
0 -3 1 -3 1 -3 -1 -2 -2 -5 0 -4 -1 -1 -3 -1 -3 -1 0 -1 0 -2 -1 -2 0 -5 -1
-4 0 -3 -1 -2 0 -1 0 -1 -1 -1 1 -1 2 -3 -1 -2 0 0 -1 0 -2 -2 0 -2 -1 0 1 0
1 -4 0 -4 0 0 -1 0 -2 -5 -1 -4 0 -5 -2 -4 -1 0 -1 0 -1 -2 2 -2 1 0 2 0 2 -3
-1 -4 0 -1 2 -2 2 -1 0 -2 -1 0 -1 0 -2 -3 0 -4 0 0 -1 -1 -1 1 0 1 0 0 -1 -1
-1 -4 0 -3 0 0 1 1 2 2 -1 2 0 0 1 0 1 -2 0 -1 0 1 1 0 1 -1 0 -2 -1 -1 -1 -2
0 0 1 0 1 -3 0 -3 0 -1 1 -1 1 -2 -1 -3 -1 -4 1 -3 1 0 1 -1 2 -2 -2 -2 -1 0
1 0 2 -1 -2 -2 -2 -1 0 -1 1 -3 -1 -3 -1 -2 1 -1 2 0 2 0 1 4 0 4 -1 0 1 -1 1
5 -1 5 0 -1 0 -1 1 -9 2 -8 2 -3 1 -2 0 0 -1 0 -2 -1 0 -2 0 0 -1 0 -1 1 0 1
0 0 -1 0 -2 -1 0 -1 0 -1 1 -1 2 -1 0 -1 0 0 1 1 1 1 -1 2 0 -3 2 -2 2 -1 2 0
2 2 0 1 0 -2 2 -3 2 0 1 1 2 -3 0 -3 0 0 -1 0 -1 -2 0 -2 0 -3 4 -3 3 0 1 0 1
2 1 1 0 -2 2 -1 2 -2 0 -1 0 1 1 1 2 -1 0 0 1 1 0 1 0 0 2 -1 2 1 0 1 0 0 -1
1 -2 5 0 5 -1 6 -2 7 -2 5 -1 5 -1 2 -2 3 -1 -1 -1 0 -1 2 0 3 0 2 -1 2 0 0 1
-1 1 3 -1 4 -1 1 0 2 -1 0 1 1 1 5 0 6 0 -2 1 -2 0 -3 1 -3 1 2 1 2 1 0 0 0 1
1 1 2 1 3 0 4 0 1 -1 1 -1 10 -1 11 0 8 0 8 -1 1 1 1 2 1 -2 1 -1 0 0 1 0 5 0
4 0 0 -1 -1 0 -1 -1 -1 0 -3 -1 -2 0 -8 -1 -7 -1 15 1 16 0 7 2 7 2 1 -1 1 -1
1 1 2 2 7 2 7 2 0 -1 0 -1 1 1 2 0 1 -3 0 -3 1 3 0 3 2 1 1 2 1 0 1 0 4 2 4 1
1 1 2 1 5 -1 5 0 -1 -1 0 -1 -3 -1 -4 0 -2 1 -1 1 -2 -3 -2 -3 -2 0 -2 0 1 -1
1 0 -1 -3 0 -3 3 0 2 -1 1 1 1 1 1 0 2 0 -2 -1 -1 -1 1 0 2 0 2 2 3 1 -3 -1
-2 0 1 1 1 1 2 0 2 1 0 -1 -1 -1 2 0 2 1 0 1 0 1 4 2 5 1 0 2 1 1 4 4 3 4 2 0
2 0 -1 -1 0 -1 1 1 2 0 1 1 1 0 5 3 5 3 4 0 4 0 0 3 0 2 2 0 2 0 2 2 2 1 3 0
3 0 1 4 1 4 2 2 3 2 2 0 3 0 0 1 -1 2 1 0 1 1 0 -1 1 -1 3 3 3 2 2 2 3 3 0 1
1 2 -2 -2 -2 -2 -2 1 -2 1 -2 -1 -1 -1 -3 -2 -2 -3 -1 1 -1 0 0 -1 1 -1 -3 -2
-2 -2 -1 0 -1 0 -3 -1 -3 -2 0 1 -1 1 1 1 0 2 4 3 5 3 2 1 3 1 1 4 1 3 8 6 8
5 5 5 5 6 1 -1 1 0 0 1 0 1 2 0 1 0 0 -1 0 -2 2 -1 3 0 1 0 1 1 0 -1 0 -1 -2
-2 -3 -2 0 -1 0 -1 1 1 1 1 1 0 1 0 -1 -1 0 -2 1 0 2 0 1 1 0 1 -1 1 -2 2 5 4
5 5 7 9 7 8 0 -1 1 -1 2 0 2 0 3 3 3 4 0 1 0 1 2 2 2 2 2 4 3 5 3 7 4 7 2 1 2
2 2 0 2 0 1 -1z m84 -24 l0 -2 -2 -3 -3 -4 -3 -6 -3 -7 -2 0 -3 1 1 1 1 1 1
-1 1 0 0 1 0 1 1 2 1 3 0 1 0 1 2 2 2 2 2 4 2 4 1 0 1 0 0 -1z m-147 -6 l-2
-1 -5 -7 -6 -7 -1 0 -1 0 2 4 2 4 3 1 3 1 0 1 0 1 3 3 3 3 0 -1 0 0 -1 -2z
m-368 -32 l3 -1 0 -2 0 -2 -2 2 -1 2 -1 0 -1 0 -1 1 -1 1 0 0 1 0 3 -1z m38
-24 l3 -1 2 -1 2 0 7 -3 7 -4 10 -5 11 -5 2 -2 3 -3 2 0 3 0 7 0 7 -1 5 0 5
-1 2 -3 1 -2 0 -1 -1 -2 -7 2 -6 1 -4 1 -3 1 -8 2 -7 2 -3 2 -4 2 0 -1 -1 -1
-4 2 -4 2 -4 1 -3 1 -1 1 -1 1 -2 0 -1 0 -6 3 -5 2 0 2 1 2 -3 2 -2 2 -4 2 -4
3 1 0 0 1 2 -1 2 -2 3 -1z m442 -2 l-1 -1 0 1 0 2 1 0 0 1 1 -1 0 -1 -1 -1z
m-224 -13 l0 -1 -1 0 -1 -1 0 1 0 1 1 0 1 0 0 0z m-1 -4 l-1 -1 -3 0 -2 0 2 1
2 1 1 0 1 0 0 -1z m44 -2 l0 -1 -2 0 -1 0 0 -1 1 -1 -3 0 -4 -1 1 1 0 1 3 1 4
2 0 0 1 0 0 -1z m-495 -5 l-1 0 0 2 -1 2 1 -2 1 -1 0 -1z m429 -1 l0 -1 -4 -1
-4 -2 -5 0 -4 -1 -2 -1 -2 -1 -4 -1 -4 0 0 1 0 1 -2 0 -1 0 3 2 3 1 5 1 6 0 1
1 1 1 1 -1 1 -2 1 0 1 0 0 2 0 2 1 0 0 1 4 0 3 -1 1 -1z m-263 -1 l0 -2 1 1 1
0 0 0 0 -1 -1 -1 0 -2 -2 1 -2 1 0 2 0 2 1 0 1 0 1 -1z m-161 -2 l0 -1 5 -7 5
-6 1 -2 2 -1 2 -4 2 -3 0 -1 -1 0 -6 8 -5 7 -5 6 -4 6 1 0 2 0 1 -2z m433 -11
l-1 -2 -2 0 -2 -1 -1 1 0 1 2 1 3 1 1 0 1 0 -1 -1z m-12 -4 l0 -2 -10 -2 -9
-2 -5 -1 -4 0 0 1 0 1 4 0 3 0 0 1 0 2 4 1 4 1 5 1 5 1 1 0 0 1 1 -1 1 0 0 -2z
m-127 -1 l5 -1 -1 -2 -1 -2 -8 2 -8 2 -1 0 0 1 1 1 0 2 4 0 4 -1 5 -2z m-46
-6 l0 0 -1 -1 -1 -1 -2 1 -2 0 0 2 0 1 3 0 2 -1 1 -1z m-25 -7 l2 -1 -1 -3 -1
-2 -2 1 -2 0 -3 1 -3 1 0 1 0 1 2 2 1 2 2 -1 3 -1 2 -1z m31 -9 l1 -1 -1 -1
-1 -1 -2 0 -1 1 -1 1 0 2 2 0 2 0 1 -1z m35 -12 l0 -2 -2 0 -2 0 1 2 0 2 2 0
1 0 0 -2z m59 -9 l2 -1 -2 0 -1 0 -2 1 -1 1 1 0 1 0 2 -1z m223 -11 l2 0 -3
-2 -3 -3 -1 0 -1 0 1 1 0 1 2 2 2 2 0 -1 0 -1 1 1z m-423 -60 l-1 0 -1 0 -1 1
0 1 0 1 2 -1 1 -1 0 -1z m53 0 l1 -2 -2 0 -2 0 0 2 0 1 1 0 2 0 0 -1z m170 -3
l4 0 0 -1 0 -1 -2 -2 -3 -2 1 -2 1 -1 -1 -1 -1 -1 -2 0 -3 0 1 -1 0 -1 -2 -1
-2 -1 -3 -1 -4 0 0 -1 0 -1 -1 0 -2 0 0 2 -1 1 -1 0 -2 -1 0 2 -1 1 1 1 0 1 1
0 1 0 2 2 2 3 0 1 0 1 2 1 3 0 3 4 4 3 1 -2 1 -2 3 0z m29 1 l0 -1 -1 0 -1 0
1 1 0 1 1 0 0 0 0 -1z m-189 -2 l0 -1 0 0 -1 0 0 1 -1 1 1 0 1 0 0 -1z m173
-1 l-1 -1 -1 0 -1 0 0 1 0 1 2 0 1 0 0 -1z m13 -16 l0 -1 2 1 2 0 0 -1 0 -1 0
0 0 0 -5 -1 -5 0 0 1 0 1 2 -1 2 0 1 1 0 1 -1 0 -1 -1 0 1 -1 1 2 0 2 0 0 -1z"/>
<path d="M532 772 l0 -1 1 0 1 0 0 -1 -1 -1 -2 0 -2 0 0 -1 0 -1 1 0 1 0 2 -1
1 0 0 1 -1 2 1 0 0 1 1 1 0 2 -2 0 -1 1 0 -2z"/>
<path d="M759 289 l-1 -2 2 1 2 2 0 1 0 0 0 0 -1 0 -2 -2z"/>
<path d="M752 283 l-1 -2 0 0 1 -1 1 3 2 2 0 0 -1 0 -2 -2z"/>
<path d="M747 278 l-2 -2 0 0 0 -1 2 1 2 1 0 2 1 1 0 0 0 0 -3 -2z"/>
<path d="M498 216 l0 -1 1 1 1 0 0 1 0 0 -1 0 -1 0 0 -1z"/>
<path d="M560 215 l-2 0 0 -1 0 -1 3 1 3 0 -1 1 0 1 0 0 0 0 -3 -1z"/>
<path d="M535 214 l3 0 4 0 4 1 -7 0 -7 0 3 -1z"/>
<path d="M553 214 l1 0 1 0 0 1 -2 0 -1 0 1 -1z"/>
<path d="M634 934 l0 -1 1 0 1 0 0 1 0 1 -1 0 -1 0 0 -1z"/>
<path d="M400 926 l-3 -1 -3 0 -3 -1 -1 -1 -2 -1 0 -2 0 -1 1 -2 2 -2 3 1 4 0
1 2 1 3 2 0 3 1 0 2 0 2 -1 1 -2 1 -2 -2z"/>
<path d="M653 921 l2 -1 1 0 1 0 -2 1 -1 1 -1 0 -1 0 1 -1z"/>
<path d="M379 915 l0 -1 1 1 1 0 0 1 0 0 -1 0 -1 0 0 -1z"/>
<path d="M387 907 l1 0 1 0 0 1 -2 0 -1 0 1 -1z"/>
<path d="M389 903 l-2 -2 0 -1 1 -2 -2 0 -2 0 -1 -1 -1 -2 1 0 2 0 1 2 2 1 1
0 1 0 0 -1 0 -2 2 1 3 0 0 2 1 1 -1 1 -1 1 0 0 0 1 0 1 0 1 -2 0 -2 0 -1 -1z
m6 -5 l-1 -1 -1 0 -1 0 1 1 0 1 1 0 1 0 0 -1z"/>
<path d="M384 902 l1 0 1 0 0 1 -2 0 -1 0 1 -1z"/>
<path d="M373 900 l1 -1 2 1 1 0 0 1 0 0 -2 0 -2 0 0 -1z"/>
<path d="M297 886 l-7 -4 3 0 3 1 1 1 1 2 1 0 1 0 4 2 3 1 0 1 0 1 -2 0 -1 0
-7 -5z"/>
<path d="M326 887 l-1 -1 1 0 2 0 0 1 0 1 0 0 0 0 -2 -1z"/>
<path d="M353 887 l-2 -1 1 0 1 -1 1 1 1 1 0 0 0 1 -2 -1z"/>
<path d="M763 878 l0 -1 2 0 1 -1 -1 1 0 1 -1 0 -1 0 0 0z"/>
<path d="M289 872 l-2 -2 1 -1 2 -1 1 0 1 0 0 1 1 2 -1 2 -2 1 -1 -2z"/>
<path d="M280 868 l-2 -2 1 0 1 -1 1 1 2 1 -1 1 -1 1 -1 -1z"/>
<path d="M263 853 l0 -1 1 1 1 0 0 1 0 0 -2 0 -1 0 1 -1z"/>
<path d="M280 852 l-1 -1 1 -1 1 -1 1 1 1 2 0 0 0 1 -1 0 0 0 -2 -1z"/>
<path d="M260 849 l-1 -1 1 0 2 0 0 1 0 1 -1 0 -1 0 0 -1z"/>
<path d="M240 846 l-2 -1 -7 -6 -7 -5 1 0 2 -1 3 3 4 3 2 2 2 2 3 2 3 2 -1 0
0 0 -3 -1z"/>
<path d="M807 839 l-1 -1 1 0 1 0 1 1 1 1 -1 0 -1 1 -1 -2z"/>
<path d="M794 836 l0 -2 1 -2 1 -2 3 1 2 0 -1 2 -2 2 -2 2 -2 1 0 -2z"/>
<path d="M224 832 l0 -1 1 0 0 0 0 1 0 1 -1 0 -1 0 1 -1z"/>
<path d="M467 826 l-2 -1 2 0 2 0 0 1 0 1 0 0 0 0 -2 -1z"/>
<path d="M810 819 l1 -2 1 0 1 0 0 1 0 1 -1 1 -1 1 -1 0 -1 0 1 -2z"/>
<path d="M821 819 l-1 -1 0 -1 0 0 2 0 2 0 0 1 1 2 -1 0 0 1 -2 0 -1 0 0 -2z"/>
<path d="M240 818 l-2 -2 2 1 2 1 1 1 0 1 0 0 -1 0 -2 -2z"/>
<path d="M211 816 l-2 -3 1 -1 1 -1 3 1 2 1 0 2 0 2 -2 1 -1 0 -2 -2z"/>
<path d="M593 799 l0 -1 1 -3 0 -2 2 0 2 0 1 1 1 2 -1 2 -1 2 -3 0 -2 0 0 -1z"/>
<path d="M201 783 l-1 -1 -2 0 -1 1 -2 -3 -2 -3 -7 -6 -6 -5 -9 -10 -9 -9 -1
1 -1 2 -2 -3 -3 -3 -1 0 -1 0 1 1 0 1 -1 0 -1 -1 -2 -2 -1 -2 1 -1 0 -1 2 2 2
1 0 -1 0 0 -4 -4 -3 -4 0 1 1 1 -1 0 -1 0 -1 -2 -1 -1 1 0 1 1 1 -3 1 -3 -3
-3 -2 -4 -3 -1 -3 -1 -2 1 -2 1 -3 -2 -2 -2 -2 -5 -3 -5 2 0 1 1 0 -1 0 0 -1
-2 -1 -2 -2 0 -1 -1 1 1 1 1 0 1 0 1 -2 -1 -2 -2 -2 0 -2 1 -1 -2 -1 -2 2 0 1
-1 1 1 1 2 0 -2 0 -1 -1 0 -1 -1 0 -2 0 -2 2 -1 1 -1 0 -5 -1 -5 -2 -2 -1 -3
0 -3 -1 -2 -1 -1 -2 0 -2 -1 -1 -2 2 -1 2 -2 1 0 1 1 -1 -3 0 -3 -3 -6 -2 -5
-2 0 -1 1 -1 -3 -2 -2 0 -1 0 -2 2 -1 1 -1 -3 -8 -2 -7 -1 -1 -1 0 0 -3 -1 -3
-1 -1 -2 -1 0 -2 0 -2 -1 -5 0 -5 -2 -3 -2 -2 0 -2 1 -2 -2 -2 -1 -1 0 -3 -1
-3 1 0 2 0 -1 1 0 2 1 -2 1 -1 1 0 1 0 0 1 0 2 2 1 2 1 -2 0 -1 0 1 4 0 5 2 4
1 4 2 2 2 3 2 -1 1 0 0 3 0 2 3 3 4 3 -4 -1 -4 0 0 1 0 1 1 0 1 0 0 2 0 2 1 1
1 0 -1 2 0 1 1 2 2 1 -1 1 0 2 1 -1 0 -1 3 2 2 1 0 -1 0 -1 -1 0 -1 0 0 -1 1
-1 -2 -3 -1 -2 0 -1 1 0 2 0 2 -1 1 0 1 0 -1 -2 0 -3 -1 1 -1 0 -1 -3 -1 -3
-2 -1 -3 0 -1 -2 -1 -2 1 -1 2 -2 0 -1 -1 -1 2 0 2 1 1 0 2 1 3 1 4 2 1 1 0 1
-1 -1 -2 0 0 1 0 1 2 0 2 0 -1 3 0 3 1 0 2 -1 -1 2 0 3 1 1 1 0 0 -2 -1 -1 1
1 1 1 -1 3 -1 2 -1 -1 -2 -1 -1 1 -1 1 1 3 1 4 2 1 2 2 -2 -1 -2 -1 0 1 0 1
-2 -2 -1 -2 -1 0 -1 0 0 1 1 1 1 2 1 1 -2 0 -2 0 -1 1 0 1 -2 1 -1 2 0 1 0 2
2 2 1 2 1 -1 1 0 0 2 0 3 2 2 2 2 0 -2 -1 -1 3 2 3 2 2 5 2 5 -1 0 0 0 -2 -3
-2 -3 0 1 1 2 -1 0 0 0 -2 -4 -1 -3 -1 1 -1 1 3 5 2 4 1 2 0 2 1 1 1 1 1 2 1
3 1 0 1 0 0 -1 0 -1 -1 0 -1 0 0 -3 1 -3 0 1 1 0 1 -1 0 -2 -1 -2 -1 -1 0 -1
1 0 2 2 1 3 4 0 4 0 0 -1 1 -1 2 0 3 0 1 1 0 1 -2 0 -3 -1 1 2 1 2 2 -1 2 -1
0 0 1 0 0 1 0 1 -1 -1 -1 0 0 1 1 2 -2 1 -1 2 3 5 3 5 0 2 0 3 2 1 1 2 1 -1 1
-1 0 1 1 1 -1 2 0 2 1 -2 1 -1 0 1 1 1 0 1 -1 1 1 -1 2 0 1 2 2 3 1 0 1 0 0
-3 0 -3 1 0 1 0 2 3 2 2 -1 1 0 1 1 0 2 -1 1 2 1 2 -1 1 0 1 -2 0 -1 0 -2 -2
-1 -3 -1 1 -1 0 1 1 0 1 -2 1 -2 0 2 2 2 1 2 -1 2 0 0 1 0 1 3 3 3 3 1 0 1 0
-1 -1 -1 -1 0 -2 -1 -2 2 1 2 1 1 -1 0 0 0 1 -1 1 1 2 2 1 -2 0 -1 -1 0 3 0 3
2 0 1 1 1 0 0 0 -1 -2 -1 -2 1 0 1 0 2 2 3 3 0 1 0 1 -1 -1 -1 -1 -2 0 -2 0 1
3 1 3 3 2 4 2 3 3 3 3 0 -1 1 -1 -4 -4 -3 -3 0 -2 0 -1 2 1 2 1 7 8 8 7 1 0 0
-1 -1 -1 -1 -2 1 -2 0 -2 -6 -7 -6 -7 0 -2 1 -1 2 1 2 1 7 7 8 8 0 2 0 3 -2 1
-1 2 -2 0 -1 1 1 0 1 0 -1 1 0 2 2 2 3 2 1 1 2 2 -1 1 0 2 -1 -1 -1 0 1 -1 0
-1 -1 0 -1 1 -1 -2 -1 -1 -1 0 -1 0 1 2 2 1 -2 0 -2 -1 1 2 2 2 -1 1 -2 0 -1
0 -1 -1 0 2 0 2 1 -1 1 0 0 2 0 1 1 0 1 -1 0 2 1 1 2 0 3 0 1 1 1 1 0 2 0 2
-1 1 -1 2 -3 -1 -2 0 -1 -1 -1 -1 0 -3 0 -2 -2 -1 -2 -1 0 1 0 1 -1 -1 -2 -1
-1 2 -2 2 0 1 0 1 -2 -1 -2 0 1 2 1 2 0 1 0 0 -1 0 -2 -1 0 1 0 1 -1 0 -1 0 0
-1z m0 -10 l-1 -2 -4 -3 -4 -3 1 1 0 2 1 0 1 0 0 1 0 1 3 3 3 3 1 0 0 -1 -1
-2z m6 1 l0 -1 0 -2 0 -1 2 -1 3 0 1 -3 1 -3 -3 -2 -2 -1 -1 1 -2 0 0 2 0 2
-1 1 -2 2 1 1 0 2 -2 -2 -2 -2 -2 -2 -1 -1 -1 0 -1 0 5 5 6 6 0 0 1 0 0 -1z
m-7 -14 l-1 -2 1 1 2 1 0 0 1 0 0 -3 0 -2 -1 -3 -1 -2 -2 1 -1 2 0 1 0 1 -2 0
-2 0 0 -3 0 -2 -1 0 -2 0 0 -1 0 -1 2 0 2 -1 0 -1 0 -1 -4 -4 -3 -4 -3 -3 -3
-3 -2 -1 -2 -1 0 2 -1 1 1 2 0 2 1 0 1 0 0 1 0 1 -2 -1 -3 0 0 1 0 1 2 3 2 3
-1 0 -2 1 0 -1 0 0 0 -2 0 -1 -2 0 -3 0 0 1 0 0 7 7 7 7 1 0 0 -1 -1 -1 -2 -2
0 -2 1 -2 1 0 1 0 3 3 3 2 0 1 0 1 3 3 4 4 2 -1 1 0 -2 -2z m-10 -1 l-1 -1 -1
0 -1 0 0 1 0 1 1 1 1 1 2 -1 1 0 -2 -2z m26 -1 l-1 -1 0 -2 -1 -1 -1 -1 -2 0
0 2 1 1 1 2 2 2 1 0 0 0 0 -2z m-6 -5 l0 0 -2 -2 -1 -2 1 -1 1 -1 -2 0 -1 0
-2 0 -2 0 -1 1 0 1 4 2 3 3 1 0 1 0 0 -1z m-45 -25 l-2 -1 1 2 1 2 1 -1 0 0
-1 -2z m-21 -19 l0 0 -2 -3 -2 -3 -2 -2 -1 -1 0 -1 -1 -1 0 0 -1 1 4 5 4 6 0
0 1 0 0 -1z m0 -7 l-1 -2 2 1 1 2 0 -2 -1 -1 -3 -4 -3 -4 -1 0 -1 0 3 6 4 6 0
0 0 0 0 -2z m-24 -30 l-1 -1 -1 0 -1 0 1 1 2 1 0 0 0 0 0 -1z m-4 -58 l0 -1
-1 0 -1 0 0 1 0 1 0 0 1 0 1 -1z"/>
<path d="M181 749 l-2 -2 0 -1 1 0 1 0 1 1 0 2 1 2 -1 0 0 0 -1 -2z"/>
<path d="M236 775 l-7 -7 6 4 6 5 1 2 2 2 -1 0 0 1 -7 -7z"/>
<path d="M850 778 l-1 -1 1 -2 1 -2 1 -1 2 -1 0 3 -1 4 0 0 0 1 -1 0 -2 0 0
-1z"/>
<path d="M611 775 l1 -3 0 0 1 0 0 2 0 2 2 -1 1 0 -1 1 0 2 -2 0 -2 0 0 -3z"/>
<path d="M341 774 l-1 -1 0 0 1 -1 1 1 1 1 0 0 -1 1 -1 -1z"/>
<path d="M577 768 l0 -2 0 -1 1 -2 1 0 2 0 1 1 1 2 -2 1 -1 2 -1 0 -1 0 -1 -1z"/>
<path d="M361 767 l-1 -1 1 0 1 0 1 1 2 1 -2 0 -2 0 0 -1z"/>
<path d="M857 766 l-2 -2 2 -2 2 -2 1 2 2 2 -1 1 0 2 -1 0 -2 1 -1 -2z"/>
<path d="M585 766 l-1 -1 2 -2 2 -3 1 0 1 1 1 1 0 1 -2 2 -2 2 -1 0 -1 0 0 -1z"/>
<path d="M362 764 l-3 -1 -1 -1 -1 -1 1 -1 0 -2 2 0 1 0 2 2 2 2 2 0 3 1 0 1
0 1 -2 0 -2 0 -4 -1z"/>
<path d="M320 764 l0 -1 0 -1 -1 -1 1 -1 2 -1 0 0 1 0 0 2 0 1 -2 0 -1 0 1 1
0 1 0 0 -1 0 0 0z"/>
<path d="M333 763 l-3 -2 2 0 2 0 1 2 2 1 -1 0 0 0 -3 -1z"/>
<path d="M659 763 l0 -1 1 0 1 0 0 1 -1 1 -1 0 0 0 0 -1z"/>
<path d="M331 758 l-5 -3 -1 0 0 -1 4 2 5 1 1 2 2 1 -1 0 0 0 -5 -2z"/>
<path d="M666 757 l-2 -2 0 -1 0 -1 1 -1 1 0 4 0 4 -1 0 1 0 1 -3 3 -3 3 -2
-2z"/>
<path d="M856 758 l0 -1 1 0 1 0 0 1 -1 1 -1 0 0 0 0 -1z"/>
<path d="M858 755 l0 -1 1 0 1 0 0 1 -1 1 -1 0 0 0 0 -1z"/>
<path d="M657 753 l1 -2 1 0 0 0 -1 2 -2 2 -1 0 0 0 2 -2z"/>
<path d="M148 751 l0 -1 2 0 1 0 0 0 0 1 -1 0 -2 1 0 -1z"/>
<path d="M571 751 l0 -2 1 0 1 1 0 1 0 0 -1 1 -1 0 0 -1z"/>
<path d="M878 748 l1 -2 1 0 1 0 -1 2 -1 2 -1 0 -1 0 1 -2z"/>
<path d="M679 740 l2 -3 1 0 0 1 0 1 -1 1 -2 1 -2 1 2 -2z"/>
<path d="M252 724 l0 -3 1 0 1 0 0 1 0 1 1 0 2 0 1 1 0 1 -2 0 -3 -1 0 1 -1 2
0 -3z"/>
<path d="M880 712 l0 -1 0 -1 0 0 1 -2 1 -1 1 1 2 0 -2 2 -2 2 1 0 1 -1 -1 1
0 2 -2 0 -1 0 1 -2z"/>
<path d="M114 706 l-1 -1 1 0 1 0 0 1 0 1 0 0 -1 0 0 -1z"/>
<path d="M885 706 l0 -1 -1 -2 0 -1 1 1 1 1 1 -3 2 -2 0 1 0 1 -2 3 -2 4 0 -2z"/>
<path d="M175 698 l-2 -1 0 -1 0 -1 3 0 2 0 0 3 0 2 -1 0 -1 0 -1 -2z"/>
<path d="M890 695 l0 -2 1 0 1 0 -1 2 0 2 -1 0 -1 1 1 -3z"/>
<path d="M110 695 l-1 -2 -1 -2 -1 -1 3 3 3 3 0 0 0 1 -1 0 -1 0 -1 -2z"/>
<path d="M182 692 l-1 -2 1 0 1 0 1 1 1 1 0 1 0 1 -1 0 -1 0 -1 -2z"/>
<path d="M891 680 l0 -1 0 0 1 0 1 1 1 2 -2 0 -2 0 1 -2z"/>
<path d="M127 671 l0 -1 1 1 1 0 0 1 0 0 -1 0 -1 0 0 -1z"/>
<path d="M145 668 l0 -1 0 -1 1 0 0 1 1 2 0 0 -1 0 -1 -1z"/>
<path d="M416 667 l-3 -1 2 1 3 0 1 1 2 1 -1 0 -1 0 -3 -2z"/>
<path d="M739 664 l0 -2 1 -1 1 -1 2 0 1 0 0 2 0 3 -2 0 -1 1 -1 0 -1 0 0 -2z"/>
<path d="M110 659 l-2 -2 1 0 1 0 1 2 1 1 0 0 -1 1 -1 -2z"/>
<path d="M133 659 l-2 -2 2 0 2 -1 1 1 2 0 0 -2 0 -3 -2 -1 -1 -1 2 0 2 1 1 1
0 2 1 1 2 1 -1 1 0 2 -2 -1 -1 0 0 1 0 1 -2 0 -2 1 -2 -2z"/>
<path d="M95 648 l1 -2 -2 -1 -1 -1 0 -2 0 -2 2 -1 2 -1 0 0 0 1 1 3 0 4 0 1
1 2 -2 1 -2 0 0 -2z"/>
<path d="M409 648 l-3 -1 -4 -2 -4 -2 -2 -2 -1 -1 6 3 7 3 2 1 3 2 -1 0 0 0
-3 -1z"/>
<path d="M765 644 l0 -1 2 -4 2 -5 0 0 1 0 -1 3 -2 4 -1 2 -1 2 0 -1z"/>
<path d="M133 641 l-1 -2 0 -1 0 -1 2 2 1 2 -1 1 -1 1 0 -2z"/>
<path d="M100 639 l-1 0 0 -2 0 -2 1 0 1 1 0 2 1 2 -1 0 -1 0 0 -1z"/>
<path d="M129 633 l0 -2 2 2 1 1 -1 1 0 1 -1 0 -1 0 0 -3z"/>
<path d="M592 630 l0 -1 3 -2 3 -2 1 0 2 -1 -3 2 -2 2 -2 1 -2 2 0 -1z"/>
<path d="M128 627 l-1 -1 1 1 1 1 0 1 -1 0 0 -2z"/>
<path d="M767 627 l-1 -1 1 0 1 -1 0 1 0 2 0 0 -1 0 0 -1z"/>
<path d="M773 626 l0 -1 3 -11 4 -10 -1 3 0 3 0 1 -1 2 -1 5 -2 6 -1 1 -1 2 0
-1z"/>
<path d="M779 619 l0 -2 1 -3 1 -2 1 -4 1 -4 0 2 1 3 -3 6 -2 6 0 -2z"/>
<path d="M770 612 l-1 -1 1 1 2 0 0 1 0 0 -1 0 -1 0 0 -1z"/>
<path d="M311 609 l0 -1 0 -1 1 0 0 1 1 2 0 0 -1 0 -1 -1z"/>
<path d="M101 603 l0 -1 -1 0 -2 0 0 -1 0 0 2 -2 1 -1 1 0 2 1 -1 2 0 2 0 0 0
1 -1 0 -1 0 0 -1z"/>
<path d="M117 602 l0 -2 0 0 1 0 0 2 1 1 -1 0 -1 0 0 -1z"/>
<path d="M304 600 l0 -1 -5 -5 -4 -5 1 0 0 0 -1 -1 -1 -2 1 -1 1 0 1 1 2 2 3
6 4 6 0 0 0 1 -1 0 -1 0 0 -1z"/>
<path d="M164 597 l0 -1 1 1 0 1 0 1 -1 0 0 -2z"/>
<path d="M102 590 l-2 -2 1 -1 0 -1 1 1 0 2 2 0 1 -1 0 2 0 2 0 0 -1 0 -2 -2z"/>
<path d="M103 584 l-1 -1 1 -2 1 -1 0 3 0 3 -1 0 0 0 0 -2z"/>
<path d="M100 582 l0 -2 -2 1 -2 1 -1 -1 -1 -2 0 -1 1 -1 2 0 2 0 1 1 1 1 0 3
0 2 -1 0 -1 0 1 -2z"/>
<path d="M111 580 l0 -1 1 1 0 1 0 1 -1 0 0 -2z"/>
<path d="M317 573 l-5 -7 0 -1 0 -1 -1 0 -1 1 0 -1 0 -1 -3 -8 -4 -8 0 -1 0 0
2 2 2 2 1 4 1 4 1 2 2 1 1 1 1 2 0 1 0 1 1 1 2 1 3 6 3 6 -1 0 -1 0 -4 -7z"/>
<path d="M88 573 l0 -1 1 1 1 0 0 1 0 0 -2 0 -1 0 1 -1z"/>
<path d="M136 570 l0 -2 1 0 0 0 0 2 0 1 -1 0 -1 0 1 -1z"/>
<path d="M349 562 l0 -1 1 0 0 0 0 1 0 1 -1 0 -1 0 1 -1z"/>
<path d="M83 560 l0 -1 0 -2 1 -3 -1 -1 -2 -1 0 -7 0 -6 1 2 1 2 2 -1 3 0 1 2
2 3 -1 2 0 2 -2 2 -2 3 1 1 1 1 0 2 0 1 -2 1 -2 0 -1 -2z"/>
<path d="M98 559 l-1 -2 2 -2 1 -2 1 1 1 0 0 3 0 3 -2 0 -1 0 -1 -1z"/>
<path d="M289 557 l-1 -2 0 -1 1 0 1 2 1 3 0 0 -1 0 -1 -2z"/>
<path d="M104 553 l0 0 0 -3 -1 -2 1 1 0 0 1 3 0 2 0 0 -1 0 0 -1z"/>
<path d="M287 552 l-1 -1 -1 -2 -1 -3 0 0 1 0 2 3 1 3 0 1 -1 0 0 -1z"/>
<path d="M99 548 l-1 -1 0 -2 0 -2 1 1 1 1 2 0 2 1 -1 2 -1 2 -2 0 -1 0 0 -2z"/>
<path d="M281 544 l-1 -1 2 0 2 0 0 1 0 1 -2 0 -1 0 0 -1z"/>
<path d="M284 540 l0 -1 1 1 1 1 0 0 1 1 -1 0 -2 0 0 -2z"/>
<path d="M281 540 l0 -1 0 -1 1 0 0 1 1 2 0 0 -1 0 -1 -1z"/>
<path d="M299 538 l-1 0 0 -1 0 -1 1 1 1 1 0 0 -1 1 0 -1z"/>
<path d="M283 537 l0 -2 -1 -2 0 -1 1 1 1 2 0 2 -1 2 0 -2z"/>
<path d="M288 532 l-2 -2 1 0 2 -1 2 2 2 1 -1 1 -1 1 -3 -2z"/>
<path d="M78 521 l0 -9 -3 -1 -3 0 -1 1 0 1 -1 -1 -1 0 0 -3 0 -2 1 0 0 1 2
-1 1 -1 0 -3 0 -3 1 0 1 0 -1 -4 0 -3 -1 -2 -1 -1 1 0 1 -1 0 -4 0 -4 1 -1 1
-1 1 -9 0 -9 1 -4 1 -3 1 0 1 0 1 1 1 1 1 2 0 3 -1 5 -1 6 0 6 0 6 1 1 1 0 0
4 0 3 -2 3 -1 2 -1 2 0 2 2 1 2 1 0 2 0 2 -2 2 -2 3 0 2 0 2 1 1 1 1 -1 1 -2
0 0 1 0 1 2 2 1 2 0 2 -1 3 -1 0 -1 0 -1 -9z m2 -41 l0 -1 -1 0 -1 -1 0 1 0 1
1 0 1 0 0 0z"/>
<path d="M129 527 l-1 -1 0 -7 -1 -7 0 1 1 1 1 7 1 8 -1 0 0 0 0 -2z"/>
<path d="M88 527 l-1 0 0 -1 0 -1 1 1 1 1 0 0 -1 1 0 -1z"/>
<path d="M124 526 l0 -1 0 -1 1 0 1 0 1 1 0 1 0 1 -1 0 -1 0 -1 -1z"/>
<path d="M954 522 l0 -2 0 -4 1 -4 0 -1 1 0 1 0 0 1 1 4 0 4 0 2 -1 3 -1 0 -1
0 -1 -3z"/>
<path d="M98 519 l0 -3 0 -1 0 -1 1 0 1 0 0 4 0 4 0 0 -1 0 -1 -3z"/>
<path d="M94 519 l0 -1 1 0 1 -1 0 1 0 1 -1 1 -1 0 0 -1z"/>
<path d="M85 518 l0 -1 1 0 1 0 0 1 0 1 -1 0 -1 0 0 -1z"/>
<path d="M132 516 l0 -1 1 1 0 1 0 1 -1 0 0 -2z"/>
<path d="M134 516 l-1 -3 1 -1 0 0 1 0 0 1 0 3 -1 3 0 -3z"/>
<path d="M73 514 l0 -1 1 1 0 1 0 1 -1 0 0 -2z"/>
<path d="M94 510 l0 -3 1 1 1 0 0 2 0 2 -1 0 0 0 -1 -2z"/>
<path d="M115 497 l0 -2 1 1 1 0 0 2 0 1 -1 0 -1 0 0 -2z"/>
<path d="M125 490 l0 -4 1 2 0 2 0 2 -1 3 0 -5z"/>
<path d="M93 478 l0 -1 0 -1 1 0 1 1 1 1 -1 0 -1 1 -1 -1z"/>
<path d="M118 478 l0 0 1 -2 1 -1 0 2 0 2 -1 0 -1 0 0 -1z"/>
<path d="M776 461 l-1 -2 0 0 0 -1 2 0 2 1 0 1 0 2 -1 0 0 0 -2 -1z"/>
<path d="M116 458 l0 -1 1 1 0 1 0 1 -1 0 0 -2z"/>
<path d="M94 445 l0 -2 1 1 2 1 0 -1 1 0 0 1 0 1 -2 0 -2 1 0 -2z"/>
<path d="M95 437 l0 -2 1 1 0 1 0 1 -1 2 0 -3z"/>
<path d="M602 401 l-6 -4 0 0 1 0 3 2 3 1 3 3 4 3 -1 0 0 0 -7 -5z"/>
<path d="M463 403 l-2 -1 -1 -1 -1 -2 1 -1 2 -2 2 -1 3 -1 0 1 0 1 1 0 2 0 0
1 1 1 -2 3 -1 3 -1 0 -1 0 -3 -1z"/>
<path d="M426 395 l-1 -1 2 -3 2 -2 1 0 1 1 1 -2 2 -2 0 1 0 1 -4 4 -4 4 0 -1z"/>
<path d="M481 386 l1 -2 2 0 1 0 0 -1 1 -1 3 0 4 -1 0 1 0 2 -1 0 -2 0 -1 2
-1 1 -4 0 -4 0 1 -1z"/>
<path d="M564 384 l1 0 1 0 0 1 -2 0 -1 0 1 -1z"/>
<path d="M520 383 l0 -1 1 0 0 0 0 1 0 1 -1 0 -1 0 1 -1z"/>
<path d="M554 382 l-4 -1 4 0 4 1 1 0 0 1 0 0 0 1 -5 -2z"/>
<path d="M532 382 l-2 -2 3 -1 4 0 3 0 2 1 -2 2 -1 1 -2 0 -2 0 -3 -1z"/>
<path d="M546 380 l1 0 1 0 0 1 -2 0 -1 0 1 -1z"/>
<path d="M524 371 l-3 0 -1 -2 0 -1 4 -1 5 -1 2 1 3 0 0 2 0 2 -2 0 -1 1 -2 0
-2 0 -3 -1z"/>
<path d="M133 367 l-1 0 0 -2 0 -1 1 1 1 0 -1 -2 -1 -1 1 -2 0 -2 2 0 1 -1 1
0 0 1 -1 4 -1 5 -1 0 -1 1 0 -1z"/>
<path d="M516 359 l-1 -1 2 0 3 0 0 1 0 1 -1 0 -1 1 -2 -2z"/>
<path d="M524 357 l0 -2 2 1 1 0 0 1 -1 1 -1 1 -1 0 0 -2z"/>
<path d="M145 340 l0 -1 2 -4 2 -4 -1 2 0 2 -2 3 -1 4 0 -2z"/>
<path d="M150 328 l0 -2 2 -3 1 -3 0 0 1 0 -2 5 -2 4 -1 1 0 1 1 -3z"/>
<path d="M164 283 l0 -1 2 -4 2 -3 1 0 0 0 -1 3 -2 3 -1 1 -1 2 0 -1z"/>
<path d="M178 245 l0 -1 6 -9 6 -8 0 -1 0 -1 5 -5 4 -4 7 -9 7 -9 2 -2 2 -2
-3 5 -2 5 -3 4 -4 4 -3 5 -4 6 -2 2 -2 2 -2 4 -3 4 -3 1 -3 2 0 1 0 1 -3 3 -3
4 1 -2z"/>
<path d="M846 239 l-1 -2 1 0 1 0 1 1 0 1 0 1 -1 0 -1 -1z"/>
<path d="M851 237 l0 -1 1 1 0 1 0 1 -1 0 0 -2z"/>
<path d="M812 179 l-2 -3 -2 1 -1 1 0 -1 0 0 -1 -3 -1 -2 -2 0 -1 0 -3 -3 -3
-4 0 -1 0 -1 1 1 1 0 -1 1 0 1 2 0 2 0 4 4 4 4 2 1 3 2 1 2 1 2 -1 0 -1 0 -2
-2z"/>
<path d="M782 164 l-1 -2 2 0 1 -1 0 -1 -1 -2 2 0 1 -1 1 0 1 0 0 1 0 1 -2 0
-1 -1 1 2 2 2 -2 0 -2 1 0 1 0 1 -1 0 -1 0 0 -1z"/>
<path d="M774 151 l0 -1 1 -1 2 -1 2 0 3 1 0 2 0 2 -4 0 -3 0 -1 -2z"/>
<path d="M766 141 l0 -2 -1 -1 -2 -1 0 1 0 2 -2 0 -1 0 0 -2 1 -1 0 -1 0 -1 4
2 5 2 0 2 1 2 -3 0 -2 0 0 -2z"/>
<path d="M758 135 l-1 -1 0 -1 1 0 1 1 1 1 -1 1 -1 1 0 -2z"/>
<path d="M323 114 l-1 -1 1 0 1 -1 1 1 1 0 -1 1 0 1 -1 0 -1 0 0 -1z"/>
<path d="M701 102 l0 -2 2 1 1 0 0 2 0 1 -1 0 -2 0 0 -2z"/>
<path d="M433 84 l0 -1 1 0 0 0 0 1 0 1 -1 0 -1 0 1 -1z"/>
<path d="M419 65 l0 -1 2 0 1 0 0 1 -1 1 -2 0 -1 0 1 -1z"/>
</g>
</svg>
