<?xml version="1.0" standalone="no"?>
<!DOCTYPE svg PUBLIC "-//W3C//DTD SVG 20010904//EN"
 "http://www.w3.org/TR/2001/REC-SVG-20010904/DTD/svg10.dtd">
<svg style="fill: black; stroke: black;" version="1.0" xmlns="http://www.w3.org/2000/svg"
 width="408.073537pt" height="754.500000pt" viewBox="0 0 408.073537 754.500000"
 preserveAspectRatio="xMidYMid meet">
<metadata>
Created by potrace 1.16, written by Peter Selinger 2001-2019
</metadata>
<g transform="translate(-313.838011,906.500000) scale(1.000000,-1.000000)"
fill="#FFD700" data-original="#000000" stroke="none">
<path d="M598 905 l-1 -1 -1 -10 -1 -10 1 -9 1 -8 4 -8 4 -7 3 -6 4 -6 5 -4 6
-4 4 -5 4 -5 5 -10 5 -10 2 -9 1 -9 3 -8 2 -7 0 1 0 2 2 -4 2 -3 0 -2 0 -1 -2
3 -1 3 -1 0 0 -1 2 -5 2 -4 -1 -2 -2 -1 0 0 -1 0 -1 4 -1 4 -3 7 -3 6 -5 4 -4
4 -7 3 -6 3 -9 2 -9 2 -3 1 -2 1 -7 4 -6 5 -3 5 -3 5 -2 2 -3 2 0 0 0 0 2 -8
1 -7 2 -6 2 -5 3 -4 3 -4 5 -3 5 -3 4 -1 5 -2 6 -5 7 -4 3 -6 3 -5 4 -10 4 -9
1 -12 1 -12 -2 -6 -1 -5 -4 -6 -3 -6 -5 -7 -6 -7 -6 -4 -5 -5 -1 1 0 0 1 3 1
4 1 9 1 9 -2 10 -2 10 0 5 0 6 -1 -2 -2 -2 -1 -6 -2 -6 -1 -8 -1 -7 -4 -7 -4
-6 -2 -7 -2 -6 -6 -4 -5 -4 -3 -2 -2 -2 -1 0 0 0 -1 -2 0 -1 -4 -4 -3 -4 -4
-2 -3 -1 -4 -6 -3 -6 -1 -1 -1 -1 -1 1 0 2 -4 0 -4 1 -2 -2 -1 -2 0 -1 0 -1
-4 -5 -5 -6 0 -1 0 -2 2 -3 2 -2 0 -1 0 -2 -3 -2 -2 -3 -2 1 -3 0 0 -2 -1 -1
-1 2 -1 2 -1 -3 0 -2 -1 0 -1 0 0 2 -1 2 -3 1 -3 1 1 6 0 6 -2 2 -2 3 -4 5 -5
6 -1 2 -2 3 -2 0 -2 0 -2 3 -2 3 -3 2 -3 1 -8 2 -8 2 -5 2 -5 2 -6 3 -5 2 -1
2 -1 1 -6 6 -6 6 -4 5 -4 5 -2 4 -1 4 -3 8 -3 9 0 6 -1 6 1 6 1 6 2 4 1 4 2 0
2 1 3 5 4 6 4 9 4 10 0 1 0 1 -7 -5 -6 -5 -5 -5 -4 -5 -3 -4 -2 -4 -2 -3 -1
-3 -2 -5 -1 -5 0 -5 0 -4 -2 5 -1 5 -1 10 0 11 4 13 4 13 2 8 2 8 4 6 5 6 2 3
1 4 2 5 3 5 1 2 1 3 2 4 2 5 -1 0 0 1 -3 -2 -3 -1 1 2 2 2 0 1 1 2 -2 -1 -2 0
0 1 0 1 1 0 1 1 1 5 1 5 2 1 1 0 0 1 -1 1 3 9 3 9 1 1 0 2 0 0 1 1 4 6 4 6 2
4 2 5 1 1 1 2 -1 0 -1 0 -4 -7 -5 -6 -7 -8 -8 -8 -4 -7 -4 -6 -2 -2 -3 -1 -2
-4 -2 -3 -2 0 -1 0 -3 -4 -3 -4 -4 -11 -5 -10 0 -1 0 -1 -1 0 -1 -1 -3 11 -4
11 -1 1 -1 0 0 -10 1 -9 1 -8 1 -7 -1 -12 -1 -12 0 -17 -1 -17 -1 -2 0 -2 -1
0 0 0 -5 5 -4 6 -2 5 -2 5 -4 4 -5 5 -1 4 -1 4 -2 6 -1 6 -1 1 -1 1 -1 5 -1 6
1 6 2 6 0 2 0 1 -1 0 -1 0 -4 -6 -4 -6 -1 -5 -2 -5 -1 -13 0 -12 -3 3 -2 3 -1
0 -1 0 1 -3 0 -3 4 -6 3 -6 0 0 0 -1 4 -6 4 -5 1 -4 2 -4 6 -4 5 -4 4 -5 4 -5
4 -6 4 -5 3 -7 3 -7 5 -10 6 -11 4 -4 3 -4 0 -1 0 -1 -2 0 -2 1 0 -1 0 -1 -4
2 -3 2 -3 1 -3 2 -7 3 -7 4 -1 0 -2 0 0 -1 0 -1 -3 0 -3 0 -1 2 0 1 -3 0 -2 0
-5 3 -6 3 -5 4 -6 5 -2 4 -3 4 -2 3 -2 4 0 -5 1 -5 2 -8 3 -8 1 -3 2 -3 5 -5
4 -5 0 -2 0 -1 1 0 1 1 1 -2 1 -1 6 -3 7 -3 3 -2 3 -3 3 -2 3 -1 8 -1 8 -1 5
-2 5 -2 5 0 5 0 6 -1 6 0 5 -4 6 -5 8 -5 8 -6 5 -1 5 -2 9 -2 10 -2 6 -5 5 -4
4 -9 4 -8 -1 -1 -1 -1 -4 2 -3 3 -8 7 -7 7 -6 2 -6 2 -7 1 -7 1 -5 2 -5 2 -8
3 -7 4 -1 0 -1 0 0 -2 0 -1 4 -9 4 -9 3 -8 3 -8 5 -6 6 -6 4 -4 5 -3 9 -1 9
-1 3 -1 3 -1 0 -1 0 -1 -1 -2 -1 -2 1 -2 2 -3 -10 -10 -10 -11 -6 -4 -6 -4 -2
-2 -2 -2 -8 -4 -8 -4 -2 -3 -2 -2 0 -2 0 -2 2 -2 1 -2 0 -2 -1 -2 1 -3 1 -2 3
-2 4 -2 0 -3 1 -3 2 -1 3 -1 6 -2 6 -3 3 0 2 0 4 2 4 2 2 2 2 2 5 -1 5 0 1 0
1 0 3 1 4 1 10 0 10 1 0 -1 1 -1 -3 -2 -2 -3 -2 -2 -2 -2 0 -2 0 -2 -1 0 0 -1
-1 -1 0 -2 -2 -3 -2 -3 -3 -8 -4 -9 1 -2 2 -3 1 1 2 1 0 -1 0 -1 -5 -7 -4 -6
-2 -3 -1 -3 1 -3 1 -2 -2 -5 -1 -4 -1 -7 0 -6 5 -5 4 -5 0 -3 0 -2 1 0 1 0 0
-1 0 -2 -2 -1 -1 -1 2 0 3 1 -3 -2 -2 -2 2 0 2 1 -1 -2 0 -2 -2 -1 -1 -1 0 -2
0 -2 -1 1 -1 0 0 -1 0 -2 -1 0 -1 0 -2 2 -3 3 0 -1 -1 0 0 -3 0 -2 -1 0 -1 0
0 -2 1 -2 -3 -1 -2 -1 1 1 1 1 0 2 0 1 -1 -1 -1 0 -1 3 0 3 -2 -2 -1 -2 -2 1
-1 1 1 -2 0 -2 -1 0 -1 0 0 -2 0 -3 -1 0 -1 0 0 -3 0 -4 1 -5 2 -4 -2 -2 -2
-2 1 -1 1 0 -1 -3 0 -3 1 0 1 0 0 -2 0 -2 -1 -2 -1 -2 1 -3 1 -2 -1 -4 -2 -3
0 -1 0 -2 -1 0 -2 -1 0 -2 0 -3 2 -1 2 -2 -1 -1 0 0 1 0 1 1 2 -1 3 -1 -1 -2
0 -2 2 -1 3 -1 0 -1 0 -2 3 -1 3 -1 0 -1 0 -1 -1 -1 -1 0 1 -2 1 -2 0 -6 -1
-5 -3 -4 -2 -3 2 -1 2 -1 1 0 2 0 0 2 -1 2 1 0 2 0 1 -3 2 -2 -2 -2 -1 -1 -1
1 0 1 -1 -1 -1 -1 1 -3 1 -2 -1 -1 -2 -1 0 -1 0 -1 2 1 2 0 0 -1 0 -1 2 0 1 0
0 -1 0 -1 5 -1 5 -1 0 0 1 0 -1 -4 -2 -3 0 -3 0 -3 1 -2 1 -3 4 -5 4 -4 2 0 1
0 2 -2 2 -2 2 0 2 0 0 0 1 0 0 -2 0 -3 -1 -1 -1 0 0 -2 0 -1 4 -4 4 -5 4 0 3
0 2 -2 1 -1 0 1 0 2 0 2 0 3 1 0 1 -1 0 1 0 2 -1 4 -1 4 0 2 1 1 2 -1 2 -1 1
2 2 1 1 3 0 2 0 1 -1 0 2 3 1 2 0 3 -1 3 1 1 1 0 0 -1 0 -1 2 0 2 0 0 1 0 1
-1 0 -1 0 -1 2 0 3 -1 1 -1 1 1 5 0 5 0 0 0 1 1 0 1 0 -1 12 0 12 1 0 1 0 0 2
0 1 2 0 1 -1 0 1 0 1 -1 0 -1 0 0 2 1 2 1 3 0 4 -2 -1 -1 0 0 1 1 2 -1 0 -1 0
0 -2 1 -2 -1 -2 -2 -1 -3 2 -3 1 1 1 0 2 2 -1 3 0 0 -1 1 -1 0 4 -1 4 0 2 0 3
1 -1 2 0 -1 2 0 2 -2 2 -1 1 0 1 0 1 -1 0 -2 0 1 4 0 5 1 1 1 1 3 -1 2 0 -1 1
0 1 1 0 1 -1 1 1 1 2 1 -2 1 -2 3 0 3 0 1 -1 2 -2 1 1 1 0 0 -1 0 -2 -2 0 -2
0 -1 -1 0 -1 1 0 2 1 0 -2 0 -1 -6 0 -5 0 0 -1 0 -1 2 0 3 -1 3 0 4 0 0 1 0 1
1 0 1 -1 0 1 0 1 1 0 2 -1 1 2 1 2 -1 1 -1 1 1 3 1 3 -2 -1 -1 0 1 -1 0 -2 -1
0 -1 -1 1 4 0 4 1 5 0 6 1 -1 1 0 0 1 0 2 1 0 1 0 0 2 0 3 1 0 1 1 -1 2 -1 1
2 3 3 3 0 1 0 1 6 3 6 3 3 2 3 3 -1 1 0 0 -1 -1 -1 -1 -8 -4 -8 -4 1 3 2 3 4
3 3 2 2 0 3 0 -1 1 -1 1 -1 0 -1 0 0 1 0 1 2 1 2 1 1 2 0 3 1 1 1 0 0 2 0 2 1
0 1 0 0 3 0 4 1 1 2 2 3 1 3 1 -1 -2 0 -1 1 1 2 0 0 2 0 1 -2 0 -2 1 1 2 1 2
1 -1 1 -1 0 1 0 1 1 0 2 1 -1 -2 0 -2 1 0 1 -1 3 3 3 3 0 3 -1 3 1 0 1 0 2 -2
3 -3 0 2 0 2 1 -2 1 -1 0 -3 0 -3 2 0 2 0 -1 2 -2 3 1 6 0 6 2 0 2 0 1 0 1 0
-1 2 -1 2 1 -2 2 -1 2 -1 2 0 2 0 3 -1 -4 2 -3 2 -1 2 -1 1 -2 0 -2 1 -1 2 0
2 -1 1 0 1 -5 1 -4 2 -1 1 -2 2 0 0 0 1 -1 2 -1 3 1 2 1 2 0 2 0 3 -2 1 -2 2
-1 0 -2 0 -2 -1 -2 -1 0 -2 0 -2 -1 0 -1 0 0 4 1 3 -2 3 -1 3 -3 1 -2 2 0 1 0
1 0 3 -1 4 -1 5 -1 5 -3 5 -2 6 0 2 0 2 1 -2 0 -1 1 0 1 0 -1 2 -2 3 0 4 0 4
-1 3 -2 4 0 1 0 2 4 -6 3 -6 0 1 0 1 -2 4 -3 5 0 3 -1 3 2 -3 2 -2 0 4 -1 5
-2 3 -2 3 0 3 -1 3 -1 5 0 5 -1 2 -1 2 -4 8 -3 8 2 3 3 3 -1 1 -1 2 1 1 2 1 3
1 3 1 9 1 9 2 3 3 4 2 5 6 6 6 7 18 7 19 1 2 0 3 -1 1 -2 0 -7 -4 -8 -3 -13
-3 -13 -3 -6 -3 -6 -3 -3 -3 -2 -3 -2 -4 -3 -3 -6 -4 -7 -3 -1 1 -1 1 1 3 0 3
4 6 3 7 3 3 2 3 8 4 8 4 2 3 3 2 5 4 6 4 5 1 4 0 1 2 2 1 7 0 8 -1 8 -3 8 -3
9 0 10 -1 9 3 10 3 2 2 3 2 2 4 2 4 2 1 3 1 2 4 3 4 -1 0 -1 0 -3 -3 -2 -2 -1
0 -2 0 -3 -3 -2 -3 -4 -2 -4 -2 -6 -1 -5 -1 -4 1 -3 0 -7 1 -7 1 -5 3 -5 3 -5
0 -4 0 2 2 2 1 7 4 8 3 7 1 7 2 8 3 9 3 6 6 7 6 7 4 7 3 5 4 5 3 3 4 3 3 2 2
1 3 2 4 2 4 1 15 0 16 3 5 2 5 2 4 3 3 -1 1 0 1 -1 0 -2 0 -5 -5 -6 -5 -5 -8
-4 -7 -2 -3 -1 -3 -2 -7 -1 -6 0 -3 -1 -3 -2 -2 -2 -2 0 1 -1 1 2 0 2 1 0 2 1
1 0 1 -1 0 -1 -1 -1 -1 -4 0 -3 0 -2 -2 -2 -2 -2 -4 -2 -3 -2 -2 -2 -2 -4 -6
-3 -5 -4 -3 -4 -3 -5 -2 -4 -2 -2 0 -1 1 4 5 4 5 7 11 7 12 1 3 2 4 1 6 1 6 0
9 1 9 3 13 3 13 5 9 5 9 0 11 0 11 -1 6 -2 6 -3 7 -3 7 0 -10 1 -9 -1 -5 -2
-5 -2 -5 -2 -5 -4 -7 -3 -6 -2 4 -1 4 -1 2 -1 2 -1 -1 -1 0 0 1 1 1 -4 6 -4 5
-3 7 -2 6 -6 8 -6 8 -3 5 -2 5 -4 4 -4 3 -3 1 -3 1 -4 5 -4 5 -3 7 -3 8 0 3 0
4 -1 3 -1 3 0 -2z m26 -43 l5 -5 -1 0 -1 0 -5 4 -5 5 1 0 1 0 5 -4z m-2 -3 l2
-1 -4 2 -3 2 0 1 0 0 2 -1 2 -1 1 -2z m7 -6 l0 -1 -1 1 -1 0 0 1 0 1 1 0 1 -1
0 -1z m-211 -25 l-1 -2 -2 -2 -1 -2 0 1 0 1 3 3 2 4 1 0 0 0 -2 -3z m-9 -23
l-2 -2 -3 -4 -3 -3 -1 0 0 1 1 2 2 3 3 3 4 3 0 0 0 0 -1 -3z m252 -7 l0 -2 -1
2 -1 2 0 4 -1 4 1 -4 2 -3 0 -3z m-305 -45 l1 -1 -1 0 -1 1 -1 1 0 1 1 0 1 0
0 -2z m326 -34 l0 -1 -2 0 -1 -1 1 1 1 2 1 0 0 0 0 -1z m3 -2 l0 -1 -2 -1 -2
-2 -1 0 -1 0 2 3 2 2 1 0 1 0 0 -1z m-112 -207 l0 -1 0 0 -1 0 -2 3 -1 4 2 -3
2 -2 0 -1z m40 -104 l2 -1 -1 0 -1 0 -2 1 -1 1 1 0 1 0 1 -1z m-55 -42 l-1 -3
0 -1 1 0 2 1 2 1 -1 -2 0 -1 -4 -4 -3 -3 0 -1 0 -1 0 -1 0 -1 -1 0 -2 0 -1 -2
-2 -1 0 -1 0 -1 1 1 1 1 0 0 1 -1 -4 -4 -4 -3 1 1 1 2 0 0 -1 0 -1 -1 -2 0 1
-2 0 -2 -1 -1 -2 0 0 -1 0 -1 1 1 1 1 1 0 1 0 -1 -1 -1 -2 -3 0 -2 1 -1 2 0 2
1 1 1 2 -1 0 -1 1 -1 0 -1 -1 0 2 0 3 1 0 1 1 1 -2 1 -1 -1 0 0 0 1 -2 2 -2 2
2 2 2 -1 0 0 1 2 0 1 0 0 1 -1 2 1 1 1 0 0 1 0 2 3 4 3 4 2 3 2 2 1 3 1 3 1 0
0 -1 -1 -4z m-2 -13 l0 -1 -1 0 0 1 0 1 1 1 1 0 0 0 -1 -2z m-105 -8 l1 -2 -1
-1 -1 0 0 2 0 2 0 0 1 0 0 -1z m97 -6 l-1 -2 -1 0 -1 0 2 2 1 2 1 0 0 -1 -1
-1z m-2 -6 l0 -2 -2 -1 -1 -1 0 1 1 1 -2 -1 -2 0 3 2 3 3 0 0 0 0 0 -2z m-24
-62 l-1 -1 0 1 0 2 1 0 0 1 1 0 0 -1 -1 -2z m-55 -8 l0 -1 -1 1 -1 0 0 2 0 2
1 -2 1 -1 0 -1z m1 -21 l-1 -1 0 1 0 2 1 0 0 -1 0 -1z"/>
<path d="M351 681 l0 -1 3 0 2 0 0 0 0 1 -2 0 -3 1 0 -1z"/>
<path d="M607 422 l0 -1 1 0 2 0 0 -1 1 0 2 -3 3 -2 -1 1 0 2 -4 2 -3 3 0 0
-1 0 0 -1z"/>
<path d="M613 398 l0 -1 1 0 1 0 0 1 -1 1 -1 0 0 0 0 -1z"/>
<path d="M626 395 l0 -1 2 0 2 0 0 0 0 1 -1 0 -2 1 -1 -1z"/>
<path d="M460 373 l-1 -1 1 -3 1 -2 2 0 2 0 1 3 1 3 0 1 -1 1 -2 0 -3 0 -1 -2z"/>
<path d="M582 374 l-1 -1 0 -1 1 0 1 0 0 1 0 1 -1 1 0 -1z"/>
<path d="M596 366 l0 -1 1 0 1 0 0 1 0 1 -1 0 -1 0 0 -1z"/>
<path d="M460 364 l0 -1 1 1 0 1 0 1 -1 0 0 -2z"/>
<path d="M459 360 l-1 -2 0 -1 1 -1 1 0 1 0 0 3 0 2 0 0 -1 0 -1 -1z"/>
<path d="M531 297 l0 -1 1 1 1 0 0 1 0 0 -1 0 -1 0 0 -1z"/>
<path d="M533 288 l0 -2 1 0 0 1 -1 1 -1 2 1 -2z"/>
<path d="M443 259 l-1 -1 1 1 2 1 0 1 0 0 0 0 -1 0 -1 -2z"/>
<path d="M438 254 l-1 0 0 -1 0 -1 1 1 1 1 0 0 -1 1 0 -1z"/>
<path d="M446 245 l-1 -3 0 -4 0 -3 1 -1 0 -2 1 0 1 0 -1 3 -1 3 0 5 1 5 0 0
-1 0 0 -3z"/>
<path d="M429 244 l-1 -1 1 -1 0 -1 1 1 1 0 0 2 0 1 -1 0 -1 0 0 -1z"/>
<path d="M417 226 l-1 -2 1 -1 1 -2 2 0 1 0 1 2 1 2 -1 1 0 1 -2 0 -2 0 -1 -1z"/>
<path d="M518 185 l0 -2 1 -2 1 -2 0 1 0 2 -1 2 -1 3 0 -2z"/>
<path d="M518 176 l0 -1 1 1 1 0 0 -2 0 -1 0 -2 0 -2 1 0 2 1 0 -2 0 -1 1 0 1
0 0 2 1 1 0 1 0 0 -1 0 -1 -1 -1 4 -2 4 -2 0 -1 0 0 -2z"/>
<path d="M522 157 l-1 0 0 -3 0 -2 1 0 1 0 1 1 1 1 -1 2 0 2 -2 -1z"/>
</g>
</svg>
