<?xml version="1.0" standalone="no"?>
<!DOCTYPE svg PUBLIC "-//W3C//DTD SVG 20010904//EN"
 "http://www.w3.org/TR/2001/REC-SVG-20010904/DTD/svg10.dtd">
<svg style="fill: black; stroke: black;" version="1.0" xmlns="http://www.w3.org/2000/svg"
 width="838.997260pt" height="838.358117pt" viewBox="0 0 838.997260 838.358117"
 preserveAspectRatio="xMidYMid meet">
<metadata>
Created by potrace 1.16, written by Peter Selinger 2001-2019
</metadata>
<g transform="translate(-84.900779,929.858117) scale(1.000000,-1.000000)"
fill="#c2e294" data-original="#000000" stroke="none">
<path d="M504 929 l0 0 -1 -3 0 -3 1 -1 1 0 0 -7 1 -6 -1 0 -1 1 -1 -5 -2 -4
0 -2 0 -2 -2 -7 -3 -6 -1 -1 -1 0 -1 6 -1 6 -1 -2 -1 -2 -1 -10 -2 -9 0 -3 0
-2 0 -4 0 -4 -1 0 -1 0 1 -5 0 -5 1 -1 2 -1 -1 0 -1 0 1 -1 1 -2 1 1 1 0 0 -1
0 -1 -1 0 -2 -1 0 -1 0 -1 1 1 1 2 0 -2 0 -2 1 0 1 1 0 -2 0 -3 -2 0 -1 -1 1
-1 2 -1 -1 -1 -1 -2 1 0 1 -1 0 -7 0 -6 -1 -1 -1 -1 0 2 0 2 -1 -2 -1 -2 -1
-1 0 0 -1 -9 0 -8 0 -2 0 -1 -1 0 -1 0 0 10 1 11 -1 -3 -1 -3 0 -7 -1 -7 -1
-4 -2 -4 -1 -1 -1 -1 0 -3 -1 -3 -1 -4 0 -3 1 1 1 2 0 -8 0 -8 -1 -3 -1 -2 0
1 0 2 -1 0 0 -1 -2 1 -2 1 -2 -2 -3 -2 -1 -6 -1 -5 1 -3 2 -3 1 -5 1 -5 -1
-15 -1 -15 -1 -6 -2 -5 0 -16 0 -16 -2 -1 -2 -1 -1 2 -1 2 -2 0 -1 0 0 1 0 1
-2 2 -3 3 0 -1 0 0 -5 5 -4 5 -3 0 -2 1 -7 8 -8 7 -1 0 -1 0 0 1 0 1 -1 0 -1
-1 0 1 0 2 -2 0 -3 1 -5 6 -5 6 -5 1 -4 2 -6 4 -5 4 -1 -1 -1 0 -4 2 -3 1 -6
7 -5 7 -2 2 -1 3 -1 2 -1 2 -4 2 -5 3 -2 1 -2 1 -1 0 -1 0 -1 1 -2 1 0 0 0 -1
-3 2 -3 3 -2 0 -2 0 0 -1 0 -1 -1 1 -1 0 0 -1 0 -1 -3 1 -3 1 0 -1 0 0 -2 1
-1 2 -2 -1 -2 0 1 1 0 1 -1 0 -1 0 -1 0 -1 0 0 1 0 1 0 1 0 1 -1 0 0 0 -1 0 0
1 -3 3 -3 3 -3 0 -2 1 0 1 1 1 -3 1 -3 1 0 1 1 1 -3 0 -2 0 -3 2 -4 3 0 -2 -1
-1 2 -3 2 -3 2 -2 2 -2 1 0 1 0 5 -5 5 -4 5 -6 4 -6 3 -7 3 -6 1 -1 2 0 0 -1
0 -1 2 -5 3 -5 -1 -1 0 -1 2 -2 2 -1 -2 0 -1 0 0 1 -1 1 -1 0 -1 0 0 -1 1 -2
1 -2 0 -1 -2 3 -2 3 1 0 1 1 -1 1 -1 1 0 -1 1 0 -1 -1 -1 -2 -1 1 -1 0 -3 0
-3 1 2 -4 2 -3 1 -4 2 -3 -1 -2 -1 -1 0 -3 1 -3 1 -1 1 0 0 1 -1 1 1 0 1 0 0
-2 0 -1 5 -5 5 -5 0 2 0 1 1 0 1 0 0 -1 0 -1 2 0 2 0 0 -3 1 -3 2 -2 2 -2 2
-3 3 -3 1 -1 1 0 3 -4 3 -3 -2 3 -1 3 1 -2 2 -2 0 -2 1 -2 2 -3 2 -2 1 1 1 2
0 -2 0 -1 2 0 1 0 0 -1 0 -1 1 0 1 1 0 -2 1 -1 0 -1 0 -1 -1 1 -1 0 0 1 1 1
-2 -1 -2 0 0 -1 0 0 3 -4 3 -3 0 -2 0 -1 1 0 1 0 2 -4 3 -4 3 -4 4 -3 0 -1 0
-1 3 -3 3 -3 1 -2 0 -2 1 0 1 0 1 -3 1 -2 -2 1 -2 1 4 -4 4 -3 0 -2 0 -2 -2 0
-2 1 -3 1 -3 1 -3 -1 -2 0 -10 0 -9 -1 -3 0 -2 -1 -4 -1 -3 0 -1 -2 0 -1 -3 0
-4 0 -1 0 -1 -1 0 1 0 1 -7 -1 -7 0 -4 -1 -3 0 -2 -1 -1 0 0 0 0 0 -2 -1 -2 0
-6 -1 -5 -1 -5 1 -4 1 -5 -3 -5 -2 -3 -3 -2 -2 -3 -1 -2 -1 -5 -1 -5 0 -11 -1
-10 0 -2 -1 -2 -1 0 1 1 1 0 0 -1 0 -5 -3 -5 -2 -5 0 -5 1 1 -1 0 -1 -3 -1 -2
-2 -1 1 -1 0 1 -1 0 -1 -2 0 -2 1 -1 -2 -1 -1 -2 0 -1 0 0 -1 0 -1 -2 0 -2 -1
1 2 1 1 -1 -1 -2 0 0 1 0 1 -4 -1 -4 -1 -13 0 -13 0 -7 0 -7 0 -2 -1 -2 -1
-10 0 -9 0 -5 0 -4 0 -5 0 -5 -1 -4 -1 -3 0 -3 -1 -2 -1 -1 0 -1 -1 -3 -2 -4
-3 1 -2 0 -2 -1 -1 -1 0 2 -2 2 -1 -1 -2 0 -1 4 -2 3 -2 2 0 1 0 2 -2 2 -2 3
-2 3 -1 -3 0 -2 1 0 -1 -1 -1 2 -2 1 -2 6 -1 5 0 0 -1 0 -2 3 -1 3 -1 1 0 1 0
0 -1 0 -1 -2 0 -1 -1 2 -2 3 -2 2 0 3 0 1 1 1 1 4 -1 3 -1 1 1 1 1 4 0 4 0 0
-1 0 -1 1 1 1 2 5 -1 5 0 0 1 -1 1 2 1 1 1 -1 2 -1 1 3 0 3 0 -1 1 -1 2 2 1 3
1 5 -1 5 0 2 0 3 -1 6 -1 6 0 2 -2 3 -1 0 -2 0 -1 -4 -1 -3 0 -3 0 -4 1 -1 -1
-1 -2 2 0 2 -1 5 0 5 0 4 0 5 0 0 -1 0 -2 2 0 2 0 1 0 2 -1 4 -1 5 -2 -1 2 -1
1 2 -1 2 0 0 -1 1 -1 0 1 0 1 3 -2 2 -3 3 0 2 1 0 -1 0 -1 4 -1 5 -2 7 0 7 1
0 1 0 2 -1 0 -1 0 0 1 1 1 6 -2 6 -2 0 1 -1 0 4 3 3 2 2 0 3 0 2 0 2 0 -2 1
-1 1 3 0 4 -1 0 2 0 2 2 0 2 0 0 -2 0 -1 -1 0 -1 1 0 -1 -1 -1 2 0 3 0 -2 -1
-2 -1 3 0 3 0 3 0 3 0 0 0 0 1 1 0 1 0 0 -1 -1 0 1 -2 1 -1 -2 -1 -1 0 -3 -1
-2 0 -3 0 -2 0 2 -1 3 -2 0 -1 0 -1 -1 1 -2 0 0 -1 -1 -1 2 0 2 0 0 -1 1 -1 3
-1 4 0 4 4 4 3 -2 0 -1 0 0 -1 0 -1 -2 0 -1 0 1 1 1 1 -1 1 -2 2 0 1 0 0 5 0
5 -1 4 0 4 0 2 0 2 0 0 1 0 1 8 0 9 0 0 -1 1 -1 4 -1 5 -1 4 0 5 -1 5 3 4 2 1
0 1 -1 0 1 0 1 4 -1 4 0 0 0 0 0 2 -1 2 0 1 -1 0 0 -3 0 -2 0 1 -1 2 -1 -2 -1
-1 -1 4 0 5 0 0 -1 0 -1 -8 -1 -7 -1 -1 -1 -1 0 4 0 5 0 0 0 1 0 0 -1 0 -1 -1
0 -1 0 2 -1 2 -2 0 -1 -1 -1 -1 -3 -1 -2 -2 -2 -1 -2 -1 1 -1 0 0 -1 0 0 0 -2
0 -1 -1 1 -1 0 0 -1 0 -2 -1 -2 -1 -1 -9 -9 -8 -9 -1 -4 -1 -4 -4 -3 -3 -3 -8
-8 -7 -7 -2 -4 -1 -3 -2 -4 -1 -3 -5 -9 -5 -8 -3 -3 -3 -3 -6 -4 -5 -4 -3 -2
-2 -2 0 -2 0 -1 -1 0 -1 0 -1 -4 -1 -4 -2 -2 -1 -2 0 0 1 0 -1 -3 -2 -2 0 -2
1 -1 1 0 2 0 -1 -1 0 -1 1 0 1 1 1 -1 1 -1 -2 -2 -2 -2 1 1 2 0 4 4 4 3 1 0 1
0 0 1 0 1 3 1 2 1 0 -1 0 -1 -2 -1 -1 -1 1 0 1 0 -1 -1 -1 0 -5 -6 -5 -6 0 0
0 -1 3 3 3 3 4 3 4 4 6 5 6 6 2 0 1 0 0 -3 -1 -2 2 1 3 2 2 -2 2 -2 0 -1 0 -1
-1 -3 -1 -2 1 0 2 0 0 1 0 1 1 0 2 0 3 3 4 3 0 2 0 1 1 2 2 1 1 0 0 0 5 4 4 4
5 4 5 4 2 1 2 0 0 1 0 1 -1 0 -1 0 0 1 0 2 5 3 5 3 0 -3 0 -2 -1 -1 -1 -1 -1
1 -1 0 0 -1 0 -1 -2 0 -3 1 1 -2 2 -2 0 -1 0 0 3 1 3 2 0 -1 0 -1 -3 -3 -2 -3
-2 0 -1 0 -1 -2 -2 -2 2 1 2 0 0 1 0 1 3 1 4 2 0 1 1 1 1 1 2 0 1 0 1 1 2 1 2
2 1 0 2 0 3 3 3 3 1 0 1 0 -3 -3 -2 -4 1 0 1 0 -3 -3 -4 -3 -4 -4 -3 -4 -2 -2
-1 -1 6 5 6 6 1 0 1 0 -1 -1 0 -1 -4 -3 -3 -3 1 -1 0 -1 -1 0 -1 -1 1 -1 0 -2
3 3 3 3 1 0 1 -1 0 1 0 1 2 0 1 0 3 5 4 5 5 4 5 5 7 4 7 4 4 3 4 4 2 1 1 1 1
0 1 0 0 1 0 1 3 2 3 2 1 -1 2 -2 0 -8 -1 -9 0 -1 -1 0 1 -2 1 -2 -1 -1 -1 0 0
-5 1 -4 1 -3 1 -3 1 -8 0 -7 0 -3 0 -3 1 0 1 0 -1 -1 0 -1 1 0 1 0 0 -2 0 -2
-1 0 -1 0 1 -2 2 -1 -2 0 -1 1 1 -2 2 -3 -1 -4 0 -4 1 -5 1 -5 2 -2 1 -1 1 -3
1 -3 1 1 1 0 0 -1 0 -2 1 -1 2 -1 1 -4 2 -3 2 -9 3 -8 1 0 1 1 -1 -2 -1 -2 1
-2 1 -2 0 3 -1 3 2 0 1 0 -1 -3 0 -2 -1 -2 0 -1 1 -1 1 0 0 -1 0 -1 -1 1 -1 2
0 -2 1 -2 1 -7 1 -7 -1 -4 -1 -5 1 -7 0 -8 1 -1 1 -1 1 -11 1 -11 1 -3 1 -2 4
-4 3 -4 2 -5 2 -5 2 -6 2 -6 1 -5 0 -5 1 -2 0 -2 1 -13 0 -12 0 -3 0 -2 1 0 1
1 1 -4 1 -5 0 -3 0 -2 -1 1 0 2 -1 0 -1 0 0 -1 0 -1 1 -2 1 -2 1 0 1 0 0 1 -1
1 1 1 0 2 1 0 1 0 0 -4 0 -3 -1 1 -1 0 0 -4 1 -4 1 -2 1 -1 3 3 2 3 0 3 0 4 1
3 1 4 1 1 1 0 0 5 0 4 -1 0 -1 1 0 2 1 2 0 9 1 9 3 5 2 5 1 7 0 8 -1 3 0 4 -2
2 -1 1 -1 5 -2 4 -1 -1 -2 -1 0 -6 0 -6 0 -1 1 -1 -1 0 0 -1 -1 0 -1 0 0 5 0
6 0 9 0 9 0 2 1 2 0 2 0 2 1 -2 1 -2 1 2 0 2 1 0 1 1 2 -1 1 -1 0 1 0 1 1 -3
1 -2 1 0 2 1 0 5 1 5 1 2 1 2 -1 1 -2 2 1 6 0 6 0 1 1 2 1 1 1 0 0 -5 -1 -5
-1 -4 0 -3 2 3 3 3 -1 2 -1 2 0 9 1 9 1 4 0 5 0 2 1 2 0 0 0 1 1 -1 2 0 -1 -1
0 -1 1 0 1 0 -1 -3 0 -3 2 -2 2 -2 0 -2 0 -1 2 2 3 3 0 3 0 3 0 2 0 1 1 0 1 0
0 4 0 5 -1 -2 0 -2 -1 0 -1 0 -1 1 -1 2 0 1 1 1 -1 2 -1 2 1 0 2 0 0 1 0 1 -1
-1 -1 0 0 1 0 2 2 0 2 0 0 2 0 3 1 1 1 2 -1 -2 0 -1 2 2 3 3 -1 0 0 1 1 3 2 3
-1 1 -2 0 0 2 0 1 2 -2 1 -1 0 1 0 1 1 -1 1 0 0 3 -1 3 -3 2 -2 3 -1 9 -1 9 1
12 2 12 -1 11 0 11 0 9 0 9 0 3 1 3 2 1 3 2 -1 1 0 2 2 -2 3 -2 5 -3 5 -2 3
-3 4 -3 4 -4 4 -3 6 -5 7 -5 7 -6 8 -6 2 0 1 0 0 -1 -1 -1 1 0 2 0 1 0 0 0 3
-3 4 -4 0 1 1 0 0 -2 0 -2 2 -1 2 -2 0 0 1 0 -1 2 0 1 1 0 1 0 5 -1 4 -1 0 -1
0 -2 2 -1 2 -1 -1 -1 -1 -1 -2 1 -2 1 -1 -1 -2 -1 -2 2 -1 2 -1 0 -1 0 3 -4 3
-3 2 0 1 0 0 1 1 2 3 -2 4 -2 3 -3 2 -2 1 0 0 0 3 -1 3 -2 7 -7 7 -7 6 -2 7
-2 2 -1 3 0 3 -2 3 -1 0 -1 1 -1 1 1 0 1 2 -1 2 -1 0 1 0 1 0 0 0 1 4 0 5 -1
1 -1 2 0 0 -1 0 -1 2 0 3 -1 0 0 1 -1 6 -6 6 -6 2 0 2 0 0 0 1 0 -1 -2 0 -1 1
0 1 0 1 0 1 -1 3 -2 4 -3 -1 2 0 1 2 -1 2 -1 1 1 1 1 -2 4 -2 4 -2 0 -1 0 -5
4 -6 4 -2 3 -3 3 -2 2 -1 3 1 0 0 0 2 -2 1 -1 -1 2 -1 2 -2 2 -3 3 1 1 0 1 -1
0 -1 -1 1 1 0 2 -1 1 -2 1 0 2 0 1 -2 1 -2 1 0 2 0 1 -1 0 -1 0 0 2 -1 1 2 -2
3 -1 0 -1 0 -1 1 1 1 0 -1 2 -1 2 0 1 1 0 0 -1 0 -1 1 0 2 -1 -1 3 0 4 1 -2 1
-1 0 1 0 1 -3 4 -3 4 0 1 0 1 -1 0 -1 -1 -2 3 -1 3 -1 0 -1 1 0 0 1 0 -3 4 -2
4 -1 -1 -1 0 0 1 0 1 -1 0 -1 -1 0 2 0 2 -2 0 -3 -1 1 3 0 3 -1 0 -1 1 0 -2 1
-1 -3 -1 -2 0 0 1 0 1 1 0 2 1 -3 0 -2 -1 -1 3 -1 3 -1 0 -1 0 -1 0 -1 1 -2 3
-2 3 0 0 0 1 -2 0 -2 0 -1 1 0 1 1 0 1 -1 0 1 0 2 -2 2 -1 3 -4 0 -3 -1 0 3 0
2 -5 4 -4 4 -2 3 -2 3 0 1 1 0 0 -1 0 -1 3 0 3 -1 -2 3 -1 3 -3 3 -3 3 -3 2
-2 2 -7 6 -6 5 0 0 0 -1 2 -2 1 -1 0 -2 0 -2 -1 0 -1 0 -3 2 -2 2 -2 2 -2 3
-2 2 -3 3 0 -1 -1 0 1 1 0 2 -1 0 -1 -1 0 2 0 3 -2 2 -2 3 1 1 1 0 -2 0 -1 -1
-3 4 -4 4 0 1 1 1 2 -2 2 -1 -2 0 -2 1 1 -1 0 -1 2 0 2 1 3 -3 4 -4 0 1 1 0
-5 4 -4 4 -2 2 -2 2 -4 3 -3 4 1 1 0 1 1 -1 1 -1 3 -1 3 -2 -1 2 -1 2 -1 1 -1
0 2 1 1 2 8 -1 8 0 3 -1 3 -2 3 0 4 0 3 0 4 1 0 1 -1 1 3 0 4 0 1 -2 1 -1 1 0
2 0 -2 1 -1 1 2 0 2 0 0 -1 0 -1 2 1 1 1 0 -1 0 -1 3 0 3 1 0 1 1 1 0 -2 0 -1
3 1 3 0 4 1 5 1 9 0 9 0 3 1 4 2 8 0 8 0 4 1 4 0 1 2 2 2 3 2 3 2 8 0 8 1 10
4 10 3 6 0 6 0 3 -2 3 -1 8 -1 8 0 7 4 7 3 4 2 5 1 -4 -1 -4 0 -7 -3 -6 -3 -4
-1 -4 0 3 2 3 3 2 0 2 0 1 1 2 1 -2 0 -1 0 1 1 1 1 9 0 9 1 12 0 13 0 8 2 7 1
1 1 1 1 5 2 5 2 1 0 2 0 1 1 2 2 2 0 3 0 0 1 1 2 0 -1 0 -1 1 1 1 1 2 1 3 1
-2 0 -2 0 1 1 2 1 1 0 1 0 0 -1 0 -1 2 0 2 0 2 1 2 0 0 1 -1 0 1 1 1 2 -2 0
-2 0 -9 -2 -9 -2 -9 1 -8 0 -2 0 -2 0 0 1 1 1 -3 1 -4 0 -1 0 0 0 -2 0 -1 0 0
1 0 1 2 0 3 0 0 1 1 1 -10 0 -9 1 -6 1 -6 1 -1 1 -1 0 -2 1 -1 0 -1 0 0 1 5 0
5 0 -3 2 -2 2 -2 -2 -1 -1 -1 1 0 0 1 1 1 0 -2 2 -1 1 -3 0 -2 0 1 -1 2 -2 -2
-1 -2 0 -8 0 -7 -1 0 2 -1 2 1 0 1 0 0 1 -1 2 0 1 -1 1 0 -2 1 -1 -1 0 0 0 -2
1 -1 2 1 0 0 1 -4 1 -3 1 -1 -1 -1 0 0 1 0 1 -4 0 -4 -1 -1 1 0 1 -2 0 -2 0
-2 0 -2 1 -2 1 -2 2 0 -1 -1 0 -2 1 -1 0 -11 1 -11 0 -2 -1 -2 -1 -1 0 -1 0 0
-2 -1 -1 2 0 2 0 0 -1 -1 -1 3 0 2 0 -2 -2 -2 -1 -1 1 -1 0 -1 -1 0 -1 -3 1
-2 1 0 1 0 2 -1 0 -1 0 -1 0 0 0 -1 -2 0 -2 0 0 0 -1 -3 1 -2 1 -3 1 -2 0 -6
1 -5 0 -3 0 -2 0 -3 2 -4 1 0 1 0 1 -3 0 -2 -1 -1 2 -2 1 -4 -1 -3 -1 -3 -1
-2 0 -7 0 -6 0 -1 0 -1 1 1 2 2 2 1 2 1 1 12 0 13 -1 1 0 1 -1 0 1 0 1 3 -1 2
0 0 1 -1 0 1 2 2 1 1 0 1 0 0 1 -1 1 -6 1 -5 0 -3 -1 -2 -2 -6 0 -5 1 -4 0 -3
0 -2 0 -2 -1 -2 -1 -1 -1 -3 1 -2 0 -2 0 -1 1 -1 2 0 2 1 0 1 0 0 3 1 2 -3 1
-2 0 0 1 1 2 -4 0 -3 0 -2 -2 -3 -2 0 -1 0 -1 2 0 2 1 1 -1 0 -1 -1 0 0 0 -5
0 -5 -1 2 -1 2 -1 -4 0 -3 0 0 1 0 1 -2 -1 -2 0 0 1 1 1 -1 0 -1 1 2 0 3 0 0
1 0 1 -3 0 -3 1 -6 2 -5 1 0 2 0 1 1 0 1 0 1 3 2 3 12 13 13 12 1 3 1 3 2 1 2
2 5 4 4 4 1 4 1 4 2 5 3 6 5 5 5 5 1 2 0 2 5 5 6 5 6 7 6 7 1 3 1 3 1 3 0 3 3
3 3 4 1 2 1 3 -3 -4 -3 -4 -1 0 0 1 3 5 3 5 0 2 0 2 8 8 8 8 7 9 6 9 2 3 1 3
1 4 0 5 0 1 1 2 0 1 1 1 -1 0 0 0 2 2 3 2 -1 0 -1 0 2 2 3 3 2 6 3 6 2 1 1 2
0 1 -1 0 2 2 2 2 -2 0 -1 -1 -1 1 -1 2 -1 -4 -1 -3 -1 0 -1 0 0 -2 0 -2 -3 -3
-3 -3 0 0 1 -1 -2 -2 -2 -2 1 1 0 2 -2 0 -2 0 0 -1 0 -1 -3 -1 -2 -2 0 1 1 1
-1 0 -1 0 -3 -3 -2 -3 0 -1 0 -1 -1 0 -1 1 -2 -3 -3 -2 1 -1 0 -1 -1 0 -1 1 0
-1 0 -2 -1 0 -1 1 -9 -9 -9 -9 -2 -2 -3 -1 0 1 0 2 3 2 3 3 4 2 4 3 2 3 2 3 1
0 2 0 2 3 3 3 0 1 0 1 2 0 1 1 0 1 0 1 -2 0 -1 -1 -2 0 -1 -1 0 1 -1 1 -5 -6
-5 -7 -3 -1 -2 -1 0 -1 1 -1 -4 -1 -3 -1 -2 -2 -2 -1 -1 0 -2 0 -1 -2 -1 -1
-1 1 -2 1 -3 -3 -3 -2 -2 -1 -1 0 -4 -3 -3 -2 1 -1 0 -1 -1 1 -2 1 -2 -1 -1
-2 1 0 2 0 -1 -1 0 -2 -6 -4 -6 -5 -2 0 -1 0 0 1 1 1 2 -1 2 0 -2 1 -1 1 -2
-2 -2 -1 -1 0 -1 0 0 -1 1 0 -2 -2 -2 -1 0 -1 0 -2 -2 -1 -2 -1 0 -1 0 -1 -1
0 0 0 -1 3 -1 3 -2 -1 -2 0 0 -1 0 -2 -3 -3 -2 -2 -1 1 -1 2 -3 -2 -2 -1 -3
-3 -3 -2 1 -1 0 -2 -5 -4 -4 -5 -7 -5 -6 -4 -7 -6 -7 -6 -6 -6 -5 -5 -4 -2 -4
-2 -2 0 -1 0 -5 -4 -4 -4 -3 -1 -2 -1 -1 2 -1 1 -1 0 -1 -1 0 -2 0 -1 -1 0 -1
1 0 -1 -1 -1 0 0 -1 1 0 4 -1 3 -1 1 -1 0 1 2 2 1 -2 0 -1 -1 0 2 0 2 0 15 -1
16 0 10 -1 10 0 1 -1 1 1 0 1 -1 0 3 0 3 -1 6 -2 7 -1 3 -1 4 -2 4 -2 4 -1 13
0 13 -2 3 -1 4 -1 10 0 10 -2 9 -2 10 0 9 0 9 -4 8 -3 8 -1 15 0 16 -1 5 -2 6
-2 7 -2 7 -1 3 -2 3 0 -1 0 -1 -2 4 -1 4 0 2 0 3 -2 2 -2 2 -1 -1z m-12 -46
l-1 -2 0 4 0 4 1 -2 0 -2 0 -2z m-1 -33 l0 -2 -1 1 -1 1 1 1 0 1 1 0 0 0 0 -2z
m7 -20 l0 -7 -1 -2 0 -1 -2 -1 -1 0 0 5 1 6 1 4 0 4 1 0 1 0 0 -8z m190 -98
l-1 -2 0 0 1 0 -4 -4 -4 -4 -3 0 -2 0 -2 0 -1 0 5 5 5 5 0 -1 1 0 1 2 0 2 2 0
3 1 0 -1 1 -1 -2 -2z m-369 -23 l1 -1 -1 1 -2 1 0 1 0 0 1 0 1 0 0 -2z m73 -5
l3 -1 -1 -2 0 -1 -1 1 0 1 -4 2 -3 2 1 0 2 0 3 -2z m5 -5 l-1 -1 0 2 0 3 1 -2
0 -1 0 -1z m320 0 l-1 -2 -1 0 0 1 1 1 0 2 1 0 1 0 -1 -2z m-4 -5 l0 -2 -2 -1
-1 -1 0 3 1 4 0 0 0 0 1 0 1 -1 0 -2z m3 1 l0 -2 -2 -2 -2 -2 1 3 2 3 -1 0 0
1 1 0 1 0 0 -1z m-249 -27 l2 0 -2 -1 -1 -2 1 0 2 -1 0 2 1 3 0 -5 0 -5 0 -3
0 -3 0 -4 0 -3 -1 1 -2 1 0 2 0 1 -1 0 -1 -1 0 3 0 4 0 2 0 2 0 6 0 6 1 -3 0
-3 1 1z m7 -11 l0 -4 0 0 -1 1 0 3 -1 3 1 0 0 1 0 0 1 0 0 -4z m-74 -31 l-1 0
0 2 -1 2 1 -2 1 -1 0 -1z m3 -8 l1 -3 1 0 2 1 1 -2 1 -2 -1 0 -1 0 -3 3 -4 3
0 1 0 2 1 0 2 0 0 -3z m-4 -2 l2 -2 -1 0 0 -1 1 0 2 1 2 -3 3 -3 0 -1 0 -1 -4
3 -4 3 -2 3 -2 3 1 0 1 0 1 -2z m-2 -5 l0 0 -2 1 -1 2 2 -1 2 -1 -1 -1z m15
-7 l1 -2 0 0 -1 0 -1 2 -2 2 0 0 1 0 2 -2z m226 -32 l-1 -1 -1 0 -1 0 1 1 2 1
0 0 0 0 0 -1z m-445 -13 l0 -1 -1 0 -1 0 1 1 0 1 1 0 0 0 0 -1z m4 0 l0 -1 0
0 -1 0 0 1 -1 1 1 0 1 0 0 -1z m563 -6 l0 -1 0 0 -1 0 0 1 -1 1 1 0 1 0 0 -1z
m-250 -6 l2 -2 0 -1 0 -1 1 -2 2 -2 1 0 1 0 0 -2 0 -2 2 -4 2 -3 1 -1 1 0 0
-3 1 -3 -1 0 -1 -1 0 -2 0 -2 -1 1 -2 1 0 -1 0 -2 -1 0 -1 0 -2 3 -3 3 -1 0
-1 0 0 -1 0 -1 -1 0 -1 0 -2 2 -2 3 0 -2 1 -1 -1 0 -1 0 0 1 -1 2 0 -2 0 -2
-2 1 -3 1 0 -1 -1 0 0 2 -1 3 0 1 0 2 1 -1 1 0 0 1 0 1 3 1 3 1 2 3 2 3 -1 3
-1 3 2 1 1 1 -1 1 0 1 1 0 1 0 1 -1z m-351 -16 l2 -2 -2 0 -2 -1 -8 0 -7 1 1
0 0 1 -3 0 -3 -1 0 1 0 1 3 0 3 1 7 0 7 0 2 -1z m1 -17 l0 -1 -1 0 0 1 0 1 1
1 1 0 0 0 -1 -2z m141 -8 l1 -1 -2 0 -3 0 1 1 0 1 1 0 1 0 1 -1z m130 -93 l0
-1 -2 -1 -1 -2 0 -1 1 -1 2 0 1 0 -2 -2 -2 -2 -1 0 0 0 1 1 1 1 0 1 0 1 -1 0
-2 0 0 -1 -1 -2 -3 -2 -3 -2 -1 0 -1 0 1 2 0 2 3 3 3 3 3 0 2 1 0 1 0 1 1 0 1
0 0 0z m-47 -33 l-1 -1 1 1 0 2 1 0 0 -1 -1 -1z m-19 -5 l0 -2 -1 0 -1 0 1 2
0 1 1 0 1 0 -1 -1z m331 0 l0 -1 -1 0 -1 0 0 1 0 1 0 0 1 0 1 -1z m-335 -6
l-2 -1 0 1 0 2 1 -1 1 0 0 2 0 2 1 -2 0 -1 -1 -2z m-38 -8 l-3 -2 0 -1 0 -1
-2 -1 -1 -1 0 1 0 2 4 3 4 3 0 0 1 0 -3 -3z m387 -1 l0 0 -1 0 -1 1 0 2 0 1 1
-2 2 -1 -1 -1z m-393 0 l0 -1 -2 -1 -1 -1 1 1 1 2 1 0 0 0 0 0z m398 -3 l2 -1
0 -2 1 -1 -1 -1 -1 0 0 1 1 1 -3 1 -2 1 0 2 0 1 1 0 1 0 1 -2z m8 -17 l3 -4 0
-1 0 0 -1 1 -2 1 0 -1 0 0 -1 1 -1 1 -1 3 0 3 0 0 1 0 2 -4z m-68 0 l1 -2 -2
1 -3 1 1 1 1 1 1 0 0 0 1 -2z m-9 0 l0 -1 -1 0 -1 0 0 1 0 1 0 0 1 0 1 -1z
m93 -44 l1 -2 0 0 -1 0 -1 2 -2 2 0 0 1 0 2 -2z m-194 -5 l0 -4 0 -6 1 -5 -1
-1 -1 -1 -1 2 0 2 -1 6 0 7 1 2 1 2 0 0 1 0 0 -4z m-57 -86 l0 -2 0 0 -1 1 0
2 -1 3 1 0 1 -1 0 -3z m12 1 l1 -2 1 -9 1 -9 1 -4 0 -4 1 -5 0 -4 0 0 -1 0 -3
9 -3 9 -2 4 -2 4 0 5 -1 6 1 1 1 0 0 -1 -1 -1 1 0 1 0 0 1 0 2 2 0 2 0 0 -2z
m-8 -5 l-1 -1 0 2 0 3 1 -2 0 -1 0 -1z m14 -18 l-1 -1 0 2 0 3 1 -2 0 -1 0 -1z
m14 -11 l0 -1 0 0 -1 0 0 1 -1 1 1 0 1 0 0 -1z m-8 -58 l-1 -1 0 1 0 2 1 0 0
-1 0 -1z"/>
<path d="M722 339 l0 -2 1 1 0 1 -1 1 -1 1 1 -2z"/>
<path d="M280 767 l0 -1 1 0 1 0 0 -2 0 -1 1 0 1 0 -1 -2 0 -1 1 0 1 0 0 1 0
1 -1 2 -1 3 -2 0 -1 1 0 -1z"/>
<path d="M675 733 l-1 -1 1 0 1 0 1 2 1 1 -1 0 0 0 -2 -2z"/>
<path d="M340 666 l-1 -1 1 0 1 0 0 1 0 1 0 0 -1 0 0 -1z"/>
<path d="M777 563 l-1 0 1 -1 0 -1 2 0 1 0 2 -2 2 -1 -1 2 0 2 -2 1 -1 1 0 0
-1 0 1 -1 0 -1 -1 1 -2 1 0 -1z"/>
<path d="M850 549 l0 -1 2 0 1 0 0 1 -1 1 -1 0 -1 0 0 -1z"/>
<path d="M173 505 l0 -2 -1 0 -2 -1 1 -1 0 -2 1 1 1 0 2 -1 1 -2 2 1 3 0 2 0
3 1 0 0 1 1 -2 2 -1 1 2 0 3 0 -3 2 -3 1 -2 -1 -1 -1 0 1 -1 1 -2 0 -2 0 0 -1
0 -1 -1 2 -1 2 0 -3z"/>
<path d="M273 495 l-1 -1 1 0 1 0 0 -2 1 -2 1 -1 2 0 -2 1 -1 1 1 0 2 0 1 -2
1 -1 0 1 1 1 -1 0 -1 0 1 1 0 1 3 0 3 0 -4 2 -3 2 -3 0 -3 0 0 -1z"/>
<path d="M371 495 l0 -1 1 0 1 0 1 1 0 1 -1 0 -2 0 0 -1z"/>
<path d="M374 490 l0 -1 1 0 0 0 0 1 0 1 -1 0 -1 0 1 -1z"/>
<path d="M730 407 l2 -2 0 -1 -1 -1 1 1 2 0 0 1 0 1 -3 2 -2 1 1 -2z"/>
<path d="M674 401 l-1 -1 3 -2 2 -1 0 -2 0 -1 1 0 1 0 1 0 0 0 0 1 0 1 -1 -1
-1 0 0 1 0 2 -2 2 -3 3 0 -2z"/>
<path d="M380 382 l0 -1 1 0 0 0 0 1 0 1 -1 0 -1 0 1 -1z"/>
<path d="M378 374 l0 -1 1 0 1 0 1 1 0 1 -1 0 -2 0 0 -1z"/>
<path d="M372 371 l-1 -1 1 1 2 0 0 1 0 0 -1 0 -1 0 0 -1z"/>
<path d="M284 336 l0 -2 1 0 1 0 0 1 1 2 -1 0 0 1 -1 0 -1 0 0 -2z"/>
<path d="M760 298 l-1 -1 1 -4 2 -3 0 -1 1 0 0 2 0 2 -1 2 -2 3 0 0z"/>
<path d="M549 273 l0 -1 1 -1 1 -1 0 1 -1 0 1 2 1 1 -1 0 -1 0 -1 -1z"/>
<path d="M541 260 l-1 0 0 -1 0 -1 1 0 1 0 0 2 0 1 0 0 -1 0 0 -1z"/>
<path d="M511 93 l0 -1 1 1 0 1 0 1 -1 0 0 -2z"/>
</g>
</svg>
