<?xml version="1.0" standalone="no"?>
<!DOCTYPE svg PUBLIC "-//W3C//DTD SVG 20010904//EN"
 "http://www.w3.org/TR/2001/REC-SVG-20010904/DTD/svg10.dtd">
<svg style="fill: black; stroke: black;" version="1.0" xmlns="http://www.w3.org/2000/svg"
 width="770.000000pt" height="831.000000pt" viewBox="0 0 770.000000 831.000000"
 preserveAspectRatio="xMidYMid meet">
<metadata>
Created by potrace 1.16, written by Peter Selinger 2001-2019
</metadata>
<g transform="translate(-158.000000,849.000000) scale(1.000000,-1.000000)"
fill="#8B4513" data-original="#000000" stroke="none">
<path d="M507 847 l-3 -1 -2 -2 -1 -2 -1 1 -1 0 0 -1 0 -1 0 -1 -1 -1 0 -1 0
0 0 -2 0 -1 -1 0 -1 0 -1 1 -1 0 -3 0 -3 1 0 3 0 3 0 0 0 1 -2 0 -1 0 -1 0 0
0 -4 0 -3 -1 -1 0 0 -1 1 0 2 0 -1 -2 -1 -2 -2 0 -1 0 0 2 0 1 -2 -1 -3 0 -1
1 0 2 -5 0 -5 1 -1 -2 -1 -2 -1 0 -2 0 -1 -1 -1 -1 0 1 0 2 -1 0 -1 1 -1 -1
-2 0 0 -1 0 -1 3 -1 3 -1 -3 -1 -2 -1 -1 0 0 1 0 0 0 1 -1 0 -2 0 0 1 -1 1 -2
-1 -2 -1 0 -1 0 -2 2 -2 2 -2 0 -2 -1 -1 -2 1 -1 0 0 -3 1 -3 -4 -1 -3 -1 -1
0 -1 0 -4 -2 -3 -3 0 -3 0 -3 0 -2 -1 -2 -2 -1 -2 -1 -2 1 -2 1 1 2 0 3 -1 -2
-1 -1 -1 0 -1 1 1 1 0 1 -2 0 -2 0 0 1 -1 2 -1 -3 0 -2 -2 0 -1 0 -4 -4 -3 -3
1 -2 1 -2 -2 0 -1 -1 -1 1 -2 0 0 -1 0 0 2 -2 1 -2 -1 -1 -2 0 -3 0 -3 0 -2
-2 -1 -1 0 -2 0 -2 -2 0 -1 -1 -2 1 -1 1 0 -2 0 -1 -2 3 -2 4 -1 -2 -2 -1 0
-2 1 -1 -2 2 -1 2 -3 0 -2 0 -1 2 -1 2 0 -2 1 -2 -2 -1 -1 -1 -1 -3 -2 -3 1
-1 0 -1 -1 0 -1 0 -1 5 0 4 -1 1 -1 0 -1 -1 0 0 1 -1 1 0 0 -1 0 -1 -1 0 -2 1
0 -1 0 -2 -1 0 -1 -1 -2 3 -3 2 -3 -2 -2 -2 -4 1 -4 1 -1 -1 -1 -1 1 0 1 1 -1
-4 0 -3 -2 -2 -1 -1 1 -2 1 -1 -2 -4 -1 -3 -2 0 -2 0 0 2 0 1 -1 0 -1 0 0 1 1
1 -3 -1 -3 0 -1 -1 0 -1 -2 1 -1 0 0 -1 1 -2 -1 -1 -1 -1 -1 -4 0 -5 1 -2 1
-1 -1 -1 -1 -1 -1 0 -1 0 0 1 0 1 -3 -1 -2 0 -1 -1 -1 0 0 -2 0 -2 -2 -1 -2 0
0 -2 0 -1 1 0 1 -1 0 -2 1 -2 -1 0 0 0 -3 0 -2 -1 1 -3 0 -2 1 -2 1 -1 -1 -1
-1 -2 -1 0 -1 0 0 1 0 2 -2 0 -1 1 0 0 -1 0 -1 1 -2 1 0 -1 -1 -1 -2 0 -2 0 0
2 0 2 1 -2 1 -1 0 2 0 2 -1 0 -1 -1 -2 0 -1 -1 0 1 0 1 -1 -1 -1 0 -4 0 -3 -1
1 1 2 1 -4 -1 -3 0 -1 -1 -1 -1 0 -3 1 -3 -1 1 -1 0 0 -1 0 -2 1 0 1 0 0 -1
-1 -1 -2 0 -3 0 -1 3 -1 2 -3 0 -3 0 0 -3 0 -3 -3 0 -3 0 0 -2 0 -1 -1 1 -1 0
0 -1 0 -1 -2 0 -3 1 0 -2 0 -1 0 -1 0 0 1 -3 0 -2 -3 2 -3 3 -1 -1 0 -1 -1 0
-1 0 0 2 1 1 -2 0 -3 -1 0 1 -1 1 -1 0 -1 -1 0 -3 0 -2 4 1 5 0 -1 -3 0 -3 -1
-1 0 -1 2 0 3 0 2 -2 1 -2 1 -2 0 -3 -3 -1 -2 -1 -2 1 -1 0 0 -1 1 -1 -5 0 -4
1 1 -1 1 -1 0 -1 0 0 2 -1 3 0 0 -1 0 -1 -1 0 -1 0 -1 -1 -2 0 -1 1 -2 2 -2 0
-3 1 0 -2 0 -1 -2 1 -1 2 0 2 0 2 -2 0 -2 1 -4 -1 -4 -1 -2 -3 -2 -3 0 -3 0
-3 0 -2 1 -2 1 0 1 0 -1 -2 -2 -3 0 -3 -1 -3 -1 0 -1 0 0 -1 1 -2 -1 0 0 0 -2
1 -2 1 -4 0 -4 0 -3 -2 -2 -1 -1 -2 -1 -2 1 -1 1 0 1 -3 2 -3 -1 -1 0 -1 -2 0
-2 0 0 2 0 1 -1 0 0 -1 0 -2 1 -2 2 1 2 0 0 -1 -1 -2 1 0 1 0 2 0 2 -1 1 0 0
-1 4 1 5 2 2 -1 2 -1 0 -1 0 -1 -2 1 -2 0 0 -1 -1 -2 -1 0 -2 0 -1 -3 -1 -3
-1 0 -1 0 0 1 1 1 -2 0 -1 0 -2 -1 -1 -2 -2 0 -2 0 1 -1 1 0 1 -3 0 -2 -1 1
-1 1 -3 -1 -3 0 -1 -1 -1 -1 1 0 1 1 0 0 0 -1 -2 -2 -1 -2 -2 2 -2 1 -1 -2 -1
-2 2 -4 1 -3 2 3 1 3 1 0 1 -1 2 -1 2 0 1 -1 1 -1 1 0 1 1 0 -1 0 -2 -1 0 -1
-1 0 -2 0 -2 3 -4 4 -4 3 -1 4 0 2 3 3 2 1 -1 1 -1 0 -2 0 -1 -1 0 -2 0 0 -2
0 -2 1 0 1 0 0 -1 0 0 0 -2 0 -1 2 0 1 -1 -1 1 0 1 2 0 2 -1 3 2 2 2 -1 -1 0
-2 1 0 1 0 2 2 2 1 0 -1 -1 -1 1 1 2 0 1 1 1 0 2 0 1 1 1 3 1 2 2 1 2 0 -1 2
0 2 2 0 2 0 0 2 -1 1 1 0 1 0 1 -1 0 -1 2 0 2 0 1 -2 2 -1 2 0 2 1 3 2 2 3 0
-3 -1 -3 2 0 2 0 1 -1 0 -1 -1 -1 -1 0 -2 -2 -1 -1 1 0 2 0 2 2 2 2 3 -1 3 0
1 1 0 1 -1 -1 -2 0 2 3 2 3 2 3 2 2 3 -1 4 -2 0 -1 1 -1 -2 0 -2 0 -2 1 -3 1
-1 0 0 -1 1 -2 2 -1 5 0 6 0 0 -2 0 -2 0 0 1 0 3 2 4 2 2 0 2 0 -2 -1 -2 -1
-4 -5 -3 -5 -4 0 -4 0 -2 -2 -2 -1 -1 1 -1 2 -1 -1 -2 -1 0 1 -1 1 1 0 2 0 1
1 0 1 -3 0 -2 -1 -3 1 -2 1 0 1 0 2 -2 -1 -2 -1 0 -2 1 -2 -1 -1 -1 0 0 -2 1
-1 -1 0 -1 0 -1 -1 -2 0 -3 4 -2 4 -3 -1 -2 -1 -1 0 0 0 0 1 0 2 -4 0 -3 0 -1
-1 -1 -1 -1 0 -1 0 -1 -2 0 -1 2 0 2 0 -2 -1 -1 0 -2 -2 -2 -1 -2 1 -2 0 0 1
0 1 -2 -1 -3 -1 1 -1 0 -1 -1 1 -2 1 0 -1 0 0 0 -1 0 -1 0 -2 -1 -1 -2 1 -2 2
-2 0 -1 0 -2 -2 -2 -2 0 -2 1 -2 2 -1 2 -1 4 -1 3 0 0 3 0 4 1 1 2 2 1 -1 0 0
0 1 -1 1 1 1 1 1 1 -1 1 -1 1 -4 0 -4 1 0 2 0 1 -1 0 -1 -1 -2 -1 -1 1 0 1 1
2 -1 3 -1 0 -1 0 -1 2 0 2 -1 2 1 2 1 1 -1 1 -1 0 1 0 1 2 0 3 0 0 -3 0 -2 2
0 1 0 0 1 0 2 1 -2 1 -1 -2 -2 -1 -1 0 -1 0 -2 2 -1 2 -1 0 1 1 1 -1 3 0 3 1
-1 2 -1 -1 -2 -1 -1 1 0 1 0 1 1 0 1 2 0 2 0 0 -3 1 -3 -1 0 -1 1 -2 -2 -1 -1
-2 0 -2 0 2 -3 1 -3 2 -2 2 -2 0 -3 -1 -2 2 0 3 0 1 2 1 1 1 -1 1 -1 2 1 2 0
0 2 1 1 2 0 2 0 0 2 1 2 3 0 3 0 0 -1 0 -1 -1 0 -1 0 1 -1 0 -1 2 0 1 1 0 -1
0 -2 3 -3 3 -3 -2 0 -2 0 0 -1 0 0 2 -1 1 -2 4 1 4 1 0 -1 -1 -1 -2 -1 -3 0 0
-1 0 -1 1 -1 2 -1 2 0 2 -1 2 1 1 2 2 1 2 2 1 0 2 -1 2 2 2 3 0 1 0 1 3 1 3 0
2 1 3 1 1 -1 1 -1 4 0 5 0 3 3 4 4 -1 2 -1 2 1 2 2 2 -1 3 -1 4 -2 -1 -1 0 1
1 0 2 -2 0 -1 0 -2 -1 -2 -2 1 0 0 -1 -2 -2 -2 -3 -1 0 -1 0 -1 3 -2 3 2 1 1
1 1 -1 0 -1 1 0 1 0 -1 2 -2 2 1 0 1 0 0 1 0 1 -2 0 -1 0 0 2 0 2 1 0 1 1 1 2
0 3 1 0 1 0 4 -2 5 -1 1 1 1 2 1 0 2 0 1 3 2 3 -1 2 -1 2 1 1 2 1 -2 0 -2 0 2
2 3 2 2 0 2 0 0 1 0 1 3 1 3 0 0 0 1 1 2 -4 2 -4 6 0 7 0 4 -3 4 -4 3 0 4 0 6
-1 6 -2 0 2 0 2 2 2 3 3 2 -1 3 -1 1 -4 1 -4 1 0 2 -1 4 1 5 1 7 3 7 2 4 4 4
3 4 1 5 1 3 -1 2 -1 3 -3 2 -2 1 -5 2 -6 2 -1 1 -1 0 -3 0 -3 2 -3 2 -2 0 -4
0 -3 2 -3 2 -3 0 -5 0 -5 -1 0 -2 0 -2 -3 -3 -2 -2 -4 -3 -4 -4 -4 -3 -4 -1 1
0 1 -4 -1 -4 0 -2 -2 -2 -1 -1 -4 0 -3 0 -2 0 -1 3 -2 2 -2 -1 -1 0 -2 1 -2 1
-2 1 0 2 0 4 -2 5 -2 3 -3 3 -2 2 -2 2 -1 1 -1 2 0 0 -1 0 -1 2 -3 3 -3 0 -2
0 -2 1 0 1 0 0 -1 -1 -1 2 -2 1 -1 0 -3 0 -2 2 -3 1 -3 5 -3 5 -3 3 -5 2 -4 2
-3 3 -3 3 -2 4 -2 -1 -3 0 -3 2 -3 3 -2 -1 -2 -2 -1 -2 0 -1 -1 -3 -1 -3 0 0
-1 1 -1 -2 0 -1 0 -1 -2 -1 -2 -4 -2 -4 -1 0 -1 0 -1 -2 0 -2 0 1 -1 0 -1 -1
0 -2 1 -1 -3 -1 -2 -2 -4 -1 -3 -6 -1 -5 -2 -2 -1 -1 -1 2 -2 2 -2 -2 -6 -2
-6 1 0 0 0 -3 -3 -3 -3 -4 1 -3 0 -4 3 -4 2 -2 0 -2 0 -7 -3 -6 -3 -3 0 -3 -1
-2 -2 -3 -2 -3 -6 -3 -5 0 -4 0 -4 -3 -3 -3 -3 0 0 0 1 -1 -1 -2 -2 -5 -3 -6
-4 0 -1 0 -1 -6 -4 -6 -4 -8 1 -7 0 -2 -1 -2 -2 -2 -3 -1 -2 1 -1 0 -1 -4 -4
-4 -4 -2 -1 -3 -1 -5 1 -4 1 -5 -2 -4 -3 -4 1 -4 0 -3 -2 -3 -2 -5 -2 -4 -2
-4 -1 -4 0 -5 -2 -5 -2 -17 1 -17 0 -4 -2 -5 -3 -4 0 -3 0 -4 -1 -3 -2 1 0 2
0 13 2 13 1 14 0 15 0 5 0 5 0 6 0 7 1 1 0 1 1 3 0 4 1 0 -1 0 -1 -1 0 -1 0 0
0 1 -1 2 1 3 2 0 0 0 1 4 0 3 0 0 -1 0 -1 5 1 4 0 1 -1 1 -1 0 2 0 2 2 0 3 -1
-1 1 0 1 2 1 2 0 -1 1 -1 1 3 0 4 1 0 2 0 1 1 0 1 0 1 -2 2 -2 -1 0 -1 -1 2 0
3 0 2 -1 2 0 -2 1 -1 1 1 0 1 0 0 2 0 1 2 1 3 1 0 -1 1 -1 0 1 0 1 2 -1 2 0 1
-2 1 -1 2 0 2 1 1 1 0 1 -2 0 -2 -1 1 1 0 1 1 0 2 0 1 2 1 2 2 0 1 0 0 1 1 1
2 -1 3 -2 2 1 2 1 2 -1 2 -1 0 -1 1 -1 4 2 3 2 0 -1 -1 -1 1 0 2 0 -1 2 0 2 2
-1 3 0 0 -1 1 0 -2 -1 -1 0 0 -2 0 -1 1 0 1 0 2 -2 2 -2 1 0 0 1 -1 1 -2 2 2
1 2 1 2 -2 2 -1 0 -1 0 -2 3 -1 2 -1 4 0 4 0 2 3 3 3 1 -1 2 0 0 -2 1 -2 3 0
3 0 0 -2 0 -2 -2 -2 -2 -1 0 -2 0 -2 -3 -2 -2 -3 0 -4 0 -4 2 0 1 1 0 -2 1 -1
1 0 2 1 1 -2 1 -2 0 0 0 -1 -2 0 -2 0 0 -1 0 -1 -4 1 -5 0 -2 -2 -3 -3 -2 0
-3 0 -5 -1 -4 -1 -3 -3 -3 -2 -1 0 -1 0 -2 -3 -1 -4 0 -2 0 -2 2 -3 2 -2 2 0
3 -1 2 -1 2 0 1 -3 0 -2 0 -3 -1 -3 -2 -2 -1 -1 -2 0 -2 1 0 -1 0 -1 -1 0 -2
1 -1 -1 -1 -1 0 -2 0 -1 4 0 4 -1 0 -1 0 -1 -2 -1 -1 -1 1 0 1 0 1 1 0 1 3 0
3 -1 1 2 1 1 1 1 0 2 1 2 1 3 2 3 2 3 0 1 0 2 3 2 3 2 -1 1 0 1 1 0 1 1 0 3 1
3 1 0 2 0 0 1 0 1 -1 0 -1 -1 -2 1 -2 1 1 1 1 1 4 1 5 2 -1 1 0 1 3 0 3 0 2 1
3 1 1 2 1 3 1 0 1 0 1 3 1 3 1 1 0 1 1 -1 1 0 2 0 3 0 2 1 2 1 2 -1 1 -2 1 0
1 0 0 -3 0 -3 -1 -1 -1 -1 2 -2 2 -1 4 -3 4 -3 0 -2 0 -1 1 1 1 0 0 -2 0 -2
-2 0 -2 1 0 -2 0 -2 0 -4 1 -4 -1 1 -1 0 -1 -2 -1 -3 -3 1 -3 0 -2 -1 -1 -2 1
-1 1 -1 1 0 1 0 -1 -2 -1 -1 -1 1 -1 2 0 -3 1 -2 -1 -2 -1 -2 1 0 1 -1 0 2 0
2 2 -1 1 -1 -1 -2 -1 -1 1 -1 2 0 1 -1 1 0 2 2 2 1 0 2 -1 1 1 -1 1 0 0 1 0 1
2 0 1 0 0 1 0 2 2 1 2 0 2 0 2 -1 0 5 0 5 -2 -1 -1 0 0 2 0 3 4 0 3 -1 2 2 2
2 1 -1 0 -1 2 0 3 0 -2 1 -1 0 2 3 2 3 -1 3 0 3 -2 4 -2 4 -3 2 -3 2 -1 1 0 1
-2 0 -2 0 -2 1 -2 1 -1 1 -1 2 0 1 0 2 3 0 3 0 3 -2 4 -1 1 -1 2 0 -1 1 0 1 2
2 3 3 1 -2 2 -1 0 -1 -1 -2 2 1 1 0 0 -1 0 0 -2 -2 -1 -2 1 0 1 1 1 -2 1 -1 0
1 0 2 1 0 1 0 0 -3 0 -3 1 -4 0 -3 3 -6 2 -7 0 -3 0 -2 -1 -5 -2 -5 -1 -3 -2
-3 0 -2 0 -1 1 2 1 3 2 4 3 5 -1 6 0 7 -2 5 -2 6 1 5 0 5 2 0 1 0 0 3 -1 3 2
0 1 -1 0 1 0 0 -2 2 -2 2 -1 0 -1 -1 -1 3 -2 3 3 -2 3 -1 4 -5 5 -4 1 1 1 0 1
-1 2 -1 0 1 1 1 -1 1 -2 0 1 1 0 1 -2 0 -1 0 0 2 1 1 -2 0 -2 0 0 1 -1 1 -3 0
-3 0 -2 3 -3 3 3 2 3 2 2 1 3 1 0 2 -1 3 4 -3 4 -3 2 -2 2 -2 3 -2 4 -1 -3 -1
-3 0 0 -1 1 -1 -1 -2 -1 -2 0 -4 -1 -3 2 -4 1 -4 -1 -2 -1 -1 -2 -6 -3 -5 0
-2 1 -2 2 -12 1 -12 1 -12 1 -12 2 -8 1 -7 1 -6 0 -6 1 -27 0 -26 0 -1 1 -1 0
37 0 38 -3 13 -2 13 0 15 1 15 0 1 1 2 3 1 3 1 2 3 1 2 0 1 -1 2 2 2 2 2 0 3
-1 4 1 0 2 0 2 -2 2 -2 4 -1 3 0 2 1 3 1 1 0 2 1 3 3 2 3 0 -2 -1 -2 1 -1 1 0
2 1 1 1 -1 1 0 1 1 0 1 -1 5 0 5 -1 0 2 0 1 1 0 1 0 0 2 1 3 2 0 1 1 3 -2 3
-1 1 -2 1 -1 2 1 1 0 2 -1 2 -2 0 1 1 1 4 -3 4 -3 4 -1 5 -1 2 0 2 1 0 1 0 2
3 -1 3 0 2 0 2 -1 1 0 2 0 0 -1 -1 -1 1 0 2 0 0 2 0 1 2 1 3 0 0 -1 0 -1 2 0
1 0 0 1 0 1 2 0 1 0 0 -1 0 -1 3 -1 4 -1 9 1 9 0 2 0 3 1 3 -1 3 -1 -1 2 0 1
0 0 1 0 4 -1 4 -2 8 0 8 0 3 0 4 1 2 1 2 1 0 1 0 1 -3 1 -2 1 2 1 3 1 -2 1 -3
1 -1 -1 -1 -1 -2 0 -1 0 0 1 1 2 1 0 2 0 1 0 2 1 2 0 3 -1 1 2 1 1 6 0 7 0 2
2 2 2 -5 0 -5 1 -7 0 -6 0 -5 2 -4 2 -6 0 -5 1 -4 1 -3 1 -4 3 -4 4 -3 2 -2 2
-5 2 -5 3 -4 1 -4 1 -9 1 -9 1 -7 1 -6 2 -3 2 -3 2 0 1 0 2 -2 1 -2 0 0 1 0 2
-5 1 -6 2 0 -1 0 -1 -4 0 -3 1 0 1 0 2 -1 0 -2 0 0 -1 0 -1 -1 0 -1 0 0 1 0 2
-3 1 -3 1 -1 2 0 2 -1 2 -2 3 -3 1 -2 0 0 1 0 1 -5 -1 -5 0 -3 1 -2 2 0 2 0 1
-1 0 -2 0 -3 3 -2 3 -3 1 -3 0 -7 0 -6 1 1 -1 0 -1 -4 1 -4 0 -2 0 -2 0 1 2 1
1 0 2 -1 1 -1 0 -1 -1 1 2 0 3 2 -1 2 0 -4 3 -3 3 -3 1 -2 1 0 2 0 2 0 3 -1 4
-2 2 -1 2 0 1 1 0 -1 2 -1 1 3 1 2 2 1 -1 1 0 0 1 -1 1 4 4 3 4 3 6 3 6 1 7 1
7 1 0 1 1 0 3 0 3 3 3 2 3 0 -2 -1 -2 2 2 2 2 -1 4 0 4 -2 4 -2 4 -2 2 -1 2
-3 2 -2 1 -5 0 -6 1 -2 1 -1 1 -7 3 -7 3 -4 2 -3 1 -3 4 -4 3 0 0 0 1 1 0 1
-1 -1 1 0 2 -1 0 -1 0 1 1 0 1 -1 0 -2 0 0 1 1 1 -1 1 -2 2 1 1 1 1 -1 3 -1 4
-3 3 -4 4 -3 0 -3 1 -3 0 -3 0 0 1 0 1 -1 3 0 4 2 1 2 2 2 0 3 1 1 -1 0 -1 6
0 5 1 4 2 4 2 0 1 0 2 -2 6 -3 5 0 3 0 3 -4 5 -5 4 0 1 0 2 2 4 2 4 0 0 1 0 0
2 0 2 2 1 2 2 0 0 1 0 5 4 5 3 3 1 4 1 0 3 1 2 0 2 -1 2 2 1 3 1 3 0 4 0 6 -5
5 -6 3 0 2 0 2 3 3 3 -1 0 0 1 1 0 2 0 0 -1 0 -1 5 3 5 3 0 1 0 1 -3 1 -3 0 0
1 0 1 -4 0 -3 -1 -1 -1 0 -1 -3 -1 -2 -1 0 0 -1 0 0 4 1 4 -3 3 -2 3 0 3 0 3
2 4 2 3 3 1 3 1 3 2 3 1 1 1 2 0 4 -3 4 -3 4 -1 4 -1 4 1 4 1 4 3 4 3 2 -1 3
-1 0 -2 1 -1 -1 1 -1 0 0 -2 0 -2 -1 0 -1 0 0 -1 1 -1 -2 -1 -2 0 -1 -3 0 -3
-1 0 -1 0 0 -1 0 0 4 -4 4 -4 2 1 2 0 0 -1 0 -1 2 0 3 0 1 2 2 2 -1 0 0 1 1 0
1 -1 2 -1 3 -1 1 0 0 1 -1 2 -1 2 1 0 1 1 1 0 1 -1 0 -2 0 -1 4 0 4 1 2 -3 3
-3 0 -1 0 -2 2 -2 3 -2 3 1 3 1 1 2 0 2 1 1 2 1 0 3 0 3 -2 -1 -1 -1 1 3 0 3
-1 -2 -2 -1 1 -1 0 -1 -1 0 -1 0 0 3 1 3 -1 -2 -1 -2 -1 1 -1 0 1 1 1 2 -1 3
-1 3 -2 1 -2 0 -2 0 -2 -1 0 -2 0 -1 1 0 1 0 0 -1 0 -1 1 -3 2 -3 -1 0 0 0 -5
2 -5 1 0 1 0 1 1 0 1 0 0 2 1 2 -1 0 -2 0 -1 -1 -1 -1 0 1 0 2 1 1 1 1 -1 0
-1 0 1 1 2 1 -3 0 -2 0 1 -2 0 -2 -1 1 -1 0 0 2 0 2 1 0 1 0 -1 2 -1 1 0 1 1
0 3 -1 3 -1 1 0 2 0 3 0 2 -1 -1 -1 0 -1 2 1 3 0 0 2 1 1 2 0 2 0 0 1 1 2 -2
2 -2 2 1 1 2 1 0 -1 0 -1 1 1 1 0 1 -3 0 -3 2 0 1 1 1 -1 1 0 -2 -2 -1 -2 0
-1 1 -1 1 0 2 0 0 -2 1 -1 1 0 1 1 0 1 0 1 1 1 1 1 3 -1 2 0 2 1 2 1 1 -3 0
-3 -1 -1 -1 0 1 -1 0 -2 -2 0 -3 -1 0 -2 0 -1 2 -2 2 -2 0 1 1 1 2 -1 1 -1 1
1 2 2 0 0 1 0 0 -2 0 -3 -1 0 -1 0 1 -1 1 -1 2 1 1 1 2 -1 3 0 0 -1 0 -1 1 1
2 1 2 -1 3 0 -2 1 -1 1 3 -1 3 0 1 -1 1 -1 -1 1 0 2 1 0 1 1 0 -1 0 -1 1 0 1
0 0 2 0 1 1 0 2 0 1 -1 1 -1 -1 -1 0 -2 2 1 2 0 1 2 1 2 0 0 -1 1 4 -1 3 0 4
-4 3 -3 1 0 1 0 0 -2 0 -1 2 -3 1 -3 3 -1 3 -2 4 0 5 -1 2 2 3 2 0 -1 1 0 0
-2 0 -2 1 0 1 0 0 1 0 1 2 0 2 1 0 -1 -1 -1 2 0 1 -1 -1 1 0 1 2 0 1 0 0 -1
-1 -2 3 1 4 1 1 2 1 1 1 0 1 0 1 -1 2 -2 2 0 2 -1 0 -2 0 -2 2 -1 2 0 3 -1 4
0 1 2 1 2 -1 -2 -1 -1 -1 0 -1 0 2 2 2 3 3 -1 3 -2 1 1 2 1 1 2 1 2 -1 2 0 2
-2 0 -1 0 0 1 0 1 1 0 1 -1 -1 2 0 2 2 0 2 0 1 -1 2 -2 3 2 3 1 2 -2 2 -3 1 0
1 0 0 -1 0 -1 2 2 2 1 0 2 0 1 -1 0 -1 0 0 1 0 2 3 1 3 1 1 1 0 1 -3 1 -2 1 3
1 4 1 -1 1 0 1 3 0 2 -1 4 1 4 1 2 -2 1 -1 1 0 2 1 0 2 0 3 -1 0 -1 0 0 -1 -1
-1 -1 0 -1 0 2 2 1 2 3 0 2 0 1 1 0 1 2 -1 1 -2 1 0 1 0 1 3 2 3 0 2 0 2 1 0
1 0 0 4 0 3 -1 1 -1 0 1 1 0 1 -2 -1 -1 0 0 1 1 1 -1 1 -2 2 -1 -1 -1 -2 -2 1
-2 0 0 1 0 1 2 1 2 0 0 1 -1 1 1 1 2 2 -1 2 0 2 -2 2 -2 2 -2 0 -1 0 -2 2 -2
2 -2 0 -2 0 -1 3 -1 3 -2 -1 -1 -2 -2 0 -2 -1 -2 1 -1 2 -2 -1 -2 -1 -1 2 -2
2 1 1 0 2 -1 1 -1 2 -1 -2 -1 -1 0 -2 0 -1 -1 0 -1 0 -1 -3 -1 -4 -2 0 -1 -1
-1 1 0 1 -2 0 -1 -1 0 1 1 1 -1 0 -1 1 2 1 2 0 0 2 0 1 -2 0 -1 -1 0 1 1 2 0
0 -1 0 -3 -3 -2 -2 -1 1 0 1 -1 0 -2 0 0 2 0 2 -1 2 -2 1 -1 -1 -1 0 1 -1 0
-1 -2 1 -1 0 0 -1 1 -1 -2 0 -3 0 0 1 0 1 -1 2 -2 1 0 -1 -1 0 0 5 1 5 -1 0
-1 0 0 3 -1 2 -2 2 -2 1 1 2 2 3 -1 2 0 2 -4 1 -4 1 0 2 1 3 0 0 0 1 1 0 2 0
1 2 0 2 -2 2 -2 2 0 1 -1 2 -4 0 -4 1 -3 -2 -3 -1 0 -1 1 -1 -2 0 -2 0 -1 2 0
1 1 1 1 1 0 3 0 2 1 2 2 2 0 1 0 1 -2 4 -2 5 -2 2 -3 3 -2 0 -2 -1 -1 1 0 1 1
1 1 1 -1 0 -2 1 -1 0 -1 0 -1 -2 -1 -3 -2 1 -1 1 -1 -1 -2 -1 0 1 0 1 -1 0 -2
0 0 -1 -1 -1 0 2 0 2 -1 0 -1 0 0 1 0 2 -4 0 -5 0 0 -1 0 -2 -1 0 -1 0 0 2 0
2 1 1 2 1 -2 0 -1 -1 -1 1 -2 2 0 -1 -1 0 0 1 0 1 1 3 1 3 -1 1 0 1 -2 1 -2 1
-2 -1 -3 0 0 -2 -1 -2 -2 0 -3 0 0 2 -1 1 -2 -1 -2 -2 1 -1 0 -1 -1 1 -2 1 0
1 0 1 1 0 1 -1 0 1 0 2 -1 0 -2 0 0 1 0 2 -1 -2 -1 -1 0 1 -1 2 -1 0 -2 0 -1
-2 -1 -1 -1 1 -1 2 -1 -1 -2 -1 -1 3 -2 2 1 1 0 1 -2 2 -2 1 1 1 2 1 -3 0 -2
-1 -2 -1 -2 0 -1 2 -1 3 -3 0 -3 0 -1 0 -1 1 -1 -2 0 -1 -3 0 -2 1 0 -1 0 -1
-1 -2 -2 -1 0 -1 -1 -1 -1 1 -1 1 0 -1 -1 -1 0 2 0 2 1 0 1 0 1 0 1 0 -1 2 -1
1 2 0 2 0 -2 2 -2 1 -2 0 -1 -1 0 -1 1 -1 -2 0 -1 0 0 1 0 1 1 0 1 0 -1 1 0 2
1 -1 0 -1 2 2 2 1 1 0 2 -1 2 2 2 2 -1 1 -2 1 -2 -1 -1 -1 0 1 0 1 -1 0 -2 -1
0 1 0 2 0 2 -1 3 2 0 2 1 -1 2 0 2 -1 -2 0 -2 -1 0 -1 1 -2 -1 -2 -1 0 2 0 2
-1 0 -2 0 0 3 -1 2 -2 -1 -2 0 -2 1 -1 1 1 1 0 1 -1 0 -1 0 0 -1 0 -1 -1 1 0
1 -3 0 -3 0 -1 1 0 2 1 0 1 0 -1 -2 0 -1 1 0 0 1 1 2 0 2 0 1 1 2 2 0 1 0 1 3
1 3 1 0 1 0 -1 -2 -1 -2 0 -2 1 -1 1 2 1 2 0 4 0 3 -2 2 -2 2 -1 -1 -1 -1 -1
1 -1 1 0 0 -1 0 -1 0 -1 0 0 4 1 5 -3 -1 -2 0 -2 -2 -1 -1 0 1 -1 2 1 0 1 0 0
0 0 1 0 1 -1 2 0 2 -1 1 -1 0 -1 -1 0 1 0 2 -2 2 -2 2 -2 -1 -1 -1 1 0 2 0 -1
-1 -1 -2 -2 1 -1 0 0 2 0 2 -4 1 -4 1 -2 -1 -2 -1 -2 0 -2 -1 0 1 0 1 -1 0 -1
0 1 -2 2 -2 -2 -1 -1 -1 1 -2 1 -1 0 0 1 0 0 -1 0 0 1 -1 1 -1 -1 -1 0 -1 -3
0 -3 -1 -1 2 -2 2 1 2 0 3 -3 2 -2 3 -1 0 -1 0 0 -1 0 -1 -1 -3 -1 -2 -2 0 -1
0 0 -1 1 -1 -2 0 -1 0 0 1 0 1 -1 0 -1 0 0 -1 1 -1 -2 1 -2 0 -1 -1 0 -2 -3 0
-2 0 -2 -1 -3 -1 -1 1 -1 1 0 1 1 1 -1 1 -1 0 -2 1 -1 0 0 -1 0 -1 -1 0 -1 0
-1 2 -2 1 0 -1 -1 -2 1 0 1 0 -2 -2 -1 -2 -1 3 -1 3 1 1 0 1 2 0 3 0 -1 1 -1
1 -1 2 0 2 1 -1 1 0 0 1 0 1 2 0 1 0 -1 1 -1 1 -2 -1 -2 -1 0 0 -1 0 0 1 1 1
-2 0 -2 1 -1 -1 -1 -1 2 0 2 0 -3 -1 -2 -1 -2 2 -1 2 -2 0 -2 1 -1 -1 -1 -1 0
1 0 2 0 0 0 1 -4 3 -5 4 -2 0 -2 0 -3 -2z m-46 -8 l-1 0 0 2 -1 2 1 -2 1 -1 0
-1z m154 -21 l0 -1 -1 0 -1 0 0 2 0 1 1 0 1 -1 0 -1z m-263 -41 l0 -1 0 0 -1
0 0 1 -1 1 1 0 1 0 0 -1z m-38 -15 l0 -1 -1 0 -1 0 0 1 0 1 0 0 1 0 1 -1z
m119 -5 l0 -1 0 0 -1 0 0 1 -1 1 1 0 1 0 0 -1z m108 -45 l0 -1 -1 0 -1 0 0 1
0 1 1 0 1 0 0 -1z m4 0 l1 -1 -1 0 -1 -1 0 -1 0 -1 1 1 1 0 0 0 0 -1 -2 -4 -1
-4 -1 0 -1 0 0 -1 0 -2 -4 -4 -5 -4 -1 0 0 0 1 5 0 5 1 1 1 1 -1 3 -2 4 2 1 2
0 3 1 3 0 0 -2 0 -1 1 -1 1 0 0 3 0 4 1 0 1 0 0 -1z m-24 -6 l-1 -2 2 2 2 1 0
-3 0 -2 1 -1 1 0 0 1 0 2 1 0 1 0 1 -1 1 -1 -1 -6 -1 -6 -2 -2 -1 -1 -2 2 -2
2 -1 4 0 5 -2 2 -2 2 2 2 2 2 1 0 0 0 0 -2z m-23 -5 l0 -1 -1 1 -1 0 0 1 0 1
1 0 1 -1 0 -1z m8 -4 l2 -2 -1 0 -2 -1 -3 2 -3 1 0 1 0 1 1 1 1 1 1 0 1 -1 0
1 0 2 1 -3 0 -2 2 -1z m55 -6 l0 -1 -1 0 -1 0 0 -4 0 -4 -1 -2 -1 -1 -1 -4 -1
-3 -1 1 -1 0 -2 -2 -1 -1 -2 2 -2 2 0 3 0 4 0 2 0 2 2 1 1 2 2 -1 1 0 1 2 1 3
3 0 3 -1 1 0z m-171 -6 l0 -3 2 -1 2 0 0 -5 0 -4 -1 0 0 1 -2 -2 -1 -1 0 1 0
1 -1 0 -1 0 -2 -2 -2 -2 -3 2 -2 3 -1 -2 -1 -2 -1 1 -1 1 -2 -1 -1 -2 2 0 2
-1 0 -1 0 -2 -1 0 -1 0 1 -2 2 -1 0 -2 0 -1 1 -2 1 -1 -1 2 0 2 2 0 3 0 0 -2
0 -2 -1 1 -1 0 0 -2 1 -2 -4 3 -4 2 -2 2 -1 2 1 3 0 4 -2 2 -2 2 1 1 1 2 -2 3
-1 3 -2 0 -1 0 0 -3 1 -2 -3 0 -2 0 1 -2 1 -2 1 1 1 0 0 -1 0 -1 -1 0 -1 0 1
-1 0 -1 -1 0 -1 0 -1 2 0 2 -1 0 -1 0 0 2 0 2 2 1 1 2 1 -1 1 0 0 1 0 2 0 1 0
2 1 0 1 0 -1 -2 0 -1 1 1 2 1 4 0 4 0 1 2 1 1 2 -1 2 -1 2 2 2 2 1 0 2 1 1 -1
2 -1 -1 -3z m11 1 l0 0 -1 0 -1 -1 0 1 -1 2 2 -1 1 0 0 -1z m138 0 l0 -1 1 0
1 0 1 2 1 2 0 -3 0 -3 0 -3 0 -2 2 -5 2 -5 -3 -5 -3 -5 -1 0 -1 0 -1 5 -2 5 0
1 0 2 0 2 1 3 -3 3 -3 3 1 2 0 2 2 1 2 1 2 0 2 -1 -1 -1z m-116 -2 l3 -1 -1
-1 0 -1 -2 0 -1 0 1 -1 1 -1 2 1 3 0 -2 -1 -1 -2 1 0 1 0 1 1 1 2 0 -2 -1 -2
2 0 1 1 0 -3 1 -2 -3 -1 -2 0 1 1 0 2 -1 0 -2 0 0 1 0 1 -3 0 -2 0 0 -2 1 -1
-1 0 -1 0 0 -2 0 -1 1 1 1 0 0 -1 -1 -1 -1 1 -2 0 0 5 0 5 0 1 -1 1 2 1 1 1
-1 1 0 1 0 0 1 0 3 -2z m147 1 l0 -2 -2 -3 -3 -2 0 1 0 1 2 3 1 3 1 0 1 0 0
-1z m-7 -1 l-1 -1 0 -2 0 -2 -1 0 -1 0 1 3 0 3 2 0 1 0 -1 -1z m9 -6 l2 0 0
-2 1 -1 -1 -1 -1 -1 -2 0 -2 0 -1 -1 0 -2 -1 0 -1 0 0 2 0 1 -2 -1 -2 0 2 2 2
3 2 1 3 2 0 -1 0 -1 1 0z m-162 -3 l0 0 -2 -2 -1 -1 -1 0 0 1 1 1 1 2 1 0 1 0
0 -1z m27 -3 l0 -1 -3 -4 -4 -3 0 1 -1 0 2 2 2 1 0 2 0 1 1 0 1 -1 0 1 0 2 1
0 1 0 0 -1z m82 -1 l1 -2 -1 -9 -1 -9 1 -2 0 -1 2 0 2 0 0 -1 0 -1 1 -3 0 -2
-1 -2 -1 -2 -2 -3 -2 -2 0 -5 0 -4 1 -3 2 -3 -1 -9 -1 -8 -2 -1 -1 -2 -6 -3
-6 -3 -2 3 -1 3 -3 3 -2 2 0 2 0 1 2 7 1 7 -1 3 -1 2 -1 -1 0 -1 -1 0 -1 0 -3
2 -3 3 -4 1 -3 2 -2 -1 -1 0 -3 1 -2 1 0 3 0 3 -2 2 -2 1 0 2 0 1 1 0 1 0 -1
2 -1 1 1 -1 2 0 0 1 0 2 2 1 2 0 1 3 1 2 2 0 1 0 0 -1 1 -1 1 1 1 2 0 -2 0 -2
3 0 4 -1 2 1 2 1 0 1 0 2 0 1 1 2 1 -1 2 0 0 1 0 2 -1 0 -1 0 0 2 1 2 1 2 2 2
0 1 -1 1 1 1 0 2 8 0 8 0 2 -2z m42 0 l0 -1 -1 0 0 0 -4 -1 -3 -2 0 1 0 1 3 2
4 1 0 0 1 0 0 -1z m-120 -1 l0 -1 -1 0 -1 0 0 1 0 1 1 0 1 0 0 -1z m121 -4 l0
-1 -1 1 -1 1 1 1 0 1 1 -1 1 -1 -1 -1z m-198 -3 l0 -3 -2 1 -1 2 1 2 1 2 0 0
1 0 0 -4z m189 1 l0 -1 -1 -2 -1 -3 -3 -2 -3 -1 1 1 0 2 3 3 3 3 0 0 1 0 0 0z
m-192 -4 l0 -2 -1 0 -1 0 0 1 0 1 1 0 0 1 1 0 1 0 -1 -1z m5 -4 l0 -1 8 -8 8
-7 -4 0 -4 1 -2 0 -2 1 -6 0 -5 1 -1 2 -1 3 1 1 1 1 0 3 -1 3 -2 0 -1 1 4 0 4
0 -1 1 0 1 2 0 2 -1 0 -2z m-169 1 l0 -1 -1 0 -1 0 0 1 -1 1 1 0 1 0 1 -1z
m408 0 l0 -2 0 0 -1 0 0 2 -1 1 1 0 1 0 0 -1z m-172 -1 l0 1 1 0 1 0 0 -4 0
-4 -1 0 -2 0 0 2 0 1 0 1 0 1 -2 0 -1 1 1 1 0 1 2 -1 1 -1 0 1z m168 -2 l0 -2
1 -2 2 -2 0 1 1 0 0 -1 0 -1 1 0 1 0 2 -1 3 -1 1 -2 1 -1 1 1 2 1 0 -1 0 -1
-1 0 -1 -1 0 -1 1 -2 2 1 2 1 -1 2 -1 1 0 1 1 1 2 -1 3 0 0 -1 0 0 -2 0 -2 0
0 -1 0 -1 1 -1 1 0 -2 -2 -2 -3 1 0 2 -1 -2 0 -1 0 -3 0 -2 0 0 -1 0 -2 -1 -1
-2 -1 -2 0 -2 -1 -3 0 -3 -1 -6 3 -7 4 0 1 0 1 -3 0 -3 0 0 1 0 1 3 2 2 3 0 0
-1 0 -5 -4 -4 -4 -5 0 -5 0 3 2 4 3 0 2 0 2 0 2 0 2 3 2 4 2 2 0 3 0 7 2 7 1
0 1 1 1 1 0 1 0 -1 -3z m36 2 l0 -1 -2 -1 -2 -1 1 1 2 2 1 0 0 0 0 0z m-14 -5
l2 0 -2 -1 -1 -1 -2 0 -2 0 1 2 1 2 1 -1 0 -1 2 0z m-234 -2 l3 -2 2 -2 2 -1
3 0 2 0 0 -2 0 -2 3 0 4 0 0 -2 1 -1 1 0 2 0 0 2 0 1 2 0 2 0 1 1 1 2 1 -1 1
0 0 1 0 1 3 -1 3 -1 1 0 0 1 -1 0 -1 0 0 1 0 1 4 0 4 1 4 -4 5 -5 3 -1 4 -1 2
1 3 1 0 1 0 1 2 0 1 0 0 -1 0 -1 3 0 3 0 2 -1 1 -2 0 -1 0 -1 -2 -2 -1 -2 0
-2 0 -2 1 0 2 0 1 -3 1 -3 3 0 4 0 2 1 2 2 2 0 3 0 2 -2 2 -2 1 -3 1 -2 -1 -5
0 -4 0 -5 0 -5 3 -4 2 -4 -1 -3 0 -2 -1 -1 -1 0 0 2 -1 2 -2 1 -3 1 -1 2 0 2
-3 4 -3 4 -4 4 -3 4 -3 1 -2 1 -1 0 0 0 -2 2 -2 2 -5 1 -4 1 -6 1 -6 0 -3 0
-2 1 -1 -3 0 -3 -6 -3 -5 -3 -3 0 -3 0 -3 1 -2 2 -1 3 -1 3 -2 -1 -1 0 -4 3
-4 4 -2 3 -2 4 -1 7 -1 7 -1 1 -1 2 0 2 0 1 -1 0 -1 -1 0 1 -1 1 1 0 1 0 0 1
0 1 -2 0 -2 0 -2 2 -1 2 2 -1 2 0 2 -2z m-44 -3 l-1 -1 -2 0 -1 0 1 2 1 2 2
-1 1 -1 -1 -1z m281 2 l0 -1 -1 0 -2 -1 0 1 0 1 1 0 0 1 1 0 1 0 0 -1z m-223
-6 l0 -1 -1 0 -1 -1 0 1 0 1 1 0 1 0 0 0z m159 -4 l2 -2 -3 -1 -3 -1 -2 1 -2
1 2 2 2 2 1 0 1 0 2 -2z m62 -1 l-1 -1 -1 0 -1 0 1 1 2 1 0 0 0 0 0 -1z m-320
-5 l0 1 1 -2 1 -2 2 0 1 0 0 -1 0 -2 1 0 1 0 1 1 1 2 -1 -2 0 -1 -1 -3 0 -2 1
0 0 0 3 2 2 2 1 -1 1 0 -3 -2 -2 -2 -2 0 -2 0 -2 2 -2 1 0 -1 0 -1 3 -2 2 -2
0 -1 -1 0 -2 0 -2 1 -2 4 -2 4 1 1 0 2 -1 0 -1 1 1 1 0 1 -1 0 -1 0 1 1 0 1 2
-1 1 -1 0 1z m284 -2 l4 -1 3 -2 3 -1 0 -1 0 -1 -4 -1 -4 -1 -3 -1 -3 0 -3 2
-2 2 -3 1 -2 1 -3 -1 -3 -1 -1 1 -1 1 2 2 2 1 4 1 5 1 2 0 3 0 4 -2z m-220 0
l1 -1 3 0 4 -1 3 -3 4 -2 1 -4 1 -3 4 -4 3 -4 0 -3 0 -3 -1 0 0 0 -2 1 -1 2
-4 0 -3 1 0 -1 0 -1 2 -1 3 -1 3 -3 3 -3 0 -2 0 -1 -1 -1 -2 -1 -6 3 -5 3 -4
6 -3 6 -2 1 -2 1 -6 1 -6 2 -10 2 -10 3 -2 -2 -3 -1 -2 0 -2 1 -1 2 -1 2 1 2
1 1 2 -1 1 -1 -1 -1 0 -1 1 0 2 1 4 1 3 0 2 2 1 1 4 -2 4 -2 3 1 3 0 3 0 4 1
2 2 2 3 0 1 0 2 1 0 1 0 0 -1z m-73 -5 l-1 -1 -1 0 0 1 1 1 2 2 0 -1 0 -1 -1
-1z m-3 -1 l0 -1 -2 -1 -2 -1 -1 0 -1 1 1 -3 1 -3 1 0 1 0 0 -1 0 -1 -1 1 -1
0 0 -1 0 -2 -4 1 -5 0 -1 0 -1 1 0 -1 0 -1 -1 1 -1 1 2 3 2 3 -1 0 -1 -1 2 3
3 4 2 0 2 -1 1 1 0 1 2 -1 3 0 0 -2z m23 2 l0 -1 -1 0 -1 0 1 1 0 1 1 0 0 0 0
-1z m-20 -6 l-1 0 0 2 -1 2 1 -2 1 -1 0 -1z m340 1 l1 0 -1 -2 -1 -1 1 0 1 1
2 -1 2 -1 -1 -1 0 -2 2 0 1 0 -3 -2 -3 -1 0 1 0 1 2 0 1 0 0 1 -1 0 -2 0 -2 1
-2 1 -2 2 1 0 1 0 0 1 -1 1 -2 0 -2 0 0 1 1 1 3 -1 4 0 0 0z m-342 -1 l0 -2 1
1 1 0 0 -1 0 -1 0 0 -1 0 -2 1 -3 1 0 1 0 1 2 0 1 0 1 -1z m8 -5 l0 -1 -2 0
-2 -1 1 2 0 1 2 0 1 0 0 -1z m16 -5 l0 -2 -1 1 -1 0 0 -1 1 -1 3 -1 2 -1 0 -1
0 -1 -3 0 -3 0 -2 -1 -2 -1 -1 -1 0 -1 -3 0 -2 -1 -2 2 -1 1 0 2 1 1 1 0 1 0
0 1 -1 1 2 2 2 2 3 0 2 -1 1 1 2 1 0 0 1 0 0 -1z m39 -1 l5 -2 -5 0 -4 0 -2 1
-3 1 0 1 1 1 2 0 2 0 4 -2z m292 1 l-1 -1 -2 1 -1 0 0 1 0 0 2 0 2 0 0 -1z
m-36 -4 l-1 -1 0 1 0 1 1 0 0 1 1 -1 0 0 -1 -1z m-393 -2 l1 0 -2 -1 -2 -1 -1
1 -1 0 0 1 1 1 2 -1 2 0 0 0z m468 -2 l0 -3 -2 0 -1 0 1 1 1 0 -1 2 0 1 -1 -1
-1 0 0 1 1 1 1 0 2 0 0 -2z m-63 -3 l-1 0 -1 1 -2 1 0 1 0 1 2 -2 2 -1 0 -1z
m-345 1 l-1 0 -1 0 -1 1 1 0 2 0 0 -1z m334 -1 l0 -1 -2 0 -3 0 0 1 0 1 2 0 2
1 0 -1 1 0 0 -1z m-394 -1 l-1 0 -1 0 -1 1 2 0 3 0 -2 -1z m388 -2 l1 -1 2 1
2 1 0 -1 0 -2 -3 0 -3 0 -1 2 -1 1 1 0 1 0 1 -1z m-405 -5 l1 -1 -1 0 -1 -1 0
2 0 1 1 0 0 0 0 -1z m249 0 l-1 -1 -2 0 -2 0 1 1 0 1 2 0 2 0 0 -1z m344 -4
l-1 -1 2 -1 3 -1 -1 0 0 -1 0 -2 0 -1 1 1 1 1 1 -1 1 0 -2 -2 -2 -1 -3 -1 -3
0 0 1 0 2 -2 0 -2 0 2 3 3 2 -2 0 -2 0 0 0 0 1 0 2 0 1 2 0 1 0 0 1 0 1 2 -2
2 -1 -1 -1z m-510 1 l0 -1 -1 0 -1 0 1 1 0 1 1 0 0 0 0 -1z m332 1 l0 -1 -1 0
-1 -1 0 1 -1 1 1 0 2 0 0 0z m167 -10 l0 -1 -2 -2 -2 -2 -1 0 -2 0 -1 1 -1 2
1 1 2 2 2 -1 2 0 0 1 -1 1 1 0 1 0 1 -2z m-526 -20 l0 -1 -1 0 -2 0 0 1 -1 1
1 0 0 1 2 -1 1 0 0 -1z m225 -269 l-1 0 -1 0 -1 1 1 1 0 1 1 -1 1 -1 0 -1z
m-3 0 l1 -1 0 -1 -1 0 -1 1 -2 1 0 -1 -1 0 0 1 0 1 1 0 2 0 1 -1z m44 -18 l0
-2 -1 1 -1 0 0 2 0 1 1 0 1 0 0 -2z m-26 -1 l2 -2 -1 -1 -1 -1 -1 0 -1 1 1 1
0 1 -1 2 -1 1 0 0 1 0 2 -2z m-24 -6 l-1 0 -1 0 0 1 1 1 0 1 1 -1 0 -1 0 -1z
m29 -4 l1 -1 -2 0 -3 0 0 3 0 3 1 0 1 1 0 -2 0 -2 2 -2z m-28 1 l0 -1 -2 0 -1
1 -1 1 0 1 2 -1 2 -1 0 0z m6 1 l0 -1 -2 -1 -2 -1 0 0 -1 0 2 2 1 2 1 0 1 0 0
-1z m31 -4 l0 -1 -3 1 -2 1 2 1 3 1 0 -1 0 -1 0 -1z m219 0 l1 -1 0 -1 -1 0
-2 1 -2 2 1 0 2 0 1 -1z m-183 -39 l0 -7 -1 2 -1 2 0 4 0 4 1 2 1 2 1 0 0 -1
-1 -8z m-48 4 l-1 -2 -1 1 -1 0 1 1 2 1 0 0 1 0 -1 -1z m-75 -19 l0 -1 -1 0
-1 0 1 1 0 1 1 0 0 0 0 -1z m128 -35 l0 -7 0 0 -1 1 -2 7 -1 8 0 3 0 3 2 -4 1
-3 1 -8z"/>
<path d="M387 685 l-1 -1 1 0 1 0 1 1 0 1 -1 0 -1 0 0 -1z"/>
<path d="M513 666 l-1 -1 2 0 1 0 0 1 -1 1 0 0 -1 0 0 -1z"/>
<path d="M464 632 l-1 -1 1 0 1 0 0 1 0 1 0 0 -1 0 0 -1z"/>
<path d="M459 629 l0 -3 1 0 2 1 0 2 0 3 -1 0 -2 0 0 -3z"/>
<path d="M304 627 l-1 -2 1 0 2 0 0 2 0 1 0 0 -1 0 -1 -1z"/>
<path d="M338 620 l-1 -1 1 0 1 0 1 1 0 1 -1 0 -1 0 0 -1z"/>
<path d="M282 620 l-1 -1 1 -1 1 -1 0 1 -1 0 1 2 1 1 0 0 0 0 -2 -1z"/>
<path d="M279 616 l-1 -1 2 -1 1 -1 1 0 0 1 -1 1 -2 2 0 -1z"/>
<path d="M308 604 l0 -1 0 -1 1 0 0 1 1 2 0 0 -1 0 -1 -1z"/>
<path d="M543 833 l-1 -2 1 -1 1 0 0 0 0 1 1 1 0 2 -1 0 -1 0 0 -1z"/>
<path d="M639 790 l0 -2 1 0 0 0 0 2 1 1 -1 0 -2 0 1 -1z"/>
<path d="M325 783 l-1 -1 1 0 1 0 1 1 2 1 -2 0 -2 0 0 -1z"/>
<path d="M267 738 l1 0 1 0 0 1 -2 0 -1 0 1 -1z"/>
<path d="M229 695 l0 -1 1 0 1 0 0 1 0 1 -1 0 -1 0 0 -1z"/>
<path d="M213 691 l-1 -1 2 0 1 0 0 1 -1 1 0 0 -1 0 0 -1z"/>
<path d="M795 663 l1 -1 1 -1 1 0 0 1 0 2 -2 0 -1 0 0 -1z"/>
<path d="M836 649 l-1 -1 1 0 1 0 0 1 0 1 0 0 -1 0 0 -1z"/>
<path d="M173 648 l-1 -1 1 0 1 0 0 1 0 1 0 0 -1 0 0 -1z"/>
<path d="M158 617 l0 -1 1 0 1 0 0 1 -1 1 -1 0 0 0 0 -1z"/>
<path d="M650 607 l-2 -1 0 -1 0 -1 3 0 2 0 0 2 0 2 0 0 0 0 -3 -1z"/>
<path d="M671 601 l0 -1 1 0 1 0 0 1 -1 1 -1 0 -1 0 1 -1z"/>
<path d="M199 585 l0 -1 2 0 1 -1 0 1 0 1 -1 0 -2 0 0 0z"/>
<path d="M658 576 l0 -1 0 -3 0 -2 1 1 0 1 1 -1 1 0 0 2 0 2 -1 1 -1 1 -1 0
-1 0 1 -1z"/>
<path d="M829 572 l-1 -1 0 -1 1 0 1 0 0 1 0 1 -1 1 0 -1z"/>
<path d="M274 532 l0 -1 1 0 0 0 0 1 0 1 -1 0 -1 0 1 -1z"/>
<path d="M276 529 l0 -2 2 0 2 0 0 1 -1 2 -1 0 -2 0 0 -1z"/>
<path d="M395 283 l0 -1 1 1 1 0 0 1 0 0 -1 0 -1 0 0 -1z"/>
<path d="M361 271 l0 -1 1 1 1 0 0 1 0 0 -1 0 -1 0 0 -1z"/>
<path d="M353 269 l0 -1 1 1 1 0 0 1 0 0 -1 0 -1 0 0 -1z"/>
<path d="M430 269 l1 0 1 0 0 1 -2 0 -1 0 1 -1z"/>
<path d="M378 268 l0 -1 1 0 1 0 0 1 0 1 -1 0 -1 0 0 -1z"/>
<path d="M360 262 l-1 -3 1 -1 1 -1 2 1 1 1 1 2 1 2 -2 2 -1 1 -1 0 -1 0 -1
-4z"/>
<path d="M439 265 l0 -1 1 -1 1 -1 1 1 1 0 -1 2 0 1 -1 0 -1 0 -1 -1z"/>
<path d="M291 261 l-2 0 1 -2 1 -2 2 2 2 1 -1 1 0 1 -1 0 0 0 -2 -1z"/>
<path d="M381 259 l0 -1 1 0 1 0 1 1 0 1 -1 0 -2 0 0 -1z"/>
<path d="M501 254 l0 -2 1 1 1 1 -1 1 -1 1 0 -2z"/>
<path d="M619 254 l0 -1 -1 1 -1 0 0 -1 0 -1 2 0 2 0 0 1 0 1 -1 1 -1 0 0 -1z"/>
<path d="M504 253 l0 -2 2 1 2 0 -1 1 -1 1 -1 0 -1 0 0 -1z"/>
<path d="M357 252 l0 -1 0 -1 1 0 1 1 1 1 -1 0 -1 1 -1 -1z"/>
<path d="M608 249 l-1 -1 0 -2 0 -2 2 -3 3 -3 1 1 2 0 1 2 1 2 -1 1 -1 1 0 3
0 2 -3 0 -3 0 -1 -1z"/>
<path d="M690 246 l-1 -2 2 -1 2 -1 1 0 1 0 0 2 0 3 -3 0 -2 0 0 -1z"/>
<path d="M576 239 l-1 -1 1 0 1 0 0 1 0 1 0 0 -1 0 0 -1z"/>
<path d="M642 238 l2 -1 1 0 0 1 -1 1 -1 1 -2 0 -1 0 2 -2z"/>
<path d="M537 220 l0 -1 1 1 1 0 0 1 0 0 -1 0 -1 0 0 -1z"/>
<path d="M459 214 l-1 -1 1 -1 0 -2 1 0 1 0 0 1 0 1 1 -1 1 0 0 2 -1 1 -1 1
-2 0 0 -1z"/>
<path d="M471 208 l-1 -1 1 0 1 0 0 1 0 1 0 0 -1 0 0 -1z"/>
<path d="M465 206 l0 -1 1 0 1 0 0 1 0 1 -1 0 -1 0 0 -1z"/>
<path d="M471 205 l-1 -1 1 0 1 0 0 1 0 1 0 0 -1 0 0 -1z"/>
<path d="M477 200 l1 -2 -2 1 -1 0 2 -2 2 -2 1 1 1 0 -1 1 -1 2 1 0 0 1 -2 1
-1 2 0 -3z"/>
<path d="M493 201 l0 -1 2 0 1 -1 0 1 0 1 -1 0 -2 0 0 0z"/>
<path d="M524 197 l0 -3 1 1 0 2 0 2 -1 2 0 -4z"/>
<path d="M479 194 l-1 -1 0 0 1 0 -1 -1 -1 -1 0 -2 0 -1 1 0 2 0 0 -2 1 -2 3
0 3 -1 1 2 1 1 0 -1 0 0 1 1 1 1 -3 3 -3 3 0 1 0 1 -1 -1 -1 0 1 -1 0 -1 -1 0
-1 -1 0 1 0 2 -1 0 -1 1 -1 -1z"/>
<path d="M497 193 l-1 0 0 -1 0 -1 2 0 1 0 0 1 0 1 -1 0 -1 1 0 -1z"/>
<path d="M525 191 l0 -3 1 1 0 2 0 1 -1 2 0 -3z"/>
<path d="M526 180 l0 -1 1 1 0 1 0 1 -1 0 0 -2z"/>
<path d="M527 171 l0 -6 1 3 0 3 0 3 -1 4 0 -7z"/>
<path d="M528 160 l0 -1 1 1 0 1 0 1 -1 0 0 -2z"/>
<path d="M308 152 l0 -2 1 0 1 1 0 1 0 0 -1 1 -1 0 0 -1z"/>
<path d="M528 147 l0 -5 1 2 0 3 0 3 -1 3 0 -6z"/>
<path d="M467 144 l-2 -4 1 -1 0 -1 2 0 2 0 0 1 0 1 2 0 2 0 0 2 1 2 -1 2 -1
2 -2 0 -2 0 -2 -4z"/>
<path d="M527 130 l0 -9 1 4 0 4 0 5 -1 5 0 -9z"/>
<path d="M388 134 l-1 -1 1 0 2 0 0 1 0 1 -1 0 -1 0 0 -1z"/>
<path d="M553 81 l0 -3 1 1 0 2 0 2 -1 2 0 -4z"/>
<path d="M927 19 l0 -1 1 0 0 0 0 1 0 1 -1 0 -1 0 1 -1z"/>
</g>
</svg>
