<?xml version="1.0" standalone="no"?>
<!DOCTYPE svg PUBLIC "-//W3C//DTD SVG 20010904//EN"
 "http://www.w3.org/TR/2001/REC-SVG-20010904/DTD/svg10.dtd">
<svg style="fill: black; stroke: black;" version="1.0" xmlns="http://www.w3.org/2000/svg"
 width="245.480122pt" height="825.000000pt" viewBox="0 0 245.480122 825.000000"
 preserveAspectRatio="xMidYMid meet">
<metadata>
Created by potrace 1.16, written by Peter Selinger 2001-2019
</metadata>
<g transform="translate(-410.935195,941.000000) scale(1.000000,-1.000000)"
fill="#F0E68C" data-original="#000000" stroke="none">
<path d="M542 938 l-3 -3 -2 -2 -2 -1 -1 0 -2 0 0 -2 0 -1 -1 0 -2 1 -1 -3 -1
-3 1 0 1 -1 -1 -1 0 -2 -2 -1 -2 0 1 -1 1 -1 -1 -1 0 -2 -1 0 -2 1 0 -3 0 -3
2 0 1 1 1 -7 0 -6 -1 -2 -1 -1 -5 -2 -5 -3 -2 -2 -2 -1 -2 -5 -2 -5 -3 -5 -3
-5 0 -4 0 -3 4 -7 3 -6 4 -4 3 -4 0 -1 0 -2 2 -2 2 -2 3 0 3 -1 5 -5 5 -6 1
-4 1 -4 0 -4 -1 -4 -1 -1 -1 0 1 -2 0 -2 -1 -3 -2 -3 -1 -2 -1 -1 -2 -4 -1 -4
-1 -1 -1 -1 -1 -2 -1 -2 1 -2 0 -1 2 2 2 1 0 1 0 2 3 2 4 3 2 1 2 1 0 -1 0 0
-1 -6 -2 -6 -3 -8 -4 -7 -2 -4 -2 -3 -2 -2 -2 -3 0 -2 -1 -1 0 -1 0 0 -3 -4
-3 -3 -1 2 -1 3 0 -2 0 -2 -2 -2 -2 -2 0 1 -1 0 0 -2 0 -2 -1 -1 -2 -2 1 0 0
-1 -1 0 -1 0 0 -1 0 -2 -1 0 0 0 -2 -4 -2 -4 -2 -1 -2 0 0 -3 -1 -2 -1 0 -1 0
0 -2 0 -2 -4 -6 -4 -6 0 -6 -1 -6 -1 -2 0 -2 -1 -3 -1 -3 -1 0 -1 0 0 1 0 2
-2 3 -2 4 0 1 0 2 -2 3 -2 4 0 2 0 2 -2 1 -1 0 -4 3 -4 2 -3 0 -3 0 -4 1 -3 2
0 1 0 1 -1 0 -1 0 -2 2 -2 2 -1 0 -1 0 1 2 0 2 -1 0 -1 0 -1 4 -1 3 1 1 0 1 1
-1 1 0 0 2 -1 2 2 2 1 1 -1 1 -1 1 2 2 3 3 1 8 2 8 2 3 1 2 0 1 -1 0 -1 -2 -1
-2 -4 -4 -5 -4 -2 -3 -1 -3 -1 0 -1 0 -6 -4 -5 -3 -3 -7 -2 -6 0 -3 0 -3 -1 0
0 1 0 -3 0 -4 0 -1 1 -1 -1 0 0 0 -1 0 -1 0 0 -4 1 -5 1 -2 1 -2 -1 -3 0 -4 2
-2 2 -2 -1 0 0 -1 1 -2 1 -3 1 0 1 1 0 -2 0 -2 0 -3 0 -3 1 1 1 0 0 -1 0 -2 1
0 1 1 -1 -1 0 -2 1 0 1 0 0 -6 -1 -6 -2 -2 -1 -2 1 0 1 1 1 -6 2 -5 4 -3 4 -3
0 -2 -1 -1 1 0 1 1 4 -2 5 -3 3 -1 4 0 5 1 5 1 0 1 0 1 1 0 1 -1 0 1 0 1 3 0
2 0 0 1 -1 1 1 0 1 0 5 -4 5 -3 3 -3 3 -3 5 -6 5 -5 0 -1 0 -1 3 -5 4 -5 3 -4
2 -4 1 1 0 1 -1 1 -1 0 0 1 0 1 1 0 2 -1 -3 2 -2 1 0 1 0 1 1 0 1 0 2 -3 1 -2
0 -4 1 -3 2 -6 3 -6 2 -2 1 -1 0 0 0 1 -2 4 -3 5 2 0 1 1 1 -2 1 -2 -1 -1 0
-1 1 0 1 1 2 -4 3 -4 0 -1 0 0 -1 0 -1 1 -1 -1 -2 0 1 -2 1 -2 0 -2 0 -2 1 0
2 0 -1 3 -1 3 1 0 1 0 1 -3 0 -2 1 -2 0 -1 -1 -1 -1 0 1 -2 1 -1 -1 -8 0 -8
-1 -1 -1 0 1 -2 0 -1 -1 0 -1 0 0 -1 1 -1 -1 -3 -2 -2 -2 -5 -1 -4 -1 0 -1 0
-1 -2 0 -2 -1 -2 0 -1 -1 -1 -1 -1 -1 1 -1 1 -1 0 0 1 0 2 0 2 -1 0 0 0 -1 -1
-2 -2 -1 -3 -2 -3 -3 -1 -2 -1 0 -1 0 -1 -2 -3 -2 -2 0 -2 0 -1 -3 -3 -2 -2
-6 -7 -5 -7 -4 -4 -4 -4 -8 -12 -8 -12 -4 -8 -4 -8 -1 -7 -1 -6 2 -7 1 -6 0
-8 0 -7 1 -4 1 -3 1 0 1 0 0 -2 0 -2 2 0 2 -1 0 -1 0 -1 7 -7 7 -7 5 -5 5 -6
3 -1 3 0 0 -1 0 -1 2 0 3 1 -2 -1 -1 -1 1 -1 2 0 0 -1 0 -1 -2 0 -1 0 1 -2 2
-1 2 -6 1 -5 3 -5 3 -4 1 -3 1 -2 -1 -5 -2 -4 -5 -9 -4 -9 -6 -7 -6 -8 -7 -13
-6 -14 -2 0 -2 0 -3 -2 -2 -1 -1 -2 0 -1 0 -2 0 -1 -1 0 0 1 -2 -3 -1 -2 0 -3
0 -2 -2 -4 -2 -3 -1 -2 0 -2 -1 -2 0 -2 -1 -5 -1 -4 0 -4 0 -4 5 -9 4 -8 2 -2
1 -2 6 -2 6 -1 0 -2 1 -1 1 1 1 0 0 -1 0 -1 1 -4 1 -4 2 0 2 0 3 -6 4 -5 5 -9
4 -9 2 -2 1 -2 0 0 -1 0 2 -2 1 -2 1 0 1 0 0 5 -1 4 -1 2 -2 3 -1 3 0 4 -2 0
-1 1 0 4 0 3 -2 0 -2 -1 0 1 0 1 1 1 2 1 -2 -1 -2 0 0 4 0 5 -1 0 -1 0 0 2 0
2 -1 0 -1 0 0 2 1 2 -1 0 -1 0 -1 3 -1 4 1 0 1 1 -1 6 -1 6 1 1 1 2 2 8 2 8 2
5 2 5 3 3 3 4 1 2 2 2 4 5 4 4 9 6 9 6 9 3 10 3 0 1 0 1 -1 0 -1 1 1 2 1 3 4
4 4 4 6 2 7 2 4 3 5 3 4 5 3 4 3 5 2 5 1 6 0 6 -2 4 -2 4 0 2 0 2 -1 0 -1 -1
-1 2 -2 2 -2 3 -3 4 -1 0 -2 0 0 2 0 2 2 -1 1 0 0 1 0 1 -2 0 -2 -1 -2 3 -2 2
-2 0 -1 0 1 -2 2 -2 0 -1 1 -1 1 -4 2 -4 0 -8 0 -8 -1 -2 -1 -2 -1 -1 -1 -1 1
0 1 0 0 -2 0 -2 -1 -1 -2 0 0 -2 0 -1 -2 -3 -2 -2 -1 0 -1 0 -1 -1 0 -1 1 1 2
0 -2 -1 -1 -2 -2 1 -2 0 0 -1 0 -2 -3 -1 -2 0 0 -2 1 -1 -1 0 0 1 -7 -6 -7 -6
-6 -6 -6 -5 1 -1 0 -1 -1 0 -1 1 -8 -9 -7 -8 -1 0 0 0 -5 -6 -5 -5 0 -3 0 -2
-1 1 -1 0 0 -2 0 -1 -1 0 0 1 -2 -2 -2 -1 0 -1 0 -1 2 1 1 2 -1 -3 -2 -3 -1 0
0 0 1 2 0 1 -1 0 -1 0 -1 -2 -2 -3 1 -1 1 0 0 2 0 1 1 0 1 -1 -1 -2 -1 -2 -1
0 0 0 -3 -1 -3 -2 -3 2 -3 2 1 3 2 4 -1 1 0 1 1 0 1 -1 0 1 0 1 2 5 2 5 0 1 1
1 1 1 2 2 0 1 0 1 4 5 3 5 0 1 0 1 2 1 3 1 5 2 6 2 5 6 6 6 2 4 2 5 0 1 0 2 2
4 2 5 5 6 6 6 2 2 3 2 0 2 1 2 -2 5 -1 6 -3 3 -2 3 -5 3 -5 2 -8 8 -8 7 -3 0
-2 0 -1 0 -1 0 -2 2 -2 2 -5 3 -6 2 0 1 0 1 -1 0 -2 0 -3 3 -3 2 1 2 0 2 -1
-2 -1 -1 -3 3 -4 3 -3 4 -3 3 0 2 0 3 0 7 -1 8 2 3 1 4 2 3 1 3 4 4 4 3 1 0 0
-1 -1 -6 -1 -7 0 -4 1 -5 3 -3 2 -3 2 -5 3 -5 1 2 1 1 0 1 0 2 -1 -2 -1 -1 0
3 1 4 1 -1 1 0 0 1 0 1 -1 0 -1 1 0 3 0 2 1 0 1 0 0 1 -1 1 1 0 1 1 0 4 0 3 1
1 1 0 -1 1 0 1 1 0 1 0 -1 1 0 1 1 1 2 2 1 2 2 3 1 -1 1 0 0 1 -1 1 2 3 1 3 4
3 3 3 1 0 1 0 1 1 1 1 1 0 1 0 5 4 4 4 3 2 4 3 9 1 9 0 4 -3 3 -4 -1 0 0 0 4
-3 5 -3 2 2 1 1 2 -2 1 -2 1 0 0 0 1 -1 0 -1 -1 0 -1 1 0 -1 0 -1 1 0 1 0 1 2
1 2 0 -2 0 -1 2 1 3 0 -2 -1 -2 -2 0 0 0 -1 2 0 2 0 1 1 1 1 0 -2 0 -1 1 1 0
1 -1 2 -1 1 1 0 1 -1 0 1 0 1 1 -1 1 0 2 -1 2 0 1 1 0 1 3 -1 3 -2 4 2 3 1 0
2 0 1 2 0 2 -1 0 1 0 2 5 2 6 2 4 4 4 3 0 -1 1 0 -1 3 0 4 1 1 2 1 -2 0 -1 -1
0 4 1 3 1 1 1 0 3 3 2 2 3 1 3 1 2 5 3 5 0 2 0 2 -1 -1 -1 0 0 -2 0 -2 -1 0 0
0 -2 1 -1 1 1 1 0 2 1 0 1 -1 1 5 2 5 -1 1 -1 0 0 -1 1 -1 -1 0 -1 0 0 2 0 2
1 -1 1 -1 1 0 1 0 0 3 0 2 3 3 3 2 1 0 1 0 3 3 3 3 -2 0 -2 -1 -2 -1 -2 0 1
-1 0 -1 -2 1 -2 0 0 -1 1 -1 -2 1 -2 0 -4 -3 -3 -4 -1 0 -2 0 -2 -3 -3 -3 1 0
2 -1 -2 0 -1 0 0 -1 0 -2 -4 -2 -3 -1 -2 0 -2 0 0 -1 0 -1 -2 0 -2 0 -4 5 -4
4 -5 3 -4 3 -7 0 -7 1 -2 0 -1 0 -2 1 -1 1 -7 0 -7 -1 -4 -4 -4 -5 -2 -2 -2
-3 -3 -1 -2 -1 -1 -2 0 -1 -2 -4 -1 -3 -1 -1 -2 -1 0 -2 0 -2 -6 -5 -5 -6 -3
0 -2 0 -3 -3 -3 -2 -1 -3 -1 -3 -1 -2 -1 -2 -3 -4 -3 -4 -5 -3 -4 -3 -2 2 -3
1 0 2 1 1 1 3 0 3 3 3 2 4 0 0 0 1 2 5 2 5 0 0 0 1 1 0 1 0 0 1 0 1 6 9 5 8 0
1 0 1 1 0 1 0 0 1 0 1 2 3 3 2 -1 0 0 1 1 0 1 0 1 4 1 3 2 0 1 0 0 1 -1 1 1 0
1 1 -1 2 0 1 1 1 2 0 0 2 0 3 2 2 2 2 0 2 0 2 1 1 2 1 -2 0 -2 -1 1 2 0 1 1 0
1 0 0 1 -1 1 1 1 1 1 2 0 1 1 1 1 0 1 -1 0 -2 -1 0 2 1 3 0 0 0 1 2 -1 1 0 0
1 0 2 -1 0 -1 0 0 2 1 3 -1 3 -2 4 1 0 1 0 -1 2 0 2 -1 0 -1 0 0 3 0 2 -1 0
-1 0 -1 3 0 3 0 1 0 1 -1 2 -1 1 1 0 1 0 -2 2 -1 1 1 1 1 0 0 2 0 1 -1 -1 -2
-1 0 2 0 2 -3 10 -3 10 -3 8 -2 8 -5 4 -4 5 -3 2 -3 3 -3 7 -4 6 -2 0 -1 1 -1
-2 -1 -1 -1 3 -2 3 0 4 0 4 2 7 1 8 1 2 0 2 2 2 3 3 1 2 2 1 0 1 0 1 3 3 3 3
1 0 1 0 1 3 2 3 1 0 1 0 0 2 -1 2 3 3 2 3 2 2 3 3 3 5 4 5 2 -1 1 0 -1 2 0 3
1 1 2 1 0 1 0 1 3 4 4 5 1 2 1 3 1 0 1 0 0 1 -1 1 1 1 2 2 0 1 0 1 2 5 3 5 2
3 2 4 0 8 0 8 -1 -1 -1 0 0 2 0 3 0 1 0 1 0 1 0 2 1 0 2 1 -2 0 -1 0 0 5 0 6
0 1 0 1 0 1 0 1 1 -2 1 -1 0 1 -1 2 2 1 1 2 0 2 0 2 2 0 1 0 0 2 0 2 1 3 1 3
1 -3 1 -3 -1 5 0 5 -1 3 0 3 -1 2 -1 3 2 4 1 4 1 0 1 0 2 2 2 2 0 1 0 1 -1 -1
-1 0 0 1 1 1 1 0 1 -1 2 3 2 3 1 5 0 6 -1 -2 0 -2 -2 -5 -3 -4 -2 -2 -2 -2 0
0 -1 1 2 2 1 3 0 1 0 1 -1 -1 -2 -1 1 3 0 4 0 1 0 1 2 -1 1 0 0 1 0 1 -1 0 -2
0 0 1 0 1 1 1 2 1 -2 0 -1 -1 -2 5 -3 6 -5 4 -5 5 -2 5 -2 4 1 1 0 1 -1 2 -2
1 0 5 1 6 0 1 1 1 -1 0 -1 1 0 -1 0 -1 -1 0 -1 0 0 2 1 3 -1 -2 -1 -1 -1 1 -2
1 0 -1 -1 -1 0 2 0 2 -1 0 -1 1 1 4 1 5 1 2 0 2 1 -1 1 0 0 1 0 1 2 2 3 2 -1
1 0 1 -1 0 -1 0 -3 -3z m25 -92 l-1 -2 -1 0 -1 0 1 2 1 1 1 0 1 0 -1 -1z m-41
-69 l-1 -2 -1 0 0 1 1 1 1 2 1 0 0 0 -1 -2z m-94 -63 l0 -1 0 0 -1 0 0 1 -1 1
1 0 1 0 0 -1z m83 -136 l0 -1 -2 0 -1 1 0 1 0 2 -1 -1 -1 0 0 0 0 1 1 2 0 1 2
-2 2 -2 0 -2z m119 -100 l0 -1 0 0 -1 0 0 1 -1 1 1 0 1 0 0 -1z m-46 -45 l1
-1 -1 1 -2 1 0 1 0 0 1 0 1 0 0 -2z m-93 -87 l3 -1 0 -1 -1 0 -3 2 -4 1 0 2 0
3 1 -3 1 -2 3 -1z m-17 -140 l-1 -1 0 0 0 1 1 1 0 2 1 0 0 -1 -1 -2z"/>
<path d="M540 938 l0 -1 1 1 1 0 0 1 0 0 -1 0 -1 0 0 -1z"/>
<path d="M566 878 l0 -1 1 0 1 0 0 1 -1 1 -1 0 0 0 0 -1z"/>
<path d="M619 760 l-2 -1 0 1 -1 0 -1 -1 0 -2 -1 1 -1 0 -2 -1 -1 0 -2 -4 -2
-3 0 -2 0 -2 -1 0 -1 0 1 -1 0 -2 -1 -1 -2 -2 0 -1 0 -1 -3 -1 -4 -2 -1 0 -2
0 -5 2 -4 3 -2 0 -1 0 -6 -1 -6 -1 -2 -1 -1 0 -1 0 -1 0 -3 -3 -3 -3 -1 0 -1
0 0 -1 0 -2 -1 0 -1 0 -2 -4 -2 -5 -1 -4 0 -4 1 -7 1 -6 2 -3 1 -2 -1 -4 0 -4
-2 -3 -1 -2 -5 -2 -5 -2 1 -1 1 -1 -2 -2 -2 -2 -4 -2 -3 -1 -1 -2 0 -1 -2 0
-1 0 -1 -3 -1 -2 -2 0 -1 1 0 -1 1 0 -2 -2 -2 -2 -1 0 -1 0 -2 -2 -1 -2 0 -1
0 -1 3 2 4 1 0 1 1 1 3 2 4 2 2 0 1 0 0 1 1 1 2 1 3 0 1 1 1 0 8 1 9 0 0 0 0
0 2 0 3 1 4 1 4 1 4 2 5 2 3 4 4 4 0 0 0 -1 3 3 2 2 0 1 0 1 1 0 2 0 1 2 1 1
0 4 0 4 1 0 1 1 -1 1 -1 2 0 1 0 2 -1 3 0 3 -2 2 -2 3 1 2 2 2 2 2 2 2 -2 0
-1 0 1 2 0 1 2 0 1 -1 1 2 0 1 2 0 1 -1 2 2 2 2 1 -1 2 0 0 2 0 3 1 -2 1 -1 0
0 0 1 0 1 1 1 1 1 2 1 -3 0 -2 0 2 1 2 1 -1 1 0 1 -1 -1 -1 0 1 2 2 2 -1 2 0
3 -1 0 -1 0 0 1 0 1 2 0 1 -1 0 2 0 2 3 3 3 3 1 0 1 0 0 1 0 1 2 1 3 1 -3 0
-2 0 -3 -2z"/>
<path d="M595 717 l0 -1 2 1 2 0 0 1 0 0 -2 0 -2 0 0 -1z"/>
<path d="M430 607 l3 -3 3 -6 3 -7 -1 -1 -1 -1 -1 -8 0 -7 0 -5 -1 -4 1 -4 1
-3 4 -4 3 -4 5 -3 5 -2 4 -1 4 0 0 1 1 1 1 -1 1 0 0 -2 0 -2 3 -2 2 -3 6 0 6
1 1 -2 2 -2 0 -2 0 -2 2 -1 2 -1 0 -1 0 -1 1 -3 1 -2 0 -2 0 -1 1 0 1 0 1 3 1
2 -1 0 -1 0 0 4 1 4 -1 2 -1 3 -1 11 0 11 -1 0 -1 0 1 4 0 3 -1 0 -1 0 0 2 -1
3 -3 3 -4 4 -1 1 -1 2 -4 2 -4 2 -5 -2 -4 -1 -3 0 -2 0 -2 2 -2 2 -2 1 -1 2
-1 2 0 2 0 2 0 3 -1 0 -1 0 -3 2 -3 2 1 1 0 1 -1 0 -1 0 -3 3 -3 3 -2 1 -2 1
-1 0 -1 0 3 -3z"/>
<path d="M495 517 l-1 -1 0 -1 0 0 2 1 1 2 0 0 0 1 -1 0 -1 0 0 -2z"/>
<path d="M640 486 l-1 -1 1 0 1 0 0 1 0 1 0 0 -1 0 0 -1z"/>
<path d="M563 433 l0 -1 1 0 1 -1 0 1 0 2 -1 0 -1 0 0 -1z"/>
<path d="M600 431 l-1 -2 0 0 1 0 1 2 2 2 -1 0 -1 0 -1 -2z"/>
<path d="M583 428 l1 0 1 0 0 1 -2 0 -1 0 1 -1z"/>
</g>
</svg>
