<?xml version="1.0" standalone="no"?>
<!DOCTYPE svg PUBLIC "-//W3C//DTD SVG 20010904//EN"
 "http://www.w3.org/TR/2001/REC-SVG-20010904/DTD/svg10.dtd">
<svg style="fill: black; stroke: black;" version="1.0" xmlns="http://www.w3.org/2000/svg"
 width="851.273279pt" height="728.097001pt" viewBox="0 0 851.273279 728.097001"
 preserveAspectRatio="xMidYMid meet">
<metadata>
Created by potrace 1.16, written by Peter Selinger 2001-2019
</metadata>
<g transform="translate(-81.877725,773.763668) scale(1.000000,-1.000000)"
fill="#000000" data-original="#000000" stroke="none">
<path d="M97 773 l-2 -1 -1 1 -1 0 0 0 0 -1 1 -1 0 -2 3 1 2 0 0 -1 0 -1 1 2
1 3 1 -2 0 -1 1 0 1 0 0 1 -1 1 -2 1 -1 1 -3 -1z"/>
<path d="M94 766 l-2 -1 1 0 1 0 -1 -1 -1 0 -2 -2 -1 -2 1 0 1 -1 3 4 3 5 -1
0 0 0 -2 -2z"/>
<path d="M879 765 l-2 0 -2 -1 -1 -1 -1 0 -1 1 0 -1 0 -1 -1 0 -1 0 -3 0 -2 0
0 -1 1 -1 1 0 1 0 4 1 4 1 4 1 4 0 2 0 2 1 0 0 1 1 -2 0 -3 1 0 -1 0 -1 -1 0
-2 0 0 1 0 1 -2 -1z"/>
<path d="M130 759 l0 -1 3 -2 3 -2 0 -2 -1 -1 2 2 2 2 1 -1 2 0 2 -1 2 0 0 0
0 1 -4 3 -4 2 -4 1 -4 0 0 -1z"/>
<path d="M155 757 l-2 -2 -2 1 -1 1 -1 0 0 -1 -1 1 -2 1 -1 -1 -1 -1 3 -1 3 0
0 -1 0 -1 -2 -1 -2 -1 -3 1 -3 1 -3 -2 -3 -1 -4 3 -5 3 -3 0 -3 -1 0 1 -1 2
-1 -2 0 -1 -2 1 -2 0 -5 0 -5 1 -1 -2 -2 -2 -2 1 -1 0 0 -1 0 -1 -4 -2 -4 -2
-2 -2 -1 -1 -1 1 -1 0 0 -3 0 -2 0 -1 -1 -1 0 -2 -1 -1 0 -4 1 -3 2 -3 2 -3 1
-2 0 -3 2 0 2 0 0 -1 0 -2 1 0 2 0 2 -3 2 -2 0 -2 -1 -1 -1 0 -1 0 0 -1 0 -2
2 -1 3 -1 0 -4 1 -5 2 1 3 0 0 1 1 1 2 -1 2 0 0 -1 0 -1 0 -1 0 -1 1 0 1 0 0
1 0 1 1 -1 1 -1 1 -5 0 -6 -1 0 -1 0 1 2 0 1 -1 0 -1 0 0 1 0 2 -3 2 -2 1 -2
2 -2 3 0 -1 0 -1 2 -3 1 -2 0 0 0 1 3 -3 3 -4 0 -2 0 -1 -1 -2 -1 -2 1 -1 1
-1 0 -2 0 -2 1 0 1 0 0 2 0 1 1 0 1 0 0 -1 0 -1 2 0 1 0 0 -1 0 -1 2 0 1 1 1
-2 0 -1 -2 -1 -1 -2 -1 -3 0 -2 1 -3 1 -3 5 -1 4 -1 0 -2 0 -1 1 0 1 0 1 -3 0
-4 4 -2 3 -2 0 -1 0 -2 3 -2 3 -3 0 -3 1 -4 2 -3 2 -2 0 -2 1 -2 1 0 1 1 2 -2
2 -2 2 0 1 1 1 -3 1 -3 2 0 1 1 0 -2 -1 -1 4 -4 4 -4 0 -1 0 -1 -1 -3 -2 -3 1
0 0 -1 -1 -3 -1 -2 0 -3 0 -3 2 -4 2 -3 2 -2 2 -1 0 -3 1 -4 1 1 1 0 3 -2 3
-3 2 -1 2 0 -1 -2 -2 -1 2 -1 1 -2 0 0 1 0 -1 2 0 2 2 0 3 0 1 -2 1 -2 0 -1
-1 0 -2 1 -2 1 0 -1 0 -1 -2 -1 -3 -1 -1 1 -1 1 -3 -1 -3 -1 -1 -2 0 -3 1 0 2
0 0 -2 -1 -2 -1 -1 -1 -1 1 0 1 0 1 -5 0 -4 6 -6 6 -5 4 -4 4 -4 3 1 3 2 2 0
3 0 -2 1 -1 1 1 0 2 0 1 -1 0 -2 2 0 2 0 1 -2 1 -1 2 1 1 1 1 -1 2 -1 -1 -1 0
-1 2 0 1 -1 0 -1 -1 -1 2 -2 1 -1 0 1 0 2 2 0 1 1 1 0 0 -1 -1 -1 0 -2 -1 1
-1 2 0 -2 0 -1 2 -1 2 -2 1 -4 0 -4 5 -2 6 -1 4 -1 5 -1 9 0 9 0 8 2 9 2 7 2
8 3 4 1 5 1 9 2 9 1 2 1 3 0 -3 -2 -2 -2 -8 -3 -7 -3 -1 -3 0 -2 0 -2 -1 -1 2
1 2 2 2 0 3 0 -6 -4 -6 -3 -3 0 -3 -1 0 1 0 1 -1 0 -1 0 0 -1 1 -1 1 -1 1 -1
-3 -2 -2 -2 -6 -1 -5 -1 -2 -1 -1 -1 -4 -6 -4 -6 0 -2 0 -3 -2 -2 -3 -3 1 0 0
-1 -1 0 -1 0 -5 -4 -5 -5 0 -1 0 -1 -1 0 -1 0 1 -3 0 -3 1 -1 0 -1 -1 0 -1 1
0 -2 -1 -1 -1 1 -1 2 1 1 1 1 -2 0 -3 0 1 -2 0 -1 -1 0 -1 1 0 -1 -1 -1 2 0 2
0 0 -1 0 -1 -1 -1 -1 -1 0 -1 1 0 2 1 3 1 1 2 1 1 1 0 0 -1 -1 -2 -1 -3 -2 -1
-2 0 -1 -2 0 -3 1 -3 1 -2 1 -2 0 -2 -1 0 -1 0 -1 2 -1 2 0 -2 0 -1 3 -3 3 -4
-1 -1 0 -1 1 0 1 -1 -2 -3 -1 -2 -2 0 -1 0 0 -1 0 -1 1 1 1 0 -1 -1 0 -1 0 -3
0 -2 -2 -1 -1 -1 -1 -6 -1 -6 1 -2 2 -3 3 -1 3 -1 2 -4 2 -4 8 0 8 0 1 -2 0
-1 0 -1 -1 0 -2 1 -1 2 0 -1 0 -1 2 -1 2 -2 4 -1 4 -2 0 -1 0 -1 0 -2 0 -1 1
0 1 0 -1 1 -1 2 1 0 2 1 -2 1 -1 0 0 2 0 1 -1 1 -2 0 0 1 0 1 2 -2 3 -2 0 0 1
1 0 -1 -1 0 3 -3 3 -3 6 -1 5 -1 1 0 0 0 3 -3 3 -3 0 -4 0 -4 2 0 2 -1 0 1 0
1 2 -1 3 -2 5 0 5 -1 2 2 2 3 -1 -2 -1 -2 1 0 1 1 2 -1 1 -2 1 1 0 0 -1 1 -1
1 1 0 2 1 0 1 -1 1 3 0 4 0 1 0 1 0 -1 1 0 1 2 0 2 0 0 -1 0 -1 3 0 3 0 0 2 1
2 2 0 3 0 2 -2 2 -3 0 0 0 -1 3 -5 3 -5 3 0 3 0 1 -1 0 -1 2 0 3 0 -2 -1 -1
-1 1 0 1 0 1 2 1 2 0 -3 0 -2 2 -1 2 -2 1 0 2 0 0 -1 1 -1 1 1 2 0 2 -3 3 -2
3 -1 3 -1 3 0 3 0 2 -2 2 -1 2 1 1 2 3 -1 2 -1 1 1 1 1 4 2 4 1 0 1 0 1 1 0 1
-1 4 2 4 3 4 3 4 4 1 1 1 2 1 4 0 4 1 1 2 2 0 4 0 4 2 3 3 3 0 1 0 1 1 0 2 0
0 3 0 3 0 1 0 1 1 0 1 0 -1 1 0 2 1 0 1 1 -1 2 0 1 1 0 1 0 0 4 0 3 2 5 1 4 1
8 1 9 0 2 1 3 0 4 1 4 0 3 1 4 1 6 0 6 1 3 0 3 1 6 1 6 1 1 1 1 0 0 0 0 0 -13
1 -12 2 -11 2 -11 1 -6 2 -5 1 -4 2 -4 0 -4 0 -4 2 -1 2 -1 2 2 2 1 0 3 0 2
-1 2 -1 3 2 6 2 6 0 3 1 3 0 1 1 1 1 4 0 4 0 0 1 1 0 1 1 1 0 4 1 4 1 6 1 7 0
2 1 2 0 1 1 0 0 -8 0 -8 0 -1 0 -1 1 0 2 0 0 -1 -1 -2 0 -1 -1 0 1 -2 1 -2 0
-3 -1 -3 1 1 1 0 0 -4 0 -4 1 -6 0 -6 1 -3 1 -2 1 -1 0 -1 0 -2 0 -1 1 1 1 0
-1 -2 -1 -1 1 -2 0 -2 1 0 1 1 1 -5 2 -4 1 -3 1 -3 2 0 1 0 2 -5 3 -5 0 -2 -1
-1 0 -3 -1 -3 -2 -2 -1 -2 2 -3 2 -3 -1 -1 -1 -1 1 -2 0 -2 1 -1 1 0 -1 2 -1
3 1 1 1 0 1 -1 0 -1 1 1 1 0 2 -2 3 -1 2 -5 2 -5 3 -3 2 -2 3 0 2 0 4 2 3 1 1
-1 0 -1 2 1 2 0 2 -2 2 -3 4 1 5 0 1 -1 1 -2 2 0 1 0 1 -2 2 -2 -1 -2 0 -1 1
-1 2 0 1 -1 2 0 1 -1 1 -1 -1 -1 0 -1 1 0 1 1 -1 1 0 2 1 -2 2 -2 0 2 1 1 -2
1 -3 1 -1 1 0 1 1 0 2 -1 1 2 1 1 2 0 1 -1 0 1 -1 1 4 0 3 0 0 -1 -1 -1 2 0 1
-1 0 1 0 1 7 3 6 3 0 1 0 1 2 0 2 0 1 -1 1 -1 4 4 3 4 0 -1 0 -1 -2 -3 -2 -2
0 -3 -1 -2 -2 1 -2 0 0 -1 0 -1 0 -4 0 -3 2 0 3 0 2 2 1 2 0 -1 0 -2 -2 -1 -1
-1 1 0 2 0 0 -1 0 -1 1 1 1 1 -1 1 0 1 1 2 1 3 2 1 2 2 1 0 1 -1 0 2 -1 2 2
-1 2 0 -2 1 -2 1 2 3 1 2 2 0 2 0 0 1 0 1 1 0 1 0 0 -2 -1 -1 1 1 2 1 0 -1 1
0 0 2 0 2 2 0 3 -1 1 0 1 0 0 -1 0 -1 1 0 1 0 1 0 2 -1 4 0 4 -1 -1 1 0 1 1 0
2 1 -1 2 0 2 1 2 2 2 -1 2 -1 2 1 1 1 1 1 -1 1 0 1 2 2 3 -1 -1 -2 0 0 1 0 1
1 0 1 0 0 2 0 2 2 1 2 0 0 1 0 1 1 0 0 -1 2 1 1 1 0 -1 0 0 1 1 2 1 1 0 1 -1
3 2 4 3 6 -2 6 -2 3 2 4 2 1 3 1 4 0 1 1 2 -2 2 -1 3 2 3 2 4 3 0 3 0 0 2 -1
1 1 0 1 0 -1 1 0 1 1 1 2 2 0 7 1 7 -1 0 -1 0 -1 2 0 2 1 1 1 1 0 1 0 1 -3 0
-2 0 0 1 1 1 -1 1 -1 0 0 1 1 1 -3 0 -2 1 0 4 0 3 2 0 1 0 0 1 0 0 -1 4 -1 4
-2 0 -1 0 0 3 -1 2 1 1 2 1 1 0 1 0 0 -1 1 -2 1 0 1 0 0 3 1 3 -1 0 -1 0 1 1
0 1 -1 0 0 0 -2 0 -1 0 1 1 2 2 -2 1 -1 2 1 -2 1 -2 -2 2 -2 2 0 -1 -1 0 -2 2
-3 1 -1 0 0 -1 1 0 1 0 0 -1 0 -2 -1 0 -1 0 -2 3 -3 4 0 2 -1 2 -1 0 0 -1 -1
3 0 2 -3 3 -2 3 1 -1 1 0 0 3 -1 3 -1 3 -1 2 -4 2 -3 2 -2 1 -1 1 -4 2 -4 2
-3 0 -3 0 -1 2 -1 1 2 -1 2 -1 1 1 1 1 -5 3 -4 3 -1 0 -1 0 0 1 1 1 3 -2 3 -1
1 0 0 1 2 -1 1 -1 0 1 -1 1 6 0 6 -1 4 -1 5 -1 1 -1 1 0 -4 0 -3 1 -5 1 -5 0
0 -1 0 -1 2 0 2 1 0 -1 0 0 3 -2 2 -1 2 0 2 0 6 -2 7 -2 8 -2 9 -2 1 -2 1 -1
3 -1 4 -1 1 0 1 1 3 0 4 0 5 3 4 2 2 0 1 0 2 3 2 2 0 1 -1 0 -2 -1 -1 -1 1 1
1 1 -1 1 0 2 3 2 4 3 -1 0 0 1 2 2 2 1 -1 2 -1 1 0 0 1 1 2 1 3 1 0 1 -1 1 2
2 1 1 3 0 3 1 1 1 0 1 -1 -1 -1 0 0 1 1 1 1 0 1 0 5 1 6 2 1 2 2 1 2 4 1 3 1
0 1 0 0 1 0 1 2 3 2 2 0 2 0 2 1 0 1 0 0 6 0 6 1 1 1 0 -1 2 0 3 3 5 2 6 0 1
0 2 1 0 1 0 0 4 0 3 1 1 1 1 -1 0 -1 1 2 3 3 4 1 1 1 1 -1 2 0 2 0 2 -1 2 0 0
0 1 1 2 2 2 1 0 2 1 1 1 2 1 1 0 2 0 3 2 3 2 0 1 0 1 -1 2 -1 3 -2 0 -2 0 0 1
0 2 2 1 2 2 0 -1 1 0 0 1 0 2 1 -1 1 0 -2 -3 -1 -2 1 -1 1 -1 -1 1 0 0 2 2 2
2 -1 2 -1 2 1 2 1 2 0 1 -1 0 -1 0 -1 -1 0 -1 1 -1 -1 -1 -1 -1 0 2 0 2 2 1 2
2 -1 0 0 1 1 0 1 0 0 2 0 1 1 0 1 0 0 4 1 4 7 0 6 0 1 1 1 1 2 -1 2 0 -2 1 -2
2 1 -1 2 0 0 1 0 1 -1 0 -1 0 1 2 1 1 2 -1 1 -1 2 3 2 4 0 1 0 1 -1 0 -1 0 0
3 0 3 2 1 1 0 -1 2 0 2 3 5 4 4 -1 1 -1 1 1 1 1 2 0 -2 0 -1 1 0 1 0 0 1 0 1
2 2 1 2 0 3 1 4 2 3 3 2 -2 1 -1 0 2 2 2 1 -2 0 -2 -1 1 1 1 1 0 1 0 1 -1 -1
-1 0 2 2 3 3 2 0 1 -1 1 1 0 1 -1 0 -1 -1 0 1 1 2 2 -1 2 0 2 2 3 2 -2 0 -2
-1 1 2 0 1 2 0 2 0 0 2 1 2 -1 0 -1 0 1 1 2 1 -2 1 -2 1 1 2 1 3 0 1 0 1 1 0
2 -1 -1 1 0 1 -2 0 -1 0 0 -1 0 -2 -2 0 -1 0 1 2 0 2 -2 7 -1 8 -3 2 -3 3 1 1
1 1 -1 0 -1 0 -1 -1 -1 -1 0 1 1 2 1 2 0 1 -2 0 -2 -1 0 1 1 1 -2 1 -2 1 -2
-3 -2 -2 -2 1 -3 1 0 -1 0 -2 -1 0 -1 -1 -5 0 -5 1 -1 -1 -1 -1 -6 0 -7 0 -3
1 -4 1 -1 0 -1 -1 1 -1 0 -1 -2 0 -2 0 -4 -1 -3 0 -2 1 -2 1 -1 -2 -1 -2 1 0
1 0 0 -2 1 -1 -1 0 0 1 -4 -4 -5 -4 -1 -1 -1 0 -1 -1 -1 -1 1 -1 0 -1 -6 -3
-5 -2 -7 -2 -7 -1 -3 -1 -3 0 1 1 0 1 -2 0 -1 -1 1 1 1 1 2 0 3 1 1 1 0 0 1 1
0 2 0 2 1 3 1 0 2 0 3 3 3 3 2 0 2 -1 -1 1 -1 2 3 2 2 2 1 0 1 0 0 -1 0 -1 -2
0 -2 0 1 -1 0 -1 -1 0 -1 1 0 -1 1 -1 2 1 3 2 0 1 0 2 -1 0 -1 0 2 1 2 1 1 0
0 0 2 2 2 2 1 -1 0 0 -1 -1 -1 -1 0 0 1 -1 4 1 5 1 -3 1 -3 1 2 2 2 1 -3 -1
-3 0 -2 -1 -2 0 0 0 0 1 3 2 4 1 0 0 1 0 0 1 0 1 1 0 1 0 0 -2 0 -1 1 -1 1 0
-1 1 -1 0 1 2 0 2 3 1 4 2 -3 -1 -2 0 -5 -2 -4 -2 -7 -3 -6 -3 -2 0 -2 1 -3 0
-3 1 0 -1 0 -1 -4 -2 -3 -1 -12 -4 -11 -3 -2 0 -2 -1 -7 -3 -7 -3 -1 -1 -1 -1
0 0 0 1 -3 -2 -2 -1 0 1 0 0 -2 -1 -1 -1 1 -1 1 -1 -3 0 -2 0 -4 0 -4 0 -3 -2
-3 -3 -1 0 -1 0 -1 0 0 0 -2 -2 -1 -2 0 0 0 1 -3 -3 -3 -3 -2 0 -1 1 -1 -1 0
-2 -7 -5 -6 -5 -3 0 -3 0 -1 -2 -2 -3 0 -1 0 -2 -4 -3 -4 -4 0 1 0 0 -4 -3 -3
-4 -6 -4 -6 -4 -1 -2 -1 -1 -2 0 -1 0 0 -1 0 -1 -1 0 -2 0 -3 -3 -2 -3 -2 0
-1 0 0 -1 0 -1 -7 -7 -7 -7 -4 -2 -3 -2 0 -2 0 -1 -2 -1 -2 -1 0 1 -1 1 0 -2
1 -1 -2 0 -1 0 0 -1 0 -1 -2 -2 -1 -2 -1 0 -2 0 -1 -2 -2 -2 0 -1 0 -1 -2 -1
-2 -1 -1 0 -1 0 -2 -3 -2 -2 -6 -5 -6 -4 -1 0 -1 1 0 -1 -1 -2 2 1 2 0 -2 -1
-1 -1 -2 1 -1 0 0 -1 0 -2 -1 -1 -2 -1 0 1 0 1 1 0 1 0 0 1 -1 0 -8 -6 -8 -7
-6 -5 -6 -5 -2 0 -1 0 -5 -4 -5 -4 -1 -2 -1 -1 -5 -3 -4 -3 -1 0 0 0 -3 -2 -2
-2 1 2 0 3 2 2 1 2 5 4 6 4 1 0 2 0 3 4 3 4 1 2 1 3 -2 0 -2 1 -2 -1 -3 -1 -1
-3 -1 -3 -6 -3 -6 -4 -2 -3 -3 -3 -2 2 -2 1 0 2 0 1 -1 0 -1 0 -1 3 -1 2 0 2
0 2 2 -2 3 -2 1 1 2 1 0 4 0 3 -1 2 -1 2 -3 0 -2 0 0 1 0 2 2 3 2 4 -2 -3 -3
-3 0 -1 0 -1 -1 0 -1 0 0 4 1 4 -2 -2 -1 -1 0 -2 0 -1 -2 0 -2 0 -1 -1 -2 -1
-2 4 -1 5 -10 18 -10 19 -2 3 -2 3 -4 5 -4 5 -7 8 -7 8 -4 3 -3 4 -2 2 -2 3
-2 5 -2 6 -4 6 -4 6 -2 2 -2 1 -1 0 -1 0 0 -3 0 -2 3 -6 3 -6 9 -10 10 -9 7
-8 8 -8 6 -8 6 -7 4 -7 4 -7 7 -15 8 -15 1 -3 1 -3 -3 1 -2 0 -2 -1 -2 -2 0
-3 -1 -3 1 -2 1 -3 2 0 3 0 1 2 1 2 1 0 1 0 -1 -2 0 -2 -2 -1 -1 -1 -6 -1 -6
0 0 2 -1 2 -1 0 -1 0 0 -4 0 -3 3 -3 3 -3 -1 -2 0 -1 -1 -1 -1 -1 -2 1 -2 1 0
2 0 1 -1 0 -1 0 -6 7 -6 7 0 1 0 1 -1 1 -1 0 0 -1 1 -1 -3 -1 -2 0 -1 1 -1 2
-6 4 -6 5 -3 1 -2 1 -2 1 -2 0 -5 2 -5 2 -1 1 -1 1 -2 0 -3 1 1 1 0 1 -3 1 -4
2 0 1 0 1 -1 2 -2 1 -1 0 -1 0 0 1 0 1 -1 0 -1 0 -2 1 -1 2 1 1 0 1 -1 0 -1
-1 -4 3 -3 3 -8 5 -7 5 -14 9 -13 9 -2 1 -1 2 -2 1 -2 2 -7 4 -6 5 -1 0 -1 0
-1 2 0 2 -1 -1 -1 0 -5 3 -4 4 -1 0 0 1 -2 0 -2 0 -1 2 -1 2 -2 0 -2 0 -3 3
-3 3 0 -1 -1 0 -2 1 -2 1 -1 1 -1 2 0 -2 0 -1 -1 1 -2 2 -2 -1 -2 0 1 1 1 0
-1 1 0 1 -1 0 -1 0 -1 -2 -1 -2 3 0 2 0 4 -3 4 -3 0 1 1 0 2 -1 2 -1 -1 -1 0
-1 -1 1 -1 0 0 -1 -1 -1 2 0 1 -1 0 -1 -1 0 -5 2 -5 3 -4 3 -5 3 -7 4 -7 4 -2
0 -1 0 0 1 0 2 -1 1 -1 1 -3 3 -2 3 4 -1 3 -2 2 -1 1 -1 1 1 0 1 -1 1 -2 1 1
2 0 1 -1 0 -1 0 0 -1 0 -2 -3 1 -2 0 -1 2 0 1 -2 -1 -1 0 0 1 1 2 -1 0 -1 0 0
-1 0 -1 -3 2 -2 2 0 1 1 2 -2 1 -2 1 1 -1 2 -2 -1 -1 -1 -1 0 1 0 1 -1 0 -1
-1 -1 2 -1 1 -2 0 -1 0 -1 1 -1 2 -2 1 -2 1 2 0 3 -1 -3 2 -3 1 -4 0 -5 1 0 1
-1 2 -2 -2 -1 -2 -3 1 -3 2 -1 -1 0 -1 1 -1 2 -1 -1 -2 0 -2 -3 1 -2 0 -8 4
-8 4 -3 1 -2 0 -4 3 -4 2 0 1 1 0 -3 2 -3 2 -3 1 -3 1 0 2 -1 1 2 0 2 0 1 -1
1 -1 0 1 0 1 -3 1 -3 0 0 1 0 1 -1 0 -2 0 -1 2 -1 2 -3 0 -3 1 0 1 0 1 -2 1
-3 0 1 2 0 3 -3 1 -3 1 -3 1 -2 0 -2 -2z m35 -26 l1 1 0 -1 -1 -1 9 -4 9 -5
-1 -1 0 -1 2 1 3 0 -2 -1 -1 -1 4 0 4 0 4 -2 5 -3 2 0 2 0 0 -1 0 0 -2 -3 -2
-2 -14 5 -14 6 -1 -1 -2 0 0 1 0 2 -1 0 -1 -1 -1 2 -2 2 -2 1 -1 2 -3 2 -2 3
1 1 0 1 3 -1 2 -1 2 0z m638 -17 l0 -1 -2 0 -2 0 1 1 2 1 0 0 1 0 0 -1z m-625
-2 l5 -1 0 -1 0 -1 -1 0 -1 0 0 -1 0 -2 2 0 2 0 -2 -1 -2 0 0 -1 0 -2 -1 -1
-1 -1 -4 2 -4 2 0 -1 -1 0 -3 2 -4 1 3 3 3 3 1 -1 1 0 -1 1 0 2 2 0 2 0 4 -2z
m595 -2 l0 -1 -1 0 -2 0 0 0 0 1 1 1 0 2 1 -1 1 0 0 -2z m-579 -3 l-1 -1 3 0
3 0 2 -1 1 -1 0 -1 0 -2 -3 -1 -3 -2 0 0 -1 0 1 1 0 1 -2 2 -1 1 1 0 1 0 -3 2
-2 2 1 0 1 -1 0 1 0 1 1 0 1 0 0 -1z m554 -5 l0 -1 -1 -1 -1 -1 -2 1 -2 0 0
-1 -1 -1 2 1 1 0 0 -1 -1 -1 -2 0 -2 0 0 1 0 2 3 2 3 3 1 -1 2 0 0 -2z m-668
-4 l2 -1 0 -1 0 -1 -2 0 -2 -1 0 2 1 2 -1 1 -1 1 1 0 1 0 1 -2z m625 -13 l0
-2 -4 -3 -3 -2 -1 1 -1 0 1 2 1 1 4 2 4 2 0 0 0 0 -1 -1z m-540 -3 l0 0 -2 0
-2 0 1 1 0 1 2 -1 1 0 0 -1z m-10 0 l0 -2 4 1 4 0 3 -1 4 -2 4 1 5 0 1 -1 0
-1 1 1 2 1 4 -1 5 -2 2 -2 2 -2 0 -3 1 -3 -2 0 -2 0 -2 1 -3 1 0 -2 -1 -1 -2
1 -2 0 -4 1 -4 0 0 -1 0 -1 0 -1 0 -1 -8 0 -8 1 -3 1 -3 1 -1 1 0 2 2 0 2 0 0
-1 0 -1 2 0 3 0 0 1 1 1 -1 1 0 1 -2 -1 -3 0 -1 1 -2 2 0 -1 0 0 -1 1 -2 1 0
-1 -1 0 0 2 1 3 2 1 1 2 0 1 0 1 1 0 2 0 -1 -1z m93 0 l0 -1 -1 0 0 1 -2 -2
-1 -1 -1 0 0 1 1 1 1 2 2 0 1 0 0 -1z m457 -2 l1 -2 -3 0 -2 0 2 1 2 2 0 0 0
0 0 -1z m-610 -3 l1 -1 -1 0 -1 -1 0 2 0 1 1 0 0 0 0 -1z m166 -2 l2 -1 -1 -1
0 -1 -2 1 -1 0 0 -1 0 -1 2 0 2 -1 0 -1 0 -1 -2 0 -2 0 -3 2 -2 1 -3 0 -2 0 0
1 0 1 2 0 1 0 0 1 0 1 2 -1 2 0 -2 1 -2 1 1 1 1 1 2 -1 3 0 2 -2z m-168 -2
l-1 -1 -1 0 0 1 1 1 0 2 1 0 0 -1 0 -2z m616 -2 l0 -1 2 0 3 1 0 -1 0 -1 1 1
2 1 2 -1 2 -2 -2 0 -1 0 0 -1 0 -1 2 1 2 0 2 1 3 0 0 -1 -1 -2 2 -1 1 -1 0 1
0 1 3 0 3 0 0 -6 0 -6 -2 -6 -1 -5 -8 -8 -8 -8 -10 -7 -10 -7 3 0 3 1 -4 -2
-4 -2 0 0 0 -1 4 2 5 2 12 -1 12 0 10 0 11 -1 1 0 1 -1 0 1 0 1 -1 0 -1 1 -12
0 -12 1 -8 0 -8 0 -1 1 -2 2 10 8 10 8 3 2 3 2 0 -1 -1 -2 3 0 3 1 -2 1 -1 2
0 1 1 0 3 1 4 0 0 -2 0 -1 -2 -1 -2 0 0 -1 0 -1 1 0 1 -1 2 1 2 1 -1 1 0 2 1
-2 2 -1 1 1 2 1 -2 -1 -2 0 0 1 0 1 1 0 1 1 -1 1 -2 2 1 0 2 0 0 -1 0 -1 1 1
1 0 6 0 5 0 2 -2 2 -2 0 -2 0 -1 4 1 3 0 0 2 0 1 1 0 2 0 -2 1 -1 1 2 0 3 0 1
-1 0 -2 1 0 2 0 1 -2 2 -2 1 -2 0 -3 -1 0 -1 0 0 -2 0 -1 1 1 1 1 3 -2 4 -2
-2 0 -1 0 -2 -2 -2 -2 0 -1 0 -1 3 -1 2 -1 0 -1 -1 -1 -3 -1 -2 -1 -16 1 -15
0 0 -1 1 0 4 -1 4 0 7 -1 7 0 0 -1 1 -1 1 1 2 0 1 -1 1 -1 2 -3 3 -2 0 1 0 1
3 0 3 0 -2 1 -1 1 1 1 1 2 0 -2 0 -1 2 1 2 0 0 1 0 1 2 -1 1 -2 -3 -3 -3 -3
-4 0 -5 1 1 -3 0 -2 2 -2 2 -1 0 -2 0 -1 -1 0 -1 0 1 -1 1 0 0 -2 1 -2 -1 0 0
-1 0 -1 0 -1 -2 -1 -1 0 0 2 -1 2 -2 0 -1 -1 -1 1 -1 1 1 2 1 2 -2 0 -2 0 1
-1 0 -1 -2 -1 -2 0 -1 -3 -1 -3 -2 1 -2 0 0 -1 0 -1 -1 -2 -2 -1 -1 0 -2 0 1
-2 0 -2 -2 1 -1 0 0 0 1 -1 -2 -2 -1 -1 2 -1 1 -1 -1 0 -1 -1 -3 1 -2 1 -7 1
-6 0 2 -1 3 -1 -2 0 -1 0 -2 0 -2 0 0 -1 -1 -1 3 0 2 0 4 -1 4 -1 0 -1 0 -1 2
0 1 -1 -1 1 0 1 1 0 1 0 0 -1 1 -1 0 -4 1 -4 -1 0 -2 0 -1 -2 -2 -2 -1 -2 0
-1 -1 -2 -2 -3 -3 -1 -2 -1 -2 -2 -1 -1 -2 1 -2 0 1 -1 1 0 0 -4 0 -3 1 -2 1
-1 -1 -3 0 -2 -4 -1 -4 -1 -5 1 -5 0 -4 1 -3 1 -3 1 -3 0 -5 1 -4 0 -5 1 -4 0
-3 1 -2 0 -1 0 -1 1 -5 0 -5 1 -1 1 0 1 -2 0 -1 0 -2 -1 -1 -2 -32 0 -32 0 0
1 1 1 -1 0 -1 0 -23 0 -23 1 -2 1 -1 0 1 1 0 1 1 -1 2 0 -2 1 -1 2 3 1 3 1 2
1 2 0 0 1 1 0 0 0 1 0 6 2 6 3 1 1 0 1 -2 0 -2 0 -3 -1 -4 -2 -1 0 -1 0 7 3 8
4 1 1 1 1 2 0 2 0 0 1 0 1 1 0 0 -1 7 3 6 3 1 0 1 -1 0 1 1 1 1 0 2 1 1 0 1 1
1 0 1 -1 0 1 0 1 4 1 4 0 2 0 3 0 0 1 0 1 1 0 0 -1 4 1 3 1 2 -1 1 -1 0 1 -1
1 2 0 2 0 6 3 6 2 0 2 0 1 3 1 2 0 0 1 0 2 1 -2 1 -1 0 1 0 1 15 0 14 0 0 -1
0 -1 3 0 2 1 0 -1 0 -1 1 1 1 1 7 -1 7 -1 1 0 0 1 -8 1 -8 2 -11 2 -11 2 -1 0
-1 1 1 3 2 2 6 7 7 7 2 1 2 0 0 1 0 2 4 2 5 3 1 1 0 1 -6 -4 -6 -3 1 -1 0 -1
-1 0 -1 1 -8 -6 -8 -6 -3 -3 -4 -3 -8 -4 -8 -4 -8 -2 -8 -2 -2 -1 -2 -1 0 1
-1 0 0 -1 0 -1 -9 -3 -8 -3 -5 -2 -5 -2 -4 -2 -4 -1 1 1 0 1 -4 -2 -4 -2 -3 0
-3 0 1 -1 0 -1 -2 -1 -1 -2 -2 1 -1 0 2 2 3 1 -2 0 -2 0 -4 -3 -4 -3 -2 0 -2
-1 0 -1 0 0 -4 0 -3 0 0 1 -1 1 2 1 2 2 0 0 -1 0 8 6 8 6 0 1 0 0 -2 -1 -2 -2
-1 1 -1 0 0 -1 1 -1 -3 -2 -4 -2 0 1 -1 0 7 8 8 7 3 2 3 1 0 1 -1 1 5 4 5 5 7
6 6 6 2 0 1 0 8 7 8 8 6 4 6 5 11 9 11 8 0 2 1 1 6 4 6 4 9 4 9 5 2 2 3 2 1
-1 1 0 0 1 0 1 4 1 3 1 0 2 -1 1 2 0 2 0 3 0 4 0 -1 1 0 1 2 0 2 0 -1 -1z
m-492 -2 l-1 -1 1 0 1 0 -1 -1 0 -1 -1 1 -1 2 0 0 0 1 2 0 2 0 -2 -1z m-5 -4
l0 -1 -1 1 -1 0 1 1 0 1 1 0 0 0 0 -2z m-16 -1 l-1 -2 -1 0 -1 0 2 1 2 2 0 0
0 0 -1 -1z m23 -2 l1 0 0 -2 0 -2 -2 1 -2 1 0 2 0 1 -1 0 -1 0 1 1 0 1 2 -2 2
-2 0 1z m527 1 l-1 0 1 -1 1 -2 4 1 3 1 0 -2 0 -1 0 -2 0 -2 -1 -1 -1 -1 0 2
1 2 -1 -1 -2 0 0 -1 0 -1 -3 0 -4 0 -1 0 -1 -1 0 1 -1 0 1 2 1 3 -1 -2 -2 -1
1 4 0 4 0 0 0 0 3 0 3 0 0 -1z m-554 -1 l-1 -1 -2 0 -2 0 2 1 3 1 0 0 0 0 0
-1z m-58 -2 l-1 0 -1 0 -1 1 1 0 2 0 0 -1z m24 0 l2 -1 -2 0 -2 0 0 -1 1 -2
-3 -2 -2 -2 0 1 0 1 -5 0 -5 -1 -1 1 0 1 1 1 0 2 1 0 2 0 -1 -1 0 -1 2 0 3 1
0 2 -1 2 4 0 4 0 2 -1z m30 -6 l1 -2 -1 -1 0 -1 -3 0 -3 -1 -1 0 0 -1 1 0 2 0
0 -1 0 -1 -2 -2 -2 -2 2 0 1 0 0 1 0 1 2 0 2 1 1 -1 1 -1 2 0 2 0 0 -1 -1 -1
1 0 2 1 1 0 0 1 3 -1 4 -2 1 1 1 0 0 -2 0 -2 1 0 2 0 -3 -1 -2 -1 -8 0 -8 0
-6 1 -5 0 1 1 2 1 3 0 3 0 1 1 0 1 -5 0 -6 -1 -1 0 0 0 -5 0 -5 0 1 1 0 2 -1
-2 -1 -1 -3 1 -2 0 1 3 0 3 2 1 1 1 0 -1 0 -1 1 1 2 1 3 0 3 -1 -1 1 0 1 2 0
2 -1 0 2 0 1 0 1 1 2 2 1 2 1 3 -1 2 -1 1 0 1 0 0 1 0 1 -1 -1 -2 0 0 1 0 1 2
0 2 0 1 -3z m25 2 l0 0 2 -1 3 0 -1 1 0 1 1 0 1 0 0 -1 0 -2 -3 0 -2 0 -3 1
-2 2 2 0 2 0 0 -1z m55 -3 l3 -1 -1 -1 0 -1 1 0 2 0 5 -2 6 -3 3 -1 3 -1 0 -1
0 -1 1 1 1 0 1 -1 1 -1 2 0 2 -1 1 0 1 0 0 -2 1 -2 1 0 1 0 0 1 0 1 1 0 1 0
-1 -2 0 -1 2 1 1 0 0 -1 -1 -1 2 -1 2 -1 1 0 2 1 -1 -2 0 -1 1 0 1 0 0 1 0 1
1 -1 1 -1 3 1 2 0 -1 1 -1 2 -4 2 -4 2 0 1 0 0 2 -1 2 -1 0 1 0 0 3 -2 2 -2 1
1 1 0 -2 2 -1 1 -5 2 -5 2 0 1 0 1 9 -5 9 -4 11 -7 12 -7 8 -5 9 -6 1 -1 2 -2
1 0 0 0 6 -5 5 -4 4 -2 4 -3 3 -3 3 -2 5 -4 5 -4 -1 -1 0 -1 2 1 1 0 0 -1 -1
-2 1 1 1 0 1 -1 1 0 -2 -2 -1 -1 2 1 2 1 3 -3 3 -2 0 -1 0 -1 -1 1 0 1 -1 -1
-1 0 -1 1 0 2 -2 0 -1 0 1 -2 2 -1 3 -2 3 -2 0 1 -1 1 2 0 1 0 -1 -2 0 -2 2
-1 2 -2 1 1 0 0 -1 1 -2 2 0 0 0 1 2 -1 2 -1 1 -2 2 -3 -2 -2 -2 -1 1 2 1 2 0
1 -1 0 -1 -2 -1 -2 -2 1 -1 0 -1 1 -1 2 0 -2 0 -1 -1 0 -1 0 1 1 0 1 -1 0 -1
-1 -15 6 -16 7 -6 2 -5 1 -1 0 -1 0 -2 1 -2 1 -2 0 -3 1 -5 2 -5 2 -10 4 -10
3 -13 7 -12 6 -16 5 -17 6 -4 2 -4 2 -6 4 -6 4 -4 1 -4 1 -10 4 -10 5 -3 2 -4
3 1 5 1 4 1 1 0 2 -2 -3 -3 -3 1 -3 0 -2 -1 1 -2 2 -1 0 -1 0 0 2 -1 1 2 2 2
2 1 0 1 0 0 -2 -1 -1 2 2 3 2 2 1 1 0 2 -2 2 -1 4 -1 4 0 -1 2 0 2 5 -1 5 0
-2 1 -1 1 0 1 0 1 3 -1 3 -1 1 2 2 1 2 0 2 -1 0 1 1 1 3 -1 4 -2 2 -1z m468
-3 l-1 -1 1 1 0 2 1 0 0 -1 -1 -1z m53 1 l3 -1 -3 0 -3 0 -3 0 -2 -1 1 2 1 1
2 0 2 0 2 -1z m-12 -2 l0 -1 -5 -1 -4 0 0 0 1 1 3 1 4 1 1 0 1 0 -1 -1z m-35
-1 l0 -1 6 0 6 1 -2 -1 -1 -1 -4 -1 -4 -1 -4 0 -3 0 2 3 1 2 1 0 1 0 1 -1z
m-556 -2 l0 -1 -1 0 -1 0 1 1 0 1 1 0 0 0 0 -1z m589 -2 l-1 0 -1 0 -1 1 1 0
2 0 0 -1z m-31 -6 l0 -1 -1 0 -1 0 0 1 0 1 0 0 1 0 1 -1z m-518 -6 l4 -3 7 -2
8 -3 4 -2 4 -2 11 -5 12 -6 1 0 2 0 1 -1 2 -2 -2 0 -2 -1 -7 0 -7 -1 -1 0 -1
-1 -9 0 -8 0 -1 -1 -1 0 0 1 0 2 -1 -2 -1 -1 -1 0 -1 1 -2 -2 -1 -1 0 1 1 1
-2 1 -2 0 0 -1 0 -1 -7 -1 -7 -1 -6 -1 -6 0 0 1 0 1 -2 0 -3 0 -3 1 -3 2 -3 1
-3 1 1 1 2 1 2 0 2 1 1 0 0 1 2 -1 2 0 -2 1 -2 1 -1 0 -1 -1 -2 1 -3 1 1 1 0
2 -1 0 -1 0 0 3 1 3 1 1 2 1 -3 2 -2 1 0 2 0 1 -1 -1 -2 0 0 1 0 1 -1 0 -2 0
0 1 0 1 4 0 4 -1 0 1 1 1 9 0 10 0 3 1 4 1 2 0 2 0 4 -2z m393 -10 l0 -1 -2
-1 -2 -1 1 1 1 2 1 0 1 0 0 0z m-243 -2 l0 -1 -1 0 -1 0 0 1 0 1 0 0 1 0 1 -1z
m3 -4 l2 -1 -1 0 -1 0 -2 1 -1 2 1 0 1 0 1 -2z m425 -2 l0 -2 -2 0 -1 0 0 1 0
1 2 0 2 1 0 0 0 0 -1 -1z m-418 -2 l1 -2 0 0 -1 0 -2 2 -2 2 1 0 1 0 2 -2z
m-87 -10 l1 -1 3 -1 4 0 3 -2 4 -2 -1 -1 0 -1 1 0 1 1 3 -2 3 -2 2 -1 3 -1 3
-3 3 -3 0 -1 0 -1 -2 0 -2 0 0 -1 -1 0 -2 -1 -1 0 -10 -1 -9 -2 -10 -2 -10 -2
-5 0 -5 -1 0 -2 0 -1 1 0 1 0 0 1 -1 1 2 0 2 0 11 2 11 2 7 1 8 0 6 1 6 0 0 1
0 1 10 0 11 -1 9 -3 9 -3 0 0 0 0 3 -1 3 0 0 -1 0 -1 1 1 1 0 0 -1 0 -1 2 0 2
1 0 -1 1 -1 11 -4 12 -4 6 -3 6 -3 0 -1 0 0 -2 0 -1 1 1 -1 1 -2 2 1 1 1 0 -1
0 -1 -1 0 -1 0 0 -2 0 -1 -1 1 0 1 -2 0 -2 0 -2 2 -2 3 1 1 0 1 -1 -2 -1 -1 1
-2 2 -2 0 -1 -1 0 0 1 0 1 -2 0 -2 1 -2 -2 -2 -1 2 -3 1 -2 -1 0 -1 0 1 -1 1
-1 0 -1 0 -1 -4 1 -3 0 0 -1 1 -1 -2 0 -2 0 0 -1 0 -1 -4 0 -4 1 0 -1 1 -1 -4
0 -4 0 -1 -1 -1 0 -7 0 -6 0 -1 -1 0 -1 -1 1 0 1 -11 -1 -10 -1 -5 1 -5 0 -6
-2 -5 -2 -7 -1 -6 -2 -9 -2 -8 -1 -7 -2 -7 -1 -7 0 -6 -1 0 1 0 1 -6 0 -5 -1
-5 -1 -4 -1 -5 -1 -5 0 0 1 0 1 -2 -1 -2 0 1 2 2 3 -1 0 0 1 -3 -1 -2 0 1 2 1
2 -1 0 -1 0 0 -1 -1 -2 -1 0 -2 0 -1 1 0 2 1 2 2 1 0 1 0 1 0 1 0 1 -1 -1 -1
0 -4 1 -3 1 1 1 0 1 -1 1 -1 1 1 0 1 1 0 -1 0 -1 1 0 2 0 -3 2 -2 2 2 1 2 0 1
1 1 0 2 1 2 2 -2 0 -3 1 1 -2 0 -1 -1 0 -1 -1 0 1 0 1 0 1 -1 1 0 1 -1 1 1 0
1 -1 -1 2 0 1 -2 0 -1 -1 0 1 0 1 4 1 4 1 4 1 5 1 4 1 5 0 -2 -1 -2 0 1 -1 0
-1 -1 0 -2 1 0 -1 0 -1 -2 0 -2 0 -2 -2 -1 -1 2 1 2 0 3 1 3 0 -4 -2 -3 -1 -1
-2 0 -1 3 0 3 1 -1 0 0 1 1 0 2 1 2 -1 3 -2 1 1 1 0 0 1 -1 1 3 1 3 1 -1 2 -1
1 1 1 2 1 1 0 1 -1 0 1 0 1 3 1 3 1 -3 -1 -3 0 -3 -1 -2 0 3 1 4 2 -1 1 0 1 4
1 5 1 3 0 4 1 1 1 1 1 -4 0 -3 -1 -2 0 -2 -1 -6 0 -5 -1 2 1 3 1 -1 0 -1 0 1
1 2 1 -3 -1 -3 0 -1 0 0 0 -2 1 -2 0 -1 1 -1 1 -2 0 -1 -1 -3 -1 -3 0 -1 0 0
-1 1 -1 1 -1 -8 -1 -7 -1 -3 -1 -2 0 -1 1 -2 2 -1 0 -1 0 -1 -1 0 -1 1 0 1 1
0 -1 1 -1 -1 0 -1 -1 -1 2 -2 1 -2 0 -1 0 -2 0 -1 0 1 1 2 1 0 2 0 2 2 0 2 1
0 1 -1 0 2 2 1 2 -1 0 -1 0 0 1 0 2 -2 1 -2 2 -4 2 -3 2 1 0 1 1 -1 1 0 1 1 0
2 -1 0 1 0 1 4 0 4 1 6 1 7 2 7 1 7 0 2 2 3 1 -1 -1 0 -1 1 1 2 1 6 1 7 1 11
1 11 2 5 0 6 1 5 -1 6 0 1 -1z m292 -2 l-1 -2 -1 0 -1 0 2 1 2 2 0 0 0 0 -1
-1z m-29 -12 l0 0 -3 -3 -3 -2 2 3 3 3 1 -1 0 0 0 0z m221 -9 l0 -1 -1 0 -1 0
0 2 0 2 1 0 1 -1 0 -2z m-429 -1 l2 -1 -2 0 -1 0 -3 1 -2 1 2 0 2 0 2 -1z m5
-2 l-1 0 -1 0 -1 1 2 0 3 0 -2 -1z m424 -3 l-1 -1 0 1 1 2 0 1 0 2 1 -2 0 -2
-1 -1z m-10 -2 l0 -2 -1 0 -1 0 0 1 -1 1 1 0 0 1 1 0 1 0 0 -1z m-136 -3 l2
-1 -3 1 -2 0 0 -1 1 -1 -1 0 -2 0 0 1 0 1 1 0 2 1 0 0 1 0 1 -1z m125 -3 l0
-1 -1 0 -1 0 1 1 0 1 1 0 0 0 0 -1z m-531 -4 l0 -1 -2 0 -3 -1 1 1 0 1 2 0 2
0 0 0z m-14 -2 l-1 -1 -2 0 -1 0 2 1 2 1 0 0 0 0 0 -1z m5 1 l0 -1 -2 0 -2 -1
1 1 0 1 2 0 1 0 0 0z m330 -7 l0 -2 -1 0 -1 0 0 1 0 1 1 1 1 1 1 0 0 0 -1 -2z
m-310 0 l0 -1 -1 0 -1 0 1 1 0 1 1 0 0 0 0 -1z m-30 -2 l0 -1 -1 0 -1 0 1 1 0
1 1 0 0 0 0 -1z m194 -7 l2 -1 -2 0 -1 1 0 -1 0 -1 -1 1 -1 1 1 1 0 1 0 0 1 0
1 -2z m150 1 l-1 -1 -1 0 -1 0 1 1 2 1 0 0 0 0 0 -1z m-145 -1 l0 -1 -1 0 -2
-1 0 1 0 1 2 0 1 0 0 0z m150 -5 l-1 -1 -1 0 -1 0 1 1 2 1 1 0 1 0 -2 -1z
m-179 -8 l-1 -1 3 0 4 0 -3 1 -2 1 2 0 3 0 0 -1 0 -1 8 0 9 1 0 -1 1 -2 -2 -1
-2 0 -2 -2 -2 -2 1 1 0 2 -2 -2 -1 -2 -3 0 -3 -1 -4 -1 -3 -1 -3 0 -2 -1 -1
-1 0 0 3 0 3 1 0 -1 0 -1 1 1 1 1 3 -1 3 -1 -4 0 -3 0 -2 0 -2 0 0 -1 1 -1 -4
1 -4 0 0 -1 0 -1 -5 -1 -5 -2 -6 -1 -6 -1 -2 -1 -2 0 -1 0 0 0 -1 0 0 -1 -2 0
-1 -1 0 1 0 1 -5 -2 -5 -1 -4 -1 -4 0 -2 -1 -1 0 -1 0 0 -1 -3 0 -3 -1 -3 -2
-2 -2 -1 1 0 2 -3 -1 -2 0 0 1 1 2 3 -1 3 0 -2 1 -2 1 -6 -1 -5 -1 -1 0 0 0 1
-1 0 -1 -1 0 -1 0 0 1 0 1 -7 0 -7 0 0 0 1 1 3 0 3 1 0 0 1 0 0 1 -1 1 3 1 3
0 2 1 2 1 -6 -1 -5 0 0 2 1 2 -1 0 -1 -1 -1 1 -2 0 0 2 -1 1 6 3 6 3 13 3 13
3 5 1 5 0 -2 1 -1 0 1 1 1 1 3 -1 4 0 3 1 4 1 1 -1 0 -1 2 0 2 0 -2 1 -2 1 1
0 2 0 1 -1 1 -1 0 1 0 1 1 0 1 0 0 -1 -1 -1 9 1 9 1 7 0 7 1 0 0 0 1 1 0 1 0
0 -1z m295 -10 l1 -1 0 1 0 1 2 -1 2 0 0 0 1 0 0 -1 -1 -1 2 0 2 -1 -15 1 -15
0 -7 1 -7 0 -2 1 -2 1 19 0 20 0 0 -1z m-76 -7 l13 -3 6 0 6 -1 3 -1 4 0 0 -1
1 0 0 0 1 0 3 -1 4 0 2 -1 2 0 4 -1 4 0 4 -4 4 -4 1 0 0 1 2 -2 2 -1 -1 -1 0
-1 1 1 2 0 2 1 2 0 0 -1 0 -1 2 -1 3 0 7 -3 8 -2 1 -2 0 -1 1 0 1 0 0 1 -1 1
3 0 4 0 -2 1 -1 1 0 0 1 0 4 1 4 0 0 -1 0 -2 -3 -1 -2 0 1 -1 1 0 0 -1 0 -1
-2 0 -1 0 1 -1 2 -1 -2 0 -2 0 -2 0 -2 0 -5 1 -4 1 -14 3 -13 2 -3 1 -2 0 -3
1 -3 1 -5 1 -4 0 -2 0 -2 1 -6 1 -6 1 -8 2 -8 2 -1 1 -1 1 -3 0 -2 0 0 2 0 1
-1 0 -2 -1 -2 2 -2 2 -3 1 -3 0 -2 0 -2 1 -1 0 0 0 -1 0 -1 1 -1 1 0 2 1 0 2
0 0 0 1 0 0 1 0 1 -2 0 -2 0 -1 0 -1 1 -2 1 -2 1 7 0 7 -1 12 -2z m-172 -3 l3
-1 -1 -3 0 -2 2 -1 1 0 -2 -2 -1 -1 2 0 3 1 -2 -2 -2 -1 -2 1 -2 0 1 -1 2 -1
-1 0 -1 0 -3 0 -2 -1 -3 -1 -3 -2 0 -1 0 0 4 2 4 2 0 0 0 -1 -4 -2 -4 -2 0 1
-1 0 -13 -6 -12 -6 -7 -2 -7 -2 0 -2 -1 -2 3 0 2 0 0 -1 1 -1 -4 -4 -4 -5 -6
-6 -6 -5 -5 -4 -4 -3 -2 0 -2 0 -2 -2 -2 -1 -9 -4 -9 -3 -10 -5 -10 -4 -7 -3
-6 -4 -2 1 -2 1 -4 -2 -4 -3 -1 1 -1 0 0 -1 1 -1 -4 -2 -3 -1 0 1 0 1 3 2 2 2
2 0 2 -1 1 3 2 3 -1 2 -1 3 2 3 2 3 0 2 0 1 2 1 3 1 -1 3 0 3 1 -2 2 -2 1 2 2
1 0 2 0 1 1 -1 1 0 2 2 3 3 11 5 12 5 3 1 4 1 -1 1 0 1 1 0 1 -1 5 2 6 1 1 1
2 0 1 1 2 0 10 3 11 2 1 2 1 1 -1 0 -1 0 0 -1 -1 -1 -2 1 -1 0 0 -1 0 -1 -2 1
-2 0 0 -1 0 -1 -3 1 -2 0 1 -1 0 -1 -1 0 -2 1 0 -1 0 -1 -2 1 -3 0 0 -1 0 -1
-1 0 -2 1 -7 -2 -6 -2 -5 -1 -4 -2 -9 -4 -9 -3 -1 0 0 1 2 0 2 1 1 4 2 3 1 0
1 0 -1 3 -1 2 1 0 1 0 0 -1 0 -1 1 0 1 1 1 2 1 2 -2 0 -2 -1 -2 0 -2 -1 0 1 0
1 3 0 2 1 0 2 -1 1 1 -1 1 0 0 2 0 2 0 0 0 1 1 0 1 0 2 2 2 2 6 2 6 3 2 0 3 1
2 1 3 2 10 2 11 2 4 1 5 1 0 1 0 1 -2 -1 -2 -1 -2 0 -1 1 -1 -1 0 -1 -2 0 -1
1 -7 -1 -7 -2 -5 -1 -4 0 0 1 0 1 4 2 3 1 6 2 7 1 12 1 13 1 5 2 5 1 2 0 2 0
-2 -1 -1 -1 2 0 2 1 6 1 6 2 1 0 2 1 3 0 3 0 2 -1z m151 -1 l-1 -1 -1 1 -1 0
1 1 1 1 1 0 0 -1 0 -1z m-9 -1 l-1 0 -1 0 -1 1 1 0 2 0 0 -1z m23 -5 l-1 0 -2
0 -1 1 3 0 3 0 -2 -1z m-238 -1 l-1 0 -1 0 -1 1 2 0 3 0 -2 -1z m-4 -1 l-1 0
-6 -2 -5 -1 -2 -1 -1 -2 -7 -3 -6 -4 -2 0 -2 -1 0 1 0 1 3 1 3 1 3 2 3 2 1 0
0 1 -5 -2 -5 -2 0 1 1 1 -1 0 -1 0 0 1 1 0 13 3 14 4 1 0 1 0 0 -1z m182 -3
l0 -2 -1 1 -1 0 1 1 0 1 1 0 1 0 -1 -1z m13 -2 l7 -2 9 -3 9 -3 -1 -1 0 -1 -2
1 -1 1 -7 1 -7 2 -4 2 -4 1 -2 1 -2 0 0 1 0 2 -1 -2 0 -1 -2 2 -2 2 2 0 2 -1
6 -2z m-107 0 l0 -2 -2 0 -1 -1 1 1 0 1 -3 -1 -3 -2 -1 -2 -1 -1 3 2 4 2 1 -1
0 -1 -2 -1 -1 -1 -6 -6 -6 -6 0 0 1 0 4 4 4 3 1 0 0 -1 -6 -6 -6 -6 -7 -8 -7
-7 0 -1 1 -1 -2 0 -1 0 -4 -4 -5 -3 1 -2 0 -1 -4 -4 -4 -4 -1 0 0 1 4 4 5 4
-1 0 -1 0 -6 -6 -6 -5 -4 -3 -3 -3 -12 -6 -12 -6 1 0 2 1 2 0 3 1 -6 -2 -5 -3
-1 0 0 0 2 2 2 1 -3 -1 -2 0 -1 -1 0 -1 -3 1 -3 1 0 2 0 2 1 2 1 3 6 6 5 7 2
1 2 2 2 3 2 4 3 1 2 2 5 5 5 5 3 1 3 2 2 4 2 5 2 2 3 3 4 2 5 2 9 4 9 4 7 3 7
3 3 1 3 1 1 0 1 0 0 -1z m110 -5 l6 -2 4 -2 4 -1 8 -2 8 -1 9 -1 9 -1 3 -1 3
0 7 -1 7 -2 4 -1 4 0 -2 -2 -1 -1 1 0 1 1 0 -2 1 -1 5 -2 4 -2 0 -1 -1 -1 4 1
3 1 1 -1 0 -1 2 1 2 0 0 -1 0 -1 5 -3 5 -3 0 -2 0 -1 2 -1 2 0 0 -1 0 -1 -2
-1 -2 0 -2 1 -2 1 2 -1 2 -2 1 -1 1 -1 2 -1 3 -1 1 1 2 0 3 -3 2 -2 0 -1 -1 0
-1 1 -1 1 -11 4 -10 4 -4 1 -4 1 -4 2 -3 1 -2 0 -2 1 -6 2 -6 1 -1 0 0 1 -1 0
-1 1 -9 2 -8 3 -3 1 -3 1 1 -1 1 -1 19 -6 20 -7 14 -6 14 -5 9 -5 10 -4 2 -2
3 -2 -1 -3 0 -3 2 -1 3 -2 0 -2 0 -2 1 0 1 0 4 -3 4 -2 0 -2 0 -1 -4 0 -3 0
-2 2 -2 1 -2 1 -3 2 -2 -2 -1 -1 -2 1 -2 1 -5 3 -4 2 -7 4 -7 4 -10 5 -9 4 0
-1 1 -1 5 -2 5 -2 0 -1 0 -1 -2 1 -1 0 1 -1 2 -1 5 -3 5 -2 0 -2 0 -1 1 -1 1
0 -1 1 0 2 1 -1 1 -1 0 -1 0 -1 2 -1 2 0 -1 -1 0 -1 3 -2 3 -2 1 1 2 0 -2 -2
-2 -2 -1 -1 -1 0 0 2 1 1 -2 1 -2 0 1 -2 0 -2 -1 0 -1 1 -1 -3 -1 -3 0 -1 1 0
-1 -2 -1 -1 1 0 1 1 0 -1 0 -1 3 -2 2 -3 0 0 -1 0 -2 1 -2 1 -2 0 -1 1 -10 8
-10 8 0 2 1 1 -1 0 -1 -1 -2 4 -3 4 -6 6 -5 6 -4 5 -3 5 0 1 0 1 1 0 2 0 7 -3
7 -4 2 0 3 -1 -14 6 -13 7 0 1 -1 1 -2 0 -1 0 0 -1 0 -1 1 0 1 1 2 -3 2 -3 0
-1 0 0 6 -9 6 -8 2 -1 1 -2 0 -1 0 0 2 -2 2 -3 1 -3 0 -3 -2 0 -2 1 -9 1 -8 1
-2 0 -2 1 0 0 0 0 -3 1 -2 0 -1 1 -1 1 -7 2 -7 3 0 1 0 1 -2 -1 -1 0 0 1 1 1
-1 0 -1 0 -4 3 -5 3 -3 3 -3 3 -6 5 -6 5 -4 3 -3 4 -7 6 -6 7 0 1 0 1 -1 0 -1
0 0 1 0 2 -2 0 -1 0 -4 4 -3 5 2 -2 2 -2 0 1 -1 2 -2 1 -1 2 -1 -1 -1 0 1 2 0
2 2 -1 2 0 -2 1 -1 1 1 2 1 1 6 -2 6 -1 1 0 1 0 0 -1 0 -1 1 1 1 1 3 -2 4 -1
0 -1 -1 -1 2 0 3 1 -1 -2 0 -1 3 0 3 0 3 -1 3 -2 8 -3 9 -3 4 -2 4 -1 0 -1 0
-1 8 -8 8 -8 1 1 0 0 -7 7 -7 8 1 0 1 1 0 1 0 1 -1 0 -1 -1 0 1 0 1 -2 0 -1 0
-6 3 -6 3 -7 2 -6 3 -12 6 -12 5 0 1 0 0 5 0 6 -1 5 -2z m212 -6 l-1 0 -1 0
-1 1 1 0 2 0 0 -1z m-318 -2 l-1 -2 -1 -2 -1 -3 1 1 2 1 0 -1 0 -1 -1 -3 -1
-3 -1 1 -1 0 1 -2 0 -2 -1 -2 -1 -1 -1 -6 0 -5 -1 -4 -2 -4 -1 0 -1 0 1 -1 0
-2 -2 -4 -3 -4 -4 -8 -4 -7 -4 -7 -4 -7 -4 -8 -4 -8 -1 -3 0 -3 -2 -1 -1 0 1
-1 0 -2 -2 -2 -1 -1 1 1 0 2 -2 -2 -2 -2 0 -2 0 -2 -1 0 -1 -1 -1 -3 0 -3 -3
-6 -2 -5 0 0 0 0 -2 -3 -1 -2 -3 -4 -3 -3 -1 0 -1 0 0 1 0 1 2 2 2 1 -2 0 -2
-1 -2 2 -3 1 0 -1 -1 -1 -1 1 -1 0 0 -1 1 -1 -3 -1 -2 -2 -1 1 -2 1 1 5 0 4
-1 2 -2 2 -5 0 -4 -1 -1 2 -1 1 7 14 7 15 1 1 2 2 1 3 2 3 5 10 5 11 3 5 3 5
3 2 2 3 -1 1 0 1 1 0 1 0 5 6 6 6 0 0 0 1 2 0 1 0 1 2 0 1 1 0 1 0 2 2 2 2 4
3 4 4 1 -1 1 0 0 1 0 1 3 3 2 3 2 0 2 0 -2 1 -1 1 1 0 2 0 -1 1 0 1 1 0 1 -1
1 1 2 2 1 2 1 2 0 -2 -1 -2 1 0 0 0 1 3 2 3 2 2 2 2 1 0 0 -1 -1 -1z m151 1
l0 -1 -1 0 -1 0 -2 1 -2 1 2 0 3 0 1 -1z m164 -1 l0 -1 -1 -1 -1 -1 0 1 1 1
-1 1 -1 1 1 0 1 0 1 -1z m-141 -3 l2 1 1 -2 1 -1 -2 0 -1 1 -6 1 -5 0 3 1 3 1
1 -1 1 -1 2 0z m40 0 l-1 0 -1 0 -1 1 1 0 2 0 0 -1z m4 -1 l0 -1 0 0 -1 0 0 1
-1 1 1 0 1 0 0 -1z m95 -2 l0 -1 -1 0 -2 0 1 1 0 2 1 -1 1 0 0 -1z m-371 -2
l-1 0 -3 -1 -3 -1 1 1 2 2 2 0 2 0 0 -1z m60 -4 l-1 -4 -1 0 -1 0 2 4 1 4 1 0
0 -1 -1 -3z m80 -4 l7 -7 8 -8 9 -8 1 -1 2 0 6 -4 6 -5 4 -4 4 -5 0 -2 -1 -1
-1 0 -2 0 1 -1 1 -2 2 -5 3 -6 -1 7 0 8 1 0 1 0 3 -1 4 -1 2 -2 2 -2 2 0 1 1
0 -1 0 -1 1 0 2 0 0 -1 -1 -1 2 -1 3 -1 3 -4 3 -4 6 -11 6 -11 3 -6 3 -6 -1
-1 -1 0 0 -2 0 -1 -1 0 0 0 -3 -1 -3 -1 -1 -3 0 -2 1 -4 1 -3 -1 -1 0 0 -2 3
-2 2 -4 4 -4 4 0 -1 0 0 -1 4 -2 4 -2 0 -3 0 -1 -1 0 -1 1 0 1 1 -1 -2 0 -1
-1 1 -1 2 -2 2 -2 1 0 1 0 1 -3 9 -2 8 -1 0 0 -1 2 -5 1 -6 0 -2 -1 -1 1 1 1
0 0 -4 0 -3 -2 0 -1 0 -2 0 -1 -1 -3 0 -2 -1 -1 -1 -1 -1 1 -5 0 -4 -1 -1 -2
-2 0 -1 0 -1 -1 0 -1 0 -3 1 -2 1 -2 -2 -1 -1 -1 3 -2 4 0 2 0 2 -1 0 -1 -1
-3 8 -3 8 0 2 -1 3 -1 4 -2 5 -2 4 -1 4 -1 0 -1 0 0 1 1 1 -1 3 -2 3 -2 5 -2
5 -3 6 -2 6 1 0 1 0 0 1 1 2 -1 -1 -2 0 -1 3 -2 3 0 2 -1 3 1 -1 1 0 0 -1 0
-2 1 -1 2 -1 0 1 -1 2 -1 5 -2 6 -2 3 -1 3 -2 5 -2 6 -1 3 -1 3 1 -1 2 0 6 -6z
m171 5 l1 -1 -1 1 -2 0 0 1 0 0 1 0 1 0 0 -1z m8 -2 l-1 0 -1 0 -1 1 1 0 2 0
0 -1z m11 -2 l0 -1 0 0 -1 0 0 1 -1 1 1 0 1 0 0 -1z m10 -1 l-1 -1 -3 1 -3 0
0 1 1 1 3 -1 3 0 0 -1z m-422 -14 l0 -1 -1 0 -1 0 1 1 0 1 1 0 0 0 0 -1z m166
-11 l0 -1 -1 0 0 1 0 1 1 1 1 0 0 0 -1 -2z m-33 -6 l-2 -6 -4 -16 -5 -15 -1
-3 -2 -4 -1 0 -1 0 -1 -3 -1 -3 -1 0 0 1 -3 -3 -2 -2 0 -2 0 -1 -2 -4 -1 -4
-1 0 -1 0 1 2 0 2 -2 0 -3 0 0 2 0 2 1 0 1 1 0 3 1 3 6 13 6 12 4 6 4 7 1 1 1
1 2 4 3 4 0 1 0 1 1 0 1 0 1 3 1 4 1 0 0 -1 -2 -6z m-84 4 l0 -1 -5 -6 -5 -6
-6 -7 -6 -6 -6 -4 -5 -4 1 -1 1 -1 1 0 1 1 0 1 -1 1 2 2 3 2 -2 -3 -2 -2 0 0
1 0 4 3 4 3 5 -1 4 0 -6 -8 -7 -8 -3 -5 -3 -5 -8 -10 -7 -9 0 -1 1 -1 -1 0 -1
1 -2 -4 -3 -3 -1 0 -2 0 -1 2 -1 1 1 1 2 1 -2 0 -1 0 -1 -1 0 -1 -1 0 -2 1 -1
-1 -1 -1 0 0 0 1 0 2 -1 3 2 2 3 2 0 2 0 2 -1 0 -1 0 1 4 0 4 1 1 1 1 2 -1 2
0 -2 1 -1 1 2 2 2 2 0 -2 -1 -1 1 1 2 0 -1 1 0 1 4 3 5 3 5 4 5 4 -1 1 -1 1
-4 -3 -4 -4 -11 -7 -10 -7 -2 1 -2 0 0 1 0 1 -1 -1 -1 -1 -4 4 -4 4 1 1 1 0
-1 1 0 1 2 1 3 0 0 2 0 2 -2 1 -1 1 1 -1 0 0 3 3 2 3 1 -1 0 0 -1 -1 -1 -1 0
-1 1 0 3 2 4 2 -2 0 -1 0 0 1 0 1 7 4 7 4 15 8 16 7 9 4 10 4 0 0 0 0 0 -1z
m118 -2 l0 0 -1 -1 0 -1 -2 -1 -1 0 0 1 0 1 1 1 1 1 1 0 1 0 0 -1z m-84 -4 l0
-2 -1 -1 0 -1 -1 1 -1 0 1 -1 0 -2 -1 -2 -2 -1 0 3 0 3 2 3 2 2 1 0 1 0 -1 -2z
m138 -6 l1 -2 -1 0 -1 1 -1 2 0 2 0 0 1 0 1 -3z m-60 -1 l0 -1 -1 0 -1 0 0 1
0 1 1 0 1 0 0 -1z m-86 -3 l0 -1 -1 -4 -2 -3 1 -1 0 -1 -1 0 -1 1 -1 -2 0 -1
0 -1 -1 0 -1 -3 -1 -3 -1 0 -1 0 0 -1 1 -1 -1 -1 -1 0 0 -2 1 -1 -1 0 -1 1 -8
-15 -7 -15 -4 -6 -4 -6 -5 0 -5 0 -3 -4 -4 -5 -2 0 -2 0 0 1 0 1 -1 0 -1 -1
-1 2 0 3 -2 0 -1 0 0 1 0 1 -2 2 -1 2 -2 0 -1 0 0 1 0 1 1 2 2 2 1 -2 1 -1 1
0 1 1 -2 1 -1 0 0 1 0 1 5 7 5 7 6 6 5 6 0 1 0 0 -2 -2 -2 -1 1 2 2 2 2 -1 1
0 0 1 -1 2 6 6 7 5 -1 2 0 1 2 0 2 -1 0 1 0 1 8 4 8 4 -3 -1 -2 0 -1 -1 -1 -1
-1 0 -1 0 0 1 1 1 4 1 3 1 2 2 1 1 1 0 2 0 -2 -2 -2 -1 1 0 1 0 2 2 3 2 1 0 1
0 0 -2z m85 -1 l0 -1 -1 1 -1 0 0 1 0 1 1 0 1 0 0 -2z m67 -6 l4 -8 5 -12 5
-11 4 -14 5 -14 -1 -1 -1 -1 -2 2 -3 1 0 1 1 0 -2 2 -2 1 -2 5 -3 6 -3 1 -2 1
-1 3 -1 4 -1 0 -1 0 1 -3 0 -2 0 0 -1 1 -2 8 -2 8 0 4 0 4 1 -1 1 0 0 2 0 1
-1 0 -2 0 0 2 0 1 0 1 0 1 1 -1 1 0 0 2 0 3 -1 -2 0 -1 -1 0 -1 0 0 5 0 5 1
-3 1 -2 1 0 0 0 -1 2 0 2 0 3 -1 2 1 0 1 0 4 -8z m-259 -3 l0 0 -2 -3 -2 -3
-1 1 -1 2 1 0 1 0 0 1 -1 1 2 1 2 1 0 0 1 0 0 -1z m191 -2 l-1 -3 -1 -7 -1 -6
-1 -2 -1 -1 1 0 1 1 0 -1 0 -2 -1 1 -1 0 0 -2 1 -3 -2 -3 -1 -2 1 -1 1 0 -1
-1 -1 -2 -1 -5 0 -5 -1 -1 -1 0 0 1 0 2 -1 -1 -2 -1 1 -1 0 0 -2 -2 -1 -1 1 3
0 4 2 8 2 9 1 -1 1 0 0 2 0 2 1 -1 1 0 0 3 0 3 1 1 1 1 1 8 1 9 1 0 1 0 0 -3z
m157 -3 l6 -1 3 -1 4 -1 4 -3 4 -3 12 -10 11 -10 -3 -1 -3 -1 -1 1 -1 0 -3 -1
-2 -2 -3 0 -2 0 3 -1 3 -2 0 -1 0 -2 2 -2 2 -2 0 -2 0 -1 -1 1 -1 0 -1 -1 -1
-1 -2 0 -3 1 1 1 0 2 -1 1 -2 1 -2 0 -1 -1 0 1 1 2 -1 1 -1 0 0 -2 0 -3 -2 0
-2 -1 -1 1 0 1 1 1 2 2 -4 0 -4 0 0 -1 0 -1 -1 0 -1 0 0 3 -1 2 -1 -1 -1 -1
-4 6 -4 6 1 1 1 0 -2 0 -1 -1 -2 4 -2 3 2 -1 1 -1 -1 2 -1 2 -1 0 -1 -1 -1 1
0 1 1 0 1 -1 0 1 -1 2 -1 -1 -1 0 -2 4 -2 4 0 2 0 2 -1 1 -2 2 1 1 0 1 5 0 5
-1 6 -1z m69 -7 l0 -1 -1 0 -1 0 0 2 0 1 1 0 1 -1 0 -1z m-30 -13 l1 -1 -1 1
-1 0 0 1 0 1 0 0 1 0 0 -2z m-380 0 l0 -1 -1 0 -1 0 0 1 -1 1 1 0 2 0 0 -1z
m229 -11 l1 -2 -2 1 -1 2 0 1 0 1 1 0 1 0 0 -3z m25 -6 l0 -1 0 0 -1 0 0 1 -1
1 1 0 1 0 0 -1z m-22 -7 l-1 -1 0 1 0 2 1 0 0 -1 0 -1z m-120 -12 l-1 -2 1 -1
1 0 -2 0 -1 1 1 2 1 1 1 0 0 0 -1 -1z m-2 -4 l1 -1 -1 0 -2 0 1 1 0 1 1 0 0 0
0 -1z m-5 -17 l-1 -2 1 2 0 2 1 1 0 2 1 -1 0 -1 -2 -3z m282 0 l0 -2 -1 0 0
-1 0 -1 0 -1 -3 -1 -2 0 2 3 3 4 0 0 1 0 0 -1z m0 -8 l0 -2 -2 -1 -1 0 -1 1
-1 1 2 1 2 2 0 0 1 0 0 -2z m-3 -6 l-1 -1 -1 0 -1 0 1 1 2 1 0 0 0 0 0 -1z m3
0 l0 -1 -1 0 -1 -1 0 1 0 2 1 0 1 0 0 -1z m-288 -4 l0 -2 -1 -1 -1 -1 0 1 0 2
-2 -2 -3 -3 0 1 -1 1 1 2 0 2 -2 -3 -2 -2 -2 0 -2 0 0 0 0 1 -1 1 0 2 1 0 2 0
0 1 0 2 1 -2 1 -1 3 2 4 3 2 -1 3 0 -1 -3z m262 -2 l0 -1 -1 -2 -2 -1 0 1 0 1
-1 0 -1 -1 0 0 0 1 2 1 1 2 1 0 1 0 0 -1z m11 0 l0 -1 -2 0 -1 0 -4 -1 -4 0 0
1 1 1 1 -1 2 0 0 1 1 1 3 0 2 0 1 -1z m6 -1 l1 -1 -2 1 -1 1 -1 1 0 0 1 0 2 0
0 -2z m-276 -3 l1 -1 -1 0 -2 -1 0 3 0 4 1 -2 0 -1 1 -2z m227 1 l-1 -1 0 1 0
2 1 0 0 -1 0 -1z m36 -2 l0 -1 -1 0 -1 0 0 1 0 1 1 0 1 0 0 -1z m20 1 l0 -1
-1 0 -2 -1 -1 1 0 1 2 0 2 0 0 0z m-64 -8 l-1 -2 -1 1 0 1 1 1 2 1 0 0 1 0 -2
-2z m30 -5 l0 -1 -1 0 -1 -1 0 1 0 1 1 0 1 0 0 0z m-236 -3 l1 0 0 -1 -1 -1
-1 0 -1 0 -2 2 -1 1 2 -1 2 -1 1 1z m233 0 l0 -1 -1 0 -1 0 1 1 0 1 1 0 0 0 0
-1z m-225 -1 l-1 -1 -2 1 -2 0 0 1 0 0 3 0 4 0 -2 -1z m186 -1 l0 -1 -2 0 -2
0 1 1 2 2 1 -1 1 0 -1 -1z"/>
<path d="M204 669 l0 -1 1 0 1 0 0 1 -1 1 -1 0 0 0 0 -1z"/>
<path d="M207 669 l0 -1 1 -1 2 -1 1 1 0 2 0 -1 -1 -1 -2 1 -1 1 0 0z"/>
<path d="M728 667 l-1 -1 1 0 1 0 0 1 0 1 0 0 -1 0 0 -1z"/>
<path d="M748 659 l-1 0 -3 -3 -2 -2 0 -1 0 0 -4 -1 -3 0 -2 0 -2 -1 -1 0 -1
0 0 -2 0 -1 2 0 3 1 -1 -1 0 -1 1 0 1 0 1 0 1 0 3 -3 4 -3 -1 -1 -1 -1 3 0 3
0 1 1 2 1 0 -1 1 0 -1 1 0 2 2 0 2 0 -2 1 -1 0 1 2 1 2 -2 -1 -2 -1 2 4 1 4 1
1 0 2 -2 2 -1 1 -1 0 0 0 -2 -1z"/>
<path d="M776 637 l0 -1 1 1 1 0 0 1 0 0 -1 0 -1 0 0 -1z"/>
<path d="M777 634 l-1 0 0 -1 0 -1 2 1 2 2 -2 -2 -1 -2 -2 1 -1 0 1 1 0 1 -1
0 -1 -1 1 -1 0 -1 -2 -1 -2 -2 3 1 4 0 1 0 1 1 1 2 0 2 -1 0 0 1 -2 -1z"/>
<path d="M766 632 l-1 -2 2 -1 2 -1 0 1 0 2 2 -1 1 0 0 1 0 1 -1 0 -1 0 -1 1
-2 0 -1 -1z"/>
<path d="M757 628 l-1 -1 1 0 1 -1 0 2 1 1 0 0 0 0 -2 -1z"/>
<path d="M762 627 l0 -1 1 -2 2 -2 1 1 1 2 -1 1 0 2 -2 0 -1 0 -1 -1z"/>
<path d="M804 601 l0 -1 1 0 0 0 0 1 0 1 -1 0 -1 0 1 -1z"/>
<path d="M813 600 l0 -1 1 0 1 0 0 1 0 1 -1 0 -1 0 0 -1z"/>
<path d="M624 597 l-1 -2 1 0 1 0 0 2 0 1 0 0 -1 0 0 -1z"/>
<path d="M613 585 l-1 -1 0 -1 1 0 1 2 1 1 0 0 0 1 -2 -2z"/>
<path d="M720 572 l1 0 1 0 0 1 -2 0 -1 0 1 -1z"/>
<path d="M734 572 l3 -1 3 0 3 0 -4 1 -4 1 -2 0 -2 0 3 -1z"/>
<path d="M729 570 l7 -1 2 0 2 0 -6 2 -5 1 -3 0 -3 0 6 -2z"/>
<path d="M597 568 l-1 -2 2 1 2 2 0 1 0 0 0 0 -1 0 -2 -2z"/>
<path d="M741 568 l1 0 1 0 2 1 -3 0 -2 0 1 -1z"/>
<path d="M747 567 l3 -1 5 0 5 -1 -5 1 -5 2 -3 0 -2 0 2 -1z"/>
<path d="M642 559 l-1 -1 2 1 3 1 0 1 0 0 -1 0 -1 0 -2 -2z"/>
<path d="M654 558 l0 -2 1 0 1 0 -1 2 0 1 -1 0 0 0 0 -1z"/>
<path d="M646 554 l1 0 1 0 0 1 -2 0 -1 0 1 -1z"/>
<path d="M633 552 l1 0 1 0 0 1 -2 0 -1 0 1 -1z"/>
<path d="M580 550 l-2 -2 1 0 1 0 2 2 3 2 -1 0 -1 0 -3 -2z"/>
<path d="M631 550 l-5 -2 1 0 2 0 4 1 4 1 0 0 1 0 0 1 -1 1 0 0 0 0 -6 -2z"/>
<path d="M617 546 l-2 -1 2 0 3 0 1 1 1 1 -1 0 -1 1 -3 -2z"/>
<path d="M602 545 l-1 -1 1 -1 1 -1 2 1 2 1 0 1 0 0 -2 -1 -2 -1 0 1 1 2 -1 0
-1 0 0 -1z"/>
<path d="M610 544 l-1 -1 1 0 1 0 1 1 0 1 0 0 0 0 -2 -1z"/>
<path d="M598 536 l-1 -3 1 0 1 0 1 2 0 2 0 1 -1 0 -1 -2z"/>
<path d="M594 536 l0 -1 1 0 1 0 0 1 -1 1 -1 0 0 0 0 -1z"/>
<path d="M594 530 l-1 -1 1 0 1 0 1 1 0 1 -1 0 -1 0 0 -1z"/>
<path d="M313 602 l1 0 1 0 0 1 -2 0 -1 0 1 -1z"/>
<path d="M327 572 l1 0 1 0 2 1 -3 0 -2 0 1 -1z"/>
<path d="M323 571 l1 0 1 0 0 1 -2 0 -1 0 1 -1z"/>
<path d="M295 569 l-2 -1 1 0 2 0 2 1 2 1 -2 0 -1 0 -2 -1z"/>
<path d="M234 568 l-1 0 0 -1 0 -1 1 1 1 1 0 0 -1 1 0 -1z"/>
<path d="M305 568 l-2 -1 1 0 2 0 1 1 0 1 0 0 0 0 -2 -1z"/>
<path d="M243 567 l-5 -1 0 -1 -1 -1 5 1 6 0 2 0 3 1 1 0 1 0 0 1 0 1 -3 0 -3
0 -6 -1z"/>
<path d="M284 562 l1 0 1 0 0 1 -2 0 -1 0 1 -1z"/>
<path d="M280 561 l0 -1 1 1 1 0 0 1 0 0 -2 0 -1 0 1 -1z"/>
<path d="M434 553 l0 -1 2 0 1 -1 0 1 0 1 -1 0 -2 0 0 0z"/>
<path d="M258 523 l0 -1 -1 0 -1 -1 0 -1 0 -1 4 0 5 0 2 1 3 1 0 0 1 0 -1 2 0
1 -7 0 -6 0 1 -1z"/>
<path d="M418 524 l-2 -1 2 0 3 0 0 1 0 1 0 0 0 0 -3 -1z"/>
<path d="M414 523 l-1 -1 1 0 1 0 0 1 0 1 0 0 -1 0 0 -1z"/>
<path d="M393 514 l-1 -1 1 0 1 0 1 1 0 1 -1 0 -1 0 0 -1z"/>
<path d="M382 512 l-1 -1 1 0 1 0 1 1 0 1 0 0 0 0 -2 -1z"/>
<path d="M346 511 l-1 0 -3 0 -2 -1 -3 0 -3 0 1 -1 0 -1 -1 0 -1 0 0 -1 1 0 6
1 6 2 2 0 2 1 -2 0 -2 1 0 -1z"/>
<path d="M346 505 l-3 -1 -4 0 -3 0 0 -2 0 -1 2 0 1 1 7 2 7 1 0 1 0 0 -2 0
-2 0 -3 -1z"/>
<path d="M629 501 l1 0 1 0 2 1 -3 0 -2 0 1 -1z"/>
<path d="M419 506 l-4 -2 -3 -1 -3 -1 0 1 -1 0 0 -1 0 -1 2 0 2 1 6 2 7 2 1 0
0 1 -1 0 -1 0 -5 -1z"/>
<path d="M312 426 l1 0 0 -2 0 -1 2 1 1 1 0 1 0 1 -3 0 -2 0 1 -1z"/>
<path d="M659 433 l0 -1 2 0 1 -1 -1 1 0 1 -1 0 -1 0 0 0z"/>
<path d="M694 431 l-1 0 1 -1 0 -1 1 0 1 0 0 2 0 1 -1 0 -1 0 0 -1z"/>
<path d="M673 423 l2 -2 1 0 1 0 0 0 0 1 -3 2 -3 1 2 -2z"/>
<path d="M662 412 l0 -1 2 -1 2 -1 -2 1 -1 2 -1 0 0 0 0 0z"/>
<path d="M462 459 l-1 0 0 -3 0 -3 -1 0 -1 -1 0 -2 0 -1 1 1 1 1 1 4 1 4 0 1
-1 0 0 -1z"/>
<path d="M548 468 l0 -1 1 0 1 -1 -1 1 0 2 -1 0 0 0 0 -1z"/>
<path d="M576 444 l0 -1 5 -5 5 -5 1 0 0 0 -5 6 -5 5 -1 0 0 0 0 0z"/>
<path d="M601 407 l0 -1 1 0 1 -1 -1 1 0 2 -1 0 0 0 0 -1z"/>
<path d="M601 402 l0 -2 2 -3 1 -3 -1 2 0 3 -2 3 -1 3 1 -3z"/>
<path d="M604 399 l0 -1 1 -2 1 -2 0 1 0 2 -1 1 -1 2 0 -1z"/>
<path d="M605 390 l0 -3 2 -4 1 -3 0 1 0 1 -2 6 -2 6 1 -4z"/>
<path d="M583 361 l0 -1 1 0 1 0 0 1 0 1 -1 0 -1 1 0 -2z"/>
<path d="M634 360 l0 -1 1 0 1 0 0 1 -1 1 -1 0 0 0 0 -1z"/>
<path d="M366 401 l-3 -3 3 3 4 3 0 1 0 0 0 0 -1 0 -3 -4z"/>
<path d="M350 358 l1 0 -1 -1 0 -1 1 1 2 0 -1 1 0 1 -2 0 -1 0 1 -1z"/>
<path d="M347 357 l0 -1 2 -2 1 -1 0 1 0 1 -1 1 -2 1 0 0z"/>
<path d="M553 400 l0 0 0 -2 -1 -2 1 0 1 0 0 2 0 2 -1 0 0 0 0 0z"/>
<path d="M554 391 l0 -1 0 -1 1 0 0 1 1 2 0 0 -1 0 -1 -1z"/>
<path d="M555 386 l0 -1 1 1 0 1 0 1 -1 0 0 -2z"/>
<path d="M478 380 l0 -2 1 1 0 1 0 1 -1 2 0 -3z"/>
<path d="M478 375 l0 -1 1 1 0 1 0 1 -1 0 0 -2z"/>
<path d="M672 370 l0 -1 1 0 1 0 0 1 -1 1 -1 0 0 0 0 -1z"/>
<path d="M676 365 l-1 -1 1 1 2 1 0 1 0 0 -1 0 -1 0 0 -2z"/>
<path d="M398 314 l-1 -1 1 0 1 0 0 1 0 1 0 0 -1 0 0 -1z"/>
<path d="M857 758 l-1 -2 1 -1 1 0 -1 1 0 1 1 0 2 -1 0 2 0 1 -1 0 -1 0 -1 -1z"/>
<path d="M852 755 l-1 0 0 -1 0 -1 1 1 2 1 0 -1 1 0 0 1 0 1 -1 0 0 0 -2 -1z"/>
<path d="M87 754 l-1 -1 1 -1 1 -1 0 2 0 2 -1 0 0 0 0 -1z"/>
<path d="M169 753 l1 -1 1 0 2 0 0 -1 0 -1 9 -2 8 -3 1 -1 0 -1 1 0 1 0 -1 2
0 1 -2 0 -2 0 0 1 -1 1 -6 2 -6 1 -1 1 -1 1 -2 0 -2 1 0 -1z"/>
<path d="M846 746 l0 -1 1 1 1 0 0 1 0 0 -1 0 -1 0 0 -1z"/>
<path d="M843 742 l-1 -1 1 0 1 0 1 1 0 1 -1 0 -1 0 0 -1z"/>
<path d="M857 742 l2 -1 1 0 1 0 -2 1 -1 1 -1 0 -1 0 1 -1z"/>
<path d="M198 741 l1 0 1 0 0 1 -2 0 -1 0 1 -1z"/>
<path d="M203 740 l1 -2 1 1 0 0 -1 1 -1 1 -1 0 -1 0 2 -1z"/>
<path d="M196 739 l0 -1 1 0 1 0 0 1 -1 1 -1 0 -1 0 1 -1z"/>
<path d="M206 738 l0 -1 1 0 1 0 2 -1 2 0 -2 1 -2 2 -1 0 -1 0 0 -1z"/>
<path d="M199 737 l-1 -1 2 0 1 0 0 1 -1 1 0 0 -1 0 0 -1z"/>
<path d="M829 735 l0 -1 2 1 1 0 0 1 0 0 -1 0 -2 0 0 -1z"/>
<path d="M223 729 l0 -1 0 0 1 1 4 -2 4 -1 -1 1 -1 1 -3 1 -3 1 -1 -1z"/>
<path d="M217 727 l0 -2 5 -2 4 -2 0 1 0 0 -1 2 -2 1 -1 0 -1 -1 1 2 0 2 -1
-2 -2 -1 0 1 1 1 -2 1 -1 0 0 -1z"/>
<path d="M241 722 l1 0 1 0 0 1 -2 0 -1 0 1 -1z"/>
<path d="M929 719 l0 -1 1 1 0 1 0 1 -1 0 0 -2z"/>
<path d="M924 711 l-1 -1 1 -1 2 -1 0 0 1 0 0 1 1 1 -2 -1 -1 0 0 1 1 2 0 0 0
0 -2 -1z"/>
<path d="M924 707 l0 -1 2 0 2 -1 0 1 0 1 -2 0 -2 0 0 0z"/>
<path d="M285 695 l-1 -1 0 -1 0 0 2 1 1 1 0 -1 0 -2 2 0 2 1 -1 -2 0 -1 1 2
2 2 -1 0 -2 0 0 1 0 1 -1 0 0 -1 -1 1 -1 1 -2 -2z"/>
<path d="M605 690 l-4 -3 -5 -6 -5 -6 0 -2 0 -2 -3 -3 -3 -4 -8 -8 -8 -7 -6
-9 -7 -8 -5 -3 -4 -4 -3 -3 -2 -2 4 3 4 4 1 0 0 -1 -3 -4 -3 -3 0 -2 -1 -1 2
2 2 3 3 3 3 4 7 8 7 7 1 -1 0 0 0 1 -1 1 1 1 2 0 0 3 1 2 8 9 9 9 5 3 5 4 6 7
6 8 0 1 0 2 -1 0 -1 1 -4 -4z"/>
<path d="M293 691 l-1 0 0 -1 0 -1 3 0 2 -1 -1 -1 0 -1 1 0 1 0 1 1 0 1 -2 2
-2 2 -1 0 -1 0 0 -1z"/>
<path d="M907 689 l0 -1 1 1 1 0 0 1 0 0 -1 0 -1 0 0 -1z"/>
<path d="M307 679 l0 -1 2 -1 2 -1 -2 1 -1 2 -1 0 0 0 0 0z"/>
<path d="M118 665 l2 -2 1 0 1 0 -1 1 -1 2 -2 0 -2 1 2 -2z"/>
<path d="M123 628 l-1 -1 1 0 1 -1 1 0 0 1 0 1 0 1 -2 -1z"/>
<path d="M538 618 l-2 -3 0 0 1 -1 2 3 2 3 0 0 -1 0 -2 -2z"/>
<path d="M532 611 l-1 -2 2 1 2 2 0 1 0 0 0 0 -1 0 -2 -2z"/>
<path d="M538 607 l-3 -4 -4 -5 -3 -4 4 4 4 5 3 4 3 5 0 0 -1 0 -3 -5z"/>
<path d="M527 604 l-2 -3 0 0 1 0 2 3 2 3 0 0 -1 0 -2 -3z"/>
<path d="M523 598 l-1 -2 0 -1 1 0 1 2 1 3 0 0 -1 0 -1 -2z"/>
<path d="M849 580 l0 -1 -2 -3 -2 -3 1 0 1 0 2 2 1 3 0 2 -1 2 0 -2z"/>
<path d="M167 574 l0 -1 1 0 1 0 0 1 -1 1 -1 0 0 0 0 -1z"/>
<path d="M494 558 l0 -1 1 0 1 -1 0 1 0 1 -1 1 -1 0 0 -1z"/>
<path d="M833 544 l0 -2 1 1 1 1 -1 1 -1 1 0 -2z"/>
<path d="M209 504 l0 -2 2 1 1 0 0 1 0 0 -1 0 -2 1 0 -1z"/>
<path d="M214 502 l-2 0 1 -2 0 -1 2 0 2 0 0 1 1 2 -1 0 0 1 -1 0 0 0 -2 -1z"/>
<path d="M209 499 l0 -1 1 1 0 1 0 1 -1 0 0 -2z"/>
<path d="M794 490 l-1 -2 1 0 1 0 1 2 1 1 0 0 -1 0 -2 -1z"/>
<path d="M788 484 l0 -1 2 0 1 0 0 1 0 1 -1 0 -2 0 0 -1z"/>
<path d="M700 475 l-1 -1 2 0 1 0 0 1 -1 1 0 0 -1 0 0 -1z"/>
<path d="M314 474 l1 0 1 0 0 1 -2 0 -1 0 1 -1z"/>
<path d="M776 456 l0 -1 1 0 1 1 1 1 0 1 -1 0 -2 0 0 -2z"/>
<path d="M255 414 l-1 -2 0 -2 0 -1 2 0 1 1 1 1 0 1 -1 -1 -1 0 0 1 1 1 -1 2
-1 1 0 -2z"/>
<path d="M742 413 l-1 -1 3 -4 2 -4 1 1 0 1 -1 3 -1 3 -1 0 -1 0 1 1 0 1 0 0
-1 0 -1 -1z"/>
<path d="M536 338 l-1 -1 0 0 1 -1 1 1 1 1 0 0 -1 1 -1 -1z"/>
<path d="M312 324 l2 -2 0 0 1 0 0 2 0 1 -1 0 0 -1 -2 1 -1 1 1 -2z"/>
<path d="M316 321 l0 -1 1 1 0 1 0 1 -1 0 0 -2z"/>
<path d="M362 316 l0 -1 1 1 1 0 0 1 0 0 -1 0 -1 0 0 -1z"/>
<path d="M358 314 l-1 -2 5 1 4 0 1 -1 2 -1 1 1 2 1 -3 0 -2 0 0 1 0 1 -1 0
-1 -1 -2 0 -1 -1 0 2 -1 1 -1 0 -1 0 -1 -2z"/>
<path d="M320 313 l2 -2 1 1 0 0 -1 1 -2 2 -1 0 -1 0 2 -2z"/>
<path d="M337 309 l-2 -2 -3 0 -2 1 3 -1 3 -1 4 2 5 3 -3 0 -3 0 -2 -2z"/>
<path d="M372 309 l0 -2 0 0 1 0 0 1 1 2 -1 0 -1 1 0 -2z"/>
<path d="M551 305 l0 -2 1 0 0 1 -1 1 -1 2 1 -2z"/>
<path d="M553 301 l0 -3 1 0 1 0 0 -1 0 -1 4 -4 3 -3 4 -1 4 -1 2 0 3 1 0 2 0
1 -2 0 -1 0 -2 0 -2 1 -1 0 -2 1 -2 1 -3 2 -2 0 -1 0 0 2 1 1 -2 2 -1 2 -1 0
-1 0 0 -2z"/>
<path d="M576 289 l0 -1 2 0 1 0 0 1 0 1 -1 0 -2 1 0 -2z"/>
<path d="M595 290 l2 -2 0 0 1 0 -2 1 -1 2 -1 0 -1 0 2 -1z"/>
<path d="M645 283 l0 -2 1 0 1 0 0 1 1 1 -2 1 -1 1 0 -2z"/>
<path d="M640 283 l-1 -1 1 1 2 0 0 1 0 0 -1 0 -1 0 0 -1z"/>
<path d="M635 281 l-1 -1 -1 1 -1 0 0 -2 0 -2 2 1 2 1 1 1 1 2 -1 0 0 0 -2 -1z"/>
<path d="M647 280 l0 -1 2 0 1 0 0 1 -1 1 -1 0 -1 0 0 -1z"/>
<path d="M622 278 l1 0 1 0 0 1 -2 0 -1 0 1 -1z"/>
<path d="M899 89 l-1 -9 -1 -2 -1 -2 1 0 1 0 0 -15 0 -14 0 -1 1 0 0 13 0 14
2 4 2 5 0 -2 0 -2 -1 -3 -1 -3 1 0 1 0 0 2 1 1 1 6 0 5 -1 0 -1 0 -1 -3 -2 -3
1 9 0 10 -1 0 -1 0 0 -10z"/>
<path d="M924 82 l0 -3 1 0 2 0 2 2 2 1 -2 -1 -2 0 0 1 1 2 -1 -1 0 -1 -1 0
-1 0 0 1 1 1 -1 0 -1 1 0 -3z"/>
<path d="M910 81 l0 -3 -1 0 -1 0 0 2 1 3 -1 -2 -2 -2 1 -3 0 -2 1 -1 0 0 3 1
3 1 2 4 3 3 0 1 -1 0 -3 -3 -2 -4 -1 0 -1 0 2 3 1 3 -1 -2 -2 -1 0 2 1 2 -1 0
-1 0 0 -2z"/>
<path d="M920 83 l0 0 -1 -8 -2 -7 1 -1 0 -2 1 0 1 0 7 4 6 3 0 1 -1 0 -6 -4
-7 -3 0 4 0 4 2 4 1 4 0 0 0 1 -1 0 -1 0 0 0z"/>
</g>
</svg>
