<?xml version="1.0" standalone="no"?>
<!DOCTYPE svg PUBLIC "-//W3C//DTD SVG 20010904//EN"
 "http://www.w3.org/TR/2001/REC-SVG-20010904/DTD/svg10.dtd">
<svg version="1.0" xmlns="http://www.w3.org/2000/svg"
 width="370.994897pt" height="412.385321pt" viewBox="0 0 370.994897 412.385321"
 preserveAspectRatio="xMidYMid meet">
<metadata>
Created by potrace 1.16, written by Peter Selinger 2001-2019
</metadata>
<g transform="translate(-69.875952,465.549016) scale(0.100000,-0.100000)"
fill="#000000" stroke="none">
<path d="M2550 4639 c-16 -29 -5 -56 15 -39 17 14 20 46 6 55 -6 3 -15 -4 -21
-16z"/>
<path d="M2594 4486 c-4 -10 -2 -22 4 -28 8 -8 13 -7 18 6 4 10 2 22 -4 28 -8
8 -13 7 -18 -6z"/>
<path d="M2534 4368 c-9 -18 -33 -55 -54 -83 -57 -75 -78 -190 -48 -262 6 -15
12 -31 12 -35 1 -5 4 -8 9 -8 6 0 9 5 6 13 -26 83 2 218 66 314 48 71 51 78
35 88 -5 3 -17 -9 -26 -27z"/>
<path d="M2588 4255 c-3 -4 9 -29 28 -57 45 -66 48 -112 14 -199 -18 -46 -18
-47 0 -64 19 -18 34 -7 24 18 -3 8 1 28 10 44 41 81 -25 308 -76 258z"/>
<path d="M2686 4242 c-3 -5 2 -20 12 -33 24 -29 36 -11 13 20 -11 14 -21 19
-25 13z"/>
<path d="M2526 4218 c-15 -21 -12 -43 4 -33 25 15 64 -83 49 -123 -10 -26 3
-54 16 -33 21 35 14 105 -16 157 -35 62 -33 61 -53 32z"/>
<path d="M2497 4064 c-4 -4 -3 -12 0 -17 4 -6 8 -21 9 -34 3 -24 76 -166 102
-195 32 -38 29 -4 -5 60 -61 113 -92 172 -91 178 0 10 -9 14 -15 8z"/>
<path d="M2374 3995 c-4 -10 6 -48 25 -94 32 -75 50 -122 58 -150 3 -11 6 -12
16 -2 9 9 7 24 -10 69 -73 197 -78 206 -89 177z"/>
<path d="M2701 3911 c-26 -50 -18 -56 30 -24 46 30 45 27 14 47 -24 16 -25 16
-44 -23z"/>
<path d="M2498 3875 c-3 -3 5 -25 17 -49 12 -24 25 -54 28 -66 6 -24 27 -19
27 6 0 30 -60 120 -72 109z"/>
<path d="M2737 3822 c-9 -10 -23 -34 -32 -55 l-15 -37 41 -52 c23 -29 46 -64
51 -78 9 -24 10 -24 24 -6 18 25 18 107 0 132 -16 21 -26 8 -23 -31 3 -33 -17
-27 -38 10 l-20 35 23 42 c24 44 17 71 -11 40z"/>
<path d="M2355 3818 c-4 -9 1 -28 10 -42 30 -45 -23 -147 -60 -116 -16 13 -18
9 -15 -30 3 -44 15 -42 58 9 66 79 76 131 33 175 -18 17 -21 18 -26 4z"/>
<path d="M2445 3720 c-3 -5 -3 -10 0 -10 9 0 -29 -54 -82 -116 -53 -63 -97
-156 -99 -211 -1 -22 -5 -46 -8 -51 -3 -6 -2 -13 4 -17 5 -3 11 -4 11 -1 3 11
6 21 11 36 3 8 11 41 18 72 8 42 24 74 58 119 67 87 103 142 97 147 -3 3 0 11
6 18 6 8 6 14 0 18 -5 4 -12 2 -16 -4z"/>
<path d="M2555 3719 c-4 -6 -3 -15 3 -21 6 -6 8 -16 6 -23 -8 -21 45 -116 93
-168 86 -93 96 -138 78 -382 -14 -199 50 -311 223 -387 l44 -20 -21 -22 c-12
-12 -21 -26 -21 -32 0 -5 -7 -21 -14 -36 -8 -15 -11 -30 -6 -33 9 -5 22 10 63
75 91 143 357 79 527 -125 27 -32 -147 -189 -243 -221 -29 -9 -55 -20 -60 -23
-4 -4 -44 -3 -90 1 -99 10 -152 4 -192 -22 -17 -11 -45 -30 -64 -42 -71 -45
-96 -159 -68 -305 15 -76 31 -85 35 -19 2 29 11 61 23 78 l21 28 43 -48 c64
-71 279 -165 300 -131 44 70 -7 284 -87 366 -45 46 -37 63 31 63 16 0 32 4 36
10 3 5 12 7 20 4 33 -13 167 67 258 155 l89 86 -89 85 c-156 150 -269 192
-413 154 l-72 -18 -64 33 c-143 74 -192 171 -179 351 19 242 9 289 -85 395
-51 58 -107 157 -102 182 3 16 -15 26 -23 12z"/>
<path d="M2647 3693 c-7 -11 9 -35 86 -131 32 -40 72 -102 89 -138 20 -43 34
-62 40 -56 7 7 1 30 -16 67 -14 32 -26 63 -26 71 0 32 -20 66 -33 55 -13 -10
-64 42 -121 123 -7 10 -16 15 -19 9z"/>
<path d="M2874 3606 c-6 -17 55 -128 93 -167 l24 -26 -46 -27 c-39 -24 -53
-43 -35 -49 10 -3 110 63 110 73 0 5 -16 28 -36 50 -20 22 -49 67 -65 100 -29
63 -36 69 -45 46z"/>
<path d="M2524 3586 c-8 -20 26 -92 70 -149 84 -110 81 -193 -11 -324 -57 -81
-42 -87 25 -10 103 121 105 263 5 378 -17 18 -40 53 -52 77 -23 45 -29 50 -37
28z"/>
<path d="M2202 3543 c-17 -26 -44 -68 -61 -92 -38 -54 -37 -60 17 -82 52 -23
64 -8 16 20 l-36 22 25 32 c61 80 89 129 80 138 -6 6 -21 -8 -41 -38z"/>
<path d="M2417 3540 c-36 -39 -83 -120 -71 -120 4 0 1 -6 -5 -14 -8 -9 -8 -16
-2 -20 5 -4 12 -2 16 4 3 5 4 10 0 10 -8 0 42 78 81 127 44 54 27 65 -19 13z"/>
<path d="M1697 3474 c-3 -3 7 -27 23 -54 16 -27 26 -51 23 -54 -3 -3 -3 -13 1
-22 5 -13 10 -14 18 -6 6 6 7 18 3 29 -17 38 -4 73 20 53 9 -7 15 -7 19 -1 4
5 2 12 -4 16 -5 3 -10 3 -10 -1 0 -3 -7 -1 -15 6 -8 7 -15 9 -15 6 0 -4 -13 2
-29 13 -15 11 -31 18 -34 15z"/>
<path d="M2476 3444 c-75 -114 -73 -261 5 -345 34 -37 58 -30 31 9 -67 98 -75
192 -24 291 40 75 30 108 -12 45z"/>
<path d="M3397 3444 c-31 -17 -32 -23 -14 -48 13 -17 15 -16 35 17 24 42 18
51 -21 31z"/>
<path d="M1955 3410 c-7 -12 20 -25 33 -16 12 7 43 -27 46 -50 2 -12 15 -21
37 -26 41 -8 63 7 28 21 -13 5 -35 23 -47 41 -14 18 -29 29 -38 26 -7 -3 -16
-1 -19 4 -8 13 -32 13 -40 0z"/>
<path d="M3107 3404 c-15 -8 -25 -19 -22 -23 6 -11 70 10 73 24 5 16 -21 16
-51 -1z"/>
<path d="M3195 3410 c-3 -5 0 -13 9 -16 21 -8 61 -1 61 11 0 14 -62 19 -70 5z"/>
<path d="M1835 3350 c-4 -6 -4 -14 -1 -17 3 -3 0 -13 -6 -20 -13 -16 -24 -182
-14 -209 14 -36 24 4 28 106 2 58 8 111 12 118 5 8 4 18 -2 24 -6 6 -12 6 -17
-2z"/>
<path d="M1945 3350 c-8 -12 20 -24 35 -15 6 3 8 11 5 16 -8 12 -32 12 -40 -1z"/>
<path d="M3112 3348 c-7 -7 -17 -13 -22 -13 -6 0 -10 -3 -10 -7 0 -7 5 -10 13
-7 1 0 22 3 47 5 58 6 73 11 65 24 -9 14 -79 12 -93 -2z"/>
<path d="M3296 3353 c-4 -5 -16 -8 -27 -8 -10 0 -19 -4 -19 -10 0 -13 59 -16
66 -3 8 13 -10 31 -20 21z"/>
<path d="M2854 3327 c-7 -20 0 -67 11 -70 13 -3 18 70 6 78 -6 3 -14 0 -17 -8z"/>
<path d="M3015 3320 c-3 -6 -10 -8 -15 -5 -14 8 -72 -24 -65 -36 4 -5 10 -7
14 -4 14 8 66 28 76 29 6 1 11 5 13 11 5 14 -15 18 -23 5z"/>
<path d="M1746 3303 c-10 -10 -7 -171 3 -177 5 -3 7 -14 4 -24 -5 -19 21 -49
30 -35 3 4 0 19 -5 33 -6 14 -9 64 -8 112 1 78 -7 108 -24 91z"/>
<path d="M1919 3277 c-25 -13 -57 -131 -38 -143 11 -6 25 23 33 71 4 22 17 47
28 56 26 20 10 32 -23 16z"/>
<path d="M1985 3271 c-7 -12 12 -24 25 -16 11 7 4 25 -10 25 -5 0 -11 -4 -15
-9z"/>
<path d="M2264 3265 c-4 -8 -1 -35 5 -60 15 -60 14 -68 -10 -99 l-20 -26 -47
48 c-49 51 -200 108 -223 85 -33 -33 -18 -154 25 -207 34 -41 51 -24 20 21
-49 72 -48 160 1 154 88 -10 172 -65 196 -128 11 -31 24 -29 50 7 17 23 26 27
36 19 23 -19 27 17 9 86 -9 35 -16 73 -16 84 0 26 -18 37 -26 16z"/>
<path d="M3096 3272 c-3 -5 -17 -7 -31 -4 -30 5 -82 -25 -68 -39 6 -6 19 -6
34 0 42 17 64 24 74 25 6 1 11 5 13 11 5 13 -15 19 -22 7z"/>
<path d="M3186 3272 c-3 -6 1 -15 8 -21 8 -7 17 -8 20 -3 3 6 -1 15 -8 21 -8
7 -17 8 -20 3z"/>
<path d="M2085 3260 c-9 -15 3 -26 37 -34 30 -7 45 6 25 22 -21 17 -55 23 -62
12z"/>
<path d="M3356 3238 c-8 -23 -1 -83 9 -86 13 -3 17 86 4 93 -5 4 -11 0 -13 -7z"/>
<path d="M2337 3234 c-4 -4 -3 -12 0 -17 4 -6 8 -20 9 -32 4 -36 24 -76 34
-70 14 9 13 20 -7 63 -9 20 -17 40 -17 44 -2 11 -12 18 -19 12z"/>
<path d="M2844 3227 c-3 -9 -3 -20 0 -26 4 -5 2 -12 -3 -15 -9 -6 -25 -76 -21
-93 1 -5 7 -7 15 -5 7 1 24 -12 38 -29 l24 -31 23 36 c41 68 197 145 228 114
11 -11 27 6 18 20 -23 37 -167 -8 -227 -70 l-46 -48 -20 23 c-19 22 -23 64 -8
100 4 10 3 23 -3 29 -8 8 -13 7 -18 -5z"/>
<path d="M3288 3233 c-9 -18 -2 -133 7 -133 11 0 14 129 3 136 -4 2 -8 1 -10
-3z"/>
<path d="M3344 3116 c-8 -21 3 -49 16 -41 5 3 10 15 10 25 0 25 -18 36 -26 16z"/>
<path d="M3003 3097 c-29 -31 -36 -62 -19 -76 17 -14 61 3 51 20 -4 5 -10 7
-15 4 -19 -12 -19 14 0 38 25 32 10 44 -17 14z"/>
<path d="M3147 3113 c-3 -5 -8 -22 -11 -39 -17 -77 -135 -132 -206 -94 -15 8
-25 9 -32 2 -13 -13 60 -52 97 -52 68 0 157 76 171 147 5 28 -8 54 -19 36z"/>
<path d="M1884 3096 c-3 -8 -2 -21 2 -28 4 -7 9 -23 10 -35 4 -33 40 -88 76
-117 36 -28 33 -53 -9 -58 -41 -5 -31 -22 19 -31 50 -8 77 -2 60 15 -8 8 -7
16 1 29 9 15 4 24 -36 59 -52 46 -103 125 -99 152 4 21 -16 34 -24 14z"/>
<path d="M3212 3089 c-5 -13 -15 -42 -23 -64 -8 -23 -36 -61 -68 -91 -33 -32
-49 -54 -42 -58 6 -4 9 -12 6 -17 -9 -14 -36 -11 -56 7 -16 14 -18 14 -29 -5
-18 -34 22 -46 118 -35 44 5 86 7 93 3 8 -4 39 -14 69 -23 33 -9 85 -37 130
-70 41 -30 78 -52 83 -49 36 22 -222 174 -273 160 -11 -3 -23 -1 -26 4 -3 5
-18 9 -34 9 -44 0 -44 14 0 72 47 62 86 156 71 171 -7 7 -13 2 -19 -14z"/>
<path d="M2654 3071 c-38 -23 -86 -80 -78 -92 3 -5 18 3 32 18 15 16 42 40 61
54 41 30 28 46 -15 20z"/>
<path d="M2436 3062 c-3 -5 8 -21 23 -36 16 -15 31 -23 35 -18 3 5 -8 21 -23
36 -16 15 -31 23 -35 18z"/>
<path d="M2298 3045 c-3 -23 -5 -31 -13 -50 -42 -101 -146 -171 -157 -105 -5
35 -23 23 -29 -20 -7 -52 1 -56 59 -35 79 30 174 136 147 163 -3 3 0 11 7 19
8 10 8 17 0 25 -7 7 -13 8 -14 3z"/>
<path d="M1793 3000 c-28 -12 -57 -55 -49 -76 8 -20 26 -8 26 17 0 13 12 25
35 35 20 8 33 19 30 24 -7 12 -13 12 -42 0z"/>
<path d="M2815 3000 c-18 -29 98 -172 126 -155 4 3 10 1 14 -5 4 -6 11 -8 16
-4 5 3 7 10 3 15 -3 5 -9 7 -13 5 -15 -10 -82 57 -107 105 -26 52 -29 55 -39
39z"/>
<path d="M3318 2994 c-4 -3 0 -17 8 -32 11 -23 11 -29 -2 -43 -11 -12 -12 -19
-4 -24 13 -8 30 5 33 26 2 8 6 19 9 25 13 20 -28 64 -44 48z"/>
<path d="M2349 2946 c-54 -116 -163 -193 -257 -182 -123 14 -193 18 -209 10
-10 -4 -21 -8 -25 -9 -5 -2 -10 -4 -13 -5 -3 -1 -9 -4 -15 -5 -5 -1 -11 -3
-12 -5 -2 -1 -11 -3 -20 -5 -30 -6 -138 -89 -245 -188 -144 -134 -221 -150
-348 -77 -111 64 -236 102 -150 46 252 -165 340 -157 557 50 91 87 180 155
211 160 4 1 9 3 12 4 3 1 10 4 15 5 6 1 13 3 18 5 19 5 131 -2 163 -11 35 -9
109 -76 109 -99 0 -5 14 -25 30 -44 28 -32 29 -35 13 -44 -10 -6 -31 -36 -48
-68 -31 -60 -71 -90 -138 -103 -81 -17 -17 -30 78 -16 143 21 271 -100 284
-268 7 -85 22 -102 33 -36 21 121 -79 281 -199 319 -21 7 -41 16 -46 19 -11
11 37 113 67 140 l26 25 -24 25 c-13 14 -40 50 -60 79 l-35 53 52 23 c103 46
163 105 201 198 23 54 1 58 -25 4z"/>
<path d="M1642 2896 c-40 -28 -49 -31 -112 -28 -82 3 -93 -8 -50 -48 67 -63
153 -66 215 -9 l45 41 -18 30 c-27 46 -34 47 -80 14z"/>
<path d="M3396 2886 l-36 -44 54 -36 c80 -53 135 -51 187 5 44 48 42 61 -10
59 -82 -4 -99 0 -129 30 l-30 30 -36 -44z"/>
<path d="M2495 2871 c-209 -54 -284 -347 -131 -509 169 -180 476 -42 476 214
0 183 -181 338 -345 295z"/>
<path d="M1711 2775 c-40 -25 -116 -86 -169 -136 -53 -50 -113 -99 -134 -110
-21 -11 -36 -24 -33 -29 14 -23 72 16 206 139 63 57 137 117 166 133 29 17 50
34 47 39 -7 12 -1 15 -83 -36z"/>
<path d="M1357 2784 c-10 -10 2 -24 21 -24 9 0 45 -13 79 -29 69 -33 91 -27
40 11 -49 37 -123 59 -140 42z"/>
<path d="M3755 2781 c-7 -13 17 -24 40 -19 9 1 16 8 16 13 0 14 -48 19 -56 6z"/>
<path d="M3695 2768 c-11 -7 -26 -13 -33 -14 -21 -4 -83 -55 -77 -64 3 -5 27
5 53 23 25 17 53 32 60 33 28 5 43 14 37 24 -8 13 -15 12 -40 -2z"/>
<path d="M3846 2771 c-10 -16 20 -33 33 -18 6 8 8 17 4 20 -9 10 -31 9 -37 -2z"/>
<path d="M1325 2720 c-6 -10 14 -23 31 -19 12 3 44 -11 76 -33 27 -19 54 -17
42 3 -9 15 -84 50 -94 44 -5 -3 -11 -1 -15 5 -8 13 -32 13 -40 0z"/>
<path d="M3776 2721 c-4 -6 -13 -8 -21 -5 -15 6 -45 -8 -93 -43 -45 -34 -30
-48 19 -17 47 29 87 46 111 48 10 1 18 6 18 11 1 14 -27 19 -34 6z"/>
<path d="M3845 2721 c-7 -12 12 -24 25 -16 11 7 4 25 -10 25 -5 0 -11 -4 -15
-9z"/>
<path d="M1140 2679 c-91 -49 -114 -69 -100 -83 6 -6 17 -3 32 11 13 11 53 37
91 58 37 20 65 41 61 46 -7 11 2 15 -84 -32z"/>
<path d="M3895 2710 c-3 -5 -4 -11 -1 -11 3 -1 9 -2 14 -3 4 -1 35 -20 69 -44
34 -23 73 -46 87 -52 33 -12 44 5 14 21 -13 6 -46 27 -74 46 -28 19 -57 35
-65 36 -8 2 -19 6 -26 10 -6 4 -14 3 -18 -3z"/>
<path d="M1858 2690 c-63 -19 -235 -147 -219 -163 6 -6 23 1 44 17 l35 27 50
-50 c105 -105 213 -121 294 -44 119 114 -27 266 -204 213z"/>
<path d="M3090 2686 c-99 -36 -106 -191 -10 -238 79 -40 159 -16 245 71 56 58
63 60 102 27 l28 -24 -33 -19 c-18 -10 -55 -34 -82 -55 -141 -104 -298 -91
-360 32 -26 52 -70 96 -83 84 -3 -3 16 -38 43 -77 55 -83 55 -80 -9 -102 -46
-15 -108 -65 -95 -78 3 -3 23 5 43 18 67 45 115 56 162 40 106 -38 250 -5 348
79 103 87 103 87 24 145 -141 105 -228 131 -323 97z"/>
<path d="M1205 2642 c-77 -37 -97 -59 -71 -78 21 -15 38 -10 30 10 -6 17 15
34 69 54 41 16 59 33 40 39 -4 2 -35 -10 -68 -25z"/>
<path d="M3775 2659 c-37 -10 -90 -63 -80 -79 5 -8 18 -1 40 20 35 34 64 34
43 1 -28 -45 27 -69 73 -32 l23 18 -28 18 c-42 28 -16 41 35 17 91 -41 92 -46
19 -81 -76 -36 -126 -39 -189 -10 -28 12 -48 16 -54 10 -15 -15 97 -61 150
-61 46 0 139 38 192 79 l24 18 -85 47 c-86 46 -108 51 -163 35z"/>
<path d="M1356 2651 c-4 -5 7 -19 23 -30 16 -12 32 -17 35 -12 4 5 -7 19 -23
30 -16 12 -32 17 -35 12z"/>
<path d="M4135 2641 c-7 -12 12 -24 25 -16 11 7 4 25 -10 25 -5 0 -11 -4 -15
-9z"/>
<path d="M826 2612 c-4 -4 -12 -8 -17 -8 -5 -1 -10 -2 -11 -3 -2 -1 -18 -4
-36 -7 -102 -13 -75 -50 43 -59 6 0 16 -4 23 -8 6 -5 17 -5 22 -2 13 8 2 26
-13 23 -18 -3 -58 22 -52 33 4 5 10 7 15 4 5 -3 11 -1 15 5 4 6 10 8 15 5 5
-3 11 -1 14 4 8 12 -9 23 -18 13z"/>
<path d="M1346 2602 c-3 -6 -2 -14 4 -17 8 -5 8 -11 0 -20 -17 -21 9 -31 28
-11 15 15 15 18 -5 37 -12 13 -23 17 -27 11z"/>
<path d="M4145 2591 c-10 -9 19 -31 41 -31 27 0 40 15 22 26 -14 9 -57 12 -63
5z"/>
<path d="M4339 2594 c-1 -2 -2 -7 -3 -11 -1 -5 -5 -14 -9 -20 -5 -7 -5 -13 0
-14 43 -6 106 24 72 35 -29 9 -59 14 -60 10z"/>
<path d="M965 2570 c-8 -12 20 -24 35 -15 6 3 8 11 5 16 -8 12 -32 12 -40 -1z"/>
<path d="M1185 2550 c-14 -22 120 -79 139 -60 6 6 2 12 -10 16 -10 4 -43 17
-71 30 -29 12 -55 19 -58 14z"/>
<path d="M4285 2550 c-4 -6 -10 -8 -15 -5 -5 3 -11 1 -14 -4 -4 -5 -2 -12 3
-15 5 -4 12 -2 16 4 4 6 10 8 15 5 5 -3 11 -1 14 4 4 5 2 12 -3 15 -5 4 -12 2
-16 -4z"/>
<path d="M905 2531 c-7 -12 12 -24 25 -16 11 7 4 25 -10 25 -5 0 -11 -4 -15
-9z"/>
<path d="M3994 2505 c-124 -71 -238 -85 -325 -39 -30 15 -45 8 -27 -13 38 -46
148 -57 245 -24 75 25 186 89 178 102 -8 11 0 14 -71 -26z"/>
<path d="M1695 2490 c-17 -28 158 -145 207 -138 36 5 23 21 -27 34 -34 8 -61
25 -99 63 -52 51 -69 60 -81 41z"/>
<path d="M1517 2434 c-21 -14 -35 -29 -32 -34 6 -9 68 28 74 43 6 18 -7 15
-42 -9z"/>
<path d="M1685 2401 c-13 -23 117 -108 175 -114 16 -2 33 -7 37 -10 3 -4 28
-7 55 -7 67 0 70 -18 13 -74 -62 -62 -111 -165 -86 -181 9 -5 41 48 41 68 0
14 59 88 97 123 57 50 29 93 -59 92 -35 0 -76 5 -93 11 -75 28 -91 37 -131 68
-24 18 -46 28 -49 24z"/>
<path d="M1518 2357 c-79 -41 -77 -49 13 -68 40 -9 81 -19 90 -23 10 -4 20 -3
23 3 8 12 -44 41 -72 41 -26 0 -34 11 -21 27 18 21 53 15 97 -17 49 -35 64
-23 25 20 -46 50 -83 54 -155 17z"/>
<path d="M1375 2371 c-7 -12 12 -24 25 -16 11 7 4 25 -10 25 -5 0 -11 -4 -15
-9z"/>
<path d="M3496 2365 c-46 -16 -120 -85 -107 -98 6 -6 28 6 57 32 35 30 55 41
80 41 48 0 51 -18 7 -36 -21 -9 -44 -21 -50 -26 -20 -16 -4 -29 18 -17 12 6
50 16 85 22 82 16 83 23 9 63 -57 31 -62 32 -99 19z"/>
<path d="M3735 2361 c-7 -12 12 -24 25 -16 11 7 4 25 -10 25 -5 0 -11 -4 -15
-9z"/>
<path d="M2105 2290 c-3 -5 18 -20 47 -33 74 -35 122 -81 114 -111 -8 -31 29
-69 40 -42 27 70 -164 246 -201 186z"/>
<path d="M2770 2240 c-11 -22 -18 -40 -15 -40 3 0 -2 -11 -11 -25 -9 -14 -14
-36 -12 -50 3 -14 1 -28 -3 -31 -12 -7 -11 -61 1 -69 5 -3 7 -12 4 -20 -3 -8
-2 -19 2 -26 9 -16 5 -140 -6 -180 -5 -17 -36 -68 -68 -113 -72 -99 -117 -185
-104 -198 6 -6 20 14 39 54 17 35 52 88 78 118 85 95 129 251 87 303 -7 7 -9
17 -6 20 4 3 3 14 -1 24 -9 22 -10 82 -1 103 3 8 7 29 9 45 2 17 13 49 25 72
13 24 18 44 12 48 -5 3 -18 -12 -30 -35z"/>
<path d="M2536 2198 c-15 -38 -11 -54 10 -37 11 9 18 8 33 -5 30 -27 33 -3 5
37 -30 45 -31 45 -48 5z"/>
<path d="M3245 2220 c-4 -6 -3 -16 3 -22 6 -6 12 -6 17 2 4 6 3 16 -3 22 -6 6
-12 6 -17 -2z"/>
<path d="M2000 2130 c-69 -74 -80 -206 -17 -204 78 3 185 104 175 167 -5 30
-22 24 -29 -10 -12 -62 -116 -148 -151 -127 -25 16 3 114 41 149 l23 19 18
-24 c26 -34 40 -2 16 35 -22 33 -42 32 -76 -5z"/>
<path d="M2519 2063 c-30 -28 -58 -51 -64 -51 -68 4 -46 -221 28 -290 38 -36
39 -13 2 48 -19 31 -35 70 -35 90 -5 89 -2 97 56 159 l56 61 28 -20 c29 -21
80 -111 80 -141 0 -23 19 -34 26 -16 12 33 -18 101 -71 156 l-52 55 -54 -51z"/>
<path d="M1751 2066 c-17 -20 -25 -73 -12 -80 6 -4 13 -1 15 6 1 7 8 28 14 45
11 35 2 52 -17 29z"/>
<path d="M3339 2075 c-6 -5 5 -79 17 -114 10 -31 26 7 19 47 -7 42 -26 77 -36
67z"/>
<path d="M2195 2032 c-53 -68 -128 -127 -193 -150 -61 -23 -80 -36 -64 -46 29
-18 235 107 274 166 l15 23 22 -35 c16 -27 21 -51 21 -105 0 -113 30 -189 110
-286 26 -32 65 -85 85 -118 21 -33 41 -58 46 -55 16 9 -31 89 -131 219 -63 84
-84 154 -77 262 l5 85 -39 39 c-47 47 -39 47 -74 1z"/>
<path d="M1806 2052 c-47 -76 12 -316 74 -303 37 7 41 24 8 31 -41 10 -63 72
-63 177 0 87 -6 116 -19 95z"/>
<path d="M3285 2030 c-4 -6 -3 -16 3 -22 6 -6 12 -6 17 2 4 6 3 16 -3 22 -6 6
-12 6 -17 -2z"/>
<path d="M2355 1990 c-4 -6 -3 -16 3 -22 6 -6 12 -6 17 2 4 6 3 16 -3 22 -6 6
-12 6 -17 -2z"/>
<path d="M3295 1980 c-4 -6 -3 -16 3 -22 6 -6 12 -6 17 2 4 6 3 16 -3 22 -6 6
-12 6 -17 -2z"/>
<path d="M1725 1928 c-9 -24 -1 -103 10 -103 14 0 19 95 6 108 -7 7 -12 5 -16
-5z"/>
<path d="M2344 1916 c-4 -10 -2 -22 4 -28 8 -8 13 -7 18 6 4 10 2 22 -4 28 -8
8 -13 7 -18 -6z"/>
<path d="M3294 1916 c-8 -21 3 -49 16 -41 5 3 10 15 10 25 0 25 -18 36 -26 16z"/>
<path d="M2184 1906 c-4 -10 -2 -22 4 -28 8 -8 13 -7 18 6 4 10 2 22 -4 28 -8
8 -13 7 -18 -6z"/>
<path d="M2552 1913 c-35 -14 -33 -93 3 -93 26 0 47 44 36 74 -11 26 -15 29
-39 19z"/>
<path d="M2915 1910 c-4 -6 -3 -16 3 -22 6 -6 12 -6 17 2 4 6 3 16 -3 22 -6 6
-12 6 -17 -2z"/>
<path d="M2117 1844 c-30 -16 -29 -35 3 -27 23 6 44 29 33 36 -4 3 -21 -1 -36
-9z"/>
<path d="M2675 1844 c-15 -44 -25 -62 -74 -122 -28 -35 -59 -78 -67 -94 -9
-17 -19 -26 -23 -22 -4 5 -36 53 -71 106 -35 53 -67 95 -72 92 -11 -7 7 -47
49 -111 113 -167 105 -161 133 -101 11 24 45 74 74 111 60 74 85 132 67 150
-7 7 -12 5 -16 -9z"/>
<path d="M2817 1844 c-4 -4 -7 -15 -7 -25 0 -56 -45 -152 -99 -212 -87 -96
-112 -128 -106 -138 20 -31 207 223 226 306 12 52 4 87 -14 69z"/>
<path d="M2975 1840 c-10 -16 63 -46 77 -32 9 9 7 13 -8 17 -10 4 -27 11 -36
16 -22 11 -25 11 -33 -1z"/>
<path d="M3271 1827 c-14 -36 -40 -47 -86 -37 -21 5 -42 7 -46 4 -4 -2 -10 0
-14 6 -4 6 -11 8 -16 4 -5 -3 -7 -10 -3 -15 3 -5 9 -7 14 -4 5 3 14 -3 19 -14
9 -16 16 -18 47 -11 21 5 47 4 61 -1 19 -7 25 -5 29 9 3 9 10 28 15 41 7 16 6
28 0 34 -7 7 -13 2 -20 -16z"/>
<path d="M1977 1792 c-19 -9 -27 -19 -22 -29 3 -9 -3 -26 -15 -38 -14 -15 -18
-25 -11 -30 16 -9 24 -2 59 54 34 55 32 65 -11 43z"/>
<path d="M2194 1789 c-16 -10 -36 -19 -45 -19 -9 0 -27 -8 -39 -18 l-23 -19
30 -44 c17 -24 43 -55 58 -69 14 -13 36 -40 47 -58 13 -22 24 -30 30 -24 13
13 -13 54 -75 119 -51 53 -58 83 -17 83 24 0 87 54 74 63 -6 3 -23 -3 -40 -14z"/>
<path d="M2905 1791 c-6 -11 41 -51 61 -51 30 0 23 -23 -24 -78 -66 -78 -86
-112 -74 -124 7 -7 15 -1 26 18 8 16 42 60 75 98 75 85 75 94 9 111 -15 4 -32
13 -39 21 -13 16 -25 18 -34 5z"/>
<path d="M3356 1751 c-4 -5 -2 -12 4 -16 6 -4 8 -10 5 -15 -3 -5 -1 -11 4 -14
5 -4 12 -2 15 3 4 5 2 12 -4 16 -6 4 -8 10 -5 15 3 5 1 11 -4 14 -5 4 -12 2
-15 -3z"/>
<path d="M2237 1724 c-10 -11 23 -88 59 -133 28 -36 34 -51 28 -71 -11 -36 -9
-65 9 -149 23 -109 34 -113 86 -35 48 70 41 91 -70 225 -22 26 -52 74 -69 108
-32 63 -33 65 -43 55z"/>
<path d="M3167 1723 c-12 -11 14 -33 39 -33 23 0 41 15 27 23 -17 10 -60 16
-66 10z"/>
<path d="M1732 1678 c-11 -18 -18 -36 -16 -40 9 -14 51 22 49 42 -2 33 -12 32
-33 -2z"/>
<path d="M3306 1691 c-4 -5 -2 -12 4 -16 5 -3 10 -4 10 0 0 3 18 -6 40 -20 23
-14 45 -23 50 -20 15 9 -7 44 -28 44 -22 0 -44 5 -59 14 -6 4 -14 3 -17 -2z"/>
<path d="M2824 1638 c-9 -18 -43 -61 -75 -95 -64 -67 -67 -77 -45 -159 28
-105 66 -127 80 -46 4 20 14 58 22 83 12 36 12 56 4 93 -9 41 -8 51 8 74 33
46 43 70 32 77 -5 3 -17 -9 -26 -27z"/>
<path d="M2659 1325 c-7 -59 91 -252 107 -211 4 9 -14 56 -41 109 -48 94 -64
119 -66 102z"/>
<path d="M2598 1315 c-3 -3 6 -41 20 -83 47 -143 21 -315 -48 -317 -8 -1 -14
-7 -12 -15 20 -91 122 65 122 185 0 65 -65 247 -82 230z"/>
<path d="M2427 1242 c-24 -27 -60 -120 -53 -137 7 -20 26 -10 26 13 0 9 13 43
29 74 29 57 28 84 -2 50z"/>
<path d="M2535 1250 c-4 -6 1 -23 10 -37 10 -14 19 -49 22 -77 7 -82 9 -91 24
-91 23 0 13 98 -15 161 -26 56 -30 61 -41 44z"/>
<path d="M2486 1202 c-14 -13 -36 -74 -31 -82 3 -5 1 -11 -5 -15 -33 -21 3
-174 64 -270 48 -75 64 -61 20 17 -73 129 -83 248 -28 340 6 10 -12 19 -20 10z"/>
<path d="M2516 1103 c-10 -10 -7 -61 4 -68 6 -4 8 -10 5 -15 -7 -11 23 -60 36
-60 12 0 40 56 32 64 -3 3 -12 1 -20 -6 -21 -17 -38 6 -35 46 3 33 -8 53 -22
39z"/>
<path d="M2704 986 c-4 -9 -4 -20 0 -23 3 -4 -1 -14 -10 -24 -9 -10 -11 -20
-6 -23 9 -5 30 12 31 24 0 3 3 13 7 23 4 10 2 23 -4 29 -8 8 -13 7 -18 -6z"/>
<path d="M2392 958 c-11 -14 9 -78 26 -78 17 0 20 12 10 43 -14 42 -23 51 -36
35z"/>
<path d="M2614 834 c-4 -10 -9 -22 -11 -26 -2 -4 1 -9 6 -13 15 -9 35 35 22
48 -7 7 -12 5 -17 -9z"/>
<path d="M2496 762 c-3 -5 7 -56 24 -113 38 -132 53 -149 62 -69 2 26 -1 35
-12 35 -10 0 -20 22 -32 69 -17 70 -31 96 -42 78z"/>
</g>
</svg>
