<?xml version="1.0" standalone="no"?>
<!DOCTYPE svg PUBLIC "-//W3C//DTD SVG 20010904//EN"
 "http://www.w3.org/TR/2001/REC-SVG-20010904/DTD/svg10.dtd">
<svg style="fill: black; stroke: black;" version="1.0" xmlns="http://www.w3.org/2000/svg"
 width="418.250000pt" height="825.977091pt" viewBox="0 0 418.250000 825.977091"
 preserveAspectRatio="xMidYMid meet">
<metadata>
Created by potrace 1.16, written by Peter Selinger 2001-2019
</metadata>
<g transform="translate(-283.750000,950.000000) scale(1.000000,-1.000000)"
fill="#000000" data-original="#000000" stroke="none">
<path d="M485 948 l-2 -1 -1 -3 0 -2 -3 -10 -2 -9 0 -6 0 -5 2 -3 1 -4 0 -5 0
-6 2 -4 1 -4 3 -4 2 -3 0 -3 1 -2 0 0 1 0 1 -3 2 -3 0 -4 1 -4 3 -9 3 -8 1 -9
1 -8 -1 -2 -1 -1 -2 -8 -2 -7 -1 -6 0 -5 -2 -3 -1 -4 -2 -8 -2 -8 -4 -8 -3 -7
-2 0 -1 -1 0 -2 0 -2 -1 -3 -2 -2 0 -4 0 -4 -2 -5 -1 -5 -1 0 -1 0 0 -1 1 0
-3 -7 -3 -6 -1 -5 0 -5 -1 -1 -1 0 1 -8 1 -7 0 -6 1 -6 1 -1 1 -2 -1 -6 0 -5
0 -11 0 -11 2 -9 3 -9 3 -7 4 -6 3 -4 4 -4 0 -2 0 -1 1 0 1 0 0 -3 1 -2 1 -1
1 -1 0 -4 1 -3 2 -6 2 -5 0 -3 -1 -3 1 0 1 0 0 -4 0 -3 1 -2 1 -1 2 -5 2 -5 0
-1 0 -1 2 -1 1 -2 0 -3 0 -2 1 -2 1 -2 0 -6 1 -6 1 -5 1 -4 1 -1 0 0 1 1 1 1
0 -2 1 -2 -2 1 -1 0 0 0 0 -1 1 -2 2 -1 -1 -1 0 -2 1 -6 1 -5 0 -2 1 -2 -1
-12 -1 -11 -2 -2 -1 -2 0 -3 0 -4 -1 1 -1 0 0 -3 0 -3 -2 -3 -2 -2 1 8 0 8 0
6 1 6 0 1 1 0 0 2 0 2 -1 -2 -1 -1 1 3 0 4 -1 3 -1 3 0 5 -1 6 -1 1 -1 2 0 3
-1 3 -1 2 -1 1 0 0 1 0 -2 2 -2 3 -1 1 -1 2 -4 6 -4 7 -1 0 -1 0 0 2 0 2 -2 2
-1 2 1 0 0 0 -1 1 -1 2 -1 5 -1 5 -1 3 0 3 0 6 -1 6 -3 6 -2 6 -6 3 -5 4 -4 3
-3 4 -1 1 -1 2 0 4 0 3 2 2 1 2 -1 2 -1 1 -4 -3 -3 -4 -1 -3 -1 -2 0 -3 0 -3
3 -7 4 -6 -1 -9 0 -9 -1 -4 -1 -4 -1 0 -1 0 0 -1 1 -1 -1 -1 0 -2 -1 1 -1 0 0
-1 1 -2 -3 -4 -2 -3 1 -10 1 -10 0 -1 -1 0 -1 4 -1 4 -2 3 -1 3 -3 3 -2 2 -2
4 -3 5 0 4 0 5 -1 1 0 1 0 6 0 5 1 1 1 2 0 6 1 6 1 4 1 5 3 7 3 7 1 6 1 6 0 5
1 6 -1 1 -1 1 0 2 -1 2 1 -1 2 -1 1 1 1 1 0 5 0 5 1 1 1 0 -2 10 -2 9 -1 1 0
1 -3 4 -2 5 -1 5 0 6 -2 2 -2 3 -3 1 -2 1 -3 2 -3 2 -2 6 -1 6 -2 3 -1 4 -1
-1 -1 0 -1 1 -1 2 -3 3 -3 4 -3 4 -3 4 1 6 0 7 -2 3 -1 3 -2 2 -2 2 -1 3 -1 4
-3 2 -2 2 -5 4 -4 5 -3 1 -2 1 -1 -1 -2 0 0 -3 0 -3 3 -2 4 -2 4 -4 4 -4 3
-14 2 -14 1 -4 1 -4 2 -4 2 -3 1 -3 0 -2 3 -4 3 -3 0 -3 1 -2 1 -4 1 -4 2 -4
3 -3 0 -4 1 -3 -1 0 -1 0 0 -1 0 0 0 -2 0 -2 -1 2 -2 2 0 -2 0 -1 2 -5 3 -5 0
-3 0 -3 0 -1 -1 -1 0 -4 0 -4 -2 -3 -2 -3 -1 0 -1 1 -3 -3 -3 -3 0 -5 -1 -6
-1 -5 -2 -6 -1 -6 0 -6 -1 -1 0 -1 -1 -5 0 -4 1 -1 1 -1 1 -4 0 -4 0 -3 0 -2
-3 -8 -3 -8 1 -6 1 -5 2 -7 2 -6 2 -5 2 -5 0 -1 1 -1 0 -1 1 0 0 -2 0 -2 3 -4
3 -4 3 -5 3 -6 1 0 1 0 1 1 0 1 1 -1 1 0 0 -2 0 -1 -1 1 -1 1 -1 0 0 -1 3 -3
3 -3 2 -4 2 -3 3 -3 2 -2 0 -2 0 -1 2 -2 2 -3 -1 -2 0 -2 2 -5 1 -5 1 0 1 0 0
-2 0 -1 2 -4 2 -3 3 -6 4 -5 0 -3 0 -2 2 -5 2 -6 1 -4 0 -5 -1 -1 -2 0 2 -3 1
-3 0 -7 0 -6 0 -1 1 0 0 -1 0 -1 -2 2 -3 2 0 1 0 1 -1 0 -1 0 -1 3 -1 3 -6 4
-5 3 -1 3 0 2 -4 -1 -3 0 -3 5 -4 5 -3 1 -3 1 -1 0 0 0 0 -1 0 -2 1 0 2 -1 0
-2 1 -2 -3 0 -3 0 -2 2 -3 2 0 1 0 2 -1 0 -2 1 0 2 0 2 1 1 1 1 0 5 1 5 -1 -3
-2 -3 1 -2 0 -1 -1 -1 0 -1 -1 1 -1 1 1 3 1 3 1 3 2 4 2 2 1 3 1 -1 1 -1 1 3
0 3 2 1 1 2 0 10 -1 11 -1 4 -2 5 -1 -1 -1 0 0 1 1 2 -3 4 -3 4 0 0 0 1 -3 3
-2 2 -1 0 -1 0 0 2 0 1 -2 0 -1 0 -1 1 0 2 -1 0 -1 -1 -5 6 -4 5 -2 3 -2 3 -2
0 -3 -1 -2 4 -2 4 -3 1 -2 1 -1 3 -2 3 0 3 0 4 -1 10 0 10 -2 3 -2 2 -2 0 -1
0 0 -3 0 -2 0 -4 0 -4 -2 -6 -2 -6 -1 -6 0 -5 1 -5 2 -4 1 -8 1 -7 0 -2 0 -1
2 -6 1 -5 4 -4 4 -4 4 -1 5 -1 1 -5 2 -4 0 -3 -1 -3 0 -2 0 -1 -3 2 -2 3 0 1
0 2 -4 3 -4 3 -2 2 -1 3 -5 4 -4 4 -3 0 -2 -1 -2 3 -2 2 -4 2 -4 3 -3 0 -3 1
1 -1 2 -2 -1 0 -1 0 -1 1 -2 2 -3 1 -4 1 -7 6 -7 6 0 0 -1 0 1 -3 1 -2 2 -6 2
-6 1 -2 1 -2 5 -6 5 -5 2 0 1 0 0 -1 0 -2 4 -6 4 -6 1 -4 0 -4 0 -4 0 -3 -2
-2 -2 -1 0 -7 0 -7 -1 -1 -1 -1 -3 0 -2 0 0 -3 0 -2 -1 -11 0 -11 2 -4 1 -4 3
-5 2 -5 6 -8 5 -8 0 -2 1 -2 1 0 1 0 0 -1 0 -2 5 -4 4 -4 4 -2 4 -1 1 -1 1 0
5 -1 6 -1 0 -1 0 -1 4 -3 4 -2 0 -2 0 -1 6 -6 6 -5 0 -2 0 -2 1 0 1 0 0 -2 1
-2 3 -2 4 -2 1 -1 1 -1 1 1 2 0 -1 -1 -1 0 3 -2 4 -2 3 -2 3 -2 0 0 0 1 -4 3
-4 3 1 0 1 0 2 -1 2 -1 3 -4 4 -3 2 -3 3 -3 1 -7 2 -7 2 -4 2 -4 3 -3 3 -3 0
-3 0 -2 1 0 1 -1 -1 -2 0 -2 1 0 1 0 0 2 0 3 0 0 0 1 3 0 4 0 2 0 2 0 0 2 0 2
1 -2 1 -1 0 1 1 1 -1 2 0 2 -1 0 -1 1 0 1 1 1 1 -2 0 -1 2 1 2 0 0 -1 -1 -1 1
0 1 -1 -2 -2 -2 -2 0 -1 0 -1 1 0 2 1 0 2 1 2 2 0 1 0 4 4 4 4 3 7 4 7 1 6 1
6 1 0 2 1 0 11 0 11 -2 4 -1 4 1 4 1 4 1 1 1 2 0 2 0 2 2 5 2 5 3 1 3 0 1 3 2
3 -1 1 -1 1 4 3 3 4 1 -1 1 0 5 5 4 4 0 2 0 2 3 3 3 4 0 2 1 2 2 1 3 0 1 2 2
3 -3 -1 -2 0 0 1 0 1 1 0 1 1 3 3 3 4 0 -1 1 0 2 3 3 4 0 1 0 1 1 0 1 0 1 3 1
3 2 0 1 1 0 2 -1 2 1 0 1 0 -1 -1 0 -1 1 1 2 1 3 6 3 6 2 2 1 2 1 -1 1 0 0 1
0 2 1 2 1 3 1 0 1 0 0 -1 -1 -1 1 0 1 0 0 2 0 1 -1 0 -1 0 1 1 0 1 1 -1 1 0 0
3 0 3 -1 0 -1 -1 0 1 0 1 2 1 2 1 0 2 0 2 2 1 1 1 0 3 0 2 1 1 0 2 1 -1 1 0
-1 2 0 1 1 0 1 -1 0 1 -1 2 1 0 1 0 2 7 2 7 -1 3 -1 4 1 4 1 3 0 1 -1 1 1 0 2
1 1 3 0 3 2 2 2 2 3 4 4 3 1 4 1 3 2 0 2 1 0 1 0 1 -1 -1 -1 0 0 1 1 1 1 0 2
0 -1 1 0 2 3 3 3 3 -1 -1 -1 -1 0 -1 0 -1 2 2 1 2 1 3 0 4 1 3 0 4 1 2 2 3 1
2 2 3 1 8 0 8 -1 2 -2 3 -1 0 -1 0 -2 2 -2 2 0 2 0 1 -1 0 -1 0 -2 3 -2 2 0 2
0 2 -1 0 -1 0 0 -1 -1 -1 1 4 0 4 0 7 0 8 1 1 1 1 -1 5 -1 5 -1 3 0 3 -1 3 0
4 -1 2 0 2 0 3 0 3 -2 3 -1 2 0 0 1 0 -1 4 -2 4 -4 5 -4 6 0 1 0 0 -3 5 -2 6
0 8 0 8 3 7 3 7 1 2 1 3 -1 2 -1 2 -1 -1 -1 -1 -1 -4 -1 -4 -3 -5 -3 -5 -2 -7
-2 -6 -1 -1 -1 -1 1 -1 1 0 -1 -2 -2 -2 0 -1 0 -1 3 -4 2 -4 -1 0 0 0 -1 0 -1
0 1 -2 0 -1 1 0 2 0 0 0 1 0 -1 -1 0 -2 1 -2 1 -2 -1 -2 -2 -3 -1 -5 0 -6 2 0
2 0 1 0 1 0 0 -5 -1 -5 1 -5 1 -4 -1 -4 0 -5 -4 -1 -3 -1 -2 -5 -2 -5 -2 -2
-2 -2 -1 -6 -1 -5 -2 -4 -2 -3 0 -1 0 -1 -3 -7 -4 -7 -2 -4 -2 -3 -1 -6 -1 -6
1 -1 0 -2 -1 0 -1 0 -1 4 -1 5 0 2 0 3 -1 3 -1 4 -2 0 -1 0 -1 3 -1 3 -1 -1
-2 0 -2 3 -3 4 -1 2 0 3 0 1 0 2 -3 5 -2 5 -4 1 -3 2 -1 3 0 4 -1 2 -1 2 -1 3
-2 4 -1 4 0 5 2 3 2 3 0 1 0 1 2 3 2 4 -1 1 0 1 2 1 2 2 0 1 -1 1 1 0 1 0 1 1
0 2 2 3 3 4 0 1 0 1 2 2 3 2 4 8 4 8 0 5 0 5 2 4 2 4 0 8 1 9 -1 1 -1 0 -2 -2
-2 -2 0 3 1 3 1 7 2 6 0 9 0 10 0 2 1 2 2 2 2 2 -1 3 -1 3 1 1 1 0 0 2 0 3 2
1 1 2 0 1 0 1 -1 0 0 -1 -1 3 0 3 0 3 -1 4 -2 0 -1 0 -1 3 -1 3 -3 5 -2 6 -2
4 -2 4 -4 4 -3 4 -1 3 -1 4 0 0 0 1 -4 6 -3 6 -1 2 -2 1 -4 2 -3 1 0 1 1 1 -3
3 -2 3 -2 2 -2 2 0 1 0 1 -1 0 -1 -1 -1 1 -1 2 1 0 1 1 -1 7 0 8 -2 5 -2 5 1
6 1 6 2 2 1 3 0 2 0 2 -2 0 -1 1 -1 0 0 0 -1 -2z m-2 -19 l-1 -1 0 2 0 3 1 -2
0 -1 0 -1z m46 -186 l-3 -4 -1 0 -1 0 0 3 0 3 1 1 1 1 0 -2 -1 -1 1 0 2 0 0 1
0 2 1 0 2 1 0 -1 0 0 -2 -4z m46 -29 l-1 -2 1 -1 1 0 0 -1 0 -1 -1 0 -1 0 0 2
0 2 -1 -2 -1 -1 0 1 1 2 0 2 0 1 1 0 1 0 0 -2z m-122 -420 l0 -2 -2 0 -1 0 1
2 1 1 0 0 1 0 0 -1z"/>
<path d="M695 594 l-2 -3 -6 -5 -5 -6 -2 0 -1 0 -3 -3 -3 -3 -3 -2 -3 -2 -5
-2 -4 -2 -4 0 -3 -1 -3 -1 -3 -1 0 -2 0 -1 -2 -2 -2 -2 -1 1 -1 0 0 -1 0 -1
-3 -1 -3 -1 -1 -2 0 -1 -2 -4 -2 -4 0 -2 0 -1 -6 -6 -6 -6 0 -1 1 -1 -2 -1 -2
-1 0 -2 0 -3 -1 -1 -1 -2 -1 0 -2 0 0 -1 0 -2 1 1 2 0 0 -3 0 -2 -1 0 -1 1 -1
-3 0 -4 0 -3 1 -2 1 -1 2 -1 -1 0 -1 0 0 -4 0 -3 1 -3 1 -3 0 -2 -1 -2 1 -2 1
-2 2 -2 1 -1 0 -5 0 -5 -1 0 -1 0 1 -3 1 -3 2 0 1 1 -1 -2 0 -1 1 0 1 1 1 -2
2 -2 -1 -1 0 -1 1 0 1 1 1 -2 2 -2 1 2 0 2 1 0 0 1 0 2 0 1 2 -2 1 -2 0 -7 1
-7 0 -3 1 -3 1 -2 1 -2 3 -4 3 -3 -1 2 0 2 1 -2 1 -1 0 1 0 1 1 0 0 -1 -1 -2
-1 -2 -2 -2 -1 -2 0 -3 1 -2 -1 0 -1 1 1 -1 0 -2 -2 -6 -3 -6 0 -2 0 -2 -6 -6
-5 -6 -3 -5 -2 -4 -2 0 -1 -1 -4 -1 -4 0 0 -1 0 -1 -1 0 0 0 -3 -2 -2 -1 -3
-1 -2 0 -7 0 -7 -1 -3 -2 -3 -2 -3 -4 -2 -4 -3 -1 -2 0 0 -1 0 -1 -3 -1 -3 -1
-3 1 -2 0 -4 0 -3 0 1 1 1 1 1 3 0 4 0 2 1 3 1 0 2 1 4 7 3 8 1 2 2 2 1 0 2 0
1 1 1 2 2 0 3 1 1 2 2 3 1 0 2 0 2 1 3 1 -1 2 0 2 2 2 2 2 0 -1 1 0 1 1 1 2 0
-3 -1 -2 2 1 2 0 0 3 0 2 1 2 1 3 1 0 1 -1 1 2 1 1 1 0 1 0 3 3 3 2 1 6 1 6 2
1 1 0 0 2 0 2 -1 2 -2 3 -1 -1 -1 -2 -1 0 -1 0 1 1 1 1 0 4 0 4 1 -1 1 0 -2 6
-3 6 1 0 0 1 -3 5 -2 6 -1 0 -1 0 -1 4 -1 4 -2 1 -1 2 -2 0 -1 0 -2 0 -1 0 0
-3 0 -3 2 -5 3 -4 0 -9 0 -10 -1 -3 -2 -3 0 -1 1 -1 -3 -3 -2 -2 -2 -3 -2 -2
1 1 0 2 -2 0 -3 0 -4 -3 -3 -3 -4 -2 -4 -2 -2 -2 -2 -1 -1 0 -1 1 -1 -2 0 -1
-3 -3 -2 -2 1 0 0 -1 -3 -1 -3 -1 0 -2 0 -1 -1 0 -2 1 -1 -1 0 -1 1 0 1 1 0
-1 0 -1 -3 0 -3 -1 0 -1 0 -1 2 0 2 0 -2 -1 -1 -1 -3 1 -2 0 -1 -2 -1 -2 -2
-3 -2 -2 -7 -6 -6 -7 0 -2 1 -1 -2 -4 -3 -3 -3 -11 -3 -10 0 -5 0 -4 1 -6 1
-7 -2 -5 -3 -5 0 -5 1 -5 -1 -1 -1 0 1 -1 1 -1 1 -3 0 -3 -1 2 -1 2 0 -3 0 -3
1 0 1 0 0 -6 0 -6 1 -1 1 0 0 -1 -1 -1 1 0 1 -1 -1 -7 -1 -6 -2 -3 -2 -2 0 -1
0 -1 2 2 2 2 0 -3 -1 -2 0 -1 0 0 0 -3 0 -2 2 2 2 1 2 5 2 4 3 0 3 1 0 1 0 1
4 1 4 1 1 1 0 2 4 1 4 2 0 1 1 1 2 -1 1 0 0 1 0 1 5 0 5 0 0 -1 0 -1 3 1 3 0
7 0 8 0 0 1 0 1 2 0 1 -1 -1 1 0 1 2 0 3 -1 0 1 0 1 1 0 1 -1 1 2 2 2 2 1 2 2
-4 -1 -3 0 5 3 6 3 1 0 1 0 0 -2 -1 -2 -3 -2 -3 -2 0 0 0 -1 5 3 6 3 2 2 3 2
-3 -1 -2 0 -1 -2 -1 -1 -1 0 -1 0 0 1 1 1 5 2 4 2 1 0 0 -1 -1 0 -1 0 0 -1 1
0 3 1 3 2 6 -1 6 0 4 2 4 2 0 1 0 1 -2 2 -2 2 1 0 2 0 3 3 3 3 1 0 1 0 0 1 0
2 3 -1 3 0 3 2 3 2 -1 1 0 2 0 -1 1 -1 6 6 5 5 -1 1 0 1 3 3 4 4 2 1 2 1 0 1
-1 0 2 2 1 2 2 0 2 0 2 2 3 2 0 2 0 2 3 2 2 3 0 1 0 2 1 -1 1 0 1 4 0 4 5 5 4
4 0 2 0 2 -2 -3 -1 -3 -1 0 -1 0 1 3 2 4 0 0 1 1 -1 1 -1 2 0 1 1 2 1 0 2 0
-2 4 -1 3 1 0 1 0 -2 1 -1 1 1 0 1 0 0 2 0 3 1 1 0 2 2 0 2 0 -2 1 -2 2 2 1 1
1 -1 1 -1 1 0 3 0 4 0 1 -1 2 0 2 -1 3 -2 2 -1 2 -2 1 -1 2 0 0 0 1 0 0 0 1
-1 8 0 9 -2 2 -1 2 -1 -1 -1 0 0 1 1 1 -4 4 -4 4 0 0 0 1 -2 -1 -1 0 0 2 0 1
-2 2 -3 2 0 3 -1 3 -3 1 -3 1 0 2 0 2 -2 2 -1 2 1 1 1 0 -2 3 -1 4 -1 1 -1 2
1 3 1 4 0 5 1 5 -2 5 -1 4 1 2 1 1 0 1 -1 2 2 2 1 3 0 1 0 2 5 5 5 6 2 3 1 3
0 3 0 3 3 4 3 4 5 4 6 4 4 8 4 9 0 1 0 1 2 2 2 1 0 2 0 1 -2 0 -2 0 -3 -3z
m-67 -141 l0 -1 -1 0 -1 0 0 1 0 1 0 0 1 0 1 -1z m-16 -25 l0 -2 -2 1 -1 1 1
1 2 1 0 0 0 0 0 -2z m-93 -57 l-1 -2 -1 0 0 0 1 2 1 2 1 0 0 0 -1 -2z m-2 -10
l-2 -4 -1 -2 -1 -2 0 -4 -1 -4 -1 0 -1 0 0 -4 1 -4 -1 0 -1 0 1 -1 0 -1 0 -4
-1 -3 -1 0 0 1 -1 2 0 2 1 -1 2 0 -2 1 -1 2 0 3 1 3 2 9 3 9 1 2 1 3 2 1 1 2
1 0 0 -1 -2 -5z"/>
<path d="M284 494 l1 -1 1 -1 1 0 0 1 -1 1 -1 1 -1 0 0 -1z"/>
<path d="M671 467 l0 -1 1 1 0 1 0 1 -1 0 0 -2z"/>
<path d="M613 463 l0 -1 1 1 1 0 -1 1 0 1 -1 0 0 0 0 -2z"/>
<path d="M589 392 l-1 -1 0 -1 0 0 1 1 1 2 0 1 -1 0 0 -2z"/>
<path d="M288 382 l-1 -3 0 -4 0 -3 -1 -1 -1 0 0 -8 1 -8 1 -1 1 -2 1 -6 2 -6
2 -3 2 -3 4 -3 3 -2 1 -2 1 -2 -1 -4 0 -4 2 -4 2 -4 1 -3 0 -2 4 -4 3 -4 5 0
5 0 3 -3 3 -4 4 -1 4 -1 3 1 4 1 2 0 2 0 5 -2 4 -2 5 -6 5 -5 2 -3 1 -4 0 -3
0 -3 -1 0 -1 1 -1 -3 -1 -2 3 -8 4 -7 4 -3 5 -3 5 -2 5 -3 5 -1 5 0 1 0 1 0 3
-4 3 -4 0 -2 1 -2 4 -3 5 -3 0 -2 0 -1 0 -3 1 -3 3 -5 3 -4 1 0 1 0 4 -5 4 -5
2 0 1 0 5 -3 4 -4 4 -1 3 0 10 1 10 1 4 2 3 1 1 -1 1 0 0 1 -1 1 3 0 3 1 -1
-2 0 -2 1 1 2 2 0 0 1 0 0 -1 0 0 0 -2 0 -1 2 0 1 1 1 -2 0 -1 3 1 2 0 3 -4 2
-5 2 0 1 0 -1 -2 0 -1 1 0 1 1 0 -1 -1 -1 2 -2 2 -2 3 0 4 0 1 0 2 0 5 -4 6
-3 3 0 3 0 4 0 4 0 1 -1 1 -1 5 1 4 1 3 2 3 1 2 2 3 2 3 1 3 1 0 0 1 0 2 1 1
1 2 -1 2 -1 3 2 2 2 5 3 5 3 4 -1 5 -1 7 2 7 2 3 3 3 2 3 1 4 2 4 4 4 5 0 3 0
3 1 1 1 2 1 7 2 7 0 3 0 3 5 4 4 4 1 1 2 0 5 1 5 2 2 1 3 1 1 2 2 1 1 3 0 3 5
3 4 3 3 5 3 6 2 2 3 2 0 6 0 6 -1 0 -1 -1 -3 -5 -3 -4 -7 -5 -6 -5 -1 0 0 0
-4 -1 -3 -2 -2 0 -2 0 -3 -2 -3 -1 -9 2 -8 2 -1 -1 0 0 -11 -1 -10 0 0 1 0 1
-3 1 -4 0 0 1 1 1 -3 1 -2 0 -1 1 0 0 1 0 2 -1 0 1 -1 1 -3 -1 -3 0 -3 -3 -3
-2 -5 0 -5 0 0 -1 -1 -1 -2 0 -1 0 0 1 1 1 -5 0 -4 0 -8 -6 -8 -6 -3 -5 -3 -4
-3 0 -2 0 -5 -2 -5 -2 -3 -2 -3 -2 3 1 3 0 2 0 2 1 1 -1 2 -1 4 0 5 -1 2 0 3
0 0 -1 -1 -1 8 1 7 0 2 2 2 3 0 1 0 2 1 -2 0 -1 1 1 2 1 1 -1 2 -1 -2 0 -1 0
0 -1 1 0 1 0 2 0 0 -4 0 -4 -2 -2 -2 -2 -1 -2 -1 -3 -3 0 -3 1 -2 0 -2 1 -2
-2 -1 -1 1 -1 1 0 0 -1 0 -2 -3 -1 -3 -1 -7 1 -6 0 -5 1 -4 1 -2 1 -1 1 -1 0
-1 -1 -1 1 0 1 -2 0 -1 -1 0 1 1 1 -3 2 -2 3 -4 3 -3 4 -4 0 -3 1 -2 -2 -1 -1
0 1 1 2 -2 -1 -1 -1 0 1 1 1 -1 0 -2 0 -1 2 -1 2 0 2 0 2 -1 0 -1 0 -1 3 -1 2
-2 0 -2 0 0 -1 0 -1 -1 0 -2 0 -1 1 -2 2 -1 -1 -1 0 0 1 -1 1 -2 0 -2 0 -2 1
-2 2 -1 -1 -1 0 0 1 1 2 -2 0 -2 0 0 1 1 1 -1 -1 -2 0 -1 2 -2 1 -5 0 -4 -1 0
2 0 1 2 0 2 1 2 -1 1 -1 0 1 1 1 2 0 2 0 0 1 0 1 -5 5 -5 5 -6 3 -5 2 0 0 -1
0 -1 1 -2 1 -1 0 -1 -1 -1 2 -1 3 -2 0 -1 1 1 -2 2 -2 0 -1 -1 0 -3 2 -3 3 -2
0 -1 1 -1 -3 0 -2 2 -6 3 -6 3 -4 4 -3 5 -2 5 -2 3 1 2 0 0 -1 0 -2 -5 -1 -4
-1 -3 -3 -2 -3 1 -2 1 -2 -1 -2 -1 -1 -2 -2 -2 -1 -4 3 -3 2 -3 0 -3 0 0 -1
-1 -1 -2 0 -2 0 -7 7 -7 7 0 1 0 2 -1 0 -1 0 0 6 1 6 0 0 1 0 1 4 1 4 -1 4 -1
4 -3 2 -2 2 0 6 0 5 -2 3 -3 4 -2 3 -2 4 -1 5 -2 5 -4 3 -4 4 -4 6 -3 7 -2 0
-1 1 -4 5 -4 5 -2 1 -2 1 -5 1 -4 0 -2 1 -1 1 -4 1 -4 0 -2 -1 -3 -2 -3 0 -4
0 0 1 -1 0 -3 1 -2 0 -7 1 -6 2 -2 1 -2 0 1 -1 0 -2 -1 0 -1 -1 -3 3 -4 3 -2
4 -3 5 -1 6 -2 7 -1 3 -1 4 -2 0 -3 0 -1 -3z m27 -32 l0 -1 -1 0 -1 0 1 1 0 1
1 0 0 0 0 -1z m282 -98 l0 -1 -2 0 -2 0 0 1 -1 1 3 0 2 0 0 -1z m4 0 l-1 0 -1
0 -1 1 1 0 2 0 0 -1z"/>
<path d="M632 253 l1 0 1 0 2 1 -3 0 -2 0 1 -1z"/>
<path d="M479 249 l0 -1 4 -2 5 -3 -4 3 -3 3 -1 0 -1 0 0 0z"/>
<path d="M629 148 l-1 -3 0 -1 1 0 1 2 1 3 1 1 1 0 0 -2 -1 -1 -1 -4 0 -3 1 4
2 4 0 1 0 2 -1 0 -2 0 -2 -3z"/>
<path d="M647 148 l-1 -2 0 -2 0 -3 1 0 2 0 1 3 2 4 0 1 0 2 -2 -4 -1 -4 -1 0
-1 0 0 1 0 1 1 2 1 3 0 0 -1 0 -1 -2z"/>
<path d="M636 147 l-2 -2 0 -4 0 -3 1 2 0 2 1 2 0 2 1 -1 1 -1 0 1 -1 2 2 1 2
1 -2 0 -1 0 -2 -2z"/>
<path d="M642 148 l0 -1 -3 -4 -3 -3 1 1 2 1 1 -1 1 -1 1 0 1 0 0 2 1 1 -1 -1
-2 -1 0 1 0 2 1 0 1 1 0 2 -1 3 0 -2z"/>
<path d="M626 144 l0 -3 -3 -5 -2 -4 1 1 2 2 0 -1 0 -1 2 5 2 5 -1 2 -1 3 0
-4z"/>
<path d="M654 146 l-1 -1 0 -3 0 -2 1 2 0 3 1 1 1 1 0 0 -1 0 -1 -1z"/>
<path d="M671 142 l-1 -2 1 0 1 0 0 2 0 1 0 0 -1 0 0 -1z"/>
<path d="M678 141 l-1 -1 1 1 2 1 0 1 0 0 0 0 -1 0 -1 -2z"/>
<path d="M671 133 l-5 -5 4 3 4 3 1 2 1 2 0 0 0 0 -5 -5z"/>
<path d="M619 128 l0 -2 0 -1 1 0 1 0 2 1 0 1 0 2 -1 -2 0 -1 -1 0 -1 0 0 3 1
2 0 0 -1 0 -1 -3z"/>
<path d="M652 125 l-1 -1 1 1 2 0 0 1 0 0 -1 0 -1 0 0 -1z"/>
</g>
</svg>
