<?xml version="1.0" standalone="no"?>
<!DOCTYPE svg PUBLIC "-//W3C//DTD SVG 20010904//EN"
 "http://www.w3.org/TR/2001/REC-SVG-20010904/DTD/svg10.dtd">
<svg style="fill: black; stroke: black;" version="1.0" xmlns="http://www.w3.org/2000/svg"
 width="789.238255pt" height="794.848886pt" viewBox="0 0 789.238255 794.848886"
 preserveAspectRatio="xMidYMid meet">
<metadata>
Created by potrace 1.16, written by Peter Selinger 2001-2019
</metadata>
<g transform="translate(-130.866175,918.005175) scale(1.000000,-1.000000)"
fill="#000000" data-original="#000000" stroke="none">
<path d="M586 915 l-2 -3 -1 -10 -2 -9 -1 -2 0 -1 0 0 -1 1 0 10 -1 10 -1 1
-2 2 -1 -4 -1 -4 -2 -2 -1 -1 -1 3 0 3 -1 0 -2 0 -1 -3 -1 -2 -1 -4 0 -4 -1
-1 -1 0 0 6 1 7 -1 2 -1 2 2 1 1 0 0 1 0 2 -3 0 -2 1 -1 -1 0 -1 -1 -5 -2 -4
0 5 -1 5 -1 0 -1 0 -1 -1 0 -1 -2 0 -1 1 -1 -1 0 -1 -1 1 -1 0 0 -1 -1 -1 -1
0 -1 0 0 2 0 1 -1 -1 -1 0 0 -4 1 -4 -1 -4 0 -4 -4 -5 -4 -4 -4 -4 -3 -3 -2 1
-2 2 -2 -2 -1 -2 -1 1 -2 1 -1 0 -1 -1 -1 2 -1 3 -1 0 -1 0 0 3 0 2 -1 0 -1 0
1 1 0 1 -1 1 -2 0 0 3 0 2 -1 0 0 0 -3 1 -3 0 -3 -2 -2 -2 1 0 1 -1 -2 -3 -2
-4 0 -3 0 -3 0 0 -1 -1 -3 1 -4 1 0 -1 -1 -1 0 1 0 1 -2 0 -3 0 -2 2 -2 2 0
-1 -1 0 -4 2 -4 1 0 1 1 1 -2 3 -2 4 -1 4 -1 4 -2 3 -3 4 -1 -2 -1 -1 -3 1 -3
0 0 -2 -1 -1 -2 0 -1 1 0 -1 0 -1 -1 1 -1 2 0 -1 0 -1 0 -1 -1 -1 0 -1 0 0 -2
2 -2 1 -1 -2 0 -2 -2 0 -1 0 0 0 0 -1 1 -7 2 -6 0 -4 0 -3 -1 0 -1 0 -3 5 -2
5 -1 0 -2 0 0 1 0 1 -1 -1 -1 0 1 -1 0 -1 -1 0 -1 0 1 -6 1 -5 -1 -1 0 -1 -1
0 -2 0 -1 2 -2 2 -1 2 -1 3 0 -2 0 -2 -2 -3 -2 -3 -1 1 -1 2 -1 3 -1 3 -1 0
-2 0 -1 -3 -1 -4 1 -2 1 -2 -1 0 -1 0 0 1 0 1 -1 0 0 -1 -2 5 -2 5 -2 0 -3 0
0 -2 -1 -2 -2 1 -2 1 0 -2 -1 -2 -2 0 -2 1 0 -1 0 -1 1 -5 0 -5 -1 0 -1 1 0
-1 0 -1 0 -2 -1 -1 -1 0 -2 0 -1 -3 -1 -3 -1 0 -1 0 1 -1 1 -1 0 -1 0 -1 -1 0
-2 0 -2 3 -2 2 -2 0 -1 0 0 -3 0 -2 1 -2 1 -2 -3 2 -3 3 -1 0 -1 0 -1 -4 -1
-4 1 -1 1 0 0 -2 1 -2 -1 0 -1 0 -3 5 -3 4 -2 0 -1 -1 -3 3 -3 3 -1 0 0 0 -5
-4 -4 -3 0 -3 1 -3 -2 0 -1 1 0 -3 0 -2 -3 -1 -2 0 -3 3 -3 3 -4 0 -3 0 -4 2
-4 3 -1 -2 0 -1 -1 1 -2 0 0 -1 -1 -2 -5 -2 -6 -2 1 -2 1 -1 -1 0 0 0 -1 0 -1
0 -2 -1 -1 -2 0 -1 0 -2 -2 0 -2 -1 1 -2 1 -2 -1 0 -2 1 0 -1 0 0 2 -3 1 -2
-1 0 -2 0 0 -1 0 -1 4 -5 5 -4 2 -3 1 -3 -1 0 0 0 -7 5 -6 6 -2 0 -2 1 0 -1
-1 0 7 -7 7 -7 -1 -1 0 -1 -4 2 -3 1 -2 1 -1 0 1 -2 1 -2 -1 0 -1 0 0 1 0 2 0
1 -1 1 0 1 -1 1 -4 0 -4 0 0 -3 0 -2 5 -6 4 -5 0 -2 0 -1 -1 0 0 0 -6 5 -6 4
-1 -1 -1 0 0 -1 0 -2 -3 -1 -4 -1 1 -2 1 -2 0 -1 -1 0 2 -2 1 -1 0 -1 0 -1 -1
0 -1 1 1 -2 0 -2 -1 0 -1 0 1 -2 1 -2 -1 0 0 0 1 -1 1 -2 -1 0 0 0 2 -1 2 -2
0 -2 1 -3 -1 0 0 0 -2 -4 -2 -3 1 -1 1 -1 0 -1 -1 0 -2 1 -3 2 -4 1 -4 2 -1
-1 -1 -1 -1 0 0 0 -1 -2 -1 -2 -2 0 -2 0 5 -5 5 -5 -1 -1 0 -2 -2 1 -2 0 0 -2
1 -2 -1 0 -1 0 0 -1 0 -1 0 -2 0 -1 -2 0 -3 0 -2 3 -3 2 -1 0 -1 0 -2 2 -1 2
-3 1 -3 1 0 1 0 1 -1 0 -2 0 0 -1 0 -1 0 -2 0 -1 -1 0 -1 0 -1 -2 0 -2 1 -2 1
-1 -1 -2 -2 -2 0 -1 0 -1 -2 1 -2 2 -1 -1 -1 0 0 -2 1 -3 -3 1 -2 0 0 -1 0 -1
3 -3 2 -3 -1 0 -2 1 0 -3 -1 -3 3 -5 2 -4 -1 0 0 0 -3 1 -2 2 -5 0 -5 1 -3 1
-2 1 -3 -2 -2 -3 1 0 1 0 -2 -1 -1 0 -2 -5 -2 -5 1 -3 2 -3 -1 -1 -1 -1 0 -1
0 -1 2 0 3 0 0 -1 1 0 6 -6 7 -5 1 0 1 0 -1 -1 0 -2 1 0 1 -1 -1 -7 0 -7 -2 0
-3 0 0 -2 1 -1 -2 0 -2 -1 1 -2 2 -1 -2 -1 -1 0 0 -2 0 -3 -1 0 -1 -1 -2 1 -2
1 -1 -2 -1 -2 -2 0 -2 0 0 -1 0 -1 -2 1 -2 0 0 -1 0 -1 -4 1 -4 1 -6 -2 -6 -1
0 -3 0 -3 2 0 2 -1 -2 -1 -2 -1 1 -2 1 -1 -2 1 -3 0 -1 -2 -1 -2 2 -2 3 -2 -1
-1 -1 -1 2 0 2 0 5 -3 5 -3 -1 0 0 0 -5 2 -5 1 -2 0 -1 0 1 -3 1 -3 2 0 2 -1
-8 0 -8 1 0 -1 0 -1 1 0 1 0 -2 -2 -2 -2 1 -5 0 -6 -1 -1 -1 0 1 -1 0 -1 3 -1
2 -1 0 -2 0 -2 1 1 1 0 -1 1 0 1 4 0 4 0 4 -1 4 -1 -1 -1 0 -1 1 0 1 0 0 -4 0
-4 -1 0 -1 1 0 -2 0 -1 -1 0 0 -1 -6 1 -5 1 -1 -4 -1 -4 -1 -3 -1 -3 1 -2 0
-1 3 0 3 -1 0 -2 1 -2 2 0 3 0 0 -2 1 -1 1 0 1 0 0 0 0 -1 1 -1 2 -1 -1 -2 0
-2 -2 0 -1 0 0 -1 1 -1 -2 0 -1 0 0 -1 0 -1 -2 0 -2 -1 -1 1 -1 1 -3 0 -3 1 0
-2 0 -1 -1 0 -1 0 -4 -2 -4 -1 0 -1 1 -1 -2 -2 -2 -2 1 -1 1 -1 0 -4 0 -4 1
-1 2 0 -1 -1 -2 -1 0 -3 1 -3 -2 0 -1 -1 0 -2 0 -2 12 0 12 0 -6 -2 -6 -2 0
-2 0 -1 1 0 2 1 -1 -2 0 -1 1 0 1 0 0 -1 -1 0 5 -3 4 -2 -2 -1 -2 -1 -8 -1 -8
-1 -1 -1 0 0 1 -1 2 -1 -2 0 -2 0 0 -2 0 -2 1 0 1 0 -1 -1 -1 -1 1 -3 0 -2 2
0 1 0 0 -1 0 -1 6 1 7 0 -1 -1 -1 -1 -2 0 -2 0 -2 -2 -1 -1 0 -1 0 -1 6 1 6 0
-3 -2 -3 -2 0 -3 0 -3 -1 -1 -1 -2 1 -2 0 -2 1 -2 1 -1 0 -3 0 -3 1 0 2 0 2 0
2 0 -1 -2 0 -2 1 0 1 0 2 0 2 0 -1 -2 0 -3 1 0 2 -1 0 -1 0 -1 2 -2 2 -2 2 0
1 1 0 -2 0 -2 2 0 1 0 -1 -2 -1 -2 -3 -1 -3 -2 -2 0 -2 0 0 -1 -1 0 -4 -2 -4
-1 -1 -2 0 -3 2 -4 1 -3 0 -3 0 -2 2 0 2 -1 8 3 7 2 1 0 1 0 -4 -4 -3 -4 0 -1
0 0 2 0 1 0 -1 -2 -1 -2 1 -1 1 -1 -2 -1 -1 -1 2 0 2 0 -1 -2 -1 -1 2 1 2 0 1
1 1 1 0 0 0 -1 -3 -3 -2 -2 3 1 4 1 1 0 0 -1 -6 -3 -5 -2 -3 -2 -3 -2 0 -3 0
-3 2 -2 2 -2 -1 0 0 -1 1 -1 1 0 1 -2 1 -2 2 -1 3 -1 5 2 5 2 3 -1 2 0 0 -1 0
-1 2 0 1 0 -1 -4 0 -3 1 0 1 1 0 -1 0 -2 1 0 1 0 5 0 6 -1 2 -2 2 -2 -2 -2 -2
-2 -4 -3 -3 -3 0 -1 1 -1 1 -1 2 0 3 2 4 3 1 1 2 0 -2 -1 -1 -2 2 -2 3 -2 1 0
1 0 0 -4 -1 -4 0 -2 -1 -1 1 -2 0 -2 1 1 1 0 0 -1 1 -1 -2 -1 -3 -2 1 -1 0 -2
-5 -3 -6 -4 0 -1 0 -1 0 -2 -1 -2 1 0 1 0 -1 -1 0 -2 2 0 1 -1 0 -1 -1 -1 1 0
1 0 0 -1 0 -1 2 -2 1 -2 3 3 4 2 7 4 7 3 1 0 2 -1 -8 -8 -8 -8 0 -1 0 -1 1 0
1 -1 5 3 4 4 1 0 1 0 -1 -2 -1 -2 -3 -4 -2 -3 1 -1 1 -1 7 7 7 7 1 1 2 1 0 -1
0 -2 -7 -8 -6 -7 -2 -1 -1 -1 1 -1 0 -2 -1 0 -1 -1 0 -1 0 -1 2 -2 3 -3 1 0 1
0 0 -1 0 -2 2 -2 2 -2 1 1 1 0 0 -1 0 -2 1 0 1 0 3 3 3 3 1 -1 1 0 3 3 4 3 2
-1 3 -2 -1 -1 0 -1 1 0 2 0 -1 -2 0 -1 1 1 1 1 3 -2 3 -1 0 -5 -1 -5 4 -4 4
-4 1 1 2 1 0 1 0 2 4 4 4 3 0 -1 0 -1 -2 -1 -2 -2 0 -2 0 -1 2 0 1 0 0 -1 0
-1 1 0 2 0 2 2 2 3 2 -1 1 -1 0 -1 0 -2 3 -3 2 -2 1 -2 0 -2 1 0 1 0 0 -2 0
-2 2 1 3 0 0 -5 -1 -6 1 -2 1 -1 -2 -2 -1 -2 3 -4 3 -4 2 -1 2 0 1 2 1 3 2 1
2 2 0 -1 1 -1 2 2 2 2 1 0 0 -1 -1 -2 -1 -3 1 -1 0 -1 2 1 3 1 0 0 1 0 0 1 -1
1 4 4 3 4 -2 -4 -2 -4 -3 -9 -2 -8 1 -1 1 -1 1 1 0 1 3 3 2 3 0 -3 0 -3 2 0 2
0 1 3 1 3 0 0 0 1 4 7 3 8 1 -2 0 -1 -3 -7 -2 -6 -2 -5 -1 -4 2 -2 3 -2 2 0 2
1 1 -2 1 -1 2 0 3 -1 1 0 1 -1 3 -1 3 0 2 4 1 3 1 0 0 -1 2 4 2 4 4 4 4 4 0
-1 1 -1 3 1 2 0 0 -5 -1 -5 2 -1 2 -2 0 1 1 0 0 -1 0 -1 2 0 2 1 1 3 2 3 1 1
2 0 0 -1 0 -1 -2 -3 -1 -3 -1 0 -1 0 0 -1 0 -2 1 0 1 0 0 -2 0 -2 3 0 4 0 1 0
2 -1 1 1 1 1 3 0 4 1 1 1 1 1 2 0 2 0 0 -8 -1 -8 0 -3 0 -2 0 0 1 0 2 -2 1 -1
0 0 0 1 1 -1 2 -1 1 0 1 1 1 -2 0 -1 1 1 1 2 1 -2 0 -1 1 0 2 0 1 7 1 7 1 3 1
4 1 0 1 0 -1 -7 0 -7 -1 -3 -1 -2 1 0 1 0 0 2 0 2 1 -3 1 -3 1 1 1 0 0 -1 1
-1 1 1 2 0 -1 -2 0 -3 1 0 1 0 1 3 0 4 2 6 2 7 1 0 1 0 0 -1 0 -1 -1 -6 -2 -5
0 -4 0 -3 2 -1 3 0 1 2 0 2 1 0 1 0 0 -2 0 -2 1 0 2 -1 1 1 1 1 0 -1 0 -1 4 1
5 0 1 0 1 1 1 -1 1 0 0 2 0 2 1 0 1 0 0 3 0 4 1 4 2 4 1 1 1 0 3 -2 3 -3 0 0
1 0 0 2 0 1 2 0 2 0 1 2 0 2 1 0 1 0 2 -3 3 -2 1 0 1 0 5 -5 5 -4 2 0 3 0 5 1
6 1 4 2 3 3 2 0 1 0 0 1 0 1 2 0 1 0 2 3 2 3 1 -1 2 -1 1 0 1 1 0 -1 1 -1 1
-4 1 -4 2 -1 3 0 1 -1 2 -1 0 1 1 1 2 -1 2 -1 1 2 1 1 2 0 1 0 0 -1 0 -1 4 0
4 0 1 1 0 1 2 -1 1 -1 1 0 2 1 -2 7 -1 6 0 3 1 3 3 -7 4 -8 1 1 2 1 0 -1 1 0
0 4 -1 5 -1 1 0 2 1 -1 2 0 1 -4 2 -4 1 0 2 1 1 0 1 1 -2 3 -1 4 0 0 0 1 3 0
3 1 2 -2 1 -1 -1 3 0 3 2 0 1 0 0 3 -1 3 1 0 1 0 2 -4 2 -5 0 -1 0 0 1 -4 1
-4 1 0 2 0 1 1 2 2 1 0 1 0 0 1 0 1 2 -1 1 0 0 1 0 1 1 1 1 2 3 -1 2 0 0 1 0
1 0 1 1 2 1 0 1 0 -1 -1 0 -1 1 1 2 1 0 2 0 1 1 0 1 1 -1 4 -2 4 0 4 0 5 2 1
2 1 1 -1 1 -1 1 1 2 0 0 1 0 1 1 0 1 -1 0 1 0 1 1 0 1 0 2 2 2 3 4 0 3 -1 1 1
0 1 3 -1 4 0 0 -1 1 -1 0 1 0 2 2 0 3 0 1 -1 1 -1 1 0 1 1 0 -1 0 -1 4 -4 5
-5 3 0 3 -1 0 2 1 1 2 -1 2 0 2 2 2 3 2 0 3 1 1 0 0 1 -3 6 -2 6 -1 0 0 1 1 0
1 -1 -1 2 0 2 2 -1 1 -1 3 -3 3 -3 1 0 0 1 -1 2 -1 1 3 -2 4 -3 1 1 1 0 -2 1
-1 0 -3 5 -2 6 0 1 0 1 2 0 1 0 2 -2 2 -1 -1 2 -1 2 0 1 1 0 3 -3 2 -3 1 0 0
1 -2 3 -3 4 0 2 -1 2 0 0 1 0 6 -6 5 -5 3 2 3 1 0 2 1 1 1 0 1 0 1 1 2 1 2 2
2 2 0 2 -1 2 -1 2 0 3 1 -1 1 0 0 1 -1 2 0 1 0 2 -3 4 -3 4 0 2 0 3 2 0 2 0 2
2 2 2 0 2 -1 2 4 -4 5 -4 2 0 1 1 1 1 0 1 -3 3 -3 4 -3 2 -3 1 0 2 0 1 3 -2 2
-2 0 1 0 1 0 2 0 2 1 0 1 0 2 2 2 2 4 0 4 1 1 -1 1 -1 4 4 4 3 -1 1 0 1 2 0 1
0 5 -4 5 -4 4 -2 4 -2 1 0 1 0 3 4 4 4 0 0 0 1 2 2 2 2 1 2 1 2 -6 6 -6 6 2
-1 3 0 2 -2 2 -1 0 0 1 0 0 1 0 2 -4 4 -4 4 2 0 2 0 5 -3 5 -4 1 0 1 0 -5 6
-5 5 0 0 1 0 5 -4 6 -4 2 -1 2 -1 2 1 1 1 0 2 0 1 1 0 0 -1 2 2 2 1 -1 2 -1 1
1 0 1 0 0 1 -1 1 1 0 1 0 0 2 -1 2 1 0 1 0 -1 1 0 1 1 2 2 1 1 0 1 0 0 1 -1 2
-1 1 0 2 -3 1 -3 2 -4 2 -3 2 -2 2 -1 1 1 0 2 -1 0 1 1 0 -1 2 -1 1 2 0 2 0
-2 1 -2 2 0 1 0 2 2 1 1 1 -1 0 -1 1 2 2 3 2 0 5 -1 4 5 0 5 0 2 0 2 1 -1 1 0
1 -2 -1 -1 0 0 1 0 2 -1 0 -1 0 1 1 2 1 -3 3 -3 2 1 1 2 1 -2 0 -1 0 0 1 0 1
2 0 2 -1 -1 3 0 2 1 1 2 1 2 0 2 0 6 -2 6 -1 0 -2 1 -2 2 -1 1 0 1 1 1 1 1 0
2 1 0 1 0 1 -3 1 -2 1 0 1 1 0 2 -1 3 -1 0 2 -1 2 1 0 1 0 0 2 0 2 1 0 1 1 -1
4 0 4 -3 2 -3 2 -1 1 -1 2 0 -1 0 -1 -1 1 0 1 -3 1 -3 1 1 1 1 1 2 0 2 1 -3 1
-3 1 0 1 1 2 3 0 3 0 1 2 0 1 2 0 3 0 -3 2 -3 3 0 1 1 0 4 -1 5 -1 1 0 2 0 1
0 0 1 -1 2 -1 1 -3 2 -3 2 2 0 3 0 2 -1 2 -2 1 0 2 0 -1 3 0 4 3 1 3 2 0 2 1
1 -1 2 -1 1 1 2 0 2 -1 1 -1 2 -2 1 -1 2 -3 -1 -3 0 -2 0 -1 1 1 2 2 1 -2 0
-2 0 0 1 -1 1 2 0 2 0 -2 1 -1 1 0 2 1 2 -2 0 -1 0 2 1 2 2 -2 0 -2 0 1 1 0 2
6 1 5 0 0 1 0 1 -2 1 -1 0 1 1 2 1 -4 0 -4 0 0 1 0 1 -2 0 -1 0 -1 1 0 2 2 0
2 0 -2 1 -1 1 2 3 1 3 0 0 1 0 5 -1 6 -1 1 1 1 2 0 2 0 2 -3 1 -2 0 -2 1 -2 0
2 4 1 3 -1 2 0 2 5 0 6 0 6 -1 6 -1 1 1 1 0 -1 2 -1 1 0 1 1 1 -3 0 -3 0 -2 1
-1 1 3 0 4 0 0 1 -1 1 1 0 2 0 0 1 0 1 -1 0 -1 -1 -5 2 -4 1 4 0 4 0 0 1 1 1
1 0 2 1 1 0 2 1 -2 2 -2 2 -3 1 -2 1 3 0 3 1 0 2 0 3 -5 1 -5 1 -2 2 -1 1 -4
1 -5 1 3 1 3 2 1 1 1 1 -1 2 0 2 -2 1 -1 1 1 0 1 0 0 2 -1 1 3 1 3 1 0 3 0 3
-3 0 -3 0 0 3 0 3 1 1 1 0 0 1 -1 1 1 0 1 1 -1 5 -2 5 1 1 0 1 -1 2 -2 2 -5 4
-5 3 -1 0 -1 0 0 3 -1 3 -3 0 -3 0 0 1 1 2 0 1 1 1 1 2 0 2 -2 0 -1 0 0 2 0 2
3 2 4 1 5 1 5 0 2 1 1 1 -1 4 0 4 -1 4 0 5 -1 1 -1 1 1 1 1 2 -1 1 -1 1 -4 0
-4 0 -3 -1 -3 -1 -4 0 -4 1 2 0 2 1 -1 3 0 3 0 0 0 1 -2 0 -3 0 -1 -1 -1 -1 0
0 0 1 4 4 4 4 -2 0 -2 1 -1 0 -1 -1 0 0 0 1 7 3 7 3 0 1 0 0 -2 4 -1 5 -1 0
-1 1 0 1 0 1 -1 2 -1 2 0 1 0 1 -2 0 -1 -1 -7 -3 -6 -2 -3 1 -2 0 1 1 2 1 -3
1 -2 0 2 2 3 2 -3 -1 -3 -1 -2 2 -1 1 0 2 1 1 -2 0 -1 0 0 1 0 1 -2 0 -1 -1 1
1 0 1 -1 1 -1 1 2 2 2 3 0 1 0 1 3 1 4 1 0 0 1 0 0 1 0 1 -2 0 -1 0 -2 2 -1 1
1 0 1 0 1 2 1 2 -1 5 -1 4 2 3 1 3 -1 2 -2 1 -3 -1 -3 -2 -1 2 -2 2 0 1 1 1 3
1 3 1 0 2 0 2 -1 1 -2 1 -1 4 -1 4 -1 0 -1 0 0 2 0 1 -1 0 -1 0 0 2 0 1 0 0
-1 0 -8 -5 -9 -5 -2 1 -2 1 -1 2 0 2 4 3 4 2 0 1 -1 0 -3 -1 -4 -2 0 1 0 0 2
4 3 5 -1 1 -2 2 -2 -2 -2 -1 -1 -1 -1 -1 0 1 -1 1 1 2 2 2 5 5 6 5 -1 2 0 2
-3 0 -2 1 -6 -4 -6 -4 -1 0 -1 0 6 6 6 7 -1 2 0 3 -2 0 -1 0 0 1 1 1 -2 2 -2
2 -1 0 -2 0 0 2 0 2 -2 -1 -1 -1 -3 -2 -2 -2 -4 -3 -4 -3 -4 0 -4 0 0 2 0 1
-1 1 -1 0 -4 -3 -3 -3 -1 0 0 1 0 0 1 0 -2 3 -3 2 -2 0 -1 0 -1 2 -2 1 -2 -1
-2 -1 -1 0 0 1 1 3 2 3 2 0 2 0 -1 1 -1 2 1 3 1 3 -2 2 -1 2 -2 0 -2 1 0 -1 0
-1 -3 -4 -3 -4 -1 1 -2 2 -1 -1 -1 -2 -1 0 -1 0 1 2 1 2 -2 -1 -2 -1 -2 1 -1
1 0 2 0 3 2 1 1 2 0 1 0 1 -2 0 -1 0 1 3 0 2 2 2 1 1 0 2 0 2 0 1 0 2 1 1 2 0
0 2 1 1 -1 -1 -1 0 0 1 0 0 1 2 1 2 1 -1 1 -1 1 2 1 2 -1 0 -1 0 -2 0 -1 0 1
3 0 2 -2 0 -2 -1 -1 1 -2 2 -2 -3 -2 -2 -4 -2 -4 -1 0 2 0 2 -2 2 -3 3 0 0 -1
0 -4 -6 -4 -6 -2 2 -2 3 2 3 1 4 0 1 -1 0 -2 -4 -2 -3 -1 0 0 1 1 4 2 5 2 1 1
1 -1 2 -2 1 -2 0 -2 0 -2 -6 -2 -5 -2 0 -1 1 -1 0 0 0 2 5 3 5 0 2 1 2 -2 2
-3 3 -1 0 -1 0 -1 2 -2 2 -1 -2 -2 -1 -2 -5 -2 -4 -1 0 -1 0 0 3 -1 3 2 3 2 4
-2 2 -2 2 -2 -1 -2 0 -1 0 0 0 -3 -7 -3 -7 -3 -1 -3 -1 -1 1 0 1 -3 -1 -4 0
-1 2 -2 1 0 2 0 2 -2 0 -2 0 -3 0 -2 0 -2 0 -1 -1 -2 3 -1 2 2 4 2 3 -2 3 -2
3 -1 -2 -1 -2 1 -1 0 -2 -1 -2 -1 -2 -1 2 0 3 -2 0 -2 0 -1 1 -1 2 0 2 1 2 -3
-1 -2 0 -2 -2 -1 -1 -1 0 -1 1 0 1 0 2 -3 1 -3 0 -1 2 0 2 -1 -1 -1 -1 -1 7 0
6 1 1 1 2 0 2 1 2 -3 2 -2 2 0 1 0 1 -1 0 0 0 -4 1 -4 1 -2 -1 -1 -1 -2 2 -3
1 0 0 -1 0 0 0 0 0 -5 1 -4 0 -1 -3z m-17 -30 l1 -2 3 -2 4 -2 0 -2 0 -2 2 -2
1 -1 2 0 1 1 0 -1 0 -1 3 0 3 1 2 1 3 1 0 1 -1 1 1 0 1 0 6 -4 5 -4 4 -8 4 -9
3 -3 3 -3 1 -1 1 -1 0 -5 0 -5 1 -1 2 -2 0 -1 0 0 -1 -3 -2 -3 -1 -3 -1 -3 0
-1 1 0 1 4 2 4 1 0 0 0 0 -4 -1 -3 -2 -5 -2 -5 0 -1 0 -1 -2 0 -2 0 1 3 1 2 1
2 1 2 0 0 -1 0 -3 -6 -3 -5 -2 -2 -1 -2 -4 -1 -3 -2 -1 0 0 0 1 1 1 1 1 1 2 2
-4 -1 -3 -2 0 -2 1 -1 -2 0 -2 0 0 -2 1 -2 -3 -3 -2 -4 -1 0 -1 0 0 1 0 2 3 2
3 3 0 1 -1 0 -2 -2 -2 -2 -2 0 -1 -1 0 -1 0 -2 -2 0 -2 0 -1 -1 0 -1 2 0 3 1
0 -1 0 0 -1 -2 -1 -1 0 1 0 1 -1 0 -1 -1 1 -2 0 -1 -1 0 -1 0 0 1 0 1 -3 0 -3
0 -8 2 -8 2 -10 1 -9 0 -2 0 -2 -1 0 -1 0 -1 3 0 3 1 -2 -1 -2 -1 -4 0 -4 0
-1 1 -1 2 -2 0 -1 0 -1 0 -1 0 0 1 0 1 2 0 2 0 0 3 -1 2 3 0 3 0 5 1 6 0 1 0
0 1 -3 0 -2 0 -7 0 -6 0 0 2 0 2 -1 0 -2 1 0 -1 -1 -1 -1 0 -1 1 0 1 0 1 2 0
2 1 -2 1 -2 0 -2 2 -1 1 0 2 -1 1 -1 1 -2 0 0 -1 0 -2 2 -1 2 -1 0 -2 0 -1 -1
0 0 0 -6 3 -6 3 -1 0 -1 -1 -1 1 -1 2 0 6 0 6 -1 2 -1 3 1 4 1 4 0 -4 1 -4 1
0 1 0 0 3 0 3 1 1 1 0 -1 1 -1 2 0 5 -1 5 2 -1 2 0 -2 2 -1 2 -4 3 -3 4 3 0 3
1 3 3 4 2 0 1 0 1 3 3 3 2 3 1 3 1 4 2 4 2 9 3 9 4 0 -1 0 -1 2 2 2 1 0 -1 0
-1 1 1 1 2 0 -1 0 -1 5 3 5 2 1 0 1 0 1 -1z m-147 -16 l2 -4 2 -1 3 0 3 0 3 0
2 2 2 1 0 2 0 1 2 0 2 0 -1 1 0 2 8 -1 7 0 2 -1 3 -1 5 0 6 0 3 -1 4 -1 2 -2
2 -2 1 -4 0 -3 0 -2 0 -2 1 0 2 0 0 -2 1 -2 1 0 1 0 0 1 0 1 1 0 1 0 -2 -5 -1
-5 1 -1 1 -1 1 -2 0 -3 1 0 1 0 0 1 -1 1 1 0 1 0 0 -1 0 -1 2 1 1 0 0 -1 0 -1
0 -3 1 -2 -1 -4 -1 -4 -1 -1 -1 0 0 6 1 7 -1 0 -1 -1 1 -2 0 -1 -1 0 -1 1 0
-7 0 -7 0 -12 0 -12 -1 1 -1 0 0 -1 0 -1 1 0 1 0 0 -1 0 -2 -1 -1 -1 0 0 1 1
2 -1 0 -1 0 0 -2 1 -3 -1 0 -1 0 0 -1 0 -1 -1 -2 -2 -1 0 0 -1 0 2 5 1 5 2 5
2 5 -1 0 -1 0 -1 -2 0 -1 -1 -2 -1 -2 0 -1 0 -2 -1 -1 -2 -1 0 1 0 2 -1 0 -1
0 0 2 0 3 1 0 1 1 -1 1 -1 1 -2 -3 -2 -4 -2 0 -1 1 -1 -3 -2 -2 2 1 2 1 0 -1
0 -1 -2 -2 -3 -1 -1 -3 -2 -2 1 -2 0 -1 -1 -1 -1 -2 -4 -1 -4 0 -7 -2 -6 -2
-11 -5 -10 -5 -2 -2 -2 -2 -3 2 -2 1 -2 2 -1 1 0 1 1 1 2 -1 2 -1 1 0 0 1 -3
1 -3 1 -3 0 -2 0 0 1 -1 2 2 -1 1 0 0 1 -1 1 -2 0 -2 0 -2 2 -1 1 -1 -1 0 0
-2 0 -1 0 -2 1 -1 1 -2 0 -2 0 -2 1 -1 1 0 0 1 0 -1 2 -1 3 0 0 -1 1 -1 4 -2
5 -4 4 -3 3 -2 0 -1 0 0 1 0 2 -4 2 -3 3 -1 0 -1 -1 -1 1 0 1 -2 0 -1 -1 1 3
1 2 1 0 1 0 0 1 0 2 2 2 3 2 0 3 1 3 2 3 2 3 5 9 5 10 -2 -1 -1 0 2 2 3 2 -2
-1 -2 0 0 0 0 1 2 3 1 2 1 -1 1 0 0 1 0 1 3 3 2 3 2 0 1 0 9 6 9 6 2 0 3 0 3
-4z m198 -21 l-1 0 -1 2 -2 2 0 0 0 1 2 -2 2 -2 0 -1z m-119 1 l0 -1 -1 1 -1
0 0 2 0 1 1 0 0 -1 1 -2z m186 1 l4 -1 0 -1 0 -1 3 -1 3 -1 -1 -1 0 -1 3 0 3
1 1 -2 0 -2 1 0 2 0 1 -2 1 -2 2 -4 2 -3 0 -3 -1 -2 2 -2 1 -1 1 1 1 0 1 -1 1
-1 0 1 0 1 2 0 2 0 2 -2 2 -3 5 -13 6 -13 1 -2 2 -2 1 -5 1 -6 -1 -3 0 -2 -4
0 -3 1 -2 -4 -1 -3 0 0 -1 1 -1 -3 -2 -3 1 0 1 0 -1 -1 0 -1 -1 0 -1 1 -1 -2
-1 -1 1 0 2 1 -1 -2 0 -2 -1 -2 0 -2 1 0 0 0 2 2 2 1 1 0 0 -1 -7 -6 -6 -7 -1
1 0 0 2 4 3 3 -2 -1 -2 -1 -1 -1 -1 -2 -2 -1 -2 -1 1 1 0 2 -3 -2 -3 -1 -1 0
0 1 3 3 3 2 -3 -1 -2 0 -2 -2 -2 -2 -3 0 -2 0 -5 -3 -5 -2 -3 1 -2 0 -2 2 -2
1 0 2 0 1 -5 5 -5 4 -13 6 -12 7 -1 0 0 1 -1 0 -1 -1 1 4 0 3 -1 0 -1 0 0 -1
-1 -1 1 -3 0 -4 6 -3 7 -4 7 -3 7 -3 1 -2 2 -1 1 0 0 1 4 -3 3 -4 1 -3 2 -3 2
0 2 0 0 -1 0 -1 -2 0 -1 0 -2 1 -2 1 -2 2 -2 1 0 2 0 2 -1 -2 -1 -1 -2 1 -1 1
-2 2 -1 1 -6 4 -5 4 -1 0 -1 0 -8 4 -7 5 -1 -1 -1 0 0 8 1 8 0 0 0 1 1 -2 1
-1 1 1 1 1 -1 0 -1 0 0 2 0 1 -1 0 -1 0 0 -1 0 -1 -4 6 -4 5 1 1 1 1 1 -1 2
-2 1 -3 0 -2 1 -1 0 0 0 3 0 3 -3 3 -3 4 -1 -4 -1 -3 -1 1 -1 0 0 -4 0 -4 -1
-1 -1 0 0 2 1 2 -2 -1 -2 0 0 3 0 3 0 6 -1 6 1 -1 1 0 0 1 -1 2 1 0 1 1 0 2 1
2 0 1 0 1 1 0 2 -1 1 3 2 3 1 0 1 0 0 1 0 2 2 2 2 2 0 4 0 4 0 5 0 5 -1 1 0 1
1 2 0 3 8 1 9 1 4 1 5 0 0 1 0 1 6 0 7 1 4 -1 4 0 4 0z m-346 -31 l6 -4 4 -2
5 -3 1 -2 0 -3 -1 -4 -1 -3 2 -2 2 -2 0 -1 -1 -1 2 -1 1 -2 1 1 1 0 0 -2 0 -2
4 -3 3 -2 2 -4 2 -3 -1 -3 0 -2 2 -4 1 -4 -1 -1 0 0 -1 -5 0 -5 -1 -1 -1 0 1
-3 0 -4 -2 -3 -2 -3 -1 1 -1 2 0 -2 1 -2 -8 -7 -8 -7 -5 -6 -5 -6 -1 1 -1 0 0
-1 0 -1 2 0 2 0 0 1 0 2 12 11 12 12 4 2 4 2 1 0 2 0 0 -1 0 -1 -2 -2 -1 -2 1
0 1 0 -2 -2 -1 -3 -1 0 -1 0 0 2 1 1 -1 0 -1 0 0 -1 0 -1 -1 0 -1 0 -3 -3 -4
-3 1 -1 0 -2 -3 -2 -3 -3 -2 0 -1 -1 4 4 5 4 -2 0 -1 0 -6 -6 -6 -6 -2 -3 -2
-3 -2 2 -2 2 0 -1 0 0 -1 1 -1 1 -5 0 -5 1 -1 -1 0 -1 -3 1 -3 0 -2 2 -1 2 -2
0 -2 1 0 -1 -1 -2 1 -1 1 -1 -2 0 -1 0 -5 2 -5 3 -1 1 0 2 -3 3 -3 3 -4 1 -3
2 -1 1 0 1 -3 0 -3 0 0 -1 0 -1 2 0 1 0 0 -1 0 -1 -4 0 -3 0 0 2 1 2 -3 0 -2
0 0 -1 0 -2 -3 0 -2 1 -1 2 -1 2 0 0 0 1 1 -1 1 0 1 3 1 2 -1 9 -1 9 0 5 0 5
0 4 1 5 2 4 2 5 1 1 2 2 1 0 1 0 0 2 1 2 2 0 3 0 1 -1 2 -2 1 1 1 0 0 -1 1 -1
2 0 1 0 0 2 0 2 1 -1 1 0 4 0 4 -1 0 2 0 2 -2 2 -2 2 1 1 2 1 -1 0 -1 0 -1 0
-1 0 0 2 1 2 2 1 2 1 -2 1 -2 0 5 5 6 5 1 1 2 1 0 -1 0 0 -2 -2 -1 -2 0 -1 1
0 5 6 6 7 2 0 3 0 1 1 2 1 2 0 2 0 6 -4z m157 -14 l1 2 0 -3 0 -3 0 -9 1 -8
-1 1 -1 1 -1 2 0 2 0 3 0 4 -1 -1 -1 0 0 5 1 5 0 1 0 2 1 -3 0 -3 1 2z m-131
-8 l5 -3 0 -1 0 -2 -1 0 0 0 -5 2 -4 3 -2 0 -2 1 0 1 1 1 1 0 2 0 5 -2z m159
-4 l0 -1 -1 0 -1 -1 0 0 0 1 -1 1 0 2 1 -1 2 0 0 -1z m-149 -6 l3 -3 1 -3 1
-3 1 1 1 0 1 -1 0 -1 -1 -1 -1 -1 1 -2 1 -3 0 -1 -1 0 -1 2 -2 2 -3 7 -3 7 -2
2 -1 1 0 1 0 0 1 0 1 0 3 -4z m-3 -2 l2 -4 2 -4 1 -4 3 -6 3 -6 0 -1 0 0 -2 2
-2 3 -1 0 0 -1 -5 9 -4 9 0 1 0 1 -2 1 -2 1 -1 2 -1 2 3 0 3 0 3 -5z m235 2
l-1 0 -1 0 0 1 1 1 0 1 1 -1 0 -1 0 -1z m-104 0 l0 -2 -1 1 -1 0 0 2 0 1 1 0
1 0 0 -2z m112 -1 l-1 -1 1 1 0 2 1 0 0 -1 -1 -1z m-11 -5 l-1 -1 0 0 0 1 1 1
0 2 1 0 0 -1 -1 -2z m23 0 l-1 -1 0 2 -1 2 1 -1 1 -1 0 -1z m-15 -2 l-1 -1 1
1 0 2 1 0 0 -1 -1 -1z m-142 0 l0 -1 -1 0 -1 0 1 1 0 1 1 0 0 0 0 -1z m35 -1
l0 -1 -1 1 -1 0 1 1 0 1 1 0 0 0 0 -2z m-7 -26 l0 -15 0 -1 -1 0 0 11 0 11 -1
0 -1 -1 0 7 0 8 1 0 1 0 0 3 0 3 1 -6 1 -5 -1 -15z m81 24 l0 -1 -1 0 -2 0 0
1 0 1 2 0 1 0 0 -1z m26 -4 l-1 -3 -1 0 0 1 1 3 1 3 1 -1 0 -1 -1 -2z m-22 2
l0 -1 -1 0 -1 0 0 1 0 1 0 0 1 0 1 -1z m184 -2 l6 -1 5 -2 5 -1 2 -2 3 -2 3 0
4 -1 4 -3 5 -3 -1 -2 0 -1 2 -1 3 0 0 -1 0 0 -1 -4 -1 -4 -1 -1 -1 -1 1 -3 0
-2 2 0 1 0 0 -1 0 -1 2 0 3 0 1 -2 1 -3 -2 -3 -2 -2 -2 -4 -2 -4 -2 -4 -1 -4
-2 -5 -1 -4 0 -2 0 -2 1 1 1 2 0 -2 0 -2 -2 0 -1 0 0 -2 1 -2 -4 -3 -3 -2 -2
1 -2 0 -1 -3 -2 -3 2 1 3 0 0 1 1 1 1 -1 1 -1 -4 -4 -4 -3 -2 -2 -1 -1 0 0 1
0 2 1 2 1 2 2 2 3 -1 -4 -1 -3 -6 -2 -5 -3 -2 0 -1 0 0 1 0 2 -1 -2 -1 -1 -3
-1 -2 -1 1 1 2 2 -1 1 -1 1 -2 -1 -2 -2 -3 2 -3 1 -6 0 -7 1 -1 0 -1 1 -2 -2
-1 -1 -1 1 0 1 -5 8 -4 7 -5 6 -4 7 -3 3 -3 3 0 1 0 1 -1 0 -1 0 -1 -2 -1 -1
0 -1 1 0 0 1 0 1 1 0 1 0 2 -4 3 -3 3 -4 3 -3 6 -10 6 -10 -1 -2 0 -2 1 0 1 0
-1 -1 -1 -2 -1 1 -1 0 0 3 -1 4 -2 4 -2 4 -6 7 -6 7 -1 0 -1 0 0 -2 0 -1 -4 2
-3 2 1 -1 0 -1 -1 0 -1 1 0 5 1 6 0 3 1 3 1 2 1 2 1 2 1 3 0 -5 -1 -4 1 1 1 0
1 4 0 4 1 -4 1 -3 -1 -2 -1 -2 0 -1 1 0 1 1 2 0 -1 5 0 5 -1 1 -1 2 1 4 0 4 2
4 2 4 3 1 3 2 0 1 -1 1 3 3 3 3 1 2 2 2 0 3 -1 3 2 0 1 0 0 1 0 1 1 3 1 3 1 0
1 0 1 -1 0 -1 2 0 2 0 -1 1 -1 1 0 1 0 1 2 0 2 -1 0 1 0 1 -1 0 -1 0 1 2 1 2
5 0 5 -1 6 -1z m-282 -2 l-1 -1 1 1 0 2 1 0 0 -1 -1 -1z m127 0 l-1 -2 -1 0 0
0 1 2 1 2 1 0 0 0 -1 -2z m-119 -29 l-1 -1 -1 0 0 1 -1 7 -1 7 1 1 1 1 0 5 0
5 1 2 1 2 0 -15 1 -14 -1 -1z m79 24 l1 1 0 -1 0 -1 -3 -6 -4 -6 -7 -8 -6 -7
-1 0 -1 0 -1 3 -2 3 0 2 0 2 -2 4 -2 4 0 1 0 1 -1 0 -1 -1 -1 4 -2 3 1 2 2 1
3 -1 3 -1 5 0 5 0 3 1 3 2 3 -1 3 -1 2 0z m38 -1 l-1 -2 -2 -8 -2 -8 -2 -4 -3
-3 -2 -8 -3 -8 -1 0 0 0 0 2 1 1 -1 0 -1 0 4 10 3 9 -1 0 0 0 2 2 2 2 0 1 1 2
-1 -1 -1 0 0 1 1 1 2 4 2 5 -1 1 0 1 1 0 1 -1 0 2 1 2 1 0 0 0 0 -3z m127 1
l0 -2 -1 -1 -1 -1 -1 1 -1 1 1 2 0 2 1 0 1 0 1 -2z m-232 -6 l-1 -2 0 5 0 5 1
-3 0 -2 0 -3z m-16 -1 l-1 0 0 2 -1 2 1 -2 1 -1 0 -1z m-26 1 l1 -2 -1 -1 -1
0 0 -2 0 -2 -3 -3 -3 -4 -1 -2 -1 -2 -1 -8 -1 -7 -5 -2 -5 -2 -2 0 -1 0 -1 2
-1 2 -2 0 -1 0 -4 5 -3 4 -3 3 -2 2 0 1 1 1 -2 1 -1 1 0 1 1 1 1 -1 2 -2 2 2
2 1 10 1 10 0 4 3 4 2 3 3 3 3 -1 1 0 1 1 0 1 0 0 -1z m135 -6 l-2 -5 -1 -3
-1 -2 0 1 0 1 1 5 2 5 0 1 -1 0 -2 -8 -3 -7 -1 0 0 1 1 4 2 5 2 3 1 4 1 -1 1
0 0 1 1 1 0 0 1 0 -2 -6z m16 2 l-1 -1 0 1 1 2 0 1 0 2 1 -2 0 -1 -1 -2z m38
2 l3 -1 -3 1 -2 0 -1 1 -1 1 1 0 1 0 2 -2z m-219 0 l-1 0 -3 -1 -2 0 1 1 2 1
1 0 2 0 0 -1z m73 -8 l0 -6 0 1 -1 1 0 5 -1 6 1 0 1 0 0 -7z m-91 5 l0 -1 -1
-1 -1 0 0 2 0 1 1 0 1 -1 0 0z m12 -2 l-1 0 -2 0 -2 1 1 1 0 1 2 -1 2 -1 0 -1z
m234 -10 l0 0 -4 2 -4 2 0 2 0 1 4 -3 4 -3 0 -1z m-235 5 l-2 -2 -1 1 -1 0 1
1 0 1 2 0 3 0 -2 -1z m-52 -2 l0 -1 -1 0 -1 0 0 1 0 1 1 0 1 0 0 -1z m35 -9
l0 -1 -1 0 0 0 -3 4 -2 5 3 -4 3 -3 0 -1z m232 0 l4 -5 1 0 2 0 4 -2 5 -2 4 0
5 0 1 -1 1 -1 -1 0 -1 -1 0 -1 1 -1 -2 -1 -1 -2 -5 -2 -5 -1 -1 -1 -1 -1 -2 0
-2 0 -3 -3 -3 -4 -1 0 -2 0 -1 2 -2 3 0 7 -1 8 0 7 -1 7 2 0 2 0 3 -5z m-48 1
l-1 -3 -1 0 0 1 1 2 1 3 0 0 1 0 -1 -3z m71 -1 l0 -1 1 -1 1 0 0 2 0 2 2 -3 3
-3 0 -2 0 -1 -4 2 -3 1 -2 1 -1 1 1 2 1 2 1 0 0 0 0 -2z m36 1 l2 -1 -6 -1 -6
-2 -1 0 0 1 2 1 3 1 1 1 1 0 1 0 0 1 1 0 1 0 1 -1z m-195 -2 l-1 -1 0 1 0 2 1
0 0 -1 0 -1z m-6 -4 l0 -3 0 0 -1 1 0 3 -1 3 1 0 1 0 0 -4z m-88 1 l1 -2 -2 1
-1 1 0 1 0 1 1 0 1 0 0 -2z m-22 -8 l0 -3 1 -1 1 0 1 -8 1 -7 0 -6 1 -6 -2 -1
-1 -1 -2 1 -2 1 -4 0 -4 0 -4 1 -4 2 -7 2 -7 1 2 2 1 1 2 0 1 -1 3 4 3 3 0 1
0 0 -1 2 -1 2 1 0 1 0 0 -1 0 -1 1 2 2 3 0 2 1 3 1 1 2 2 2 0 2 1 1 0 1 0 0 2
0 2 1 0 1 0 0 -2 0 -2 1 0 1 0 0 2 0 2 0 0 0 1 2 -1 1 -2 0 -3z m-8 3 l0 -1 0
0 -1 0 0 1 -1 1 1 0 1 0 0 -1z m-123 -3 l2 0 0 -2 0 -1 2 0 2 0 -1 -1 0 -2 5
-1 5 0 0 -2 0 -1 2 -2 2 -1 1 0 0 0 1 -1 1 -1 0 1 0 2 -1 0 -1 0 1 1 1 2 1 -2
0 -1 2 0 2 0 5 -5 5 -6 -1 0 0 -1 2 0 2 0 -7 7 -7 7 0 1 0 0 1 0 2 0 3 -3 3
-2 7 -6 7 -6 0 -2 0 -1 -1 0 -2 1 0 -1 0 -1 1 0 0 -1 1 -2 0 -2 -1 -2 -1 -1
-2 5 -2 4 -1 0 -1 0 0 -2 0 -2 1 -1 1 0 0 -3 -1 -2 1 1 1 0 0 -2 0 -2 1 -1 1
0 -1 -2 -1 -1 1 0 2 1 1 -1 1 -1 -2 -3 -2 -2 0 -2 0 -1 2 1 2 1 0 2 0 2 1 0 1
1 1 -2 2 -1 0 -1 0 -1 -1 0 -1 1 0 -2 0 -1 -1 0 0 1 -3 -3 -2 -2 -6 -7 -5 -7
-1 -3 -2 -4 -2 -1 -2 -2 -1 1 0 0 3 7 4 8 5 5 5 6 0 1 -1 0 -5 -5 -5 -5 -2 -5
-3 -5 0 -1 0 -1 -2 -2 -2 -3 -3 0 -2 -1 0 1 0 2 -1 -1 0 -1 -4 -2 -3 -1 -3 0
-2 0 1 -2 0 -2 -2 1 -2 0 -2 2 -1 2 0 2 0 1 -6 3 -5 3 0 -1 0 0 -1 1 -1 2 -3
0 -2 1 -1 -1 0 -1 -1 1 -1 1 -5 -1 -6 -1 -1 1 -2 0 0 2 -1 1 1 1 0 1 -1 0 -1
-1 -1 2 -1 1 -1 -1 -1 0 0 2 0 2 -3 5 -3 5 -1 2 -2 1 1 7 0 7 0 2 1 2 4 -1 5
0 2 -1 2 -1 1 0 2 1 -1 3 0 3 0 2 -1 2 -2 2 -2 2 -1 0 -1 0 1 1 0 2 6 3 6 3 4
3 5 2 1 0 1 0 0 1 0 1 3 1 4 1 1 0 1 -1 0 1 0 1 1 -1 1 0 0 1 0 1 0 0 0 1 2 0
3 0 1 -1z m38 -8 l3 -1 0 -1 0 -1 -1 1 -1 1 -2 0 -2 0 2 -2 1 -2 0 0 0 -1 -3
3 -3 2 1 0 1 0 0 1 -1 1 1 0 2 0 2 -1z m216 -8 l0 -1 -1 0 -1 1 -2 -2 -1 -2
-1 0 -1 0 0 1 0 1 2 0 1 0 0 2 -1 1 3 0 3 0 -1 -1z m168 -4 l-3 -4 -10 -10
-10 -10 1 2 1 2 5 4 4 5 0 0 -1 0 -3 -2 -2 -2 3 3 3 3 1 2 2 2 5 5 6 5 1 0 1
0 -4 -5z m8 0 l-4 -4 -5 -6 -5 -5 1 2 1 2 7 7 7 8 1 0 0 0 -3 -4z m-177 0 l-1
-1 -1 0 0 1 0 1 1 1 1 -1 1 0 -1 -1z m5 2 l0 -1 -1 0 -1 -1 0 1 0 1 1 0 1 0 0
0z m13 -1 l1 -1 -2 0 -3 1 0 0 0 1 1 0 2 0 1 -1z m9 -1 l2 -1 -2 1 -2 1 -2 -1
-1 0 1 1 2 1 0 0 1 0 1 -2z m31 -1 l1 -1 -1 -1 -1 -1 -1 1 0 1 -3 0 -3 0 -2 0
-2 0 0 1 1 1 2 1 2 0 1 0 0 1 2 -1 3 0 1 -2z m-13 2 l0 -1 -1 0 -1 -1 0 1 0 1
1 0 1 0 0 0z m19 -3 l0 -1 -2 0 -1 0 0 -1 0 -1 0 -1 0 -1 -1 0 -1 1 -1 1 0 1
1 0 1 -1 0 2 0 3 2 0 2 0 0 -2z m-80 -2 l2 -1 -1 -1 0 -2 2 -1 3 -1 0 -1 0 -1
1 -7 0 -6 -1 0 -1 1 -2 7 -2 7 -1 0 -1 1 -3 1 -2 0 -1 -1 -1 -2 -2 1 -1 0 0
-2 0 -1 -1 1 -2 2 -1 0 -1 -1 1 -1 0 -1 -1 0 -1 1 -1 -2 0 -2 1 -2 1 -2 0 -2
1 -2 -1 0 -1 0 0 1 0 2 -2 4 -3 5 0 1 0 1 2 2 1 2 1 0 2 0 -2 -1 -1 -1 1 0 2
-1 0 2 0 1 1 0 0 0 2 -2 1 -1 -1 1 0 2 2 1 3 0 0 1 0 1 2 0 2 1 1 0 1 0 2 -2z
m44 0 l1 -2 1 0 1 0 0 1 -1 1 1 0 1 0 0 -5 -1 -5 1 0 2 0 -2 -1 -1 0 -1 -5 -1
-5 -1 0 -1 0 0 2 -1 2 0 4 -1 4 -1 2 -1 3 -6 0 -5 0 0 -2 0 -1 -1 -1 -1 0 -1
1 -1 1 -1 -1 0 -1 1 -1 1 0 1 -2 1 -2 -1 0 -2 1 -1 -1 0 -2 -2 0 -2 0 0 6 -1
5 2 1 2 2 2 0 2 1 0 -1 1 -1 2 2 2 2 5 0 6 -1 2 -1z m21 0 l5 -1 2 -1 2 -1 1
-1 1 -2 -1 0 -2 0 0 0 -1 1 -2 -2 -2 -2 0 2 0 2 -1 0 0 0 -2 -2 -1 -1 1 2 0 2
-1 0 -1 -1 0 1 0 2 -2 -1 -2 -1 1 -2 0 -1 -1 0 0 1 -2 -6 -3 -6 -2 -1 -2 0 0
1 0 1 2 0 1 1 0 1 0 1 -1 0 -1 -1 0 1 -1 2 2 5 1 5 2 2 2 2 1 -1 2 0 5 -1z
m15 -3 l1 0 0 -1 1 -2 -2 1 -2 1 0 2 0 3 1 -2 0 -2 1 0z m-64 -2 l0 -3 -1 0
-1 0 0 1 0 2 -1 -2 -1 -1 -1 0 0 1 -2 -1 -1 -1 0 1 0 2 1 1 0 2 3 0 4 0 0 -2z
m79 1 l0 -1 0 0 -1 0 0 1 -1 1 1 0 1 0 0 -1z m-46 -3 l-1 -1 1 2 0 2 1 -1 0
-1 -1 -1z m41 0 l-1 -1 1 0 1 0 0 1 0 1 2 -1 2 0 -1 -1 -1 0 0 -1 0 -1 3 0 3
0 -1 -4 0 -4 2 2 3 3 7 -4 6 -3 1 -3 1 -2 -3 -5 -3 -6 -2 -1 -2 -2 0 1 0 2 2
5 3 6 -1 0 0 1 1 0 1 0 0 1 0 1 -2 0 -2 0 -2 2 -2 1 1 1 0 1 -2 -1 -2 0 -1 0
0 0 -1 -3 -2 -2 0 1 0 2 -5 0 -4 0 0 2 1 2 -2 -1 -1 0 1 3 1 3 0 1 0 1 -2 -1
-1 0 0 1 1 2 1 0 1 1 0 0 0 0 0 -1z m-117 -2 l2 -1 2 -8 3 -7 -1 -2 -1 -2 -1
1 -1 0 -2 5 -2 5 -2 1 -1 2 0 1 0 2 -2 0 -1 1 -5 -5 -5 -5 -1 1 -2 0 0 2 -1 3
2 1 3 2 -2 -1 -1 0 -4 -3 -3 -2 -1 1 -2 0 1 2 0 2 -2 -1 -1 0 1 1 1 2 1 0 1 0
0 -2 0 -1 3 1 3 0 7 3 7 3 3 0 3 0 1 -2z m242 0 l-1 -1 0 1 0 2 1 0 0 -1 0 -1z
m-4 -5 l0 -1 1 0 0 0 3 2 2 3 -1 -2 -1 -2 3 -3 4 -4 0 -1 0 -1 0 -3 0 -3 1 -1
2 -2 0 -2 0 -1 1 1 2 1 1 0 1 -1 0 -2 0 -2 1 -1 1 0 -1 -2 -1 -1 -2 -1 -2 -1
-3 0 -3 -1 -3 -2 -3 -1 -3 0 -2 1 0 1 0 1 -1 -1 -2 -1 0 1 0 1 1 2 1 2 2 6 2
7 0 6 0 6 -2 0 -1 0 0 0 -1 1 1 2 1 2 1 -1 1 0 -1 -2z m-35 -2 l-3 -3 2 3 3 4
1 -1 0 0 -3 -3z m-242 -2 l0 -1 -1 0 -1 -1 0 1 0 1 1 0 1 0 0 0z m404 -8 l3
-1 3 -2 3 -2 1 -4 2 -3 2 0 1 1 2 -3 1 -2 3 -2 2 -2 2 -1 1 -1 1 -3 0 -3 -3
-1 -3 -2 2 1 3 0 -4 -3 -3 -4 0 -1 1 -1 -1 0 -1 -1 1 -2 1 -1 2 -1 3 0 3 -1 3
0 0 -1 0 -1 -1 -2 -1 -2 -1 -2 -1 -2 1 -1 1 0 -1 -3 -1 -3 0 -3 0 -3 -2 -3 -2
-4 -1 -3 -1 -3 -2 0 -1 0 -1 -1 -1 0 -2 0 -2 0 0 -2 0 -2 -4 -2 -4 -1 -1 -2
-1 -2 -2 0 -1 0 0 -1 1 0 -1 -2 -1 -2 -1 1 -1 1 -6 -1 -6 0 0 -1 0 -1 6 0 6 1
0 0 0 -1 -4 -2 -5 -2 -1 0 -1 0 0 -1 0 -1 -2 1 -2 1 1 1 1 2 -1 0 -1 1 0 -1 0
-1 -2 0 -1 0 0 1 1 2 -7 0 -7 0 -2 1 -1 1 -1 -1 -1 0 -2 2 -3 3 -2 0 -1 1 -1
3 -1 3 -1 0 -1 0 -1 -3 -1 -3 -1 1 -1 0 0 1 1 2 -1 1 -1 2 0 4 0 4 -1 1 0 1
-1 1 0 2 -4 10 -4 11 2 1 1 2 -1 1 -1 1 2 2 2 1 0 2 0 2 1 0 2 1 0 2 1 3 -3
-3 -3 -3 0 1 0 2 1 1 1 0 0 2 0 2 2 1 1 1 1 -1 1 -1 1 1 0 2 -1 1 -1 1 1 2 1
3 -1 -2 -2 -1 -1 0 0 1 3 2 2 3 1 0 1 0 0 -1 0 -1 -1 0 -1 -1 0 -1 0 -1 2 3 3
4 3 3 4 2 1 0 1 0 4 2 4 2 3 4 3 4 1 0 1 0 0 -1 0 -1 -2 -1 -1 -2 1 0 2 0 2 3
3 4 0 1 0 1 -1 0 -1 0 1 1 2 1 8 -4 7 -4 4 0z m-397 2 l-3 -3 1 0 1 -1 -2 -2
-2 -2 -3 0 -2 1 -2 -3 -1 -2 2 -4 3 -5 -1 0 0 0 -4 4 -3 4 0 3 -1 3 3 3 4 4 3
2 4 2 2 0 2 -1 0 1 0 2 1 -2 0 -2 -2 -2z m74 2 l-1 -1 -1 0 0 1 1 1 0 2 1 0 0
-1 0 -2z m-84 1 l0 -1 -2 0 -2 -1 1 2 2 1 1 0 0 0 0 -1z m20 -6 l2 -2 -3 0 -2
1 0 -1 1 -2 -1 -1 -1 0 0 1 0 2 0 1 0 1 1 1 0 2 0 0 0 0 1 0 1 0 1 -3z m145 0
l0 -1 -1 -2 -2 -1 -1 1 -1 2 1 0 1 0 0 2 0 1 1 0 1 0 1 -2z m35 -5 l7 -4 0 -1
0 0 -2 -2 -1 -2 0 1 0 1 -3 2 -3 1 1 1 0 1 -3 2 -3 2 0 -1 0 -1 -2 0 -2 1 0
-1 0 -1 -2 1 -1 0 1 1 2 1 2 0 1 -1 -1 1 -1 2 1 0 0 1 2 0 1 0 6 -5z m3 3 l4
-2 0 -1 -1 0 -4 2 -3 3 0 0 1 0 3 -2z m119 -4 l0 -1 -2 0 -3 0 0 1 0 1 1 0 0
1 2 0 1 0 1 -2z m6 0 l-1 -1 -2 0 -2 0 1 1 2 1 2 0 2 0 -2 -1z m-418 -3 l2 -2
1 0 1 0 1 -2 2 -1 -2 1 -1 0 2 -3 3 -2 1 -7 1 -7 -1 -3 -2 -4 -6 2 -6 3 -11
-1 -11 -2 -2 -1 -3 0 0 1 0 2 2 2 1 2 2 0 3 0 2 1 3 1 4 4 4 4 -1 2 -1 3 1 4
0 4 1 0 1 0 1 0 1 1 1 0 0 1 2 -1 3 0 1 -2z m450 0 l0 0 -3 -3 -3 -3 -2 0 -1
0 -2 -1 -1 -1 0 2 1 2 1 1 1 1 1 -1 1 0 2 2 2 2 2 0 1 0 0 -1z m-43 -2 l-1 0
-1 0 -1 1 2 0 3 0 -2 -1z m-320 -7 l5 -6 0 -1 0 -1 -1 0 0 0 -3 3 -3 2 -3 2
-2 2 0 0 -1 0 0 -1 1 -2 -1 0 0 0 -1 2 -1 3 -1 -3 -1 -3 -1 0 0 0 -2 0 -2 0
-1 -2 0 -3 -1 0 -2 0 0 1 -1 0 1 3 1 2 3 3 3 3 2 0 1 0 2 2 1 1 1 -1 2 0 5 -6z
m97 5 l-1 -1 1 -2 1 -1 2 -8 2 -8 -1 -2 -1 -1 -1 2 -1 2 -2 -1 -1 -1 -1 0 -2
1 0 2 0 2 0 0 -1 -1 0 -3 0 -3 -4 0 -3 0 -1 -1 -1 -1 0 1 0 1 -1 2 0 2 1 0 1
0 0 6 0 5 0 0 1 0 1 -4 1 -3 0 3 -1 4 1 0 1 0 0 -4 0 -4 1 0 1 0 0 2 0 2 1 -2
0 -1 1 0 1 0 0 2 0 2 1 -3 2 -3 0 4 0 5 1 2 0 1 -1 0 -1 -1 0 3 1 3 1 1 1 1 0
0 0 0 0 -2z m-114 1 l0 -1 -2 -3 -3 -2 0 1 0 1 2 2 2 2 1 0 0 0 0 0z m240 -3
l-2 -1 -1 1 -1 1 3 0 3 0 -2 -1z m-131 -4 l-1 -1 0 2 0 3 1 -2 0 -1 0 -1z
m115 1 l0 -2 -4 -3 -3 -3 -1 0 -1 0 1 3 2 3 1 0 2 1 0 1 0 2 1 0 2 0 0 -2z
m11 1 l-1 -1 -2 -2 -2 -1 -1 1 0 1 1 1 1 1 1 -1 1 0 0 1 0 1 1 0 1 0 0 -1z
m122 -1 l-2 -2 -1 0 -1 0 0 0 0 1 3 1 3 2 0 0 1 0 -3 -2z m-363 -1 l0 -2 -1
-1 -1 -1 -1 0 -1 0 1 2 2 3 0 0 1 0 0 -1z m356 -3 l-2 -2 -8 -4 -8 -4 -1 0 0
1 3 2 3 1 0 2 0 2 5 2 5 2 1 -1 2 0 -1 2 0 1 1 -1 2 -1 -2 -2z m-109 2 l1 -2
-3 0 -2 1 -1 1 0 1 2 0 3 0 0 -1z m-15 -2 l0 0 -2 -3 -3 -2 0 1 0 1 1 0 1 0 1
2 0 2 1 0 1 0 0 -1z m21 -4 l1 -1 1 -2 1 -2 -1 -1 -1 -1 1 -2 0 -1 -1 -2 -1
-1 -7 -7 -6 -7 -2 1 -1 0 1 1 0 1 -1 0 -1 0 2 2 2 3 2 2 2 2 0 -1 0 -1 1 2 1
2 2 1 2 1 0 2 0 2 -2 1 -1 1 0 2 1 1 -1 -1 -1 0 -1 1 0 2 -2 0 -2 0 0 -1 0 -1
-5 -3 -4 -3 -1 1 -1 1 3 4 4 4 0 -2 -1 -1 2 2 1 2 6 0 6 -1 2 -2z m-82 -4 l-1
-4 -2 -6 -1 -5 -2 0 -2 0 0 1 0 2 0 2 0 2 1 2 2 2 0 2 1 2 0 -3 0 -3 1 0 1 1
0 5 1 5 1 0 0 0 0 -5z m193 4 l0 -1 -2 -1 -1 -1 1 1 0 2 1 0 1 0 0 0z m-366
-6 l-1 0 -2 1 -2 1 1 2 1 1 2 -2 1 -2 0 -1z m327 5 l0 -1 -2 -1 -2 -1 1 1 2 2
1 0 0 0 0 0z m13 -2 l-2 -2 0 -1 0 -1 -2 -2 -3 -2 0 0 -1 0 1 1 0 2 -1 -2 -1
-1 -7 -2 -7 -3 0 0 0 1 6 3 6 3 3 3 3 2 3 1 3 2 0 0 1 0 -2 -2z m22 1 l0 -1
-2 -2 -1 -1 0 1 1 2 -1 0 -1 0 -1 -1 -1 -2 1 0 0 0 -1 -1 -1 -2 -1 0 -1 1 -2
-2 -2 -3 0 0 1 -1 -2 0 -2 0 1 2 2 1 5 5 6 5 1 0 1 0 0 -1z m-200 -4 l0 -3 1
1 2 1 -1 -4 -1 -4 -1 0 -1 1 0 1 0 2 -1 -2 -2 -2 -1 2 0 1 2 5 2 4 1 0 1 0 -1
-3z m-326 1 l1 -1 -2 0 -2 0 1 1 0 1 1 0 1 0 0 -1z m319 -4 l-1 -4 -1 0 -1 0
0 1 0 0 2 4 2 4 1 0 0 -1 -2 -4z m-315 3 l-1 -2 3 -1 2 -2 0 0 1 0 0 1 0 2 2
0 3 1 -1 -1 0 -1 1 0 2 0 3 -3 4 -3 0 -1 -1 0 -1 1 -2 2 -2 1 -2 2 -1 0 0 -1
2 -2 2 -1 2 -3 3 -3 -2 -2 -1 -1 0 1 1 2 -1 0 -1 0 -4 3 -4 4 0 -1 0 -1 1 -2
1 -1 1 0 1 1 3 -5 2 -4 -1 -1 -1 -2 1 0 0 -1 1 0 1 0 0 2 1 1 2 -2 3 -2 1 -4
2 -4 2 0 1 1 0 -2 0 -1 1 1 1 0 0 -1 0 -2 1 0 2 0 1 -2 0 -3 0 -1 -1 -1 1 0 1
0 -2 -4 -1 -4 -2 -5 -1 -4 1 -1 1 -1 -1 -1 0 -2 -1 0 -2 0 0 -3 -1 -2 -2 -3
-1 -2 -2 1 -2 0 1 5 1 5 2 3 1 3 0 1 0 2 1 0 1 1 1 3 0 4 2 2 2 2 0 2 0 1 -1
-1 -1 0 -3 -7 -3 -6 0 -2 -1 -2 0 0 0 0 -3 -8 -3 -8 -3 -1 -3 -1 0 -3 -1 -2
-1 0 -1 0 -7 -6 -7 -6 1 0 1 0 0 1 1 1 2 0 2 1 0 -1 0 -2 -3 -1 -2 -1 -1 1 -1
0 -8 0 -7 0 -5 3 -6 2 -3 -1 -4 -1 -2 -1 -1 0 -4 -1 -4 -2 -1 1 -1 2 -1 -2 0
-1 -1 0 -1 0 0 2 0 1 -2 2 -1 1 -3 11 -2 12 0 1 -1 1 0 1 -1 2 -1 9 -1 10 1 2
2 2 2 0 2 -1 1 1 2 2 1 0 2 1 -1 1 -1 2 0 1 0 1 0 1 -1 2 -3 1 -2 1 0 1 0 1 3
2 4 2 5 6 5 6 5 2 6 3 0 1 0 1 2 0 2 -1 3 0 3 -1 2 2 2 1 1 0 1 0 0 -1 0 -1 4
-1 5 0 1 0 1 -1 0 1 0 2 3 0 2 0 0 1 0 1 1 0 1 0 0 -1z m154 -3 l0 0 -1 0 -1
1 0 1 0 1 1 -1 2 -1 -1 -1z m69 -3 l3 -5 2 -1 3 -1 0 -1 0 -1 -1 0 -2 0 0 -2
0 -2 -1 0 -2 -1 -2 4 -1 4 -1 0 -1 0 0 1 0 1 1 0 1 0 1 -3 2 -3 1 0 0 1 -3 6
-4 6 0 1 -1 2 1 -1 2 0 2 -5z m-181 4 l2 -1 -4 0 -3 0 -2 -1 -3 -1 0 1 0 0 3
2 4 1 0 0 1 0 2 -1z m186 -2 l-1 -1 -1 2 -1 3 2 -2 1 -2 0 0z m8 -2 l3 -3 0
-1 0 -1 -2 1 -1 2 0 -2 1 -1 -1 0 -2 0 -2 3 -2 4 0 0 0 1 1 0 2 -1 3 -2z m-83
-1 l1 -1 -1 1 -2 0 -1 -1 -1 -1 0 -4 -1 -3 2 -1 2 -1 -1 -2 0 -1 1 0 1 0 0 -1
0 -2 2 0 1 0 0 -1 0 -1 -2 1 -1 0 0 -1 1 -1 1 0 2 0 0 -1 -1 -1 2 -2 3 -1 0
-2 0 -1 -1 0 -1 0 0 1 0 1 -4 2 -3 3 -1 0 -1 0 -1 1 0 2 -1 1 -2 1 -1 3 -1 3
0 1 0 1 0 1 1 2 0 2 1 3 2 1 3 1 0 0 1 0 1 -2z m4 1 l0 -1 -1 0 -1 0 0 1 0 1
1 0 1 0 0 -1z m335 0 l0 0 -5 -4 -6 -3 -3 -1 -2 -1 1 1 0 1 7 4 8 4 0 0 0 0 0
-1z m10 -1 l-1 -1 -2 -2 -1 -1 -6 -4 -6 -3 -1 0 0 1 5 3 5 3 0 1 0 1 1 0 1 -1
3 3 3 2 0 0 0 0 -1 -2z m-269 -5 l0 -1 -2 3 -3 3 0 1 0 1 2 -3 3 -3 0 -1z
m-91 4 l-1 0 -1 0 -1 1 1 0 2 0 0 -1z m387 -1 l-1 -2 -1 0 -1 0 0 1 0 1 1 1 1
1 1 0 1 0 -1 -2z m-387 -2 l-1 -1 0 1 0 2 1 0 0 -1 0 -1z m281 0 l4 -1 2 -3 2
-2 1 -3 0 -4 -1 -1 -1 0 0 -2 0 -2 -2 0 -1 0 1 1 1 2 -1 2 -1 2 1 0 0 0 -1 1
-1 2 -2 -1 -1 0 1 1 2 2 -2 3 -3 2 -4 -2 -3 -2 -1 -1 0 -1 -1 0 -1 0 -2 -1 -1
-2 -1 0 -1 0 3 3 4 2 3 4 3 3 0 0 1 0 3 -2z m50 0 l-2 -1 -3 -2 -3 -2 2 2 2 3
2 1 3 1 0 0 0 0 -1 -2z m50 0 l2 -1 0 0 1 0 0 -1 -1 -1 3 -9 4 -8 2 -11 3 -10
0 -3 0 -3 -1 0 -1 1 -1 7 -1 7 -3 8 -2 8 -2 4 -2 4 1 1 0 1 -1 0 -2 0 -1 -1
-1 -1 0 1 0 2 -1 0 -1 0 0 2 1 2 -2 -1 -1 0 2 2 2 2 0 -1 1 -1 2 0z m-166 -6
l0 -2 -2 0 -1 0 0 -1 0 0 0 -2 0 -1 -1 0 -1 1 0 -1 -1 -1 1 0 1 0 -1 -2 0 -1
-2 2 -2 1 5 5 4 4 1 0 0 -1 -1 -1z m78 1 l1 -1 -1 1 -2 0 0 1 0 0 1 0 1 0 0
-1z m68 -2 l-2 -1 -2 -1 -2 0 -1 0 0 0 -1 0 0 0 -4 -3 -3 -2 1 1 2 2 4 3 5 4
3 -1 2 0 -2 -2z m-360 -3 l0 -2 1 -1 2 0 0 -2 1 -1 -2 1 -2 1 -1 0 -1 0 0 0 1
1 -1 3 -1 3 1 1 0 1 1 -1 1 -1 0 -3z m-5 2 l0 -2 -1 0 -2 0 0 1 0 0 1 2 2 1 0
0 0 0 0 -2z m-95 -2 l2 -2 2 -2 2 -3 -2 1 -1 0 -2 2 -2 1 1 1 0 1 -3 1 -3 2 0
0 0 1 2 -1 2 0 2 -2z m441 3 l0 -1 -2 0 -1 -1 1 1 0 1 1 0 1 0 0 0z m-431 -2
l2 -1 -1 0 -1 0 -2 1 -1 1 1 0 1 0 1 -1z m-130 -5 l4 -2 -3 0 -2 0 -5 2 -5 1
-1 1 -1 1 1 1 1 1 3 -1 4 -2 4 -2z m126 1 l-1 0 -1 1 -1 1 1 -1 2 0 0 -1z m10
1 l0 -1 -1 0 -1 0 0 1 0 1 0 0 1 0 1 -1z m306 -1 l-1 -2 -2 -2 -2 -3 -2 0 -1
0 0 1 0 0 3 4 3 3 1 0 1 0 0 -1z m5 -1 l-2 -2 0 -1 0 0 -3 -4 -3 -3 -1 1 -1 1
5 5 4 5 2 0 1 0 -2 -2z m70 1 l1 -2 -2 0 -2 0 0 -1 0 -1 2 0 1 -1 1 1 1 2 0
-3 0 -3 -1 -1 -1 0 -1 1 -1 2 0 -2 0 -1 0 -2 0 -1 -2 0 -1 1 -2 0 -2 0 0 1 1
1 2 3 2 2 -1 1 -1 0 1 2 1 2 1 0 2 0 1 -1z m72 -1 l-1 -1 2 -7 2 -6 0 -3 0 -3
1 -3 2 -3 0 -3 1 -3 -2 -1 -2 0 1 -2 0 -1 1 0 1 0 0 2 0 1 1 0 2 0 0 -1 1 -1
-1 -1 -1 -2 -3 1 -2 1 0 -1 0 0 -1 2 -1 2 -4 0 -3 0 -6 0 -5 1 -4 1 -4 1 0 4
1 4 0 3 0 3 9 8 8 8 0 -2 -1 -1 3 2 3 2 2 0 2 0 -2 -1z m-155 0 l0 -1 -2 -2
-2 -1 1 2 2 2 1 0 0 0 0 0z m-209 -5 l5 -3 1 -1 2 -1 1 -2 0 -1 -1 0 -2 0 -3
3 -3 3 -3 1 -2 1 -2 0 -2 0 -2 -4 -2 -4 -2 0 -1 1 1 -1 0 -1 1 -2 0 -1 1 -2 2
-2 -2 0 -3 1 0 3 0 3 0 2 0 2 3 4 2 4 3 0 4 0 4 -3z m51 2 l2 -1 -1 -1 0 -1
-2 1 -1 0 1 -2 2 -2 -1 0 0 -1 3 -3 2 -2 -2 -1 -2 -1 0 -2 -1 -2 -1 0 -1 0 -3
4 -3 5 3 -2 3 -1 1 1 1 0 2 -1 2 -1 -3 2 -2 3 -1 -1 -1 0 0 0 1 1 -1 2 -1 3 1
-2 2 -1 0 1 0 0 -2 3 -2 2 1 -1 2 -1 0 1 -1 2 1 0 0 0 2 -1z m-152 -6 l0 -1
-2 1 -1 2 -2 0 -2 1 0 1 0 1 3 -2 3 -2 1 -1z m158 2 l3 -2 -1 0 -1 1 -1 0 -1
0 1 -1 1 -2 -1 0 -1 -1 -1 1 -1 1 0 0 1 0 -1 1 -2 2 0 1 1 1 1 0 1 0 2 -2z
m-145 -3 l3 -1 -1 -1 0 0 -2 0 -2 0 -2 1 -2 1 0 1 0 1 1 0 1 0 4 -2z m370 1
l0 -2 -2 0 -2 0 2 1 2 2 0 0 0 0 0 -1z m16 0 l0 -1 0 0 -1 0 0 1 -1 1 1 0 1 0
0 -1z m-257 -2 l2 -1 -2 1 -2 1 0 1 0 0 0 0 1 0 1 -2z m251 -2 l1 -1 -1 1 -1
0 0 -1 0 0 3 -5 2 -4 0 -1 -1 -1 0 1 0 2 -1 0 -1 0 -3 -2 -3 -3 -3 -1 -4 -2
-1 0 0 0 0 2 0 1 5 3 5 3 0 1 0 2 -3 1 -2 2 2 2 2 1 1 -1 2 0 0 1 0 1 0 0 1 0
0 -2z m-379 -4 l1 -1 -1 1 -2 0 0 1 0 0 1 0 1 0 0 -1z m68 -2 l1 -2 -2 0 -2 0
1 1 0 0 -2 2 -2 1 1 0 2 -1 0 1 0 1 1 0 1 -1 1 -2z m319 -4 l1 -2 -1 0 -1 0 0
1 0 2 -1 2 0 2 1 -1 1 -1 0 -3z m-326 0 l0 -1 -3 -3 -2 -2 0 1 0 2 2 3 3 2 0
0 1 0 -1 -2z m4 -4 l1 -2 -1 0 -1 -1 -1 0 -1 1 -1 -3 -1 -2 0 -2 0 -1 -1 0 -2
0 0 -1 0 -1 1 0 1 0 0 -2 -1 -1 3 1 3 0 -3 -1 -2 -2 1 -1 0 -1 0 0 -1 0 -3 2
-2 1 0 2 0 1 3 6 2 7 2 1 1 1 1 0 1 0 1 -2z m274 1 l-1 -1 -3 0 -2 -1 3 1 3 2
1 0 1 0 -2 -1z m-16 -2 l-3 -1 -3 -1 -2 -1 0 1 0 1 4 1 5 2 1 0 2 0 -4 -2z
m65 1 l0 -1 0 0 -1 0 0 1 -1 1 1 0 1 0 0 -1z m-63 -4 l-4 -2 0 -1 0 -1 3 1 4
1 1 1 1 1 1 0 0 -1 -3 -1 -3 -2 0 -1 1 0 2 1 2 1 1 0 1 0 -3 -2 -2 -2 2 1 2 0
-1 -1 0 -1 3 2 4 3 2 1 2 1 0 -1 -1 -1 -8 -6 -7 -6 -2 1 -1 2 0 2 0 3 -2 0 -2
1 1 1 1 0 -2 2 -2 2 2 1 3 1 1 0 1 1 3 0 4 0 -5 -2z m-330 -6 l5 -5 3 -2 4 -2
-1 -2 0 -1 -3 0 -2 1 0 -1 -1 -1 -4 -1 -4 0 -3 -1 -2 -2 -4 0 -3 -1 0 1 0 1 0
1 -1 2 2 3 1 3 1 0 1 0 0 2 -1 2 1 1 1 0 0 3 0 4 1 0 0 1 2 -1 2 -1 5 -4z
m-24 3 l-1 -1 1 1 0 2 1 0 0 -1 -1 -1z m364 2 l0 -1 -2 -1 -1 -1 1 1 1 2 1 0
0 0 0 0z m-362 -4 l-1 -1 0 0 0 1 1 1 0 2 1 0 0 -1 -1 -2z m502 2 l2 0 0 -1 0
0 -2 -2 -3 -1 -1 2 -1 1 0 1 0 1 2 0 1 -1 2 0z m13 -3 l2 -1 -1 0 -2 0 -2 1
-3 1 0 1 0 1 2 -1 3 0 1 -2z m-371 0 l3 -1 0 -1 -1 -1 2 0 1 1 1 -2 0 -1 -1 0
-2 -1 -3 2 -3 1 0 3 -1 2 1 0 0 0 3 -2z m360 -2 l-2 -1 -1 1 0 0 0 1 1 1 2 -1
3 0 -3 -1z m-262 0 l1 -1 1 -1 2 0 -1 2 0 2 3 -3 3 -2 0 -1 0 -1 -3 -1 -3 -1
6 -1 6 -1 6 -2 6 -3 3 -2 4 -2 0 -3 1 -2 2 0 2 1 0 -2 0 -1 1 0 1 0 0 -2 0 -3
1 0 2 0 0 -2 1 -1 2 -4 3 -4 0 -2 1 -1 1 -3 0 -3 1 -1 0 0 1 1 1 1 -2 6 -1 6
0 1 1 0 1 0 1 -1 1 -4 1 -3 0 -6 1 -5 -1 0 -1 0 0 -1 1 -1 -1 0 -1 -1 1 -1 0
-2 -1 -4 -1 -5 1 -1 1 -1 -2 -2 -1 -2 -1 1 -2 0 -1 -5 -1 -5 -4 -5 -3 -5 -5
-4 -5 -3 -2 0 -1 0 -5 -3 -4 -2 0 1 0 0 -1 -1 -1 -1 -7 0 -6 1 -3 -1 -3 -1 -4
2 -4 2 -4 0 -3 0 0 -2 -1 -1 -1 0 -1 1 0 -1 0 -1 -1 0 -2 0 0 1 0 1 -2 1 -3 0
0 1 0 2 -4 2 -3 3 -3 3 -2 3 -2 3 -1 3 0 1 0 2 -2 4 -3 5 0 -1 -1 0 0 2 0 3 0
9 -1 10 2 2 1 2 -2 0 -2 -1 0 2 0 1 2 0 2 -1 0 2 1 1 -1 1 0 1 -2 -2 -1 -1 1
3 0 3 2 2 2 3 1 0 1 0 -1 -2 -1 -1 0 -1 1 0 7 8 6 9 2 -1 1 0 2 2 3 1 -1 1 0
2 0 -1 1 -1 3 2 3 2 0 -1 0 0 1 1 2 1 4 1 4 1 3 1 3 0 1 0 0 1 0 1 -1 1 -5 -1
-5 0 -4 -2 -3 -1 0 1 1 1 6 3 7 2 0 1 0 2 1 0 1 1 0 0 1 0 0 -1z m172 0 l0 -1
-4 0 -3 -1 -1 0 0 1 3 1 4 1 0 0 1 0 0 -1z m-269 -5 l5 -1 -5 0 -4 1 -1 1 -1
1 -2 0 -1 0 0 1 0 1 2 -1 3 -1 4 -2z m273 1 l0 1 2 -4 2 -3 0 -1 0 -2 1 0 1 0
0 1 -1 1 1 0 1 0 0 -1 0 -2 1 0 2 0 -2 -1 -1 -1 -1 1 -1 2 0 -1 0 -1 0 -3 0
-3 -2 -4 -2 -3 0 1 0 1 -1 -1 -2 0 0 1 -1 1 3 1 2 1 0 2 0 2 -2 0 -1 0 2 2 2
2 -2 0 -2 0 0 2 1 3 -3 1 -4 1 -3 0 -3 0 -1 -1 -2 -1 -4 -1 -5 0 0 0 0 1 3 2
2 1 9 3 9 2 0 -1 1 -1 1 0z m-21 -2 l-2 -1 -2 0 -2 0 1 2 2 1 2 0 3 0 -2 -2z
m-134 0 l0 -1 -1 1 -2 0 0 1 0 0 2 0 1 0 0 -1z m290 -1 l-1 -1 -3 0 -2 0 0 0
0 1 3 1 4 1 0 -1 0 0 -1 -1z m26 -5 l5 -3 3 0 2 0 3 -5 2 -4 3 -4 4 -3 4 -7 4
-7 0 -1 0 -1 1 0 2 -1 -2 0 -2 0 3 -4 4 -4 0 -2 1 -2 -4 -4 -3 -5 0 -1 0 -1
-2 -2 -3 -2 0 -2 0 -2 -4 -4 -4 -5 -2 0 -2 0 -1 1 0 1 -1 -1 -1 0 0 1 1 1 -2
0 -1 1 -3 0 -3 0 -1 -1 0 -1 -3 0 -3 -1 0 1 0 1 1 0 2 1 -3 0 -2 0 0 -2 1 -1
-3 -1 -3 -2 -2 1 -1 0 0 -1 1 -2 -4 -1 -3 -1 0 -1 0 -1 -4 0 -3 1 1 -1 1 -1
-2 -1 -2 -1 -9 1 -9 0 -2 1 -1 1 1 0 2 0 3 0 3 0 -2 1 -2 0 0 1 0 1 -3 1 -2 1
1 1 2 1 -2 0 -2 -1 -2 1 -2 2 -1 2 -1 3 -2 1 -2 0 -1 -1 -1 -1 2 -1 2 0 0 -1
0 -1 -3 0 -2 0 -1 1 -1 1 -1 15 0 15 0 5 0 5 2 -1 2 0 0 3 -1 2 1 2 2 2 0 -1
0 -1 2 1 2 1 0 1 0 1 -2 0 -1 -1 3 3 4 4 2 1 1 1 0 1 -1 0 -1 -1 -1 -1 -1 0
-1 0 1 2 2 1 2 0 2 0 2 1 3 1 0 2 0 2 2 -1 2 0 3 2 2 1 7 1 8 0 0 0 0 0 1 1 2
0 3 2 3 2 0 1 0 1 1 1 2 2 2 -2 2 -1 4 -4z m-434 5 l2 -1 0 -1 0 -2 -3 1 -2 0
-2 0 -2 1 0 1 -1 2 3 -1 4 0 1 0z m283 -3 l-1 0 -1 0 -1 1 0 2 0 2 2 -2 1 -2
0 -1z m-343 2 l1 -2 -3 1 -3 1 0 1 0 0 2 0 2 0 1 -1z m13 -3 l2 -1 0 -1 -1 0
-4 2 -4 2 2 -1 3 0 2 -1z m180 -2 l1 1 -1 -1 0 -2 -1 0 0 0 -4 2 -3 3 0 0 0 1
3 -2 4 -2 1 0z m-283 2 l0 -1 0 0 -1 0 0 1 -1 1 1 0 1 0 0 -1z m91 -4 l5 -2 3
-1 4 -2 0 -1 0 -1 -2 -1 -1 0 -1 1 -1 2 -4 1 -4 1 -4 0 -4 1 0 0 0 0 -2 -6 -2
-5 3 -3 2 -2 0 -2 1 -1 -1 0 -1 0 -3 -1 -3 -1 1 10 0 11 1 2 2 3 2 0 2 1 1 -1
2 -1 4 -2z m345 -1 l0 -1 -1 0 -1 0 -1 3 -1 2 0 1 0 1 2 -3 2 -2 0 -1z m-344
3 l1 -1 -1 1 -2 0 0 1 0 0 1 0 1 0 0 -1z m200 -1 l2 -1 -2 0 -2 0 1 -2 1 -1 2
0 2 1 2 -5 2 -5 1 1 1 0 0 -1 -1 -1 -1 -1 -1 0 0 1 0 1 -2 2 -2 3 -2 0 -2 0 0
2 0 2 -1 1 -1 1 -1 1 0 2 1 0 1 0 2 -1z m205 0 l-2 -1 -4 0 -4 -1 0 1 0 0 2 1
2 1 4 0 5 0 -3 -1z m9 -4 l-1 -1 -4 -1 -4 0 -12 0 -12 -1 4 1 4 1 12 1 13 0 0
1 0 0 1 0 0 0 -1 -1z m6 0 l-1 0 -1 0 -1 1 2 0 3 0 -2 -1z m-78 -1 l0 -1 0 0
-1 0 0 1 -1 1 1 0 1 0 0 -1z m-453 -3 l-1 -1 -1 0 -1 0 -2 -2 -1 -1 -1 0 0 1
2 2 2 2 1 0 2 0 0 -1z m449 -5 l-2 -2 0 -2 0 -1 2 0 1 1 2 -2 2 -1 0 -2 0 -1
-1 1 -1 0 1 -3 2 -4 0 -5 0 -4 -1 1 -1 0 0 4 0 4 -1 2 -1 2 -2 1 -1 0 1 -1 1
-2 1 -5 0 -5 0 -2 1 -2 -2 0 -1 1 -3 0 -2 0 2 3 1 3 0 2 -1 3 -7 0 -7 -1 0 1
0 1 3 1 4 0 2 1 2 0 1 0 1 0 -1 1 -1 2 -1 1 0 1 3 -1 3 -1 2 0 1 0 -1 1 0 1
-1 0 0 -1 -2 1 -2 1 1 3 0 4 2 1 1 1 1 0 0 0 -1 -2z m-232 -8 l-3 -5 -1 -1 0
0 0 2 1 2 -1 0 -2 0 1 -1 0 -2 -1 0 -1 0 -1 1 0 1 2 2 1 1 2 -1 1 -1 0 1 0 2
-1 0 -2 0 0 1 0 1 2 0 2 -1 2 3 1 2 1 0 0 -1 -3 -6z m325 4 l-1 -1 0 1 0 2 1
0 0 1 1 -1 0 -1 -1 -1z m-146 -1 l0 -1 -2 0 -1 0 1 -1 0 -1 -1 0 -2 0 0 -1 1
-1 -2 1 -1 0 0 -1 1 -1 -3 -1 -2 -1 -1 0 -1 0 0 1 1 1 2 1 3 1 -3 0 -2 0 0 2
0 1 1 0 1 0 4 1 4 0 1 1 0 0 1 0 0 0 0 -1z m-433 -1 l0 -1 1 0 1 0 4 0 4 -1 0
-2 1 -1 0 -1 -1 0 -5 1 -4 1 -2 2 -2 1 0 -1 0 -1 -2 0 -2 0 0 -1 0 -1 -1 0 0
1 2 2 3 3 1 0 2 0 0 -1z m19 -1 l-1 0 -1 0 -1 1 1 0 2 0 0 -1z m63 -1 l2 -1 2
0 3 0 -2 -1 -1 -1 -11 1 -10 0 -1 0 -1 0 -6 0 -6 -1 0 1 1 0 8 2 8 1 6 -1 6 0
2 0z m496 0 l0 -1 -1 0 -2 0 -1 -2 -1 -2 0 -2 0 -1 -1 0 -1 -1 0 1 0 1 -2 -1
-1 -1 0 -2 1 -1 1 -9 0 -8 0 -11 1 -10 -1 -1 -1 0 -2 0 -2 1 0 2 0 1 1 0 2 0
-1 20 0 21 1 0 2 1 -1 1 0 2 1 -1 2 0 0 1 0 1 2 1 3 1 0 0 1 0 0 -1z m-566 -6
l1 0 2 -1 2 0 0 0 1 0 0 -1 0 -1 -2 0 -2 1 0 -2 1 -1 -2 0 -2 0 1 -1 2 0 -1
-3 -1 -2 2 0 1 0 1 -2 0 -1 3 -2 4 -1 1 -2 1 -1 0 1 -1 1 1 0 1 0 2 -2 2 -1 0
-1 -1 -1 1 -2 1 -2 2 0 1 0 0 -1 0 -1 1 0 1 0 0 2 0 2 -1 0 -2 0 -1 2 -1 1 2
0 2 0 0 -1 0 -1 3 -2 2 -1 0 2 -1 1 1 0 0 -1 1 -3 0 -3 -2 1 -2 0 2 -1 2 -2 0
-4 0 -3 2 -8 1 -7 1 -6 1 -5 1 0 1 0 0 1 0 1 -2 7 -1 8 -1 3 0 4 0 4 -1 5 1
-1 1 0 0 4 -1 5 1 0 2 1 0 -2 -1 -2 0 -1 -1 -1 1 -1 1 -1 0 -6 0 -6 2 -9 2 -8
2 -2 2 -1 0 -2 0 -2 -1 0 -1 0 0 1 -1 2 0 -2 0 -2 -3 -1 -2 -2 -1 2 0 2 -2 -2
-2 -1 0 1 0 1 -1 0 -2 0 0 -1 0 -2 -2 -1 -1 -1 -6 0 -5 0 0 -2 0 -1 -2 0 -1
-1 -1 0 -1 0 0 2 0 1 2 -1 3 0 -2 1 -1 1 -9 0 -9 0 -4 -1 -4 -1 -4 -4 -4 -3 0
-2 0 -1 -2 0 -1 1 -1 -3 -1 -2 -1 1 0 1 -2 0 -1 0 0 1 0 1 -4 1 -3 2 -3 1 -2
0 -4 2 -3 1 -1 3 -1 3 -3 1 -2 2 0 3 -1 3 -1 1 0 2 2 0 2 0 3 2 2 2 -2 0 -1 0
1 1 1 1 -1 2 0 2 -1 0 -1 0 1 2 0 2 -3 -1 -3 0 0 1 0 1 2 1 1 2 0 4 0 3 2 6 1
5 1 0 1 0 -1 3 -1 3 0 1 0 0 1 0 1 -1 0 2 0 3 2 1 3 1 4 5 4 5 1 -1 1 -1 3 2
2 3 3 1 3 0 1 0 2 0 0 1 -1 1 1 0 2 0 0 -1 0 -1 2 0 2 -1 -1 1 0 1 2 1 2 1 8
-3 7 -3 0 1z m80 3 l-1 0 -1 1 -1 1 1 -1 2 0 0 -1z m33 -1 l-1 -1 0 1 0 2 1 0
0 -1 0 -1z m300 -4 l-1 -2 -1 0 -1 0 0 1 1 1 -1 1 -1 0 2 1 2 1 0 -1 1 0 -1
-2z m-232 -2 l0 -1 -4 1 -3 0 3 1 3 1 0 -1 1 -1 0 0z m53 1 l0 -1 -1 0 -1 0 1
1 0 1 1 0 0 0 0 -1z m-110 -2 l-1 0 -1 0 -1 1 1 0 2 0 0 -1z m228 -6 l1 -3 -1
1 -1 2 0 3 -1 4 1 -2 1 -1 0 -4z m61 5 l0 -1 -1 -1 -1 0 0 1 1 1 -1 0 -1 1 1
0 2 0 0 -1z m-301 -1 l0 -1 -1 0 -1 0 0 1 0 1 1 0 1 0 0 -1z m10 -1 l0 -1 1
-1 2 -1 -2 0 -2 1 0 -5 0 -4 2 -1 3 -1 0 -1 0 -1 -1 1 -2 0 0 -1 0 -1 2 0 1
-1 3 0 2 0 0 -1 0 -1 -2 0 -1 0 -5 0 -4 0 -1 0 -1 0 2 1 2 1 -3 0 -3 0 0 2 -1
1 0 1 0 1 1 -1 1 0 0 -1 -1 -1 1 -1 1 0 0 3 -1 4 -1 0 -1 1 -1 -3 -1 -3 1 4 0
4 -2 0 -2 0 0 -1 0 -1 -2 1 -1 2 0 1 1 1 2 0 3 0 -2 -1 -1 -1 1 0 2 0 1 2 2 2
-1 -3 0 -3 1 0 1 0 0 1 0 2 1 3 1 3 2 0 1 0 1 -2z m58 1 l1 -1 0 -2 -1 -2 1 0
1 0 -1 -1 0 -2 -3 1 -2 0 -2 2 -1 1 -3 0 -3 0 1 1 2 0 -1 1 -1 1 4 0 4 0 0 1
-1 1 2 0 2 0 1 -1z m361 -9 l0 -9 0 -3 0 -3 1 -1 1 0 0 -2 1 -2 -4 0 -5 0 -8
2 -8 1 -5 2 -5 1 0 3 1 2 3 1 3 1 6 5 7 4 2 2 3 2 1 0 2 -1 2 2 2 2 0 0 1 0
-1 -9z m-302 0 l0 -2 -1 1 -1 1 1 1 0 1 1 0 0 0 0 -2z m237 0 l-1 -1 0 -1 1
-1 -2 -1 -2 -1 0 1 0 1 1 2 1 3 2 -1 1 0 -1 -1z m-124 -4 l0 -2 -1 0 -1 0 0 1
0 1 1 0 0 1 1 0 0 0 0 -1z m101 -2 l0 -2 -1 0 -2 0 0 1 0 2 1 0 2 1 0 0 0 0 0
-2z m14 1 l0 -1 -3 1 -3 0 0 1 0 0 3 0 3 0 0 -1z m-404 -3 l4 -1 6 -6 7 -6 1
0 1 0 1 -2 1 -1 -2 -2 -2 -2 1 0 2 1 0 -1 0 -1 -6 -2 -6 -3 -1 0 -2 0 -4 -3
-4 -3 -1 0 -1 0 1 -1 0 -1 -1 -1 -1 -2 -3 1 -3 0 0 -1 0 -2 -2 -1 -2 -2 0 1 0
1 1 3 1 2 -1 2 -1 1 0 0 1 1 2 1 2 1 -1 1 0 2 2 5 2 6 -1 3 -1 2 -1 1 -1 1 -1
3 -1 4 2 1 1 0 0 2 0 1 4 -1 4 -1 3 -1z m394 0 l-1 0 -1 0 -1 1 1 0 2 0 0 -1z
m17 -5 l2 -1 0 -3 0 -3 1 0 1 0 0 1 0 1 1 0 0 -1 -1 -4 -2 -3 -3 -3 -3 -2 -3
0 -4 0 -1 0 -2 1 -1 1 -1 2 0 -2 0 -1 -1 0 -2 0 0 1 0 1 4 0 4 1 2 1 3 0 0 -1
0 -1 3 0 2 0 1 1 0 1 -2 1 -2 0 1 3 2 2 0 0 -1 0 -1 0 0 0 0 -1 0 0 -2 -2 -1
-2 -1 5 0 4 1 0 1 0 -1 1 0 1 -3 2 -3 1 4 -1 5 0 3 -1z m-352 0 l0 -1 1 0 1 0
4 0 4 -1 -1 1 -1 1 2 0 3 0 0 -1 -1 -1 3 0 3 0 -2 1 -1 1 0 0 1 0 1 1 2 0 0
-3 -1 -3 -8 -2 -8 -1 -2 -1 -1 -2 1 -1 1 -1 -2 -2 -2 -2 1 -2 0 -1 -2 2 -2 2
0 2 1 2 0 3 1 4 3 2 3 1 -3 -1 -3 0 -2 -1 -2 0 1 1 1 0 0 1 0 1 -2 -1 -2 -1 2
2 2 2 3 0 4 0 -1 -1z m296 -4 l1 -1 -1 0 0 -1 -4 2 -3 2 3 -1 3 0 1 -1z m-1
-2 l3 -2 0 -1 0 0 -3 0 -2 1 -2 1 -2 0 1 -1 1 -2 -1 0 0 -1 -1 0 -1 0 0 2 1 2
0 1 1 1 1 0 0 0 4 -1z m66 -2 l0 -1 -1 1 -1 0 0 1 0 1 1 0 1 0 0 -2z m-373 -8
l-1 -2 1 1 1 0 0 -2 0 -2 -1 1 -2 2 0 1 0 2 1 0 0 1 1 0 0 0 0 -2z m74 -1 l-2
-2 -2 1 -2 0 2 1 3 1 1 0 1 0 -1 -1z m-66 -2 l-1 0 1 -2 1 -1 -1 -1 0 -1 -1 2
-1 2 0 1 0 1 1 0 1 0 0 -1z m68 0 l0 -2 -1 -1 -1 -1 -5 -1 -5 0 0 0 1 1 4 2 5
3 0 0 1 0 1 -1z m275 -3 l4 -1 0 -1 0 -2 2 -1 1 -1 0 -3 0 -4 -1 -3 -1 -3 1 1
1 0 0 2 0 1 1 0 1 0 0 -1 -1 0 -2 -5 -2 -5 -4 -1 -3 0 1 -2 1 -1 -1 0 -1 0 -4
2 -4 2 -1 0 -2 0 0 1 0 1 -1 0 -1 -1 0 1 0 1 0 0 1 0 3 -2 4 -1 4 1 4 1 1 1 1
2 0 3 0 4 -1 0 -1 -1 -2 2 -1 1 -4 1 -4 0 -1 1 0 1 2 0 3 0 0 1 1 1 1 -1 2 0
0 1 1 1 -4 4 -3 3 2 0 2 0 5 -1z m-216 -2 l0 -1 -1 0 -1 0 0 2 -1 1 1 0 1 -1
1 -1z m231 -2 l0 -4 1 -2 2 -1 -2 0 -2 -1 -3 4 -3 3 1 0 1 -1 1 3 1 3 2 0 2 0
-1 -4z m-290 0 l-1 -2 1 0 1 0 -1 -1 -1 -2 -5 0 -5 -1 1 1 2 0 -1 1 -1 2 1 1
1 0 3 1 3 1 2 0 2 0 -2 -1z m438 0 l0 -1 -3 -1 -3 -2 0 1 0 0 1 2 2 1 1 0 2 0
0 0z m-492 -2 l0 -1 -3 -1 -2 -1 -1 0 0 1 0 2 1 1 3 0 2 0 0 -1z m43 -1 l0 -1
-1 0 -1 0 1 1 0 1 1 0 0 0 0 -1z m76 -2 l-1 -1 -1 0 -1 0 1 1 2 2 0 -1 1 0 -1
-1z m290 0 l5 -1 -4 0 -3 0 -6 1 -5 1 4 0 4 0 5 -1z m50 0 l0 -1 -2 0 -1 0 -2
1 -1 1 3 0 3 0 0 -1z m40 -3 l2 -1 2 -7 1 -6 1 -4 1 -4 1 -9 1 -8 3 -7 2 -7
-1 -2 0 -2 -3 0 -2 0 -2 0 -1 0 1 -1 2 -1 -2 -1 -1 -1 -2 0 -2 0 -1 -1 -1 -1
0 -2 0 -2 1 -4 1 -3 -2 -2 -2 -2 -4 -2 -4 -1 0 -2 -1 -2 -3 -1 -4 -2 -2 0 -3
0 0 2 0 1 -1 0 -1 0 0 -1 -1 -1 -1 0 -1 0 0 1 0 2 0 3 0 4 -2 0 -2 -1 0 3 1 2
-1 0 -1 0 -3 -3 -2 -2 -1 1 -1 1 1 0 1 0 -4 1 -4 2 -1 -1 0 0 2 -1 2 -2 -1 0
0 0 -3 0 -3 -1 -5 1 -5 1 -6 4 -6 3 0 1 0 1 -1 0 -1 -1 -1 2 -1 3 -2 1 -1 1 0
0 1 0 -1 2 -1 3 0 0 0 1 -1 0 -1 0 0 2 1 1 -2 0 -1 0 0 2 0 1 2 3 1 3 2 9 1 9
0 2 0 2 -1 0 0 -1 -1 -6 -1 -5 -3 -9 -2 -8 -1 -1 0 -1 -2 2 -1 2 0 1 0 1 1 -2
1 -1 1 3 2 4 1 4 1 4 0 5 1 6 1 2 1 3 1 0 1 -1 0 1 0 2 0 0 0 1 1 0 2 -1 1 1
0 1 3 0 2 0 0 1 0 1 1 -1 2 -1 3 2 3 2 3 1 2 1 1 3 1 3 0 0 0 1 3 1 2 1 1 -1
1 -1 -1 -1 0 0 -1 1 0 1 -1 0 -1 0 1 -1 0 -1 -1 0 -1 1 1 -1 1 -1 3 0 2 0 1 1
1 2 5 0 4 0 -1 -1 -1 -2 8 0 7 0 0 1 0 1 1 0 1 -1 0 1 0 1 1 -1 2 -1 1 2 1 1
2 1 2 1 4 0 4 -1 2 -2z m-378 1 l1 -1 -1 1 -2 0 0 1 0 0 1 0 1 0 0 -1z m-208
-2 l-1 -1 0 1 0 1 1 0 0 1 1 -1 0 0 -1 -1z m78 0 l0 -1 -2 0 -2 0 1 1 2 1 0 0
0 0 1 -1z m202 0 l0 -1 -4 -2 -3 -2 0 -1 1 -1 -6 -2 -6 -2 0 -1 0 -1 -1 0 -2
0 0 1 -1 1 -2 -1 -3 -1 0 1 -1 1 4 1 3 0 5 3 6 2 1 1 2 1 -1 1 0 1 1 0 1 -1 3
1 3 2 0 0 0 0 0 -1z m7 -1 l-1 -2 -2 -1 -1 0 -1 -1 -1 -1 -1 0 -1 1 4 3 4 3 1
0 0 0 -1 -2z m-196 -3 l0 -1 -1 0 -1 0 0 1 0 1 1 0 1 0 0 -1z m268 -1 l1 -1
-1 1 -2 1 0 1 0 0 1 0 1 0 0 -2z m149 1 l0 -2 -1 0 -1 0 0 1 1 1 -2 0 -2 0 1
-1 0 -1 -1 0 -2 0 1 2 0 1 3 0 3 0 0 -1z m8 0 l-1 0 -2 0 -3 -1 1 1 0 1 3 0 2
0 0 -1z m-443 -1 l-2 -2 1 -4 1 -4 -1 0 -1 1 0 -2 0 -2 -1 0 -1 1 -1 1 0 2 1
0 1 0 1 1 0 2 -1 0 -1 -1 0 3 1 4 1 0 1 1 1 0 2 0 -2 -1z m204 0 l-1 -1 -1 0
-1 0 1 1 0 1 1 0 1 0 0 -1z m-195 -6 l1 -2 -2 -1 -1 -1 0 -2 0 -1 2 0 2 0 -1
-2 -1 -2 2 0 2 0 1 -1 0 -2 6 1 6 0 3 1 3 1 0 -1 0 -1 -8 -1 -7 -2 -4 1 -3 0
0 -1 0 -1 -1 0 -1 0 0 1 1 0 -2 2 -2 2 -1 3 -1 4 0 4 -1 5 1 -1 1 0 2 1 2 1 0
-1 1 -1 0 -3z m160 1 l3 -1 0 0 0 -1 -3 1 -2 0 -3 1 -3 1 0 1 0 1 2 -1 3 0 3
-2z m117 1 l2 -1 -1 0 -1 0 -1 1 -2 0 0 1 0 1 1 0 1 0 1 -2z m-347 0 l-1 0 -1
0 -1 1 1 0 2 0 0 -1z m347 -3 l1 -2 0 0 -1 0 2 -2 3 -2 -3 1 -3 2 -1 0 -2 0
-1 2 -1 1 1 0 1 0 0 1 -1 1 1 0 2 0 2 -2z m39 0 l1 -1 -1 1 -2 0 0 1 0 1 0 0
1 0 1 -2z m-369 1 l0 -1 -4 -1 -3 -1 -7 0 -6 -1 -4 -1 -4 -1 -1 1 0 0 1 0 2 1
5 1 6 1 4 1 5 0 0 1 0 0 3 0 3 0 0 0z m221 -1 l-1 0 -2 0 -1 1 3 0 3 0 -2 -1z
m112 0 l0 -1 0 0 -1 0 0 1 -1 1 1 0 1 0 0 -1z m-400 -2 l-1 0 -1 0 -1 1 1 0 2
0 0 -1z m305 -1 l0 -1 -2 -1 -2 0 -1 0 0 1 1 1 2 1 1 0 1 0 0 -1z m-300 -3 l5
-1 -1 -1 -1 -1 -1 1 -1 1 -2 0 -2 0 2 -2 3 -3 2 1 2 0 0 -1 1 -1 -1 0 -1 0 -6
0 -5 0 2 -1 3 -1 0 -2 0 -1 4 -1 4 -1 2 0 3 -1 3 -1 4 -1 1 -1 2 -1 -2 -2 -2
-1 1 0 1 0 1 2 2 1 3 -1 3 -1 0 0 0 0 1 -2 0 -1 2 -8 3 -7 1 -2 1 -1 -1 -2 -2
-2 0 -2 0 -3 -2 0 -1 0 -1 -1 -1 -2 2 1 2 0 -5 -9 -4 -9 -1 -1 -1 0 -1 -2 -1
-3 -6 -3 -6 -3 -3 -3 -2 -4 -4 -3 -4 -2 0 -2 -1 -1 0 -4 0 -3 1 0 1 0 -1 -1
-1 -2 -1 1 -1 0 -1 -2 -1 -1 -2 1 -2 1 0 -1 0 0 -3 3 -4 2 -2 0 -2 1 -8 2 -7
2 -3 4 -3 4 0 2 0 2 3 4 3 3 -1 1 0 1 -2 0 -1 0 0 2 0 1 -1 0 -2 0 0 -1 -1 -1
-4 0 -3 0 0 2 1 3 -1 1 -1 0 2 2 2 1 -2 0 -2 -1 0 3 1 4 2 9 3 10 1 2 1 1 -1
0 0 1 1 1 2 1 0 1 0 2 3 3 4 3 1 3 1 3 2 0 1 -1 0 1 0 1 -1 2 -1 2 4 0 3 0 -2
1 -1 2 -1 -1 -1 0 0 1 0 0 1 1 2 2 1 -1 1 0 0 2 1 2 3 1 3 0 1 2 1 1 0 0 -1 0
-2 -1 -2 -1 2 1 2 2 2 1 2 0 0 1 0 1 -2 0 -1 -1 -2 -1 -2 0 0 1 1 1 4 1 4 1 0
-1 0 -1 3 1 2 0 2 1 1 1 1 -1 2 -1 4 -1z m432 2 l0 -1 1 0 2 0 5 -3 6 -2 0 -5
-1 -4 -2 -4 -2 -4 -3 0 -2 -1 0 2 -1 3 1 0 1 0 2 2 1 1 -1 1 0 1 1 1 1 0 -1 2
-1 1 1 0 1 0 0 1 0 1 -1 0 -2 0 -1 2 0 2 -4 2 -3 1 0 1 0 1 1 0 1 0 0 -1z m97
-3 l0 -1 0 -2 0 -3 -2 0 -2 0 -1 -2 -1 -3 -1 -4 0 -3 -2 -4 -1 -3 0 -1 1 -1
-1 -2 -1 -1 -3 0 -2 0 -3 3 -3 3 -4 3 -3 3 -4 2 -4 2 0 1 0 1 1 1 0 2 1 -1 1
0 0 1 0 1 2 0 2 -1 3 1 3 1 6 2 7 2 3 0 2 0 -1 1 0 1 1 0 2 -1 0 2 1 1 2 0 1
0 0 -1z m-422 -1 l0 -1 0 0 -1 0 0 1 -1 1 1 0 1 0 0 -1z m80 -1 l0 -1 -3 -1
-3 -1 2 3 2 2 1 -1 1 0 0 -1z m3 -3 l-1 -1 1 0 2 -1 -1 -2 0 -1 1 0 2 1 -1 0
-1 -1 -4 -2 -4 -2 0 1 0 0 1 2 1 2 -6 -3 -7 -4 0 0 0 1 4 2 3 2 0 2 0 1 2 1 2
2 0 0 1 1 2 0 2 1 0 -1 1 0 0 -1z m262 0 l1 -2 -1 0 -1 -1 0 2 -1 2 1 0 1 0 0
-1z m-449 -4 l-1 -1 -1 0 -1 0 0 1 0 1 2 0 1 0 0 -1z m116 -1 l0 -1 -1 1 -1 0
0 1 0 1 1 0 1 -1 0 -1z m22 1 l0 -2 -6 -2 -6 -2 -1 -1 -1 -1 0 -3 0 -2 0 -2 1
-1 1 1 2 0 -2 -1 -1 -2 1 0 1 0 -1 -1 -1 -2 1 0 1 0 0 -1 0 -2 1 -1 2 -1 2 1
2 0 2 0 2 1 -1 -1 0 -2 -4 -1 -3 -1 -3 2 -2 3 -3 4 -2 5 -1 5 0 4 4 2 3 1 6 2
6 2 0 0 0 0 0 -1z m-131 -2 l-1 -1 -2 1 -2 0 0 1 0 0 3 0 2 0 0 -1z m441 -1
l0 -2 -2 0 -1 1 0 -2 1 -1 -1 -2 0 -1 -2 0 -2 0 1 1 2 2 0 2 0 2 1 0 2 0 0 1
1 1 1 0 0 -1 -1 -1z m-256 -1 l0 0 -1 -2 -1 -1 -2 -1 -3 -1 -1 1 -1 1 1 -1 2
0 2 2 2 3 1 0 1 0 0 -1z m-118 -1 l3 0 0 -2 0 -2 -10 -9 -9 -10 -4 -1 -3 0 -1
5 -2 6 0 1 0 1 -1 3 -2 3 2 1 2 2 0 1 1 2 11 -1 11 0 2 0z m39 -4 l-1 -1 0 2
0 3 1 -2 0 -1 0 -1z m262 -5 l0 -1 -3 3 -3 3 0 1 0 2 3 -4 3 -3 0 -1z m54 4
l-1 0 -1 0 -1 1 1 0 2 0 0 -1z m-397 -5 l0 2 -1 1 -1 0 0 1 0 1 1 -1 1 0 3 -9
3 -9 0 -2 0 -2 -1 0 -1 0 -1 3 -2 4 -1 2 -1 3 1 0 1 0 0 1 -1 2 -1 -1 -1 0 -1
4 -1 4 0 1 0 1 2 -4 2 -4 0 2z m338 3 l1 -3 -3 1 -2 2 1 0 1 0 -1 1 0 1 1 0 1
0 1 -2z m71 -1 l0 -2 -2 1 -2 0 0 1 0 1 2 0 2 0 0 -1z m-14 -2 l2 0 0 -1 0 -1
1 1 1 0 0 -2 0 -1 -1 -3 0 -2 -1 1 -1 0 0 -1 1 -1 -2 -3 -1 -2 -2 -2 -1 -1 -3
0 -2 0 -3 3 -4 4 -2 2 -1 2 1 -1 2 -1 4 -3 4 -3 1 2 1 2 2 0 1 0 1 2 0 3 -1 1
0 1 2 -1 2 -1 0 1 0 1 -2 2 -3 2 0 1 0 1 1 0 2 -1 1 -1z m-65 -1 l0 -1 1 0 1
1 2 -3 2 -2 0 -1 0 -1 -2 2 -2 1 0 -1 0 -1 -1 0 -1 0 1 1 0 1 -1 0 -2 -1 -1 1
-1 1 1 2 1 2 1 0 1 0 0 -1z m8 -3 l0 0 -2 2 -2 2 2 -2 3 -1 -1 -1z m68 2 l1
-2 -1 0 0 -1 -1 0 -1 0 1 1 0 1 -2 0 -2 0 1 1 0 1 1 0 1 0 2 -1z m-31 -2 l1
-2 -1 0 -1 0 0 2 -1 1 -1 -1 -1 -1 4 -5 5 -4 2 -3 3 -3 -2 -1 -1 -1 0 1 0 1
-1 -2 -1 -2 2 -3 1 -2 -1 -2 -1 -1 -2 -3 -2 -2 -1 1 -2 2 0 1 0 1 2 0 1 1 -1
2 -1 1 2 0 2 0 0 2 0 3 0 1 1 1 -3 3 -2 2 0 1 1 0 2 -2 3 -3 1 0 1 0 -2 2 -3
3 0 1 0 1 -2 1 -1 0 -2 0 -1 0 0 1 1 1 -1 0 -2 1 1 2 0 1 -1 0 -2 -1 -1 1 0 1
2 2 1 1 2 0 1 0 2 -2z m28 -4 l0 -2 -1 0 -2 0 -1 -2 0 -2 -1 -1 0 -1 -1 -4 -1
-3 -2 -1 -2 -1 0 1 1 0 -2 2 -1 2 1 0 1 0 2 3 3 2 1 3 1 2 1 1 2 2 0 0 1 0 0
-1z m-226 -1 l0 0 -4 -5 -4 -4 2 3 2 4 1 1 2 2 0 0 1 0 0 -1z m-165 -5 l1 0
-2 0 -2 1 0 -1 0 -1 -1 1 -1 0 1 1 1 0 -1 1 0 2 2 -2 2 -1 0 -1z m165 1 l-1
-2 -1 0 -1 0 2 2 1 2 1 0 0 0 -1 -2z m5 -3 l-2 -2 -1 1 0 1 1 2 1 1 2 0 1 0
-2 -3z m-93 0 l0 -1 1 0 2 1 -2 -1 -1 -1 -1 0 0 1 0 1 1 2 0 0 1 0 -1 -2z m13
-2 l-2 -2 -1 0 -1 0 0 1 0 1 1 0 1 -1 1 2 1 1 1 0 0 0 -1 -2z m7 -1 l0 -2 -1
-1 -2 -1 1 -2 0 -1 -1 0 -1 0 0 1 0 0 1 4 1 3 1 0 1 0 0 -1z m-13 -7 l1 -4 2
0 1 0 0 -1 0 -2 -1 0 0 0 -4 1 -3 1 0 5 0 4 2 0 2 -1 0 -3z m208 2 l-1 -1 0 1
0 2 1 0 0 -1 0 -1z m-2 -1 l0 -1 -1 0 -1 0 0 2 0 1 1 0 1 -1 0 -1z m-5 -1 l-1
-1 0 -1 1 0 -2 -2 -1 -1 -1 1 -1 2 2 1 1 2 0 -1 0 0 1 1 1 1 1 -1 0 0 -1 -1z
m209 2 l0 -1 -1 0 -1 -1 0 1 0 1 1 0 1 0 0 0z m-479 -4 l-4 -3 -4 -2 -5 -3 0
0 0 1 7 4 7 5 1 0 1 0 -3 -2z m78 0 l1 -2 -1 0 -1 0 0 1 0 1 -1 0 -1 -1 1 1 0
2 1 0 1 0 0 -2z m26 1 l0 -1 -5 -4 -5 -4 0 1 1 1 0 0 -1 0 -2 -2 -2 -2 -2 0
-2 0 -2 2 -2 2 -1 0 -1 0 -1 1 -1 2 1 1 2 0 -1 1 -1 1 0 1 1 0 1 0 0 -1 0 -2
1 -2 3 -2 3 -2 1 1 0 1 2 0 2 0 6 4 6 4 0 0 0 0 -1 -1z m76 -3 l-1 -1 1 1 2 0
-2 -1 -1 -2 -1 2 0 1 2 2 1 1 1 -1 0 0 -2 -2z m4 -1 l-1 -1 0 1 0 1 1 0 0 1 1
-1 0 0 -1 -1z m-178 1 l0 -1 -7 -4 -8 -5 -1 0 0 0 2 2 3 2 5 3 5 3 0 0 1 0 0
0z m101 -1 l0 -1 -4 -4 -3 -4 -1 -3 -1 -2 1 1 2 1 0 0 0 -1 -1 -3 -1 -2 1 -1
2 -2 2 0 2 -1 -3 0 -3 -1 -3 2 -2 2 0 1 0 2 -1 0 -1 0 0 3 1 3 1 1 2 1 -1 1 0
1 1 0 1 -1 4 4 4 4 1 0 1 0 -1 -1z m80 -2 l-1 -3 -1 0 0 1 1 2 1 3 1 0 1 0 -2
-3z m289 2 l0 -1 1 0 2 1 0 -1 -1 -1 1 0 1 -1 -2 1 -1 0 -2 0 -2 0 2 2 2 1 0
0 0 0 -1 -1z m-56 -2 l3 -1 6 0 7 -1 2 -1 2 -1 2 -1 3 -1 -1 -2 -2 -1 0 -1 1
-2 -5 -3 -5 -4 0 -2 0 -2 -2 -3 -1 -3 -5 -1 -4 -1 0 -5 0 -5 -2 -2 -1 -2 -1 0
-1 0 0 2 0 1 -1 0 0 -1 -4 4 -3 4 0 1 1 0 2 0 3 1 -1 2 -1 3 -1 1 -1 1 -2 7
-2 7 -1 1 -2 2 2 3 1 3 2 1 2 1 0 2 0 1 3 -1 4 0 3 -1z m-188 -6 l-1 -5 0 -3
0 -2 -2 0 -1 -1 0 1 0 1 1 0 1 0 -1 2 0 3 0 2 0 2 -1 -3 -1 -3 -2 2 -1 2 0 -2
1 -2 -1 1 0 1 -2 0 -1 0 1 1 1 1 0 1 -1 1 -1 0 -1 -1 -1 2 0 3 -1 -4 0 -4 -1
1 -1 0 0 3 0 4 2 0 2 1 5 0 5 -1 0 1 0 1 1 0 1 0 0 -6z m267 4 l6 -3 -2 0 -1
0 0 -2 1 -1 -5 0 -4 1 -4 1 -3 1 -2 1 -2 1 0 1 0 1 3 -1 3 0 0 1 -1 1 3 0 3 0
5 -2z m-170 -2 l0 -1 -1 0 -2 0 0 1 0 1 2 0 1 0 0 -1z m18 -3 l-3 -2 1 -1 0
-2 -2 -3 -3 -3 -1 -1 -2 0 -3 3 -3 3 0 1 0 1 3 -2 3 -2 1 2 1 2 2 0 1 0 0 2 1
1 -1 2 -1 1 3 0 3 -1 0 1 0 1 1 -1 1 0 -2 -2z m6 -1 l-2 -2 1 0 0 -1 -1 0 -1
0 0 -1 0 -2 0 0 -1 0 -1 1 -2 0 2 2 2 2 -1 0 0 1 3 2 2 2 1 -1 0 -1 -2 -2z
m124 3 l0 -2 3 -1 3 0 4 -3 4 -3 2 0 2 0 5 0 5 0 1 -1 1 -1 1 1 0 1 1 -1 1 -1
3 1 4 2 0 -1 1 0 1 1 1 2 2 -3 2 -2 1 -5 0 -5 1 2 1 2 0 -5 0 -4 1 -2 0 -2 0
-8 0 -8 0 -7 0 -7 0 -5 1 -5 -2 -5 -1 -4 -3 0 -2 1 1 -1 0 -1 -1 0 -1 0 -4 3
-3 2 -2 0 -1 0 0 -2 -1 -1 1 -2 1 -2 2 -3 2 -2 -1 1 -2 0 0 2 -1 1 -2 -1 -2
-1 -1 -1 0 0 2 -3 2 -3 0 0 0 -1 -2 0 -2 0 0 -1 1 -2 -2 -2 -2 -2 -3 -1 -3 -1
-7 -1 -6 -1 -1 -1 -1 -1 -7 -1 -6 -1 -1 -1 -1 0 -3 -1 -2 0 0 1 0 1 -2 0 -1 1
-3 -1 -2 -1 -1 2 0 1 -3 0 -3 0 -3 2 -2 2 -3 3 -3 3 1 -2 0 -2 3 -3 3 -3 -4 2
-3 2 -3 3 -3 4 -2 2 -1 3 0 2 -1 3 0 1 -1 1 -1 -1 -1 0 0 2 1 1 1 1 2 0 1 -3
2 -3 1 0 0 1 -1 2 -2 3 -2 1 -1 2 1 0 2 0 0 1 0 1 1 6 1 6 0 4 -1 4 1 0 1 0 1
-2 1 -1 0 1 0 1 -2 4 -1 5 4 5 5 4 -3 -2 -2 -1 0 1 1 2 -4 -4 -4 -4 1 -2 0 -1
-1 1 -1 1 -1 0 -1 -1 0 2 -1 1 0 2 0 1 1 0 2 -1 0 1 0 1 7 7 7 8 2 3 3 3 -1 2
0 2 2 4 3 4 1 0 0 0 0 -4 -1 -4 -3 -5 -2 -5 -2 -3 -2 -3 -2 -3 -2 -2 2 1 2 1
2 3 3 4 0 1 0 0 1 1 1 1 3 7 2 7 0 1 0 2 2 1 2 2 3 0 4 0 7 0 7 0 0 2 -1 1 -1
1 -1 0 1 1 0 1 1 0 1 0 0 -1z m-507 -2 l-2 -2 0 -3 -1 -2 -3 -2 -3 -1 -1 0 0
1 2 3 3 2 2 3 3 3 1 0 1 0 -2 -2z m516 1 l2 -1 -2 0 -2 0 0 1 -1 1 1 0 1 0 1
-1z m-148 -5 l0 -1 -1 0 0 0 -2 2 -2 1 0 1 0 1 3 -1 2 -1 0 -2z m123 3 l0 -1
-1 0 -1 0 0 1 0 1 1 0 1 0 0 -1z m-407 -7 l-1 -1 1 -3 2 -4 -3 -6 -3 -6 -1 -2
-2 -1 -2 -6 -1 -5 0 -3 0 -3 -2 -2 -2 -1 -1 1 0 1 -1 -1 -1 0 0 1 0 2 -2 3 -1
3 -1 0 -1 1 -1 -2 -1 -2 -2 3 -1 3 0 2 0 2 -2 3 -1 4 -7 2 -6 2 -1 1 0 1 1 1
2 0 0 2 -1 1 1 1 2 1 1 0 2 0 1 -1 1 -1 -2 -2 -3 -3 -1 0 -1 0 0 -1 1 0 5 2 5
1 0 1 0 1 2 0 2 0 1 0 2 0 10 6 10 5 1 0 2 0 0 -1z m259 -4 l5 -5 3 0 3 0 2 3
2 2 1 0 1 0 1 -3 1 -2 -1 -1 -1 -1 0 1 1 2 -1 -1 -1 0 0 -2 0 -1 0 -1 -1 0 -3
-2 -3 -1 -2 1 -2 1 -3 3 -3 4 0 -1 0 0 2 -4 2 -3 -1 0 -1 0 -2 5 -2 5 -2 2 -2
2 0 1 0 1 1 0 1 0 5 -5z m36 4 l0 -1 -1 0 -1 0 0 1 -1 1 1 0 1 0 1 -1z m-376
-3 l0 -2 -2 -1 -2 0 0 -1 1 0 3 1 3 1 1 0 2 -1 -5 -2 -4 -2 -5 -1 -4 -1 0 -2
0 -2 1 0 0 0 2 2 3 2 6 2 7 3 0 -1 0 0 -2 -2 -1 -2 3 1 3 0 0 -1 0 -2 1 0 1 0
0 1 1 1 4 -1 4 0 -1 2 -1 1 0 1 1 1 -2 -1 -1 0 -2 -1 -1 -1 -1 1 0 2 0 0 1 1
6 1 6 0 0 -1 -1 -2 2 1 1 0 2 -2 3 -3 0 -2 0 -1 3 -6 3 -6 -1 -1 0 -1 1 0 1 1
1 -2 1 -2 0 -1 1 0 0 0 1 0 0 -2 1 -1 -1 1 -1 0 6 -7 6 -8 1 0 0 0 0 1 -1 1 1
0 1 0 1 -2 1 -2 -1 0 -1 -1 -3 2 -3 2 -5 7 -6 7 -2 5 -3 5 -1 3 -1 3 -3 3 -2
2 0 -1 0 -1 1 -1 2 -2 -1 0 0 -1 4 -8 4 -8 7 -8 7 -8 2 -1 1 -1 0 -1 0 -2 -2
-2 -2 -2 0 -5 -1 -5 1 0 1 0 0 3 0 3 1 1 0 2 0 1 0 1 1 0 2 0 -1 -6 0 -6 0 -5
-1 -4 1 0 0 1 1 2 2 2 1 0 1 0 -1 -2 0 -2 1 2 2 2 0 1 0 2 -1 0 -1 0 1 1 0 1
1 -1 0 -1 1 1 1 0 -1 -1 0 -2 2 1 2 0 -3 -5 -3 -6 1 0 0 0 -2 -2 -2 -3 -2 0
-1 0 0 1 -1 2 -1 -4 -2 -4 -1 0 0 1 1 1 1 1 0 1 0 1 -2 -1 -1 -1 -1 0 -2 0 -3
-3 -3 -3 0 -1 0 -1 -2 -2 -2 -1 0 -10 1 -9 -1 -1 -1 0 1 -3 0 -3 -3 0 -3 0 -1
-2 0 -2 -2 0 -2 1 -4 1 -4 0 -8 2 -8 1 -6 1 -6 1 0 1 0 1 2 0 2 -1 -3 2 -2 2
-3 6 -3 6 0 2 0 3 -2 1 -1 1 1 3 1 4 -1 2 -1 3 -1 1 -2 1 -2 -3 -2 -2 -3 -2
-3 -1 -2 1 -2 0 1 2 1 1 -2 0 -2 0 1 1 0 1 -2 2 -1 1 0 0 1 0 -1 1 0 1 -1 12
0 13 0 1 -1 2 0 1 -1 1 1 2 0 1 -1 0 -1 -1 0 1 0 1 1 0 1 0 0 2 0 2 2 1 1 2 1
3 1 3 2 -1 2 0 0 1 0 1 0 1 0 0 1 1 2 1 0 3 -1 2 1 0 0 -1 2 3 3 3 0 0 1 0 2
3 3 3 0 -2 0 -1 -1 0 -1 0 0 -1 0 -1 2 2 3 2 0 2 0 1 2 2 3 1 -1 0 -1 0 1 2 2
2 -4 0 -4 -1 -1 0 0 -1 -1 0 -1 0 1 1 2 1 1 0 0 0 1 1 1 1 7 4 7 4 2 -1 2 0
-1 -2z m374 -2 l-1 0 -2 0 -1 1 1 1 2 2 0 -2 1 -1 0 -1z m-37 -7 l2 -5 -1 -3
0 -3 -2 -1 -2 -1 -3 -1 -2 0 -5 -1 -4 0 2 1 2 1 0 1 0 1 -1 2 -1 3 1 0 1 0 2
-3 1 -3 0 1 0 1 1 0 1 -1 2 1 2 1 0 2 0 2 1 1 1 1 -2 6 -2 5 0 1 0 2 2 -3 2
-2 2 -6z m-297 8 l0 -1 -4 0 -4 0 0 -1 -1 0 -2 -1 -2 0 0 1 0 1 2 0 2 0 0 1 0
1 4 -1 4 0 1 0z m99 -2 l-1 -1 -1 1 0 0 1 2 1 1 1 -1 0 -1 -1 -1z m-89 -4 l0
-1 0 0 -1 0 0 1 -1 1 1 0 1 0 0 -1z m123 0 l0 -2 -1 0 -2 0 1 2 0 1 1 0 1 0 0
-1z m-28 -3 l0 -2 2 0 1 0 0 -1 0 -1 2 0 2 0 1 -1 1 -1 2 0 3 -1 4 4 5 4 1 0
0 0 -2 -4 -3 -4 -2 -2 -2 -1 -5 2 -5 1 -1 1 -1 2 0 -1 0 -1 1 -2 1 -2 -3 1 -2
2 -3 3 -3 2 2 2 3 2 0 0 1 0 0 -2z m457 1 l0 -1 0 0 -1 0 0 1 -1 1 1 0 1 0 0
-1z m-472 -1 l0 -1 -1 0 -1 0 0 1 0 1 1 0 1 0 0 -1z m47 -1 l0 -2 -1 0 -1 0 0
-1 0 0 0 -1 0 0 0 -4 -1 -4 1 0 0 0 3 7 3 6 1 1 1 0 0 -1 1 -1 -2 -5 -2 -5 1
-5 0 -4 0 -1 0 -1 3 0 3 1 -1 -2 0 -1 -1 -2 -1 -1 -6 0 -5 1 1 0 1 1 -2 1 -2
1 -2 3 -2 3 1 3 1 3 3 6 3 6 1 0 1 0 0 -2z m-8 -5 l-1 -4 -2 -1 -2 -1 2 4 2 4
-1 1 0 0 1 0 1 -1 1 1 0 2 1 0 0 -1 -2 -4z m247 -2 l5 -4 4 -4 4 -4 0 -2 -1
-1 1 0 2 1 -1 -2 0 -2 1 0 1 0 0 -1 0 -1 -4 4 -3 4 -1 0 -1 0 -4 5 -4 5 -1 -1
-1 0 1 1 0 2 -2 2 -2 2 -1 0 -1 0 -1 0 -1 0 0 1 0 1 3 -1 3 -1 4 -4z m-138 0
l0 -1 1 -5 1 -4 0 2 0 2 0 1 0 2 1 -2 1 -1 0 -3 0 -3 -1 0 -1 -1 0 -1 0 -1 1
1 1 2 0 -3 0 -2 -2 -2 -2 -2 -5 0 -4 0 0 1 -1 2 3 0 2 0 1 1 0 1 1 -1 2 0 0 5
-1 5 0 3 -1 4 1 1 0 1 1 0 0 -1 1 -1z m5 0 l2 -1 0 -3 0 -2 -1 0 -1 0 0 3 0 2
-1 1 -2 0 0 1 0 1 1 0 1 0 1 -2z m29 -2 l0 -1 -1 1 -2 1 0 1 0 1 1 0 2 -1 0
-2z m-119 0 l0 -2 0 0 -1 0 0 2 -1 1 1 0 1 0 0 -1z m89 0 l0 -1 -1 0 -1 0 0 1
0 1 0 0 1 0 1 -1z m134 -6 l2 -2 0 0 0 1 4 -5 5 -4 2 -4 3 -3 0 -1 0 -1 -12
12 -13 12 1 1 0 1 3 -2 3 -2 2 -3z m-102 2 l0 -2 -1 -1 -1 0 1 -2 1 -2 -3 -2
-2 -2 0 -2 0 -2 -1 0 -2 0 0 -1 -1 -1 -3 -1 -4 0 0 1 0 2 1 0 2 0 0 1 1 1 -6
-1 -7 0 -1 1 0 1 1 0 1 -1 0 1 1 1 2 1 3 0 0 0 0 0 0 0 1 0 1 1 2 1 2 -1 2 -1
2 1 1 2 0 -1 1 0 2 1 2 1 0 1 0 1 -1 0 -1 -1 1 3 1 2 0 1 -1 1 1 0 2 1 0 0 0
0 0 -3z m-114 -3 l-1 -5 0 -2 0 -2 -1 0 -1 1 -1 4 0 4 1 3 1 2 1 0 1 0 0 -5z
m123 2 l1 0 0 -1 -1 -1 4 2 4 1 1 0 1 0 -1 -1 0 -1 -5 -2 -5 -3 -3 1 -3 1 -1
1 -1 1 1 0 2 -1 -1 3 0 3 2 -1 3 -2 2 0z m-132 -6 l-2 -4 1 -1 0 0 1 1 1 2 0
-2 0 -2 -2 0 -1 0 1 -1 2 -1 -1 0 -1 0 -3 0 -3 0 3 -1 3 -1 0 -1 0 -1 -2 1 -2
0 0 -2 1 -2 -1 1 -2 0 0 2 1 3 -3 -1 -3 0 2 1 3 1 0 1 0 1 2 0 1 0 0 1 0 1 1
2 0 2 0 2 0 2 1 -1 1 0 0 2 1 3 1 -2 0 -1 -1 -5z m38 -6 l2 -4 0 1 0 1 1 -1 1
0 4 0 3 0 2 1 2 1 0 -2 0 -2 -1 1 -1 0 0 -1 0 -2 -3 0 -3 0 -5 0 -4 1 -1 0 0
1 -1 5 0 6 -1 -1 -1 0 1 1 1 2 0 2 0 2 0 1 0 1 1 -5 2 -5 1 -4z m-7 4 l-1 -6
0 -3 0 -3 -1 0 -1 0 1 2 0 2 -1 0 -2 0 0 1 0 2 1 0 1 1 1 6 1 6 1 -1 0 -1 0
-6z m237 3 l-1 -2 -1 1 0 0 2 1 2 2 0 0 0 0 -2 -2z m-54 -2 l-1 0 0 2 -1 2 1
-2 1 -1 0 -1z m-86 -1 l0 1 1 0 1 0 0 -1 0 -2 -2 0 -1 0 1 -1 2 0 0 -2 1 -2
-1 -1 -1 -1 -2 0 -1 0 0 1 -1 1 -2 -1 -1 0 1 1 1 1 1 1 0 2 -1 0 -1 0 0 1 0 2
1 1 1 1 2 -2 1 -1 0 1z m92 -1 l0 1 11 -12 10 -11 -3 1 -3 1 -10 10 -10 11 0
1 0 1 2 -2 2 -1 1 0z m-146 -3 l1 -1 0 0 -1 -1 -1 0 -1 -1 -2 0 -1 -1 -1 1 -1
1 2 4 1 3 1 -2 1 -1 2 -2z m184 3 l0 -2 0 0 -1 0 0 2 -1 2 1 0 1 0 0 -2z
m-225 -2 l-1 -1 0 2 0 3 1 -2 0 -1 0 -1z m-174 -2 l3 -2 1 -3 1 -2 -1 0 -1 0
0 2 0 1 -1 0 0 0 -3 4 -3 3 0 0 1 0 3 -3z m151 1 l0 -1 4 0 5 1 1 0 1 1 1 -2
1 -1 -2 -1 -1 -1 -5 1 -6 1 -2 1 -1 1 1 0 2 0 0 1 0 1 1 -1 1 0 -1 -1z m-106
-3 l-2 -1 1 2 1 2 1 -1 0 0 -1 -2z m361 2 l0 -1 -1 0 -1 0 0 1 0 1 1 0 1 0 0
-1z m-201 -2 l1 0 -1 1 0 1 1 0 2 -1 -1 -1 0 -2 0 -1 0 -2 -3 1 -4 0 1 1 0 1
0 0 -1 0 -2 -4 -1 -3 -1 1 -1 1 1 1 2 2 0 1 0 1 0 1 0 1 2 0 2 0 1 1 0 2 1 -2
0 -1 1 0z m178 -9 l3 -4 1 0 0 1 -1 2 -1 3 3 -4 3 -3 1 -2 0 -2 0 -1 -1 0 -1
3 -2 3 -1 0 -1 0 -7 6 -7 7 0 1 0 0 3 -3 4 -2 4 -5z m-233 8 l2 -1 4 0 4 -1 1
0 0 -1 -1 0 -1 -1 -3 0 -3 -1 0 1 0 1 -1 0 -2 -1 -1 2 -2 1 -1 0 -1 0 0 1 0 1
2 0 1 0 2 -1z m249 0 l0 -1 0 0 -1 0 0 1 -1 1 1 0 1 0 0 -1z m-356 -1 l0 -1
-2 -1 -1 -1 1 1 0 2 1 0 1 0 0 0z m11 -3 l-1 0 0 -2 0 -1 -1 0 -1 0 -2 -4 -2
-4 -4 -5 -5 -6 -2 -1 -3 -2 1 2 2 3 4 4 4 5 5 6 5 7 1 -1 1 0 -2 -1z m124 -1
l0 -1 0 0 -1 0 0 1 -1 1 1 0 1 0 0 -1z m-148 -5 l-3 -4 -2 -3 -2 -3 -1 -3 -2
-3 -1 0 0 1 1 3 1 3 2 0 1 1 0 2 0 1 4 5 3 5 1 0 0 0 -2 -5z m171 4 l0 -1 -1
0 -1 0 0 1 0 1 1 0 1 0 0 -1z m-165 -4 l-2 -3 0 -1 1 0 2 3 2 2 0 -1 0 -1 -1
-1 -1 0 -3 -4 -2 -4 0 -1 0 0 2 2 3 2 -2 -3 -2 -2 -1 0 -1 1 -3 -4 -3 -3 -1 1
0 1 4 5 3 6 1 0 1 0 1 0 1 1 -2 0 -1 -1 0 1 0 1 3 3 3 4 1 0 0 0 -3 -4z m9 3
l0 -1 -2 -2 -2 -1 1 2 2 2 1 0 0 0 0 0z m239 -9 l0 -1 -1 0 -1 1 0 2 -1 3 2
-2 1 -2 0 -1z m44 1 l1 0 6 -3 7 -3 -1 -2 0 -1 1 0 1 0 0 -1 0 -1 -4 -4 -3 -5
-2 0 -1 0 -1 -3 -1 -3 -1 2 -1 2 0 -3 0 -2 -1 0 -1 1 0 -2 -1 -1 0 5 -1 5 -2
3 -1 3 -1 6 -1 6 1 1 0 0 2 2 3 1 1 -2 1 -1 0 0z m-319 0 l0 -1 0 0 -1 0 0 1
-1 1 1 0 1 0 0 -1z m67 -3 l0 -2 1 -1 1 -1 -2 -2 -2 -1 2 -4 1 -3 0 -3 0 -3 2
-5 1 -5 0 -2 0 -1 -3 1 -3 2 -2 -1 -2 0 -1 3 -2 4 -4 4 -4 5 -4 0 -3 -1 0 2 1
1 -1 0 -1 0 0 1 0 1 1 0 2 -1 1 1 0 1 1 0 2 0 -2 -2 -2 -1 1 -1 1 -1 2 2 2 2
1 1 1 2 6 5 6 5 1 0 1 -1 0 -1z m219 -12 l5 -10 3 -7 2 -6 0 -1 -1 0 -3 7 -4
8 0 1 0 2 -1 0 -1 0 0 1 1 0 -1 2 -1 1 0 0 1 0 -2 4 -2 4 -1 3 -1 2 1 0 0 0 5
-11z m101 10 l0 -1 -1 0 -1 0 0 1 -1 1 1 0 1 0 1 -1z m2 -4 l0 -2 -1 1 -1 2 0
0 0 1 1 0 1 0 0 -2z m-2 0 l0 -1 -1 0 -1 0 0 1 0 1 0 0 1 0 1 -1z m-116 -3 l1
-1 -1 1 -1 0 0 1 0 1 0 0 1 0 0 -2z m111 -1 l1 -3 1 0 1 -1 -1 -1 0 -1 2 0 2
0 3 -5 4 -4 1 0 1 1 -1 -2 0 -3 3 -4 3 -4 3 -1 3 -1 0 -1 0 -1 0 -1 1 -1 2 -1
2 0 1 -1 2 0 2 0 3 0 0 -1 0 -2 1 0 1 0 1 -5 0 -5 -2 -3 -1 -4 -5 -5 -4 -5 -4
-7 -3 -6 -2 -3 -2 -2 -2 0 -2 -1 -1 -2 0 -2 -2 1 -1 0 0 -1 0 -1 -1 1 0 1 -2
0 -2 1 0 -1 -1 -1 -3 1 -3 0 -1 -2 -1 -3 1 -2 2 -2 -1 -1 -1 -1 0 0 1 0 -1 -3
-2 -3 -10 0 -10 -1 -4 1 -5 0 -3 3 -4 4 -4 0 -4 1 -2 1 -2 2 1 1 0 2 -2 1 -3
1 0 1 0 2 -3 0 -3 1 1 -2 1 -2 1 0 2 -1 -3 1 -3 0 -2 2 -2 2 -3 6 -2 5 -1 0
-1 0 2 -3 1 -3 -1 0 -2 1 -1 -1 0 -1 1 0 1 1 1 -1 0 -1 0 -1 -1 0 -1 1 -2 1 1
2 2 1 -2 1 -1 0 0 2 0 3 2 0 3 0 0 2 0 2 1 1 1 1 0 0 1 0 0 -1 0 -1 1 -4 2 -4
0 -1 0 -1 2 -3 1 -3 -1 2 0 3 -2 8 -3 9 1 4 1 4 1 0 0 1 2 -3 1 -2 0 2 0 2 1
1 1 1 2 -1 1 0 0 3 0 4 2 1 2 2 -1 0 -1 1 -2 -3 -2 -3 0 3 0 4 2 0 1 0 0 1 0
2 0 2 1 2 0 0 1 1 5 4 6 3 5 5 5 4 0 2 0 1 2 1 1 1 2 4 1 3 2 0 2 1 1 -1 2 -1
1 0 1 0 0 2 1 2 1 -1 2 -2 1 0 1 1 0 -1 0 -1 2 0 2 -1 -4 0 -3 0 2 -1 3 -1 1
0 2 0 0 1 -1 1 2 0 1 1 2 0 2 0 -2 -1 -1 -1 0 0 1 -1 1 2 2 1 0 1 0 1 -1 1 -1
0 0 -1 0 -1 -1 0 -1 1 0 2 0 3 2 0 1 0 1 -2z m-104 -6 l3 -8 4 -8 3 -7 -2 2
-1 2 -2 3 -1 3 -1 1 -1 0 1 1 0 1 -1 1 -1 0 -1 2 -1 3 0 0 0 1 -1 1 -1 1 -1 2
0 3 0 1 -1 2 0 0 1 0 4 -7z m84 4 l0 -1 -1 0 -1 0 0 2 -1 1 1 0 1 -1 1 -1z
m15 -1 l-1 0 -1 0 -1 1 1 0 2 0 0 -1z m-352 -1 l0 -1 -2 -3 -2 -3 -1 1 -1 0 3
4 3 3 0 0 1 0 -1 -1z m323 -2 l-1 -3 -1 0 -1 0 1 2 1 2 1 0 2 1 0 0 0 0 -2 -2z
m-337 -1 l-1 -2 0 -1 1 0 -3 -1 -2 -1 2 4 3 3 0 0 1 0 -1 -2z m341 1 l-1 -2
-1 -1 0 -1 -4 -5 -3 -5 -6 -5 -6 -4 -3 0 -2 -1 0 2 -1 1 1 2 1 1 6 3 6 3 0 1
1 1 6 5 6 6 1 0 1 0 -2 -1z m-249 -15 l-4 -15 -1 -2 -1 -2 1 6 0 7 2 6 1 6 2
4 2 5 1 0 0 -1 -3 -14z m40 8 l1 0 2 0 2 -1 0 -4 1 -4 4 -9 4 -8 0 -2 1 -1 -3
0 -2 0 -10 0 -9 1 -3 1 -3 1 0 -1 -1 0 0 1 0 1 -2 0 -2 0 -1 1 0 1 6 11 5 11
3 3 2 3 2 -2 2 -2 1 -1z m-131 -1 l-2 -4 -1 0 -1 0 1 1 0 2 3 3 2 3 1 0 0 -1
-3 -4z m216 0 l3 -1 1 1 2 1 7 -7 8 -7 4 -4 4 -3 2 -1 2 -1 0 -2 0 -2 -3 0 -2
-1 -3 1 -3 1 -3 -2 -3 -1 -10 0 -9 0 -2 -3 -3 -2 -2 0 -1 0 0 1 0 1 -1 0 -2 0
0 1 0 0 2 10 2 11 1 5 1 6 1 0 0 1 2 -1 2 0 3 -2z m67 1 l1 -1 -1 1 -1 0 0 1
0 1 0 0 1 0 0 -2z m-279 -1 l-1 -1 -1 0 0 1 0 1 1 1 1 0 1 0 -1 -2z m300 -1
l0 -2 -2 0 -1 1 -1 1 0 2 1 0 1 -1 0 1 0 1 1 0 1 0 0 -3z m23 1 l-1 -2 -5 -3
-5 -3 -2 0 -2 -1 0 1 0 1 5 2 5 2 3 3 3 2 0 -1 0 0 -1 -1z m-323 -3 l1 -2 -2
-1 -1 -2 -1 0 -1 0 0 2 0 2 1 1 1 1 1 0 1 0 0 -1z m23 -1 l0 -1 7 -4 7 -4 8
-4 9 -3 3 -2 3 -1 0 -1 0 -1 -1 0 -2 0 0 -3 -1 -2 1 -1 1 -1 1 1 1 2 2 -2 1
-2 0 -1 0 -1 -2 1 -2 0 0 -2 0 -2 2 1 3 0 1 -1 2 -2 0 -1 0 -1 1 1 1 0 2 -2 2
-2 0 1 -1 2 0 8 -1 8 1 -2 1 -2 0 -5 1 -5 0 -2 1 -2 -2 -6 -2 -6 -1 -1 -1 -2
-3 -2 -3 -2 0 0 1 0 -2 -2 -2 -2 -1 -6 0 -6 1 -6 2 -5 -1 -1 -1 -1 0 -2 1 -2
-4 -2 -3 -1 -2 0 -2 0 0 -1 1 -1 -2 0 -1 0 -1 -1 -1 -1 -2 0 -2 -1 -3 -2 -2
-3 -3 0 -3 -1 -3 2 -3 2 0 1 0 1 -4 2 -5 2 2 2 1 3 0 3 1 3 -2 1 -2 1 -5 -5
-4 -4 1 6 0 7 -2 0 -2 1 0 -1 0 -1 -2 -1 -3 -1 0 -2 0 -2 -1 -1 -2 -1 -4 4 -5
5 -4 6 -4 6 1 1 0 1 -1 0 -1 -1 -1 4 -1 4 -1 0 -1 0 -1 4 -2 3 0 3 0 2 2 0 1
0 -1 1 -1 1 1 3 1 2 -2 0 -2 1 -1 2 0 2 3 -1 3 0 0 1 1 1 -1 2 -2 1 0 3 0 3 3
3 3 4 0 1 0 1 2 1 2 1 0 -1 1 0 0 1 -1 2 2 1 1 1 2 1 1 0 2 2 2 1 1 0 0 -1 -3
-3 -3 -3 0 0 1 0 2 1 2 1 3 0 3 1 0 -2 0 -1 -1 0 -2 0 0 -1 0 -1 1 0 1 0 1 1
1 1 1 -1 1 -1 0 1 0 1 1 0 1 0 2 0 2 1 1 2 0 2 6 4 6 5 1 0 1 0 0 -2z m362 -3
l-1 0 -1 1 -1 1 1 -1 2 0 0 -1z m-111 -6 l2 -4 -1 0 0 0 -2 4 -2 4 0 1 0 0 1
-1 1 0 1 -4z m-182 -5 l0 -3 -1 3 -1 3 1 2 2 2 0 -2 0 -1 -1 -4z m302 5 l2 -1
0 0 0 -1 -4 1 -3 0 0 2 0 1 2 -1 2 -1 1 0z m-410 0 l0 -1 -2 -2 -2 -2 -3 -1
-2 -1 0 -2 1 -1 -2 -1 -1 0 0 1 1 1 0 0 -1 0 -1 -2 -1 -2 1 1 2 0 -3 -2 -2 -3
-1 0 0 1 2 6 2 6 2 2 1 2 1 0 1 0 -1 -1 0 -1 3 1 3 2 1 0 1 0 0 -1z m261 -2
l0 -1 1 -2 2 -1 -3 0 -2 0 -2 1 -1 1 2 2 3 1 0 0 1 0 -1 -1z m7 -1 l0 -1 -1 1
-2 0 0 1 0 0 2 0 1 0 0 -1z m149 0 l1 -1 -4 0 -5 0 0 1 0 1 4 0 4 -1 0 0z m8
-2 l0 0 -1 -1 -2 0 -1 0 -2 1 0 1 0 1 3 -1 3 0 0 -1z m-320 -6 l-1 -2 -2 -7
-2 -7 -1 0 0 1 1 5 2 5 1 4 1 4 1 0 0 0 0 -3z m191 -1 l1 -2 -1 0 -1 0 0 2 -1
1 0 0 1 0 1 -1z m-88 -3 l0 -2 -1 0 0 0 0 2 0 1 1 0 1 0 -1 -1z m60 -2 l0 -1
-3 -2 -3 -3 -4 -1 -3 -1 -2 -1 -1 -1 -10 -2 -9 -3 -5 0 -5 0 2 -1 3 -1 4 0 4
1 1 0 2 1 0 -1 -1 -1 2 1 3 0 3 1 4 1 -2 0 -1 0 1 1 0 1 2 0 1 0 9 4 9 4 -1 1
-1 1 3 1 3 2 0 0 1 0 0 -1 0 -1 3 -3 3 -4 2 0 1 1 2 -2 2 -1 0 0 -1 0 1 -1 1
-1 1 1 2 1 1 -1 2 -2 2 0 2 -1 1 -3 1 -2 1 -7 1 -7 1 -3 1 -2 2 -2 2 -2 -1 -2
0 -1 1 0 1 1 -1 -1 0 -2 3 -3 2 -2 -1 2 -1 2 0 1 1 0 3 -3 3 -2 -2 0 -1 1 0
-1 -1 -1 1 0 1 0 -1 -1 0 -2 1 0 1 0 0 1 1 1 1 -1 2 0 0 -1 0 -1 -1 0 -1 0 0
-1 0 -1 -4 -5 -5 -6 -3 -5 -4 -5 -4 -3 -3 -2 -5 -5 -5 -5 -4 0 -4 0 -2 1 -2 2
-1 0 -2 0 -1 1 0 2 -2 1 -2 0 -1 0 -1 0 -2 0 -1 -1 -1 -4 0 -4 -3 -2 -2 -2 -2
0 -2 -1 -5 3 -6 4 -1 0 -2 1 0 1 1 1 -1 0 -1 0 -5 5 -5 4 -2 0 -2 0 0 1 -1 1
-6 1 -6 2 0 2 0 1 -2 0 -2 0 -3 3 -3 3 -1 0 -2 0 0 2 0 1 1 2 1 2 -1 0 -1 0 0
8 0 9 1 0 1 1 1 -3 0 -2 1 2 1 2 0 2 0 3 1 0 1 0 0 1 0 2 4 3 3 3 0 1 -1 1 2
5 2 5 0 1 1 0 1 0 0 -1 -1 -3 -2 -3 1 0 0 0 2 1 1 2 0 2 0 2 1 0 1 0 0 1 1 2
-2 1 -1 2 0 -2 1 -1 -1 -1 -1 -1 0 1 0 2 -1 0 0 0 -2 -2 -1 -1 1 2 0 3 2 0 1
-1 0 1 0 1 8 -1 8 0 8 1 8 2 5 2 6 1 1 1 1 1 -2 0 -1 -1 0 0 0 1 5 2 5 3 0 0
1 0 0 -1z m46 -9 l-1 -1 0 -1 1 -2 -1 0 0 0 -2 1 -1 2 0 4 1 4 2 -3 2 -2 -1
-2z m-328 4 l-1 -1 0 1 0 2 1 0 0 -1 0 -1z m301 0 l2 0 2 -1 2 -1 0 2 0 1 3
-2 2 -2 0 1 0 1 1 -1 2 -2 0 -2 1 -2 -1 0 -2 0 -4 2 -4 2 0 1 -1 1 -3 0 -3 1
-1 2 -1 1 2 0 2 -1 1 -1z m11 1 l-1 -1 -1 0 -1 0 0 1 0 1 2 0 1 0 0 -1z m-171
-12 l6 -1 10 -1 10 0 2 -1 3 -1 -6 0 -5 0 -9 1 -8 1 -1 -1 -1 -1 3 0 3 -1 0
-4 -1 -4 0 -2 -1 -2 0 -1 0 -1 -3 0 -3 -1 0 -1 -1 -2 1 -6 1 -7 2 -5 2 -6 3
-3 3 -3 2 -1 2 0 1 1 0 1 1 0 2 0 2 3 3 3 1 3 0 2 1 0 1 0 0 2 0 2 1 3 2 3 0
9 1 9 -1 0 -1 0 0 2 0 2 -1 -2 0 -1 -2 -3 -2 -3 -1 0 -1 0 -1 4 -2 3 -2 -1 -1
-1 -1 0 -1 1 0 2 0 1 -1 0 -1 0 0 -1 -1 -2 -1 0 -1 0 0 3 0 3 1 0 2 1 7 -1 8
-1 -1 -1 0 -1 2 1 1 0 0 1 -1 1 4 0 3 0 2 -1 1 -2 1 0 1 0 1 1 0 1 2 0 3 0 0
-2 1 -1 3 -3 2 -3 1 1 1 0 2 -1 1 -1 0 -2 0 -1 -1 1 -1 0 0 -1 1 -1 1 0 2 0 1
-3 0 -3 0 -2 0 -2 -1 -1 -1 -1 0 -6 0 -6 0 -3 1 -2 2 -3 2 -3 0 -2 1 -2 -1 0
-1 0 0 -1 0 -1 3 -1 3 -1 0 -2 0 -1 -1 1 -1 0 0 -1 0 -1 -6 -4 -6 -4 -6 -6 -6
-5 -4 -1 -3 -1 -2 0 -1 0 -5 -3 -5 -2 -3 -1 -3 0 1 2 0 2 -1 -1 -2 -1 0 1 -1
2 -2 -3 -3 -3 -2 0 -1 1 0 2 0 2 -1 2 -1 2 -1 0 -1 0 0 -1 0 -2 -1 0 -1 0 -2
3 -1 2 -8 7 -8 7 -2 1 -1 0 -5 3 -4 3 0 2 -1 1 1 1 2 2 -2 4 -3 5 2 2 1 2 0 2
0 1 -2 0 -2 1 1 1 2 1 -1 0 -1 1 0 2 0 2 -1 -1 -2 0 0 2 0 3 0 1 0 2 1 3 1 4
2 0 1 -1 2 4 1 5 0 0 0 1 3 3 2 3 -2 -4 -2 -3 2 0 2 0 3 2 4 1 2 -1 2 0 -1 1
0 2 1 2 1 2 2 0 2 0 0 2 -1 1 1 1 0 1 2 0 2 0 6 -2z m-12 1 l0 -1 -2 -1 -2 -1
1 1 1 2 1 0 1 0 0 0z m50 -4 l-1 -1 -3 0 -2 0 2 1 3 1 1 0 2 0 -2 -1z m-60 -5
l-1 -2 -1 0 -1 0 2 1 2 2 0 0 0 0 -1 -1z m-16 -6 l0 -1 0 -4 0 -4 -2 -2 -3 -3
-1 2 0 3 1 3 1 3 1 0 1 0 0 1 0 1 0 1 0 1 1 0 1 -1 0 0z m3 -4 l-1 -1 0 1 0 1
1 0 0 1 1 -1 0 0 -1 -1z m112 0 l0 -2 -1 0 -1 0 1 2 1 1 1 0 0 0 -1 -1z m-9
-8 l0 -2 -1 0 0 0 0 3 0 2 1 0 1 -1 -1 -2z m115 2 l0 -2 0 0 -1 0 0 2 -1 1 1
0 1 0 0 -1z m-118 -17 l-1 -1 0 1 0 2 1 0 0 -1 0 -1z m2 -4 l1 -2 -1 -1 -1 0
0 2 0 3 0 0 1 0 0 -2z m-191 -19 l0 -1 -2 -1 -1 -1 1 1 1 2 1 0 0 0 0 0z m7
-10 l-1 -2 -3 -4 -3 -3 0 0 0 1 1 3 2 4 1 0 1 0 1 2 1 2 1 0 0 -1 -1 -2z"/>
<path d="M569 846 l-2 0 -4 -4 -3 -3 -2 -5 -3 -6 -2 -7 -2 -6 0 -7 0 -6 1 1 1
1 2 -1 1 0 0 1 0 1 2 1 2 1 0 -4 -1 -4 2 1 2 1 0 2 0 1 2 -1 3 0 2 2 2 3 0 0
1 0 0 -1 -1 0 2 -2 1 -1 1 3 1 2 1 6 1 7 -1 3 0 4 0 4 -1 5 -1 3 -2 4 -2 1 -1
1 -2 -1z"/>
<path d="M505 816 l0 -2 1 1 0 1 0 1 -1 2 0 -3z"/>
<path d="M550 792 l-1 -1 1 0 1 0 0 1 0 1 0 0 -1 0 0 -1z"/>
<path d="M552 791 l0 -1 5 0 5 -1 2 -1 3 0 -4 2 -3 2 -4 0 -4 0 0 -1z"/>
<path d="M575 789 l0 -1 2 0 1 -1 1 0 0 1 -2 1 -2 1 0 -1z"/>
<path d="M567 788 l0 -1 3 -1 3 -1 -1 1 0 1 -3 0 -2 1 0 0z"/>
<path d="M575 784 l1 0 1 0 0 1 -2 0 -1 0 1 -1z"/>
<path d="M535 783 l1 0 1 0 2 1 -3 0 -2 0 1 -1z"/>
<path d="M579 782 l0 -1 1 0 1 0 0 1 1 1 -2 0 -2 1 1 -2z"/>
<path d="M444 871 l0 -1 1 0 1 0 0 1 -1 1 -1 0 0 0 0 -1z"/>
<path d="M423 830 l-2 -1 -1 -6 -2 -5 1 -5 1 -4 0 -4 1 -4 1 -5 2 -5 1 -3 2
-2 1 0 1 0 0 3 0 4 1 1 1 0 0 -1 0 -1 1 1 2 2 1 -1 2 0 2 -4 1 -4 1 3 0 4 1 1
2 1 0 0 1 0 0 -1 0 -2 1 0 1 0 -1 4 0 3 1 0 2 0 -1 5 0 5 -2 3 -1 3 0 2 0 1
-3 4 -4 3 0 1 0 1 -2 1 -1 2 -3 1 -3 1 -3 0 -2 0 -1 -2z"/>
<path d="M487 803 l-1 -1 1 1 2 1 0 1 0 0 0 0 -1 0 -1 -2z"/>
<path d="M452 776 l-7 -2 -6 -3 -5 -3 -7 -4 -6 -5 1 0 1 -1 5 4 5 4 8 4 9 4 6
1 7 1 0 1 0 1 -2 0 -2 0 -7 -2z"/>
<path d="M685 800 l-3 -1 -5 -5 -5 -5 0 -1 0 -1 -1 0 -1 0 -3 -6 -3 -7 0 0 0
-1 2 0 3 0 1 1 1 1 1 -1 2 -2 -1 -2 -1 -2 1 -1 0 -2 -1 -3 -2 -3 1 0 1 0 3 4
3 3 2 0 2 0 1 1 1 1 0 -2 1 -2 1 0 1 0 0 1 1 2 2 0 2 0 5 7 4 8 0 6 -1 7 -1 2
-1 3 -2 0 -2 1 -3 0 -2 0 -4 -1z"/>
<path d="M627 795 l0 -2 1 0 1 -1 0 1 0 2 -1 1 -1 2 0 -3z"/>
<path d="M363 783 l0 -1 0 -1 1 0 2 0 1 1 -1 1 -2 1 -1 -1z"/>
<path d="M331 762 l1 -2 0 -2 1 -2 -3 1 -3 2 -3 2 -2 2 -1 -1 0 0 -2 0 -1 0 0
-3 0 -3 0 -2 1 -2 1 -4 2 -4 7 -7 6 -8 4 -3 4 -2 1 0 1 1 0 2 0 3 2 -1 2 0 0
2 -1 2 2 0 1 0 -1 2 0 2 1 0 1 0 1 0 1 0 0 2 1 2 -1 1 -1 0 0 2 0 2 -7 6 -7 7
-4 2 -4 3 0 0 -1 0 1 -2z"/>
<path d="M323 712 l-1 0 0 -1 0 0 3 0 2 0 0 1 -1 1 -1 0 -2 0 0 -1z"/>
<path d="M767 721 l-3 -2 -5 -2 -4 -2 -4 -3 -4 -3 -4 -4 -3 -3 1 -1 2 -1 5 3
6 3 1 0 1 0 -1 -2 -2 -1 -1 -3 -2 -3 4 2 3 2 -2 -3 -2 -3 -4 -3 -3 -3 0 -1 1
-1 3 1 4 0 1 -2 1 -1 1 1 2 1 0 3 0 2 1 0 1 0 6 6 6 6 2 4 2 5 1 2 0 2 0 1 0
1 -1 1 -1 2 -3 0 -3 0 -3 -1z"/>
<path d="M807 718 l-1 -1 1 1 2 1 0 1 0 0 -1 0 -1 0 0 -2z"/>
<path d="M714 701 l-1 -1 1 0 1 -1 0 1 0 2 0 0 -1 0 0 -1z"/>
<path d="M302 698 l0 0 1 -2 1 -1 1 0 0 1 -1 2 -2 1 0 -1z"/>
<path d="M255 686 l-1 -1 1 -4 0 -3 2 -5 2 -4 5 -4 4 -3 0 1 0 0 2 -2 2 -1 1
1 0 1 2 0 1 0 0 2 0 2 2 0 1 -1 2 -1 1 0 0 1 0 1 1 0 1 -1 0 2 0 2 -3 4 -3 4
-2 2 -2 3 -5 2 -4 3 -4 0 -4 1 -2 -2z"/>
<path d="M670 694 l0 -1 1 1 1 0 0 1 0 0 -1 0 -1 0 0 -1z"/>
<path d="M566 703 l0 -1 1 0 1 0 0 1 0 1 -1 0 -1 0 0 -1z"/>
<path d="M590 685 l0 -2 0 -1 1 0 1 0 2 1 -1 2 0 2 -1 0 -1 0 -1 -2z"/>
<path d="M443 684 l0 -1 1 1 1 0 0 1 0 0 -1 0 -1 0 0 -1z"/>
<path d="M779 643 l-1 -1 1 0 2 0 0 1 0 1 -1 0 -1 0 0 -1z"/>
<path d="M805 626 l-7 -2 -4 -4 -4 -3 -1 -1 0 -1 -3 0 -2 -1 1 -1 1 -1 5 0 5
0 1 0 0 -1 -3 -1 -2 -2 5 -1 5 0 -1 -2 0 -2 3 0 3 1 6 3 7 3 2 2 3 3 2 3 2 3
0 2 0 2 -1 0 -1 0 1 1 0 1 -1 0 0 0 -8 1 -8 0 -6 -2z"/>
<path d="M433 676 l-1 -1 1 0 1 0 1 1 0 1 0 0 0 0 -2 -1z"/>
<path d="M779 660 l-1 -1 1 0 1 0 0 1 0 1 0 0 -1 0 0 -1z"/>
<path d="M752 650 l-1 -1 2 1 3 1 0 1 0 0 -1 0 -1 0 -2 -2z"/>
<path d="M259 615 l0 -1 1 0 1 -1 0 -2 0 -2 1 0 1 -1 0 2 0 2 -2 2 -2 3 0 -2z"/>
<path d="M224 609 l-3 -1 -3 -2 -3 -2 0 -2 1 -2 -1 -1 -1 0 2 -3 1 -2 1 0 1 0
4 -3 4 -2 7 -2 6 -2 2 0 2 0 0 1 0 2 2 1 2 0 2 0 2 -1 2 -1 2 0 0 1 0 1 -3 0
-3 1 -1 1 0 1 3 0 4 -1 -2 2 -2 2 -3 0 -3 0 0 1 0 1 5 0 4 -1 -1 1 0 1 -2 2
-1 2 -6 4 -6 4 -6 0 -5 0 -4 -1z"/>
<path d="M473 635 l0 -2 1 0 1 0 -1 2 -1 1 -1 0 0 0 1 -1z"/>
<path d="M739 623 l0 -1 1 1 1 0 0 1 0 0 -1 0 -1 0 0 -1z"/>
<path d="M436 600 l1 -1 1 1 1 1 -2 0 -2 0 1 -1z"/>
<path d="M528 567 l-1 -1 1 0 2 -1 5 -2 6 -2 -1 2 -2 1 -2 0 -2 1 -2 1 -1 1 0
0 0 -1 -1 1 -2 1 0 -1z"/>
<path d="M470 538 l0 -1 1 0 1 0 0 1 0 1 -1 0 -1 0 0 -1z"/>
<path d="M808 532 l-3 0 -4 -1 -3 0 0 -2 0 -1 -2 -2 -2 -2 2 -1 2 -2 0 -1 0
-1 -2 0 -1 0 1 -1 1 -2 3 -1 3 0 0 -2 0 -1 2 0 3 0 4 -1 4 0 0 2 1 2 2 -2 2
-2 1 1 1 0 1 -1 2 -1 4 1 4 0 2 1 1 2 2 0 2 0 2 2 2 3 -1 0 0 1 1 0 2 0 -1 3
0 3 -1 0 0 1 -8 3 -8 2 -9 1 -8 0 -4 -1z m15 -19 l-1 0 -1 0 -1 1 1 0 2 0 0
-1z"/>
<path d="M817 482 l1 0 1 0 0 1 -2 0 -1 0 1 -1z"/>
<path d="M215 529 l0 -1 0 -1 1 0 1 1 1 1 -1 0 -1 1 -1 -1z"/>
<path d="M219 524 l0 -2 2 0 1 0 2 -2 2 -2 1 0 1 0 0 -1 -1 0 3 -2 2 -1 1 0 1
0 0 1 0 1 -2 2 -2 2 -4 2 -3 1 0 1 1 1 -2 0 -1 1 -1 0 -1 0 0 -2z"/>
<path d="M228 500 l0 -1 -4 0 -4 -1 -5 -1 -5 -1 -1 -3 -1 -3 -1 0 -1 0 0 -2 0
-2 1 0 1 0 0 -1 0 -2 7 0 8 -1 2 0 2 1 2 0 3 1 0 2 0 1 5 2 4 2 0 1 0 1 -4 0
-4 -1 0 1 0 1 3 0 4 0 1 1 0 1 -1 0 -2 0 -1 0 0 1 -3 0 -2 1 0 1 0 1 -2 0 -2
0 0 0z"/>
<path d="M247 467 l-1 0 -2 -3 -2 -2 3 2 3 2 1 1 0 1 -1 0 0 0 -1 -1z"/>
<path d="M688 479 l-1 -2 0 -1 1 0 0 1 0 2 1 0 2 1 -2 1 -1 1 0 -3z"/>
<path d="M685 473 l0 -1 2 0 1 0 0 1 0 1 -1 0 -2 0 0 -1z"/>
<path d="M785 457 l-3 -2 -2 1 -1 0 -1 -1 0 -1 1 0 2 1 1 -1 1 -2 -1 -1 -1 -1
1 0 2 -1 0 3 0 3 1 0 1 1 0 -1 1 -1 2 0 1 0 0 1 0 1 -1 1 -2 2 -2 -2z"/>
<path d="M815 445 l0 -1 -10 0 -11 1 0 -2 0 -2 -1 0 -2 0 -1 -1 -1 -2 1 0 1
-1 0 -3 -1 -2 -1 -1 -2 0 1 -2 2 -1 1 -2 2 -1 1 -2 2 -1 3 -1 4 -2 5 -1 6 0 8
2 9 2 2 3 2 3 0 1 0 2 -4 4 -4 4 -1 0 -1 0 0 1 1 2 -2 1 -2 2 -2 -1 -2 0 0 1
0 1 -1 0 -2 0 0 -1z"/>
<path d="M209 444 l0 -1 1 -1 1 -1 2 1 2 1 0 1 0 1 -2 0 -3 0 -1 -1z"/>
<path d="M233 439 l2 -1 2 0 2 0 0 1 0 1 -2 0 -1 1 -2 0 -2 0 1 -2z"/>
<path d="M242 437 l2 0 1 0 2 1 -3 0 -3 0 1 -1z"/>
<path d="M236 418 l-4 -4 -2 -3 -3 -2 1 -4 0 -4 7 1 7 0 4 1 3 2 3 2 2 2 -1 2
0 2 1 0 1 0 0 2 0 1 -3 0 -3 0 1 2 2 2 0 1 0 1 -6 0 -5 0 -5 -4z"/>
<path d="M257 409 l1 0 1 0 0 1 -2 0 -1 0 1 -1z"/>
<path d="M186 387 l-1 -1 1 0 1 0 0 1 0 1 0 0 -1 0 0 -1z"/>
<path d="M758 383 l-4 -2 0 -1 0 -1 1 1 1 0 0 -1 0 -1 1 0 1 0 0 1 0 1 2 3 2
2 0 0 0 0 -4 -2z"/>
<path d="M756 356 l-1 0 1 -2 0 -1 -2 1 -2 0 0 -1 1 -2 -1 0 0 0 -2 1 -2 1 0
-1 0 0 4 -2 3 -1 -1 -2 -2 -1 1 -2 1 -2 -1 -1 -2 0 -3 1 -3 2 3 -3 3 -3 2 -2
2 -2 -2 1 -2 0 2 -2 3 -1 0 -2 0 -1 5 -3 5 -2 4 -1 5 0 2 0 2 -1 4 1 4 2 0 1
0 2 1 3 0 3 -3 4 -3 5 -6 5 -7 6 -1 0 -1 0 0 -1 -1 -1 -5 2 -5 3 0 -1z"/>
<path d="M732 328 l0 -1 1 0 1 0 0 1 0 1 -1 0 -1 0 0 -1z"/>
<path d="M729 317 l0 -2 1 0 2 0 -1 2 -1 1 -1 0 0 0 0 -1z"/>
<path d="M745 291 l1 -1 1 -1 1 0 0 1 -1 1 -1 1 -1 0 0 -1z"/>
<path d="M293 373 l0 -1 1 -1 1 0 0 -2 -1 -1 1 1 1 0 0 1 0 2 -1 1 -2 1 0 -1z"/>
<path d="M293 342 l-6 -2 -1 -1 -1 -1 -1 1 -2 2 -4 -5 -5 -4 -2 -4 -2 -4 -1
-4 0 -4 2 0 1 0 -1 -1 0 -1 2 -2 1 -2 3 1 2 0 9 5 10 5 3 3 4 3 -2 2 -1 1 -1
0 -1 -1 0 1 0 1 3 2 2 3 0 1 0 1 -1 0 0 0 -3 -2 -3 -1 0 2 0 1 1 3 2 3 -1 0
-1 1 -5 -3z"/>
<path d="M394 313 l0 -1 1 0 0 0 0 1 0 1 -1 0 -1 0 1 -1z"/>
<path d="M689 303 l-1 0 0 -1 0 -1 1 1 1 1 0 0 -1 1 0 -1z"/>
<path d="M686 284 l0 0 0 -1 0 -1 -2 0 -3 1 -1 -1 -1 -1 2 -4 2 -4 0 -1 -1 -1
3 -5 4 -5 4 -3 4 -3 4 0 5 0 1 0 1 1 0 4 -1 4 -4 8 -4 9 -2 1 -2 1 -1 -1 -1
-1 0 1 0 2 -1 -2 -1 -1 -2 2 -2 2 0 0 -1 0 0 -1z"/>
<path d="M652 235 l1 -1 0 0 1 0 1 1 0 2 -1 0 -2 0 0 -2z"/>
<path d="M655 228 l0 -2 1 0 2 -1 -1 2 0 2 -1 0 -1 0 0 -1z"/>
<path d="M363 287 l1 -1 8 -5 8 -4 7 -3 7 -2 1 0 1 1 -9 3 -8 3 -1 0 -1 1 -7
4 -6 4 -1 0 0 0 0 -1z"/>
<path d="M339 278 l-1 -1 1 0 1 0 1 1 0 1 0 0 0 0 -2 -1z"/>
<path d="M328 271 l-5 -4 0 -1 1 0 3 2 4 3 0 -1 1 0 -1 1 0 2 2 1 2 2 -1 0 -1
0 -5 -5z"/>
<path d="M398 271 l2 -1 1 0 1 0 0 1 -1 1 -2 0 -2 0 1 -1z"/>
<path d="M376 261 l-3 -5 -1 2 0 2 -1 0 0 0 -1 -1 -1 -1 -3 -4 -2 -3 0 -3 -1
-3 1 -6 1 -5 2 -1 2 0 3 0 2 1 2 3 3 2 2 5 3 5 -1 2 -1 1 3 5 2 5 0 0 0 1 -3
-3 -3 -3 -1 0 -1 0 -1 1 0 1 1 4 1 3 0 1 -1 0 -3 -6z"/>
<path d="M323 263 l-1 0 1 -1 0 -1 2 0 2 0 0 2 0 1 -2 0 -2 0 0 -1z"/>
<path d="M413 249 l0 -2 1 1 0 1 0 1 -1 2 0 -3z"/>
<path d="M578 237 l0 -3 -1 1 -2 0 1 -4 0 -4 -1 0 -2 0 -1 -1 -1 -2 -1 1 -1 0
1 -3 1 -4 2 -4 3 -4 2 -3 3 -2 3 -1 4 -2 3 0 4 -1 1 2 1 3 0 9 0 10 0 3 -1 4
-2 0 -1 0 0 -2 0 -1 -1 0 -1 1 0 1 0 1 -1 0 -2 0 0 1 0 1 -1 0 -2 -1 -2 2 -2
2 0 -1 -1 0 0 2 -1 3 -1 0 -1 0 1 -4z"/>
<path d="M630 254 l0 -1 1 0 1 0 0 1 -1 1 -1 0 -1 0 1 -1z"/>
<path d="M453 248 l2 -1 1 0 2 0 0 0 0 1 -3 0 -3 1 1 -1z"/>
<path d="M500 238 l1 -2 1 0 0 1 -1 2 -2 2 1 -3z"/>
<path d="M881 654 l-2 -1 0 -1 0 -1 2 0 2 0 1 2 0 1 0 0 0 1 -3 -1z"/>
<path d="M133 489 l-1 -3 2 -1 1 -1 0 1 0 1 0 2 1 3 -2 0 -1 0 0 -2z"/>
<path d="M741 193 l2 -1 1 0 0 1 0 1 -1 1 -2 0 -1 0 1 -2z"/>
<path d="M623 147 l0 -1 1 0 1 0 0 1 -1 1 -1 0 0 0 0 -1z"/>
</g>
</svg>
