<?xml version="1.0" standalone="no"?>
<!DOCTYPE svg PUBLIC "-//W3C//DTD SVG 20010904//EN"
 "http://www.w3.org/TR/2001/REC-SVG-20010904/DTD/svg10.dtd">
<svg style="fill: black; stroke: black;" version="1.0" xmlns="http://www.w3.org/2000/svg"
 width="826.314678pt" height="908.000000pt" viewBox="0 0 826.314678 908.000000"
 preserveAspectRatio="xMidYMid meet">
<metadata>
Created by potrace 1.16, written by Peter Selinger 2001-2019
</metadata>
<g transform="translate(0.118034,1024.000000) scale(1.000000,-1.000000)"
fill="#000000" data-original="#000000" stroke="none">
<path d="M1 1023 l-1 -1 1 0 1 0 1 1 0 1 -1 0 -1 0 0 -1z"/>
<path d="M472 903 l-3 -1 -1 -1 -1 -1 -3 -1 -2 -1 -4 -1 -3 0 -16 -3 -15 -3
-7 -1 -7 -2 -18 -6 -18 -5 -4 -1 -4 -2 -2 0 -2 0 -7 -4 -7 -4 -2 -1 -2 0 -6
-3 -6 -3 -1 0 -1 0 0 -1 0 -1 -2 -1 -2 0 -3 -2 -3 -3 -2 0 -2 -1 1 -1 1 -1 -1
0 -2 -1 1 1 0 1 -1 0 -2 0 1 -1 0 -1 -1 0 -2 0 -1 -1 0 -1 1 0 1 1 0 -1 -1 -1
-1 1 -1 0 -14 -9 -14 -9 -5 -4 -4 -3 -8 -7 -8 -6 0 -2 1 -1 -2 -2 -2 -1 2 2 2
2 -2 0 -1 0 -16 -16 -16 -15 -3 -5 -3 -4 6 7 7 7 5 5 6 6 1 1 2 0 -8 -8 -7 -7
-8 -9 -7 -9 -6 -6 -5 -6 -4 -3 -5 -2 -1 0 -2 0 0 -2 -1 -2 -1 -3 0 -2 -1 -5
-1 -5 -4 -7 -5 -7 -3 -2 -2 -1 2 1 3 0 -2 -5 -3 -5 -8 -16 -7 -16 -1 -3 -1 -2
-1 0 -1 0 0 -1 1 -2 -2 -2 -1 -2 1 -1 0 -1 -1 0 -1 0 -1 -3 -1 -2 2 2 2 3 0
-1 0 -1 -3 -7 -2 -6 -2 -8 -2 -8 -1 -1 -1 -1 0 3 0 4 -1 -3 -2 -3 0 -3 1 -2 0
-2 1 -2 -1 -5 -2 -4 -1 -7 -2 -6 -1 -4 0 -3 -1 -2 0 -2 -1 -9 -2 -8 -1 -12 -1
-11 -3 -7 -4 -8 0 -7 0 -6 1 -6 2 -6 0 -8 1 -7 3 -10 3 -9 1 -9 1 -9 4 -14 5
-14 2 -9 3 -9 1 -6 2 -5 3 -9 3 -9 1 -4 1 -4 2 -5 2 -4 0 -3 1 -3 1 0 2 0 -1
-2 0 -2 1 -1 1 0 0 1 -1 1 1 0 1 0 1 -3 2 -3 6 -12 6 -11 1 -3 2 -2 3 -6 4 -6
6 -9 6 -9 4 -5 5 -5 5 -7 6 -6 1 1 1 0 0 -2 0 -2 1 0 1 1 2 -3 3 -3 1 0 0 0 2
-2 1 -1 0 1 -1 1 1 -1 2 0 0 -1 0 0 -1 -2 -1 -2 1 -1 1 -1 0 1 -1 2 1 1 1 0 2
-1 1 -2 -1 -1 0 -1 -1 1 -1 0 0 -1 1 -1 1 1 2 0 2 -1 2 -1 -2 0 -1 0 0 -1 0
-2 2 1 1 0 0 -1 1 -1 1 1 1 0 0 -1 0 -1 1 0 1 1 -1 -1 0 -2 -1 0 0 0 -2 2 -2
1 2 -2 2 -3 1 1 1 0 2 -1 2 -2 -1 0 0 -1 2 0 2 1 0 -1 0 -1 2 -2 3 -2 0 0 1 0
8 -6 7 -6 0 -1 -1 0 -4 2 -3 3 -2 0 -1 1 1 -1 1 -1 4 -4 5 -3 -1 -1 -1 0 1 -2
1 -1 -1 0 -1 0 -5 3 -5 3 -3 2 -2 1 1 -1 1 -1 8 -5 8 -6 1 1 1 0 1 -2 2 -2 2
0 1 0 2 -1 3 -1 3 -1 3 0 2 -2 2 -2 1 0 1 0 0 -1 -1 -1 1 -1 1 0 0 1 -1 1 1 0
1 0 7 -5 8 -5 3 -1 3 -1 -1 1 0 1 1 0 0 0 5 -3 5 -2 0 -1 0 -1 2 0 2 0 1 -1 1
-1 1 -1 2 0 5 -2 5 -2 -1 -1 0 -1 1 1 2 0 1 -1 0 -1 -1 1 -1 0 0 -1 1 -1 2 1
1 1 0 -1 1 -1 -1 0 -1 -1 6 -2 7 -2 8 -3 8 -3 11 -3 11 -3 9 -2 10 -3 7 -1 7
-1 12 -2 13 -2 16 -1 16 -1 16 0 17 -1 7 1 8 1 3 1 4 2 4 0 5 0 8 1 8 1 1 1 2
0 1 1 1 0 4 0 4 0 -2 1 -1 1 3 0 3 1 0 -1 0 -1 -2 0 -1 0 0 0 1 -1 6 1 7 1 -3
1 -3 1 10 2 10 2 8 3 9 2 6 2 6 2 5 2 6 3 1 0 1 0 1 0 1 0 -1 1 0 1 1 1 2 0 0
2 -1 1 1 0 1 -1 4 1 4 1 1 1 1 1 -3 -1 -3 -1 -1 0 -1 0 1 1 2 2 0 0 0 1 1 1 2
2 5 2 5 2 7 5 7 4 6 3 7 4 2 -1 2 -1 -3 -2 -4 -2 0 0 0 -1 2 1 2 0 -2 -2 -2
-2 0 -1 0 0 2 2 2 2 0 1 -1 1 4 1 3 1 0 2 -1 2 2 0 2 0 0 2 0 2 5 3 5 3 2 1 2
2 10 7 10 8 1 2 2 1 -12 -8 -11 -8 -4 -3 -4 -2 0 0 0 1 7 6 8 5 2 2 2 3 8 6 7
7 1 1 2 1 1 0 1 0 1 2 2 2 0 0 -1 1 1 0 0 -1 7 7 6 7 0 0 0 1 -4 -4 -3 -3 -1
0 -1 0 3 4 4 4 1 0 1 0 2 2 2 2 2 3 3 4 3 3 3 4 0 1 0 1 6 7 6 7 5 7 6 7 0 1
-1 0 -10 -11 -11 -12 -1 1 -1 0 -2 -1 -2 -2 -1 1 -1 0 0 -1 1 -1 -2 -1 -1 -1
0 1 1 1 -1 0 0 0 -3 -4 -2 -3 -5 -5 -4 -4 -6 -4 -5 -4 -6 -3 -6 -3 0 -1 -1 -1
-2 1 -2 0 -2 -2 -2 -1 -1 1 -2 2 -5 -1 -5 -1 0 -1 0 -1 2 0 2 1 2 1 3 0 0 -1
0 -1 -3 -2 -3 -2 -1 0 -1 0 1 -1 0 -1 -3 -1 -2 -1 -2 0 -1 1 1 -1 0 -1 -3 -1
-2 -1 -2 0 -2 0 1 1 0 1 -1 0 -1 0 0 -1 0 -2 -1 0 -2 0 1 1 0 2 -1 0 0 0 -2
-1 -2 -1 1 0 2 0 0 -1 0 -1 -1 0 0 0 -2 0 -1 -1 -3 -1 -3 0 0 1 1 2 -2 0 -1 0
3 2 3 1 -4 0 -3 0 0 1 0 1 -3 -1 -3 0 0 1 1 1 -2 0 -2 0 6 3 6 2 0 2 0 1 4 2
5 2 7 2 8 2 1 1 1 0 0 1 -1 0 -6 -1 -5 -2 -8 -3 -7 -3 -2 -1 -2 -1 -11 -2 -10
-2 -2 0 -2 0 -2 -1 -1 -1 3 0 4 1 0 -1 1 -1 -3 0 -3 -1 -3 0 -3 0 -4 3 -4 3 0
0 -1 0 2 1 1 1 -1 1 -2 0 -2 -1 -1 -1 -5 -1 -5 -1 0 -1 0 -1 -2 0 -1 0 1 -1 1
-1 -1 -1 -1 -1 -5 0 -5 0 -5 0 -5 1 -1 2 0 1 -3 -1 -3 0 0 2 1 2 -2 0 -1 0 0
-1 0 -2 -2 0 -1 0 0 2 1 1 -1 0 -1 0 0 -2 -1 -1 0 2 0 2 -2 -1 -2 -2 0 1 -1 2
4 1 4 0 1 0 1 -1 1 1 2 0 -1 2 0 2 -1 -1 -1 0 0 1 0 2 2 0 2 0 -2 1 -1 0 1 1
0 2 -1 0 -2 1 0 -2 1 -1 -2 -1 -1 0 1 2 0 2 -3 1 -3 1 -6 0 -5 0 0 1 0 1 -2 0
-1 -1 0 2 0 1 -1 0 -1 0 0 -1 1 0 -5 -1 -4 0 1 1 1 1 -1 0 -2 1 0 -1 -1 -1 -3
1 -3 2 -5 1 -6 0 0 -2 0 -2 -1 1 0 1 -6 0 -5 0 1 0 0 1 -1 0 -2 -1 0 1 0 1 -3
2 -4 2 -1 0 -2 0 -1 -3 0 -3 -2 1 -1 0 1 -1 0 -2 -3 0 -2 0 -2 1 -1 1 -1 0 -1
-1 -1 1 -2 2 -2 -1 -1 0 -2 1 -2 2 1 -1 2 0 -2 3 -1 4 1 0 0 0 -1 3 -2 2 3 -1
4 -2 0 1 0 0 -4 3 -4 2 -2 0 -1 0 -2 2 -2 2 -1 0 0 -1 1 -1 0 -2 1 0 1 0 3 -1
3 -1 -3 -1 -2 -1 -8 0 -7 1 0 -2 0 -1 1 0 1 -1 0 -3 0 -3 -1 0 -1 0 0 1 1 1
-1 0 -1 1 0 -1 0 -1 -2 1 -1 0 0 1 1 2 2 -1 1 0 -1 1 -2 2 -1 0 -1 -1 1 2 0 3
-3 2 -3 3 -1 0 -1 0 1 -1 0 -1 -2 0 -3 0 0 1 -1 1 1 2 0 3 1 -1 1 0 -1 2 0 2
2 0 2 1 0 1 0 1 -1 0 -1 0 0 1 0 1 -2 3 -2 3 1 0 0 1 2 -1 2 -1 0 2 1 1 2 0 3
1 -1 -1 0 -1 2 0 2 0 1 0 1 0 1 -2 0 -2 1 0 1 0 0 4 0 3 -1 0 -1 0 2 1 2 1 1
1 0 2 -3 -1 -3 0 -1 1 0 1 2 0 2 -1 0 5 -1 4 -2 3 -2 2 -4 4 -3 3 0 0 -1 0 0
1 0 1 -2 1 -2 1 -1 -1 -2 -1 -2 0 -2 1 -3 -1 -4 -2 0 2 -1 2 -2 0 -2 -1 0 1 0
1 -2 0 -1 -1 -1 2 0 1 -1 -1 -1 0 -2 2 -1 2 -1 -2 -1 -1 -1 0 -1 1 0 1 0 2 -2
0 -1 1 -1 -2 -2 -1 -1 0 -1 1 0 2 0 2 -1 0 0 0 -2 3 -2 3 0 2 0 1 -2 3 -2 3
-2 0 -1 0 0 1 0 1 -2 -1 -2 -2 -1 0 0 0 1 1 1 1 0 2 0 1 -2 -2 -2 -2 1 -1 2
-2 0 0 0 -1 -2 0 -1 1 -1 1 -1 2 -1 0 -1 0 -6 5 -5 4 0 0 -1 0 1 -2 2 -3 -1 0
0 -1 -1 0 -1 0 0 1 1 1 -2 2 -2 2 -5 4 -4 5 0 1 0 1 -3 2 -3 3 0 -1 -1 0 0 1
1 0 -2 4 -2 4 1 1 1 1 0 3 0 4 1 -2 0 -1 2 0 2 0 0 1 -1 2 -3 0 -2 0 -2 1 -1
1 -1 -1 -1 0 -1 1 0 1 2 2 2 1 1 0 1 -1 0 2 0 1 1 0 1 0 1 -2 1 -1 0 1 0 1 1
2 2 1 0 -2 0 -3 -1 0 -1 0 0 -1 0 -1 3 1 2 1 0 -1 0 -2 3 -1 2 -1 0 -1 0 -1
-2 -1 -1 -1 1 -1 1 -1 2 1 1 0 -1 1 -1 1 1 1 2 1 1 -1 1 0 0 1 -1 0 2 1 1 2
-2 3 -1 3 -2 1 -2 2 2 0 2 0 0 1 0 2 3 1 2 0 0 2 0 2 1 0 2 0 1 3 1 2 0 3 0 3
-1 0 -2 1 1 1 0 2 -1 1 -2 1 0 2 0 1 -2 0 -2 0 -1 3 0 2 -1 0 0 -1 -2 2 -1 1
-1 -1 -1 -1 -1 0 -1 1 -1 -1 -2 -1 -2 1 -2 0 -2 2 -1 2 -1 0 -1 -1 -1 2 0 3 0
0 0 1 -1 0 -1 0 0 2 0 2 1 0 1 1 0 2 -1 3 -3 1 -3 2 1 -1 0 -1 -1 1 -1 2 -2 0
-2 1 0 -2 0 -2 -1 1 -1 0 0 -2 1 -2 -1 0 -1 0 0 2 0 1 -1 0 -1 -1 0 1 0 1 1 0
1 0 -1 1 0 2 1 0 1 1 -1 2 -1 2 1 1 0 2 1 1 1 0 -1 2 0 1 1 1 1 2 0 2 -1 2 1
-1 1 0 0 0 0 1 -1 3 -1 3 2 -1 1 -1 0 2 0 2 -2 0 -1 0 1 2 1 1 0 1 -1 0 0 -1
0 -1 -1 0 -1 0 0 1 1 1 -2 1 -2 1 -1 0 -1 1 -1 0 0 1 -2 -1 -1 0 0 1 0 1 -2 0
-2 1 0 2 1 2 -2 1 -2 2 -1 0 -1 0 1 -1 2 -1 -1 0 -1 0 -2 1 -1 1 0 2 1 2 0 1
1 0 -2 2 -2 2 2 0 2 -1 1 3 2 3 0 -1 1 0 0 1 0 1 -2 2 -1 2 1 0 1 0 -1 4 0 4
0 1 0 2 -1 0 -1 0 0 -1 -1 -1 -2 2 -3 1 0 -1 -1 -1 -1 0 -1 0 -1 2 -1 2 -2 -3
-2 -3 -3 0 -2 0 0 -1 0 -1 -1 0 -1 1 -2 -2 -2 -2 -2 1 -1 0 -2 -2 -2 -2 1 -3
1 -2 0 -1 -1 0 1 -3 2 -2 -1 -1 -1 0 -1 1 0 1 -1 0 -1 0 1 -1 0 -2 -1 0 -1 0
0 2 0 2 0 5 0 5 -1 1 -1 0 0 -1 0 -1 -2 0 -1 -1 0 1 1 1 -2 1 -1 2 0 -3 0 -2
-1 2 0 2 -2 2 -2 1 1 5 1 5 -1 1 -2 2 1 3 1 3 1 2 2 1 2 0 2 -1 1 1 0 1 1 3 0
4 0 3 1 4 -1 1 0 1 -3 1 -2 0 -2 2 -1 2 1 -2 0 -1 -1 0 -1 1 0 1 1 0 -1 3 -2
2 0 4 1 5 2 0 2 1 -2 1 -2 1 0 2 0 1 -1 0 -1 0 0 -1 0 -1 -1 1 -1 1 0 2 0 2
-2 -1 -2 0 0 1 0 2 1 -1 2 0 2 5 2 5 0 -7 -1 -7 2 0 1 0 0 4 0 5 0 3 0 4 2 0
1 -1 0 2 -1 3 0 4 -1 4 1 0 2 0 0 1 0 1 -2 -1 -1 0 0 1 1 1 2 6 1 6 -1 0 -1 0
-1 -3 0 -3 -1 1 -1 0 -2 -4 -2 -4 0 2 1 3 1 6 1 6 3 9 3 9 3 4 3 4 0 -2 0 -3
2 3 2 4 -1 0 0 1 1 0 2 1 0 -2 -1 -2 2 1 1 0 0 -1 -1 -1 1 0 1 0 0 2 0 3 2 1
2 1 0 2 0 1 2 0 1 0 -1 2 -1 2 1 1 0 1 -1 0 -1 0 1 2 2 3 0 0 1 0 -2 2 -1 1 2
2 1 1 -1 0 0 0 2 2 3 2 -2 0 -1 0 1 1 1 1 0 1 0 1 -2 -2 -1 -2 -2 1 -1 1 2 3
1 4 3 1 4 2 0 1 0 2 -1 0 -1 -1 0 2 0 2 0 1 0 2 -1 -2 -1 -1 -1 0 0 1 -2 -2
-2 -1 1 -2 0 -1 -1 0 -1 1 0 -1 0 -1 1 -1 1 -1 -2 -3 -2 -3 -2 0 -3 0 0 -1 0
-1 2 -2 1 -1 -1 -2 -1 -2 0 2 0 2 -1 0 -1 0 0 -2 -1 -1 0 2 0 3 -1 -2 -1 -1
-2 -1 -2 0 -1 2 0 2 -1 -1 -2 0 1 -3 0 -3 0 0 -1 0 -1 1 -2 1 1 2 0 3 2 1 1 1
0 2 -1 2 2 1 2 1 0 3 1 3 1 -1 2 0 -2 1 -1 2 1 0 1 1 -1 2 -1 2 2 5 1 6 0 1 1
1 1 2 2 2 -1 0 0 1 4 7 3 7 1 0 0 0 1 -1 2 -1 1 1 1 1 -1 0 -1 1 1 2 0 1 1 0
1 0 0 -1 -1 -2 1 -1 1 -1 0 3 0 3 1 -2 0 -2 1 -1 1 -1 0 1 -1 1 1 0 2 0 1 1 1
2 -1 1 -1 1 1 0 2 0 0 -4 -1 -4 2 0 2 0 -2 -1 -1 0 0 -1 0 -1 1 1 1 0 -1 -2
-1 -2 1 -1 1 -1 0 1 0 1 1 2 2 1 0 -2 1 -3 3 2 4 2 1 -1 1 0 2 1 1 2 0 0 1 0
2 1 3 1 0 2 0 1 2 1 1 1 -1 1 -1 1 2 1 2 2 -2 0 -1 0 0 3 1 4 -2 -1 -2 0 0 1
0 1 -1 0 -1 -1 0 1 0 1 -1 0 -2 -1 -1 1 0 1 -1 -1 -1 0 0 2 0 3 -1 1 -1 1 -1
-1 0 -1 1 -1 1 -1 0 -1 -1 -2 -2 0 -2 0 0 2 -1 1 2 2 2 2 0 3 0 2 2 -2 1 -1 0
1 0 1 2 2 3 3 1 0 2 0 -1 3 0 4 3 4 3 3 -1 0 -1 -1 0 0 0 1 8 6 8 6 1 1 1 2 2
1 3 2 3 3 4 3 2 1 3 0 2 2 3 1 4 5 5 4 7 5 8 5 1 -1 1 0 0 1 -1 1 2 1 2 0 0 1
0 1 2 1 3 0 5 3 5 2 0 1 0 2 4 2 5 2 -3 -1 -2 0 1 1 2 1 3 0 4 0 2 1 2 1 0 -1
1 0 0 1 0 1 4 2 4 2 1 0 1 -1 1 2 2 1 -1 0 -1 0 -1 -1 -1 -1 0 1 0 1 1 1 1 1
4 -1 5 0 1 1 1 2 4 0 5 0 1 1 1 1 5 0 5 0 8 0 8 -1 5 -2 5 -1 4 0 4 0 1 2 2 2
0 0 0 0 10 1 9 1 2 2 2 1 -2 1 -1 1 -6 -1 -5 -2 -3 0 -3 1 -1 1 0 1 4 2 5 2 1
0 0 -1 3 1 3 1 0 1 -1 1 -11 1 -11 1 -13 1 -13 1 -2 -1 -1 -1 -7 1 -6 0 -10 1
-9 0 -6 0 -6 1 -3 -2z m81 -11 l0 -2 -3 0 -3 0 -8 1 -7 2 11 0 11 0 -1 -1z
m-69 -9 l-1 -1 -2 0 -1 0 1 1 0 1 2 0 3 0 -2 -1z m-4 -3 l-1 -1 -1 0 -1 0 1 1
0 1 2 0 2 0 -2 -1z m-25 -10 l-1 -1 -2 0 -1 0 1 1 2 1 0 0 1 0 0 -1z m-5 -2
l-1 0 -1 0 -1 1 1 0 2 0 0 -1z m0 -3 l-1 -1 0 -1 -1 0 -1 -1 0 0 -3 -2 -3 -2
-6 -3 -6 -3 -4 -2 -3 -3 -1 1 -2 0 1 2 0 1 9 5 9 5 1 0 2 0 -1 1 0 1 1 0 1 -1
4 2 3 2 1 0 0 0 0 -1z m-157 -32 l0 -1 -16 -12 -15 -11 -2 -2 -2 -1 0 0 0 1
10 8 10 9 7 4 7 5 1 0 0 0 0 0z m76 -22 l-2 -2 -1 0 -1 0 2 2 1 2 1 0 1 0 -1
-2z m-21 -40 l0 -1 1 1 2 0 -3 -2 -2 -2 -1 0 -1 0 0 1 -1 1 1 0 2 0 0 1 0 1
-1 0 -1 -1 0 1 0 1 1 0 2 1 0 0 1 0 0 -2z m-9 -6 l0 -1 -2 0 -2 0 1 1 0 1 1 0
1 0 1 -1z m-27 -40 l-1 -2 -1 -3 -1 -3 -1 0 0 1 1 4 1 4 1 1 0 1 1 0 0 0 0 -3z
m-5 -7 l0 -3 -1 -3 0 -2 -1 0 -1 0 1 5 0 5 0 0 0 1 1 0 1 0 0 -3z m-4 -4 l-1
-3 -1 -1 -1 0 0 2 0 2 1 1 2 1 -1 1 0 1 1 0 1 -1 -1 -3z m3 -10 l0 -1 0 -1 -1
0 -1 2 -1 2 1 0 1 0 1 -2z m20 -7 l-2 -2 0 1 0 1 1 1 2 2 0 -1 0 0 -1 -2z
m-22 -41 l-3 -12 -1 -1 0 -1 1 5 0 5 3 7 2 8 1 1 0 1 1 0 0 -1 -4 -12z m-14
11 l0 -2 -1 0 -2 0 0 1 -1 1 1 0 2 1 0 0 1 0 0 -1z m11 -10 l-2 -8 0 -3 0 -2
-1 -3 -1 -2 -1 -2 0 -2 -1 -2 -1 -2 -1 0 0 1 2 6 1 6 0 1 -1 0 -1 -3 -2 -3 0
1 -1 0 0 -2 0 -2 -1 0 -1 0 -1 1 -1 2 -3 -1 -2 -1 -1 4 -2 3 2 0 3 -1 0 3 1 3
-1 0 -1 0 1 2 1 2 3 0 2 0 0 1 0 1 2 -1 1 0 0 1 0 2 0 1 0 1 1 0 1 -1 0 -2 -1
-2 2 -1 1 -1 0 1 -1 1 1 0 1 0 0 2 -1 1 2 2 2 1 0 2 -1 2 1 -1 1 0 1 1 0 2 1
0 0 -1 -3 -8z m-9 3 l0 -2 -2 1 -2 0 0 1 0 1 2 0 2 0 0 -1z m-16 -22 l0 -1 -1
0 -1 0 0 -1 0 -1 0 -2 0 -1 -3 1 -2 1 -1 0 -1 -1 0 2 -1 2 2 2 1 1 1 -1 1 0
-2 -1 -1 0 0 -1 0 -1 2 0 1 -1 -1 1 0 1 1 2 1 1 -1 0 0 0 2 3 2 2 1 -3 1 -2
-1 -2z m-11 1 l-1 -1 0 1 0 2 1 0 0 -1 0 -1z m38 -10 l-1 -1 0 2 0 2 1 0 0 1
1 -1 0 -1 -1 -2z m-27 -6 l-1 -1 3 0 3 1 0 -1 0 -1 -2 -2 -3 -3 -1 2 -1 2 0 2
0 2 1 0 1 0 0 -1z m-134 -8 l0 -1 -1 0 -1 -1 0 1 0 2 1 0 1 0 0 -1z m155 -14
l-1 -1 -1 0 0 1 0 1 1 1 1 0 1 0 -1 -2z m4 -4 l0 -1 -1 0 -1 0 0 1 0 1 1 0 1
0 0 -1z m-2 -4 l0 -1 -1 1 -1 2 0 0 0 1 1 -1 2 -1 -1 -1z m1 -3 l1 -2 -1 0 -1
-1 0 2 0 2 0 0 1 0 0 -1z m-25 -6 l0 -1 -1 0 -1 0 1 1 0 1 1 0 0 0 0 -1z m28
-49 l0 -1 -1 0 -1 0 1 1 0 1 1 0 0 0 0 -1z m-12 -2 l-1 -1 0 1 0 2 1 0 0 -1 0
-1z m-165 -9 l-1 -2 0 3 0 3 1 2 1 2 0 -3 0 -3 -1 -2z m179 3 l-1 0 1 -2 2 -1
-2 0 -2 1 1 -2 0 -1 -1 0 -2 0 0 1 0 1 2 2 1 2 1 0 0 0 0 -1z m-9 -9 l-1 -3 2
-1 2 -1 -2 0 -2 0 0 -2 1 -2 -1 0 0 0 -2 1 -1 1 0 1 1 1 -1 0 -1 1 0 1 1 2 0
2 1 3 2 0 1 0 0 -4z m-169 -16 l1 -15 -1 5 -2 6 1 10 0 11 0 0 0 0 0 0 1 -1 0
-16z m163 15 l-1 -1 0 1 0 2 1 0 0 -1 0 -1z m69 -16 l0 -1 -1 0 -1 0 1 1 0 1
1 0 0 0 0 -1z m-230 -25 l-1 -2 0 5 0 6 1 -3 0 -3 0 -3z m234 -10 l0 -1 0 -2
0 -2 -2 0 -2 1 -2 1 -1 1 1 0 0 1 1 0 1 0 0 -1 -1 -1 1 0 2 0 -2 2 -1 2 0 3 0
4 1 -2 0 -1 1 0 1 0 0 2 0 2 1 -4 1 -4 0 -1z m2 5 l0 -2 0 -1 0 -1 -1 2 -1 2
1 1 0 1 1 0 1 0 -1 -2z m1 -9 l0 -1 -1 0 -1 0 1 1 0 1 1 0 0 0 0 -1z m1 -6 l1
-3 -2 2 -2 2 -1 1 -1 1 0 0 0 1 2 0 1 0 2 -4z m7 -5 l0 -2 -1 0 -1 0 0 1 0 2
-1 -2 -1 -1 0 1 -1 1 -1 0 -1 -1 -1 1 0 1 1 0 1 -1 2 2 2 2 1 -1 1 0 0 -3z m8
-3 l0 -1 0 -1 1 -1 1 0 1 0 0 -2 -1 -2 0 -2 0 -2 -1 1 -1 2 0 2 0 3 -1 0 -1 1
0 2 -1 2 1 0 1 0 1 -2z m-11 -1 l3 -1 1 1 0 2 2 0 1 0 0 -1 1 -2 -1 -1 -1 -2
-2 0 -1 0 -2 0 -2 -1 -2 3 -2 2 1 1 0 1 1 0 0 0 3 -2z m-45 -1 l2 -1 -1 -2 0
-1 -2 1 -2 1 0 2 0 1 1 0 1 0 1 -1z m15 -3 l0 -2 -1 0 -1 0 1 1 0 1 -1 1 -1 1
1 0 2 -1 0 -1z m37 -2 l0 -2 -1 1 -1 0 0 1 0 1 1 0 1 0 0 -1z m-50 -2 l0 -1
-1 1 -1 1 0 0 -1 1 1 0 2 0 0 -2z m20 0 l0 -1 -1 0 -1 0 0 1 0 1 1 0 1 0 0 -1z
m-17 -50 l1 -1 -3 0 -4 0 0 1 0 0 2 2 1 1 1 -1 1 -1 1 -1z m-1 -5 l0 0 -1 0
-1 1 0 1 0 1 1 -1 2 -1 -1 -1z m42 -1 l2 -3 2 0 2 1 1 -2 2 -1 0 1 1 0 0 -1 0
0 1 -2 1 -1 1 2 2 2 1 -2 0 -2 1 0 1 0 0 2 -1 3 1 -2 1 -1 1 -2 1 -2 -2 0 -1
1 1 -2 2 -2 -1 -2 0 -2 -1 0 -1 0 0 1 0 1 -2 0 -1 1 0 -1 1 -2 -2 1 -1 0 0 2
0 2 -1 -1 -1 -1 1 -2 1 -2 -1 0 -1 0 1 -1 0 -1 2 0 1 1 1 -1 0 -1 -1 -1 -2 0
1 -2 0 -2 -1 0 -1 0 -3 2 -4 1 0 1 0 1 3 -2 2 -1 0 1 0 2 -1 1 -1 0 1 1 2 1
-1 2 0 2 0 0 0 0 -3 -2 -2 -1 -4 4 -4 5 -3 -1 -2 0 1 1 2 1 0 3 -1 2 1 3 0 2
2 0 1 0 2 -3z m-35 -2 l-1 -2 2 1 2 0 0 -1 0 -1 -1 -1 -1 -1 1 0 1 1 0 -2 1
-2 -2 1 -1 1 -3 3 -3 3 0 1 1 1 3 0 3 0 -2 -2z m49 -2 l0 0 -1 0 -1 1 0 1 0 1
1 -1 2 -1 -1 -1z m-50 -10 l-1 -2 -1 1 -1 0 0 2 0 2 2 0 1 -1 -1 1 0 2 -2 -1
-1 0 0 1 0 1 -1 2 0 2 3 -4 4 -4 -2 -2z m-7 5 l0 -1 -2 1 -1 1 0 1 0 0 1 0 1
-1 0 1 0 1 1 0 1 -1 -1 -2z m17 -1 l1 0 0 -3 0 -3 -1 1 -1 0 -2 2 -2 1 1 2 1
1 1 0 1 0 1 -1z m4 -2 l-1 -2 1 0 2 0 1 -1 1 -2 -1 -1 0 -2 -2 1 -1 0 0 1 1 1
-2 2 -1 1 1 2 0 1 1 0 0 0 0 -1z m47 -1 l0 -1 -1 0 -1 0 0 1 -1 1 1 0 1 0 1
-1z m-56 -3 l2 -1 -2 1 -2 1 0 1 0 0 0 0 1 0 1 -2z m53 -5 l1 -1 0 0 -1 -1 -1
2 -2 1 1 0 1 0 1 -1z m21 -6 l0 -2 -1 1 -1 0 1 1 0 2 -1 -2 -2 -2 -1 0 0 1 0
3 -1 4 3 -2 3 -2 0 -2z m-23 3 l-1 -1 -1 0 -1 0 1 1 0 1 1 0 1 0 0 -1z m-10
-3 l2 -1 1 1 1 1 1 0 1 0 0 -2 0 -2 -2 0 -2 1 -1 -1 0 -1 -2 2 -2 1 0 1 0 1 1
0 0 0 2 -1z m25 -3 l0 -1 -1 1 -2 0 0 1 0 0 2 0 1 0 0 -1z m-26 -1 l0 -1 -1 0
-2 0 1 1 0 1 1 0 1 0 0 -1z m-6 -3 l2 -1 -2 1 -2 1 0 1 0 0 0 0 1 0 1 -2z m16
0 l1 -1 0 -1 -1 0 -1 2 -2 2 0 0 1 0 2 -2z m-24 -9 l0 -1 -2 1 -2 1 -1 3 -1 4
3 -3 3 -3 0 -2z m-10 0 l0 0 -1 1 -2 2 0 1 0 1 2 -2 2 -2 -1 -1z m33 5 l0 -1
-1 0 -1 -1 0 1 0 1 1 0 1 0 0 0z m45 -9 l-1 0 -1 1 -1 1 1 1 0 1 1 -1 1 -2 0
-1z m-5 1 l1 -1 -1 1 -1 0 0 1 0 1 0 0 1 0 0 -2z m44 -7 l-1 -1 0 1 0 2 1 0 0
-1 0 -1z m-50 -2 l1 -2 -1 0 -1 0 -1 2 -2 2 1 0 1 0 2 -2z m0 -5 l3 -3 0 0 0
-1 -2 0 -2 0 -1 2 0 2 -1 0 -1 0 0 1 0 1 1 0 1 0 2 -2z m15 -32 l0 -1 2 0 1 0
0 -1 0 -1 -1 0 -1 0 -1 2 -2 2 1 0 1 0 0 -1z m34 -6 l-1 -1 -1 1 -1 1 1 0 1
-1 0 1 0 1 1 -1 1 0 -1 -1z m52 -27 l0 -1 -1 0 -1 1 -2 -2 -1 -1 -1 1 0 1 -1
0 -1 0 0 -1 1 -1 -3 -1 -3 -1 1 1 0 1 -2 0 -2 0 0 1 0 1 3 -1 3 0 1 1 0 2 5 0
4 0 0 -1z m3 -1 l0 -1 -1 0 -1 0 0 1 0 1 0 0 1 0 1 -1z m-296 -5 l-1 0 -2 1
-2 2 0 1 0 1 2 -2 3 -2 0 -1z m291 2 l0 -1 -1 0 -1 0 1 1 0 1 1 0 0 0 0 -1z
m-27 -1 l-1 0 0 -1 0 -1 2 1 2 0 0 -1 0 -1 1 0 1 1 0 -1 1 -2 -3 1 -2 0 -1 0
0 1 -2 0 -2 0 0 0 0 1 1 1 0 2 2 0 3 0 -2 -1z m9 -5 l0 -1 0 0 -1 0 0 1 -1 1
1 0 1 0 0 -1z m109 -1 l0 -1 -2 -1 -2 -1 0 1 0 2 2 0 2 1 0 0 0 0 0 -1z m26
-17 l4 -1 -1 0 0 0 -6 0 -6 -1 -4 1 -3 1 0 1 0 1 6 0 7 -1 3 -1z m-7 -4 l0 -1
-2 0 -1 -1 -1 1 -1 0 1 1 1 1 2 0 1 0 0 -1z"/>
<path d="M371 445 l0 -1 1 0 0 0 0 1 0 1 -1 0 -1 0 1 -1z"/>
<path d="M369 384 l0 -1 1 0 0 0 0 1 0 1 -1 0 -1 0 1 -1z"/>
<path d="M570 895 l1 0 1 0 0 1 -2 0 -1 0 1 -1z"/>
<path d="M230 807 l0 -1 0 -1 1 0 0 1 1 2 0 0 -1 0 -1 -1z"/>
<path d="M233 799 l-2 0 -1 -2 -1 -2 3 2 3 2 0 1 0 0 0 0 0 0 -2 -1z"/>
<path d="M219 786 l-1 -2 1 0 1 0 2 3 2 2 -2 0 -1 0 -2 -3z"/>
<path d="M215 782 l-1 -1 1 -1 0 0 2 1 1 2 -1 0 -2 1 0 -2z"/>
<path d="M365 781 l0 -1 1 0 0 0 0 1 0 1 -1 0 -1 0 1 -1z"/>
<path d="M369 780 l-1 -1 0 -1 0 0 2 0 2 0 0 1 0 2 -2 0 -1 1 0 -2z"/>
<path d="M354 779 l0 -1 2 0 1 -1 0 1 0 1 -1 0 -2 0 0 0z"/>
<path d="M346 748 l-1 -2 0 -1 1 -1 1 2 1 3 0 0 -1 0 -1 -1z"/>
<path d="M320 737 l1 -1 -1 -2 -1 -1 1 0 1 0 0 1 1 2 -1 1 -1 0 0 0z"/>
<path d="M326 735 l-1 -1 1 0 1 0 0 1 0 1 0 0 -1 0 0 -1z"/>
<path d="M317 728 l-1 -2 2 1 1 1 0 1 0 1 -1 0 -1 0 0 -2z"/>
<path d="M326 711 l0 -1 1 1 1 0 0 1 0 1 -1 0 -1 0 0 -2z"/>
<path d="M330 699 l0 -1 2 0 1 -1 0 1 0 1 -1 0 -2 0 0 0z"/>
<path d="M335 672 l-2 -1 1 -1 0 -2 2 1 2 0 0 3 0 2 -1 0 -1 0 -1 -2z"/>
<path d="M311 637 l-1 -2 -1 0 -1 0 1 -1 1 -2 3 0 2 0 0 3 -1 4 -1 0 -2 0 0
-2z"/>
<path d="M318 630 l-1 -1 2 1 2 0 0 1 0 0 -1 0 -2 0 0 -1z"/>
<path d="M141 625 l0 -1 1 1 0 1 0 1 -1 0 0 -2z"/>
<path d="M321 624 l0 -1 -2 0 -2 1 0 -2 -1 -2 1 -1 0 -1 2 1 3 0 1 2 2 1 0 1
0 1 -2 0 -2 1 0 -1z"/>
<path d="M305 611 l0 -5 1 -2 0 -2 2 0 2 0 -2 1 -2 2 1 5 0 6 -1 0 -1 0 0 -5z"/>
<path d="M309 608 l-1 -1 1 -1 1 -1 0 2 0 2 -1 0 0 0 0 -1z"/>
<path d="M310 602 l0 -1 0 -1 1 0 0 1 0 1 1 0 1 -1 0 1 0 1 -1 0 -1 0 -1 -1z"/>
<path d="M368 589 l-2 0 1 -1 2 -1 -2 0 -2 0 0 -2 0 -1 1 1 1 1 3 0 3 -1 -2 1
-1 0 0 1 0 1 1 -1 2 0 -2 1 -1 2 0 0 0 0 -2 -1z"/>
<path d="M347 583 l0 -1 -1 0 -2 0 0 -2 0 -2 -1 -1 -2 0 0 -3 0 -3 2 -3 1 -3
-1 0 0 0 1 -2 1 -1 2 1 2 0 -1 -2 0 -1 0 0 1 1 2 -1 1 -1 2 2 3 2 -1 1 0 1 1
0 1 -1 3 2 3 2 -1 1 -2 1 -1 0 -1 -1 0 4 1 3 -1 0 -1 0 -2 2 -3 2 1 1 0 1 -3
1 -3 1 -1 0 0 0 0 -1z"/>
<path d="M412 580 l-1 -1 1 1 0 1 -1 0 -1 -1 1 -2 1 -1 0 0 -1 1 -2 -2 -1 -1
1 -1 2 -1 0 2 0 1 2 0 1 0 0 2 1 2 0 -3 0 -3 0 -3 1 -3 0 0 1 0 0 2 0 2 1 -3
1 -3 0 2 0 2 2 0 1 -1 0 1 0 1 1 0 0 -1 2 1 1 1 0 2 0 2 -1 0 -1 0 -1 -1 -1
-1 0 1 0 1 -1 -1 -1 0 1 -1 1 -1 -1 -1 -1 -1 -2 2 -2 2 1 -1 2 0 -1 2 -1 3 1
0 0 0 -1 1 -1 2 -2 0 -1 0 -1 -2z"/>
<path d="M413 571 l0 -3 1 1 1 2 -1 2 -1 2 0 0 -1 0 1 -4z"/>
<path d="M331 569 l-1 -1 1 -1 1 -1 0 1 1 1 -1 1 -1 1 0 -1z"/>
<path d="M353 556 l-1 -1 1 0 1 -1 0 1 0 2 0 0 -1 0 0 -1z"/>
<path d="M356 553 l-1 0 0 -1 0 -1 1 1 2 1 0 -2 -1 -2 2 1 1 1 -1 2 -1 1 -1 0
-1 0 0 -1z"/>
<path d="M360 545 l-2 -2 2 0 2 1 0 1 0 2 0 0 -1 0 -1 -2z"/>
<path d="M412 512 l-1 -1 1 -1 0 -1 2 0 1 0 0 2 0 1 -2 1 -1 0 0 -1z"/>
<path d="M406 446 l-1 -1 1 0 1 0 -2 -1 -1 -1 1 0 2 0 0 2 0 2 0 0 -1 0 0 -1z"/>
<path d="M393 396 l1 -1 1 0 0 1 -2 0 -1 1 1 -1z"/>
<path d="M419 395 l0 0 -2 -4 -1 -3 0 -3 0 -3 2 -1 2 -1 0 -1 0 -1 -1 1 -1 0
0 -1 1 -2 0 -1 0 -1 1 1 1 0 0 -1 0 -1 1 1 2 0 1 -2 2 -2 0 -3 0 -3 -1 1 -1 1
0 -1 -1 -1 2 -1 3 0 1 0 1 1 1 -1 0 -1 1 1 1 1 3 -2 3 -2 1 1 0 1 -1 2 -2 2 1
2 1 2 1 0 1 0 0 1 0 1 -3 4 -4 4 -1 -2 -2 -2 0 1 1 1 1 3 0 4 -1 1 -2 0 0 2 1
2 -2 2 -2 3 -2 0 -1 -1 -1 1 -1 0 -2 1 -1 0 -1 -1z"/>
<path d="M413 393 l-1 -1 2 0 2 0 -1 1 0 1 0 0 0 0 -2 -1z"/>
<path d="M406 390 l0 -1 1 0 0 0 0 1 0 1 -1 0 -1 0 1 -1z"/>
<path d="M396 387 l-2 0 0 -1 0 -1 2 -2 3 -1 -1 0 -1 1 2 2 2 1 -1 1 -1 1 -1
0 0 0 -2 -1z"/>
<path d="M403 379 l0 -1 1 0 1 0 0 1 0 1 -2 0 -1 0 1 -1z"/>
<path d="M406 376 l0 -1 1 0 0 0 0 1 0 1 -1 0 -1 0 1 -1z"/>
<path d="M418 372 l-1 -1 1 0 1 0 1 1 0 1 -1 0 -1 0 0 -1z"/>
<path d="M422 367 l0 -3 0 -1 1 0 0 1 0 2 1 1 2 1 -2 1 -1 1 -1 -3z"/>
<path d="M412 368 l0 -1 1 0 1 0 0 1 -1 1 -1 0 0 0 0 -1z"/>
<path d="M434 361 l0 -1 1 0 1 0 0 1 -1 1 -1 0 0 0 0 -1z"/>
<path d="M458 348 l0 -1 1 1 1 0 0 1 0 0 -1 0 -1 0 0 -1z"/>
<path d="M464 338 l-1 -2 1 1 2 0 0 -2 1 -2 0 1 1 2 -1 2 -2 1 -1 -1z"/>
<path d="M498 301 l-1 -2 1 0 1 0 1 2 1 2 -1 0 -1 0 -1 -2z"/>
<path d="M194 274 l2 -5 1 -2 1 -2 6 -8 5 -7 1 -1 1 0 -3 4 -2 4 -3 2 -2 3 -3
6 -3 6 0 1 1 2 -2 1 -2 1 2 -5z"/>
<path d="M553 275 l0 -2 1 0 1 1 0 1 0 0 -1 1 -1 0 0 -1z"/>
<path d="M618 261 l0 -1 1 0 0 0 0 1 0 1 -1 0 -1 0 1 -1z"/>
<path d="M627 246 l-1 -1 1 0 1 0 0 1 0 1 0 0 -1 0 0 -1z"/>
<path d="M729 239 l1 0 1 0 0 1 -2 0 -1 0 1 -1z"/>
<path d="M721 238 l-4 -1 -1 -1 -1 -1 2 1 3 0 3 1 4 0 0 1 0 1 -1 0 0 0 -5 -1z"/>
<path d="M223 236 l0 -1 2 -1 2 -1 -2 1 -1 2 -1 0 0 0 0 0z"/>
<path d="M772 231 l-3 -3 1 -1 0 0 1 1 0 1 2 0 1 0 1 2 1 3 1 0 2 1 -2 0 -1 0
-4 -4z"/>
<path d="M709 229 l1 0 1 0 0 1 -2 0 -1 0 1 -1z"/>
<path d="M239 223 l0 -1 2 -1 2 -1 -2 1 -1 2 -1 0 0 0 0 0z"/>
<path d="M249 216 l1 -1 6 -3 7 -4 -1 1 0 1 -7 4 -7 3 1 -1z"/>
<path d="M712 179 l-1 -1 -2 1 -1 0 0 -1 0 -1 -2 -2 -1 -1 1 0 1 0 1 2 1 1 2
-1 1 -1 1 2 2 1 -2 0 -1 -1 0 1 1 2 0 0 -1 0 0 -1z"/>
<path d="M685 167 l-1 -1 1 1 2 0 0 1 0 0 -1 0 -1 0 0 -1z"/>
<path d="M699 161 l-2 -4 -3 -2 -2 -2 1 0 0 -1 -2 -3 -2 -3 -2 -2 -1 -1 0 1 0
2 -1 -3 -1 -2 -6 -3 -7 -3 -3 -2 -2 -1 3 -3 3 -3 4 0 3 0 4 3 4 2 -1 2 0 1 1
0 2 0 2 0 3 1 2 2 2 3 -2 1 -1 0 0 1 0 2 3 3 4 4 1 1 2 1 2 3 2 3 -2 2 -1 3
-3 1 -2 1 -2 -5z"/>
<path d="M624 128 l-1 -1 1 0 2 0 0 1 0 1 0 0 0 0 -2 -1z"/>
<path d="M628 127 l-2 -2 2 -1 1 -1 -1 -1 0 -1 2 -1 2 -1 3 1 3 0 0 1 0 1 -1
1 -1 1 2 0 2 0 1 1 0 2 -3 0 -2 1 -2 -2 -1 -1 -2 1 -1 1 1 0 1 0 0 1 0 1 -1 0
0 0 -3 -2z"/>
<path d="M463 126 l-1 -1 2 0 1 0 -1 1 0 1 0 0 -1 0 0 -1z"/>
<path d="M618 125 l0 -1 1 0 2 0 1 1 0 1 -2 0 -2 0 0 -1z"/>
<path d="M470 124 l0 -1 2 0 2 0 -2 1 -1 1 -1 0 -1 0 1 -1z"/>
<path d="M474 122 l-1 -1 1 0 1 0 0 1 0 1 0 0 -1 0 0 -1z"/>
<path d="M492 120 l-2 -1 0 -2 0 -1 1 0 2 0 2 2 2 2 -2 0 -2 1 -1 -1z"/>
<path d="M474 118 l0 -2 2 1 1 1 -1 1 0 1 -1 0 -1 0 0 -2z"/>
</g>
</svg>
