<?xml version="1.0" standalone="no"?>
<!DOCTYPE svg PUBLIC "-//W3C//DTD SVG 20010904//EN"
 "http://www.w3.org/TR/2001/REC-SVG-20010904/DTD/svg10.dtd">
<svg style="fill: black; stroke: black;" version="1.0" xmlns="http://www.w3.org/2000/svg"
 width="517.000000pt" height="821.142857pt" viewBox="0 0 517.000000 821.142857"
 preserveAspectRatio="xMidYMid meet">
<metadata>
Created by potrace 1.16, written by Peter Selinger 2001-2019
</metadata>
<g transform="translate(-227.000000,897.000000) scale(1.000000,-1.000000)"
fill="#000000" data-original="#000000" stroke="none">
<path d="M491 895 l-5 -1 -15 -5 -14 -4 -4 -5 -4 -4 -6 -6 -5 -6 -6 -3 -6 -4
-6 -6 -6 -7 -6 -3 -5 -4 -7 -6 -7 -7 -2 0 -1 0 0 -1 0 -1 -4 -3 -4 -2 -3 -2
-2 -1 -5 -2 -4 -1 -4 -3 -3 -3 0 -2 0 -2 -2 -5 -3 -4 -5 -2 -6 -3 0 0 -1 0 -4
-2 -5 -2 -1 -2 -1 -1 -4 -2 -4 -2 -2 0 -1 -1 -4 0 -4 -1 -4 -2 -4 -2 -4 -3 -3
-2 -5 -2 -5 -1 -6 -5 -5 -5 -5 -1 -5 -1 -4 -2 -4 -2 -4 -3 -3 -3 -4 -7 -3 -7
-5 -5 -5 -5 -2 -5 -3 -5 0 -14 0 -13 2 -3 2 -3 4 -3 5 -2 8 -1 8 -1 2 -1 2 -1
1 -3 1 -3 0 -4 0 -3 2 -3 1 -3 4 -2 4 -2 6 -1 6 -2 2 0 3 1 4 3 3 4 3 -1 3 0
0 -1 0 0 2 -4 2 -4 3 -2 3 -2 4 -4 4 -4 2 -4 3 -3 3 -1 3 -1 11 -1 12 -1 3 -2
2 -1 5 0 6 1 3 -5 4 -5 3 -1 3 -1 18 0 18 0 4 -3 5 -3 8 -2 8 -3 6 -2 7 -2 7
-2 7 -1 4 -2 3 -1 2 -2 1 -2 0 -5 0 -5 3 -6 3 -5 2 -3 1 -2 1 -26 0 -25 -1 -6
-1 -6 -5 -5 -4 -5 -2 -4 -1 -4 0 -6 1 -5 3 -6 3 -6 0 -12 -1 -12 -1 -2 -1 -2
-1 -7 -2 -8 0 -9 0 -9 2 -23 1 -23 2 -9 2 -9 0 -18 0 -18 -2 -7 -2 -7 -7 -7
-7 -6 -2 -5 -3 -5 -6 -6 -6 -5 -8 -1 -8 -2 -2 -2 -2 -2 -1 -3 -1 -2 0 -5 0 -4
-2 -8 -1 -8 0 -3 0 -3 2 -2 2 -1 2 -3 1 -3 0 -3 0 -3 -1 -3 0 -2 -4 0 -5 0 -1
2 -2 2 -4 0 -3 0 -2 -2 -3 -1 -4 -5 -3 -4 1 -1 1 -1 0 -4 0 -4 1 0 1 0 1 -2 1
-3 4 -3 4 -2 3 -3 2 -3 1 0 2 0 1 -2 1 -2 1 0 2 0 1 -2 2 -3 7 -3 8 -4 4 -1 4
-1 2 0 2 1 7 0 7 0 5 -2 6 -2 6 0 6 0 8 8 8 8 5 2 4 2 4 -1 3 -1 0 -2 1 -1 0
-2 0 -1 -4 -4 -3 -4 -6 -10 -5 -9 -6 -5 -7 -5 0 -3 0 -2 2 -4 2 -4 4 -2 3 -1
5 0 6 0 5 2 6 3 2 6 3 6 2 2 3 2 1 0 1 0 3 2 3 1 9 0 10 1 4 1 4 1 3 4 3 3 0
3 -1 4 -3 2 -3 3 -3 2 -2 2 0 4 0 5 1 2 2 3 2 0 2 0 1 2 1 2 -1 0 0 0 1 2 2 2
0 3 0 2 1 2 1 2 4 8 4 9 0 1 0 1 1 2 1 2 2 5 2 6 2 1 2 2 3 0 4 1 4 0 5 1 2 2
2 2 0 2 1 2 -1 2 -1 3 -4 2 -3 1 -9 -1 -9 -1 -9 0 -9 0 -4 3 -3 3 -5 4 -6 5
-2 2 -3 2 -2 4 -1 4 0 3 0 4 -1 2 -1 3 -3 1 -3 1 -5 -1 -5 -1 -2 0 -1 1 0 3 0
2 4 4 4 4 2 5 2 5 4 4 4 4 0 2 0 2 -3 3 -3 4 -3 2 -3 3 -4 2 -4 3 -2 4 -3 3 0
3 0 4 4 15 3 15 -1 22 -1 22 -2 7 -3 8 0 12 1 13 1 16 0 16 0 11 0 11 0 16 0
17 -3 5 -2 6 0 8 0 7 3 4 4 3 4 1 4 0 8 -1 9 -1 8 -2 8 -1 5 0 6 0 2 1 1 1 0
2 0 2 2 3 2 4 5 0 6 0 2 -2 2 -1 0 -5 -1 -4 1 -2 0 -2 4 -2 4 -1 16 0 16 0 12
0 13 1 4 1 5 1 6 0 6 1 2 2 2 2 2 3 1 4 6 3 6 2 2 2 3 1 6 6 7 6 3 1 4 0 4 3
5 2 1 4 2 3 0 3 0 2 -2 3 -1 3 0 7 1 7 -4 8 -4 9 0 1 0 1 -7 7 -7 8 -1 3 -1 4
-3 5 -3 5 -7 7 -7 7 -1 2 0 3 1 2 2 1 4 0 4 0 8 0 8 -1 6 1 6 1 -1 2 0 2 -3 3
-2 2 -5 3 -4 2 -5 1 -4 1 -10 9 -9 9 -3 3 -2 4 0 3 -1 3 -2 1 -1 1 0 2 0 2 -3
-1 -4 0 -2 0 -3 1 -5 7 -6 7 -2 4 -3 4 -4 7 -5 7 0 11 -1 11 -3 5 -3 6 -6 7
-6 8 -4 4 -3 5 -9 8 -9 8 -7 4 -7 5 -7 3 -6 3 -7 2 -6 2 -5 3 -5 2 0 1 0 1 -5
3 -5 3 -7 2 -6 1 -6 5 -6 4 -5 2 -4 2 -7 0 -6 0 -5 -2z m54 -669 l1 -3 -1 -1
-2 -2 -4 -1 -5 -1 -1 -1 0 -1 -3 0 -3 0 -2 1 -2 1 0 3 0 3 2 2 1 2 2 1 3 1 6
0 7 0 1 -4z m-71 -49 l1 -6 2 -5 2 -5 -1 -1 -1 -1 -3 1 -4 1 -2 2 -3 2 -1 4
-1 4 0 2 0 2 2 3 2 3 3 0 2 0 2 -6z"/>
<path d="M714 730 l-1 -1 1 -4 2 -4 2 0 2 -1 1 1 1 0 0 4 0 5 -1 1 -1 1 -3 0
-2 0 -1 -2z"/>
</g>
</svg>
