<?xml version="1.0" standalone="no"?>
<!DOCTYPE svg PUBLIC "-//W3C//DTD SVG 20010904//EN"
 "http://www.w3.org/TR/2001/REC-SVG-20010904/DTD/svg10.dtd">
<svg style="fill: black; stroke: black;" version="1.0" xmlns="http://www.w3.org/2000/svg"
 width="512.545245pt" height="851.368502pt" viewBox="0 0 512.545245 851.368502"
 preserveAspectRatio="xMidYMid meet">
<metadata>
Created by potrace 1.16, written by Peter Selinger 2001-2019
</metadata>
<g transform="translate(-255.443268,949.000000) scale(1.000000,-1.000000)"
fill="#000000" data-original="#000000" stroke="none">
<path d="M306 948 l-1 0 0 -3 0 -3 2 0 1 -1 1 0 0 0 0 4 0 4 -1 0 -2 0 0 -1z"/>
<path d="M307 939 l0 -1 1 1 1 0 0 1 0 0 -1 0 -1 0 0 -1z"/>
<path d="M713 914 l0 -2 -1 -1 0 -2 -2 1 -1 1 0 -3 -1 -2 -3 -7 -3 -6 -1 -1
-1 0 -1 1 -1 1 -1 0 -2 -1 -2 -4 -2 -4 -7 -7 -6 -6 0 -4 0 -3 -5 -5 -6 -5 -1
0 -1 0 0 -1 0 -1 -3 -1 -2 -1 -11 -5 -10 -5 -13 0 -14 -1 0 1 1 0 10 3 10 2 3
1 4 0 1 1 1 1 -5 0 -4 -1 -5 -1 -5 -1 -10 -3 -10 -4 0 1 0 2 -1 -2 -1 -1 -1 0
0 1 -4 -2 -4 -2 -3 -1 -3 -2 -1 2 -2 1 -2 -1 -2 0 -5 -1 -5 -1 0 1 -1 0 0 -1
0 -1 -2 0 -1 0 -1 -1 0 -2 -2 -1 -2 0 0 -1 1 -2 -2 1 -3 0 -3 -1 -3 -2 2 1 2
0 3 1 3 0 -2 -1 -1 0 -6 -3 -5 -2 -1 -1 0 -1 -2 1 -2 0 1 -1 1 -1 -3 -1 -2 -1
-7 -7 -7 -7 0 1 0 2 2 2 1 3 0 1 0 2 3 1 3 2 -1 1 0 0 7 6 6 5 -1 0 -1 0 -2
-2 -2 -2 0 1 0 0 -6 -6 -7 -6 -3 -6 -2 -6 -2 -2 -1 -1 -1 0 -1 0 0 -1 0 -1 -1
0 -1 0 0 4 1 4 -1 -1 -1 0 0 1 -1 2 0 -2 0 -2 0 -4 -1 -4 -1 0 0 0 -4 8 -4 8
0 1 0 1 -2 -1 -1 0 -2 2 -2 2 -1 0 -1 0 0 1 0 1 -1 0 -2 -1 1 2 0 2 -2 1 -1 2
0 -2 1 -1 -1 0 -2 -1 0 1 0 1 0 2 0 2 -1 -2 0 -1 -2 0 -1 0 -8 5 -7 5 -3 1 -2
0 0 2 0 1 -2 -1 -1 -1 0 1 1 1 -1 1 -1 0 -2 1 -1 0 -1 -1 0 -1 -1 0 -1 0 1 2
0 1 -1 0 -1 0 -1 0 0 1 -2 0 -1 1 -1 -1 0 -1 -2 2 -2 3 0 -2 1 -1 -1 0 -1 0 0
1 0 1 -1 -1 -2 0 0 1 0 1 -2 0 -1 -1 1 1 0 1 -1 0 -1 0 0 -1 0 -1 -1 0 -2 0 1
2 0 2 -1 -2 -1 -1 -2 1 -1 2 -1 1 -2 1 -3 0 -2 0 -4 0 -3 1 -2 0 -2 1 -1 0 -2
-1 0 1 0 1 -2 0 -2 0 -2 0 -2 1 0 -1 0 -1 -1 1 -1 1 -3 0 -2 0 -3 2 -2 1 -2 0
-2 -1 0 1 1 0 -2 2 -3 2 -1 0 0 0 -3 2 -3 2 0 -1 0 0 2 -2 1 -2 -1 0 -1 0 -1
1 0 1 -3 2 -3 1 -4 2 -3 2 -5 3 -5 3 -3 3 -2 3 1 0 1 0 0 0 1 0 -1 2 -2 2 -1
0 -1 0 0 -2 1 -2 -1 1 0 1 -4 0 -3 1 0 2 -1 2 -2 0 -2 0 0 -1 1 -2 -2 1 -2 1
-1 2 0 2 -1 -1 -1 -1 0 1 -1 1 1 0 1 1 0 2 0 2 -1 -2 -1 -2 0 1 -1 1 0 3 1 3
-1 -2 -1 -1 -1 4 -1 5 -1 -1 -1 -1 1 -2 1 -3 -1 1 -2 1 1 -2 0 -1 -1 1 -2 1 0
-2 0 -2 -1 1 -1 2 -1 2 -1 1 -2 -2 -2 -2 1 -1 0 -1 -2 0 -1 0 0 -1 1 -1 2 -1
2 -1 1 -2 1 -1 0 -2 0 -1 1 -2 1 -2 2 -6 1 -5 2 -1 2 -1 -1 -1 0 -1 1 1 2 0 3
-4 4 -4 0 -1 0 -1 -1 0 -1 0 2 -3 3 -3 -1 -1 0 -1 0 0 1 1 1 -1 2 -1 6 -4 6
-4 0 1 0 0 -4 4 -4 4 0 1 0 1 2 -1 2 -1 -1 -1 0 -1 1 0 1 0 4 -2 5 -3 1 -1 1
-1 4 -3 5 -2 0 -1 0 -1 -1 0 -1 0 0 -1 -1 -2 2 -1 1 -2 -2 -1 -2 -1 -3 -3 -3
-3 -1 -2 -1 -2 -2 0 -1 0 2 -1 2 -1 -2 0 -2 0 1 -1 0 -2 -3 -4 -4 -4 1 0 0 -1
-1 0 -1 0 0 -1 0 -2 -2 -2 -2 -2 0 -1 0 -1 -1 -1 -1 -1 -2 -6 -2 -5 -1 -5 0
-4 -1 -7 -2 -7 1 0 1 0 -1 -2 -1 -1 1 -1 1 0 0 -2 0 -1 0 -8 1 -8 1 -3 1 -2 0
-1 0 -1 -1 1 -1 0 0 -1 1 -2 0 -1 0 0 1 1 1 1 0 -4 0 -4 1 -1 1 -2 0 -2 -1 -2
1 0 1 1 0 -2 1 -1 0 -1 0 -1 -2 2 -2 2 -2 5 -3 6 0 2 -1 2 -1 0 0 -1 1 -4 1
-3 3 -6 2 -5 3 -1 2 -1 0 -2 0 -2 1 0 1 0 0 -1 0 -1 2 -3 2 -3 0 -2 1 -1 1 -1
2 0 1 0 1 0 0 -2 -1 -2 1 1 1 1 6 -6 6 -5 1 -2 2 -1 1 0 1 0 3 -3 4 -3 0 -1 0
-1 2 -1 3 0 1 -1 1 -1 6 -2 7 -2 7 -1 8 -2 8 0 8 1 8 3 9 2 4 2 5 2 0 1 1 1 3
2 4 2 1 2 2 2 0 0 1 1 1 -1 2 0 5 7 6 7 3 3 3 4 2 -2 2 -2 1 2 2 3 0 -6 -1 -5
2 -5 2 -5 3 -7 2 -7 2 -4 1 -4 1 1 2 0 -1 0 -1 -1 2 -5 2 -5 1 -8 2 -7 2 -4 1
-4 1 0 0 0 1 1 2 2 -1 1 0 1 1 1 2 2 2 -1 2 -1 1 3 2 4 2 7 1 8 3 5 2 5 2 5 1
6 4 9 4 9 1 0 0 1 2 -3 3 -3 0 1 1 0 1 -2 2 -2 2 0 1 0 1 -1 2 -2 6 -3 6 -4 2
0 2 0 4 -2 4 -2 1 1 1 0 0 -1 0 -1 8 -1 8 -1 8 0 9 1 8 2 8 1 1 0 1 1 0 0 1 0
5 2 6 2 2 0 2 1 3 3 4 4 3 3 4 3 3 3 3 3 1 1 0 2 1 0 1 0 0 2 1 3 2 2 2 2 2 5
3 5 3 9 3 9 1 2 1 1 0 4 0 4 1 1 1 2 -1 0 -1 -1 0 2 0 1 1 0 1 -1 0 1 0 1 -1
0 -1 0 2 2 2 1 -2 0 -1 -1 0 1 0 1 1 0 1 0 0 2 0 3 -1 -2 -1 -2 0 4 0 4 -1 4
-1 4 0 3 -1 3 1 -2 2 -2 0 0 0 1 -2 6 -2 5 1 1 1 0 -1 3 0 2 -2 1 -1 1 0 2 0
1 1 0 2 1 1 4 0 4 -2 6 -1 6 -1 2 -1 2 -2 0 -3 0 -1 -2 -2 -3 0 -2 1 -2 -4 -1
-4 0 -2 2 -2 3 -2 -1 -2 0 -4 2 -3 2 0 1 0 0 1 -1 2 0 1 2 1 2 -2 1 -2 1 -3 0
-3 0 1 1 1 1 4 1 5 2 2 0 3 0 1 1 2 1 -1 -1 0 -2 0 0 1 0 2 2 2 2 2 0 2 0 0 1
0 1 5 2 5 2 1 2 2 2 0 -1 0 -2 5 5 5 5 3 1 3 1 4 4 5 4 0 4 0 4 1 1 2 2 2 1 2
2 1 0 1 0 0 1 0 1 1 0 2 0 -1 1 0 2 1 -1 1 0 0 2 1 1 0 0 0 1 -3 0 -2 0 -2 -2
-2 -2 0 1 0 1 2 3 3 4 0 1 0 1 2 2 3 3 0 -1 1 0 0 1 0 2 -2 0 -1 1 1 -1 0 -1
-1 0 -2 1 -1 -1 -1 -1 1 1 0 2 -1 0 -1 0 0 -1 0 -1 -1 0 -1 0 -2 -2 -1 -1 1 2
0 2 -1 0 -1 -1 -1 2 0 2 -2 0 -2 0 -1 1 0 1 0 10 0 9 0 0 -1 0 0 -2z m-407
-23 l0 -1 0 0 -1 0 0 1 -1 1 1 0 1 0 0 -1z m385 -11 l-4 -5 -1 0 0 1 4 4 3 5
1 0 1 0 -4 -5z m-67 -42 l1 -1 -2 0 -1 -1 -10 -1 -10 0 2 1 2 1 0 -1 1 0 0 1
0 1 5 0 6 -1 2 1 3 1 0 0 1 0 0 -1z m-257 -20 l-2 -1 -5 -4 -4 -4 -1 0 -1 0 4
4 4 4 3 2 4 2 0 -1 1 0 -3 -2z m138 -20 l1 -2 0 0 -1 0 -1 2 -1 2 0 0 1 0 1
-2z m-161 -4 l-1 -1 1 1 0 2 1 0 0 -1 -1 -1z m343 -3 l0 -1 0 -1 -1 0 -1 2 -1
2 1 0 1 0 1 -2z m-345 -1 l-1 -1 1 1 0 2 1 0 0 -1 -1 -1z m86 -1 l0 1 5 0 5 0
0 -1 -1 0 3 -2 2 -2 -1 1 0 2 4 -2 4 -2 4 -4 4 -4 1 -3 1 -3 1 0 1 0 2 -5 1
-4 0 -8 0 -8 -2 -6 -2 -6 -4 -4 -5 -5 -4 -2 -3 -1 -9 0 -8 0 -4 0 -3 1 -4 2
-3 1 -4 3 -3 4 -3 4 -3 5 1 2 0 1 -1 0 -2 1 0 4 0 5 1 1 2 1 0 2 0 1 -2 2 -2
3 0 -2 0 -1 -1 0 -2 0 0 -2 -1 -1 1 -1 0 -1 -1 -1 -1 0 0 4 1 4 2 5 3 5 4 4 4
4 4 3 4 3 1 -1 1 -1 1 0 1 1 -1 1 0 1 1 0 2 -1 0 1 0 1 3 0 4 1 0 -1 1 -1 0 1z
m-90 -3 l-1 -3 0 -2 0 -2 1 3 1 3 1 0 1 0 0 -1 -1 -1 -2 -6 -1 -5 -1 -1 -1 0
0 -6 -1 -5 -1 -1 -1 0 -1 1 0 2 1 9 1 9 2 4 3 5 1 0 0 0 -1 -3z m254 2 l-1 0
-1 0 -1 1 1 0 2 0 0 -1z m-16 -3 l-1 -2 -4 -1 -4 -1 -2 -1 -1 0 3 2 3 3 3 1 4
1 0 -1 0 0 -1 -1z m34 -1 l2 -1 -4 1 -3 0 -2 1 -1 1 3 0 3 0 2 -2z m-7 -3 l5
-1 5 -4 6 -3 2 -3 3 -2 2 -5 2 -4 1 -8 0 -9 -1 -4 -1 -3 -4 -7 -4 -6 -4 -2 -3
-3 -3 -1 -3 0 -7 -1 -6 -2 -6 2 -6 1 -5 3 -4 2 -4 4 -4 4 -1 3 -2 3 0 -3 0 -2
2 -3 2 -3 0 0 1 0 0 -1 0 -1 2 -2 1 -1 -1 -1 -1 0 -3 3 -3 4 -2 3 -1 3 1 1 1
0 0 1 0 1 -1 -1 -1 0 0 2 1 2 -1 0 -1 -1 0 2 -1 2 1 0 0 1 1 4 0 5 1 3 1 4 2
5 3 6 4 5 5 6 2 1 2 0 5 1 5 2 5 0 6 -1 4 -1z m12 0 l1 -2 0 0 -1 0 -1 2 -2 2
0 0 1 0 2 -2z m-216 -5 l-2 -1 -3 -6 -3 -6 0 1 0 1 2 3 1 4 3 3 2 3 1 0 0 0
-1 -2z m-8 -10 l-3 -7 -1 0 0 1 1 4 1 5 2 3 1 3 1 0 0 -1 -2 -8z m166 -2 l-1
-2 0 1 -1 1 1 2 1 3 1 -2 0 -1 -1 -2z m-223 -19 l0 -3 1 0 1 -1 0 -6 1 -6 1
-2 2 -2 0 -1 0 -1 1 0 1 0 1 -3 0 -3 1 1 1 2 0 -3 -1 -2 2 1 2 0 -2 -1 -1 -2
1 1 2 0 1 -2 0 -1 4 -6 4 -5 8 -8 7 -7 0 -1 0 -1 1 1 2 1 0 -1 -1 -1 3 -3 4
-2 1 0 1 0 0 -1 0 -1 -1 1 -2 0 0 0 0 -1 4 -2 5 -2 4 -2 5 -2 0 -1 0 -1 -2 0
-1 1 -5 1 -5 1 -1 1 0 1 -2 -1 -1 0 0 1 1 1 -2 0 -2 -1 1 1 0 1 -1 0 -1 -1 -2
1 -1 2 -4 3 -4 2 -2 0 -1 -1 0 1 1 1 -2 1 -1 1 0 -1 0 0 -3 3 -3 4 -2 1 -1 2
1 0 1 1 -1 0 -1 0 -3 2 -3 2 0 1 0 1 -2 3 -3 2 1 1 0 1 -1 0 -1 0 0 2 -1 3 -2
4 -1 4 -2 3 -1 3 -1 5 -1 5 0 6 -1 6 1 2 0 1 2 -1 1 -1 0 -3z m99 -28 l-1 0
-1 0 -1 1 2 0 3 0 -2 -1z m141 -4 l0 0 -2 2 -3 1 1 1 0 1 2 -2 3 -2 -1 -1z
m-77 -25 l-1 -1 0 3 1 4 0 2 0 3 1 -5 0 -4 -1 -2z m45 -3 l0 -2 -1 1 -1 2 -1
2 0 2 1 -1 2 -1 0 -3z m-161 -4 l1 -1 -1 1 -2 0 0 1 0 0 1 0 1 0 0 -1z m4 -6
l1 -1 -1 1 -1 0 0 1 0 1 0 0 1 0 0 -2z m-9 -5 l0 -1 -2 1 -2 1 0 1 0 1 2 -1 2
-1 0 -1z m74 -1 l-3 -2 -3 -2 -3 -1 -6 -1 -6 0 5 2 5 1 3 1 4 1 0 1 1 1 2 1 2
1 1 0 1 0 -3 -3z m137 0 l3 0 -2 1 -1 1 1 0 2 0 1 -2 1 -1 1 0 2 1 0 -1 0 -1
1 1 0 1 2 0 2 0 1 -1 0 -2 1 1 1 0 0 -1 0 -1 -3 0 -2 0 1 -1 0 -1 -2 0 -2 0 1
1 2 1 -5 0 -4 -1 2 1 3 1 -5 -1 -4 0 0 1 0 1 -2 -1 -2 0 1 1 1 1 -3 0 -2 1 1
1 1 1 3 -1 2 -1 2 0z m-204 -2 l3 -1 1 0 2 0 2 -1 2 -2 -6 2 -6 1 -2 0 -2 0 0
2 0 2 2 -1 2 0 2 -2z m228 -3 l-1 0 -2 0 -1 1 3 0 3 0 -2 -1z m-6 -1 l-2 0 -2
0 -1 1 3 0 4 0 -2 -1z m-185 -2 l0 -1 8 0 9 1 -2 -1 -1 -1 -1 1 -1 0 0 -1 -1
-1 -2 -1 -2 0 -7 -1 -6 -1 -5 1 -4 0 -3 1 -3 1 -4 1 -3 0 -1 1 -1 0 0 1 0 1 1
0 1 -1 8 1 9 1 5 0 5 0 1 -2z m-31 0 l-1 0 -1 0 -1 1 1 0 2 0 0 -1z m52 1 l0
-1 -2 0 -2 -1 0 1 0 1 2 0 2 0 0 0z"/>
<path d="M347 709 l0 -1 2 -2 2 -2 -1 3 -2 3 -1 0 0 0 0 -1z"/>
<path d="M351 702 l1 -1 1 -1 1 0 -1 1 0 2 -1 0 -1 0 0 -1z"/>
<path d="M358 695 l0 -1 2 -2 1 -2 0 1 0 1 -1 2 -2 2 0 -1z"/>
<path d="M363 690 l0 -1 3 -3 3 -3 1 0 1 0 -1 1 0 1 -4 2 -3 3 0 0z"/>
<path d="M378 678 l0 -1 1 0 0 0 0 1 0 1 -1 0 -1 0 1 -1z"/>
<path d="M317 910 l0 -1 2 -3 2 -2 0 0 1 0 -1 2 0 2 -2 1 -2 2 0 -1z"/>
<path d="M738 902 l-1 -1 0 -2 0 -1 1 0 1 0 1 2 1 3 -2 0 -1 1 0 -2z"/>
<path d="M322 902 l0 -1 1 1 1 0 0 1 0 0 -1 0 -1 0 0 -1z"/>
<path d="M327 895 l-1 -1 1 0 0 1 3 -3 2 -2 0 -1 0 -1 3 -2 3 -1 -1 -1 0 -1 1
1 2 0 -2 2 -2 2 -1 3 -1 3 -2 0 -1 0 0 2 -1 1 -1 0 -2 0 0 -2z"/>
<path d="M733 883 l-1 -1 0 -1 1 0 1 0 0 1 0 1 -1 1 0 -1z"/>
<path d="M368 864 l1 -1 -1 0 -1 -1 1 0 1 1 0 1 0 0 -1 1 -1 0 1 -1z"/>
<path d="M406 853 l2 0 2 0 2 1 -4 0 -3 0 1 -1z"/>
<path d="M412 853 l0 -1 1 0 0 1 3 -1 4 -1 1 -2 1 -1 3 0 3 0 5 -2 6 -2 0 -1
1 -1 1 1 1 2 0 0 0 1 -1 0 -2 0 0 1 0 1 -3 2 -2 1 -5 1 -5 0 -2 -1 -1 -1 0 1
0 1 -3 0 -2 1 -2 1 -2 0 0 -1z"/>
<path d="M347 838 l0 -1 1 -1 2 -1 1 0 1 0 -2 1 -2 1 1 1 1 1 -1 0 -2 1 0 -2z"/>
<path d="M696 833 l-6 -4 -2 -1 -1 -1 2 1 3 1 6 3 5 4 0 0 0 1 0 0 0 0 -7 -4z"/>
<path d="M548 822 l-1 -1 1 0 1 0 0 1 0 1 0 0 -1 0 0 -1z"/>
<path d="M323 763 l0 -1 0 -1 1 0 0 1 1 2 0 0 -1 0 -1 -1z"/>
<path d="M322 754 l0 -5 0 -1 0 -1 0 -4 0 -3 1 0 0 1 1 9 0 10 0 0 -1 0 -1 -6z"/>
<path d="M340 688 l-1 0 1 -2 1 -2 2 0 1 -1 -1 1 -1 2 1 0 0 1 -1 0 -1 0 1 1
2 1 -2 0 -2 0 0 -1z"/>
<path d="M691 686 l0 -2 1 -1 1 0 1 1 1 1 -2 1 -2 1 0 -1z"/>
<path d="M483 678 l-1 -1 0 -1 1 0 1 0 2 1 0 1 0 2 -1 0 -1 0 -1 -2z"/>
<path d="M336 657 l0 -1 2 -4 2 -3 1 1 1 0 0 -1 0 -1 2 0 3 0 -4 2 -3 2 -1 1
-1 2 0 2 1 2 -2 0 -1 0 0 -2z"/>
<path d="M653 657 l-1 -2 -1 1 -1 1 -1 -2 -1 -2 -2 1 -2 0 0 -1 0 -1 -2 1 -2
0 0 -1 -1 -2 1 0 1 0 0 -1 0 -1 -1 0 0 1 -2 -1 -2 -2 -4 0 -3 -1 -5 -1 -4 0
-1 1 -1 1 -2 -3 -3 -2 -1 -1 0 0 -2 0 -2 -1 -7 -3 -7 -3 -1 1 -1 0 0 -1 0 -1
3 -1 3 -2 0 -2 0 -3 3 0 2 0 0 -2 -1 -2 1 -6 2 -5 2 -6 3 -5 2 -1 3 -1 3 2 4
2 1 2 1 2 1 -1 1 0 1 2 1 1 0 -3 1 -4 3 1 2 0 0 -1 0 -1 -3 -4 -3 -5 0 -5 -1
-6 -1 -2 -1 -2 1 -1 1 -1 0 -3 0 -2 -2 -1 -2 -2 1 1 1 0 -1 -3 0 -2 -1 -1 -1
-1 -1 -5 -2 -4 1 -3 1 -2 -1 -1 -2 -1 0 -1 0 -1 -2 -2 -2 -2 -3 -1 -2 0 0 -3
0 -2 2 0 1 0 2 3 2 2 1 0 2 0 -2 -1 -2 -1 0 -2 0 -1 -2 0 -1 0 0 -2 0 -2 0 -3
-1 -2 -7 -4 -7 -5 -5 -1 -5 -2 -3 -2 -3 -2 -4 -4 -4 -4 1 0 0 -1 -1 -2 -1 -3
-1 1 -1 0 1 1 2 1 -3 0 -3 0 0 -1 0 -1 -4 -1 -4 -1 -3 1 -2 1 -2 -1 -2 0 1 1
1 0 0 1 0 1 -2 0 -1 1 -3 -2 -2 -1 0 -1 0 -1 2 1 3 0 -2 -1 -1 -2 1 -1 1 0 -2
0 -2 1 1 -1 1 -2 -2 -2 -2 -2 0 -1 0 -1 -1 0 0 0 -3 1 -4 2 -2 2 -2 3 -1 -1
-1 -1 0 -1 1 -2 -2 0 -1 0 0 2 0 2 0 0 0 1 -1 0 -1 0 0 -2 0 -1 -1 0 -2 1 -1
-1 -1 -1 2 -1 2 0 -2 -2 -1 -1 -3 0 -2 0 3 1 3 1 -4 0 -4 1 -6 -1 -6 -2 -3 -1
-2 -2 -3 -3 -3 -2 -2 -3 -1 -3 -2 1 -2 0 0 -1 0 -1 2 0 2 0 -2 -2 -2 -1 0 -1
0 -1 -2 -4 -2 -5 -1 -1 -1 0 1 -1 0 -1 -1 0 -1 0 0 -9 1 -8 0 -2 1 -1 1 -3 1
-3 1 -3 1 -2 4 -5 4 -4 3 -2 4 -2 4 0 5 0 2 -2 1 -1 -1 -1 -1 -2 4 -4 4 -4 3
0 3 0 0 -1 0 -2 1 0 1 0 0 -2 -1 -2 0 -2 -1 -1 1 -1 0 -2 -2 0 -2 -1 0 -1 0
-1 3 0 2 1 0 -1 0 -1 -1 0 -1 0 -2 -3 -3 -2 -6 3 -7 2 -3 2 -3 1 -1 2 -1 1 -2
-1 -1 0 0 1 0 1 -5 2 -4 2 -4 0 -4 1 -2 -2 -2 -2 -3 0 -2 1 0 -1 -1 -1 -4 3
-3 3 0 1 1 1 -2 0 -2 1 -1 2 -2 3 -1 6 -1 7 -1 2 0 2 -1 1 0 0 0 8 0 7 -2 3
-1 2 -3 4 -3 3 0 0 0 1 -1 2 -1 2 2 1 2 1 0 2 -1 2 2 0 1 1 -1 1 0 1 -4 0 -3
-1 0 2 -1 1 -2 0 -2 0 0 3 -1 3 1 2 0 3 -1 1 -1 1 -3 0 -3 1 0 -1 0 -1 -2 -3
-3 -3 -1 0 -1 1 1 2 0 2 -2 2 -1 2 1 1 0 1 -2 0 -2 -1 -1 1 0 1 -2 0 -2 0 0 1
-1 1 1 4 1 5 -1 1 -1 1 1 1 1 0 -1 1 0 2 4 2 4 2 3 5 4 5 -1 1 0 0 1 0 1 -1 0
1 0 1 1 0 1 -1 0 2 1 2 1 0 2 -1 1 3 1 3 2 0 2 1 0 2 1 2 1 -1 1 0 0 -2 -1 -1
3 2 3 1 -1 1 0 1 1 0 1 1 0 -1 0 -1 2 2 2 2 3 -1 3 0 1 -2 1 -1 4 2 5 1 3 3 3
3 3 0 3 1 2 1 2 0 -1 -2 0 -1 1 1 1 1 2 0 2 1 0 1 1 0 1 0 1 0 0 2 0 1 1 0 1
0 4 0 4 1 0 1 0 1 -1 -1 -1 0 0 1 1 1 7 -1 7 0 3 -1 3 -1 5 1 5 1 2 2 3 1 0 1
1 1 0 -1 1 0 0 1 0 1 1 0 2 0 1 3 1 4 1 -1 1 -1 2 1 2 0 3 5 2 6 0 1 0 1 -1 0
-1 -1 0 1 0 1 1 0 1 0 0 6 -1 5 1 0 1 0 0 2 0 2 -2 2 -3 2 0 2 0 1 -1 0 -1 -1
0 3 -1 2 -4 0 -4 0 0 1 -1 1 -3 1 -3 0 0 1 0 1 -1 -1 -1 0 -3 2 -2 1 -3 1 -2
0 -3 1 -3 1 -2 -2 -1 -1 -3 2 -2 3 -2 1 -2 2 -1 1 -2 1 -1 0 -1 0 1 1 0 1 -1
0 -1 0 -1 0 -1 0 -3 4 -4 3 -3 1 -3 0 -1 1 -1 2 -2 -3 -1 -2 -3 1 -2 0 1 -1 2
-1 -2 0 -1 0 0 1 -1 1 -2 -1 -2 0 0 1 1 2 -1 -1 0 -1 -3 0 -3 0 -2 1 -2 1 -4
1 -4 0 -4 2 -4 2 -3 0 -2 1 -2 2 -2 1 0 3 1 3 -3 0 -3 0 -1 2 0 1 -2 0 -2 0
-6 2 -6 1 -6 3 -6 2 -4 1 -3 0 -7 4 -7 3 0 1 0 1 -2 0 -1 0 -1 1 0 2 -1 1 -1
1 -1 0 -1 0 0 -1 1 0 -3 -2 -2 -1 -4 0 -3 1 -4 -4 -3 -4 -1 1 -1 0 0 -1 0 0 1
-2 2 -2 1 0 2 0 0 -1 0 -1 -2 0 -1 1 -2 1 -1 1 -2 -1 -2 -2 0 0 -1 0 -2 -2 -2
-2 -2 0 -1 0 0 -1 0 -1 -1 0 -2 0 0 -1 0 -2 -2 -1 -1 -2 -2 -1 -1 -2 -2 -1 -2
-1 -2 -4 -3 -4 1 0 2 1 -2 -1 -2 -1 0 -2 -1 -2 -2 0 -1 0 1 -1 1 -1 -5 -5 -5
-5 0 -1 0 -2 -2 -1 -2 0 1 -1 0 -1 -1 0 -1 0 0 -1 0 0 -2 -5 -2 -5 -2 -3 -2
-3 1 0 1 0 -2 -1 -1 0 -1 -2 -1 -2 1 2 0 2 -1 0 -1 0 -3 -9 -4 -8 -2 -2 -1 -2
1 3 0 4 -1 3 0 3 -1 -1 -1 -2 0 -9 -1 -10 -1 -1 -1 -1 0 -2 0 -2 -2 0 -2 0 -1
-1 -1 -2 -3 1 -3 0 0 -4 -1 -4 1 -2 1 -1 1 -5 0 -4 0 -5 0 -4 0 -12 0 -11 1
-5 0 -5 1 -2 0 -2 2 -7 1 -7 1 -8 1 -8 0 -3 0 -2 -1 0 -1 1 0 -1 0 -1 1 0 2
-1 1 -7 2 -7 4 -10 4 -9 4 -5 3 -5 5 -7 6 -6 2 -3 3 -3 3 -4 4 -3 2 -3 2 -2 2
0 1 1 0 -1 0 -1 1 0 1 0 0 -1 0 -1 1 0 0 1 2 -2 1 -1 2 0 1 0 -8 6 -7 5 -6 6
-5 5 0 1 0 1 -1 0 -1 -1 -3 6 -3 6 -4 8 -5 9 0 2 -1 2 1 0 0 0 1 -2 1 -2 2 -4
2 -3 6 -7 5 -7 5 -5 4 -4 1 0 1 0 0 -2 1 -2 1 0 1 0 0 -2 1 -1 0 -1 0 -1 3 -2
2 -3 1 0 1 1 1 -1 1 -2 -1 0 0 -1 1 -1 2 -1 2 1 1 1 0 -1 0 -1 8 -3 9 -3 2 -2
2 -2 0 -1 0 -1 -1 0 -1 0 -2 0 -1 0 2 -1 3 -1 4 -5 3 -4 3 -4 4 -3 4 -1 5 -2
2 -1 3 -1 1 -3 1 -3 1 0 1 0 0 -1 -1 -1 2 0 2 0 -2 -1 -1 0 1 -1 0 -1 -1 0 -2
0 1 -1 0 -1 -1 -1 -1 -1 -1 -2 0 -2 -4 -11 -5 -11 -3 -4 -2 -4 -5 -6 -4 -5 -7
-7 -6 -6 -3 -1 -3 -1 0 -1 0 -1 0 -2 0 -1 -5 -3 -4 -3 1 -2 2 -1 -1 0 0 -1 1
0 2 0 4 0 4 0 -1 0 0 1 1 0 1 0 3 -2 3 -2 1 0 1 0 2 0 2 -1 0 -2 0 -1 1 0 1 0
1 1 0 1 4 0 3 0 0 1 1 1 6 2 5 1 1 -1 2 -2 2 0 2 0 0 1 0 1 3 3 3 3 2 2 3 2 1
0 2 1 0 0 1 0 1 1 1 1 2 0 3 0 0 2 1 1 1 0 1 -1 5 3 6 3 0 1 1 1 2 1 2 1 0 0
1 0 0 -1 -1 -1 3 1 2 0 0 -1 0 -1 2 0 2 1 0 -2 0 -2 2 -2 2 -1 0 -5 0 -5 -2
-6 -1 -6 0 -2 0 -1 -1 -1 -1 -1 -1 -8 -1 -8 -1 -3 0 -3 -1 -3 0 -2 -2 1 -2 0
-1 -2 -1 -3 -3 -3 -2 -3 -3 -1 -2 -2 -5 -1 -5 -1 -11 0 -11 -1 -7 -1 -6 0 -2
-1 -2 0 -10 -3 -10 -3 -2 -2 -2 -2 0 -2 0 -2 2 0 2 0 0 1 0 1 6 4 5 3 1 0 0
-1 -3 -2 -3 -2 1 0 0 -1 -2 -2 -3 -2 -3 -3 -3 -3 -1 0 0 0 -2 -3 -2 -2 1 0 2
0 -3 -2 -2 -2 1 -1 1 -1 6 2 6 1 1 -1 1 -1 5 0 6 0 3 1 4 2 8 2 8 2 4 0 4 1 0
-1 0 0 -3 -5 -3 -4 -3 -7 -2 -6 0 -5 0 -4 1 3 1 4 0 1 1 0 0 -8 0 -9 0 -3 1
-3 1 0 1 0 0 4 -1 3 1 0 1 -1 0 2 1 1 0 1 0 1 -1 -2 -1 -1 0 1 0 2 2 0 1 0 0
-2 0 -1 0 -2 1 -2 0 -1 1 0 -1 -4 0 -4 -2 2 -2 2 -1 0 0 -1 3 -3 3 -2 0 5 1 5
2 1 3 1 0 1 1 2 1 -1 1 0 0 1 -1 1 2 4 2 5 4 4 4 4 5 7 6 6 1 0 2 0 1 3 1 2 1
0 2 0 4 4 5 4 2 1 2 0 1 -1 1 -2 1 1 1 0 0 -1 0 -1 3 -3 3 -4 1 0 2 0 2 -2 2
-1 5 -5 6 -5 1 -5 1 -4 2 -3 2 -2 2 1 2 0 0 1 0 1 2 0 1 0 0 2 0 2 0 1 0 0 1
1 1 1 0 3 1 3 0 0 1 0 0 5 -1 6 -1 3 -1 3 -4 3 -3 4 -5 1 -4 2 -3 3 -3 3 -2 3
-2 4 0 1 0 1 2 -1 1 -1 1 1 1 2 0 2 0 2 0 2 0 3 -2 1 -1 2 1 1 0 1 1 4 1 5 0
3 0 4 1 7 1 7 0 5 1 5 1 3 0 3 2 7 1 7 1 0 0 -1 0 -3 1 -3 2 -5 1 -5 7 -13 7
-12 0 -1 0 0 7 -10 7 -9 2 0 2 1 1 -1 0 -1 -1 -1 -1 -1 1 0 2 0 0 -1 1 -1 -3
1 -2 0 0 -1 0 -1 5 -1 5 0 4 -1 4 0 2 3 3 3 2 0 2 0 0 1 0 1 2 2 2 2 2 3 3 4
7 5 6 5 0 2 -1 1 1 0 2 0 -1 1 0 2 3 5 3 4 1 0 0 0 -1 -2 -1 -2 -1 -1 -1 0 -1
-3 -1 -2 1 1 2 1 3 6 4 5 0 0 1 -1 0 -1 0 0 1 -3 1 -2 1 -7 0 -6 1 -6 0 -6 -1
0 -1 0 0 2 -1 1 -1 -1 -1 0 1 -8 0 -8 1 0 1 0 -1 5 0 5 2 2 1 1 0 -9 -1 -9 1
1 1 2 1 -2 1 -1 1 1 1 2 0 -2 0 -2 1 0 1 0 0 -1 0 -1 -4 -2 -4 -2 -10 -3 -10
-3 -3 -3 -2 -3 -2 -5 -2 -4 0 -6 0 -5 3 -6 3 -6 0 4 0 5 1 -2 0 -2 2 2 2 3 0
-3 0 -2 1 2 1 2 0 -2 0 -1 1 -2 0 -2 -1 -2 0 -2 -2 -1 -2 0 0 -1 0 -1 2 0 2 1
1 1 1 1 1 2 1 3 0 2 0 3 5 5 5 5 6 2 6 2 6 0 5 0 4 -3 4 -3 1 0 1 0 0 1 -1 1
2 1 1 2 3 -3 3 -3 4 -7 5 -7 3 -4 3 -4 1 -1 1 0 2 -4 2 -4 1 -2 0 -2 1 -1 1
-1 0 3 -1 3 -1 1 0 2 4 -2 4 -2 -1 -3 0 -3 -1 -1 -1 0 0 -1 0 -1 1 0 2 0 2 4
2 5 1 2 0 2 1 1 0 2 1 6 0 6 -4 8 -4 8 -2 2 -3 3 0 1 0 2 3 -1 4 0 7 -3 8 -2
0 -1 0 -1 1 0 1 1 4 -3 5 -3 0 -1 1 -1 3 0 4 -1 1 1 1 1 3 0 4 1 3 -2 4 -1 4
0 5 1 -1 3 0 3 -2 4 -3 3 -1 0 -2 0 0 2 -1 3 -2 2 -2 3 -6 3 -6 4 -9 2 -9 3
-9 1 -8 1 -2 0 -2 1 -7 0 -6 1 0 1 1 2 8 0 8 0 6 -2 5 -1 0 2 0 1 -3 1 -2 1
-4 1 -3 0 -5 1 -4 1 -5 -2 -5 -1 -1 1 -1 0 0 2 0 1 -1 0 -1 0 0 -2 1 -2 -1 0
-1 1 0 0 0 1 -2 0 -2 0 -1 3 -2 3 0 3 -1 3 -3 9 -3 10 -1 13 -1 13 1 2 2 3 0
1 0 1 -1 -2 -1 -2 -1 0 -1 0 0 3 1 3 1 2 1 2 1 0 1 0 2 -2 3 -2 2 -3 3 -2 1 0
1 0 0 -1 0 -1 6 -4 6 -4 2 0 2 0 1 -1 1 -1 9 -4 9 -5 2 0 2 0 -2 2 -2 1 4 0 4
0 3 0 3 0 1 -2 2 -1 0 -1 0 -1 -2 0 -1 1 1 -1 1 -1 3 0 4 1 -3 0 -2 1 0 1 0 1
3 0 3 -1 0 1 0 1 -2 1 -1 1 1 0 1 0 1 -1 2 0 -1 -1 0 -1 2 -1 2 0 0 -1 0 -1 2
0 3 -1 2 1 3 1 2 -1 2 -1 3 1 3 2 1 1 0 1 -1 0 -2 0 -2 2 -1 2 -2 0 -1 0 -9 9
-8 8 -2 0 -1 -1 -1 2 -2 2 1 1 0 1 -2 1 -2 0 1 1 0 1 -1 0 -1 0 0 2 0 1 -1 -1
-1 0 0 1 0 2 -2 2 -2 2 -2 5 -2 4 -1 2 0 3 -1 6 -1 6 1 0 0 0 3 -5 2 -5 1 1 0
2 -2 2 -1 1 0 0 1 0 -1 3 -2 3 1 0 1 0 1 -4 2 -3 1 0 0 1 -1 3 -2 2 0 1 1 1 3
0 4 1 2 -4 1 -3 2 0 1 0 1 3 1 3 2 1 1 1 0 1 0 2 0 3 0 4 -3 1 -2 1 -1 -1 -1
-1 0 1 0 2 2 1 2 1 2 5 2 5 1 0 1 1 0 1 -1 0 3 4 3 4 2 4 2 5 3 1 2 1 1 0 2 0
3 3 3 4 0 0 0 1 9 9 9 9 6 8 5 7 -1 1 0 1 1 0 1 -1 5 7 4 7 1 0 1 0 3 3 4 3
-1 0 0 1 1 1 2 2 0 0 0 1 1 3 1 3 0 0 1 1 4 11 5 11 0 1 0 2 2 3 1 3 1 0 1 0
2 2 1 3 -1 1 -2 2 -1 0 -1 0 0 3 1 3 1 0 1 0 0 1 -1 1 1 11 2 12 0 10 0 10 0
1 -1 1 0 6 -1 7 -2 6 -2 6 -1 4 -1 5 0 0 0 1 -1 0 -1 0 0 2 -1 3 -2 8 -3 8 -5
9 -6 10 1 0 1 0 0 2 -1 2 1 0 1 0 -1 3 -2 3 -1 0 -1 0 0 2 0 1 -1 1 -2 0 1 3
0 4 -5 5 -5 5 -1 0 0 -1 1 0 1 0 0 -1 0 -2 -1 0 -1 0 -1 2 0 2 -2 -1 -1 0 0 1
0 2 0 0 0 1 -2 0 -1 0 -2 1 -1 2 0 1 0 1 -1 0 -2 0 1 1 0 2 -9 4 -8 4 -4 3 -3
2 -1 -1 -1 0 1 1 0 2 -1 0 -1 0 -1 0 -1 0 0 1 0 1 -4 2 -4 3 -2 -1 -1 0 1 1 0
2 -1 0 -2 0 -1 -1 -1 -1 -1 2 -1 1 1 1 1 0 0 1 0 2 -2 1 -3 1 0 1 0 1 0 1 0 1
-1 -2 -1 -1 -1 1 0 1 -3 0 -3 0 -1 -2z m-3 -4 l1 -1 -1 0 -1 -1 0 2 0 1 1 0 0
0 0 -1z m15 0 l0 -1 1 1 1 0 0 -1 -1 -1 -2 0 -1 0 -2 2 -1 1 2 0 2 0 1 -1z m3
-8 l3 -1 1 0 2 1 1 -2 1 -1 -1 0 0 -1 -2 1 -1 1 -4 0 -4 1 -2 1 -1 2 2 0 3 0
2 -2z m12 -4 l-1 0 -1 0 -1 1 2 0 3 0 -2 -1z m48 -32 l0 -1 3 -2 2 -3 0 -2 0
-1 -1 1 0 1 -3 3 -3 3 0 1 0 1 1 0 1 0 0 -1z m9 -20 l2 -4 0 0 0 -1 -5 7 -4 7
2 -3 3 -2 2 -4z m-119 -57 l0 -1 -1 0 -1 0 1 1 0 1 1 0 0 0 0 -1z m-351 -32
l-1 -1 0 2 0 3 1 -2 0 -1 0 -1z m-2 -9 l1 -2 -1 1 -1 0 1 -1 1 -1 0 -4 0 -3
-1 -3 0 -2 -1 0 -1 0 0 4 0 5 0 3 -1 4 1 0 0 1 1 0 0 0 1 -2z m292 -6 l-1 -1
-1 0 -1 0 1 1 0 2 2 -1 1 0 -1 -1z m-148 -24 l0 -1 1 -3 0 -2 -2 1 -1 0 0 -1
1 -1 -2 1 -1 2 1 2 1 3 1 0 1 0 0 -1z m-123 -33 l0 -2 1 1 1 0 0 -1 0 -2 -1 0
-1 0 -1 2 -2 2 0 1 0 1 1 0 1 0 1 -2z m-13 -9 l1 -4 -1 -1 0 0 -1 3 -1 3 -1 1
0 2 -1 3 0 4 1 -3 2 -3 1 -5z m15 0 l0 -4 1 -1 2 -1 -2 0 -1 0 -1 2 -2 2 -1 3
-2 4 0 0 0 1 3 -1 3 -1 0 -4z m11 0 l0 0 -1 1 -2 1 0 1 0 1 2 -2 2 -1 -1 -1z
m3 -4 l1 0 -1 -2 0 -1 -2 2 -2 1 0 2 0 2 1 -2 1 -2 2 0z m-23 -2 l0 -1 -1 0
-1 0 0 1 0 1 0 0 1 0 1 -1z m29 -4 l-1 -1 1 -1 1 -2 0 -1 -1 -2 -1 0 -1 0 0 2
0 2 -1 1 -1 1 1 1 1 2 2 -1 1 0 -1 -1z m-16 -14 l2 -1 -2 1 -2 1 0 1 0 0 0 0
1 0 1 -2z m433 -6 l-3 -4 -5 -5 -4 -5 -3 -3 -3 -4 0 -1 1 -1 -1 0 0 1 -2 -1
-2 -1 0 -1 0 -1 2 1 1 1 0 -1 0 -1 -1 -1 -1 -2 -4 -3 -3 -2 1 2 1 2 0 1 -1 1
3 3 2 4 1 0 1 1 3 4 2 4 0 -2 0 -1 1 0 1 1 0 1 0 1 4 4 4 4 0 1 0 0 2 2 2 2 0
0 0 1 1 1 2 2 0 -1 0 0 -2 -4z m-61 -90 l0 -1 -1 1 -1 2 0 0 0 1 1 -1 2 0 -1
-2z m-289 -14 l-3 -8 -3 -5 -3 -4 -3 -4 -3 -3 -1 1 -1 0 0 -1 0 -1 0 0 -1 0
-1 -2 -1 -2 -1 0 -1 0 0 1 0 1 1 0 1 -1 0 1 0 1 2 3 3 2 2 3 2 2 0 1 0 1 0 0
0 1 1 1 2 2 3 6 4 7 -1 0 -1 -1 0 1 0 1 1 0 1 1 1 3 1 4 -1 -4 0 -3 2 4 2 4 0
-2 0 -2 -4 -9z m27 -28 l0 -1 -1 -2 -1 -2 0 0 0 1 -2 -3 -3 -2 -3 0 -2 0 0 -1
1 -1 -4 -2 -5 -2 -1 0 -1 0 0 2 0 2 1 0 1 0 5 4 4 3 1 0 0 0 3 3 3 2 2 0 2 0
0 -1z m72 -8 l0 -1 -1 2 -2 3 0 1 0 1 2 -3 1 -2 0 -1z m-13 -9 l-1 0 0 0 -1 1
1 6 0 6 1 -6 0 -6 0 -1z m15 3 l2 -3 0 -1 -1 0 0 1 -1 2 -1 2 -1 3 1 0 0 0 1
-4z m-119 1 l-1 -1 -1 0 -1 0 1 1 0 1 1 0 1 0 0 -1z m-10 -4 l-1 -3 -2 0 -1
-1 0 1 0 1 2 2 2 2 1 0 0 0 -1 -2z m113 -7 l-1 -1 0 2 0 3 1 -2 0 -1 0 -1z m0
-3 l0 -1 0 0 -1 0 0 1 -1 1 1 0 1 0 0 -1z m-6 -60 l3 -4 0 -1 -1 0 -2 3 -3 4
0 1 -1 2 0 0 1 0 3 -5z m118 2 l0 -1 -6 -3 -6 -3 -1 0 0 1 7 3 7 4 0 0 0 0 -1
-1z m-226 -12 l-1 -1 -1 0 -1 0 1 1 2 1 0 0 0 0 0 -1z m341 -18 l3 0 1 1 1 1
1 0 1 -1 0 -2 0 -2 -3 0 -3 0 -4 3 -4 2 2 0 2 -1 3 -1z m-214 -14 l0 -3 -1 0
0 0 -2 3 -2 4 2 -1 3 -1 0 -2z"/>
<path d="M700 362 l-1 -2 2 1 3 0 0 1 0 0 -1 0 -2 1 -1 -1z"/>
<path d="M347 651 l-1 0 0 -1 0 -1 1 1 1 1 0 0 -1 1 0 -1z"/>
<path d="M679 648 l0 -1 1 0 1 0 0 1 -1 1 -1 0 0 0 0 -1z"/>
<path d="M706 637 l0 -1 1 0 0 0 0 1 0 1 -1 0 -1 0 1 -1z"/>
<path d="M710 629 l1 -2 2 0 1 0 0 0 0 1 -3 2 -2 2 1 -3z"/>
<path d="M575 627 l-2 0 -2 -2 -2 -1 0 -1 1 0 4 2 5 2 0 0 0 1 -1 0 0 0 -3 -1z"/>
<path d="M488 625 l0 -2 1 0 1 0 0 1 0 1 -1 1 -1 0 0 -1z"/>
<path d="M578 612 l-1 -2 1 0 1 0 0 2 1 1 0 0 -1 0 -1 -1z"/>
<path d="M572 611 l0 -1 3 -3 2 -2 0 -1 -1 -1 2 0 1 -1 1 0 1 0 0 1 0 2 -2 2
-3 2 0 1 0 2 -2 0 -2 0 0 -1z"/>
<path d="M517 603 l0 -2 2 0 2 0 0 2 0 2 -2 0 -2 0 0 -2z"/>
<path d="M625 598 l-2 -3 0 -1 1 0 1 2 2 2 0 1 0 2 -2 -3z"/>
<path d="M619 582 l-2 0 0 -2 -1 -1 1 0 1 1 0 -1 1 -1 1 1 1 1 0 1 0 2 -2 -1z"/>
<path d="M610 569 l-1 -1 0 -1 1 0 1 0 0 1 0 1 -1 1 0 -1z"/>
<path d="M602 566 l0 -1 2 0 1 0 0 0 0 1 -1 0 -2 1 0 -1z"/>
<path d="M608 564 l0 -2 1 0 1 -1 -2 -2 -3 -2 0 -3 0 -2 2 0 1 1 2 3 2 4 -1 2
0 3 -2 0 -1 0 0 -1z"/>
<path d="M617 551 l0 -1 1 1 0 1 0 1 -1 0 0 -2z"/>
<path d="M602 536 l0 -1 -1 1 -1 0 1 -1 1 -1 1 0 2 0 1 1 0 2 -2 -1 -1 -1 0 1
1 1 0 0 -1 0 -1 -1z"/>
<path d="M600 530 l-1 -1 2 0 1 1 1 0 0 0 0 1 -1 1 -1 0 -1 0 0 -2z"/>
<path d="M591 525 l1 -1 0 0 1 0 0 1 0 0 -1 1 -1 0 0 -1z"/>
<path d="M594 523 l-2 -1 0 -2 0 -1 3 2 3 2 0 1 0 1 -1 0 -1 0 -2 -2z"/>
<path d="M479 493 l-1 -1 1 0 2 0 0 1 0 1 0 0 0 0 -2 -1z"/>
<path d="M512 486 l0 -1 1 0 1 0 0 1 0 1 -1 0 -1 0 0 -1z"/>
<path d="M476 483 l-1 -2 1 -3 2 -2 2 -1 1 0 3 1 3 1 1 2 0 2 -1 2 -2 2 -4 0
-3 1 -2 -3z"/>
<path d="M498 482 l-1 -1 -2 1 -1 1 0 -1 0 -1 2 0 1 -1 3 1 2 1 -1 1 -1 1 -1
0 -1 0 0 -2z"/>
<path d="M515 483 l1 0 1 0 2 1 -3 0 -2 0 1 -1z"/>
<path d="M491 479 l-2 -1 2 0 3 0 0 1 -1 1 0 0 0 0 -2 -1z"/>
<path d="M765 463 l0 -2 1 1 2 0 -1 1 0 1 -1 0 -1 0 0 -1z"/>
<path d="M260 443 l0 -1 1 0 1 0 0 1 -1 1 -1 0 0 0 0 -1z"/>
<path d="M484 408 l-1 0 0 -1 0 -1 3 -1 2 -2 -1 3 -2 3 0 0 -1 0 0 -1z"/>
<path d="M483 403 l0 0 1 -2 2 -1 0 0 1 0 -1 2 -1 2 -1 0 -1 0 0 -1z"/>
<path d="M506 392 l-1 -1 1 0 1 0 1 1 0 1 0 0 0 0 -2 -1z"/>
<path d="M469 384 l1 0 1 0 0 1 -2 0 -1 0 1 -1z"/>
<path d="M508 380 l0 -1 2 -3 3 -2 1 0 1 0 0 1 0 1 -2 3 -1 2 -2 0 -1 0 -1 -1z"/>
<path d="M318 361 l0 -1 1 0 1 0 0 1 -1 1 -1 0 0 0 0 -1z"/>
<path d="M326 354 l3 -2 0 -1 0 -1 2 0 1 -1 -3 4 -3 4 -1 0 -1 0 2 -3z"/>
<path d="M337 347 l0 -1 2 0 2 -1 -1 1 0 1 -2 0 -1 0 0 0z"/>
<path d="M315 345 l0 -1 1 0 1 0 0 1 0 1 -1 0 -1 0 0 -1z"/>
<path d="M655 284 l0 -1 1 -2 1 -2 -1 1 -2 2 -1 0 0 -1 2 -4 2 -4 4 -7 3 -6 6
-8 5 -8 1 -1 1 0 0 2 1 2 -1 2 0 2 -3 2 -2 3 -1 -1 -1 0 1 1 0 2 -2 1 -2 2 1
1 1 0 -2 0 -1 -1 -2 4 -3 4 0 1 1 0 1 -3 2 -2 -1 2 0 3 -3 4 -2 5 -2 2 -1 2 0
1 -1 0 0 0z m4 -9 l1 -2 1 -1 2 -1 -2 0 -1 0 -2 4 -2 3 1 0 1 0 1 -3z m11 -17
l0 -1 -1 0 -1 0 0 1 0 1 0 0 1 0 1 -1z"/>
<path d="M678 240 l2 -2 1 0 0 0 4 -3 3 -2 -2 2 -1 3 -3 2 -3 1 -1 0 -1 0 1
-1z"/>
<path d="M649 224 l0 -1 1 0 1 0 0 1 0 1 -1 0 -1 0 0 -1z"/>
<path d="M671 223 l0 -1 1 1 1 0 0 1 0 0 -1 0 -1 0 0 -1z"/>
<path d="M675 218 l-1 -1 1 -2 2 -1 0 1 1 1 -1 2 -2 1 0 -1z"/>
<path d="M458 171 l1 -2 1 0 0 0 0 2 0 2 -2 0 -1 0 1 -2z"/>
<path d="M342 163 l-1 -1 2 1 2 1 0 1 0 0 -1 0 -1 0 -1 -2z"/>
<path d="M632 151 l1 0 1 0 0 1 -2 0 -1 0 1 -1z"/>
<path d="M437 150 l1 0 1 0 0 1 -2 0 -1 0 1 -1z"/>
<path d="M439 148 l-1 -2 2 -2 1 -1 2 2 3 3 0 1 0 0 -3 0 -3 1 -1 -2z"/>
<path d="M642 148 l2 -1 1 0 1 0 -2 1 -1 1 -2 0 -1 0 2 -1z"/>
<path d="M327 143 l-1 -1 2 0 1 0 0 1 -1 1 0 0 -1 0 0 -1z"/>
</g>
</svg>
