<?xml version="1.0" standalone="no"?>
<!DOCTYPE svg PUBLIC "-//W3C//DTD SVG 20010904//EN"
 "http://www.w3.org/TR/2001/REC-SVG-20010904/DTD/svg10.dtd">
<svg style="fill: black; stroke: black;" version="1.0" xmlns="http://www.w3.org/2000/svg"
 width="804.874510pt" height="855.986738pt" viewBox="0 0 804.874510 855.986738"
 preserveAspectRatio="xMidYMid meet">
<metadata>
Created by potrace 1.16, written by Peter Selinger 2001-2019
</metadata>
<g transform="translate(-104.954076,884.986738) scale(1.000000,-1.000000)"
fill="#000000" data-original="#000000" stroke="none">
<path d="M393 883 l-9 -1 -3 -2 -3 -1 -1 -2 -1 -2 3 -3 2 -2 1 1 1 1 7 2 8 2
5 0 6 1 6 1 6 0 4 0 5 0 8 -1 9 -1 2 -1 3 -1 -7 1 -6 0 -15 -1 -15 -1 -1 1 0
1 -4 -1 -4 0 -1 -1 -1 -1 -4 -1 -4 -1 -4 -2 -4 -1 0 -1 0 -1 -1 0 -2 0 -1 -2
-1 -2 -1 -2 -1 -2 -4 -3 -3 -3 0 -1 0 -1 -4 -2 -3 -3 -2 0 -2 0 0 -2 0 -1 -3
-1 -2 -1 -5 -4 -4 -3 -3 -4 -2 -3 -3 -1 -2 0 -6 -2 -5 -1 -2 -2 -2 -2 -4 -2
-3 -2 -1 -1 -1 -2 1 -1 1 -2 5 0 6 1 2 1 3 0 -1 -1 0 -1 0 -2 0 -2 -5 -4 -6
-4 -3 -1 -3 -1 -2 -2 -1 -1 1 -1 0 -1 -1 0 -1 0 -2 -2 -2 -2 0 -2 -1 -3 -2 -2
-3 -1 0 -1 0 -1 -5 -5 -5 -5 1 -4 0 -3 2 -2 2 -1 1 0 2 0 4 2 3 1 1 0 0 -1 -1
0 -1 0 0 -1 0 -2 -4 -2 -3 -1 -1 -1 0 -1 -2 0 -1 0 0 -1 0 -1 -2 -1 -3 0 0 -2
0 -1 2 0 1 1 0 -1 -1 -1 -4 -4 -4 -3 -5 -4 -5 -3 -2 -4 -1 -3 1 -1 1 -1 0 1 0
2 1 0 1 1 1 -2 1 -3 -3 -3 -4 -4 -1 1 -2 0 -7 -4 -8 -3 -2 -2 -2 -2 -3 -6 -3
-6 1 -5 1 -5 2 -1 2 0 0 -3 0 -3 2 -1 2 -1 4 2 5 2 2 0 2 1 1 -1 2 -1 -2 -2
-1 -1 -3 -4 -3 -4 -5 -6 -5 -6 -1 -2 0 -1 -7 -7 -6 -6 0 -1 0 -1 -2 -3 -2 -3
-1 -2 0 -3 -1 -3 -2 -2 1 -7 1 -7 3 -6 2 -5 0 -2 1 -1 1 -1 2 -1 1 1 2 2 4 1
4 0 0 -2 0 -2 -1 0 -2 1 -1 -3 -2 -3 1 -1 2 -2 1 0 2 0 2 1 2 1 3 7 3 7 1 1 1
0 0 -8 0 -8 1 -6 0 -5 0 -10 1 -9 1 -5 1 -5 4 -14 4 -14 6 -20 5 -19 3 -5 2
-5 3 -6 4 -6 5 -16 5 -15 2 -3 1 -2 2 0 1 0 0 -1 0 -1 1 0 1 1 2 -4 2 -3 3 -1
3 0 1 3 1 4 -1 2 -1 2 1 1 1 1 -1 8 -2 9 0 2 0 3 1 -4 2 -4 5 -9 5 -9 9 -12 8
-11 11 -11 12 -12 5 -3 6 -3 2 0 3 -1 2 1 3 2 3 -2 2 -2 1 -1 0 -2 -3 -2 -2
-1 -5 -3 -4 -3 -2 -1 -3 -1 -6 0 -7 0 -2 2 -1 2 -2 0 -1 0 0 1 0 1 -2 0 -1 0
-7 2 -7 3 -9 0 -8 0 -4 -2 -4 -3 -2 -3 -2 -2 0 -1 0 -1 3 3 3 3 4 1 5 1 5 -1
5 -2 6 -2 6 -3 1 -1 0 -1 -3 2 -2 1 -2 0 -2 0 -4 -2 -4 -2 -3 -4 -4 -4 -1 -4
-1 -5 0 -2 1 -2 3 6 3 5 2 3 3 2 2 1 3 2 5 0 5 1 3 1 3 2 -1 -1 0 -1 2 -1 2 0
1 -3 0 -3 2 -1 2 -1 -5 -3 -5 -3 -1 -4 -1 -3 0 -3 0 -3 1 0 1 -1 0 1 0 2 1 3
2 3 4 2 5 2 2 -2 3 -2 1 1 2 2 0 3 0 3 2 0 3 -1 4 0 4 -1 5 3 6 3 0 -1 0 -1 1
0 1 0 0 2 -1 1 1 0 1 0 0 -1 0 -2 2 0 2 -1 3 -1 4 0 0 -2 0 -2 1 0 1 0 1 1 2
2 2 0 3 0 3 0 4 1 1 -1 0 -1 1 1 1 0 0 -1 0 -1 4 0 3 0 0 1 0 1 3 0 2 0 2 -4
1 -4 2 -2 1 -2 4 -2 4 -1 0 0 1 0 -1 -2 0 -2 2 -1 2 0 2 -2 1 -1 1 0 0 1 2 -2
2 -2 4 0 3 0 4 -2 5 -2 2 1 3 0 2 3 3 3 3 0 2 0 1 -1 2 -2 2 -1 3 -2 2 0 3 1
3 0 4 1 1 2 1 3 -1 1 0 1 -1 1 0 1 0 1 0 1 0 1 0 2 2 0 2 0 0 1 0 1 2 -2 3 -2
1 0 1 0 3 -3 3 -3 2 -3 2 -2 -1 -1 0 -1 1 0 1 1 1 -1 2 0 -1 -1 0 -1 1 0 2 0
0 1 0 1 2 1 2 1 0 -1 -1 -2 2 0 1 0 2 -1 1 -2 0 0 -1 0 4 -4 3 -3 7 -9 8 -8 3
-5 4 -4 2 0 2 0 2 -2 3 -2 1 -3 2 -2 5 -6 5 -6 3 -3 3 -3 13 -15 13 -15 3 -5
4 -4 3 -1 3 0 1 -2 2 -1 0 1 0 2 1 0 1 0 2 1 1 0 0 -1 -1 -1 -1 0 -1 0 1 -2 0
-2 1 0 1 0 0 1 0 2 1 1 1 0 0 -4 -1 -3 1 1 2 1 0 -2 1 -1 0 1 0 2 1 0 1 0 0
-2 0 -3 2 0 2 0 0 -2 0 -2 6 -6 6 -6 6 -9 6 -8 8 -9 8 -8 6 -4 5 -4 0 0 1 1
-10 9 -10 10 -7 7 -6 8 0 1 0 1 4 -4 4 -4 1 0 1 0 0 -1 0 -2 1 0 1 0 0 -1 0
-1 12 -11 11 -12 0 -1 -1 0 5 -4 5 -3 0 -3 -1 -2 2 -3 2 -2 2 0 2 0 0 1 1 1 1
-1 2 0 1 2 0 3 1 0 1 0 0 5 -1 6 0 1 0 2 -3 3 -3 2 -3 1 -2 1 -4 2 -4 2 0 1 1
1 -1 0 -1 0 -1 0 -1 0 0 2 0 1 -1 0 -2 -1 -3 4 -3 4 0 -1 -1 0 0 1 0 1 -2 2
-2 2 -1 0 -1 0 0 2 0 1 -2 1 -3 1 0 1 0 1 -2 2 -2 2 -1 2 -2 2 1 2 1 1 -2 0
-2 0 2 3 2 2 -2 1 -1 1 0 0 1 0 -3 4 -2 5 2 -1 2 0 -1 -2 0 -1 4 -2 4 -1 0 -1
-1 -1 5 -5 5 -5 0 -1 0 -1 1 0 2 0 2 -3 3 -3 1 -2 2 -1 2 -4 2 -4 1 0 2 1 1 1
1 1 -18 19 -19 18 1 2 0 1 -5 5 -4 4 1 1 2 1 0 -2 0 -1 1 1 1 0 -1 2 0 1 -3
-1 -2 0 -1 2 -1 2 1 1 0 1 -1 0 -2 0 -1 2 -1 3 1 1 0 2 3 -1 4 0 4 -5 4 -4 0
1 0 1 -3 3 -4 4 0 1 1 0 3 -1 2 -2 10 -10 11 -10 9 -8 9 -8 0 -2 1 -1 9 -7 10
-7 2 -2 2 -2 7 -5 8 -6 1 -1 1 -1 5 -3 5 -4 8 -6 8 -6 0 -1 1 -1 2 -1 2 -1 2
1 1 1 -4 2 -3 2 -2 1 -1 2 1 0 2 0 2 -2 2 -2 2 0 1 1 1 -1 1 -1 1 1 1 1 4 -2
3 -1 7 -7 8 -7 6 -5 6 -5 1 0 1 0 0 1 0 1 -2 1 -3 2 0 2 0 1 2 0 1 0 0 1 0 2
-1 1 -2 2 0 2 -1 2 -5 4 -4 4 -14 14 -13 13 2 2 1 2 1 -2 0 -1 1 0 1 0 -1 2
-1 1 -2 -1 -2 0 0 1 0 2 -1 0 -1 0 0 -1 0 -1 -1 1 -2 1 1 1 0 1 1 -1 1 0 0 1
0 1 -1 0 -2 -1 0 2 -1 1 2 0 2 -1 -1 1 0 2 2 0 2 0 -1 -3 0 -2 1 0 1 0 1 1 1
2 -1 1 -1 1 1 0 1 0 0 2 0 3 1 0 2 1 2 -1 3 -1 -2 0 -2 0 1 -1 0 -1 -1 1 -2 2
0 -1 -1 -1 1 -1 1 -2 2 1 1 0 0 -1 -1 -1 -2 0 -1 0 0 -1 0 -2 -1 0 -2 0 0 -1
0 0 1 -2 1 -1 0 1 1 1 -1 0 0 0 2 2 1 2 2 0 1 0 0 1 0 1 2 0 3 0 -2 -1 -1 -1
1 0 2 -1 1 0 1 0 0 2 0 3 1 -2 1 -1 1 0 1 1 0 -2 1 -2 3 -1 3 -2 -1 -1 0 -1 1
0 1 1 4 -4 4 -4 0 -1 -1 -1 2 0 1 0 3 -3 3 -3 0 -2 1 -2 1 0 1 0 0 1 1 1 2 -1
3 -2 0 -1 0 -1 2 0 2 0 1 1 1 2 0 -2 -1 -1 2 -1 1 -1 0 1 0 1 1 2 2 2 0 -3 0
-2 -1 1 -1 1 0 -2 0 -2 2 1 2 1 -1 1 0 1 1 0 2 -1 0 1 1 1 -1 0 -1 1 1 0 1 0
1 -1 0 -1 -1 -2 -2 -1 0 -1 0 -1 2 0 1 1 0 -2 -1 -2 2 1 1 1 -1 2 -1 2 1 1 1
0 0 -1 -1 -1 1 0 1 0 1 -3 1 -2 1 1 1 1 0 1 -1 1 -1 -1 -1 0 0 1 0 2 -2 2 -3
3 0 1 0 1 2 -1 2 -1 3 -5 3 -4 -1 -1 -1 -1 1 -1 0 -2 1 0 1 0 -1 -1 0 -1 -1 0
0 1 -1 -3 0 -3 2 1 1 1 0 2 -1 1 1 1 1 0 -1 2 -1 2 0 1 0 0 3 -3 3 -2 1 -3 2
-3 -3 3 -3 4 1 -3 0 -2 1 -1 1 0 -1 -2 -2 -1 -1 0 0 0 0 2 1 2 -2 -1 -1 0 0
-2 -1 -2 1 -1 1 -1 -1 -1 -1 -1 0 -2 0 -2 2 -2 3 -2 1 0 2 0 1 -1 1 -1 4 0 5
0 2 2 1 2 -1 2 0 2 -4 3 -3 4 -1 1 -1 2 -5 6 -5 6 -5 7 -6 7 0 3 0 3 -1 1 -1
0 -2 1 -1 0 -2 2 -2 2 -4 1 -3 2 -3 4 -3 4 -1 0 -1 0 -4 4 -3 4 0 2 0 3 -1 -2
-2 -2 0 1 0 2 -1 0 -1 0 0 1 1 1 -4 3 -4 2 1 1 0 1 -1 0 -2 0 0 2 0 2 1 1 1 0
0 -1 0 -1 1 -2 2 -1 1 0 0 0 0 2 -1 1 1 -1 2 -1 -1 -2 -1 -1 2 0 2 0 3 -2 3
-3 0 -2 0 -2 1 1 1 0 -1 1 0 2 1 -2 2 -1 -1 -2 -1 -2 -2 1 -1 0 1 -1 2 -1 1 2
2 2 3 -3 4 -3 5 -4 5 -3 0 0 1 0 -2 3 -2 3 -1 0 -1 0 -6 6 -6 6 4 2 4 3 2 -1
1 0 0 -2 0 -1 1 1 1 0 -1 2 -1 1 1 0 1 1 0 -1 1 -1 0 2 0 2 -1 -1 -1 0 -2 1
-1 1 0 2 -1 2 2 0 1 -1 1 0 0 -1 2 0 2 0 0 1 0 1 -1 0 -1 0 1 1 1 1 -1 1 -1 2
0 0 -1 0 -1 1 -2 0 1 2 0 1 -1 0 -2 -1 0 2 0 1 1 0 1 0 0 1 -1 2 1 1 2 1 1 -1
1 0 2 2 1 2 -2 1 -2 2 -2 0 -1 0 0 -1 0 -2 2 0 2 0 0 -1 0 -1 -1 0 -1 -1 0 1
0 2 -1 -2 -1 -2 -2 1 -1 1 0 -1 0 -1 -1 1 -1 1 1 1 1 2 -1 2 -1 1 1 0 2 -1 1
2 1 1 0 1 -1 1 2 0 2 0 1 -1 1 -1 5 -3 6 -3 -1 -1 0 -1 1 0 1 1 3 -1 3 -2 5 0
4 0 0 2 1 2 -2 1 -1 1 1 2 0 2 -1 -2 -1 -1 0 1 -1 1 -1 -1 -2 0 0 3 0 3 3 1 4
1 -5 4 -5 5 -5 4 -4 4 4 -2 4 -2 5 -5 6 -5 2 -1 3 -1 2 1 1 0 -2 2 -1 1 2 0 2
-1 -1 2 0 2 1 0 2 1 0 1 0 1 -2 1 -3 1 -1 2 0 2 -2 -1 -1 0 0 1 0 1 -3 1 -3 0
-1 0 -1 0 0 1 0 1 -3 2 -2 3 1 1 2 2 -1 0 -1 0 1 1 1 1 0 2 0 3 2 -1 2 0 0 1
0 1 -2 1 -1 1 1 0 1 0 0 3 -1 4 -1 1 -1 1 3 3 2 3 -1 1 -1 0 -2 4 -2 4 -2 2
-2 2 -7 4 -7 3 0 1 0 1 -1 0 -1 0 -4 3 -3 2 -1 1 0 0 1 0 1 -1 0 1 -1 1 -1 0
0 -1 -6 4 -6 4 -1 0 -1 0 -2 2 -3 3 1 3 0 2 -1 0 -1 -1 0 1 -1 1 2 0 1 1 0 1
0 2 -2 0 -2 1 1 1 0 2 -2 0 -3 0 -1 1 -2 2 0 1 0 1 -1 0 0 0 -4 4 -4 3 1 1 0
2 0 -1 -1 -1 -3 2 -2 3 0 1 0 1 -1 0 -2 -1 0 1 1 2 -4 -1 -3 0 0 1 0 1 2 0 2
-1 -2 1 -1 1 0 1 0 1 2 -1 1 -1 0 1 0 1 -1 0 -1 0 -2 2 -2 2 0 1 0 1 -3 0 -3
0 0 -1 -1 -1 -2 1 -2 0 0 2 0 1 -1 0 -1 -1 -3 3 -2 2 -3 2 -2 2 -16 11 -16 12
-1 2 -1 1 1 0 2 0 -1 2 0 2 -8 7 -7 8 -4 3 -4 3 -1 1 0 1 -1 0 -2 0 -2 3 -3 3
1 1 1 0 -1 1 -2 1 1 2 1 1 0 0 0 1 -3 -1 -2 -1 -4 -1 -3 0 1 2 0 1 -1 -1 -2 0
0 1 0 2 -2 0 -1 1 0 1 1 1 2 -1 1 0 0 1 0 0 -2 3 -2 2 0 1 1 0 1 -1 1 -1 1 0
0 1 3 -3 2 -2 1 0 0 1 -1 1 0 2 -1 0 -2 0 -2 4 -3 4 0 2 0 1 -1 0 -1 -1 0 1
-1 1 -2 -1 -1 0 0 1 1 0 -2 3 -2 2 2 1 1 2 1 -2 0 -1 2 0 1 0 0 -1 0 -1 -1 1
-1 0 0 -2 0 -1 1 1 2 1 1 -1 2 0 -1 -1 0 -1 2 -3 2 -2 3 -2 3 -2 0 1 0 1 -3 3
-4 4 0 1 1 1 -5 5 -6 5 0 1 -1 2 -1 2 -2 2 2 1 2 1 -1 -1 0 -2 2 1 3 0 0 -1 0
-1 2 -1 3 0 5 -4 5 -3 0 -1 1 -1 8 -6 8 -6 0 -1 0 -1 1 0 1 0 2 -2 2 -1 5 -5
6 -5 4 -4 5 -4 3 -2 3 -2 1 0 2 0 -2 2 -2 1 0 0 1 0 -2 2 -2 2 -4 3 -3 2 -5 5
-5 5 -2 1 -1 2 -9 7 -9 7 -6 5 -5 5 -9 7 -8 8 -3 3 -3 2 -9 9 -8 9 -3 6 -3 6
-3 3 -3 2 0 1 0 0 -1 3 0 3 -2 0 -1 -1 -5 7 -5 6 -3 3 -2 3 -3 3 -2 4 -4 3 -3
4 0 0 0 1 -1 0 -2 0 0 1 1 1 -3 4 -3 4 -2 -1 -1 0 0 1 1 1 -2 2 -2 3 -4 5 -4
4 -2 0 -1 0 0 1 1 0 -1 2 -1 1 -2 0 -2 0 1 2 0 1 -1 0 -1 -1 0 1 0 2 -3 1 -2
1 1 1 0 1 -1 0 -2 0 0 2 -1 2 -3 2 -2 3 1 0 1 0 -3 1 -2 2 1 1 2 1 2 -1 2 -2
1 0 1 0 0 1 0 2 -2 2 -3 3 -9 8 -8 8 -8 7 -8 7 -6 4 -5 4 -13 8 -12 8 -8 5 -8
5 -5 3 -5 2 -2 0 -2 0 -2 1 -2 2 0 1 0 2 2 0 1 1 0 5 0 5 1 1 1 1 0 0 1 0 1
-3 1 -2 0 3 0 3 1 2 0 2 1 2 1 2 1 0 1 0 1 -3 1 -2 2 1 1 2 0 4 0 3 1 3 0 3 2
0 2 -1 1 3 2 3 1 0 2 -1 -1 -2 0 -3 1 0 1 0 2 4 2 4 0 3 1 3 2 0 1 1 1 -1 1
-1 2 0 2 0 2 3 3 3 0 2 0 1 1 0 2 0 1 0 1 1 2 2 1 3 1 2 1 3 6 4 6 4 6 1 6 2
6 0 6 1 9 1 10 1 9 3 10 3 5 0 6 -1 0 1 0 0 -6 3 -5 2 -7 2 -7 2 -8 1 -7 2
-10 1 -10 1 -10 0 -10 0 -12 0 -11 -1 -2 0 -2 -1 1 1 1 0 -1 2 -1 1 2 2 3 2 2
0 3 0 0 1 -1 1 2 1 2 0 11 1 12 0 7 1 6 1 11 0 12 0 12 -3 12 -3 6 -2 7 -3 4
-3 4 -2 -1 3 -2 3 -3 2 -2 3 -7 5 -7 5 -8 3 -7 4 -9 3 -9 3 -7 1 -7 2 -2 0 -2
1 -2 0 -1 0 0 1 1 1 -3 0 -2 0 -5 0 -4 1 1 0 0 1 -6 0 -5 0 -3 0 -3 1 -2 0 -1
1 -8 1 -7 0 -3 3 -3 2 -1 0 -2 0 -1 1 0 1 -4 2 -4 2 -6 3 -6 3 -8 3 -7 2 -2 0
-1 -1 1 1 0 1 -1 0 -1 0 -2 1 -1 0 2 -1 2 -2 -4 1 -3 0 -1 0 -1 1 -7 1 -7 2
-11 2 -11 2 -10 0 -9 0 -10 -2z m159 -46 l0 -2 -1 0 0 0 -3 -1 -2 0 -4 0 -3 0
-1 1 0 1 -1 -1 -1 0 1 1 1 1 3 -1 4 -1 3 2 3 1 0 0 1 0 0 -1z m-68 -3 l1 -2
-1 -4 0 -4 -3 -4 -3 -3 -3 0 -2 0 -3 1 -2 2 0 1 0 1 -2 2 -2 2 0 1 0 1 2 -2 1
-2 2 0 1 0 0 1 -1 1 1 -1 2 0 2 2 2 2 0 3 0 3 1 0 1 0 1 -2 1 -1 0 -3 0 -2 -3
-3 -3 -3 1 0 1 0 2 3 3 3 1 2 1 3 -1 3 0 2 0 0 1 0 1 -3z m-186 -94 l-2 -3 -7
-5 -6 -4 -6 -5 -6 -5 -1 2 -1 2 4 4 5 4 8 5 9 6 2 1 2 1 0 0 1 0 -2 -3z m391
-274 l0 -2 -1 0 0 1 0 1 1 2 0 0 1 0 -1 -2z m7 -5 l0 -1 2 1 1 0 0 -1 0 -2 2
-1 1 -1 0 0 -1 -1 -5 4 -6 3 0 1 1 1 2 -1 2 0 1 -2z m-228 -115 l0 -1 3 -1 3
-1 0 -1 0 -2 2 -1 2 -2 0 -2 0 -2 -2 -3 -2 -2 -4 3 -5 3 -2 -1 -2 0 0 -1 0 -1
-1 0 -1 0 0 1 0 2 -4 -2 -3 -1 -2 1 -1 1 1 0 1 1 1 0 2 -1 -1 1 0 2 2 0 3 -1
-1 2 0 1 -3 0 -2 -1 0 2 0 3 2 1 3 2 1 -1 2 -1 2 1 3 1 0 1 1 1 1 0 1 0 0 -1z
m-48 -4 l-1 0 -1 0 -1 1 1 0 2 0 0 -1z m-11 -4 l0 -1 -2 0 -2 0 1 1 2 1 0 0 1
0 0 -1z m71 -7 l0 -1 -1 0 -1 0 1 1 0 1 1 0 0 0 0 -1z m31 -22 l-1 -1 1 1 0 2
1 0 0 -1 -1 -1z m130 -19 l7 -7 3 -5 3 -4 8 -8 7 -7 0 -1 0 -1 -8 9 -8 8 -7 7
-6 6 0 1 0 1 -1 0 -1 0 0 -1 0 -1 2 -2 2 -2 2 -3 2 -3 0 -2 -1 -1 -2 1 -3 1 0
1 0 1 -1 0 -2 -1 -1 2 -1 2 -2 -1 -2 0 2 2 2 1 -3 0 -2 -1 -2 3 -3 3 1 1 0 1
-1 0 -1 0 1 1 0 2 3 1 4 1 0 0 1 0 0 1 0 1 1 0 1 0 6 -7z m-46 -27 l0 -1 -1 0
-1 0 0 1 0 2 1 -1 1 0 0 -1z m6 1 l0 -2 -2 0 -2 0 -1 1 0 1 1 0 2 -1 1 1 0 1
1 0 0 0 0 -1z m0 -5 l-1 -2 -1 1 0 0 0 1 1 2 1 0 2 0 -2 -2z m4 -1 l0 -1 -1 0
-1 0 0 1 0 1 0 0 1 0 1 -1z m1 -6 l-1 -1 0 1 0 2 1 0 0 -1 0 -1z m7 -3 l1 -1
-1 1 -1 0 0 1 0 1 0 0 1 0 0 -2z m-1 -2 l0 -1 -1 0 -1 0 0 1 0 1 0 0 1 0 1 -1z
m4 -4 l0 -1 -2 0 -1 -1 1 1 1 2 -1 1 0 0 1 0 1 -1 0 -1z m2 -4 l-1 0 -1 0 -1
1 1 0 2 0 0 -1z m10 -7 l-1 -1 1 1 0 2 1 0 0 -1 -1 -1z m257 1 l1 -2 -1 0 -1
0 0 2 0 1 0 0 1 0 0 -1z m-52 -30 l0 -1 -1 0 -1 0 1 1 0 1 1 0 0 0 0 -1z m30
-7 l0 -1 -1 0 -1 0 0 1 0 1 0 0 1 0 1 -1z m-7 -3 l0 -1 -2 0 -2 -1 0 1 0 1 2
0 2 0 0 0z m-42 -12 l1 -1 -2 0 -2 0 0 1 0 1 1 0 2 0 0 -1z m9 -6 l1 -2 -2 0
-1 0 0 2 0 1 1 0 1 0 0 -1z m-23 -37 l0 -1 -1 0 -1 0 0 1 -1 1 1 0 1 0 1 -1z"/>
<path d="M469 820 l2 0 1 0 2 1 -3 0 -3 0 1 -1z"/>
<path d="M716 460 l0 -1 1 0 1 0 0 1 0 1 -1 0 -1 0 0 -1z"/>
<path d="M719 457 l0 -1 1 0 0 0 0 1 0 1 -1 0 -1 0 1 -1z"/>
<path d="M714 453 l1 -1 1 0 0 1 -2 0 -1 1 1 -1z"/>
<path d="M341 331 l2 -2 2 0 2 0 1 1 2 1 -3 0 -2 0 -3 1 -2 0 1 -1z"/>
<path d="M843 329 l0 -1 2 0 1 -1 -1 1 -1 2 -1 0 0 0 0 -1z"/>
<path d="M330 326 l-1 -2 2 1 2 2 0 1 0 0 0 0 -1 0 -2 -2z"/>
<path d="M442 325 l0 -1 1 0 1 0 0 1 0 1 -1 0 -1 0 0 -1z"/>
<path d="M317 324 l-5 -1 5 0 5 0 1 1 0 1 -1 0 0 0 -5 -1z"/>
<path d="M416 323 l0 -1 1 0 1 -1 0 1 0 1 -1 1 -1 0 0 -1z"/>
<path d="M455 308 l0 -1 1 1 0 1 0 1 -1 0 0 -2z"/>
<path d="M547 287 l1 -3 2 1 1 0 0 2 -1 1 0 1 0 0 -2 0 -2 0 1 -2z"/>
<path d="M882 216 l0 -1 1 0 1 0 0 1 0 1 -1 0 -1 0 0 -1z"/>
<path d="M870 210 l1 0 1 0 0 1 -2 0 -1 0 1 -1z"/>
<path d="M873 197 l0 -1 1 0 1 0 0 1 -1 1 -1 0 -1 0 1 -1z"/>
<path d="M876 195 l-1 -2 1 0 0 -1 1 0 1 0 0 2 0 2 -1 0 -1 0 0 -1z"/>
<path d="M871 193 l0 -2 1 0 1 0 0 1 -1 1 -1 1 -1 0 1 -1z"/>
<path d="M652 191 l1 -2 1 1 0 0 -1 2 -2 2 1 -3z"/>
<path d="M842 192 l0 -1 0 -1 1 0 1 1 1 1 -1 0 -1 1 -1 -1z"/>
<path d="M880 191 l0 -1 1 0 0 0 0 1 0 1 -1 0 -1 0 1 -1z"/>
<path d="M873 188 l-1 -4 0 -1 0 -1 1 0 1 0 0 2 -1 1 3 -1 2 0 0 1 0 1 -1 1
-1 1 1 0 1 1 0 1 0 1 -2 0 -1 0 -2 -3z"/>
<path d="M656 189 l-1 -1 1 0 1 -1 0 1 0 2 0 0 -1 0 0 -1z"/>
<path d="M846 188 l-1 -1 0 -1 1 0 1 1 1 2 -1 0 -1 1 0 -2z"/>
<path d="M871 188 l-1 -1 1 0 1 -1 0 2 1 1 0 1 0 0 -2 -2z"/>
<path d="M864 188 l0 -1 1 1 1 0 0 1 0 0 -1 0 -1 0 0 -1z"/>
<path d="M868 185 l0 -2 1 0 0 1 -1 1 -1 2 1 -2z"/>
<path d="M702 174 l0 -1 1 0 1 -1 0 1 0 2 -1 0 -1 0 0 -1z"/>
<path d="M830 167 l0 -1 -1 0 -1 1 0 -1 0 -1 -1 1 -1 2 -1 0 -1 0 0 -1 1 0 -2
-3 -2 -2 2 1 2 0 0 1 0 1 2 0 2 0 1 0 2 0 -1 2 -1 2 -1 0 0 0 1 -2z"/>
<path d="M818 167 l-1 -2 -1 1 -1 0 0 -1 0 -2 1 0 2 0 0 1 0 1 2 1 2 0 0 1 1
1 -2 0 -2 0 -1 -1z"/>
<path d="M830 162 l1 0 -2 -2 -1 -1 -1 0 -1 1 0 -1 -1 -2 3 1 3 1 0 1 0 2 1
-2 2 -2 0 1 1 0 -1 -1 0 -2 1 0 1 0 1 2 1 2 -2 0 -3 0 0 1 0 1 -2 0 -1 1 0 -1z"/>
<path d="M840 156 l-2 -1 1 0 2 0 -3 -2 -2 -2 0 -1 1 0 3 3 2 3 1 -2 1 -1 0 1
0 2 -1 1 0 1 -3 -2z"/>
<path d="M833 154 l1 -1 1 -1 0 0 0 1 0 2 -2 0 -1 1 1 -2z"/>
<path d="M843 152 l0 -1 3 -3 3 -3 1 0 0 1 0 0 -1 1 -3 2 -3 3 0 0z"/>
<path d="M846 144 l-1 0 0 -2 0 -1 1 1 1 2 0 1 -1 0 0 -1z"/>
<path d="M850 143 l0 -1 3 -1 2 -1 0 1 -1 1 -2 1 -2 1 0 -1z"/>
<path d="M851 140 l0 -1 2 0 1 -1 -1 1 0 1 -1 0 -1 0 0 0z"/>
<path d="M856 138 l-1 -1 1 1 1 1 0 1 -1 0 0 -2z"/>
<path d="M847 137 l-1 -1 2 0 2 0 0 1 0 1 -1 0 -2 0 0 -1z"/>
<path d="M881 134 l0 -1 0 -1 1 0 0 1 0 1 1 -1 1 0 0 1 -1 1 0 0 -1 0 -1 -1z"/>
<path d="M857 133 l0 -1 1 0 1 0 0 1 -1 1 -1 0 0 0 0 -1z"/>
<path d="M885 131 l-2 -2 0 0 0 -1 2 2 2 2 0 1 0 0 0 0 -1 0 -1 -2z"/>
<path d="M866 129 l0 -2 1 0 1 0 -1 2 -1 1 -1 0 0 0 1 -1z"/>
<path d="M855 128 l-1 0 0 -1 0 -1 1 0 1 0 0 2 0 1 0 0 -1 0 0 -1z"/>
<path d="M869 125 l1 -1 0 -1 0 -1 -1 1 -1 0 0 -1 1 -1 1 1 1 1 -1 2 -2 1 1
-1z"/>
<path d="M873 118 l2 -2 0 1 0 0 0 1 -1 1 -1 0 -1 0 1 -1z"/>
<path d="M876 115 l0 -1 2 -1 2 0 -1 -1 0 -1 1 0 2 0 0 0 0 1 -3 2 -3 2 0 -1z"/>
<path d="M879 109 l-1 0 1 -2 0 -1 -1 0 -2 1 1 -2 1 -2 -1 -1 0 0 2 1 2 1 -1
-3 0 -2 1 1 1 1 0 -1 1 -2 2 1 3 0 0 2 1 1 -2 2 -1 3 -2 0 -1 1 1 1 0 1 -3 0
-2 0 0 -1z"/>
<path d="M119 47 l2 -2 1 -2 0 -2 1 0 0 1 -1 3 -2 3 -2 0 -1 1 2 -2z"/>
<path d="M111 46 l-3 -2 -2 -4 -1 -4 1 -2 1 -2 2 -1 1 -2 4 0 4 0 -4 1 -4 1
-2 2 -2 3 2 4 1 4 3 2 4 2 -1 0 -1 0 -3 -2z"/>
<path d="M113 43 l-1 -2 -1 -4 0 -3 1 2 2 2 1 -3 0 -2 2 1 2 0 2 3 1 2 0 1 -1
0 -1 -3 -1 -2 -2 0 -1 0 0 2 -1 1 1 2 1 3 -1 0 0 1 -1 0 -1 0 -1 -1z m2 -3
l-1 -2 -1 0 -1 0 1 2 1 2 1 0 0 -1 0 -1z"/>
<path d="M178 40 l-2 -2 2 1 2 1 1 1 0 1 0 0 -1 0 -2 -2z"/>
<path d="M131 40 l-1 -1 1 1 2 0 0 1 0 0 -1 0 -1 0 0 -1z"/>
<path d="M137 39 l-3 -2 0 1 -1 2 0 -3 0 -2 -1 -2 0 -1 4 4 4 5 0 -5 0 -4 1 0
1 -1 0 1 0 1 3 1 2 1 2 -2 3 -2 1 0 2 1 -2 1 -2 0 -1 1 -1 2 1 3 0 3 -1 -2 -1
-2 -2 -2 -2 -2 -2 0 -1 0 0 4 0 3 -1 0 -1 0 -2 -2z"/>
<path d="M155 38 l-1 -2 2 1 2 2 1 0 2 0 0 -1 0 -1 -2 -2 -1 -2 1 0 1 1 2 -1
1 -1 3 2 2 2 1 -2 2 -1 2 2 3 2 -3 -1 -2 -2 0 0 -1 0 0 3 -1 2 -2 -2 -2 -3 -2
0 -1 0 0 3 0 3 -3 0 -2 0 -2 -2z"/>
<path d="M194 36 l0 -3 1 1 1 0 0 2 0 2 -1 0 0 0 -1 -2z"/>
<path d="M121 32 l-3 -2 1 0 1 0 2 2 3 2 -1 0 0 0 -3 -2z"/>
</g>
</svg>
