<?xml version="1.0" standalone="no"?>
<!DOCTYPE svg PUBLIC "-//W3C//DTD SVG 20010904//EN"
 "http://www.w3.org/TR/2001/REC-SVG-20010904/DTD/svg10.dtd">
<svg style="fill: black; stroke: black;" version="1.0" xmlns="http://www.w3.org/2000/svg"
 width="665.000000pt" height="788.653522pt" viewBox="0 0 665.000000 788.653522"
 preserveAspectRatio="xMidYMid meet">
<metadata>
Created by potrace 1.16, written by Peter Selinger 2001-2019
</metadata>
<g transform="translate(-244.000000,902.571429) scale(1.000000,-1.000000)"
fill="#000000" data-original="#000000" stroke="none">
<path d="M550 901 l-2 -1 2 0 2 -1 1 2 2 2 -2 0 -2 0 -1 -2z"/>
<path d="M519 900 l-2 -1 -1 -3 -1 -3 2 0 1 1 3 -1 2 0 -1 -2 -1 -1 -2 0 -1 1
-2 -1 -1 -1 -1 1 0 1 -3 -2 -3 -2 -1 1 -1 1 4 3 3 4 0 0 0 0 -5 -1 -4 -1 -4
-3 -3 -3 -3 -3 -2 -2 -3 0 -3 1 -3 0 -2 1 -4 -2 -4 -2 -1 0 -2 0 0 -1 0 0 -5
-3 -4 -3 -5 0 -4 -1 -8 -5 -8 -4 -1 -1 0 -1 -1 1 -1 0 -6 -3 -6 -4 -5 -2 -4
-3 -13 -9 -13 -8 -9 -9 -9 -9 -7 -9 -8 -8 -5 -9 -5 -8 0 -1 0 -1 -4 -3 -3 -3
0 -2 1 -1 -2 -2 -1 -2 0 0 1 0 -1 0 0 0 -3 -1 -3 -1 0 -1 1 -1 1 0 2 0 -4 -4
-5 -4 1 -2 0 -1 -1 0 -1 1 0 -2 0 -2 -1 -2 -2 -1 0 -1 0 -1 0 -1 0 -1 -2 0 -1
0 1 -1 1 -1 -2 0 -3 -1 0 -1 1 -1 -3 -2 -3 -2 1 -2 0 -2 -1 0 -1 1 0 -2 -1 -2
-2 1 -1 0 0 -1 0 -1 2 0 1 0 -3 -5 -3 -4 0 -2 -1 -1 -1 -1 -1 -2 0 0 1 0 -1
-2 -2 -3 1 0 0 0 -1 -2 -1 -2 0 -2 0 -1 -1 0 -1 -1 1 1 0 2 -1 0 -1 0 0 -2 -1
-1 -1 0 -1 1 0 -2 -1 -2 1 0 1 0 0 -2 0 -2 -2 0 -2 -1 0 -1 0 -1 1 0 1 0 0 1
0 1 1 0 1 0 -1 -3 0 -3 -1 -1 -1 0 0 -2 0 -3 -1 0 -2 -1 0 1 0 1 1 0 1 0 -1 2
0 2 1 1 2 0 0 2 0 1 -1 0 -1 0 0 -1 0 -2 -1 -1 -1 0 -1 1 0 1 -2 -1 -2 -1 2 0
3 -1 0 -1 0 -1 -2 -1 -3 -1 0 0 0 -1 2 0 1 -1 -1 1 0 1 1 0 1 -1 0 -1 -1 -1 1
0 1 -1 -2 1 -1 0 0 -2 -1 -1 -1 0 -1 1 1 -1 0 -2 1 1 2 0 -2 -1 -1 -2 1 0 2 1
-1 -3 -1 -2 -1 1 0 1 -2 -3 -2 -3 -1 1 -1 2 0 -2 0 -1 0 -2 -1 -2 1 0 1 1 0
-2 -1 -2 -1 -2 -1 -1 1 0 1 1 0 -1 0 -1 -1 0 -2 -1 0 2 -1 2 0 -2 -1 -2 1 -1
1 0 -1 -4 -1 -3 -2 0 -1 0 0 -1 0 -1 -1 1 -1 0 1 2 2 2 0 1 1 2 -2 -3 -3 -3
-2 -4 -1 -3 0 -3 -1 -2 1 0 1 0 -1 -2 0 -2 -2 -1 -1 -1 1 -1 1 -1 -1 -3 -1 -4
0 -4 0 -5 -1 0 -1 1 0 1 0 1 0 3 1 4 -1 0 -1 0 0 -3 -1 -3 -1 -7 0 -7 -1 -1 0
0 1 -2 1 -1 -2 -1 -1 -2 2 0 1 0 -2 -2 -1 -2 1 -1 1 -1 -1 -1 -2 0 1 -2 0 -2
-1 0 -1 1 0 -3 1 -4 -1 0 -1 0 0 -2 0 -1 1 1 1 2 0 -3 0 -2 -1 0 -1 0 1 -2 0
-1 -1 0 -1 1 0 -1 0 -1 1 0 1 0 -1 -1 -1 -1 0 -3 0 -2 1 0 1 0 0 -2 0 -2 -1 2
-1 2 0 -3 0 -3 1 0 1 1 1 -2 1 -3 -1 0 -1 -1 0 1 -1 2 0 -2 0 -2 1 0 1 0 0 -1
0 -1 0 -2 0 -2 2 0 2 0 -2 -1 -1 -1 1 -2 0 -2 1 0 2 1 1 -3 2 -2 -1 -2 -1 -1
1 0 2 0 8 -8 9 -8 1 -4 2 -3 -1 -2 0 -1 5 -5 5 -5 0 -1 -1 -1 -1 -1 -1 0 0 0
1 1 -3 3 -3 4 -1 0 0 -1 1 -2 1 -2 3 -3 2 -3 1 0 1 0 0 1 -1 1 1 0 1 0 0 -1 0
-2 2 -1 2 -2 0 0 -1 0 1 -1 1 -2 1 1 1 0 -1 -1 0 -2 2 -1 1 0 1 1 0 1 2 0 2 0
0 -1 0 -1 -1 0 0 1 -2 -1 -2 -1 2 -1 2 -1 1 1 2 1 1 -1 1 -1 0 1 0 1 2 -1 2 0
6 -3 7 -4 4 -1 5 -1 -2 1 -2 2 0 0 0 1 3 -1 2 0 -1 2 -1 1 1 -1 2 0 1 1 1 2 0
-2 0 -1 1 1 2 1 0 -1 1 -1 1 1 2 2 2 0 3 0 0 -1 0 -1 2 0 3 0 1 2 2 2 0 2 1 2
2 -1 1 -1 -1 1 0 2 1 0 2 0 0 0 1 0 0 1 0 1 3 2 2 2 0 1 0 1 -1 -1 -2 -2 -1 2
-1 2 1 0 1 1 0 -1 0 -1 1 1 2 2 0 -1 1 -1 2 3 1 2 0 1 0 0 -2 -2 -1 -2 -2 1
-1 1 2 1 2 0 0 1 -1 2 1 0 2 0 3 1 3 0 -1 1 -1 1 1 0 2 0 -1 1 0 1 -1 -1 -1 0
0 2 1 2 -3 -1 -3 0 0 1 0 1 -5 0 -5 0 -3 -2 -3 -2 1 0 2 0 0 -1 0 -1 2 1 1 0
0 -1 -1 -1 -5 -1 -5 -1 -2 1 -1 1 -2 2 -1 1 -2 -1 -2 -2 0 1 -1 1 1 0 1 0 -4
2 -3 1 -2 2 -2 2 -1 -1 -1 -1 -1 0 -1 0 1 1 1 1 -1 1 -2 1 -1 0 -1 0 0 0 1 1
-2 1 -1 2 -1 -1 -1 0 0 1 0 2 -1 0 -1 0 0 1 1 1 -2 2 -1 2 -4 -1 -3 -1 -1 0
-1 0 -6 7 -7 6 1 1 0 1 -1 0 -1 0 1 1 2 1 -2 1 -1 1 0 2 -1 2 1 0 2 0 -2 1 -1
1 0 1 1 0 -1 2 -1 1 0 1 1 0 -1 3 -1 2 1 1 2 1 -2 0 -1 0 1 5 0 5 1 3 1 3 0 0
0 1 1 0 1 0 1 5 2 5 1 3 2 3 -1 1 -1 1 1 0 1 0 0 1 -1 1 2 2 1 3 0 0 -1 0 1 2
2 1 0 3 0 2 1 4 1 3 1 0 1 0 -1 2 0 1 1 0 1 -1 0 2 1 2 0 2 -1 3 1 0 1 0 0 -1
1 -1 1 3 1 3 -1 -2 -2 -2 0 1 -1 0 0 3 0 2 2 1 2 1 -1 1 -2 1 1 1 0 1 -1 0 -1
0 1 2 1 2 -2 2 -1 1 1 0 2 0 0 2 0 3 1 1 1 1 0 5 0 5 0 7 0 7 1 4 2 4 -1 2 0
1 1 0 1 -1 0 1 0 2 -1 0 -1 1 1 3 1 3 0 2 -1 2 3 3 3 4 1 1 2 2 2 3 3 3 5 4 6
4 3 4 4 4 1 0 2 0 4 5 4 5 1 0 1 0 -1 -2 -1 -2 2 1 3 0 1 1 2 2 2 0 2 1 3 0 4
0 4 4 5 5 0 6 0 6 3 0 3 0 2 2 3 3 1 3 1 3 1 1 0 1 1 2 0 3 0 1 1 1 3 2 3 2 0
2 0 2 2 0 2 1 2 3 1 4 2 0 3 1 3 0 3 0 1 1 0 1 3 1 3 1 1 1 1 0 3 0 3 1 2 1 3
1 1 1 1 2 3 1 4 2 0 1 0 1 5 3 5 4 4 0 4 0 0 1 0 1 -1 2 -2 2 1 0 0 1 -1 2 -1
2 1 4 1 4 3 2 3 3 3 4 3 5 0 1 0 1 1 0 2 0 1 4 2 4 0 2 0 2 3 2 4 1 0 3 1 3 2
0 3 0 1 2 0 1 1 0 2 0 3 2 3 1 0 2 0 3 0 0 0 1 1 0 2 0 0 1 1 2 4 1 5 1 2 0 2
0 0 1 -1 1 3 0 2 1 0 1 -1 2 -2 0 -2 0 -1 1 -1 2 0 -2 0 -1 -1 1 -1 0 1 1 2 1
0 1 0 1 -3 0 -3 0 -2 -1z m-16 -13 l0 -1 -4 -2 -4 -2 -1 0 0 0 4 2 4 3 0 0 1
0 0 0z m-25 -18 l0 -1 -3 0 -3 -1 0 1 0 1 2 0 2 1 1 0 2 0 -1 -1z m-192 -194
l-1 0 1 -2 0 -1 -1 1 -1 1 0 1 1 1 1 0 2 0 -2 -1z m-22 -44 l-3 -5 -1 0 0 0 0
1 0 2 2 3 2 3 2 0 1 0 -3 -4z m4 -12 l-1 -2 2 -3 1 -3 -1 -2 -2 -2 1 0 0 -1 2
2 2 3 -1 -3 -1 -3 1 1 1 1 1 0 1 0 -2 -2 -1 -2 1 0 2 1 0 -1 0 -2 -1 -1 -1 0
0 1 1 1 -1 0 -1 0 1 -3 0 -3 -1 1 -1 0 1 -1 1 -2 -2 -2 -1 -2 0 1 0 1 -1 0 -1
0 -1 -3 -1 -2 -1 1 -1 0 0 3 1 3 -1 -2 0 -1 -3 3 -2 2 1 2 1 2 0 2 0 3 1 -1 1
0 0 1 0 1 0 2 1 2 1 1 0 1 -1 0 -2 -1 0 2 0 3 1 -2 0 -1 1 0 1 0 0 2 0 2 2 1
1 1 0 2 0 1 1 0 1 0 -1 -3z m-12 -78 l0 -2 -1 1 -1 1 1 1 0 1 1 0 0 0 0 -2z
m58 -29 l0 -1 -1 0 -1 0 1 1 0 1 1 0 0 0 0 -1z m28 -20 l0 -1 -1 0 -2 0 1 1 0
1 1 0 0 0 1 -1z m-57 -3 l2 -1 -2 1 -2 1 0 1 0 0 0 0 1 0 1 -2z m4 -4 l1 -1
-1 1 -2 0 0 1 0 1 0 0 1 0 1 -2z m4 -4 l1 -1 -1 1 -2 1 0 1 0 0 1 0 1 0 0 -2z"/>
<path d="M265 604 l0 -1 1 0 1 0 0 1 1 1 -2 0 -1 0 0 -1z"/>
<path d="M540 897 l-4 -2 -1 -2 0 -1 0 -1 1 0 3 2 4 3 2 0 2 1 1 1 0 1 -2 0
-1 0 -5 -2z"/>
<path d="M656 872 l-1 -2 2 0 2 0 0 2 0 1 -1 0 -2 0 0 -1z"/>
<path d="M655 868 l0 -1 1 0 1 -1 -2 -2 -2 -2 -3 2 -2 1 -1 -2 -1 -1 -1 -1 0
-1 0 -2 0 -1 -4 -4 -4 -4 -1 -3 0 -2 -2 -3 -2 -2 -2 0 -2 0 -2 -1 -1 -1 -5 -2
-5 -2 -3 0 -3 -1 -3 -3 -2 -2 0 -2 1 -1 -3 -1 -3 -1 0 -1 0 -1 -1 0 -2 0 0 1
-1 1 -2 -2 -3 -2 1 -2 0 -2 -1 0 -1 0 -3 -2 -2 -2 -1 1 -1 1 -2 0 -2 0 0 2 -1
2 -2 0 -2 -1 -1 0 0 -1 -2 1 -1 0 -1 -2 0 -2 -1 1 -1 0 1 -1 0 -2 -2 0 -2 0
-3 -5 -3 -5 -4 -4 -4 -3 0 -2 0 -1 -2 0 -3 0 -3 -3 -4 -2 -4 -6 -4 -5 -2 0 -1
1 0 -2 0 -1 -2 0 -3 1 0 -2 -1 -2 -1 1 -1 2 -1 -2 0 -1 -4 1 -4 0 0 -1 0 -1
-1 1 -2 0 -1 -1 -1 -2 0 -1 1 -2 -2 -4 -1 -4 -1 -2 -1 -2 0 -1 1 -1 -2 -1 -2
-1 1 -1 0 -1 -3 -3 -2 -4 -6 -4 -5 -5 -3 -1 -3 -1 0 1 0 2 3 2 2 2 3 1 3 0 0
1 0 1 -1 0 -1 0 1 1 0 1 -1 0 -2 0 -6 -2 -6 -1 -3 -3 -2 -3 -1 -1 0 -1 0 -2 0
-1 -1 1 -1 2 0 -2 0 -2 -2 0 -1 -1 -1 0 -1 0 0 1 0 2 -4 2 -5 2 -2 -1 -3 -1
-1 3 -1 3 -1 0 -1 -1 0 -1 0 -1 -3 -2 -3 -2 -2 -4 -1 -4 -1 -7 0 -6 -1 0 -2 0
-2 -2 -1 -2 0 -2 0 -2 -1 0 -1 0 0 -2 0 -1 1 -2 2 -1 1 0 2 0 0 -2 0 -1 0 -1
0 -1 3 -3 2 -2 2 0 3 1 -1 1 0 2 2 1 1 2 -1 0 -1 1 1 2 1 2 2 0 2 0 1 -1 2 -1
-2 0 -2 1 1 -2 0 -1 -5 -10 -5 -10 -3 -5 -3 -5 0 -2 1 -2 -8 -9 -8 -8 -2 -3
-1 -2 -2 -1 -1 0 -4 -3 -3 -3 -2 0 -2 1 -1 -2 -2 -1 0 -1 1 -1 4 0 5 0 1 1 2
2 1 -1 1 0 0 1 0 1 1 0 1 0 1 0 1 0 3 3 4 4 1 3 2 3 3 5 3 6 4 2 3 3 1 -1 1
-1 2 0 1 0 0 3 0 3 2 1 1 2 1 0 2 0 1 1 1 2 0 6 1 7 1 3 1 4 3 3 2 3 1 -2 1
-1 1 -1 2 -1 2 0 2 0 1 2 1 2 2 0 2 0 0 1 0 1 2 0 1 0 0 -1 0 -1 1 0 2 0 1 1
2 2 7 1 8 0 2 1 2 1 1 -2 0 -1 1 0 2 0 1 2 2 1 -2 0 -1 -1 1 2 2 2 5 2 5 1 0
1 0 1 5 1 6 1 1 -1 2 0 0 -2 -1 -1 2 -1 2 -1 1 1 0 1 0 -2 -1 -2 1 0 2 0 0 -1
1 -1 2 0 2 0 5 0 5 0 3 3 3 2 -2 1 -1 0 1 1 0 1 2 -1 1 0 0 1 0 2 2 -1 2 0 0
1 -1 1 3 -1 4 0 1 1 1 1 0 3 0 2 -2 1 -2 0 0 1 0 1 -1 -1 -2 0 0 1 0 1 1 0 2
0 1 0 1 1 2 1 3 1 2 0 3 0 1 2 1 2 2 0 3 1 1 -1 0 -1 2 0 2 0 3 3 4 4 6 2 6 2
2 -1 2 0 4 2 5 2 2 2 2 3 1 0 1 0 4 4 3 3 2 0 3 0 1 0 2 0 0 1 1 2 -2 0 -1 0
0 1 0 1 -2 0 -3 0 0 -1 0 -1 -3 -1 -2 -1 -3 0 -2 -1 -1 1 0 1 -3 -1 -3 -1 0
-1 0 -1 -1 0 -2 0 -1 -2 -2 -2 0 1 -1 0 -1 -1 -2 -1 -1 1 -2 0 0 1 0 1 2 0 1
0 1 2 0 2 4 4 4 4 0 3 0 3 6 1 6 1 1 1 1 2 0 0 0 1 -2 0 -1 0 -4 3 -3 3 0 1
-1 2 2 1 1 1 0 2 -1 1 1 1 2 1 3 0 4 1 1 0 0 1 1 3 0 3 -3 0 -2 0 -1 -3 -1 -2
-2 0 -1 0 -1 -1 -1 -2 -1 1 -1 0 0 2 0 1 3 3 2 4 -2 1 -2 1 -1 0 -1 -1 -1 -3
0 -3 -2 -2 -1 -1 1 -2 1 -1 -1 0 -1 0 0 1 0 1 -2 0 -1 0 2 2 2 2 1 3 1 3 -2
-1 -2 -1 0 1 0 0 -2 -1 -2 -1 1 -2 0 -3 -1 -2 -1 -3 -1 0 -2 0 0 -1 0 -1 -2
-3 -1 -2 -2 0 -2 -1 -1 1 -1 1 -2 0 -1 1 -2 0 -1 0 1 1 0 2 3 0 2 1 0 2 0 3 3
1 3 2 0 1 1 2 2 0 3 0 0 3 0 3 -1 0 0 1 -2 -1 -1 -1 -1 0 -1 1 1 1 2 2 -2 0
-1 1 0 1 0 1 3 0 3 -1 1 2 2 2 -2 -2 -2 -1 0 2 0 2 3 0 2 0 0 -1 0 -1 1 0 2 0
-1 1 0 1 1 0 1 -1 0 1 1 1 1 -1 2 0 0 1 1 1 6 0 6 0 1 2 1 2 0 3 0 4 -1 1 -1
0 1 2 2 2 2 4 2 4 1 0 1 0 0 1 0 2 3 4 4 5 1 0 1 0 0 1 -1 1 2 -1 2 -1 3 1 2
0 1 2 1 2 0 2 -1 2 -1 1 0 2 1 1 1 1 -3 3 -4 4 -1 0 0 0 0 -1z m-12 -25 l0 -3
-1 0 -1 0 0 0 0 1 1 3 1 2 0 0 1 0 -1 -3z m-33 -21 l0 -1 -1 0 -1 1 0 -1 -1
-1 0 0 -1 1 0 1 1 1 2 0 1 0 0 -1z m-17 -44 l1 -1 0 0 0 0 -4 -2 -3 -2 0 1 0
1 2 2 1 2 1 0 1 0 1 -1z m-6 -7 l-2 -1 0 -2 0 -2 -1 -1 -1 0 0 1 1 1 -1 0 -1
0 2 2 2 3 1 0 2 0 -2 -1z m-68 -21 l0 -1 -1 0 -1 -1 0 1 0 1 1 0 1 0 0 0z m-9
-3 l-1 -2 -1 1 0 0 0 1 1 2 2 0 1 0 -2 -2z m95 -3 l0 -1 -1 0 -1 0 0 1 0 2 1
-1 1 0 0 -1z m-5 -5 l-2 -3 -1 -1 -1 0 1 2 0 2 0 1 0 1 2 0 3 1 0 0 0 0 -2 -3z
m-127 -13 l0 -1 -3 -1 -3 -1 -1 0 0 1 2 1 2 2 0 -1 0 -1 1 1 1 0 -1 1 0 1 1 0
1 -1 0 -1z"/>
<path d="M622 808 l-1 -1 1 -1 0 -1 1 1 1 0 0 2 0 1 -1 0 -1 0 0 -1z"/>
<path d="M326 762 l0 -1 2 0 1 0 0 1 -1 1 -1 0 -1 0 0 -1z"/>
<path d="M324 759 l0 -1 1 0 1 0 0 1 0 1 -1 0 -1 0 0 -1z"/>
<path d="M590 717 l-2 -1 -3 1 -3 1 -1 -2 -2 -2 1 -2 1 -1 2 1 1 0 0 -1 -1 -1
2 1 1 0 -1 1 -1 1 2 1 2 1 1 -2 0 -1 -1 -3 -2 -4 -5 -3 -5 -3 -1 0 -1 0 -3 -1
-2 -2 -2 -3 -2 -4 -2 0 -2 0 -2 -2 -2 -2 0 1 0 1 -2 0 -1 0 -3 -2 -3 -1 -1 0
-2 0 -6 -3 -5 -3 -3 1 -2 0 -1 -1 -1 -1 -6 -3 -6 -3 -1 0 0 0 0 2 1 2 -2 -3
-1 -2 -2 0 -2 0 1 2 1 1 -1 0 -1 0 -1 -1 -1 -2 -1 0 -1 0 1 1 2 1 -2 0 -2 0
-4 -2 -3 -2 -1 -2 -1 -2 -4 -2 -4 -3 0 1 -1 0 -5 -5 -5 -4 0 -2 0 -1 -2 0 -3
0 -1 -2 -1 -2 0 -2 -1 -2 -2 -4 -1 -4 -1 -4 0 -3 -1 -3 -2 -3 -3 -12 -3 -12 0
-10 0 -10 -2 0 -2 -1 0 -3 0 -4 2 -7 3 -7 0 -1 0 0 2 0 2 -1 3 -6 3 -6 8 -13
7 -13 4 -5 3 -4 4 -2 4 -2 2 0 2 0 4 -1 4 -1 0 -1 1 -1 0 1 0 1 4 -2 4 -2 3
-1 3 -1 1 1 0 1 2 -1 1 0 0 -2 0 -1 1 1 1 1 2 -2 3 -3 -1 0 0 -1 2 -2 2 -2 1
1 1 1 1 -2 2 -2 5 -3 5 -3 0 -3 0 -3 1 1 0 1 3 -1 3 0 4 -4 5 -3 3 0 2 1 6 -3
6 -3 2 -2 1 -2 5 -9 5 -9 0 -6 0 -6 2 -1 1 -1 1 1 1 1 1 -1 2 -1 -1 0 -1 -1 0
-3 0 -3 -2 -2 -2 -3 -3 -3 -2 -2 0 -1 0 -2 -1 0 -1 0 -1 -1 -2 -1 -4 -7 -5 -6
-2 -2 -2 -1 2 0 3 0 -3 -2 -3 -1 -5 -2 -4 -1 -3 1 -2 0 0 -1 0 -1 4 0 4 0 5 1
5 2 2 1 1 1 0 -1 0 0 2 1 2 2 1 0 1 -1 0 1 0 1 2 0 2 1 -1 -2 0 -2 -1 -2 -1
-1 -4 -2 -4 -2 -5 -2 -5 -2 -1 1 0 1 -2 -2 -1 -1 0 1 0 1 -2 -1 -2 0 -3 -2 -3
-2 -7 1 -7 1 -1 1 0 1 -4 1 -3 0 -1 0 -1 1 -4 0 -4 1 -2 1 -2 1 -1 0 -1 1 -1
0 0 1 4 0 4 -1 1 -1 2 0 0 1 -1 1 1 0 1 0 1 -1 0 -1 4 1 4 0 0 1 0 0 -1 1 -1
1 -11 -1 -10 0 -4 2 -4 2 -1 -1 -1 -1 0 1 1 2 -2 1 -1 0 -3 2 -3 1 0 -1 0 0
-2 1 -2 2 -4 0 -3 0 -1 -1 0 -1 -1 1 -1 0 -2 -2 -1 -1 -4 0 -3 1 -2 0 -2 1 -2
1 -1 1 -2 0 -2 -1 1 1 0 2 -5 1 -4 1 0 1 0 2 -1 0 -2 0 0 1 0 1 -3 0 -4 0 0
-1 0 -1 -5 0 -5 0 -1 1 0 1 2 0 3 0 -2 1 -2 1 -1 1 -1 1 0 -1 -1 -2 -2 0 -2 0
0 1 0 1 1 0 1 1 0 1 -1 1 -2 -1 -1 0 0 -2 1 -1 -1 -1 -1 0 -1 1 -1 0 1 1 2 1
-2 0 -2 0 0 -1 0 0 -3 -1 -3 0 -3 0 -2 0 -1 1 -1 1 -2 1 -3 1 -4 -2 -4 -2 -4
-1 -4 0 -1 -2 -1 -1 -3 1 -3 0 -5 -3 -5 -4 -1 0 -2 0 -1 -1 -1 -1 -3 0 -4 -1
-2 -1 -2 -1 -1 -3 -1 -2 2 -2 2 -3 -7 -8 -7 -8 -7 -7 -7 -7 -2 1 -2 1 -2 -3
-2 -3 0 -2 0 -2 -4 -8 -4 -8 -1 -4 -1 -4 -1 -4 -1 -4 1 -8 0 -9 1 -1 1 -2 0
-3 0 -3 -2 0 -2 0 1 -3 0 -3 0 -5 0 -4 1 -1 1 0 6 -9 5 -8 -1 -1 0 -1 1 -5 2
-6 2 -2 2 -1 0 -1 0 -2 10 -9 10 -10 3 0 3 1 -1 3 0 4 5 -2 4 -1 3 -3 2 -2 1
0 0 0 2 -2 2 -2 3 0 3 0 0 -1 0 -2 1 0 1 -1 -1 1 0 2 1 0 2 0 1 0 2 0 0 -1 1
-1 5 -2 5 -3 0 2 0 1 4 0 4 -1 0 1 0 2 1 -4 1 -3 2 0 2 0 0 1 1 1 -1 0 -1 1 0
1 0 1 2 -1 1 -1 0 -2 0 -2 -1 1 -1 0 0 -1 1 -1 1 0 1 1 3 -2 4 -2 2 0 3 -1 -2
1 -2 2 -1 -1 -1 0 -1 2 -1 2 1 1 0 2 0 0 1 0 3 -1 3 -1 -1 -3 0 -3 1 0 2 0 -2
-1 -2 -1 2 -2 3 -1 0 0 1 0 0 -1 -1 -2 3 1 3 1 -1 1 0 1 1 0 2 0 0 1 0 1 2 0
2 0 1 -1 1 -1 3 -1 3 0 5 -2 5 -2 0 0 -1 -1 4 0 4 0 2 -1 2 -1 6 0 6 0 0 -1 1
-1 3 1 4 0 -2 -1 -1 0 0 -1 0 -1 2 1 2 1 8 0 9 0 1 0 1 1 0 -1 0 -2 0 0 1 1 0
1 1 1 1 1 2 0 1 -1 0 -2 2 0 2 0 -2 1 -1 0 1 2 1 1 3 0 3 0 0 1 1 0 4 1 3 0 3
1 2 2 7 -1 8 -2 3 0 3 0 12 0 12 1 -1 -1 0 -1 -1 0 -1 0 -4 -2 -4 -2 -11 -4
-10 -4 -5 0 -5 -1 0 -1 0 -1 -3 -1 -3 0 1 -1 2 -1 -2 -2 -2 -1 3 1 4 0 1 1 1
1 1 0 2 -1 1 1 0 1 -1 0 -1 -1 0 1 0 1 -1 -1 -2 0 0 1 0 1 4 1 5 1 2 1 3 0 0
-1 -1 -1 7 3 7 3 2 1 2 1 5 2 6 3 3 1 3 0 0 2 1 1 1 -1 1 0 2 1 1 1 0 0 0 -1
2 2 1 1 2 0 3 -1 2 1 2 1 -3 0 -2 0 3 1 4 1 9 5 10 5 0 -1 1 0 0 1 0 1 1 0 1
-1 4 4 4 4 4 3 3 3 0 -1 1 0 7 7 7 7 4 2 5 2 11 12 12 11 0 1 -1 1 1 0 1 0 4
7 4 7 1 0 1 1 4 9 5 10 1 -1 1 -1 1 3 1 2 0 2 0 2 1 0 0 -1 3 3 2 3 0 1 0 1 1
0 1 -1 1 2 2 1 -2 0 -1 -1 0 1 0 1 2 0 1 0 0 1 -1 2 1 1 2 1 2 5 2 6 1 0 1 1
-1 1 -1 2 0 -2 0 -2 -1 -1 -2 -1 1 -1 0 -1 -2 -3 -1 -3 -3 -4 -3 -4 -1 0 0 1
1 3 1 4 1 0 1 -1 0 3 1 3 2 3 2 3 0 4 0 4 2 6 2 6 1 0 1 0 0 2 1 3 -1 -1 -1 0
0 10 0 10 -1 11 -1 12 -2 4 -2 5 0 8 -1 8 -3 7 -4 7 -1 4 -1 5 -3 2 -2 2 -1 2
-1 3 2 -1 1 0 0 1 0 0 -1 1 -2 2 0 3 -1 4 -2 5 -2 5 -1 2 -1 2 -7 8 -6 7 -3 5
-3 5 -4 2 -4 1 0 1 0 1 -3 2 -3 1 0 -1 1 -1 -1 0 -1 0 -4 2 -4 2 -2 -1 -1 -1
-1 1 -1 1 1 -1 2 0 0 1 -1 1 -3 2 -3 1 1 -2 0 -1 2 0 1 1 -1 -2 -1 -2 -2 1 -2
0 3 -3 3 -4 3 -1 4 0 0 0 1 0 0 -1 0 -1 1 0 2 0 2 -2 2 -3 1 0 1 0 0 -1 -1 -1
1 0 2 0 0 -2 1 -2 1 0 1 1 -1 -2 0 -3 5 -5 5 -4 2 -5 3 -5 1 0 1 0 2 -3 1 -4
0 -1 0 0 -1 1 -1 0 1 -3 0 -2 1 -3 1 -2 -4 -5 -4 -4 0 -2 0 -1 1 -2 2 -3 0 -5
0 -6 3 -2 2 -2 0 -2 0 -1 1 0 1 0 1 3 0 3 1 0 1 0 1 -2 0 -2 0 -17 0 -16 -1
-3 -1 -2 -2 0 -1 1 0 -2 0 -1 1 1 1 0 0 -1 -1 -1 -2 1 -2 0 0 -2 0 -1 -1 -3 0
-2 -1 -2 -1 -1 0 -1 1 0 -2 -3 -1 -3 0 2 1 2 -1 0 -1 -1 0 -4 -1 -4 -2 -1 -1
-1 1 1 0 2 -1 0 -1 0 -1 -2 0 -2 -2 -1 -1 0 2 3 2 4 0 1 1 2 0 0 -1 0 -4 -7
-5 -8 -1 0 0 0 2 3 1 3 0 1 -1 0 0 -1 0 -1 -3 -4 -4 -4 0 0 0 -1 2 1 1 1 1 0
0 -1 -2 -2 -3 -2 0 1 -1 0 1 -1 0 -2 -1 0 -2 1 -3 -3 -2 -4 -5 -2 -5 -2 -1 -3
-1 -2 -6 -7 -5 -6 -3 -1 -3 -2 0 -2 0 -1 -2 0 -1 -1 -1 1 -1 0 -1 -1 0 -1 1 0
1 1 0 -1 -1 -1 -1 1 -1 0 -3 -2 -3 -1 0 -2 1 -1 -1 0 0 0 -4 -2 -3 -1 -2 -2
-2 -2 -1 0 0 0 0 -1 0 -1 -3 -1 -2 -1 -4 -2 -4 -2 -3 0 -2 -1 -11 -3 -10 -3
-6 -1 -6 0 0 -1 0 -1 -1 1 -1 1 -1 -1 -1 -1 -1 0 -1 0 0 1 1 1 -8 0 -7 1 -10
0 -10 0 0 -1 1 0 -5 0 -5 0 -1 1 -1 1 -2 0 -2 0 -9 3 -9 3 -7 2 -7 3 -3 0 -2
0 -3 1 -2 2 -3 -1 -2 0 -9 3 -8 3 -3 2 -3 2 0 0 0 0 0 0 0 0 -5 5 -4 5 0 1 0
1 2 2 2 2 -1 3 -1 3 -3 1 -3 1 -1 3 0 2 1 3 1 3 0 0 1 0 1 1 2 1 4 0 4 0 1 0
1 0 0 4 1 5 1 1 2 1 2 0 3 0 -3 -1 -2 -1 0 -1 -1 -1 1 0 1 0 -1 -5 0 -4 -1 -6
0 -5 2 1 2 0 0 2 -1 1 2 -1 1 -1 1 1 1 2 0 1 0 1 1 0 1 1 -1 1 -2 2 2 1 1 1 3
0 3 1 -1 0 0 1 2 0 2 1 5 0 6 0 0 1 1 1 2 -1 1 -1 1 0 1 0 1 -1 2 0 4 -4 4 -4
5 -2 6 -1 3 -1 4 -1 4 2 4 2 5 0 5 -1 2 -1 3 0 2 0 2 -1 1 1 1 1 3 1 3 1 0 -1
1 0 5 -1 4 0 5 1 4 1 0 2 0 1 1 0 0 -1 2 1 2 2 5 0 6 1 2 1 2 1 -8 -1 -8 0 0
1 0 1 3 1 4 1 2 1 2 1 8 3 8 4 5 1 6 2 -2 0 -1 0 2 2 1 2 2 0 1 -1 0 1 0 1 5
3 5 4 6 5 5 5 1 2 1 2 2 3 3 4 2 2 1 2 1 0 1 0 0 -3 1 -2 1 1 1 0 0 -2 -1 -1
2 1 2 2 2 5 1 4 -1 2 -2 1 0 2 0 2 -1 -1 -1 0 0 1 0 1 1 2 2 2 1 3 1 4 -1 0
-1 0 0 -1 -1 0 1 1 0 2 1 3 1 4 0 1 -1 0 -1 -3 0 -2 -2 -3 -1 -3 -1 2 -1 3 0
-3 0 -2 -1 -1 -2 -1 0 2 0 2 0 8 -1 8 0 4 -1 4 2 -5 3 -5 0 1 1 0 0 -1 0 -1
-1 0 -1 0 1 -3 0 -2 1 0 0 1 1 3 0 4 -1 0 -1 0 1 1 1 1 0 1 0 1 -1 -1 -2 0 -1
5 -1 5 -2 3 -2 4 0 2 0 2 3 1 2 2 1 -1 1 0 0 1 0 2 1 0 2 0 -2 1 -1 1 1 0 1 1
2 -3 2 -3 0 -7 0 -7 2 0 1 0 0 2 0 3 -1 -2 -1 -1 0 1 0 2 1 0 2 -1 -1 -5 0 -5
1 1 1 1 0 -2 1 -1 1 -5 0 -5 1 2 1 3 -1 5 0 5 0 6 0 7 -2 -1 -1 0 0 2 -1 3 0
1 0 1 -1 1 -1 2 0 2 0 3 0 0 0 1 2 -2 2 -2 1 -4 0 -4 1 -1 1 0 0 -2 0 -1 1 0
1 0 0 3 0 3 -1 5 -2 6 -3 5 -3 6 -2 0 -1 1 0 2 0 1 -2 6 -2 6 -2 4 -1 4 -1 -1
-1 -1 -4 4 -4 4 0 1 0 1 -2 0 -1 1 1 -2 1 -2 0 -1 -1 0 -1 2 -1 3 1 1 0 1 -1
0 -1 -1 0 1 0 2 -2 1 -2 2 -2 2 -1 3 -2 2 -3 3 -2 3 -2 4 0 2 0 2 -4 1 -4 1
-3 3 -3 3 1 2 1 1 -5 5 -4 4 -6 2 -5 3 -7 3 -7 2 -5 2 -4 2 -1 3 -2 3 -1 0 -2
0 0 1 -1 2 -3 0 -3 1 -2 2 -1 2 -2 0 -1 0 0 -1 0 -1 1 0 1 0 4 -3 3 -2 -1 -1
-2 -1 -5 2 -4 1 0 1 0 1 -2 2 -2 3 -5 5 -5 5 -4 5 -5 5 0 1 0 2 -1 2 -2 3 -1
0 -1 0 0 2 0 1 -1 0 -1 0 1 2 0 1 -1 0 -1 0 0 3 1 3 2 2 2 2 1 2 1 3 -1 1 0 1
2 1 3 1 0 4 0 4 1 1 1 0 0 2 0 2 2 2 2 1 0 2 0 1 2 1 1 0 0 2 0 2 2 2 2 2 1
-1 2 -1 0 2 1 2 4 2 4 2 3 0 4 1 0 1 0 1 2 0 2 0 0 1 0 1 -1 1 -1 0 1 1 0 1 2
0 3 0 3 1 4 0 2 1 2 0 1 1 2 2 3 2 4 2 3 1 2 2 -1 2 0 2 1 0 1 0 -1 -1 0 -1 1
1 2 1 0 1 0 0 -1 0 0 -1 -2 1 -1 2 1 1 1 1 1 0 1 -1 0 1 1 1 2 0 2 0 3 3 3 3
4 3 4 4 0 2 0 3 -1 1 0 2 -1 0 0 0 -3 -2z m-52 -39 l0 -2 -2 0 -1 -1 -1 1 0 0
1 2 2 1 1 0 0 0 0 -1z m-29 -10 l0 -1 -1 0 -1 0 1 1 0 1 1 0 0 0 0 -1z m-9
-62 l-1 -1 1 0 1 1 1 -2 1 -1 1 -2 0 -2 1 -1 2 -1 2 -5 1 -5 1 -2 1 -1 -2 1
-2 2 0 2 0 1 -1 0 -1 0 -2 4 -1 4 -1 -2 -1 -1 0 1 0 2 0 0 0 1 -2 0 -1 0 1 1
1 1 -1 2 -1 3 0 1 0 1 1 0 1 0 0 -2z m-33 -55 l2 -2 1 -3 0 -2 -2 1 -1 2 -2 3
-1 3 0 0 0 1 1 0 1 0 1 -3z m6 -9 l0 -1 0 -1 -1 0 -1 1 -1 2 1 0 1 0 1 -1z m4
-7 l2 -2 2 -3 2 -3 -1 -1 0 -2 1 -2 2 -3 0 1 1 0 0 -2 0 -2 -2 1 -2 1 0 1 0 1
-4 4 -4 4 -1 3 -1 4 1 1 0 1 1 0 1 0 2 -2z m120 -3 l1 -2 0 0 -1 0 -1 2 -2 2
0 0 1 0 2 -2z m-89 -22 l2 -1 -3 1 -2 1 -1 1 0 0 1 0 1 0 2 -2z m6 -2 l0 -1 0
-1 -1 0 -1 1 -1 2 1 0 1 0 1 -1z m-3 -2 l0 -1 1 0 2 0 3 -3 2 -2 0 0 0 -1 -6
4 -5 3 0 1 0 1 2 -1 1 0 0 -1z m154 -4 l2 -1 -1 0 -1 0 -2 1 -1 1 1 0 1 0 1
-1z m-150 -2 l0 -1 -2 0 -2 0 0 1 -1 1 2 0 2 0 1 -1z m148 -1 l0 -1 -1 0 -1 0
0 1 -1 1 1 0 1 0 1 -1z m-50 -9 l1 -2 -3 0 -2 -1 -1 2 0 1 -1 -1 -2 -1 0 1 -1
0 0 1 0 1 2 0 2 -1 1 0 0 -1 1 0 1 0 -1 2 0 1 1 0 1 0 1 -2z m-3 -5 l0 -1 -1
0 -1 0 0 1 0 1 1 0 1 0 0 -1z m10 -4 l4 -4 -1 -1 0 -1 -2 1 -2 2 -2 0 -1 0 1
1 2 1 -3 2 -2 1 0 2 0 1 1 0 2 0 3 -5z m66 0 l0 -1 -3 0 -2 0 1 1 0 1 2 0 2 0
0 -1z m-43 -11 l2 -2 -3 1 -2 2 0 -1 -1 0 0 1 1 1 -1 0 -1 0 0 4 0 4 1 -4 2
-4 2 -2z m-21 3 l1 -1 -1 1 -2 0 0 1 0 1 0 0 1 0 1 -2z m4 1 l0 -2 0 0 -1 0 0
2 -1 1 1 0 1 0 0 -1z m3 -2 l0 -1 -1 1 -1 0 1 1 0 1 1 0 0 0 0 -2z m72 -9 l0
-1 -1 0 -1 0 0 1 0 1 1 0 1 0 0 -1z m-100 -23 l2 -4 0 -4 0 -4 -2 2 -1 3 0 2
0 3 -1 0 -2 0 -1 2 -1 3 1 0 2 1 -2 1 -2 1 0 2 0 2 3 -3 2 -3 2 -4z m47 -1
l-1 0 -1 0 -1 1 0 2 0 1 2 -1 1 -2 0 -1z m-44 -14 l-1 -1 0 1 0 2 1 0 0 -1 0
-1z m22 -9 l0 -2 -1 0 -1 -1 0 1 -1 2 1 0 0 1 1 0 1 0 0 -1z m-1 -7 l-1 -1 0
1 0 2 1 0 0 -1 0 -1z m-19 -5 l1 0 0 -2 -1 -1 0 -2 -1 -2 -1 1 -2 0 -1 -3 -1
-2 -1 1 -1 0 2 2 2 3 1 0 2 1 0 1 0 2 -1 -2 0 -1 -1 0 -1 0 0 2 -1 1 1 -1 1 0
1 2 0 1 1 -1 0 -1 1 1z m-6 -5 l0 -1 -1 0 0 1 0 1 1 1 1 0 0 0 -1 -2z m3 -5
l0 -1 -1 -2 0 -1 2 1 1 2 1 0 1 -1 -2 -1 -1 0 0 -1 0 -2 -1 0 -1 -1 -1 3 0 2
1 2 1 2 1 0 0 -1 -1 -1z m5 2 l0 -1 -1 0 -1 -1 0 1 0 1 1 0 1 0 0 0z m-1 -8
l-1 -2 0 -1 0 -1 -1 0 -1 1 1 2 0 2 1 1 1 1 1 0 0 -1 -1 -2z m-10 -2 l0 -1 -1
0 -1 0 0 2 0 2 1 0 0 1 1 -1 1 -2 -1 -1z m17 -1 l0 -2 0 -2 0 -1 -1 1 -1 0 -1
-2 -1 -1 -1 0 -1 0 2 2 3 3 -1 0 0 1 1 2 1 2 1 0 0 0 -1 -3z m-29 0 l0 -1 -2
0 -2 -1 1 2 2 1 1 0 0 0 0 -1z m-85 -5 l3 -2 0 -1 0 -1 -2 -1 -1 0 -4 1 -4 2
-2 -1 -1 0 1 1 0 2 -1 0 -1 0 0 1 0 1 4 0 5 0 3 -2z m125 -4 l-2 -3 0 0 0 1
-2 -1 -2 -2 0 2 0 2 2 0 1 -1 2 4 1 4 1 -2 0 -1 -1 -3z m-7 -7 l1 -1 -1 1 -2
1 -1 -1 0 0 0 1 1 1 1 0 1 0 0 -2z m83 -5 l0 -1 -1 0 -1 0 0 2 0 3 1 -2 1 -1
0 -1z m-147 2 l0 -1 -1 0 -1 -1 0 1 0 1 1 0 1 0 0 0z m-191 -9 l-2 -3 -1 1 0
0 0 2 1 3 2 0 2 0 -2 -3z m334 -4 l0 -3 -1 1 -1 0 0 -2 1 -2 -2 0 -1 0 1 1 2
1 -2 0 -1 0 2 3 2 3 1 0 0 0 -1 -2z m-95 -1 l0 0 -4 -2 -3 -2 -3 -1 -3 0 1 1
2 2 2 0 2 0 3 1 3 2 0 0 0 0 0 -1z m-204 -3 l0 -1 -1 0 -1 0 -2 -1 -1 0 1 1 1
2 2 0 1 0 0 -1z m-8 -2 l0 -1 -1 0 -1 -1 0 1 0 1 1 0 1 0 0 0z m8 -1 l-1 -1 1
0 1 0 1 1 0 1 3 0 3 0 -3 -2 -3 -3 -1 -1 0 -2 2 2 2 1 2 0 1 0 2 -1 1 -2 -5
-5 -5 -5 -1 0 -1 1 -1 -2 -2 -2 -1 2 -2 1 0 3 1 2 -1 0 -1 -1 1 4 0 3 1 2 1 1
-1 0 0 1 2 1 1 2 0 -2 -1 -1 1 0 1 0 0 2 1 1 1 0 0 0 0 -1z m284 -6 l0 -2 -1
0 -1 0 1 2 1 2 1 0 0 -1 -1 -1z m-233 -4 l-2 -1 -2 1 -1 0 2 1 3 1 0 -1 1 0
-1 -1z m-3 -3 l0 -1 -1 0 -2 0 0 1 -1 1 2 0 2 0 0 -1z m231 -5 l-2 -1 0 -1 0
-1 -1 0 -2 0 -1 -2 -1 -1 0 -7 0 -6 -1 0 -1 0 0 -1 0 -2 -3 -2 -3 -2 -1 -4 -1
-3 -2 -1 -2 -2 -1 0 -1 1 -3 -1 -2 -2 -1 0 0 0 0 1 1 2 -1 -1 -2 0 -5 -6 -5
-6 2 1 3 2 0 -1 0 -1 1 2 1 2 1 0 1 0 -1 -1 -1 -2 1 0 0 -1 -4 -3 -4 -3 -1 0
-1 0 0 -2 0 -1 -3 -3 -2 -2 -1 -1 0 -1 -4 -1 -4 0 -1 1 -1 0 1 3 2 2 -2 -1 -1
0 3 2 3 1 4 4 4 4 1 0 1 -1 0 1 0 2 1 0 2 1 -2 1 -1 2 1 1 2 0 -1 2 0 1 1 0 2
-1 2 1 2 1 0 1 -1 1 1 -1 2 0 0 2 0 2 -1 0 -1 1 0 2 1 2 0 0 0 1 1 2 2 1 0 -1
1 0 2 -1 2 0 1 3 1 3 2 0 1 1 0 -1 0 -1 1 0 1 0 -1 2 0 3 1 3 2 3 7 7 7 7 1 0
2 1 0 -2 0 -2 -1 -2z m-347 0 l-2 -5 -1 -4 -2 -3 0 -1 -1 0 0 1 0 1 1 3 2 4 2
4 2 5 0 0 1 0 -2 -5z m125 2 l-1 -1 -1 0 -1 0 1 1 2 1 0 0 0 0 0 -1z m-10 -2
l1 -1 -1 0 -1 -1 0 1 0 2 0 0 1 0 0 -1z m-36 -2 l0 -2 -1 1 -1 0 0 1 0 1 1 0
1 0 0 -1z m-77 -1 l-1 -1 -1 -1 -1 0 1 1 0 2 1 0 1 0 0 -1z m-2 -4 l0 -1 -2
-1 -1 -1 1 1 0 2 1 0 1 0 0 0z m78 -2 l-1 -1 0 1 0 2 1 0 0 -1 0 -1z m309 -13
l-1 -3 -2 -2 -1 -1 -3 -7 -3 -7 0 -2 0 -1 -3 -5 -2 -5 0 0 -1 0 1 3 1 4 1 1 1
1 -1 0 -1 0 -1 -1 -1 -1 0 1 0 1 2 2 2 3 0 -2 -1 -2 1 1 1 0 0 2 -1 1 1 4 1 4
1 0 1 0 0 1 -1 1 1 3 2 4 3 3 2 3 1 0 1 0 -1 -4z m-312 1 l1 -1 0 -1 0 -1 -1
0 -2 0 -1 2 -1 2 1 0 2 0 1 -1z m7 -6 l0 -2 1 1 2 0 1 -2 2 -2 -2 0 -2 0 -1 1
-2 2 -1 3 0 3 1 -1 1 0 0 -3z m229 -8 l0 -1 -2 0 -1 -1 1 1 1 2 1 0 0 0 0 -1z
m-11 -2 l-1 -2 -1 0 -1 0 1 2 2 1 1 0 1 0 -2 -1z m3 -5 l-2 -2 -4 0 -3 0 2 2
2 1 3 1 4 2 0 -1 0 -1 -2 -2z m-14 -7 l-4 -2 2 1 3 0 2 2 3 1 0 1 1 1 1 0 2 0
-2 -1 -1 -1 1 0 2 0 -3 -2 -2 -2 -5 -2 -5 -1 -2 -1 -2 -2 -2 0 -2 -1 0 1 0 1
5 2 4 2 0 1 -1 1 3 2 3 1 1 2 1 1 1 -1 1 -1 -5 -3z m8 -3 l-1 -1 -1 0 -1 0 1
1 2 1 0 0 0 0 0 -1z m-296 -5 l0 -1 0 0 -1 0 0 1 -1 1 1 0 1 0 0 -1z m9 -3 l0
-1 2 -3 1 -3 1 0 1 0 0 -3 0 -3 -1 1 -1 0 -2 5 -2 5 -1 3 0 3 1 -1 2 -1 -1 -2z
m-6 -3 l0 -1 -1 1 -1 2 0 1 0 2 1 -2 1 -1 0 -2z m237 -2 l-1 0 -1 0 -1 1 2 0
3 0 -2 -1z m-51 -3 l3 -1 0 -1 0 -1 -3 0 -2 0 -3 0 -2 0 -2 0 -2 1 -1 0 -1 0
0 1 1 1 4 0 3 -1 -1 1 0 1 2 0 2 -1 2 0z m8 -2 l-1 0 -1 0 -1 1 1 0 2 0 0 -1z
m159 -4 l0 -1 -4 -4 -4 -3 1 1 1 1 0 3 0 2 1 0 2 0 1 2 1 2 1 -1 1 -1 -1 -1z
m-15 -20 l-3 -3 -2 0 -1 0 4 3 3 3 1 0 2 0 -4 -3z m-249 -37 l-1 0 -1 1 -2 0
1 2 0 1 2 -2 1 -1 0 -1z m37 3 l3 -1 1 -1 2 0 0 1 -1 1 1 -1 2 0 0 -1 -1 -1
-5 -1 -4 0 -2 1 -1 0 0 2 0 1 -1 0 -1 1 2 0 2 -1 3 0z m-6 -2 l-1 0 -1 0 -1 1
1 0 2 0 0 -1z m-7 -2 l1 -1 -1 1 -2 0 0 1 0 1 0 0 1 0 1 -2z m27 -1 l0 -1 -1
1 -2 1 1 1 0 1 1 -1 1 0 0 -2z m-20 -1 l4 -1 -3 0 -3 0 -1 1 -2 0 0 1 0 1 1
-1 1 0 3 -1z m25 1 l1 -1 -1 0 0 -1 -2 1 -2 0 0 1 0 1 2 0 2 0 0 -1z m-42 -3
l0 -2 2 0 2 -1 -2 0 -2 0 -1 2 -2 2 2 0 2 0 -1 -1z m-6 -1 l2 -1 1 0 2 -1 -1
-1 -1 -1 -1 1 0 1 -3 0 -2 1 -1 1 0 1 1 0 1 0 2 -1z m13 -4 l0 -1 -1 0 -2 0 0
1 -1 1 2 0 2 0 0 -1z"/>
<path d="M615 484 l0 -1 1 1 1 0 0 1 0 0 -1 0 -1 0 0 -1z"/>
<path d="M569 716 l0 -1 1 1 1 0 0 1 0 0 -1 0 -1 0 0 -1z"/>
<path d="M284 707 l-3 -3 -1 -3 -1 -2 0 -1 0 0 2 3 3 4 1 2 2 2 1 -1 1 0 -1
-1 0 -1 1 0 1 1 -1 2 0 2 -1 0 -1 0 -3 -4z"/>
<path d="M286 704 l0 -1 1 1 1 0 0 1 0 0 -1 0 -1 0 0 -1z"/>
<path d="M289 703 l-1 -1 1 -1 1 -1 0 3 0 2 0 0 -1 0 0 -2z"/>
<path d="M276 693 l-1 -2 -1 -5 -1 -4 -1 -2 0 -2 2 0 2 0 0 3 -1 3 1 0 1 0 -1
2 0 1 2 -1 2 0 -2 1 -1 1 0 2 -1 2 1 0 1 0 0 2 0 2 -1 0 0 0 -1 -3z"/>
<path d="M467 687 l-1 0 0 -1 0 -1 2 0 2 0 0 1 -1 1 -1 1 -1 0 0 -1z"/>
<path d="M274 664 l0 -1 0 -1 1 0 0 1 1 2 0 0 -1 0 -1 -1z"/>
<path d="M349 622 l0 -1 3 -3 3 -2 2 0 2 0 1 -2 2 -1 2 0 2 0 3 2 3 1 0 1 0 2
-1 0 -1 0 -7 1 -6 0 0 -1 0 -2 -1 0 -1 0 0 1 -1 1 1 1 1 0 -2 2 -2 1 -1 0 -1
0 -1 -1z"/>
<path d="M382 622 l0 -1 -1 1 -1 0 1 -1 1 -1 1 0 0 1 0 1 -1 2 0 -2z"/>
<path d="M637 531 l3 -3 0 -1 1 0 0 -1 -1 0 2 -2 2 -2 0 1 0 0 3 -2 2 -2 -1 2
-1 2 -1 0 -1 0 0 2 1 1 -1 0 0 0 -4 3 -3 3 -2 1 -2 1 3 -3z"/>
<path d="M615 522 l0 -1 3 -2 3 -2 -3 3 -3 3 -1 0 0 0 1 -1z"/>
<path d="M255 521 l-1 -1 2 -2 2 -1 -1 2 -1 3 -1 0 0 0 0 -1z"/>
<path d="M646 518 l0 0 4 -4 4 -4 1 1 1 1 -2 2 -1 2 -1 -1 -1 0 0 2 0 2 -1 -2
-1 -1 -1 1 -2 2 0 -1z"/>
<path d="M622 514 l2 -3 1 0 0 0 -2 3 -1 2 -1 0 -1 0 2 -2z"/>
<path d="M631 503 l0 -1 1 -3 2 -3 0 1 0 2 -1 2 -2 3 0 -1z"/>
<path d="M518 488 l0 -1 10 -11 11 -11 7 -5 7 -4 1 0 0 1 -5 4 -5 4 -2 1 -2 2
-5 3 -4 3 -6 7 -7 8 0 -1z"/>
<path d="M533 479 l-1 -1 1 -3 1 -2 1 0 1 0 1 1 1 1 -1 2 -2 3 0 0 -1 0 -1 -1z"/>
<path d="M632 441 l0 -1 1 0 1 0 0 1 0 1 -1 0 -1 0 0 -1z"/>
<path d="M643 430 l0 -2 1 1 0 1 0 1 -1 2 0 -3z"/>
<path d="M648 408 l0 -2 0 0 1 0 0 2 1 2 -1 0 -1 0 0 -2z"/>
<path d="M495 389 l0 -1 1 0 1 0 0 1 0 1 -1 0 -1 0 0 -1z"/>
<path d="M556 380 l1 -1 -1 0 -1 -1 1 0 2 0 -1 -1 0 -1 1 0 1 1 2 1 1 1 -1 1
-1 1 -3 0 -2 0 1 -1z"/>
<path d="M549 379 l1 0 1 0 0 1 -2 0 -1 0 1 -1z"/>
<path d="M547 377 l-1 -1 2 0 2 -1 1 1 2 1 -2 0 -3 1 -1 -1z"/>
<path d="M542 376 l1 0 1 0 0 1 -2 0 -1 0 1 -1z"/>
<path d="M695 376 l-1 -2 0 -1 0 0 1 1 1 2 0 -3 -1 -2 1 1 1 1 -1 2 -1 2 0 -1z"/>
<path d="M626 363 l-1 -1 1 1 2 1 0 1 0 0 0 0 -1 0 -1 -2z"/>
<path d="M684 353 l-2 -2 0 -3 -1 -2 2 3 2 4 1 2 1 1 0 0 -1 0 -2 -3z"/>
<path d="M600 340 l-7 -5 -2 0 -1 0 -1 -1 -1 -2 3 1 4 1 2 0 2 1 -1 0 0 1 4 2
4 3 1 1 1 2 0 0 0 0 -8 -4z"/>
<path d="M450 325 l-1 -2 2 0 1 0 0 2 0 1 0 0 -1 0 -1 -1z"/>
<path d="M314 246 l0 -1 1 0 1 0 0 1 0 1 -1 0 -1 0 0 -1z"/>
<path d="M386 195 l6 -7 1 0 0 0 -3 5 -4 4 -3 2 -2 2 5 -6z"/>
<path d="M406 193 l0 -1 2 0 1 -1 -1 1 0 1 -1 0 -1 0 0 0z"/>
<path d="M410 189 l-1 0 4 -4 3 -4 1 1 2 0 1 -1 1 -2 -1 1 -2 0 1 -1 0 -2 -1
0 -1 0 -1 1 0 1 -3 0 -2 1 0 -1 0 -2 2 1 2 0 -1 -1 0 -1 1 0 1 1 3 -2 3 -2 1
0 0 0 -2 2 -1 1 4 -1 4 0 -2 1 -2 2 1 0 2 -1 -1 1 0 1 -2 -1 -2 0 0 1 1 1 -2
1 -1 2 -4 1 -3 1 0 1 1 1 -2 1 -2 2 0 -1z"/>
<path d="M399 186 l0 -1 2 -1 2 -1 -2 1 -1 2 -1 0 0 0 0 0z"/>
<path d="M428 176 l0 -2 3 -2 3 -2 1 0 1 -1 -1 1 0 2 0 1 0 1 -4 2 -3 2 0 -2z
m6 -3 l0 0 -1 0 -1 0 -2 2 -1 1 2 -1 3 -1 0 -1z"/>
<path d="M534 176 l0 -1 2 1 1 0 0 1 0 0 -1 0 -2 0 0 -1z"/>
<path d="M437 172 l1 -2 2 0 2 -1 0 1 0 0 -3 2 -3 1 1 -1z"/>
<path d="M513 172 l0 -1 0 0 1 1 2 -1 2 -1 1 1 1 1 -3 0 -3 1 -1 -1z"/>
<path d="M522 171 l-1 -1 1 0 1 0 2 1 2 1 -3 0 -2 0 0 -1z"/>
<path d="M427 170 l2 -2 1 0 1 0 0 1 0 1 -1 1 -1 0 0 -1 0 -1 -1 1 -1 1 -1 0
-1 0 2 -1z"/>
<path d="M512 169 l1 0 1 0 2 1 -3 0 -2 0 1 -1z"/>
<path d="M420 167 l0 -2 1 0 1 0 0 2 0 1 -1 0 -1 0 0 -1z"/>
<path d="M432 167 l-1 -1 2 0 1 -1 1 0 0 1 -1 1 -2 1 0 -1z"/>
<path d="M478 166 l-1 -1 1 0 2 0 1 1 1 1 -1 0 -1 1 -2 -2z"/>
<path d="M444 163 l1 -1 1 0 0 1 -2 0 -1 1 1 -1z"/>
<path d="M523 159 l-3 -1 0 -1 1 0 4 2 5 2 -2 0 -1 0 -4 -2z"/>
<path d="M793 151 l-1 -1 0 -1 1 -2 -1 -4 -2 -5 1 -3 1 -2 0 2 1 3 2 0 2 1 3
-3 4 -2 3 0 4 1 0 -3 0 -3 2 0 1 -1 1 1 2 1 3 0 3 1 2 2 2 2 -3 -1 -2 -1 -2 0
-1 1 0 2 0 2 -1 0 -1 0 0 -3 0 -3 -2 0 -1 -1 -1 0 -1 0 0 2 0 1 1 2 1 2 0 1
-1 0 -2 -2 -2 -2 -3 0 -3 0 -2 3 -1 2 -4 0 -3 0 0 0 0 1 2 5 2 4 -1 1 0 1 -1
0 0 0 -2 -1z"/>
<path d="M484 146 l0 0 2 -1 3 0 0 1 0 1 -3 0 -3 0 1 -1z"/>
<path d="M492 146 l2 0 2 0 3 1 -5 0 -4 0 2 -1z"/>
<path d="M769 138 l-3 -3 -1 1 -1 1 -2 0 -1 0 -2 -4 -2 -4 -1 1 -1 2 0 4 0 5
-1 0 0 0 -2 -1 -1 -1 1 -1 0 -2 -4 -6 -4 -6 -1 0 -1 -1 1 0 2 1 3 5 4 6 1 -1
0 0 0 -4 1 -4 1 0 2 0 2 3 2 3 1 -2 1 -2 1 0 1 0 1 3 2 3 2 -2 1 -3 3 0 2 -1
3 1 2 1 2 0 2 -1 1 2 2 2 -2 -1 -2 0 0 1 -1 1 3 2 2 2 -1 0 -1 0 -2 -2 -1 -2
-2 -2 -2 -2 -1 1 -1 0 2 2 2 3 0 0 0 1 -2 0 -2 0 -2 -3 -1 -2 -1 0 0 0 -1 5 0
5 -3 -4z"/>
<path d="M905 136 l1 -3 2 1 1 0 0 1 0 1 -3 1 -2 1 -1 0 0 0 2 -2z"/>
<path d="M832 132 l1 0 1 0 0 1 -2 0 -1 0 1 -1z"/>
<path d="M725 123 l-4 -1 -3 -1 -3 -2 -1 -2 -2 -2 1 0 1 -1 2 3 3 2 3 2 3 1 8
0 9 0 -4 1 -4 1 -3 0 -2 0 -4 -1z"/>
</g>
</svg>
