<?xml version="1.0" standalone="no"?>
<!DOCTYPE svg PUBLIC "-//W3C//DTD SVG 20010904//EN"
 "http://www.w3.org/TR/2001/REC-SVG-20010904/DTD/svg10.dtd">
<svg style="fill: black; stroke: black;" version="1.0" xmlns="http://www.w3.org/2000/svg"
 width="646.166667pt" height="941.235998pt" viewBox="0 0 646.166667 941.235998"
 preserveAspectRatio="xMidYMid meet">
<metadata>
Created by potrace 1.16, written by Peter Selinger 2001-2019
</metadata>
<g transform="translate(-276.833333,977.000000) scale(1.000000,-1.000000)"
fill="#000000" data-original="#000000" stroke="none">
<path d="M548 976 l-1 0 0 -2 0 -2 1 -3 1 -2 1 0 2 0 1 -1 1 -1 -1 -2 -2 -2 3
-3 4 -3 1 -6 2 -6 1 0 1 0 0 -1 0 -1 4 -5 5 -5 -1 -1 -1 -2 -3 1 -2 0 -1 1 -2
1 0 -1 -1 0 -4 2 -5 3 0 -3 -1 -2 0 -7 1 -6 1 -1 1 -2 -1 -2 0 -1 1 1 1 2 2
-2 2 -1 2 -5 2 -4 1 -6 0 -5 2 -6 2 -5 0 0 0 1 1 -1 2 -1 1 1 1 0 0 -1 -1 -1
2 -1 2 -2 1 0 1 0 0 -2 1 -2 2 0 2 -1 1 -3 2 -3 0 -3 1 -3 2 -3 3 -2 0 -2 1
-2 0 -11 1 -10 1 -2 1 -2 4 -6 5 -5 0 -12 0 -12 -4 -5 -3 -4 -2 0 -1 0 -1 -3
-1 -3 0 -2 -1 -1 0 -1 -1 0 2 -3 2 -2 5 1 5 0 1 -1 1 -1 -2 -6 -3 -6 0 -6 -1
-5 0 -5 0 -5 -2 -2 -2 -2 1 -15 0 -14 0 -11 0 -11 0 -24 0 -24 -4 -3 -4 -3 -2
-2 -1 -2 1 -4 1 -4 1 0 1 0 0 -3 -1 -2 0 -2 -1 -2 2 0 2 0 1 0 1 -1 0 -1 0 -1
-3 -1 -2 -1 -9 -1 -8 -2 -11 -1 -10 0 -4 0 -3 -1 0 7 0 8 1 3 1 3 -1 7 -1 7
-2 5 -2 5 -1 0 0 1 2 1 3 1 6 6 6 6 3 6 4 6 -2 5 -1 5 -4 4 -5 5 -9 4 -10 5
-4 5 -5 5 1 2 1 2 0 1 0 2 -3 1 -2 1 -3 2 -2 3 1 2 1 2 -2 2 -2 2 0 2 -1 2 -1
-1 -1 0 1 2 0 2 0 7 0 7 1 3 1 4 1 0 1 0 4 -1 3 -2 4 0 4 0 1 2 2 1 -1 4 0 4
2 0 2 1 0 3 1 3 -1 2 0 2 2 1 3 1 0 1 1 1 -3 6 -4 6 0 1 0 2 1 0 1 0 -1 1 0 2
2 3 2 3 -2 7 -2 6 0 3 0 3 -1 1 -1 1 1 2 0 2 0 0 1 1 0 1 1 1 -1 0 -1 1 0 3 0
2 -2 3 -1 2 -5 3 -5 2 -4 -1 -4 0 -2 1 -2 2 -5 2 -5 2 -1 0 -1 0 0 -1 1 -1 -5
-1 -5 0 1 1 0 1 3 0 4 0 -4 1 -3 1 -6 -2 -5 -1 1 -1 2 -1 -2 0 -2 1 -1 -1 -1
-1 0 1 0 1 1 1 1 1 -1 0 -1 0 -2 -4 -2 -3 -4 -4 -4 -3 -3 -4 -2 -3 0 -3 0 -2
-2 -4 -2 -4 -1 0 -1 0 1 2 2 3 1 2 1 2 -3 -4 -3 -3 0 -2 0 -2 -1 -3 -2 -3 -3
-3 -2 -3 -4 -6 -4 -5 -5 -4 -5 -3 -6 -2 -5 -2 -8 -1 -8 -1 -6 -2 -5 -2 -1 -1
-1 -1 -10 10 -9 10 -4 3 -4 2 -3 0 -4 0 -1 0 -1 -1 -1 0 -1 1 -1 -1 0 -1 -2 0
-1 1 -5 -1 -5 -2 -3 -1 -2 0 0 -1 0 0 3 -5 3 -4 0 1 1 0 0 -1 0 -1 4 -2 3 -2
6 1 5 1 4 -3 3 -3 2 1 3 0 1 2 1 2 2 0 3 0 1 -1 2 -1 3 -6 4 -5 -3 -3 -2 -2
-2 0 -2 -1 -1 2 -2 1 0 -1 -1 0 0 1 0 2 -2 1 -2 1 1 1 0 1 -1 0 -1 0 -4 1 -4
2 -1 0 -1 0 5 -2 5 -3 2 -3 2 -4 0 -1 0 0 -3 3 -3 3 -3 1 -2 0 -2 0 -2 0 -2
-4 -2 -3 -2 -1 -2 0 -3 -1 -3 0 -6 5 -5 5 -4 0 -4 0 -1 -3 -1 -2 -1 1 -1 0 0
-1 0 -1 -1 1 -1 2 0 -2 0 -1 -1 1 -1 0 -2 1 -1 0 2 -2 1 -2 -1 0 0 0 2 -2 2
-2 6 1 6 0 3 0 2 -1 3 -5 3 -4 0 -1 1 -1 5 -5 5 -5 2 -1 2 -1 6 0 7 0 4 -1 4
-2 4 0 4 0 5 2 5 2 4 0 3 0 5 -1 5 -1 0 -1 1 -1 -3 -3 -3 -2 -4 -6 -3 -5 -4
-2 -5 -3 -9 -3 -9 -3 -3 0 -2 0 -3 1 -3 1 -5 -5 -5 -5 -2 -1 -2 0 0 -1 0 -2 1
-1 0 -2 3 0 2 0 3 4 3 3 2 0 1 -1 1 -3 1 -3 3 0 2 0 0 2 0 2 1 2 1 3 2 0 2 0
3 2 3 2 7 2 8 1 0 1 1 1 2 0 2 0 -2 -1 -2 -2 -1 -4 -2 -4 -2 -1 -1 0 -4 -2 -3
-1 -3 -4 -3 -3 -2 0 -1 1 -3 -3 -2 -2 0 -1 0 -1 -3 -1 -2 -1 -2 0 -3 0 -1 -1
-1 -2 0 -3 1 -2 1 -3 1 -2 0 -1 0 -1 2 -2 3 -2 2 1 2 0 1 2 2 1 3 0 3 -1 0 1
-1 2 2 0 3 1 5 0 5 1 1 1 2 1 1 3 1 4 4 4 3 5 0 1 0 1 4 1 3 1 3 0 3 1 3 3 3
3 1 4 1 4 3 2 3 3 2 0 3 1 0 0 1 0 -1 1 0 1 1 1 2 0 0 2 0 1 2 1 2 1 1 -1 2
-1 0 1 0 2 1 0 1 0 4 3 5 3 1 -1 1 0 -2 -1 -1 0 -3 -5 -2 -5 0 -4 0 -3 -1 -7
-1 -7 -2 0 -1 1 1 -2 0 -1 -1 1 -2 0 0 -2 -1 -2 -1 1 -1 0 -1 -2 0 -3 -2 -2
-2 -2 -5 -1 -4 -2 -2 -4 -2 -3 -1 -4 -2 -3 -1 -2 -2 -1 -4 -1 -4 0 -3 -2 -2
-2 -3 -6 -3 -7 -1 0 -1 0 0 1 0 1 -1 0 -2 1 1 -3 0 -2 -1 0 -2 1 0 -1 1 -1 -2
-1 -3 -1 -3 -4 -4 -3 0 -1 0 -1 -4 -5 -4 -5 -2 -4 -2 -4 -1 -2 -2 -1 -1 0 -1
-1 -4 -1 -3 -2 -2 1 -1 0 0 -1 1 -1 -2 -2 -1 -1 1 -1 2 -1 -2 0 -1 0 -2 2 -1
2 0 -3 1 -2 -2 0 -2 0 -2 1 -2 1 0 -1 0 0 -1 -4 -2 -3 -1 -1 -1 0 1 1 0 2 -2
-2 -2 -2 -1 0 -1 0 -1 -2 -1 -2 -1 -3 0 -3 -2 -2 -2 -2 -3 -1 -3 0 0 -3 0 -4
2 1 2 0 0 -1 0 -2 2 0 3 0 1 1 1 1 1 3 2 3 3 2 4 3 4 1 4 2 5 -1 6 -1 6 -1 7
0 3 1 3 2 3 3 3 4 1 3 2 4 3 2 2 2 8 0 9 0 2 1 2 1 2 2 2 3 0 0 -1 0 -3 -3 -4
-3 -3 1 -3 1 0 1 1 1 -2 1 -1 0 0 -1 1 -1 -3 0 -3 0 -4 0 -3 0 0 1 0 1 5 2 4
2 1 2 2 2 -1 1 0 1 1 0 2 1 1 -1 0 -1 1 1 1 0 -1 1 0 2 2 1 2 1 5 0 5 1 3 3 3
2 1 -1 2 0 0 -1 0 -1 1 0 2 1 -1 -2 0 -1 1 1 2 2 0 1 1 2 0 1 1 1 -1 0 -1 -1
2 4 2 4 0 1 -1 0 1 3 1 3 -1 -1 -1 0 0 2 0 2 1 1 1 0 0 5 0 4 5 5 5 5 1 -1 1
0 0 -2 -1 -1 0 -10 -1 -10 -1 -9 -1 -9 0 -10 -1 -10 0 -3 0 -2 -2 1 -2 0 0 -2
0 -3 -2 -3 -2 -2 -2 -19 -3 -19 -1 -19 -1 -18 -1 -5 -1 -5 -4 -10 -3 -9 -2 -5
-2 -4 -4 -3 -5 -2 0 -2 0 -2 -1 -4 -2 -4 0 -2 0 -3 2 -1 2 -2 -1 -1 -1 -1 -4
-1 -4 0 -2 -1 -1 -1 0 -2 -1 -2 2 -2 2 -3 1 0 1 1 1 -3 1 -3 1 -1 1 -1 -2 -2
-2 -2 0 0 -1 0 1 1 0 2 -2 0 -2 0 0 -1 -1 -1 -4 1 -4 0 3 -1 3 -2 0 -2 0 -2
-1 0 0 -1 -2 2 -1 2 0 -2 0 -1 -2 0 -3 0 -1 -1 -1 -2 1 0 1 -1 -4 -4 -5 -4 -2
-1 -1 0 -5 -1 -4 0 1 -1 0 -1 -1 0 -1 0 -1 3 -1 3 1 -3 0 -3 -2 1 -2 1 0 0 -1
0 2 -3 1 -2 -1 -1 0 -1 1 0 1 0 -1 -2 0 -1 1 0 1 0 -1 -1 -1 -1 1 -2 0 -1 -2
-1 -2 -1 0 -1 0 -2 -9 0 -10 1 0 0 0 1 1 0 1 1 -2 -1 -1 0 -3 0 -2 0 -5 3 -4
3 -3 0 -2 0 3 -2 4 -1 4 -6 4 -7 2 -1 2 0 4 2 3 2 0 -1 -1 -2 1 1 2 1 3 -1 2
0 1 -1 0 0 -2 -2 -3 -2 0 -1 1 -1 -3 -1 -3 -1 -1 0 -1 1 0 -1 0 -1 3 -1 2 0 3
1 3 1 2 1 2 1 -1 -1 -1 0 6 -2 7 -1 2 1 2 1 4 4 4 4 -2 0 -2 -1 1 1 0 1 2 0 1
-1 0 1 1 1 8 4 9 4 1 2 2 1 3 1 4 1 2 2 3 2 0 -2 1 -1 -1 1 -1 0 1 -1 1 -2 -1
-2 -2 -2 1 0 1 -1 -3 -3 -2 -3 -3 -2 -3 -1 0 -2 0 -2 -1 -1 -2 -1 0 -4 0 -3 2
-3 1 -3 2 0 1 0 0 -1 1 -1 4 0 4 0 1 1 1 1 2 0 2 0 2 2 3 2 5 7 4 8 0 0 0 1 0
2 -1 3 3 0 3 0 2 3 3 3 2 1 2 1 0 2 0 2 2 2 2 3 3 0 3 0 -1 -3 0 -2 0 -2 0 -1
1 0 1 0 0 -1 0 -1 -2 -4 -1 -3 -2 1 -1 0 0 -3 0 -4 -3 -3 -3 -3 -1 -2 0 -2 -2
0 -2 0 0 -1 1 -2 -4 -1 -3 -1 -2 -5 -2 -4 -2 0 -1 0 -1 0 -1 0 0 -1 0 -1 2 -1
2 -1 0 -2 0 -1 2 1 2 1 5 5 5 5 2 0 2 -1 0 -2 0 -1 1 0 1 0 0 -1 -1 -2 1 0 1
0 0 -2 -1 -1 1 0 0 0 5 3 6 3 0 -1 0 0 2 2 2 3 1 -1 0 0 4 4 3 5 1 3 2 3 0 1
0 1 1 0 2 0 2 2 3 3 2 3 2 3 4 7 3 8 0 0 0 1 1 0 1 0 0 2 0 2 -1 -2 -1 -1 0 2
0 2 3 -1 2 0 1 -3 0 -2 4 -14 4 -13 0 -10 1 -10 -3 -2 -4 -1 0 0 0 -1 -1 -5
-1 -5 1 -3 2 -3 -2 -6 -3 -5 -1 -8 -1 -8 -3 -8 -3 -8 -4 -9 -3 -8 0 -7 1 -7 2
-3 2 -3 3 -5 3 -4 0 -11 0 -10 1 -1 1 -1 0 -6 0 -6 2 -6 3 -5 0 -2 0 -1 1 0 1
-1 0 -8 0 -7 -1 -7 -1 -6 -2 -4 -2 -4 0 -5 1 -4 -8 1 -8 0 -6 2 -5 2 -4 5 -3
6 -2 1 -1 1 -3 0 -2 0 -4 -4 -3 -3 0 -2 0 -1 -1 0 -1 0 0 -3 0 -3 -6 0 -6 0 0
1 0 1 -6 1 -5 2 -6 1 -6 0 -10 -1 -10 -1 -5 -1 -5 -2 -3 1 -3 0 0 -1 0 -1 1 0
2 -1 -3 -2 -3 -3 -2 -3 -3 -3 -8 2 -8 1 -4 2 -4 1 -8 0 -8 0 -8 5 -7 4 -9 0
-9 0 -5 -1 -4 -2 -1 -2 -2 -2 2 -4 1 -4 7 -3 7 -3 4 1 4 1 9 1 9 0 6 -2 7 -2
3 0 4 -1 9 0 10 0 1 -1 0 -1 3 1 4 1 3 1 4 2 2 2 2 3 1 0 2 -1 2 -1 2 0 7 -1
8 0 1 -1 2 -1 5 0 5 0 6 0 6 0 8 -1 8 -1 9 0 8 0 0 -2 0 -1 1 1 2 1 -1 1 0 1
1 0 2 1 3 -1 3 -1 10 0 9 1 4 -1 3 -2 3 0 4 0 7 -1 7 -2 4 0 5 -1 3 -1 3 0 5
2 6 2 0 1 0 1 5 5 5 5 6 1 7 0 5 0 6 1 0 -1 0 -1 6 -1 7 -1 0 0 1 0 -1 1 0 1
1 0 1 -1 4 1 5 1 1 -1 2 -1 4 -2 3 -2 3 0 4 0 2 2 2 1 4 0 5 1 2 2 3 3 2 0 3
1 4 0 4 1 5 1 6 1 4 0 5 0 8 -2 8 -2 4 1 5 0 8 5 9 4 4 0 4 -1 1 0 0 -1 2 0 1
0 3 3 3 2 0 2 0 1 -2 0 -2 -1 -4 2 -3 1 -6 0 -6 1 0 -2 -1 -1 -1 0 -1 1 0 -1
0 -2 -3 -1 -3 -1 -5 3 -5 3 -10 0 -9 0 -5 1 -5 1 -13 1 -13 1 -8 -1 -7 -2 -3
-1 -2 -2 -2 1 -2 1 0 3 0 3 0 4 0 5 -1 5 -1 6 -1 1 0 2 -1 1 0 2 0 7 0 7 1 8
2 9 1 19 0 20 -1 5 -1 5 -1 5 0 5 1 1 2 0 2 3 1 3 0 3 0 2 -2 2 -2 3 -1 9 0 9
1 11 2 11 0 9 0 9 -3 7 -2 8 0 14 0 14 0 16 0 17 -1 6 -1 6 1 5 0 6 1 21 1 21
1 2 2 2 0 5 0 4 -1 3 -1 3 -1 0 -1 1 -1 3 -1 3 -1 3 0 4 1 6 2 7 -1 6 -2 7 0
4 -1 4 1 11 0 10 2 2 2 1 0 2 0 1 1 0 1 0 1 3 1 3 3 2 2 1 0 6 -1 5 1 2 1 2
-1 3 -1 3 2 1 1 1 0 3 0 3 -1 1 -1 1 -4 0 -3 0 -1 2 -1 1 -2 0 -1 0 0 17 0 17
0 17 0 18 0 1 1 1 -1 9 -1 9 0 11 0 11 0 2 1 3 1 0 1 1 2 3 2 3 0 1 1 2 4 2 4
2 0 1 -1 1 2 1 1 1 0 2 0 1 2 1 1 0 0 1 0 2 2 1 1 1 0 2 0 2 1 1 2 2 0 1 0 1
1 4 1 5 2 3 1 4 0 1 0 0 -1 0 -1 -1 0 1 0 1 1 0 1 0 -1 2 0 3 1 2 1 3 -1 0 -1
0 0 6 0 7 -1 4 -1 4 -1 2 -2 1 1 7 0 7 -1 -3 -2 -2 0 -3 0 -3 -1 0 -1 0 -1 -4
-2 -4 1 -3 0 -3 -1 -2 -1 -1 0 2 0 3 -1 1 -1 1 1 11 1 12 -2 10 -1 10 -3 4 -2
5 -4 5 -3 5 -3 1 -3 2 0 0 1 0 -2 2 -2 2 1 0 0 1 -1 2 -2 3 0 2 0 2 -1 -2 -1
-1 -1 1 -1 2 -2 0 -1 -1 0 2 -1 1 -1 0 -1 0 -1 2 -1 3 0 2 0 3 2 -3 1 -3 1 0
1 0 0 5 0 6 -1 3 -1 3 0 0 0 1 -1 1 -1 2 -1 0 -2 -1 0 3 -1 4 1 1 1 1 0 2 -1
2 -2 1 -2 1 0 -1 0 -2 2 -2 1 -2 -1 0 -1 0 -2 2 -3 2 0 3 -1 4 0 4 0 4 -3 3
-3 3 -3 2 -3 1 -1 -1 -1 -1 -2 1 -1 0 -4 2 -3 1 0 2 -1 1 -1 0 -2 -1 1 2 0 1
0 0 0 0 -1 -1z m2 -4 l0 -1 -1 0 -1 0 0 1 0 1 0 0 1 0 1 -1z m40 -49 l1 -2 -1
1 -2 1 0 1 0 1 0 0 1 0 1 -2z m-1 -62 l1 -2 -1 0 -1 0 0 2 0 1 0 0 1 0 0 -1z
m-66 -22 l0 -1 0 0 -1 0 0 1 -1 1 1 0 1 0 0 -1z m-101 -63 l0 -1 -4 -2 -4 -2
1 -1 2 -1 -2 0 -2 0 -2 0 -2 0 0 -1 0 -2 -4 -1 -4 -1 -1 -1 -1 0 -6 0 -6 0 0
0 0 1 2 0 1 0 1 1 1 0 1 0 0 0 -1 1 -1 1 0 1 0 1 4 2 5 2 8 1 8 1 1 0 2 -1 1
1 0 1 1 0 1 0 0 0z m9 -4 l-1 -2 1 1 2 2 -1 -3 -1 -2 -3 -2 -2 -2 -3 0 -3 0
-3 1 -2 0 4 3 3 3 1 0 2 0 -3 -1 -2 -1 0 -1 0 -1 3 1 3 1 2 2 2 2 1 2 1 1 1 0
0 -1 -2 -3z m-38 -12 l1 -2 -2 0 -2 0 0 2 0 1 1 0 2 0 0 -1z m11 0 l0 -1 -4 0
-3 -1 0 1 0 1 2 0 2 1 2 0 2 0 -1 -1z m-18 -6 l0 -1 -3 0 -2 0 -2 1 -1 1 4 0
5 0 -1 -1z m-25 -5 l0 -1 -1 0 -1 0 -2 2 -1 1 2 0 2 0 1 -2z m115 -14 l-2 -3
-2 -3 -3 -2 0 1 -1 2 4 4 4 5 1 0 1 0 -2 -4z m-38 -18 l-1 -2 -1 0 -1 0 -2 -2
-2 -2 -3 -2 -3 -1 0 1 0 1 -2 0 -1 -1 1 1 1 1 5 4 6 5 2 0 3 0 -2 -3z m-22
-11 l2 -1 -5 -2 -4 -3 -1 -1 0 -1 -3 2 -2 2 0 2 0 1 2 1 2 1 0 -1 1 0 2 1 1 1
1 -1 2 -1 2 0z m2 -5 l0 -1 -1 -1 -2 -1 -3 -1 -2 0 2 2 3 3 2 0 1 0 0 -1z m16
-34 l-3 -4 -2 -2 -1 -2 -2 -2 -1 -1 0 3 1 3 2 3 3 3 3 2 3 1 0 0 1 0 -4 -4z
m4 -3 l-2 -3 -3 -1 -2 -1 0 -1 1 -1 -1 -2 -1 -3 -2 0 -1 0 0 2 0 2 2 3 3 3 3
3 3 2 1 0 0 -1 -1 -2z m-8 -23 l-1 -1 0 1 0 1 1 0 0 1 1 -1 0 0 -1 -1z m55
-26 l2 -4 5 -10 4 -10 0 -2 0 -2 -1 -5 -1 -4 -3 -1 -2 -1 -1 -3 0 -2 1 -7 1
-7 0 -4 0 -4 -4 -6 -4 -6 -4 -4 -5 -4 -5 -9 -4 -10 1 -5 1 -5 -3 -2 -2 -1 -1
-4 -2 -3 0 -5 0 -5 -3 -3 -3 -3 0 1 0 0 -2 -3 -3 -3 0 -4 -1 -4 -2 -2 -1 -2
-1 1 -1 2 0 4 0 4 -1 2 -1 3 -2 2 -2 2 0 3 0 3 -1 0 -1 1 0 3 0 2 5 14 4 15 6
16 5 16 1 6 2 6 2 7 1 8 2 -1 2 0 2 3 1 3 -1 5 0 6 0 5 0 6 2 5 2 4 0 3 0 2 2
9 3 10 0 2 0 3 1 0 0 1 4 -12 4 -11 2 -5z m-51 21 l0 -1 -2 -1 -1 -1 1 1 0 2
1 0 1 0 0 0z m-36 -33 l0 -2 -3 -1 -3 -1 -1 0 0 0 3 3 3 2 1 0 0 0 0 -1z m201
-67 l-1 -48 2 -12 1 -12 0 -4 -1 -3 -1 -14 -1 -13 0 -7 1 -6 1 -15 1 -14 1
-37 0 -36 0 -16 1 -15 0 -1 1 0 0 -6 0 -5 -3 -2 -3 -1 0 -2 1 -2 1 -5 0 -4 2
-1 1 -1 0 -3 0 -3 1 0 1 -1 2 -7 1 -7 -2 -3 -1 -3 -1 -9 -1 -10 1 -1 1 -1 -1
-7 -1 -7 1 -12 0 -12 0 -7 1 -6 -1 -1 -1 0 0 1 -1 1 -2 0 -2 0 1 1 0 1 -1 0
-1 -1 -4 2 -3 2 -6 1 -5 2 -1 1 0 1 1 2 2 2 -1 1 -2 2 -5 -1 -5 -1 -11 1 -10
1 -7 0 -7 0 -5 2 -5 2 -1 0 -1 0 -2 8 -1 9 0 25 1 25 1 9 2 10 1 9 2 9 3 16 3
17 1 2 1 2 3 1 2 2 3 6 3 7 1 6 1 7 2 4 1 5 -1 7 0 8 0 5 0 6 0 7 1 8 0 1 0 2
1 0 1 0 -1 3 0 4 1 -2 2 -1 -1 -1 0 -1 0 0 1 0 1 1 2 2 2 -4 1 -4 2 0 2 -1 1
1 0 1 -1 1 0 1 -2 -1 -2 0 0 1 1 2 -2 1 -1 1 0 2 0 1 4 1 4 2 1 0 0 0 0 -2 0
-2 1 0 1 1 0 2 0 2 -1 0 -1 0 -1 3 0 4 0 4 -1 5 1 -2 1 -1 -1 3 0 4 1 -1 2 -1
-2 5 -2 6 0 1 1 1 -1 0 -1 -1 1 4 0 3 -1 0 -1 -1 0 1 0 1 0 3 -1 3 -2 7 -3 7
0 1 0 2 -1 -1 -1 0 0 2 1 3 -2 -1 -1 0 0 1 -1 2 1 -1 2 0 -1 2 0 3 -1 1 0 2
-1 5 0 6 0 4 -1 4 -1 1 -1 1 0 1 -1 2 1 0 1 0 1 -2 1 -2 2 0 1 0 0 3 0 3 2 2
2 1 -1 3 0 3 -2 1 -1 2 0 3 1 3 -1 3 0 3 -2 0 -2 0 -1 2 -2 3 -1 3 0 3 -1 1
-1 1 0 5 1 4 1 3 2 2 5 0 6 1 6 2 6 2 8 5 8 5 4 4 4 3 2 0 2 0 0 -48z m-135
-41 l-1 -1 0 -1 0 0 -1 0 -1 0 1 2 0 2 1 0 1 0 0 -2z m96 -44 l0 -2 -1 0 -1
-1 1 1 0 2 -1 1 -1 2 0 3 -1 4 2 -4 2 -4 0 -2z m-124 3 l0 -2 -3 -6 -3 -7 -1
0 -1 0 -1 1 0 1 -3 -1 -2 0 1 3 1 3 1 2 2 3 3 2 3 2 1 0 1 0 1 -1z m0 -7 l0
-2 -1 0 -1 0 1 2 0 2 1 0 0 0 0 -2z m32 -17 l0 -3 -2 -1 -2 0 -2 -4 -1 -3 0
-1 0 -1 -1 -3 -2 -2 -1 0 -1 0 2 6 2 6 1 3 2 3 2 4 2 4 1 -2 1 -2 -1 -4z m-23
-3 l-1 -1 -4 -5 -3 -4 0 -2 -1 -1 2 2 2 2 2 4 3 3 1 -1 1 0 -1 -2 0 -2 -4 -3
-3 -2 1 -1 0 -1 -1 0 -1 1 0 -2 0 -1 -1 -1 -1 0 0 1 1 1 0 0 -1 0 -2 -2 -1 -1
-1 0 -1 0 -2 -1 -1 -1 -3 0 -3 -1 1 2 1 3 0 0 0 1 1 0 1 0 0 1 0 2 4 2 4 3 0
2 0 1 -1 -1 -1 0 0 1 1 0 3 1 3 0 3 2 3 3 1 -1 0 0 -1 -1z m117 -12 l0 -4 -2
-2 -2 -1 -1 1 -1 1 1 2 2 3 -1 0 0 0 1 1 2 2 0 0 1 0 0 -3z m-107 -1 l0 0 -1
-2 0 -2 -1 -1 -1 -1 0 3 1 4 1 1 2 1 0 -1 0 -1 -1 -1z m-32 -12 l-1 0 -2 -2
-2 -1 0 0 0 1 -1 -1 -2 -1 1 -1 0 -1 -2 1 -2 0 4 3 4 4 2 -1 2 0 -1 -1z m-9
-2 l-1 -1 -2 0 -1 0 2 1 2 1 0 0 0 0 0 -1z m10 -9 l0 -1 -1 0 -1 0 1 1 0 1 1
0 0 0 0 -1z m-36 -8 l-1 -1 -2 0 -2 -1 1 2 2 1 1 0 1 0 0 -1z m116 -192 l0 -1
-2 5 -2 5 0 0 0 1 2 -4 2 -4 0 -2z m60 -52 l0 -1 -2 0 -3 -1 -2 0 -3 -1 -2 -1
-1 0 0 1 1 1 5 1 5 2 1 0 1 0 0 -1z m7 1 l0 -1 -3 0 -3 -1 0 1 0 1 3 0 3 0 0
0z"/>
<path d="M404 767 l0 -1 2 1 1 0 0 1 0 0 -1 0 -2 0 0 -1z"/>
<path d="M563 404 l0 -3 1 1 1 2 0 1 0 2 -1 1 -1 0 0 -4z"/>
<path d="M569 407 l0 -1 2 0 1 -1 -1 1 0 1 -1 0 -1 0 0 0z"/>
<path d="M448 807 l-1 -1 1 1 2 1 0 1 0 0 -1 0 -1 0 0 -2z"/>
<path d="M588 789 l0 -2 0 -2 0 -2 1 -2 2 -3 -1 5 0 6 0 1 0 1 -1 0 -1 0 0 -2z"/>
<path d="M336 776 l0 -1 3 -2 3 -3 1 1 0 1 -1 0 -1 -1 0 1 0 1 -3 1 -2 2 0 0z"/>
<path d="M292 772 l0 -1 1 0 0 0 0 1 0 1 -1 0 -1 0 1 -1z"/>
<path d="M294 766 l4 -3 5 0 6 0 0 -1 0 -1 2 1 2 0 3 0 3 1 0 -2 -1 -1 1 0 1
0 0 2 1 1 0 1 0 0 -1 0 -2 0 0 1 -1 2 0 -2 0 -1 -9 1 -9 0 -2 1 -1 1 0 2 0 2
-1 -2 -1 -1 -1 1 -1 1 -1 0 -1 0 4 -4z"/>
<path d="M342 769 l0 -1 2 0 2 0 0 0 0 1 -1 0 -2 1 -1 -1z"/>
<path d="M446 707 l-1 0 0 -2 0 -1 1 1 1 2 0 1 -1 0 0 -1z"/>
<path d="M336 600 l-3 -1 -6 -6 -5 -5 1 -2 0 -2 3 1 3 0 0 1 1 0 0 4 0 5 1 1
1 1 1 1 2 1 4 2 4 1 -2 0 -2 0 -3 -2z"/>
<path d="M350 594 l0 -1 1 0 0 0 0 1 0 1 -1 0 -1 0 1 -1z"/>
<path d="M333 585 l0 -1 0 -1 1 0 0 1 1 2 0 0 -1 0 -1 -1z"/>
<path d="M337 585 l-1 -1 1 0 1 0 1 1 0 1 0 0 0 0 -2 -1z"/>
<path d="M314 386 l-1 -1 2 1 2 0 0 1 0 0 -1 0 -2 0 0 -1z"/>
<path d="M281 374 l-1 -2 0 1 0 1 -2 0 -1 0 0 -1 1 -1 2 -1 1 0 2 -3 2 -2 2 1
1 1 0 -1 0 -1 1 2 1 3 -2 2 -1 1 -2 1 -1 1 -1 0 -1 0 -1 -2z"/>
<path d="M419 344 l0 0 1 -2 1 -2 -2 -3 -2 -4 2 -1 2 -1 1 0 1 0 -1 2 -1 2 0
1 1 2 0 1 1 0 0 -1 0 -1 1 1 1 0 -2 2 -2 1 0 2 1 2 -2 0 -1 0 0 -1z"/>
<path d="M413 338 l-1 -1 2 0 2 -1 0 2 0 1 -1 0 0 0 -2 -1z"/>
<path d="M394 318 l1 -2 -1 -1 0 -2 -2 0 -1 0 0 -3 0 -4 2 0 2 0 0 -1 1 -1 1
1 1 2 1 -1 1 0 0 1 -1 1 1 0 1 0 0 1 0 1 0 1 0 2 1 0 1 -1 1 2 1 1 -4 2 -3 1
-3 1 -2 0 1 -1z"/>
<path d="M395 262 l-1 -1 -1 0 -1 1 0 -2 -1 -1 1 -2 1 -1 2 0 2 -1 0 2 -1 2
-1 -1 -1 0 0 1 0 1 1 0 1 1 0 1 -1 1 0 -1z"/>
<path d="M372 140 l-1 -1 1 1 2 1 0 1 0 0 0 0 -1 0 -1 -2z"/>
<path d="M914 81 l-1 -2 0 -1 0 -1 2 2 2 3 0 0 0 1 -1 0 -1 0 -1 -2z"/>
<path d="M893 59 l-2 -2 0 -2 0 -1 1 0 2 0 1 2 2 1 -3 -1 -2 -1 2 3 2 4 0 0
-1 0 -2 -3z"/>
<path d="M920 60 l-1 -2 2 1 2 2 0 1 0 0 0 0 -1 0 -2 -2z"/>
<path d="M914 57 l0 -1 0 -1 1 0 0 2 1 2 -1 0 0 0 -1 -2z"/>
<path d="M893 39 l-1 -2 0 -1 1 0 1 2 0 3 0 1 -1 0 0 -3z"/>
</g>
</svg>
