<?xml version="1.0" standalone="no"?>
<!DOCTYPE svg PUBLIC "-//W3C//DTD SVG 20010904//EN"
 "http://www.w3.org/TR/2001/REC-SVG-20010904/DTD/svg10.dtd">
<svg style="fill: black; stroke: black;" version="1.0" xmlns="http://www.w3.org/2000/svg"
 width="883.500000pt" height="882.343128pt" viewBox="0 0 883.500000 882.343128"
 preserveAspectRatio="xMidYMid meet">
<metadata>
Created by potrace 1.16, written by Peter Selinger 2001-2019
</metadata>
<g transform="translate(-91.000000,930.142857) scale(1.000000,-1.000000)"
fill="#000000" data-original="#000000" stroke="none">
<path d="M483 929 l0 -1 1 0 1 0 0 1 0 1 -1 0 -1 0 0 -1z"/>
<path d="M615 928 l0 -2 -2 -1 -1 -1 -1 1 -1 1 0 -1 -1 -1 -7 -1 -6 0 0 -1 0
-1 -8 1 -8 0 0 -3 0 -2 -1 0 -1 0 -3 -3 -2 -2 -2 1 -2 0 -1 0 -1 0 -4 -1 -4 0
-1 1 -1 2 -2 -3 -1 -3 -4 -1 -3 -1 -2 -1 -1 -1 0 -1 0 -1 3 0 3 0 3 -1 3 -2
-2 0 -2 0 -5 -5 -6 -5 -3 -2 -4 -2 -1 -3 0 -2 -5 -2 -4 -2 0 -1 0 -1 -2 0 -2
-1 -1 2 -2 1 -2 0 -3 1 0 1 1 1 -1 -1 -1 0 -2 1 -1 1 1 0 1 0 0 2 1 2 -2 0 -1
-1 0 1 0 1 -1 0 -2 0 0 -2 0 -2 1 1 1 1 0 -1 1 -1 -1 -3 -1 -2 -3 3 -4 4 -2
-1 -1 0 0 -3 1 -2 -1 0 -1 0 -2 -1 -1 -2 1 0 0 -1 -2 0 -3 0 0 -1 0 -1 0 -2 0
-1 -2 0 -2 0 -2 0 -2 0 1 1 1 1 -1 2 0 1 -1 0 -1 0 0 -3 -1 -2 -1 2 -2 2 0 -1
-1 0 -1 1 -1 1 -3 0 -3 0 -2 1 -1 1 0 1 -1 2 1 1 2 1 -2 0 -1 -1 0 1 0 1 1 0
2 0 0 -1 1 -1 2 1 3 0 3 3 4 3 1 0 2 0 1 1 1 1 2 -1 2 -1 2 1 2 2 0 0 1 1 -2
1 -1 0 -6 1 -6 0 0 2 1 2 -2 1 -1 1 3 3 3 3 -1 2 0 2 1 0 1 0 0 2 1 1 -3 0 -3
-1 -2 -1 -2 0 0 2 1 2 -3 -1 -2 -1 0 1 -1 0 0 -1 0 -1 -3 -1 -3 -1 -2 1 -1 2
-2 -1 -2 -2 -1 0 -1 0 0 -1 1 -2 -4 0 -3 -1 -2 1 -1 2 -1 0 -1 0 0 -1 0 -1 -1
0 -1 0 1 2 0 1 0 0 -1 0 -1 -2 -2 -1 0 4 1 5 -1 0 -1 0 -4 -4 -3 -3 0 0 0 1
-4 -2 -4 -2 0 1 1 2 -1 0 -2 0 -2 -3 -2 -3 0 -2 0 -2 -1 0 -1 0 -2 -1 -1 0 1
1 1 2 -3 0 -3 -1 -2 0 -2 0 -2 -2 -3 -3 -2 0 -2 0 -3 -4 -4 -4 1 -1 0 -1 -1 0
-1 1 -2 -9 -1 -8 -1 -1 -1 -1 -1 1 -1 1 -1 0 -1 0 0 -2 1 -2 -3 0 -2 0 0 -3 1
-2 -2 0 -2 0 0 -1 0 -1 1 0 1 0 0 -1 0 -1 -1 0 -2 1 0 -2 1 -3 -1 -5 -1 -6 -4
-4 -5 -4 0 -2 0 -1 -1 0 -1 0 -1 -3 -1 -3 1 -3 2 -2 3 0 4 -1 1 1 2 0 0 -1 0
-1 0 -2 0 -1 1 0 1 1 1 -5 2 -4 -1 -4 0 -4 -1 0 -1 0 -1 -2 0 -1 -4 -4 -4 -4
-1 0 -1 0 0 -2 -1 -1 0 -1 0 0 1 1 1 0 0 -1 0 -1 -2 0 -2 0 0 -1 0 -1 -1 0 -1
0 -2 -2 -2 -2 -1 1 -1 1 1 2 0 2 3 3 3 2 -2 0 -1 -1 0 1 0 1 2 2 3 2 -1 2 -1
2 1 1 1 0 0 2 -1 1 1 2 1 1 -1 -1 -2 0 0 3 1 3 -2 1 -1 0 -3 -3 -2 -3 -2 0 -2
-1 0 1 0 1 2 0 1 1 0 1 0 1 -1 0 -1 -1 0 2 0 1 1 0 1 -1 1 2 2 3 3 5 2 4 -1 1
-1 0 0 2 0 1 -1 0 -1 0 0 -1 -1 0 -3 -1 -2 0 -2 0 -2 0 0 -1 1 -1 -1 -3 -1 -4
-1 0 -1 -1 1 7 0 7 -1 0 -1 0 0 -1 0 -1 -1 0 -1 0 1 4 2 3 -1 1 0 1 2 0 2 0 1
2 0 2 2 -1 1 0 0 1 -1 2 2 0 1 1 0 1 -1 1 -2 0 -1 1 -2 2 -1 3 2 0 2 0 0 1 1
1 -1 0 -2 0 0 1 0 2 2 -1 3 0 0 -1 1 -1 0 1 -1 1 2 2 2 2 0 2 0 3 -2 1 -2 0 0
1 0 2 1 1 1 1 -1 0 -2 1 -1 -4 -1 -3 -2 0 -2 0 0 -1 0 0 0 -2 -1 -2 -2 1 -1 2
-2 -1 -1 0 -3 -3 -3 -2 -3 0 -2 1 -1 0 0 1 1 0 2 0 1 3 2 4 -2 -1 -1 -1 -2 -3
-2 -3 -2 2 -2 1 -1 -2 -2 -2 -2 0 -1 0 1 3 2 2 -1 0 0 0 1 3 2 2 -1 2 -1 2 0
-3 0 -2 -1 0 -2 0 -1 -2 -1 -1 -2 0 -1 1 -2 -2 -1 -2 -1 1 -1 0 1 3 0 2 -4 -3
-4 -4 0 -2 0 -1 -1 0 -2 0 0 -1 0 -1 -3 -3 -4 -4 -1 0 -1 0 0 1 0 1 1 0 2 1 0
2 1 2 -2 0 -1 0 0 1 0 1 3 2 3 1 0 -1 0 -1 3 3 3 3 3 2 4 3 2 -1 2 -1 2 1 2 1
1 3 2 4 0 2 1 2 1 -2 1 -2 1 -2 0 -1 -1 0 -1 0 0 -1 1 -1 2 0 1 0 2 6 1 5 1
-1 1 -1 1 0 1 1 0 2 -1 1 5 6 5 6 4 1 3 1 0 1 0 2 3 3 3 3 -2 -1 -2 0 -3 -3
-3 -2 -2 0 -1 1 0 -2 0 -1 -2 -2 -3 -1 -1 0 -1 1 0 -1 0 -1 -4 -5 -5 -6 0 -1
0 -2 -1 0 -1 1 1 3 0 4 -1 1 -1 0 0 -1 1 -1 -1 -1 -1 -1 -2 1 -1 2 -1 -1 -1
-1 -1 0 -1 1 -2 6 -2 6 -1 0 -1 0 0 -2 1 -1 1 -4 0 -4 2 -2 1 -1 0 -2 -1 -1 0
-3 0 -2 -1 0 -2 0 -1 -2 -1 -1 -4 -3 -4 -2 0 -1 0 -1 3 2 2 1 0 -1 0 -1 -3 -2
-2 -3 -1 1 -1 1 -1 -1 0 -2 -4 -2 -4 -3 -1 0 -1 0 1 1 2 2 1 2 2 3 1 -1 1 0 1
2 0 2 2 2 2 2 -1 1 0 2 -1 -1 -1 0 0 1 0 2 -1 0 -2 0 -2 -1 -3 -1 -1 -4 -2 -3
-2 0 -1 -1 0 -1 1 -2 -1 -1 -1 -1 -2 1 -1 0 -1 -3 0 -2 -1 -2 0 -2 1 1 2 1 0
2 0 1 2 0 2 -1 -1 -1 0 -2 1 0 1 0 0 -4 0 -5 -1 -1 -2 -1 0 1 0 0 -1 -1 -2 -1
0 1 0 1 -1 0 0 -1 -2 2 -2 2 -1 -1 0 -2 -2 0 -2 0 0 -1 0 -1 0 -1 -1 -1 2 -3
2 -2 0 -2 -1 -2 1 0 2 0 -2 -1 -1 -1 -1 0 -1 0 0 2 1 1 -1 -1 -2 -1 0 -2 0 -2
-1 0 -1 0 0 -1 0 -1 -1 -3 -1 -3 -1 0 -1 0 1 -2 0 -3 -1 -1 -1 0 0 -7 0 -7 -4
-3 -4 -4 -1 0 0 0 -2 -3 -2 -2 -3 -3 -3 -3 -1 -3 -2 -3 -2 1 -1 1 -3 -3 -3 -3
0 -3 0 -2 -2 -3 -2 -4 0 -1 0 -1 2 1 1 0 0 -1 0 -1 -2 -2 -2 -3 1 0 1 0 1 1 1
2 -1 -2 0 -2 1 0 1 1 0 2 0 2 2 4 2 5 1 0 1 0 0 -2 -1 -2 2 1 1 1 0 1 0 1 2 2
3 3 -1 1 0 1 2 3 2 3 -1 0 -1 -1 1 1 0 2 2 0 3 0 1 -1 1 -1 1 1 1 1 1 0 0 -1
1 -5 0 -6 -1 0 -1 0 0 -2 0 -1 -2 1 -2 0 0 -1 1 -1 -2 0 -1 0 0 -1 0 -1 -2 -4
-2 -3 -1 0 -1 0 -1 -1 -1 -1 -1 -2 0 -1 0 -1 0 -1 -1 1 -2 0 0 0 0 -1 1 -2 1
-2 -2 -1 -1 0 -2 -2 -1 -1 0 1 0 1 -1 -1 -1 0 1 -1 0 -1 2 0 2 1 -1 -2 0 -2
-1 -1 -1 -1 -3 -7 -4 -7 -2 -3 -1 -2 0 2 1 3 -1 1 -2 1 -1 0 -1 -1 0 -1 0 -2
-3 -5 -4 -5 0 -2 0 -2 -2 -1 -1 -1 1 -1 1 -1 -2 -8 -2 -7 -2 -6 -2 -5 -2 -1
-2 -2 -1 0 -1 0 0 1 0 1 -3 0 -3 0 0 3 1 4 0 3 1 3 1 3 2 3 2 6 1 6 1 1 1 1 0
2 1 2 -1 -1 -1 0 1 2 0 3 -1 -2 -2 -1 -4 -11 -3 -11 -2 -2 -2 -2 0 -1 0 0 -1
-3 -1 -2 1 -3 1 -2 0 -2 0 -2 -1 0 -1 0 1 3 0 3 -1 -2 -1 -2 -2 -7 -2 -6 -2 0
-1 -1 0 2 0 2 -1 1 -2 1 -1 0 -1 -1 -1 -3 -1 -3 -1 0 -1 0 -1 3 -1 3 -1 -1 -1
0 -1 3 -2 3 2 2 1 2 -1 0 -1 0 -1 1 0 1 1 0 2 0 0 1 0 1 -1 0 0 -1 -4 4 -4 4
0 1 0 2 -1 -2 -2 -2 0 2 -1 1 0 2 0 3 -1 0 -1 1 -2 -2 -2 -2 -5 0 -5 0 -1 -3
-1 -2 -3 -6 -2 -6 -1 0 -1 0 0 1 -1 1 -2 -1 -3 -1 0 -4 -1 -4 1 -8 1 -7 -1 -5
-1 -4 0 -6 0 -5 -1 -2 -1 -2 1 -1 1 -2 -1 -1 0 -2 1 0 2 0 0 1 0 2 0 1 0 1 1
1 2 1 1 -2 1 -2 0 -7 1 -6 -1 1 0 1 -1 0 -1 0 1 -2 0 -2 0 -6 0 -6 2 -1 1 -1
0 -3 -1 -3 1 0 1 0 0 -1 0 -2 2 0 2 -1 -1 -2 0 -1 1 1 2 1 1 -1 0 -2 2 2 2 2
1 -1 2 0 1 -3 1 -4 0 -2 0 -2 5 -9 4 -9 1 -1 1 0 3 -3 2 -2 3 -5 2 -5 1 0 1 0
-1 -4 0 -4 -1 -3 -1 -2 -2 0 -1 0 0 -2 0 -2 -1 0 0 0 -2 2 -1 2 0 -2 0 -1 -3
3 -3 3 0 1 0 1 -1 0 -1 0 0 1 1 2 -1 0 0 1 -1 1 0 1 0 4 -1 4 -3 3 -2 4 -2 0
-1 0 -3 1 -3 1 -1 3 -1 2 -1 -1 -1 -1 -1 1 -1 1 -2 -1 -1 0 -2 -2 -1 -1 1 -2
0 -1 -2 1 -1 0 0 -8 1 -7 1 -2 0 -2 -2 -1 -2 -1 2 0 2 1 0 -1 -1 -1 1 -2 1 -2
3 0 2 0 3 -3 3 -3 0 0 -1 0 1 -1 1 -2 -2 0 -1 -1 0 1 1 1 -2 1 -1 2 -2 0 -2 0
0 -5 1 -4 1 -1 1 0 0 -2 0 -1 2 0 2 1 -1 -2 0 -2 1 0 1 0 0 -1 -1 -1 1 0 2 0
-1 3 0 3 2 0 2 -1 -1 -3 0 -3 1 0 1 0 0 1 1 1 2 -2 2 -2 1 1 1 1 2 -2 1 -1 1
0 2 1 1 -3 2 -2 -1 0 -2 0 0 1 0 1 -1 0 -1 0 -3 -4 -2 -3 -1 -1 0 -1 1 0 1 0
2 2 2 2 0 -2 1 -2 -2 0 -1 0 0 -1 0 -1 2 -1 2 -2 0 -2 -1 -2 2 -1 2 0 -1 -3 0
-2 1 0 2 1 0 -2 0 -1 -2 1 -1 0 1 -1 2 -1 1 0 1 1 1 -1 0 -1 -1 0 -1 1 0 -1 0
-1 2 0 3 0 -1 -2 0 -1 1 1 2 2 0 -1 1 0 -1 -2 -1 -1 1 0 1 0 0 -1 0 -2 1 -1 2
-1 0 -3 -1 -3 1 0 2 -1 -3 0 -2 0 0 -1 0 -1 1 0 1 0 0 -2 1 -2 2 -1 2 0 -1 -1
0 -1 2 -2 2 -1 0 -4 0 -3 -3 1 -3 1 -1 3 -2 3 -1 0 -1 0 -2 -1 -2 -1 -1 -1 0
0 2 -3 2 -2 -2 -1 -2 0 1 -4 0 -3 2 -3 2 -3 -1 0 -1 0 -2 2 -2 2 0 1 1 2 -1 0
-1 0 -1 -1 0 -1 1 -1 1 -1 0 -2 0 -1 -2 0 -2 -1 -4 2 -4 2 -2 4 -3 4 0 1 0 1
-1 0 -2 0 0 1 0 2 -3 1 -2 2 0 2 0 3 -1 2 0 2 -1 0 -1 0 0 -1 -1 -1 -3 6 -3 7
-1 1 0 2 -1 3 -1 3 -1 0 -1 0 0 -1 0 -2 1 -1 1 0 -2 -2 -2 -1 -1 1 -1 1 1 0 1
0 0 1 0 1 -1 0 -2 0 -2 6 -3 6 -1 5 -1 6 1 4 2 5 -1 5 0 5 3 3 3 3 0 5 1 5 -2
6 -2 5 2 2 1 1 -1 6 0 6 -2 0 -1 -1 1 1 0 2 -1 1 -2 2 -2 0 -1 -1 -3 -1 -2 -1
0 -3 0 -2 1 -2 2 -1 0 -3 0 -2 1 -1 2 -1 1 -6 1 -6 -1 -4 0 -3 -2 -1 -2 -2 1
-2 0 -2 -1 0 -1 0 0 -9 1 -8 -2 -1 -1 0 0 -2 0 -1 2 -3 3 -3 1 -6 1 -6 0 -1 0
0 3 -6 3 -5 -1 0 0 -1 2 0 2 1 0 0 1 0 0 0 1 0 0 1 0 1 1 0 2 1 0 -4 0 -4 2
-6 3 -5 0 -3 1 -2 -2 4 -3 4 0 -1 0 -1 2 -4 3 -4 0 1 1 0 0 -2 0 -3 -1 -1 -1
0 -2 2 -2 3 1 -3 0 -2 1 -2 0 -1 -1 0 0 0 -2 -1 -1 -1 2 -3 2 -4 0 -1 -1 -1 2
-4 2 -4 -1 -1 -1 -1 2 -5 2 -4 1 -3 1 -2 -1 -2 -1 -2 1 -2 0 -1 2 -3 2 -2 0
-3 1 -2 4 -5 3 -5 2 0 2 0 1 1 1 1 4 -5 4 -5 2 -3 3 -3 5 -8 4 -7 0 -1 0 -1
-1 0 -1 1 1 -2 0 -1 2 0 2 1 4 -5 4 -5 1 -1 1 0 0 -2 0 -1 1 1 2 1 2 -2 2 -2
0 -1 0 -1 5 0 5 0 0 2 1 2 -2 3 -1 4 0 1 0 1 2 -1 3 0 2 -3 2 -3 1 1 1 0 0 -2
1 -2 3 -1 3 -1 3 -4 4 -3 0 0 1 0 -2 3 -1 3 -5 4 -4 4 0 1 0 1 2 0 2 -1 -1 2
0 1 2 0 2 -1 2 -1 3 0 2 -2 3 -3 2 -2 3 -2 6 0 5 0 1 2 1 1 1 -1 2 0 -1 -1 0
-1 1 1 2 0 2 -1 1 -1 1 0 0 1 4 -2 4 -2 0 -1 1 -1 3 -2 3 -2 -1 -1 0 -1 3 -1
2 0 0 -1 0 -1 2 0 1 1 1 -1 0 -2 2 0 2 1 1 0 0 1 2 0 1 0 -1 -1 -2 -1 0 -2 0
-2 -1 0 -1 0 0 1 0 2 -3 0 -2 0 -1 -3 0 -2 1 0 2 0 0 -1 0 -1 4 0 4 1 1 -2 1
-1 0 -1 0 -1 1 0 1 0 0 -1 0 -1 -3 1 -2 0 0 -1 1 -1 3 1 3 0 -1 -2 0 -1 0 0 1
0 2 1 2 1 1 -3 1 -3 2 0 1 -1 1 1 1 1 -1 2 0 2 -2 2 -2 2 2 2 1 2 1 -2 0 -1 1
0 1 0 0 1 0 2 -1 0 -1 1 1 1 2 2 2 0 1 0 -1 -2 -1 -2 0 0 0 -1 2 0 2 0 0 1 0
1 2 0 2 1 2 -1 2 -1 0 -2 0 -1 1 1 1 0 0 2 -1 1 3 1 2 1 1 0 0 0 0 -2 0 -3 1
0 2 -1 1 2 2 1 2 -1 1 -1 2 0 2 1 1 -2 1 -1 2 0 1 0 -1 2 -2 1 0 1 0 1 1 0 1
0 2 -2 2 -2 0 -1 0 -2 1 0 1 -1 0 1 0 2 2 0 1 0 0 -2 0 -2 1 1 0 1 2 0 2 0 0
-1 0 -1 3 -1 4 0 -1 1 0 1 2 0 3 1 0 0 1 0 -1 -1 0 -1 2 0 3 1 1 0 1 1 -1 1 0
1 2 -1 1 0 0 -2 -1 -1 2 -1 3 0 0 0 1 0 0 -1 -1 -1 2 -3 2 -2 1 0 1 0 3 -2 2
-2 1 1 1 0 1 -2 0 -3 2 1 3 0 -2 -1 -1 -1 1 0 1 0 1 0 2 0 0 -3 0 -3 1 1 1 0
0 -2 0 -1 -1 1 -1 0 -1 -1 0 -2 -2 1 -2 0 -4 3 -3 3 -1 0 0 -1 -4 2 -4 2 -3 2
-3 2 1 1 0 1 -2 0 -1 0 0 1 1 1 -2 0 -1 1 1 -1 0 -1 0 0 -1 0 -3 2 -3 1 -1 0
0 -1 1 -2 1 -2 1 0 1 0 0 -1 0 -1 -2 1 -2 1 -1 0 0 -1 3 -3 4 -3 2 -2 3 -2 5
-4 5 -4 2 -2 2 -2 2 -1 2 -1 3 -2 3 -2 2 1 1 1 1 -1 2 -1 1 0 1 0 0 0 1 0 3
-1 3 0 6 -1 6 -2 7 -1 8 -1 0 -1 1 -1 -1 -2 0 -1 1 0 2 1 0 -1 1 -1 2 0 3 0 0
-2 0 -1 1 -1 2 -1 -1 -2 0 -1 2 1 2 2 1 0 1 0 0 2 1 3 2 0 3 0 1 1 0 1 2 -2 2
-1 0 1 -1 1 1 1 2 1 1 -1 1 -1 0 -1 -1 -1 1 0 2 0 1 -1 2 0 0 1 0 1 -2 0 -2 0
1 1 2 2 0 1 0 1 4 0 4 0 -1 -1 0 -1 2 0 2 -1 0 -1 -1 -1 1 1 2 0 0 -1 0 0 1 0
1 0 -1 0 0 1 1 0 2 0 0 1 1 1 -1 -2 0 -1 1 0 0 -1 2 1 1 1 0 -1 0 0 1 -1 1 0
0 2 0 3 1 -1 2 -1 -1 -1 -1 -1 2 0 3 1 -1 -1 0 -2 -2 1 -2 0 1 -1 1 -1 5 -1 5
0 4 0 5 0 -3 -1 -2 0 1 -1 0 -1 4 0 4 0 1 -1 0 -1 -3 0 -2 0 -2 0 -1 0 1 -1 0
-1 -5 0 -5 1 -2 -1 -2 0 1 -2 0 -1 -2 0 -2 0 -2 0 -2 0 1 -1 0 -1 -5 0 -4 1 1
-2 2 -1 7 1 8 0 -2 -1 -1 -1 3 1 3 0 1 -1 1 -2 3 0 4 0 0 1 1 1 3 -1 4 0 1 -1
1 -1 0 1 1 2 -2 1 -2 1 -8 1 -7 0 0 1 0 1 1 0 2 1 6 -1 6 0 0 1 -1 1 3 0 3 -1
0 0 1 0 0 -2 0 -1 2 1 2 0 -1 -1 -2 -2 0 -1 1 -1 -1 -1 -2 -1 1 -3 2 -3 3 0 2
-1 2 2 2 2 0 0 1 0 0 -1 0 -2 4 0 4 0 3 0 3 0 3 1 3 0 1 1 1 1 0 2 1 3 -5 3
-5 3 0 1 0 1 3 1 4 0 6 3 6 3 1 -1 1 -1 3 2 4 1 0 1 0 1 -1 0 -1 -1 -2 1 -1 1
1 0 2 0 0 1 1 1 -4 0 -3 0 -4 0 -4 0 0 1 1 1 2 -1 3 0 0 2 1 1 -1 -1 -2 -1 0
1 -1 1 -1 -1 -1 0 -5 -1 -5 0 1 1 2 0 0 1 0 1 -1 0 -1 -1 -1 2 -1 3 -7 0 -7 0
-1 1 -2 2 -2 -2 -2 -2 -6 0 -5 0 -1 1 -2 1 -1 -1 0 0 0 1 1 1 2 0 2 0 2 2 2 1
1 0 2 0 2 0 2 0 -1 1 -1 2 -8 -1 -8 0 -2 2 -2 1 -1 -1 -1 -1 -4 1 -3 1 0 1 1
1 -2 0 -1 1 -2 2 -2 2 0 -3 0 -2 -2 1 -2 0 -1 1 -1 1 1 1 2 1 -1 -1 0 -2 1 0
1 0 0 1 0 1 3 3 2 2 2 0 2 0 0 3 0 2 -2 0 -1 0 0 1 0 1 4 1 4 1 0 2 1 2 1 1 2
0 2 -1 2 0 4 -1 5 0 1 1 0 1 -1 0 -2 0 0 2 -1 2 1 1 2 1 2 0 3 1 3 1 3 0 1 1
2 0 2 1 3 0 8 1 8 2 0 1 0 1 1 0 1 0 -1 -2 -1 -1 0 -1 1 0 2 1 2 2 3 0 3 0 0
-1 -1 -1 -3 -2 -3 -2 0 -1 0 0 1 -2 0 -2 -3 0 -3 0 -1 -1 0 -1 -3 0 -3 -1 -2
1 -1 1 0 1 -1 2 0 -3 0 -3 -4 1 -4 0 -1 -1 -1 -1 0 1 0 1 -6 0 -5 0 0 -1 1 -1
3 -1 3 0 3 0 4 -1 1 0 1 0 2 0 2 1 4 1 3 1 1 0 0 -1 3 1 3 1 2 1 3 0 6 0 6 1
1 1 1 0 3 0 2 1 2 2 2 1 -1 2 0 3 3 4 2 4 3 -1 3 0 1 1 2 1 1 -2 0 -1 0 -1 0
-1 2 1 1 0 0 3 0 2 1 1 2 1 5 3 6 2 2 2 2 3 2 2 3 3 0 1 0 1 -1 0 -1 0 1 1 0
1 -2 0 -2 -1 -5 1 -4 1 -4 -2 -3 -2 -2 0 -2 0 0 1 0 2 -2 -1 -1 -1 -3 3 -3 2
-1 -1 -1 -1 1 -1 1 -1 -1 -2 0 -2 -2 0 -1 1 1 -2 0 -1 -1 0 -1 1 0 -1 0 -1 -3
-2 -4 -1 0 -2 0 -1 -3 -1 -2 -1 -1 0 0 0 1 1 1 2 0 0 -1 0 -3 -2 -2 -2 -2 0
-1 0 1 1 0 2 -2 -3 -2 -2 -4 1 -3 0 -2 1 -2 0 0 -1 0 -2 -3 0 -2 1 -1 -1 -1
-1 -1 0 0 1 1 2 1 2 0 1 -1 0 -2 -1 -2 -1 -3 -1 -2 0 0 -1 0 -1 -3 -1 -3 0 -7
0 -6 -1 -1 0 0 -1 -2 1 -1 1 -1 -1 -2 -1 0 1 0 1 -4 0 -4 1 -1 1 -2 1 -2 -1
-2 0 1 1 2 1 -1 0 0 0 -3 1 -3 0 -3 1 -2 1 -3 0 -3 1 -4 1 -3 0 0 1 0 1 1 0 1
1 -1 2 -2 3 1 2 1 2 -2 0 -2 -1 -1 1 -2 2 -1 0 -1 0 0 1 -1 2 0 -2 0 -2 -1 0
-2 0 -2 3 -3 3 1 0 1 0 -3 3 -3 3 0 1 0 1 4 -1 4 0 0 1 -1 1 1 0 1 0 0 -1 0
-2 1 0 1 0 1 2 0 1 2 0 2 0 1 -1 0 -1 -1 0 -1 1 0 -1 -1 -1 3 0 4 -1 -2 -1 -2
-2 0 -1 1 -1 2 0 1 0 0 -1 0 -2 2 0 2 -1 1 1 1 0 -2 1 -1 0 1 1 0 1 2 -1 1 -1
0 -2 0 -1 -1 0 -1 -1 0 -1 1 -1 1 1 1 0 2 1 2 0 3 1 3 0 2 -1 1 -1 0 1 -1 1 1
0 1 0 2 -2 1 -2 2 1 1 1 0 2 0 1 3 0 3 -1 2 0 2 -1 2 0 2 -1 2 1 1 1 -1 1 -1
1 -3 0 -3 0 1 1 0 1 1 0 1 -1 0 1 1 1 -4 1 -3 2 0 1 1 0 2 0 2 1 1 0 0 1 -1 2
-1 2 -7 2 -6 2 -4 1 -3 1 0 1 0 1 -2 1 -2 2 -2 0 -3 -1 -1 1 -1 2 -2 0 -2 1
-2 -1 -1 -1 0 1 0 1 -4 1 -4 1 0 2 0 1 1 0 2 0 1 -1 1 -1 0 1 -1 1 2 0 2 0 5
-2 6 -3 1 -1 1 -1 1 1 2 1 -3 1 -4 2 -7 2 -7 2 0 1 0 1 3 -1 3 -1 1 1 1 0 -2
1 -1 0 0 1 0 1 2 -1 2 0 0 0 0 1 -2 2 -3 3 -2 0 -3 0 -4 2 -4 2 -4 2 -4 1 0
-1 0 0 3 -1 3 -2 -2 0 -2 0 2 -2 2 -2 5 -3 6 -3 -2 0 -2 1 -6 1 -6 1 -2 3 -2
2 -2 0 -2 0 -1 2 -2 1 -1 0 -1 0 -1 2 0 3 -2 2 -2 2 2 -1 2 -1 1 0 0 0 -7 4
-6 5 -1 2 0 3 0 1 -1 0 0 -1 0 -2 -1 0 -2 1 0 -1 0 -1 1 -1 1 0 -1 -1 0 -1 -1
0 -1 1 0 2 1 3 -3 3 -3 2 0 3 0 2 -1 1 0 2 -1 -1 -1 0 -3 1 -3 2 -3 2 -3 3 1
1 1 1 -3 1 -2 2 -4 0 -4 -1 1 1 0 1 2 0 1 0 0 2 0 1 -1 0 -1 0 -2 -2 -1 -1 -1
1 -1 2 0 0 -1 1 -1 0 -2 -1 -1 -2 -1 -2 2 -3 2 -4 -1 -1 -1 0 -1 0 0 1 -2 -1
-1 -1 0 1 0 0 -1 -1 -2 -1 1 -2 1 -2 0 0 -1 0 -3 1 -2 1 1 2 2 1 -5 -3 -5 -3
0 -1 0 -1 1 0 2 1 -1 -2 0 -2 -2 1 -1 1 -2 0 -2 1 0 1 1 2 -2 0 -1 1 -1 -1 -1
0 2 -3 1 -2 0 -1 -1 0 0 2 -1 2 -1 0 -1 0 1 -2 1 -2 -3 0 -2 1 -1 1 0 1 1 0 2
0 -1 1 0 1 1 1 2 0 0 2 0 2 -4 1 -4 2 -1 2 0 2 -1 -1 -1 -2 -2 2 -3 3 -1 0 -1
0 -5 5 -4 4 -2 0 -1 0 0 2 -1 2 -2 0 -3 0 0 2 -1 1 -1 0 -1 -1 -2 2 -2 2 1 1
2 1 -2 0 -1 -1 -5 4 -4 4 -3 3 -2 4 -2 2 -1 2 -2 3 -3 4 1 1 2 0 -1 3 -2 4 1
1 1 2 -1 0 -1 0 0 2 0 1 -2 3 -1 3 -2 2 -1 1 0 1 0 1 -1 -1 -2 0 0 1 0 1 -1 3
-1 3 0 0 -1 1 -1 3 -2 3 0 0 0 1 -1 2 0 2 -2 0 -1 0 0 2 -1 2 -1 0 -2 1 -3 6
-2 6 -1 0 -1 1 0 1 1 1 -1 -1 -1 0 -1 -3 0 -2 2 0 2 0 -1 -3 0 -3 2 -1 2 0 1
-2 1 -1 0 -1 -1 -1 3 -6 3 -5 0 0 0 -1 -4 1 -3 0 0 1 0 2 -2 2 -1 2 -2 3 -2 3
0 2 0 2 -2 6 -1 6 1 1 1 0 -1 2 -1 2 1 0 1 0 -2 1 -1 1 -2 5 -2 5 -1 -2 -1 -1
1 -3 0 -3 1 -1 1 -1 1 -6 0 -5 -2 3 -3 3 0 1 0 1 -2 1 -2 1 0 3 0 2 -1 0 -1 0
-1 2 0 3 0 1 0 2 -3 4 -2 4 0 6 0 6 0 1 0 2 4 -1 3 0 0 1 -1 1 1 0 2 0 0 2 -1
2 0 1 -1 1 2 2 1 2 0 3 1 3 -2 1 -2 2 1 1 0 2 -1 0 -2 0 -1 2 -1 2 -1 0 -2 0
0 1 -1 2 1 0 1 0 1 1 0 1 -3 -1 -3 0 -1 1 0 1 -1 5 0 5 -2 3 -2 2 0 2 0 3 -1
2 -1 3 1 1 1 0 -1 2 0 2 -2 2 -2 2 0 2 0 2 -2 4 -2 3 1 4 1 4 -1 1 -1 1 -2 0
-2 0 -1 1 0 1 1 0 1 0 0 2 -1 2 1 0 1 1 0 1 0 1 -2 2 -2 1 0 3 0 2 1 0 1 0 0
-1 -1 -2 1 0 2 0 1 1 1 1 -1 2 0 1 2 2 2 1 -1 0 -1 0 1 1 1 2 -1 2 -1 2 -2 0
-1 0 0 2 -1 2 1 1 2 2 2 7 2 7 0 1 0 1 2 0 2 0 0 2 0 3 -1 1 -1 1 3 9 3 9 1 2
1 1 -1 1 0 1 1 0 1 -1 0 1 0 2 2 4 1 3 1 -1 1 -1 0 1 1 2 -1 1 -1 0 1 1 0 1 1
0 1 0 -1 -10 0 -9 1 -3 2 -3 0 -2 0 -1 1 0 1 0 0 -5 1 -5 1 0 1 1 0 -2 1 -1
-1 -3 -1 -2 2 -2 1 -2 2 1 1 1 1 -1 1 -1 1 -2 0 -1 0 -2 0 -1 2 -2 2 -1 2 1 1
2 1 0 0 -1 -1 -1 -2 -1 1 -3 2 -2 1 0 1 0 1 3 2 4 1 -1 2 0 0 -1 0 -1 -1 0 -1
-1 0 -8 1 -8 1 -2 2 -1 0 -3 -1 -3 -1 1 -1 0 0 -1 1 -1 -1 -1 0 -2 -2 0 -1 1
0 -3 0 -2 1 0 2 0 1 -1 1 -2 -1 0 -1 -1 1 0 1 0 -1 -5 -1 -4 -1 -3 0 -3 -1 -1
-1 0 0 -4 0 -3 -1 0 -1 0 -1 1 -1 2 -2 -3 -2 -2 0 -3 0 -3 1 -2 1 -2 2 0 2 0
-1 -2 0 -1 -1 1 -1 2 0 -3 1 -2 -1 0 -1 0 0 -2 0 -1 1 -1 2 0 0 -2 0 -1 -1 0
-2 0 0 -2 0 -2 2 -3 1 -4 0 -1 -1 0 -1 1 -2 1 0 2 0 2 -3 4 -3 5 0 1 0 2 -1
-2 -1 -1 -2 0 -2 0 -1 -2 0 -1 1 -1 1 -1 0 -3 0 -3 0 -9 0 -9 1 -1 1 -1 1 -2
2 -3 0 -3 1 -4 1 0 1 0 0 -1 0 0 0 -2 1 -2 1 1 2 0 1 -3 2 -2 0 -2 -1 -1 1 0
1 0 1 -2 0 -2 2 0 1 0 1 -2 0 -2 3 -3 2 -2 -1 0 0 -1 1 1 2 0 0 -1 0 -2 -1 -1
-1 -1 0 -5 1 -5 0 -3 1 -2 4 -6 5 -5 -1 -2 0 -2 1 -1 1 0 5 0 4 -1 0 1 0 2 1
-2 1 -1 3 -1 3 -1 0 -1 1 0 1 0 1 0 1 -3 2 -4 4 -1 3 -2 1 0 2 0 1 3 1 3 2 2
1 1 2 -3 1 -3 1 0 2 0 2 -4 3 -4 3 -4 3 -3 -1 2 0 3 -2 2 -1 3 0 1 0 1 2 -1 3
-1 0 -2 1 -1 1 0 1 0 0 2 -1 2 2 -1 2 0 0 -1 0 -1 1 0 0 1 2 -1 2 -1 2 -3 1
-3 1 0 1 1 0 2 -1 2 -1 2 -1 3 -1 1 0 2 1 0 1 0 1 -2 1 -1 1 0 2 0 -2 1 -1 0
0 2 0 1 2 0 2 0 1 1 0 1 3 0 3 -1 0 1 1 1 1 0 1 0 3 -3 2 -2 1 0 0 1 -1 2 -1
2 2 4 3 4 -2 7 -2 7 1 1 0 0 3 -2 3 -2 1 0 0 0 2 -2 2 -1 0 1 0 1 1 0 1 -1 3
-6 3 -6 5 -5 5 -5 0 1 0 1 3 0 3 -1 1 2 2 1 2 0 1 -1 2 -5 2 -4 0 -2 -1 -2 1
0 1 0 0 -2 1 -2 4 -3 3 -4 2 0 1 -1 2 -2 2 -3 -1 -1 -1 -1 -3 2 -2 2 -2 1 -1
1 -1 0 0 1 -6 3 -6 4 -1 -2 -1 -2 2 -2 2 -2 0 -1 0 -1 4 -4 5 -5 1 0 0 0 -2 2
-1 2 0 1 1 0 2 -1 3 -1 7 -5 6 -5 -1 -2 0 -2 3 -2 2 -2 3 -3 2 -4 4 -3 4 -2 1
-5 0 -4 1 -4 2 -3 5 -2 5 -1 6 -1 6 0 1 0 2 0 2 -2 2 -2 0 -1 0 -1 2 -1 2 -1
3 0 3 0 1 -2 2 -1 0 -1 0 -1 3 0 3 0 0 -1 0 -2 2 -1 2 -1 2 0 2 0 1 2 0 2 3 1
2 1 0 -1 1 -1 3 2 3 2 5 1 5 1 1 0 1 0 2 1 2 2 -1 1 -1 2 1 0 2 0 1 -1 2 0 0
-1 0 -2 2 0 3 0 13 0 13 0 2 1 2 1 -2 2 -1 1 1 0 2 -1 2 2 1 1 -8 0 -7 -1 -10
0 -9 0 -2 2 -2 2 -5 0 -5 0 -2 1 -1 1 1 1 2 1 -3 0 -2 0 0 1 1 1 -1 1 -2 1 0
-1 -1 0 -2 1 -1 1 2 0 3 1 1 0 1 0 2 0 3 1 4 0 4 1 3 1 3 1 0 2 -1 2 2 1 3 1
5 0 5 -1 4 -2 3 -1 6 0 6 0 1 -1 2 0 -1 -2 0 -1 5 0 6 1 0 -1 -1 -1 5 0 5 1 8
3 8 2 2 2 2 1 -1 1 0 2 3 2 2 2 1 0 1 0 7 6 7 5 0 1 0 2 2 2 2 3 0 0 0 1 -2
-2 -3 -2 -1 0 -1 0 -3 -3 -4 -3 0 1 0 2 2 1 1 2 -1 0 0 0 1 2 2 2 0 3 -1 2 5
5 4 4 0 1 0 1 2 1 2 0 0 1 0 1 -2 -1 -1 -1 -1 0 0 1 1 0 1 0 0 2 0 1 -2 0 -2
-1 0 0 0 1 2 2 2 2 0 1 0 1 -1 0 0 0 -2 -2 -2 -1 0 1 1 1 -2 -1 -2 -1 0 -1 0
-1 -5 -3 -5 -4 -12 -5 -12 -5 -3 0 -3 -1 1 1 1 0 0 1 0 2 -2 -3 -2 -2 -2 0 -2
-1 -10 0 -10 -1 -2 1 -1 1 -2 1 -2 0 -7 2 -6 2 -5 0 -4 0 0 -3 0 -2 -1 0 -2
-1 -1 1 0 1 0 1 1 1 -3 0 -2 0 0 -1 0 -1 -1 -1 -2 -2 -3 0 -2 0 -3 2 -2 2 0 0
1 1 2 -2 3 -1 1 0 0 0 0 1 0 1 -5 2 -5 3 0 1 -1 1 1 0 1 -1 3 1 2 2 1 -1 1 -1
1 0 2 1 1 -1 0 -1 2 1 1 0 0 -1 0 -1 2 0 3 1 -1 1 0 1 -4 2 -3 3 -3 0 -2 1 1
-2 0 -2 -1 1 -1 1 0 2 0 2 -3 1 -2 0 0 1 0 1 -1 0 -2 1 1 -3 1 -2 -1 -1 -1 0
-2 2 -3 1 -1 0 -1 -1 -3 4 -3 3 -4 2 -4 2 0 1 0 1 1 0 1 0 2 -2 2 -2 1 0 1 0
-1 2 0 1 -2 1 -2 1 0 1 0 1 2 0 2 0 0 -1 -1 -1 1 0 2 0 -2 4 -2 5 -2 2 -1 3
-2 0 -2 1 0 2 0 1 -1 1 -2 0 -2 4 -2 3 0 3 1 2 2 0 2 0 0 1 0 1 2 0 1 0 0 1 0
1 -1 1 -1 0 0 2 0 2 -2 0 -1 0 -1 3 -1 2 0 3 0 2 -1 0 0 0 -1 0 -1 0 1 1 1 1
-1 3 -1 4 1 1 1 1 -1 2 0 1 -2 0 -1 0 0 -1 0 0 1 -4 1 -4 -1 -1 -1 -1 0 -2 -1
-2 -1 -3 0 -2 1 -1 2 0 0 -1 0 -1 -2 1 -1 0 -3 4 -2 3 1 1 2 1 -2 0 -2 0 0 1
1 0 -2 2 -1 2 0 2 1 1 -1 2 -1 1 1 0 1 0 0 1 0 1 -1 0 -1 -1 0 1 0 1 3 1 2 1
2 -2 1 -1 1 2 1 2 1 -1 2 -1 0 3 0 3 -2 -1 -1 -1 0 1 0 2 1 7 1 7 1 3 1 4 2 0
1 1 2 -2 1 -1 1 5 1 4 -1 1 0 0 0 -1 0 -1 -1 1 -1 0 0 -1 0 -2 -1 0 -1 1 1 2
1 3 0 2 0 2 -1 0 -1 0 -1 -1 -1 -1 0 4 1 4 0 1 1 2 0 1 1 2 1 0 2 0 2 2 3 3
-1 1 0 2 1 0 1 0 0 3 0 2 2 1 2 0 2 2 2 2 -1 -3 -1 -4 -1 -2 -1 -1 1 0 1 0 3
5 3 5 0 0 0 1 -2 -1 -1 0 1 2 0 3 3 3 2 4 2 1 2 2 -1 1 0 1 2 1 2 0 0 0 1 1 5
4 6 4 0 1 0 1 1 0 0 -1 5 2 4 1 3 2 2 3 0 -2 -1 -1 1 1 2 0 2 0 2 0 3 1 3 2 4
1 5 0 -1 -1 -1 -1 -6 -1 -5 -2 -3 -1 -3 0 -4 -4 -4 -3 1 0 1 0 2 2 2 1 1 0 1
0 3 0 4 1 1 1 1 1 4 1 5 1 4 -2 4 -1 -1 -1 0 -1 -1 1 0 1 -1 0 -1 0 0 -2 -1
-2 0 -1 0 0 1 -2 0 -2 -1 0 -2 0 0 -1 0 -1 -1 0 -2 0 0 -1 -1 -1 0 1 0 1 -1 0
-2 0 0 1 -1 1 1 -2 0 -1 -2 0 -1 0 0 -1 0 -1 2 1 2 1 0 -2 0 -2 3 1 2 0 0 -1
0 -1 1 -1 2 -1 2 0 2 0 1 0 1 1 1 0 0 -1 -1 -1 -2 -2 2 0 3 -1 -2 -1 -1 -1 3
0 3 1 1 -2 0 -2 4 -2 5 -2 4 2 4 1 0 1 1 2 0 -2 0 -1 5 -1 4 -1 1 1 1 0 0 -1
0 -1 2 0 1 0 0 1 0 1 1 0 1 0 -1 -2 -1 -2 2 0 2 1 0 -1 0 -1 3 -1 3 0 0 -1 1
-1 0 -3 0 -2 3 -1 3 -1 0 -1 0 -1 -1 0 0 0 -5 3 -4 2 -2 0 -1 0 -4 2 -3 2 -6
1 -5 0 1 -1 2 -1 8 -2 8 -2 1 -2 2 -2 -2 1 -2 0 1 -1 2 -1 1 0 2 0 2 -3 3 -2
0 -2 0 -2 3 -3 3 -3 0 -1 0 -1 2 -2 3 -3 3 -2 4 -2 2 0 1 0 4 -3 5 -3 0 -1 0
-1 1 1 1 0 2 -1 2 -1 5 -1 5 -1 -1 3 0 2 -2 3 -2 4 -4 3 -5 4 -6 6 -6 6 1 1 2
2 3 -3 3 -3 3 0 2 1 1 -3 0 -2 2 0 2 1 0 -1 1 -2 -1 0 0 0 -2 0 -1 0 0 -1 0
-1 3 -1 2 -1 2 1 2 2 0 0 1 0 0 -3 0 -3 3 -3 3 -2 0 -1 0 -1 1 -1 1 0 -1 2 -1
2 0 1 0 1 2 -2 2 -2 -1 -3 -1 -3 3 -3 2 -2 5 -6 6 -6 1 -2 1 -1 2 1 3 2 2 -1
3 0 2 -4 3 -4 2 -4 2 -4 2 0 1 0 5 -4 4 -3 2 1 2 2 2 -2 1 -2 2 -2 1 -2 0 -1
0 -1 1 0 1 -1 -1 -2 -1 -3 1 -1 0 -1 -1 0 -1 0 -2 0 -1 0 -1 -3 -1 -2 1 -3 0
-2 2 -1 2 -1 0 1 -1 1 2 0 1 1 0 -2 0 -1 2 -2 1 -1 0 -2 0 -2 -2 1 -1 2 -1 0
0 0 -2 -1 -2 -1 0 -1 -1 -2 3 -6 2 -5 1 -1 2 -1 0 0 1 0 2 4 1 4 1 0 1 1 -1 1
-1 2 -1 2 0 3 0 0 1 0 2 -2 1 -1 1 1 1 2 1 -4 1 -3 3 0 3 1 1 1 1 2 1 -2 2 -2
1 0 2 0 1 2 2 3 0 0 0 1 -2 0 -1 0 2 2 1 2 2 0 1 0 0 -1 0 -1 2 1 2 0 0 -1 0
-1 4 0 4 0 0 -2 0 -2 -3 -2 -2 -1 0 -2 -1 -2 -1 2 -1 3 -1 0 -1 0 0 -2 0 -1 2
-3 3 -3 2 -1 2 -1 3 0 4 0 0 1 0 1 1 0 1 -1 0 -12 -1 -12 0 -3 -1 -3 -1 -7 -1
-6 -2 -8 -2 -8 -2 -2 -1 -3 -1 0 -1 0 1 -3 0 -3 -1 0 -1 0 0 -2 0 -1 -1 1 -2
1 0 -4 0 -5 -3 -7 -3 -7 -2 1 -2 0 0 -2 1 -2 -1 0 -1 0 -1 -2 -1 -3 -1 0 -1 0
1 1 0 1 -1 0 -1 0 0 -1 -1 -1 -2 0 -2 0 0 -2 -1 -1 -1 0 -1 1 -1 -1 -1 -2 -1
-2 0 -2 -2 -3 -1 -2 0 -3 1 -3 -2 -1 -1 -1 0 -2 0 -2 3 3 3 3 2 3 3 4 1 1 2 2
1 0 1 -1 -2 -1 -1 0 0 -1 0 -1 -2 -2 -1 -1 1 -1 1 0 -1 -4 0 -3 2 4 2 4 1 0 1
0 1 -1 1 -1 -4 -7 -3 -8 -4 -4 -4 -5 0 0 0 -1 -3 -6 -4 -5 -2 0 -2 1 0 -2 0
-2 -1 -3 -1 -3 1 -1 1 -1 -1 0 -1 0 -2 -3 -1 -2 3 2 3 3 0 -1 0 -1 -1 -1 -1
-1 1 0 1 1 1 2 1 2 -1 0 -1 -1 0 1 0 1 4 3 4 4 5 8 5 9 0 0 0 1 5 8 4 8 -1 2
0 2 1 0 1 -1 -1 2 -1 2 0 2 0 2 1 -2 1 -1 0 1 1 1 -1 1 -1 1 -1 -1 -1 0 2 3 3
3 1 0 0 0 -1 -2 0 -1 -1 -1 -1 -1 1 0 1 -1 2 5 2 5 6 5 6 6 0 -1 0 -1 -1 -2
-2 -1 0 -2 0 -1 2 3 2 4 0 4 -1 5 2 5 1 5 3 6 2 6 2 6 3 7 1 6 0 6 1 1 1 2 1
9 2 9 0 4 0 3 -1 0 -1 0 0 -2 0 -2 0 -4 -1 -4 0 -2 0 -2 -1 1 -1 2 0 9 0 9 -1
0 -1 1 0 2 0 2 1 -2 1 -1 -1 6 0 5 1 1 0 1 1 -2 1 -1 -1 5 0 5 1 1 2 1 -2 0
-2 0 1 6 0 7 -1 6 -2 7 2 -1 2 0 -1 3 0 4 0 1 0 1 -1 -1 -1 -1 -2 1 -1 0 0 -1
0 -2 1 0 1 -1 0 1 0 2 1 -2 1 -1 0 -1 0 -1 -2 1 -1 0 -2 0 -1 0 1 1 0 1 -1 3
-2 3 1 4 0 4 -1 -2 0 -2 -1 0 -1 1 -1 2 -1 3 -2 8 -2 9 -1 0 -1 1 0 2 1 2 -1
2 0 1 -2 -1 -2 0 -2 4 -1 3 0 1 1 0 1 -2 1 -3 1 0 2 0 0 1 1 2 1 -3 1 -3 2 -2
1 -1 0 -2 0 -1 0 -3 0 -3 1 0 1 0 1 -4 1 -4 1 0 1 0 0 4 -1 5 -1 4 -1 4 0 1 1
2 -4 7 -4 8 0 3 0 4 -1 1 -1 1 1 2 2 1 2 -1 2 -1 1 1 1 0 0 1 0 1 1 1 2 0 3
-3 2 -2 1 -3 0 -3 1 1 1 0 -1 3 -2 4 2 -1 1 0 1 2 0 1 2 -2 2 -2 0 1 -1 1 1 2
1 2 2 0 2 0 1 1 2 2 0 0 0 1 -2 0 -2 -1 0 1 0 1 1 0 2 0 0 1 0 2 -2 -1 -1 0 1
2 0 1 -1 2 -2 1 1 2 1 3 -1 0 0 0 -5 2 -4 3 -1 2 0 3 -1 1 -1 0 0 -1 0 -2 -1
0 -1 0 0 2 -1 1 1 -1 1 0 0 1 0 1 -1 1 -1 0 1 1 0 1 -1 0 -1 -1 -2 2 -1 1 2 0
3 -1 -2 1 -2 2 -1 -1 -1 0 1 1 0 2 -3 1 -3 1 -1 0 0 -1 -2 1 -2 1 -1 0 -1 1
-3 3 -3 3 -5 1 -5 0 -1 1 -2 1 0 2 0 1 -1 1 -2 1 -2 4 -2 4 2 2 2 2 -1 1 0 1
2 2 3 2 -1 1 0 1 -2 0 -2 0 1 1 2 1 -4 3 -3 3 -1 2 0 3 -1 0 -1 0 0 1 0 1 0 1
0 1 -3 3 -4 4 0 -1 0 0 -3 3 -3 3 -2 -1 -2 -1 0 -3 0 -2 -1 0 -2 0 0 2 0 2 -1
-4 -1 -3 -1 0 -1 0 -2 -2 -2 -1 0 1 0 2 -1 0 -1 0 0 -1 -1 -1 3 -3 3 -3 -1 -2
-1 -1 -2 2 -3 1 0 -1 -1 0 -1 1 -1 1 -5 1 -4 0 -1 1 0 1 -3 0 -2 0 0 -2 0 -1
-1 -1 -1 0 0 1 0 1 -2 0 -2 1 -3 -2 -2 -1 -2 2 -1 1 -1 0 -1 -1 0 1 0 1 1 2 2
3 -2 1 -2 1 -2 0 -2 0 0 2 1 1 0 1 0 0 1 0 1 -1 -1 1 0 2 -2 0 -1 0 0 3 1 3 0
0 0 1 2 0 3 1 -4 2 -3 2 0 1 0 1 -1 0 -2 0 0 -1 0 -1 -1 0 -1 0 0 1 1 2 -2 -1
-1 0 1 1 0 2 -1 0 -1 0 0 -1 0 -1 -2 2 -2 2 -1 0 -2 0 -3 4 -2 3 -3 0 -4 -1
-5 3 -4 2 -1 0 0 0 1 -1 0 -1 -1 0 -2 1 -1 0 -2 0 -2 2 -2 2 0 2 1 1 -1 0 -1
-1 0 2 -1 1 -2 0 -1 0 -2 0 -1 1 0 0 0 -1 -2 2 -2 2 0 2 -1 2 4 1 3 2 -1 1 0
2 1 0 1 0 0 -1 1 -1 3 1 4 0 0 1 0 1 -3 1 -2 0 -2 1 -1 0 1 1 0 2 -2 1 -3 1 1
1 0 1 -1 0 -2 0 0 1 0 1 1 1 1 1 -1 0 -1 0 0 3 0 3 -2 2 -1 2 -2 0 -1 0 0 -1
0 -1 -1 1 -2 1 0 1 1 1 -3 0 -3 0 0 -2 0 -1 -1 0 -2 -1 0 1 -1 2 -2 -2 -1 -1
-1 -3 -1 -3 -2 0 -2 -1 -2 1 -2 1 0 1 0 1 -2 0 -1 -1 -7 -2 -6 -2 0 1 0 1 -5
0 -4 -1 -2 1 -1 0 1 1 0 1 -1 0 -2 0 1 3 0 3 1 -1 1 0 0 2 0 3 1 0 0 1 3 -1 2
-2 3 -2 4 -2 1 1 2 1 5 0 5 0 6 4 6 5 5 0 6 0 3 0 4 0 0 1 0 1 3 0 3 -1 -2 1
-1 1 2 0 2 1 -3 0 -3 0 0 2 -1 1 4 0 3 0 2 0 2 0 2 0 1 0 0 -1 0 -2 -2 0 -2
-1 2 0 2 0 -1 -1 -1 -2 3 -1 3 -2 0 -2 0 -2 0 -1 1 0 -2 -1 -2 0 -2 -2 -2 -1
0 -2 1 -1 3 -3 4 -3 0 -2 1 -2 2 0 2 0 1 -1 1 -1 4 0 3 0 2 3 1 4 2 2 1 1 1
-1 1 0 -1 3 0 3 3 0 4 0 2 -2 3 -2 6 0 7 1 4 4 4 4 -2 0 -2 0 -2 3 -2 3 1 1 0
2 1 0 1 0 1 -1 0 -1 1 0 1 0 -1 2 0 1 2 0 2 -1 1 2 0 2 2 1 3 0 0 3 0 2 -2 1
-2 2 -1 1 -1 1 -2 2 -2 2 -3 1 -2 1 0 2 1 1 -2 0 -1 0 -2 3 -2 4 -4 1 -3 0 -5
2 -4 1 0 1 0 2 0 0 0 1 -2 0 -3 -1 -2 1 -2 1 -3 -2 -2 -1 -11 0 -11 1 -1 1 0
0 -1 2 0 3 0 1 0 1 -2 0 -1 0 1 1 0 2 -1 -2 -2 -2 -5 0 -6 1 -1 -2 -2 -2 -1 0
-1 0 -1 -2 -2 -2 -2 0 -1 0 -1 -1 -1 0 -2 0 -1 0 0 -1 1 -1 -3 -1 -2 -1 -1 -3
-2 -3 -6 0 -6 0 -2 -1 -2 -2 0 -1 0 -1 -2 0 -1 0 1 -1 2 0 2 -2 2 -2 -1 0 -1
-1 -9 1 -8 0 -3 -1 -2 -1 -6 -1 -5 -1 -5 -3 -4 -3 -3 -3 -2 -3 -3 0 -2 0 0 2
0 1 -2 0 -2 0 -1 -2 -1 -1 -1 0 0 1 2 2 1 3 -1 1 -1 1 1 1 1 0 -1 2 0 1 2 0 2
-1 3 3 3 2 0 -1 0 0 1 1 2 1 3 1 4 1 0 1 0 1 1 0 1 -1 2 2 3 3 0 1 0 2 2 1 1
2 -1 -3 -1 -2 1 0 1 -1 0 1 0 1 1 2 0 2 -2 0 -2 0 1 1 0 1 3 0 3 -1 1 0 0 -1
-1 -1 -1 -1 1 0 2 0 0 3 -1 2 3 0 3 0 1 1 0 1 1 0 1 -1 -1 2 0 2 2 0 2 0 -2 1
-1 0 -2 2 -2 2 0 1 0 2 2 2 2 3 1 3 2 3 2 0 2 -1 0 1 -1 1 2 2 2 2 0 -1 1 0 2
0 2 1 0 2 0 1 3 0 3 0 2 -2 1 -1 1 1 1 1 5 0 6 0 1 -1 1 -1 0 1 0 1 9 0 8 0 3
-2 3 -2 7 -1 8 -2 3 1 2 0 0 3 -1 2 1 1 2 0 -1 2 -1 2 0 1 -1 2 -1 -2 -2 -1 2
-1 1 -1 -1 0 -2 -1 0 1 -1 1 -7 1 -6 0 -9 1 -8 1 -6 -1 -6 0 0 1 0 1 3 0 3 1
-3 1 -2 1 0 1 0 2 1 0 1 1 0 2 1 3 0 0 0 0 2 -1 3 -1 1 1 1 0 -2 2 -2 2 2 0 2
1 -1 3 -1 3 -2 0 -1 1 1 2 0 2 1 0 1 0 6 0 6 1 0 -2 1 -1 0 1 0 2 7 0 8 1 6 0
7 1 1 -1 0 -2 3 1 3 1 2 -1 1 -1 2 1 1 2 0 1 0 1 3 0 2 -1 1 2 1 2 -2 0 -1 1
1 1 0 1 4 0 3 -1 3 1 3 1 0 1 0 1 1 1 0 2 -4 1 -3 2 2 1 2 1 -1 2 -1 2 -1 0
-1 0 0 -1 0 -1 -1 0 0 1 -2 -1 -1 -1 -2 -1 -1 0 -1 2 0 1 -2 0 -2 0 1 2 0 1
-1 0 -2 -1 -2 1 -2 1 -1 -1 0 -1 -1 0 -2 1 -1 -1 -1 -1 -1 1 0 2 -2 -1 -1 0 0
-1 0 -2 -4 -2 -4 -3 -1 0 -1 0 0 2 0 1 -1 0 -2 0 0 -1 0 -1 -2 0 -2 0 -2 1 -1
1 1 2 2 2 0 0 0 1 -1 0 -1 0 0 -1 0 -2 -1 0 0 0 -3 2 -2 1 -4 -1 -4 -2 -1 2
-2 2 0 1 0 1 -1 2 -2 1 0 -2z m-140 -59 l-1 -2 1 0 1 0 0 -1 -1 0 -1 1 -2 0 0
2 0 2 2 0 1 0 0 -2z m125 2 l0 -1 -2 -1 -2 -2 -1 2 -1 2 3 0 3 0 0 0z m-297
-3 l0 -2 -1 -1 -1 0 -1 1 -1 2 -1 -1 -1 0 0 1 0 1 1 0 2 1 1 0 2 0 0 -2z m297
-1 l0 -1 -1 0 -1 0 0 1 0 1 1 0 1 0 0 -1z m-299 -12 l0 0 -3 0 -2 0 1 1 1 1 2
-1 1 0 0 -1z m244 -24 l0 -1 -1 -1 -1 0 0 2 0 1 1 0 1 -1 0 0z m1 -5 l0 -1 -1
0 -2 -1 1 2 0 1 1 0 1 0 0 -1z m7 -3 l-1 -1 -1 -1 -1 0 1 1 1 0 -1 1 0 1 1 0
1 0 0 -1z m-217 -3 l0 -1 -1 0 0 -1 -2 1 -1 0 1 1 2 1 0 0 1 0 0 -1z m-1 -7
l-1 -1 -1 0 -1 0 1 1 2 1 0 0 0 0 0 -1z m-2 -4 l0 -1 1 0 1 -1 0 1 0 1 1 0 2
1 -1 -2 0 -1 -2 -3 -1 -2 1 -2 2 -1 -1 -1 -1 -2 -3 1 -2 0 0 -1 0 -1 -3 -3 -3
-3 0 -2 1 -1 -1 0 -1 0 0 2 -1 1 1 0 1 0 0 1 0 2 2 2 2 2 -1 0 -1 1 2 4 2 4 1
0 1 1 0 3 -1 2 1 -1 2 0 -1 -1z m271 -2 l0 -1 2 0 2 0 -2 -2 -2 -1 -3 0 -2 0
0 -1 0 -1 -3 1 -3 0 2 2 3 1 -2 0 -2 0 1 1 1 1 3 1 4 1 1 0 1 -1 -1 -1z m-86
1 l0 -1 -1 0 -2 -1 0 1 0 1 2 0 1 0 0 0z m93 -3 l0 -1 -1 0 -2 0 0 2 0 1 1 0
1 -1 1 -1z m-271 -2 l0 -2 -1 1 -1 2 1 1 0 1 1 -1 1 -1 -1 -1z m161 1 l0 -1 2
1 2 1 3 -1 3 -1 0 -2 0 -1 -2 -1 -1 -2 -4 -2 -3 -2 0 -2 0 -2 1 0 1 0 2 1 2 2
4 1 4 1 2 0 2 0 0 -3 0 -2 5 1 6 0 3 2 4 2 0 -2 0 -2 -4 -2 -3 -3 0 -2 0 -1 0
-1 1 -1 -2 -2 -2 -3 -2 0 -1 0 -4 -4 -4 -4 -1 1 0 0 1 -1 0 -2 1 1 2 1 2 1 3
1 0 0 0 -1 -4 -3 -4 -3 -4 -1 -3 -1 -3 -2 -2 -3 -2 -1 -2 0 0 -3 -1 -2 -2 0
-1 0 -4 -1 -4 -1 -2 -2 -2 -1 -5 -3 -6 -3 -1 0 -1 0 -1 5 -1 5 0 2 1 2 3 3 3
3 -1 3 0 3 2 1 3 0 1 3 1 2 1 0 1 0 -1 4 0 4 -2 0 -1 1 0 2 0 1 -2 0 -2 0 -3
-3 -4 -4 -1 1 -1 2 2 2 1 2 0 3 -1 4 2 2 1 3 2 0 1 0 2 -2 1 -2 2 2 2 2 0 1 0
1 -2 0 -2 -1 0 1 0 1 2 0 2 1 0 -1 1 0 4 -1 4 0 0 2 0 1 -1 0 -1 0 0 1 0 1 2
0 2 -1 0 1 0 1 1 -1 2 0 -1 0 -1 1 1 2 1 2 2 -1 3 0 0 -1z m120 0 l-2 -1 -2 0
-3 -1 0 1 0 2 0 0 1 1 4 -1 3 0 -1 -1z m29 0 l0 -1 -2 0 -2 0 0 1 0 1 2 0 2 0
0 -1z m8 0 l2 0 -1 -1 0 -1 -2 0 -1 0 0 2 0 1 0 0 1 0 1 -1z m-100 -13 l0 -1
-1 0 -1 -1 0 1 -1 1 1 0 2 0 0 0z m2 -6 l-2 -3 2 0 3 -1 -2 -1 -2 -1 -1 2 -1
1 -6 -3 -6 -3 1 -1 0 -1 -3 -1 -4 -2 0 -2 0 -1 -4 0 -3 -1 -1 0 0 1 3 2 3 3 7
4 7 3 3 3 4 3 1 0 2 1 0 0 0 0 -1 -2z m-316 -4 l-1 -2 -1 -1 -1 -1 -1 1 -1 1
2 2 1 1 0 1 0 1 1 0 1 0 0 -3z m298 -1 l0 -1 -4 -2 -4 -2 0 1 0 1 3 2 4 2 1 0
1 0 -1 -1z m-224 -2 l-1 -1 0 0 -1 0 -1 1 0 1 2 0 1 0 0 -1z m30 -4 l0 -1 -1
0 -1 -1 0 1 0 1 1 0 1 0 0 0z m-67 -6 l0 -2 -1 1 -1 1 1 1 1 2 1 0 0 -1 -1 -2z
m12 -2 l0 -2 -1 1 -1 0 1 2 1 1 1 0 0 0 -1 -2z m5 -3 l1 -3 -2 1 -2 1 1 1 2 2
0 0 0 0 0 -2z m337 -4 l0 -1 -1 0 -1 -1 0 1 0 1 1 0 1 0 0 0z m-386 -4 l1 -1
-2 -1 -1 -1 1 1 1 2 -1 0 0 1 0 0 1 0 0 -1z m263 0 l1 -1 -1 1 -2 0 0 1 0 0 1
0 1 0 0 -1z m-5 -1 l0 -1 -2 -1 -2 -2 0 2 0 2 2 0 2 0 0 0z m-259 -4 l0 -1 -1
0 -1 0 1 1 0 1 1 0 0 0 0 -1z m8 -8 l2 -2 -2 -2 -2 -1 -1 2 -1 2 0 1 0 1 1 0
1 0 2 -1z m209 -1 l2 -1 0 -1 -1 -1 1 0 1 -1 0 -2 0 -1 -3 -1 -4 -2 -2 1 -2 0
0 2 0 2 2 -1 2 0 -2 1 -1 1 2 3 2 2 1 0 0 0 2 -1z m-142 -4 l1 -1 -1 0 -1 -1
0 1 0 2 0 0 1 0 0 -1z m0 -5 l-1 -2 1 0 0 -1 -1 0 -1 0 0 1 0 2 1 0 2 1 0 0 0
0 -1 -1z m-70 -2 l1 -1 0 -1 0 -1 -1 0 -1 1 -1 -2 -1 -1 -2 2 -1 2 2 1 1 1 1
0 1 0 1 -1z m-25 -4 l0 -2 -2 -2 -2 -2 0 1 1 2 1 2 1 3 0 0 1 0 0 -2z m213 -1
l0 -2 -1 0 -1 0 1 2 0 1 1 0 0 0 0 -1z m-218 -2 l-1 -2 -1 1 0 0 0 1 1 2 1 0
1 0 -1 -2z m473 -25 l2 -1 0 -1 -1 -1 -2 1 -2 1 0 2 0 2 1 -2 1 -1 1 0z m23
-5 l0 -1 -1 0 -2 0 0 1 0 1 2 0 1 0 0 -1z m-8 -3 l0 -2 -1 0 -1 1 0 1 1 1 -2
0 -1 1 1 0 2 -1 1 -1z m27 -4 l-1 0 -1 0 -1 1 1 0 2 0 0 -1z m-199 -2 l-1 -1
0 -1 0 -1 1 0 2 0 0 1 1 2 0 -2 0 -1 -1 -1 -2 0 1 -1 0 -1 -3 -1 -3 -1 -1 0 0
0 1 2 0 1 -3 -1 -2 0 1 2 2 2 3 1 4 2 0 0 1 0 -1 -1z m202 -3 l0 -1 -1 0 -1
-1 0 1 0 1 1 0 1 0 0 0z m-198 -2 l0 -1 -1 0 -1 0 1 1 0 1 1 0 0 0 0 -1z m4
-1 l-2 -2 -1 -3 -1 -2 0 -2 0 -1 -3 -1 -2 -1 0 1 0 0 2 2 1 2 -1 1 -2 2 4 3 5
3 0 0 1 0 -1 -2z m55 -5 l0 -1 -2 0 -2 0 1 1 2 1 0 0 1 0 0 -1z m-74 0 l0 -1
-2 -1 -2 -2 0 2 0 2 2 0 2 0 0 0z m17 -1 l0 -2 -1 0 -1 0 1 2 1 1 1 0 0 0 -1
-1z m-16 -3 l0 -2 1 0 0 0 2 2 2 1 1 -2 1 -2 -1 -1 -1 0 -2 1 -1 1 -1 -1 0 -2
-1 0 -1 0 1 1 0 1 -2 0 -2 -1 0 0 0 1 1 2 1 2 1 0 1 0 0 -1z m-6 -3 l1 -1 -1
-2 -1 -2 -2 -1 -2 -1 0 1 -1 2 -1 -2 -2 -1 1 -2 0 -2 -2 -4 -2 -3 -2 -1 -1 -1
0 -1 0 -1 -2 -2 -1 -2 0 2 1 2 1 1 0 2 -2 -2 -2 -2 0 1 0 1 3 3 2 3 -1 -3 0
-2 1 0 1 1 0 2 0 2 2 2 2 1 0 1 -1 0 -3 -3 -4 -4 -2 0 -2 0 0 1 0 1 -2 0 -2 1
-2 -3 -2 -3 0 -1 0 -1 -2 -3 -2 -2 -1 0 -1 0 0 -1 -1 -2 1 0 2 0 0 -1 1 -1 1
1 2 2 0 0 1 0 0 -3 0 -2 1 0 1 1 -1 -3 0 -3 -3 -5 -2 -4 -1 -2 -1 -1 -2 1 -1
0 0 -1 0 -1 -1 0 -1 1 1 -2 0 -1 0 -1 0 0 0 0 0 -1 -1 0 0 1 -2 -3 -1 -2 0 -3
0 -2 -2 -2 -2 -3 1 -4 1 -4 1 -1 1 -1 2 3 2 3 0 1 -1 1 1 0 1 1 0 3 1 3 1 0 2
-1 1 2 1 3 3 1 2 1 0 -1 1 -1 2 1 2 0 0 -2 0 -3 -1 -3 -1 -2 -1 -1 0 0 -1 1
-1 2 0 -2 0 -2 -1 0 -1 -1 0 -3 0 -3 -2 0 -1 -1 0 -1 0 -1 2 0 3 1 -2 -1 -2
-2 1 0 0 0 -1 -1 -1 -1 0 -3 0 -3 -1 -2 -1 -1 0 2 0 2 0 2 0 3 -1 -1 -1 -1 0
-4 -1 -3 -1 -1 -1 0 -1 2 -1 2 1 1 0 2 0 4 -1 3 -1 0 -1 0 0 -2 0 -1 -2 1 -1
2 -2 0 -2 1 0 2 0 3 -1 0 -1 0 0 -1 0 -2 -1 0 -1 0 0 -1 0 0 0 -1 -1 0 -1 0
-1 0 0 2 0 2 -1 -2 -1 -1 1 -2 0 -2 0 0 -1 0 -1 3 -1 3 0 3 -1 4 1 0 1 0 0 2
-1 1 1 0 2 0 0 3 0 4 0 3 0 4 0 1 -1 1 0 3 0 4 3 5 3 6 11 11 11 10 2 2 3 1 2
0 2 -1 0 1 0 1 1 0 0 -1 4 4 5 4 3 2 3 1 0 1 1 1 2 0 3 0 0 -2z m121 1 l1 -1
-1 1 -2 0 0 1 0 0 1 0 1 0 0 -1z m-470 -10 l-1 0 0 0 -1 1 1 4 0 4 1 -4 0 -4
0 -1z m414 7 l-1 0 -1 0 -1 1 1 0 2 0 0 -1z m180 -2 l3 -1 1 -2 1 -1 0 -1 -1
0 -3 1 -2 1 -2 2 -1 1 0 1 0 1 1 0 0 0 3 -2z m-493 -11 l0 -2 -1 0 -2 0 1 3 0
3 2 -1 1 -1 -1 -2z m-122 2 l0 -1 -1 0 -1 -1 0 1 0 1 1 0 1 0 0 0z m382 -1 l1
-2 -1 0 -1 0 0 2 0 1 0 0 1 0 0 -1z m255 -4 l2 0 0 -2 1 -2 4 -3 3 -4 1 0 1 0
0 -1 -1 -1 3 -2 2 -1 0 -3 1 -2 1 -3 2 -4 -1 0 0 -1 1 0 1 0 -1 -3 0 -3 1 0 1
1 1 -3 2 -3 -1 0 0 0 -3 3 -3 3 0 2 0 1 -1 0 -1 0 1 -2 0 -3 -1 0 -1 0 0 1 1
1 -3 2 -2 3 1 0 1 0 0 2 0 2 -2 0 -1 -1 0 4 0 4 0 1 -1 0 1 2 0 1 -1 -1 -2 0
-4 4 -4 3 0 3 0 2 -2 3 -2 2 2 0 2 -1 1 -1z m-277 0 l1 -1 -1 0 -1 -1 0 1 0 2
0 0 1 0 0 -1z m-397 -9 l0 -2 1 -5 1 -4 -1 -1 -1 -1 0 2 0 2 -1 0 -1 0 -1 2
-1 2 1 4 1 3 1 0 1 0 0 -2z m481 -4 l0 -1 -1 0 -1 -1 0 1 0 1 1 0 1 0 0 0z
m48 -26 l2 -1 0 -1 0 -1 -1 0 -1 0 -2 2 -2 2 1 0 1 0 2 -1z m-367 -1 l1 -1 1
1 2 1 -1 -3 -1 -3 1 -2 2 -1 -1 -3 0 -2 -2 0 -1 0 -1 4 -2 5 -1 1 0 2 1 1 0 1
1 0 1 0 0 -1z m206 -7 l0 -2 -1 0 -1 0 1 1 0 1 -1 0 -1 0 1 1 0 1 1 0 1 0 0
-2z m-367 -3 l0 -1 -1 0 0 0 -1 1 0 1 1 0 1 -1 0 0z m170 -1 l1 -2 -1 0 -1 0
0 2 0 1 0 0 1 0 0 -1z m-56 -1 l0 -2 -2 0 -1 -1 -1 0 0 1 1 1 1 2 1 0 1 0 0
-1z m438 -1 l-1 0 -1 1 -1 1 1 -1 2 0 0 -1z m106 -4 l0 -2 -1 0 -1 0 0 -1 0
-1 2 -1 2 0 2 -4 3 -4 -1 -1 0 -1 -2 2 -2 2 -1 2 -1 2 1 -2 0 -2 1 -3 0 -3 -2
0 -2 0 1 1 1 2 -2 3 -2 4 0 -1 -1 0 0 2 0 2 -2 0 -2 -1 0 2 0 1 1 0 2 0 1 2 2
3 2 -1 1 0 0 -2z m-104 -1 l0 -1 -1 0 -1 0 -1 1 0 1 -1 -1 -1 0 0 1 0 2 2 -1
2 -1 1 -1z m110 -5 l-1 -1 0 1 0 2 1 0 0 -1 0 -1z m-486 -1 l0 -1 1 1 1 0 0
-3 0 -3 -1 0 -1 0 0 -1 1 -2 -3 0 -2 -1 -2 1 -2 1 1 3 0 3 1 0 1 0 0 -2 1 -1
1 1 1 0 -1 1 -1 1 1 2 0 1 1 0 1 0 1 -1z m-35 -7 l-1 -1 0 3 0 4 1 -2 0 -2 0
-2z m512 0 l0 -2 -1 0 -1 0 0 2 0 1 1 0 1 0 0 -1z m-525 -8 l0 -1 0 0 -1 0 0
1 -1 1 1 0 1 0 0 -1z m186 -38 l1 -1 0 -1 0 0 -1 1 -2 1 0 1 0 1 1 0 1 0 0 -2z
m69 -1 l0 -2 -1 1 -1 0 1 1 0 1 1 0 1 0 -1 -1z m309 -5 l0 -3 0 -1 -1 0 0 1 0
1 -1 0 -1 -1 -1 1 -1 1 1 2 1 2 1 0 1 0 1 -3z m-307 -2 l1 -2 -1 0 -1 0 0 2 0
2 0 0 1 0 0 -2z m-62 -15 l0 -1 -1 0 -1 1 0 2 -1 3 2 -2 1 -2 0 -1z m372 -9
l0 -3 -1 1 -1 2 0 1 0 2 1 0 1 0 0 -3z m-513 -3 l-1 0 -1 0 0 1 1 1 0 1 1 -1
0 -1 0 -1z m32 -9 l0 -1 -1 1 -1 0 0 1 0 1 1 0 1 -1 0 -1z m283 -33 l0 -1 -2
0 -1 0 1 1 0 1 1 0 1 0 0 -1z m-74 -2 l0 0 -2 0 -3 0 -2 -1 -1 -2 -2 0 -2 0 0
1 0 1 2 0 3 0 -1 1 0 2 4 -1 4 0 0 -1z m67 0 l-1 -1 -2 0 -2 0 1 1 0 1 2 0 2
0 0 -1z m-443 -12 l0 -1 -1 0 -1 0 0 1 -1 1 1 0 1 0 1 -1z m465 -12 l-2 -2 1
-1 1 0 -2 1 -2 1 2 2 3 1 0 0 0 0 -1 -2z m-13 -2 l2 -2 -3 0 -2 -1 -6 -1 -5 0
0 0 1 1 5 2 5 2 1 0 1 0 1 -1z m-308 -9 l2 0 0 -2 0 -1 -1 0 -1 0 -1 1 -1 1 0
1 0 1 0 0 1 0 1 -1z m8 -3 l0 -1 -1 0 -1 -1 -2 2 -1 1 0 0 0 1 3 -1 2 0 0 -1z
m7 -3 l0 1 0 -2 -1 -2 1 0 1 -1 1 1 0 1 1 -1 2 -2 2 0 3 -1 0 -2 0 -1 1 0 1 1
5 -4 4 -4 1 -3 1 -2 3 -1 3 -1 1 -2 2 -2 -1 -2 -1 -1 1 -1 1 0 0 -1 0 -1 -2 0
-2 0 1 -1 1 -1 -1 0 -1 -1 -1 1 0 2 -1 0 0 -1 -3 1 -2 1 0 2 1 2 0 1 1 0 0 1
0 1 -5 3 -6 4 -1 0 -1 0 0 -1 1 -1 -2 0 -2 1 -4 3 -4 4 -3 2 -2 2 0 2 -1 2 2
0 1 1 0 1 -1 1 1 1 0 1 1 -1 2 -1 1 1z m64 -3 l1 -2 -2 2 -2 2 1 1 0 1 1 -1 1
0 0 -3z m-71 1 l0 -1 -1 0 -1 -1 0 1 -1 2 2 0 1 0 0 -1z m220 0 l-1 -1 2 0 1
-1 1 1 1 0 0 -1 0 -1 -1 0 -1 0 -2 1 -2 1 1 1 0 1 1 0 0 0 0 -1z m-140 -4 l0
-2 -1 1 -1 0 0 2 0 1 1 0 1 0 0 -2z m-6 -2 l0 -2 -1 0 -1 -1 0 3 0 2 1 0 1 0
0 -2z m-229 -2 l0 -1 -1 0 -1 0 0 1 0 1 0 0 1 0 1 -1z m-1 -6 l0 -2 -1 0 -1
-1 0 2 0 2 1 0 1 0 0 -1z m-1 -5 l2 0 2 -2 2 -2 0 -2 0 -2 -1 0 -1 0 -4 4 -5
5 0 2 -1 3 2 -3 3 -3 1 0z m13 1 l0 -1 -3 -1 -3 -1 -2 0 -1 1 1 1 0 2 2 -1 1
-1 0 2 -1 2 3 -1 2 -1 1 -1z m-9 -11 l1 -2 0 -1 0 0 -1 0 -1 0 -1 3 -2 3 1 0
2 0 1 -3z m607 -2 l0 -2 -1 0 -1 0 1 2 1 1 1 0 0 0 -1 -1z m-341 -4 l0 -1 2
-3 3 -2 -1 -1 0 -1 -4 1 -3 0 -3 3 -3 3 1 1 1 2 2 -1 2 0 0 1 0 1 2 -1 1 -1 0
-1z m352 -5 l0 -2 -1 0 -2 0 1 2 0 1 1 0 1 0 0 -1z m-594 -33 l3 -4 2 -2 2 -2
-1 -1 0 -1 -2 2 -2 2 -4 3 -3 4 -2 2 -2 2 3 0 3 0 3 -5z m423 -28 l0 -1 -3 -2
-3 -2 1 2 1 2 2 1 1 1 1 0 0 0 0 -1z m-23 -17 l0 -1 0 -1 -1 0 -2 1 -1 2 1 0
2 0 1 -1z m-45 -1 l0 -1 -1 0 -1 -1 0 1 0 1 1 0 1 0 0 0z m-3 -2 l-1 -1 -4 0
-4 0 2 1 2 1 2 0 3 0 0 -1z m9 -7 l0 0 -5 -1 -5 -1 -3 0 -3 0 0 1 0 1 3 1 4 1
4 -1 5 0 0 -1z m-17 0 l0 -2 -1 0 -1 0 0 2 0 1 1 0 1 0 0 -1z m-12 -9 l0 -3
-3 1 -4 0 -3 1 -2 2 1 0 2 1 2 -1 2 -1 0 0 1 0 0 2 0 1 2 0 1 -1 1 -2z m-38
-21 l0 -1 -1 -1 -1 -1 -2 1 -1 1 1 0 1 0 -2 1 -1 1 2 0 3 -1 1 0z m4 -1 l1 -2
-1 0 -2 -1 0 2 0 2 1 0 1 0 0 -1z m-35 -11 l0 -1 -1 0 -2 0 1 1 0 1 1 0 1 0 0
-1z m5 -3 l1 1 0 -1 0 -1 -1 0 -2 0 -1 1 -1 2 1 0 1 1 0 -1 0 -2 2 0z m89 -11
l0 -1 -4 1 -3 0 0 1 0 1 2 0 1 0 -1 1 0 1 3 -2 3 -1 -1 -1z m-8 1 l-1 0 -1 0
-1 1 1 0 2 0 0 -1z m13 0 l-1 0 -1 0 -1 1 1 0 2 0 0 -1z m-51 -3 l0 -1 -1 0
-1 0 1 1 0 1 1 0 0 0 0 -1z m69 -3 l-1 -1 -2 0 -1 0 2 1 2 1 1 0 1 0 -2 -1z
m-45 -6 l-1 0 -1 0 -1 1 2 0 3 0 -2 -1z"/>
<path d="M600 805 l0 -1 1 0 1 0 1 1 0 1 -1 0 -2 0 0 -1z"/>
<path d="M477 788 l-1 -2 2 0 2 0 0 2 0 1 -1 0 -1 0 -1 -1z"/>
<path d="M488 581 l0 -1 1 1 0 1 0 1 -1 0 0 -2z"/>
<path d="M322 405 l-1 0 3 -3 3 -3 1 0 0 1 -1 2 -2 3 -1 0 -2 1 0 -1z"/>
<path d="M331 395 l0 -1 1 0 1 0 0 1 -1 1 -1 0 0 0 0 -1z"/>
<path d="M644 923 l0 -2 2 0 1 1 1 -1 1 -1 1 0 1 1 -1 1 -1 2 -2 0 -3 1 0 -2z"/>
<path d="M442 912 l-1 -1 1 0 1 0 0 1 0 1 0 0 -1 0 0 -1z"/>
<path d="M345 905 l-1 -1 1 1 2 1 0 1 0 0 0 0 -1 0 -1 -2z"/>
<path d="M348 904 l-1 -1 1 1 2 1 0 1 0 0 0 0 -1 0 -1 -2z"/>
<path d="M286 894 l0 -1 -4 -4 -3 -4 -1 -2 -1 -2 3 3 2 3 3 1 2 1 0 3 0 4 0 0
-1 0 0 -2z"/>
<path d="M503 892 l0 -2 1 -1 1 0 1 1 1 1 -2 1 -2 1 0 -1z"/>
<path d="M531 887 l0 -1 1 0 1 0 0 1 -1 1 -1 0 0 0 0 -1z"/>
<path d="M513 885 l-1 -1 1 -1 1 0 1 0 0 1 -1 1 -1 1 0 -1z"/>
<path d="M516 882 l0 -1 1 1 1 0 0 1 0 0 -1 0 -1 0 0 -1z"/>
<path d="M465 876 l0 -1 1 0 1 0 0 1 -1 1 -1 0 0 0 0 -1z"/>
<path d="M329 875 l0 -1 2 0 1 -1 0 2 0 1 -1 0 -2 0 0 -1z"/>
<path d="M674 864 l-1 0 0 -2 0 -1 2 -1 2 0 1 0 0 1 1 1 0 2 -2 0 -1 1 -2 -1z"/>
<path d="M313 860 l-1 -1 1 0 1 -1 0 2 1 1 0 0 0 0 -2 -1z"/>
<path d="M601 859 l0 -1 1 0 1 0 0 1 0 1 -1 0 -1 0 0 -1z"/>
<path d="M596 857 l0 -2 1 0 1 0 0 1 -1 0 1 2 1 1 -1 0 -2 0 0 -2z"/>
<path d="M586 857 l-3 0 -1 -1 -1 -1 4 0 5 1 1 0 2 0 0 1 -1 0 -2 0 -1 1 -3
-1z"/>
<path d="M636 855 l1 0 1 0 0 1 -2 0 -1 0 1 -1z"/>
<path d="M681 854 l3 -2 1 0 2 0 -4 2 -3 2 -1 0 -1 0 3 -2z"/>
<path d="M353 851 l-2 0 -1 -3 -2 -2 -1 1 -1 0 1 -1 0 -2 1 0 0 0 4 4 4 4 -1
0 0 0 -2 -1z"/>
<path d="M656 851 l0 -1 5 0 6 -1 3 -1 4 0 -1 0 -1 1 -6 2 -6 1 -2 0 -2 0 0
-1z"/>
<path d="M359 849 l-1 -1 1 0 1 0 0 1 0 1 0 0 -1 0 0 -1z"/>
<path d="M270 844 l-1 -1 1 0 1 0 0 1 0 1 0 0 -1 0 0 -1z"/>
<path d="M714 823 l0 -1 -4 0 -4 1 0 -3 0 -2 2 -2 2 -2 1 0 1 0 0 -1 -1 -1 2
-1 2 -1 1 0 2 0 0 2 1 2 3 1 4 1 0 2 1 1 -1 1 -2 1 -1 1 -1 2 -4 0 -3 0 -1 -1z"/>
<path d="M555 817 l-2 -2 2 0 1 0 0 1 0 1 2 -1 3 0 -2 1 -1 0 -1 1 0 1 -2 -2z"/>
<path d="M548 814 l-1 -1 1 0 1 0 1 1 2 1 -1 0 -1 0 -2 -1z"/>
<path d="M728 814 l0 0 5 -2 4 -3 0 -1 0 -1 1 1 2 1 -2 2 -2 2 -4 1 -4 1 0 -1z"/>
<path d="M759 809 l0 -1 2 0 1 -1 -1 1 0 1 -1 0 -1 0 0 0z"/>
<path d="M622 791 l-1 -2 0 -1 1 0 2 1 1 2 0 0 -1 1 -2 -1z"/>
<path d="M242 768 l-1 -3 2 2 2 3 0 0 0 1 0 0 -1 0 -2 -3z"/>
<path d="M780 758 l0 -2 1 0 1 0 -1 2 -1 1 -1 0 0 0 1 -1z"/>
<path d="M645 757 l0 -1 1 1 1 0 0 1 0 0 -1 0 -1 0 0 -1z"/>
<path d="M227 756 l-2 -2 1 0 2 0 1 1 0 1 1 -1 1 0 0 1 -1 1 0 0 0 0 -3 -1z"/>
<path d="M782 753 l1 0 1 0 0 1 -2 0 -1 0 1 -1z"/>
<path d="M223 752 l0 -1 0 -1 1 0 1 0 2 1 0 1 0 1 -1 0 -2 0 -1 -1z"/>
<path d="M649 742 l0 -1 2 0 1 0 0 1 -1 1 -1 0 -1 0 0 -1z"/>
<path d="M665 737 l0 -2 1 0 1 0 0 1 0 1 -1 1 -1 0 0 -1z"/>
<path d="M683 733 l-1 -1 1 0 1 0 0 1 0 1 0 0 -1 0 0 -1z"/>
<path d="M219 732 l-1 -1 1 0 2 -1 0 2 1 1 -1 0 0 0 -2 -1z"/>
<path d="M679 732 l0 -2 1 0 0 1 -1 1 -1 2 1 -2z"/>
<path d="M738 724 l-1 0 0 -1 0 -1 2 -3 2 -2 1 1 2 0 0 1 0 2 -2 2 -3 2 0 0
-1 0 0 -1z"/>
<path d="M757 718 l0 -1 1 0 1 -1 0 1 0 2 -1 0 -1 0 0 -1z"/>
<path d="M744 710 l1 -1 1 0 0 0 1 1 0 1 -1 0 -2 0 0 -1z"/>
<path d="M762 705 l0 -1 1 0 1 0 0 1 0 1 -1 0 -1 0 0 -1z"/>
<path d="M816 703 l0 0 1 -2 1 -1 0 1 0 2 -1 1 -1 0 0 -1z"/>
<path d="M711 698 l0 -1 1 0 1 0 0 1 -1 1 -1 0 0 0 0 -1z"/>
<path d="M833 695 l0 -1 1 1 1 0 0 1 0 1 -1 0 -1 0 0 -2z"/>
<path d="M863 692 l2 -3 -1 -4 0 -4 2 -3 2 -2 -1 -4 0 -4 0 -2 0 -2 -1 1 -1 2
0 -3 0 -2 -1 -1 -1 0 -2 -5 -2 -5 1 -1 1 0 0 -2 0 -1 4 -5 4 -4 2 -4 2 -4 -1
-2 -1 -1 1 -2 2 -2 0 -1 -1 -1 -1 2 -1 3 -1 0 -1 0 0 -1 0 0 2 -3 1 -2 -1 -1
-1 -1 -4 3 -3 4 -2 1 -2 0 -1 -1 0 -1 -1 0 -1 0 -2 5 -1 6 -2 3 -2 3 -2 5 -2
6 -2 -1 -1 0 0 1 1 2 -1 -1 0 -1 -2 2 -2 2 1 -2 1 -2 -1 -2 0 -3 -1 -1 0 -1 1
1 2 0 0 -1 0 -2 1 0 1 0 1 -3 1 -3 1 -2 1 -2 -1 0 -1 -1 -2 4 -2 5 -2 1 -2 2
0 1 0 2 -2 0 -2 0 1 -2 1 -3 1 0 1 0 1 -1 2 -2 2 -4 2 -3 0 -3 1 -2 -2 1 -2 0
-1 1 0 1 -1 0 -2 0 -1 2 -2 2 0 1 1 1 -1 0 -1 0 -1 3 -1 2 -1 0 -1 0 2 -4 2
-4 1 -1 2 -1 -2 -1 -1 -1 2 -3 3 -3 0 -1 -1 -1 1 0 1 0 4 -10 5 -10 0 0 0 -1
3 -6 2 -5 3 -5 2 -5 1 -9 2 -8 0 -2 1 -2 -1 1 -1 0 -1 5 0 5 -3 4 -3 4 0 2 0
2 -1 -4 -1 -4 0 -4 0 -3 0 -9 0 -8 -1 -2 -1 -2 -2 -3 -3 -3 1 -2 1 -2 2 1 1 1
2 -4 2 -4 0 2 0 2 1 -1 1 0 0 -5 1 -5 -2 -1 -1 0 -1 1 -1 2 -1 0 -1 0 1 -7 0
-6 1 -5 1 -4 2 -1 2 0 0 1 0 1 1 0 1 0 0 -15 -1 -15 0 -2 -1 -2 0 -2 -1 -2 0
-1 -1 -1 -1 -3 -1 -2 1 -1 0 -1 -1 0 -1 0 1 -1 0 -1 -1 -2 -2 -1 -1 -2 0 -2
-1 -7 -2 -6 1 -2 1 -1 2 1 1 1 0 -1 0 -1 -2 -6 -2 -6 1 -2 1 -3 -2 -8 -3 -7
-2 -6 -2 -5 -1 -1 -1 0 -4 -9 -4 -9 0 0 0 -1 -3 -2 -2 -3 0 0 -1 0 1 4 1 4 1
0 1 1 -1 3 -1 4 -3 1 -2 1 -1 -3 -2 -2 0 -1 0 -2 -3 -3 -3 -4 -2 -7 -3 -6 0
-4 -1 -3 -4 -2 -4 -2 -3 0 -3 0 -5 -2 -5 -2 -5 -7 -4 -7 -3 -1 -2 -1 -5 -7 -4
-7 -4 -4 -3 -4 0 -2 0 -1 -2 -2 -2 -2 0 -1 1 -2 -5 -4 -4 -4 1 -1 0 0 1 1 2 2
0 -1 1 -2 -1 1 -1 0 0 -2 0 -2 3 2 2 2 0 1 0 0 -1 -1 -1 0 3 3 3 3 3 1 2 1 2
-1 2 -1 -1 3 0 2 1 0 2 -1 -1 -1 0 -1 2 0 1 0 0 1 0 1 2 0 2 1 0 2 -1 2 1 0 2
1 2 -1 2 -1 2 1 3 0 0 -2 0 -2 -2 -3 -3 -3 -1 -1 -1 0 -2 0 -1 0 -1 -3 -1 -2
1 -3 0 -2 -3 -5 -3 -4 1 1 2 0 -4 -2 -3 -3 0 -1 0 -1 1 0 0 1 2 -2 2 -2 2 2 2
3 0 2 0 3 2 2 2 1 0 1 0 1 2 2 2 3 1 0 2 0 0 -1 0 -1 3 2 3 1 0 2 1 2 6 7 5 7
2 2 2 3 3 4 2 3 4 4 4 3 0 0 1 0 0 1 -1 0 3 4 2 3 -2 0 -2 -1 2 2 2 3 5 8 5 8
0 1 0 2 0 3 1 3 1 1 1 0 -1 -3 0 -3 1 3 2 3 1 0 0 -1 -1 -3 -1 -3 -3 -6 -3 -5
0 -1 1 -1 -2 -1 -1 -1 1 2 1 2 -3 -4 -4 -3 0 -1 0 0 0 0 1 0 2 2 2 2 0 0 0 -1
-4 -7 -5 -7 0 -1 0 -1 2 1 2 2 0 -1 1 0 1 1 1 2 -1 0 -1 0 0 -1 0 -1 -1 0 0 1
2 3 1 3 4 5 3 6 1 0 1 1 0 -4 -1 -5 -1 -2 -2 -3 -1 0 -2 0 -1 -3 -1 -2 -1 -2
0 -1 0 -3 -1 -2 0 -2 -1 -2 -1 0 -1 0 0 -4 1 -3 3 -1 3 0 2 3 3 2 0 2 0 1 3 1
2 1 0 1 0 0 -1 -1 -1 0 1 2 2 2 2 0 2 0 0 2 0 2 1 2 2 2 0 2 1 3 4 6 4 6 0 2
1 2 -1 0 -1 -1 -1 -4 -2 -4 -1 0 -1 0 -1 2 -1 2 -3 -2 -2 -3 -3 0 -2 -1 0 1 0
1 3 6 3 6 1 2 2 2 2 2 2 3 3 5 3 5 1 0 0 -1 -1 -2 -1 -2 0 -1 1 0 2 2 1 2 0
-2 -1 -2 0 -2 -1 -2 2 2 2 2 0 2 0 1 1 0 2 1 3 6 2 6 1 1 0 2 2 3 2 4 1 5 2 5
4 5 4 5 1 1 1 1 -1 0 0 1 4 4 4 4 6 -1 6 0 3 3 3 3 -1 2 -1 2 -5 -1 -5 0 0 1
0 1 2 2 1 2 -1 2 -1 2 1 4 2 4 3 2 3 2 2 3 1 2 0 3 0 4 1 2 2 2 0 1 0 2 3 4 3
4 -1 1 0 2 1 0 1 1 0 2 0 2 1 2 1 2 0 1 -1 2 -1 0 -2 0 -1 -3 -1 -2 0 -2 -1
-2 -2 -1 -2 -1 0 2 -1 2 2 6 2 7 0 1 0 1 0 4 0 4 -1 0 -2 0 0 1 0 1 -1 0 -2 0
0 2 -1 3 1 1 0 2 -1 0 -1 1 0 2 0 2 -1 -1 -2 -1 -2 0 -1 1 -1 -3 0 -2 1 -2 1
-1 0 -2 0 -2 -2 -2 -1 -1 0 -3 0 -2 -1 -1 -1 0 0 -2 0 -2 -2 -1 -2 -2 -2 1 -2
1 -1 0 -1 -1 -1 1 -1 2 1 2 1 2 -1 0 -1 0 0 5 1 6 -1 0 -1 1 1 2 0 3 -1 0 -1
0 0 1 0 2 0 5 -1 6 -1 1 0 1 -1 -5 -1 -4 -2 6 -3 6 0 0 0 1 -1 1 -1 2 0 4 0 4
-2 4 -2 3 0 1 0 0 1 0 1 -1 0 1 0 1 -1 1 -2 0 0 5 1 5 -1 0 -1 1 -1 4 0 4 2
-2 1 -1 0 1 -1 1 1 2 1 2 1 -3 1 -2 0 2 -1 2 1 0 1 0 1 -4 0 -3 1 -3 1 -3 -1
-1 -1 -1 1 1 1 0 0 -2 -1 -3 1 1 1 0 0 -2 0 -1 1 0 0 1 -2 11 -2 11 -2 6 -2 6
0 4 -1 5 -1 1 -1 0 0 2 0 1 1 0 2 1 -3 2 -2 2 1 1 1 0 0 1 0 2 2 0 1 1 0 0 1
0 1 -5 1 -4 1 -2 0 -1 -2 0 -1 -1 0 1 1 2 -1 -1 0 -1 -1 1 -1 0 2 -4 1 -4 1 3
1 3 0 -1 0 -1 1 -2 2 -2 2 -1 3 0 -1 1 0 2 -2 3 -1 4 0 1 0 2 1 0 2 0 0 4 0 4
1 3 2 4 -1 2 -2 2 -3 7 -3 7 -2 5 -2 6 1 2 2 2 1 2 1 1 0 3 1 3 1 0 2 0 2 2 2
2 0 3 -1 3 -3 2 -3 3 -3 3 -3 3 0 2 1 2 -1 0 -2 1 0 1 0 2 -2 2 -2 2 1 -3z
m-14 -59 l1 -1 -1 1 -1 0 0 1 0 1 0 0 1 0 0 -2z m9 -11 l0 -1 -1 0 -1 -1 0 1
0 2 1 0 1 0 0 -1z m3 0 l0 -1 -1 0 -1 0 0 1 0 1 0 0 1 0 1 -1z m-10 -14 l2 -3
0 -1 0 -1 -2 0 -2 0 0 2 -1 2 -1 3 0 3 1 -1 2 -1 1 -3z m12 2 l0 -1 -1 0 -1 0
0 1 0 1 1 0 1 0 0 -1z m18 -113 l1 -2 -1 0 -1 0 0 3 0 3 1 0 0 -1 0 -3z m13
-72 l-1 -1 0 0 -1 1 1 2 2 3 0 -2 0 -2 -1 -1z m-68 -81 l-1 -3 -1 1 0 1 1 2 1
2 1 0 1 0 -2 -3z m10 -3 l-1 -2 -1 0 -1 0 1 3 1 2 1 0 0 -1 0 -2z m-70 -44 l0
-1 -1 0 -1 0 1 1 0 1 1 0 0 0 0 -1z m-13 -1 l0 -1 -2 -2 -2 -1 1 2 2 2 1 0 0
0 0 0z m31 -10 l-2 -2 -1 0 -1 0 3 3 3 3 0 -1 0 0 -2 -3z m-14 -13 l0 -1 -1
-1 -2 -1 0 0 0 1 1 1 0 2 1 0 1 0 0 -1z"/>
<path d="M143 688 l-1 -1 1 1 2 0 0 1 0 1 0 0 -1 0 -1 -2z"/>
<path d="M794 688 l0 -1 1 1 0 1 0 1 -1 0 0 -2z"/>
<path d="M259 681 l-1 -2 1 -1 0 -2 1 0 1 0 0 3 0 3 -1 0 -1 0 0 -1z"/>
<path d="M780 673 l0 -1 1 0 0 0 0 1 0 1 -1 0 -1 0 1 -1z"/>
<path d="M777 672 l0 -1 1 0 0 0 0 1 0 1 -1 0 -1 0 1 -1z"/>
<path d="M782 670 l0 -1 1 1 1 0 0 1 0 0 -1 0 -1 0 0 -1z"/>
<path d="M818 669 l0 -1 3 -4 3 -4 1 0 1 -1 -1 3 -1 2 -2 3 -2 3 -1 0 -1 0 0
-1z"/>
<path d="M821 656 l0 -2 1 -1 1 0 0 0 1 1 -2 1 -1 2 0 -1z"/>
<path d="M565 651 l0 -1 1 0 2 0 -1 1 0 1 -1 0 -1 0 0 -1z"/>
<path d="M569 642 l-1 -1 2 0 2 0 1 1 0 1 -2 0 -2 0 0 -1z"/>
<path d="M564 640 l-1 -1 -1 1 -1 0 0 -1 1 -1 -3 0 -3 0 0 -1 -1 -1 2 1 3 0
-2 -1 -2 -2 0 0 0 -1 2 1 2 1 2 2 2 2 2 1 2 1 -1 0 -1 0 -2 -1z"/>
<path d="M572 635 l-3 -2 -1 0 0 0 -2 0 -2 -1 -1 0 0 1 -4 -4 -4 -4 0 -1 0 -1
1 -1 1 0 0 -1 -1 -2 3 1 3 0 4 2 5 1 0 1 0 1 3 1 4 1 -1 1 0 1 2 2 3 2 -2 0
-1 -1 0 2 -1 2 -2 0 -1 0 -3 -1z"/>
<path d="M587 630 l1 0 1 0 2 1 -3 0 -2 0 1 -1z"/>
<path d="M614 619 l1 0 1 0 0 1 -2 0 -1 0 1 -1z"/>
<path d="M230 615 l-1 0 0 -1 0 -1 1 1 1 1 0 0 -1 1 0 -1z"/>
<path d="M236 611 l-1 0 0 -1 0 -1 1 0 2 -1 0 1 1 1 -1 1 -2 1 0 -1z"/>
<path d="M521 606 l-2 -2 0 -2 -1 -1 1 0 1 1 2 3 2 4 0 0 -1 0 -2 -3z"/>
<path d="M804 595 l0 -1 1 0 1 0 0 1 0 1 -1 0 -1 0 0 -1z"/>
<path d="M242 593 l-1 -2 1 -1 1 0 0 2 0 2 0 0 -1 0 0 -1z"/>
<path d="M819 591 l-1 -1 2 -1 1 -1 1 0 0 1 -1 0 -1 0 0 2 -1 2 0 -2z"/>
<path d="M502 580 l0 -1 2 0 1 0 0 1 -1 1 -1 0 -1 0 0 -1z"/>
<path d="M704 555 l0 -7 3 -6 2 -5 4 -3 3 -4 0 -2 1 -2 1 0 1 0 0 -3 1 -2 3
-3 2 -3 0 1 0 2 2 -4 2 -3 0 0 0 1 -1 4 -2 4 1 0 1 1 -1 4 -1 5 -5 10 -5 10
-6 5 -5 4 -1 1 -1 2 1 -7z"/>
<path d="M121 558 l0 -3 -1 1 -1 1 -2 0 -1 0 0 -1 0 -1 1 0 2 1 0 -1 0 -2 -2
1 -1 0 0 -1 0 -1 2 0 3 0 1 1 1 2 -1 3 -1 3 0 -3z"/>
<path d="M243 554 l0 -1 1 -1 1 -1 1 1 1 2 -1 0 -2 1 -1 -1z"/>
<path d="M109 549 l-1 -1 0 -1 1 0 1 1 0 2 0 1 -1 0 0 -2z"/>
<path d="M875 549 l0 -2 1 1 0 1 0 1 -1 2 0 -3z"/>
<path d="M491 547 l-1 0 1 -3 1 -2 0 -1 0 0 1 -1 1 0 0 2 -1 3 -1 1 -1 2 0 -1z"/>
<path d="M877 533 l0 0 1 -2 1 -2 0 2 0 2 -1 1 -1 0 0 -1z"/>
<path d="M245 532 l-1 -1 1 -1 1 -1 0 2 0 2 -1 0 0 0 0 -1z"/>
<path d="M278 509 l0 -1 -1 1 -1 0 0 -1 1 -1 1 1 1 1 0 1 -1 0 0 -1z"/>
<path d="M847 507 l0 -2 1 1 0 1 0 1 -1 2 0 -3z"/>
<path d="M519 498 l-1 -1 1 0 1 -1 0 1 0 2 0 0 -1 0 0 -1z"/>
<path d="M792 497 l-1 -2 1 -1 1 -1 1 1 1 2 -1 2 -1 1 -1 -2z"/>
<path d="M394 496 l0 -2 1 0 0 1 -1 1 -1 2 1 -2z"/>
<path d="M126 493 l0 -2 1 0 1 -1 -1 2 0 2 -1 0 0 0 0 -1z"/>
<path d="M392 493 l0 -1 4 -5 4 -6 1 0 2 -1 -1 2 0 1 -2 1 -2 1 0 1 0 2 -1 0
-1 1 -2 2 -2 3 0 -1z"/>
<path d="M787 492 l-1 -1 1 0 1 0 0 1 0 1 0 0 -1 0 0 -1z"/>
<path d="M401 486 l3 -5 0 -1 -1 -1 1 -1 0 -2 6 -5 6 -5 1 0 0 1 -3 3 -3 3 0
-1 -1 0 0 1 0 2 1 0 1 -1 0 0 0 1 -3 3 -3 3 -4 5 -4 5 3 -5z"/>
<path d="M818 488 l0 -1 1 0 1 0 0 -2 -1 -3 1 1 2 0 0 1 0 2 -2 2 -2 1 0 -1z"/>
<path d="M787 487 l-3 -1 0 -1 0 -1 1 1 1 1 2 0 2 0 1 1 0 1 -1 0 0 0 -3 -1z"/>
<path d="M669 483 l-3 -4 1 0 1 -1 -2 0 -1 1 -1 -3 -2 -2 0 -1 1 0 1 1 1 2 1
0 1 0 -1 -2 -2 -2 0 -2 0 -2 2 2 2 2 3 6 3 6 0 1 0 1 -1 0 -1 0 -3 -3z"/>
<path d="M781 481 l0 -1 1 1 0 1 0 1 -1 0 0 -2z"/>
<path d="M113 479 l1 -1 0 0 1 0 0 1 0 0 -1 1 -1 0 0 -1z"/>
<path d="M547 472 l0 -1 2 1 1 0 0 -1 0 -1 1 -1 1 0 0 1 0 2 -2 0 -1 1 -1 0
-1 0 0 -1z"/>
<path d="M802 458 l0 -1 0 -1 1 0 1 1 1 1 -1 0 -1 1 -1 -1z"/>
<path d="M299 448 l1 -1 2 -2 2 -2 -1 0 0 -1 1 0 1 0 0 2 -1 1 0 3 0 3 -1 -2
-1 -1 -1 1 -1 1 -1 0 -1 0 1 -2z"/>
<path d="M142 447 l0 -2 1 0 0 1 -1 1 -1 2 1 -2z"/>
<path d="M107 445 l0 -1 0 -1 1 0 0 1 1 2 0 0 -1 0 -1 -1z"/>
<path d="M144 443 l0 -2 3 -4 3 -4 1 1 1 0 -2 3 -1 3 -3 2 -2 2 0 -1z"/>
<path d="M137 439 l-1 0 1 -3 1 -2 2 0 1 -1 0 1 0 1 -2 2 -2 3 0 -1z"/>
<path d="M108 435 l-1 -1 1 -1 1 0 1 0 0 1 -1 1 -1 1 0 -1z"/>
<path d="M795 434 l0 -1 1 1 1 1 0 0 1 1 -1 0 -2 0 0 -2z"/>
<path d="M921 431 l-1 -1 0 -1 0 -1 -3 -6 -3 -6 0 -2 0 -2 -3 -3 -4 -2 -3 -1
-3 0 -4 -3 -4 -2 0 -1 0 0 4 2 3 1 3 -1 3 0 3 2 4 2 2 4 3 5 2 2 2 3 2 2 2 2
0 3 -1 3 0 1 0 1 -1 0 -2 0 -1 -1z"/>
<path d="M424 426 l2 -2 -1 0 0 -1 2 -1 2 -2 0 1 0 2 -3 3 -3 3 1 -3z"/>
<path d="M795 425 l0 -1 1 1 0 1 0 1 -1 0 0 -2z"/>
<path d="M333 417 l1 -2 0 -1 0 -1 1 0 1 0 0 1 0 1 -2 2 -1 2 0 -2z"/>
<path d="M381 415 l1 0 1 0 0 1 -2 0 -1 0 1 -1z"/>
<path d="M597 410 l-4 0 0 -1 0 0 2 -2 3 -1 0 1 0 1 2 1 2 0 0 1 1 1 -1 0 -1
0 -4 -1z"/>
<path d="M889 398 l-2 -2 2 1 2 1 1 1 0 1 0 0 -1 0 -2 -2z"/>
<path d="M788 395 l-1 -1 1 0 1 0 0 1 0 1 0 0 -1 0 0 -1z"/>
<path d="M430 389 l-2 -1 1 -1 0 -1 2 1 1 0 0 2 0 2 0 0 -1 0 -1 -2z"/>
<path d="M780 390 l0 -1 1 0 2 0 1 1 0 1 -2 0 -2 0 0 -1z"/>
<path d="M506 378 l-1 -1 1 0 2 0 1 1 0 1 -1 0 -2 0 0 -1z"/>
<path d="M760 378 l-1 -1 0 -1 1 0 1 0 0 1 0 1 -1 1 0 -1z"/>
<path d="M447 366 l0 -1 4 -2 3 -2 1 0 0 1 -4 2 -4 2 0 0z"/>
<path d="M703 351 l-1 -1 1 -1 1 -2 2 2 2 3 -2 0 -2 0 -1 -1z"/>
<path d="M851 350 l-1 -1 1 0 1 0 1 1 2 2 -1 0 -2 0 -1 -2z"/>
<path d="M142 349 l0 -2 1 1 1 0 -1 2 -1 1 -1 0 0 0 1 -2z"/>
<path d="M738 347 l0 -1 0 -1 1 0 0 1 1 2 0 0 -1 0 -1 -1z"/>
<path d="M846 343 l-3 -5 0 -1 0 0 1 0 1 0 1 2 0 2 2 2 2 3 0 1 -1 0 -3 -4z"/>
<path d="M852 345 l-1 0 0 -1 0 -1 2 0 1 0 0 1 0 1 -1 0 -1 1 0 -1z"/>
<path d="M494 339 l2 -1 1 0 2 1 -2 0 -1 0 0 1 1 1 -2 0 -2 0 1 -2z"/>
<path d="M519 338 l-1 -1 2 -2 2 -1 1 1 2 1 -2 2 -2 1 -1 0 -1 0 0 -1z"/>
<path d="M532 336 l0 -1 1 0 1 0 0 1 -1 1 -1 0 0 0 0 -1z"/>
<path d="M147 333 l1 -2 1 -3 0 -2 1 0 1 0 -1 2 0 3 -1 2 -1 2 -1 0 0 0 0 -2z"/>
<path d="M754 334 l0 -1 0 -1 1 0 0 1 1 2 0 0 -1 0 -1 -1z"/>
<path d="M734 330 l0 -1 0 -1 1 0 0 1 1 2 0 0 -1 0 -1 -1z"/>
<path d="M617 328 l-1 -1 1 -2 0 -1 2 0 1 0 0 1 1 2 -1 1 -2 1 -1 -1z"/>
<path d="M827 327 l-1 -2 0 0 1 0 1 2 1 2 0 0 -1 0 -1 -2z"/>
<path d="M671 327 l-1 -1 0 -1 0 -1 1 0 1 0 0 1 0 2 1 0 2 1 -2 0 -1 0 -1 -1z"/>
<path d="M873 326 l-1 -2 -2 0 -2 0 -1 -2 -2 -2 0 0 0 1 -3 -1 -3 -2 -1 -2 -1
-2 0 -3 0 -3 -4 -4 -3 -4 -5 -5 -4 -4 1 -3 0 -3 -3 -4 -3 -4 -5 -3 -4 -4 -1 1
-1 2 -1 -2 -1 -1 0 1 1 2 -1 0 -1 0 -1 -1 -1 -1 0 1 0 1 1 0 1 0 0 2 0 1 -2 0
-1 -1 -1 -5 0 -4 3 -4 3 -3 4 3 4 4 2 3 2 4 2 2 2 2 0 1 0 1 1 0 1 0 0 4 1 4
2 3 2 3 1 0 1 0 0 -1 0 -1 1 0 1 0 0 2 0 1 1 0 1 0 3 6 3 6 3 1 2 2 0 2 0 1 2
4 2 5 3 2 3 2 1 -1 1 0 0 2 0 1 0 0 -1 0 -2 -1z"/>
<path d="M151 325 l0 -1 1 -2 1 -1 0 1 0 1 -1 1 -1 2 0 -1z"/>
<path d="M162 322 l-1 -1 1 0 1 0 1 -3 2 -4 -1 0 -1 0 0 1 -1 2 -2 0 -2 0 3
-5 2 -4 2 -3 3 -2 0 -2 0 -2 3 -3 4 -4 0 -1 0 -1 -1 1 -1 0 0 -1 1 -1 1 0 1 1
1 -2 2 -1 -1 -1 -1 -1 1 -2 1 -2 1 2 0 2 1 0 1 0 -1 -1 0 -1 4 -5 4 -4 0 -1 0
0 3 -2 2 -2 0 -1 0 -1 0 -2 0 -2 2 0 1 0 0 -1 0 -1 3 -3 3 -3 0 0 0 -1 -1 1
-2 0 -1 -1 0 -1 1 0 1 1 0 -1 0 -2 1 0 1 0 0 -1 -1 -1 1 -1 2 -1 1 1 2 0 1 -2
1 -2 0 1 0 1 1 -2 1 -1 0 -3 0 -2 2 -1 2 0 0 -1 0 -1 2 0 1 0 -2 2 -2 2 -1 0
-1 0 0 1 0 1 2 0 1 0 3 -3 2 -2 3 -3 3 -2 0 -1 0 -1 0 0 -1 0 -2 2 -2 2 -1 0
-1 0 4 -3 3 -3 1 1 1 1 4 -4 4 -4 1 -3 0 -2 0 -1 0 -1 1 0 1 0 -1 3 0 2 0 0 1
0 3 -2 3 -1 2 -2 2 -2 4 -4 3 -4 4 -1 3 -2 0 -2 0 -1 2 0 1 1 2 -1 2 -2 2 1 1
1 -1 4 0 3 2 0 2 -1 -3 3 -3 2 -5 4 -5 3 -5 4 -4 4 0 1 -1 2 -2 1 -3 1 1 2 0
1 -1 0 -2 -1 0 2 0 1 -2 1 -3 0 1 1 0 1 -1 0 -2 0 0 2 0 1 -1 0 -1 0 -4 4 -5
5 1 1 0 1 -1 0 -2 -1 0 1 -1 1 -1 -1 -2 0 -1 2 -1 1 1 0 2 -1 1 1 1 0 -1 2 0
1 -1 -1 -1 0 -4 4 -4 4 -1 0 -1 0 0 1 0 2 -3 1 -2 2 -1 -1 -1 -1 0 1 1 2 -1 2
-1 2 -2 2 -1 1 -1 0 -1 0 0 1 0 1 -2 2 -3 2 -2 4 -3 4 -4 5 -3 6 -2 0 -1 0 -2
3 -1 2 -1 0 -1 0 -1 1 -1 2 -3 3 -3 4 0 1 0 1 -1 1 -2 2 0 -1z m6 -12 l1 -2 0
0 -1 0 -2 3 -2 2 1 0 2 0 1 -3z m9 -12 l0 -1 -1 1 -1 2 0 1 0 1 1 -2 1 -1 0
-1z m6 -8 l0 -1 -1 1 -2 1 0 1 0 0 2 -1 1 0 0 -1z m6 -5 l-1 -1 1 0 2 0 0 -1
0 -2 1 0 1 0 -1 1 0 1 1 0 1 -1 -1 -1 0 -1 1 0 1 0 0 -1 -1 0 2 -2 2 -2 -1 0
-1 0 0 -1 1 -1 2 1 1 0 -1 -1 -1 -2 -2 2 -1 2 -5 5 -4 4 1 1 2 1 0 0 0 0 0 -1z
m14 -15 l-1 -1 3 -2 2 -3 0 -1 -1 -1 -1 2 -2 2 -3 1 -2 2 1 0 1 0 0 1 -1 1 1
-1 2 0 0 1 0 1 1 -1 1 0 -1 -1z m9 -8 l3 -4 1 -1 1 -1 0 -1 -1 0 -4 6 -5 5 0
1 0 1 1 -1 2 -1 2 -4z m47 -52 l2 0 3 -2 3 -3 -2 0 -1 0 -2 1 -2 2 -2 1 -2 2
-1 0 -1 0 -1 2 -1 2 3 -2 3 -3 1 0z"/>
<path d="M159 319 l0 -1 1 0 1 0 0 1 0 1 -1 0 -1 1 0 -2z"/>
<path d="M622 317 l-4 -3 2 1 2 1 3 3 2 2 -1 0 0 0 -4 -4z"/>
<path d="M155 316 l1 -3 1 -2 2 -1 0 -1 0 -1 3 -4 2 -4 1 0 1 0 -1 2 -2 2 -1
3 -2 3 1 0 0 1 -1 0 -1 0 0 1 0 1 -2 3 -2 4 0 -4z"/>
<path d="M721 317 l0 -1 1 -1 1 0 1 0 0 1 -1 1 -2 1 0 -1z"/>
<path d="M541 316 l-1 -1 0 -1 0 -1 3 0 3 0 0 1 0 0 -1 2 -2 1 0 0 -1 0 -1 -1z"/>
<path d="M210 314 l0 -2 1 0 1 -1 0 1 0 1 -1 1 -1 2 0 -2z"/>
<path d="M811 314 l0 -1 0 -1 1 0 1 1 1 2 -1 0 -1 0 -1 -1z"/>
<path d="M748 309 l-2 -2 0 -1 0 -1 -1 0 -2 0 0 -1 0 -1 1 0 1 0 2 2 2 3 0 1
1 1 0 0 0 0 -2 -1z"/>
<path d="M497 307 l-1 -1 1 0 1 0 0 1 0 1 0 0 -1 0 0 -1z"/>
<path d="M505 306 l0 -2 1 1 2 1 -1 1 0 1 -1 0 -1 0 0 -2z"/>
<path d="M197 304 l1 -2 1 0 1 0 0 1 0 1 -1 1 -1 1 -1 0 -1 0 1 -2z"/>
<path d="M831 306 l0 0 -1 -3 0 -2 0 0 1 1 1 2 1 2 -1 0 -1 0 0 0z"/>
<path d="M685 302 l0 -2 -2 0 -2 -1 0 -3 1 -2 2 0 2 0 0 -1 0 -1 1 1 1 2 1 0
1 -1 0 2 -1 3 2 0 1 0 -1 2 -1 1 -2 0 -1 -1 0 1 0 1 -1 0 -1 0 0 -1z m3 -5 l0
-1 -1 0 -1 0 1 1 0 1 1 0 0 0 0 -1z"/>
<path d="M240 297 l0 -1 2 -1 2 -1 0 0 1 0 -2 2 -1 2 -1 0 -1 0 0 -1z"/>
<path d="M814 296 l-2 -2 1 0 2 0 0 -1 0 -1 -1 -1 -1 -1 1 -1 1 -2 -3 -3 -3
-3 -1 0 -1 0 0 -1 1 -1 -5 -5 -4 -5 -6 -6 -6 -6 2 1 2 1 2 3 3 3 1 0 2 0 2 4
3 4 2 0 1 0 1 2 0 2 2 2 2 2 1 -1 1 0 0 2 0 2 2 3 3 3 -1 0 0 1 2 1 2 0 1 1 1
1 -1 1 0 1 -2 -1 -1 -1 1 1 0 2 -3 -1 -3 -1 1 2 0 1 0 0 -1 0 -1 -2z m2 -6 l0
-2 -1 1 -1 0 1 1 2 1 0 0 0 0 -1 -1z"/>
<path d="M260 295 l-2 -1 2 0 2 0 0 1 0 1 0 0 0 0 -2 -1z"/>
<path d="M724 294 l-1 0 0 -1 0 -1 2 0 1 0 0 2 0 1 -1 0 -1 0 0 -1z"/>
<path d="M689 292 l-1 -1 1 0 1 0 0 1 0 1 0 0 -1 0 0 -1z"/>
<path d="M744 292 l-1 -1 0 -2 -1 -2 2 1 2 2 0 2 0 1 -1 0 0 0 -1 -1z"/>
<path d="M247 292 l0 -1 2 -1 2 -1 -2 1 -1 2 -1 0 0 0 0 0z"/>
<path d="M718 288 l0 -1 1 0 1 0 0 1 0 1 -1 0 -1 0 0 -1z"/>
<path d="M682 285 l-3 -2 -2 1 -1 0 1 -1 1 -2 0 -1 -1 -1 0 -2 -1 -1 -2 0 -2
0 0 -1 0 -1 -6 -4 -6 -4 -2 -2 -2 -1 -1 1 -1 0 -2 -2 -2 -2 1 -1 2 0 2 1 3 1
1 2 2 1 6 3 6 4 6 5 7 5 -2 2 -1 1 1 1 1 2 0 0 -1 0 -2 -2z"/>
<path d="M805 286 l0 -1 0 -1 1 0 0 1 1 2 0 0 -1 0 -1 -1z"/>
<path d="M811 286 l0 -1 1 1 1 0 0 1 0 0 -1 0 -1 0 0 -1z"/>
<path d="M203 285 l0 -1 2 0 1 0 0 1 0 1 -1 0 -2 0 0 -1z"/>
<path d="M314 283 l0 -1 0 -1 1 0 0 2 1 2 -1 0 0 0 -1 -2z"/>
<path d="M802 284 l-1 -2 1 0 0 -1 1 0 1 0 0 2 0 2 -1 0 -1 0 0 -1z"/>
<path d="M261 279 l0 0 1 -2 1 -1 -1 -1 -1 -1 0 -1 1 -1 1 0 1 0 -1 1 0 1 2 0
3 -1 0 1 0 1 1 0 1 0 0 -2 1 -2 1 -1 2 0 0 1 0 1 -1 2 -2 1 -1 2 -1 1 -3 0 -3
1 -1 0 -1 1 0 -1z"/>
<path d="M316 278 l0 -1 1 0 1 0 0 1 0 1 -1 0 -1 0 0 -1z"/>
<path d="M320 278 l-1 -1 1 0 1 0 1 1 0 1 0 0 0 0 -2 -1z"/>
<path d="M185 274 l0 -2 -1 0 0 0 -2 2 -1 2 0 -2 0 -1 1 -1 2 -2 1 1 2 2 -1 2
-1 2 0 -3z"/>
<path d="M211 275 l0 -1 1 0 0 0 0 1 0 1 -1 0 -1 0 1 -1z"/>
<path d="M790 274 l-3 -2 -2 -2 -1 -3 -2 -2 -1 -2 0 -1 0 -2 1 0 1 0 1 1 0 1
3 0 2 0 3 3 4 4 1 2 0 2 -1 0 -1 -1 0 2 -1 2 -1 0 0 0 -3 -2z"/>
<path d="M815 275 l0 -1 1 1 1 0 0 1 0 0 -1 0 -1 0 0 -1z"/>
<path d="M286 274 l0 -1 1 0 1 0 0 1 -1 1 -1 0 0 0 0 -1z"/>
<path d="M346 274 l-1 -1 1 0 1 0 0 1 0 1 0 0 -1 0 0 -1z"/>
<path d="M284 272 l0 -2 1 0 1 -1 -1 2 0 2 -1 0 0 0 0 -1z"/>
<path d="M302 271 l-1 -1 0 -1 1 0 1 1 1 2 -1 0 -1 1 0 -2z"/>
<path d="M266 271 l-2 0 0 -1 0 -2 3 -3 2 -3 -1 -2 -1 -1 2 1 2 1 2 -3 3 -2 0
2 -1 3 1 0 0 0 6 -4 6 -5 7 -4 7 -5 1 0 2 -1 -1 1 0 1 1 1 2 1 -2 0 -2 0 1 1
0 1 -1 0 0 0 -4 0 -3 1 -2 1 -1 2 -6 4 -6 4 -2 2 -3 3 -2 2 -3 2 -1 0 -1 0 0
1 0 2 -3 -1z"/>
<path d="M331 270 l-1 -2 0 0 1 0 1 2 1 2 0 0 -1 0 -1 -2z"/>
<path d="M350 271 l0 -1 1 0 0 0 0 1 0 1 -1 0 -1 0 1 -1z"/>
<path d="M727 271 l-1 -2 1 0 1 0 1 1 0 1 0 1 -1 0 -1 -1z"/>
<path d="M715 269 l0 -2 -1 0 -2 0 -1 -2 -1 -1 0 -1 1 0 2 1 3 1 0 -1 0 -1 2
1 2 1 1 1 0 2 -1 2 0 1 -2 0 -2 0 -1 -2z"/>
<path d="M317 269 l0 -1 2 0 1 0 0 1 0 1 -1 0 -2 0 0 -1z"/>
<path d="M722 268 l-1 -2 1 0 1 0 1 1 0 1 0 1 -1 0 -1 -1z"/>
<path d="M569 267 l0 -1 1 0 1 0 0 1 -1 1 -1 0 0 0 0 -1z"/>
<path d="M611 267 l-1 -1 2 -1 2 -1 -3 -1 -2 -1 2 0 3 1 1 0 1 0 0 1 0 1 -1 0
-1 -1 0 2 -1 2 -1 0 -1 0 0 -1z"/>
<path d="M289 266 l0 -1 2 0 1 -1 1 0 0 0 0 1 0 1 -2 0 -2 1 0 -1z"/>
<path d="M291 262 l0 -1 1 1 1 0 0 1 0 0 -1 0 -1 0 0 -1z"/>
<path d="M709 260 l-3 -2 1 -1 2 -1 2 1 1 1 -1 1 0 1 1 1 1 0 0 -1 -1 -1 1 0
1 0 0 1 1 1 -1 0 -2 1 -3 -2z"/>
<path d="M779 261 l0 -1 -3 -1 -2 -1 -1 -3 0 -2 -1 1 -1 0 0 -2 -1 -1 1 0 1 0
3 3 4 3 1 2 0 3 0 0 -1 0 0 -1z"/>
<path d="M386 255 l0 -1 1 0 0 0 0 1 0 1 -1 0 -1 0 1 -1z"/>
<path d="M700 253 l-1 -2 2 1 2 1 0 1 0 1 0 0 -1 0 -2 -2z"/>
<path d="M752 253 l-1 0 -1 0 -2 -1 -7 -6 -7 -6 1 -1 1 -1 -1 -1 -2 -2 0 0 0
-1 2 1 3 2 3 4 2 4 2 1 2 1 3 3 3 3 0 0 -1 1 0 -1z"/>
<path d="M497 251 l0 -1 2 0 2 1 1 0 0 1 -2 0 -3 0 0 -1z"/>
<path d="M551 250 l-2 -1 3 0 3 -1 0 1 0 1 -1 0 -1 1 -2 -1z"/>
<path d="M715 249 l-2 -2 -3 -3 -2 -2 2 1 2 2 3 1 3 1 1 2 0 1 0 1 -1 0 -3 -2z"/>
<path d="M513 248 l2 0 1 0 2 1 -3 0 -3 0 1 -1z"/>
<path d="M540 247 l2 -1 4 -1 4 0 0 1 1 1 -2 0 -2 0 -3 0 -3 1 -1 0 -1 1 1 -2z"/>
<path d="M309 243 l1 -1 0 -2 0 -2 5 -2 4 -2 1 -1 1 -1 7 -3 8 -4 3 0 3 0 3
-2 2 -1 0 -2 0 -1 2 0 1 1 0 1 0 1 -2 1 -1 1 -5 2 -4 3 -3 1 -2 0 -3 3 -2 2
-1 0 -1 0 -4 2 -4 1 -1 1 0 1 -5 2 -4 2 1 -1z"/>
<path d="M244 241 l0 -2 1 1 1 0 0 1 0 1 -1 0 -2 1 1 -2z"/>
<path d="M561 240 l0 -1 -4 0 -3 1 -1 -1 0 -1 3 0 3 -1 3 2 3 2 1 -1 1 -1 0 1
0 1 -2 0 -1 1 -1 0 -1 0 -1 -2z"/>
<path d="M688 240 l-2 -2 1 0 1 0 1 2 1 1 0 1 -1 0 -1 -2z"/>
<path d="M608 239 l0 -1 0 -1 1 0 1 0 1 1 0 1 0 1 -1 0 -1 0 -1 -1z"/>
<path d="M602 238 l0 -1 0 -1 1 0 2 1 2 1 -2 0 -2 1 -1 -1z"/>
<path d="M574 235 l-1 -1 0 -1 0 -1 3 0 2 0 0 3 0 2 -2 0 -2 0 0 -2z"/>
<path d="M728 233 l-1 -1 1 0 1 0 1 1 2 1 -1 0 -1 0 -2 -1z"/>
<path d="M571 229 l-1 -1 3 0 3 1 0 -1 1 -1 2 1 3 1 -3 0 -2 0 0 1 1 1 -2 0
-3 0 -2 -2z"/>
<path d="M559 228 l1 0 1 0 0 1 -2 0 -1 0 1 -1z"/>
<path d="M670 226 l-1 -3 -2 -2 -1 -2 1 0 1 0 3 4 3 4 0 1 0 1 -1 0 -2 0 -1
-3z"/>
<path d="M259 226 l0 -2 1 0 1 0 0 2 0 1 -1 0 -1 0 0 -1z"/>
<path d="M582 225 l-2 -1 1 0 2 0 1 1 2 1 -1 0 -1 0 -2 -1z"/>
<path d="M472 222 l0 -1 1 0 1 0 0 1 0 1 -2 0 -1 0 1 -1z"/>
<path d="M267 221 l0 -1 1 1 1 0 0 1 0 0 -1 0 -1 0 0 -1z"/>
<path d="M479 219 l0 -1 1 0 1 0 1 1 2 1 -3 0 -2 0 0 -1z"/>
<path d="M484 220 l0 -1 2 0 1 -1 -1 1 0 1 -1 0 -1 0 0 0z"/>
<path d="M493 218 l-1 -1 1 0 1 0 0 1 0 1 0 0 -1 0 0 -1z"/>
<path d="M244 211 l0 -1 3 -2 2 -3 1 0 1 0 0 1 0 1 -2 2 -2 2 -2 0 -1 0 0 0z"/>
<path d="M283 210 l0 -1 1 0 0 0 0 1 0 1 -1 0 -1 0 1 -1z"/>
<path d="M570 210 l-1 -1 0 -1 1 0 1 0 0 1 0 1 -1 1 0 -1z"/>
<path d="M236 205 l0 -2 2 -1 2 0 0 -1 0 -1 3 -1 2 -1 1 0 0 0 0 1 0 2 -5 3
-5 3 0 -2z"/>
<path d="M561 205 l0 -1 1 0 2 0 1 0 1 0 0 -1 0 -1 -2 -1 -1 -1 1 0 1 0 1 1 2
2 -1 0 0 1 1 0 2 0 1 0 1 0 0 1 0 1 -1 -1 -2 -1 0 1 0 1 -3 0 -4 0 -1 -1z"/>
<path d="M630 204 l-1 -1 1 1 2 0 0 1 0 0 -1 0 -1 0 0 -1z"/>
<path d="M253 202 l2 -2 4 -3 5 -3 0 -1 -1 0 5 -6 4 -5 7 -5 8 -5 6 -4 6 -4 4
-2 5 -2 5 -5 6 -5 1 0 0 0 0 1 -1 1 1 0 1 0 1 -1 0 -2 2 0 2 0 1 -1 1 -1 2 -1
3 -1 0 -1 -1 0 -2 1 -1 2 3 -5 4 -5 0 -1 0 -1 -2 1 -2 2 -1 0 0 0 -5 3 -4 3
-1 0 -1 0 3 -3 3 -2 0 0 1 0 7 -5 7 -5 1 0 1 0 0 -2 -1 -1 2 -1 2 0 1 -1 1 0
4 -3 4 -3 2 0 2 0 5 -2 6 -2 4 0 4 -1 3 -1 3 -1 6 -2 7 -3 1 0 1 0 -2 2 -2 2
0 2 0 1 1 0 0 0 7 -2 7 -3 6 -2 7 -2 4 0 5 0 -2 -1 -2 0 0 -1 0 -1 1 -1 2 0 0
-6 0 -5 -1 -2 -1 -1 2 -1 2 0 0 -1 1 -1 0 -3 0 -3 4 -2 5 -2 7 -1 8 0 2 -1 2
-1 3 0 4 0 1 2 0 2 3 0 3 0 3 0 3 0 2 0 2 -1 -1 2 0 2 4 -1 5 0 8 -2 9 -3 3 0
3 0 0 -1 0 0 5 -1 4 0 1 -1 1 -1 2 0 2 -1 0 0 1 0 0 -1 -1 -2 1 0 1 0 0 -1 0
-2 2 1 2 0 0 -1 0 -1 1 0 1 1 3 -1 4 -1 5 2 4 2 7 0 8 0 2 0 2 0 10 0 10 1 6
1 6 1 1 0 1 1 1 1 2 0 3 2 4 1 2 0 2 0 0 1 0 1 -1 1 -1 2 -3 2 -3 2 -3 -1 -2
-2 -3 0 -2 0 -1 -1 0 -2 -4 -1 -3 -2 -6 0 -7 0 -1 0 -1 -1 -3 2 -2 3 -3 -1 -2
0 -6 2 -6 2 3 2 2 1 3 0 4 0 6 1 6 1 1 1 2 0 0 1 -1 1 2 0 3 1 2 0 2 0 -2 1
-2 2 -5 -1 -5 0 -4 0 -4 0 -5 0 -4 0 -4 0 -4 0 -1 1 -2 1 0 1 1 0 4 1 4 1 3 2
2 1 0 2 0 2 -3 1 -2 1 -11 1 -10 1 -13 3 -12 4 -4 1 -4 2 -1 0 -1 0 1 -3 1 -2
-2 -2 -2 -2 0 -1 1 -1 1 0 1 0 5 -2 4 -2 0 -1 0 -1 -3 0 -2 0 -6 0 -5 0 -8 4
-8 4 -4 0 -3 1 -1 0 0 1 1 1 2 0 -1 4 0 4 2 2 2 1 -3 2 -3 3 3 0 4 1 8 1 8 1
4 0 4 0 0 -1 0 -2 1 1 2 0 3 0 3 1 5 1 5 2 3 -1 3 -1 7 2 7 2 4 1 5 2 5 5 6 5
3 1 4 0 1 3 1 2 3 1 3 0 1 1 2 0 8 1 9 1 6 1 6 0 0 -1 1 -1 3 1 3 1 4 0 3 -1
3 2 4 1 7 1 8 0 6 1 6 1 1 -1 1 -1 2 0 1 1 1 2 1 2 2 2 2 1 1 1 0 2 -1 1 -1 2
0 -2 1 -2 -3 0 -3 -1 -2 0 -1 0 2 3 3 3 -1 0 0 1 2 0 2 -1 1 2 2 1 -2 0 -1 -1
0 2 0 1 -2 -1 -2 -2 -1 0 -1 0 -4 -2 -4 -3 -2 0 -2 -1 0 0 0 1 5 3 5 2 1 2 2
2 -2 0 -2 -1 -4 -1 -4 -1 -2 -1 -1 -1 -4 0 -4 -1 -4 0 -4 -1 0 0 1 1 -1 1 -1
2 -6 -1 -5 0 -8 -2 -8 -2 -4 0 -3 0 -4 -1 -3 -1 -9 -2 -9 -3 -3 0 -3 0 -4 0
-3 0 -4 1 -3 1 -2 -1 -1 -2 -2 1 -1 0 0 -1 0 -2 -1 0 -2 0 0 1 0 1 -1 0 -1 -1
0 -1 0 -1 -3 1 -3 0 -1 -2 -1 -3 -4 -1 -3 -1 -16 0 -15 0 -4 0 -4 1 -4 1 -3 0
-2 1 -1 1 -5 2 -6 2 1 -2 1 -2 3 -1 2 0 -1 -2 -2 -1 -4 0 -5 0 0 -1 0 -1 3 -1
3 0 -1 -2 0 -2 2 0 2 -1 12 0 12 0 3 0 3 -1 -1 -2 -2 -1 2 0 3 0 0 -1 0 -1 1
0 1 0 2 0 2 0 0 -1 0 -1 -7 0 -7 0 -4 -1 -3 0 -2 -1 -1 -1 -10 -1 -9 0 -2 -2
-2 -2 1 -1 1 -1 -1 -1 -1 -1 -6 -1 -7 -2 0 2 -1 1 0 2 0 2 -2 0 -2 0 0 -1 1
-1 -2 1 -2 1 -2 -1 -1 0 0 1 0 1 1 0 1 0 1 1 0 1 -1 0 0 0 -4 -3 -3 -3 -2 0
-1 1 -1 1 0 1 2 0 3 -1 0 2 0 1 1 0 1 -1 0 1 0 1 -6 0 -5 1 -1 1 0 1 -1 -1 -1
0 0 2 0 1 1 0 1 -1 0 1 0 1 -1 0 -1 0 0 2 0 3 -1 -1 -1 0 0 -1 0 -1 -1 -2 -1
-2 -1 1 -1 2 -1 -2 -1 -1 0 1 0 1 -2 0 -1 -1 -2 1 -2 1 -3 0 -2 1 3 -3 2 -2 2
0 2 0 -1 -2 0 -3 -3 1 -2 0 -2 2 -1 1 0 0 0 -1 -2 2 -3 1 -2 0 -3 -1 1 1 0 1
-1 0 -2 0 -1 -2 -2 -2 1 0 0 -1 2 0 2 0 0 -1 0 -1 -1 0 -1 0 1 -1 1 -2 3 -1 3
0 0 -1 -1 -1 -2 1 -1 0 -4 1 -3 0 0 1 0 1 -3 0 -3 1 -4 2 -3 1 -1 0 0 1 -4 1
-4 1 0 1 0 1 -3 0 -3 1 -4 3 -5 3 1 1 0 1 -1 0 -1 0 0 1 0 1 2 0 1 0 -1 2 0 2
2 -1 2 -1 1 0 1 0 0 2 1 1 -1 1 -2 1 0 1 0 1 2 -2 2 -2 0 -1 -1 -1 2 1 2 1 2
-1 2 -2 1 0 2 -1 -2 0 -1 0 -2 -3 -1 -2 2 1 1 1 0 -1 0 0 1 -1 0 -1 0 -1 0 -1
2 2 2 2 3 0 3 0 -2 2 -1 1 2 -1 3 0 2 -2 3 -1 0 -1 -1 -1 1 -1 0 -2 1 0 1 0
-1 2 0 2 1 0 2 0 4 -1 3 -2 0 -1 0 0 -2 0 -1 1 1 -1 0 -1 2 0 2 0 1 1 1 1 0
-1 0 -2 1 0 1 0 0 2 0 2 -3 0 -3 1 -5 2 -4 2 -2 1 -2 1 -4 0 -4 1 -2 2 -2 2
-1 -1 -1 0 0 1 0 1 -1 0 -1 -1 -3 2 -4 2 -2 1 -1 1 -3 0 -2 1 0 1 0 1 0 0 -1
-1 -6 3 -6 3 -1 -1 -2 0 -2 1 -1 1 -1 -1 -1 -1 0 1 0 1 -1 0 -2 -1 -1 1 0 1
-2 0 -1 -1 0 2 -1 1 -1 0 0 -1 -2 1 -1 1 1 1 0 1 -2 0 -3 -1 -2 3 -3 3 -1 -1
-1 -1 -1 1 -2 0 1 1 0 1 -1 0 -2 -1 -2 2 -2 2 -1 0 -1 1 2 0 2 0 -4 3 -4 4 1
1 0 1 -1 0 -2 -1 0 1 0 1 -2 2 -2 2 -1 -1 -1 0 0 -1 0 -1 2 -1 3 -1 -1 -1 0
-2 3 -2 4 -2 0 -1 0 -1 -6 3 -5 4 -3 1 -3 1 0 -1 0 -1 2 -1 2 -2 1 0 1 0 0 -2
1 -2 -2 0 -1 0 0 -1 1 -1 2 1 3 0 0 -1 0 -1 4 -2 5 -2 1 -3 2 -2 -2 1 -1 0 -4
2 -3 2 -1 -1 0 0 0 1 1 2 -2 0 -1 0 0 -1 0 -1 -1 1 -1 0 1 1 0 2 -1 -2 -1 -1
-3 3 -3 3 0 2 0 2 1 -2 0 -1 1 0 1 0 -1 1 -1 2 -2 -1 -2 -1 -1 1 -2 0 0 1 0 1
-4 2 -3 1 -4 3 -4 3 -1 0 -2 0 -2 3 -2 2 -1 0 -1 0 2 -2z m414 -29 l1 -1 -1 0
-1 -1 0 2 0 1 1 0 0 0 0 -1z m-359 -3 l0 -1 -1 0 -1 0 0 1 -1 1 1 0 2 0 0 -1z
m4 -3 l-1 0 -1 0 -1 1 0 1 0 1 2 -1 1 -1 0 -1z m30 -3 l-1 0 -1 1 -1 1 1 -1 2
0 0 -1z m8 -4 l0 -1 -1 0 0 0 -2 1 -1 1 2 0 2 0 0 -1z m4 -1 l0 -1 -1 0 -1 0
0 1 -1 1 1 0 1 0 1 -1z m-8 -4 l2 -1 0 -1 -1 0 -4 2 -4 2 0 1 0 0 2 -1 3 0 2
-2z m251 2 l-1 -1 -4 -1 -4 0 0 1 0 1 3 0 3 1 2 0 2 0 -1 -1z m-244 -3 l0 -1
-1 1 -1 0 1 1 0 1 1 0 0 0 0 -2z m215 -1 l-1 -1 -2 -1 -1 0 -1 0 -1 0 1 -1 1
-1 0 -1 -1 -1 -2 0 -3 -1 1 2 1 2 -1 1 -1 0 -1 0 0 -1 0 -2 0 -2 -3 -1 -2 -1
-10 -2 -9 -2 -2 0 -2 0 1 2 0 1 -1 0 -1 0 1 2 1 1 -2 0 -2 0 0 1 0 1 6 0 6 1
4 1 5 0 0 -1 0 -1 1 1 2 2 4 1 4 0 3 1 4 1 1 0 2 0 0 -1z m-191 -3 l0 -1 -1
-1 -2 -1 0 1 0 2 2 0 1 0 0 0z m143 -2 l5 0 0 -1 0 -1 -2 0 -3 1 0 -1 0 -1 2
0 1 -1 2 1 1 0 0 -1 0 -1 -5 0 -4 0 1 1 1 0 -1 2 0 1 -5 0 -5 0 -2 0 -2 0 0 1
0 1 5 0 6 -1 5 0z m-10 -4 l-1 0 -1 0 -1 1 1 0 2 0 0 -1z m8 -4 l-1 0 -1 0 -1
1 1 0 2 0 0 -1z m-150 -7 l7 -2 1 -1 2 -1 5 -1 6 -1 2 -1 3 -2 5 0 4 -1 1 1 1
0 -1 2 -1 1 1 0 1 -1 4 -1 4 0 1 -1 2 -1 3 0 3 0 1 -1 2 -1 -2 -1 -1 -1 1 0 1
-1 5 0 5 -1 0 -1 -1 -1 -7 -2 -7 -1 1 0 2 0 -1 -1 -1 -2 -4 2 -3 1 -10 4 -10
3 -4 1 -4 1 -2 1 -2 0 1 -1 1 -2 -1 -1 -1 -1 -3 -1 -3 0 -5 2 -4 3 0 1 0 1 -3
4 -3 3 -4 2 -4 2 0 1 0 0 3 -1 3 0 -3 2 -2 2 0 1 0 1 3 -2 4 -2 8 -3z m155 1
l0 -1 -1 0 -1 -1 0 1 0 1 1 0 1 0 0 0z m15 -1 l-1 -1 -1 0 -1 0 0 1 0 1 2 0 1
0 0 -1z m-21 -1 l0 -1 -6 -1 -5 0 0 1 0 1 1 0 2 1 4 0 5 0 -1 -1z m-93 -1 l0
-1 -3 0 -3 0 1 1 0 1 3 0 2 0 0 -1z m5 -1 l2 0 0 -1 0 -1 -2 0 -3 -1 -1 1 -1
0 1 2 1 1 1 -1 0 -1 2 1z m45 0 l-2 -1 -2 0 -2 -1 0 2 0 1 4 0 4 0 -2 -1z
m-41 -4 l0 -1 -2 0 -1 0 1 1 0 1 1 0 1 0 0 -1z m-7 -6 l-1 -1 0 1 0 1 1 0 0 1
1 -1 0 0 -1 -1z m17 0 l1 0 6 0 6 1 3 -1 2 -1 0 -2 0 -1 -1 1 0 1 -2 0 -2 0 0
-1 0 -1 -10 0 -9 0 -1 1 -1 1 -2 1 -2 0 -1 0 -1 0 0 1 0 1 6 -1 7 0 1 0z m23
-8 l0 -1 -1 0 -1 0 0 1 0 2 1 -1 2 0 -1 -1z m8 -4 l0 -1 0 0 -1 0 0 1 -1 1 1
0 1 0 0 -1z m-34 -21 l-1 -1 -2 1 -3 1 0 1 -1 1 4 -1 4 -1 -1 -1z m111 2 l0
-1 -3 0 -2 0 -2 1 -1 1 4 0 4 0 0 -1z m10 -8 l0 -2 -1 0 -1 -1 -1 1 -2 0 0 1
0 1 2 0 2 1 0 0 1 0 0 -1z"/>
<path d="M552 149 l-1 -1 1 0 1 0 1 1 0 1 0 0 0 0 -2 -1z"/>
<path d="M537 146 l1 0 1 0 2 1 -3 0 -2 0 1 -1z"/>
<path d="M625 202 l-1 -1 1 0 1 0 1 1 2 1 -1 0 -1 0 -2 -1z"/>
<path d="M275 196 l-1 -1 2 -2 2 -2 1 2 0 2 0 1 -1 1 -1 0 -2 0 0 -1z"/>
<path d="M288 194 l0 -1 1 0 1 -1 0 1 0 1 -1 1 -1 0 0 -1z"/>
<path d="M627 188 l-1 -1 2 1 3 1 0 1 0 0 -1 0 -2 0 -1 -2z"/>
<path d="M618 186 l-4 -3 -1 0 0 0 0 1 1 1 -1 -1 -2 0 1 -1 0 -1 -2 0 -1 -1
-3 -1 -2 0 -4 -1 -3 0 -4 -2 -4 -2 -4 0 -4 0 -2 -2 -1 -1 5 0 5 1 4 1 4 0 5 1
5 1 4 2 5 2 -1 1 0 1 1 0 2 -1 -1 2 0 1 1 0 2 -1 3 2 3 1 0 1 0 1 -1 0 -1 0
-5 -2z"/>
<path d="M350 184 l2 -2 1 0 2 0 1 -1 1 -1 7 -3 8 -3 3 -1 4 -1 -1 1 -1 2 -6
1 -5 2 -6 3 -5 3 -4 0 -3 1 2 -1z"/>
<path d="M467 184 l0 -1 1 0 2 0 2 -1 2 0 5 -1 5 -1 18 0 18 0 1 1 1 1 -17 -1
-17 0 -10 2 -10 2 -1 -1z"/>
<path d="M720 182 l0 -1 1 0 1 1 1 1 0 1 -1 0 -2 0 0 -2z"/>
<path d="M670 182 l-2 -2 0 -1 1 -1 2 1 2 2 1 1 0 1 -1 0 -2 0 -1 -1z"/>
<path d="M711 178 l-1 -1 1 0 1 0 1 1 0 1 -1 0 -1 0 0 -1z"/>
<path d="M362 167 l0 -1 1 0 0 0 0 1 0 1 -1 0 -1 0 1 -1z"/>
<path d="M393 149 l-1 -2 3 1 3 0 0 1 0 0 -1 1 -1 1 -1 0 -1 0 -1 -2z"/>
<path d="M407 147 l-2 -1 1 -1 1 -1 1 1 1 0 -1 1 0 1 1 0 1 0 0 1 0 1 -1 0 0
0 -2 -2z"/>
<path d="M417 146 l-1 0 -1 -2 0 -2 3 0 3 1 -1 1 -2 1 0 1 0 1 -1 -1z"/>
<path d="M411 144 l0 -2 1 1 0 1 0 1 -1 2 0 -3z"/>
<path d="M427 145 l0 -2 3 -1 3 -1 0 1 0 1 -3 1 -3 2 0 -1z"/>
<path d="M357 144 l0 -1 2 0 3 0 -2 1 -1 1 -1 0 -1 0 0 -1z"/>
<path d="M464 144 l0 -1 1 1 1 0 0 1 0 0 -1 0 -1 0 0 -1z"/>
<path d="M380 142 l0 -1 1 0 1 0 0 1 0 1 -1 0 -1 0 0 -1z"/>
<path d="M443 140 l0 -1 2 0 1 0 0 1 0 1 -1 0 -2 0 0 -1z"/>
<path d="M383 135 l-1 -3 1 0 2 -1 1 1 2 1 -2 1 -1 1 2 0 2 0 0 1 0 1 -2 0 -3
0 -1 -2z"/>
<path d="M408 134 l0 -1 2 0 2 0 -2 1 -1 1 -1 0 -1 0 1 -1z"/>
<path d="M463 133 l0 -1 1 0 2 0 0 1 1 1 -2 0 -2 0 0 -1z"/>
<path d="M460 128 l1 0 1 0 0 1 -2 0 -1 0 1 -1z"/>
<path d="M504 124 l1 0 1 0 0 1 -2 0 -1 0 1 -1z"/>
<path d="M590 104 l1 -1 2 1 1 0 0 1 0 0 -2 0 -2 0 0 -1z"/>
<path d="M570 102 l2 -1 3 1 2 0 0 1 0 0 -4 0 -4 0 1 -1z"/>
<path d="M416 98 l3 -3 2 0 1 0 4 -2 3 -2 1 0 0 0 -3 3 -4 2 0 1 0 1 -4 1 -4
2 -1 0 -1 0 3 -3z"/>
<path d="M676 91 l-3 -1 0 1 -1 0 0 -2 0 -2 2 0 2 1 3 -2 2 -1 2 1 1 1 0 1 0
2 -3 1 -2 1 0 0 0 0 -3 -1z"/>
<path d="M599 88 l-1 -1 8 0 9 0 1 0 1 0 1 1 0 1 -9 0 -9 0 -1 -1z"/>
<path d="M655 86 l-5 -1 6 0 7 0 1 1 0 1 -2 0 -2 0 -5 -1z"/>
<path d="M934 71 l-2 -1 -4 -4 -3 -3 1 0 2 0 3 3 3 2 -2 -1 -1 0 0 1 1 1 1 0
2 0 1 2 1 1 -1 0 0 0 -2 -1z"/>
<path d="M912 68 l-4 -3 -3 -2 -2 -2 0 0 1 0 7 5 7 4 0 1 0 0 -1 0 -1 0 -4 -3z"/>
<path d="M957 66 l-6 -5 -1 0 0 1 1 2 1 1 -3 -2 -4 -2 -1 -1 0 -1 2 1 3 2 0
-1 -1 -2 1 0 1 0 1 1 1 1 2 -1 2 -1 -1 2 0 1 5 5 5 4 -1 0 0 0 -7 -5z"/>
<path d="M937 68 l-3 -2 -2 -2 -1 -1 -1 0 -1 0 0 -1 0 -2 1 0 2 -1 -1 2 0 2 4
2 5 3 1 1 0 1 -1 0 0 0 -3 -2z"/>
<path d="M919 68 l-3 0 -1 -2 -1 -1 0 -1 1 0 2 2 3 1 0 -1 0 -1 1 0 1 1 -1 -2
0 -3 1 0 1 -1 1 1 1 1 -1 0 -1 0 0 4 1 3 -1 0 0 0 -4 -1z"/>
<path d="M943 66 l-2 -1 -3 -2 -2 -2 4 0 3 0 -1 1 -1 0 3 3 2 3 0 0 0 0 -3 -2z"/>
<path d="M917 62 l-2 -2 2 2 3 2 0 1 0 0 0 0 -1 0 -2 -3z"/>
<path d="M964 55 l-3 -1 2 0 3 0 4 1 5 1 -4 0 -3 0 -4 -1z"/>
<path d="M957 53 l1 0 1 0 2 1 -3 0 -2 0 1 -1z"/>
<path d="M924 50 l0 -1 1 -1 1 0 1 0 0 1 -1 1 -2 1 0 -1z"/>
<path d="M932 49 l1 0 1 0 0 1 -2 0 -1 0 1 -1z"/>
</g>
</svg>
