<?xml version="1.0" standalone="no"?>
<!DOCTYPE svg PUBLIC "-//W3C//DTD SVG 20010904//EN"
 "http://www.w3.org/TR/2001/REC-SVG-20010904/DTD/svg10.dtd">
<svg style="fill: black; stroke: black;" version="1.0" xmlns="http://www.w3.org/2000/svg"
 width="592.000000pt" height="535.972691pt" viewBox="0 0 592.000000 535.972691"
 preserveAspectRatio="xMidYMid meet">
<metadata>
Created by potrace 1.16, written by Peter Selinger 2001-2019
</metadata>
<g transform="translate(-231.000000,780.972691) scale(1.000000,-1.000000)"
fill="#000000" data-original="#000000" stroke="none">
<path d="M361 780 l-3 -2 0 -1 0 -1 -6 -6 -5 -6 -2 -4 -2 -3 -3 -9 -4 -9 0 -1
0 -1 -3 -2 -3 -3 0 -1 0 -1 -1 0 -2 0 0 -1 0 -1 3 0 3 0 0 1 1 2 1 -2 1 -1 1
1 1 2 1 3 1 4 2 1 1 2 0 -6 -1 -5 -1 -6 0 -5 -2 -4 -2 -4 1 -2 1 -2 2 -2 1 -2
5 0 5 0 1 -3 2 -3 0 -2 0 -2 1 0 1 -1 -1 -3 0 -3 -3 -4 -2 -3 -4 -2 -5 -2 -1
1 -1 1 -4 -2 -4 -2 -1 1 -2 1 -2 0 -1 -1 0 -1 0 -2 1 -3 2 -2 1 0 1 1 0 -3 0
-3 -2 -2 -2 -3 -3 1 -2 0 -1 4 -1 3 1 1 0 1 0 3 1 2 -1 -1 -1 0 0 2 -1 2 -1
-1 -1 -1 -1 0 -1 0 0 1 1 1 -3 1 -3 0 -4 4 -3 4 0 0 0 1 -4 0 -4 0 0 1 -1 1
-2 0 -2 0 0 1 0 1 -2 0 -1 0 1 1 1 0 0 1 0 1 -3 0 -2 -1 -5 -2 -4 -2 -4 -1 -3
-1 -2 -3 -1 -2 -2 -6 -2 -5 -1 1 -1 1 0 -5 -1 -4 0 -6 0 -6 1 -14 2 -14 1 -2
1 -3 1 -5 0 -4 0 -4 0 -4 5 -5 4 -5 3 -8 4 -7 0 -2 0 -1 -2 0 -2 0 -2 -2 -2
-2 0 -3 1 -3 -2 0 -1 0 -4 1 -4 1 -3 3 -3 3 -5 2 -4 2 -3 -1 -2 -1 1 -2 0 -2
-2 -2 -1 -1 1 -1 1 -1 4 0 3 0 3 -2 3 -3 1 0 1 0 0 -2 1 -3 -1 0 -1 0 0 1 0 1
-5 2 -4 3 -4 0 -3 0 -3 -2 -3 -2 -2 -3 -1 -3 0 -6 0 -5 1 -3 1 -2 3 -4 3 -4 0
-3 -1 -2 1 0 1 1 0 -1 0 -1 -1 0 -1 0 0 -5 1 -6 2 -4 3 -5 4 -3 3 -3 2 1 2 1
0 0 1 0 1 -3 0 -3 0 -2 0 -1 1 -1 2 -1 0 -3 0 -3 1 -1 0 -2 4 -2 4 -2 4 1 4 0
1 0 2 0 5 0 6 0 0 -2 0 -3 1 -1 2 -1 4 0 3 -1 1 -1 1 -1 2 0 2 0 1 1 0 2 2 0
1 -1 5 -4 4 -4 -1 -1 -1 -1 -3 1 -3 0 0 -1 0 -1 -2 -1 -1 0 -2 -2 -1 -1 -4 1
-3 1 -1 0 -1 0 1 -1 1 -1 0 0 -1 -1 -2 0 -1 -1 -3 -1 -2 -1 -2 0 -2 0 -4 -4
-5 -4 0 -1 -1 0 -5 0 -5 -1 -3 -2 -2 -1 0 -1 0 -1 -2 -3 -2 -3 0 -10 0 -10 1
-3 2 -2 1 -3 2 -3 5 -5 5 -5 1 1 1 0 0 -2 0 -2 -1 1 -1 2 0 -3 0 -3 2 -4 3 -4
-1 4 0 5 0 2 -1 2 4 0 4 -1 1 0 2 0 0 -2 0 -3 2 -1 1 -2 1 0 1 0 1 1 0 1 3 -2
2 -3 3 -1 2 0 0 -1 -1 -1 -3 -1 -3 -1 -1 0 -1 -1 -1 -3 -1 -2 -2 0 -2 1 -3 0
-2 1 -2 -3 -1 -4 -3 0 -3 -1 -1 -3 -1 -2 -1 -1 -1 -1 0 -4 0 -3 1 -1 1 0 1 -4
2 -4 2 0 2 0 5 -4 5 -4 1 0 1 0 1 -2 1 -3 4 0 3 -1 2 2 3 1 2 0 2 0 1 -1 1 -1
-1 -3 -1 -4 1 -4 1 -4 1 -1 2 -1 2 0 2 0 2 -2 3 -1 2 1 2 2 2 -2 2 -1 0 -1 0
-1 0 -1 1 0 0 -2 0 -2 -1 1 -1 0 1 -1 1 -1 1 0 1 1 -1 1 0 2 2 0 1 1 0 2 -1 2
1 0 1 0 0 -1 0 -1 1 1 1 0 0 1 -1 2 -1 0 -1 0 -1 0 0 0 1 1 1 2 0 2 0 3 1 -1
1 0 0 2 0 2 1 0 1 1 2 -5 3 -5 0 -4 0 -3 1 -3 0 -3 4 -5 3 -4 2 -1 2 0 1 1 2
1 0 5 1 4 1 0 1 0 3 3 2 2 -1 1 -1 1 1 1 0 2 2 1 2 0 0 1 0 1 2 0 2 -1 1 2 0
2 1 0 1 0 0 2 0 1 2 -2 2 -2 2 0 3 1 0 2 0 2 -3 2 -3 3 0 1 0 1 -4 8 -3 7 -2
0 -1 1 -1 4 0 4 -3 5 -2 5 -1 -1 -1 0 0 2 0 2 -1 0 -1 1 1 -3 1 -3 1 -3 1 -3
-1 -1 -2 -2 -1 3 -1 3 0 2 1 3 -1 0 -1 0 1 3 0 4 1 0 1 1 0 4 0 4 1 0 2 1 -2
3 -2 3 2 3 2 3 -1 5 -2 6 2 1 1 1 3 0 3 0 4 -3 4 -3 5 -5 6 -5 1 0 2 0 2 1 2
1 5 -2 4 -3 2 0 3 0 -3 1 -3 2 -4 4 -4 5 -1 -1 -1 0 -1 1 -1 2 3 0 4 -1 3 -1
4 -1 0 -2 -1 -1 2 1 3 0 3 -3 3 -3 2 0 1 0 0 -2 0 -1 3 -1 3 -1 6 -1 6 0 4 -1
4 -1 7 -1 8 -2 1 -1 1 0 7 0 7 -1 1 -1 2 -1 9 0 8 0 1 1 0 1 5 0 6 0 4 -2 5
-1 3 -1 3 0 12 -1 13 0 0 -1 0 -1 -4 -3 -3 -3 -2 0 -1 0 0 -1 0 -1 -4 0 -4 0
-1 -1 0 -1 -1 0 -1 1 -8 -2 -8 -1 -7 0 -6 0 -4 2 -3 1 0 -1 0 -1 -2 1 -2 2 -2
1 -1 1 -2 0 -3 0 -6 2 -5 1 -4 0 -4 0 0 1 -1 2 -2 0 -3 0 2 -2 1 -1 1 1 1 0 0
-1 0 -1 -1 0 -1 0 1 -1 1 -1 0 -1 0 -1 -1 1 -1 0 0 -1 1 -2 -2 1 -1 0 -4 4 -4
4 -2 0 -2 -1 -4 -1 -3 0 -1 -3 -1 -2 0 -2 0 -1 0 -2 0 -2 3 -1 2 -1 0 -1 0 -2
1 0 1 0 1 -4 1 -4 5 -5 4 -4 1 -4 1 -3 2 -3 1 -2 5 -2 5 -2 3 0 4 -1 1 0 2 0
1 -3 1 -3 4 -3 4 -4 2 1 1 1 2 0 2 -1 1 1 0 1 3 0 2 0 0 1 0 1 2 0 1 0 0 -2 0
-3 -4 -1 -4 -1 -2 -1 -1 0 0 2 1 2 -2 0 -1 0 0 -2 0 -2 -3 0 -2 0 -1 -4 -1 -3
0 -11 -1 -10 2 -2 2 -2 4 0 5 0 2 -2 2 -1 2 0 2 1 0 -1 0 -1 3 -1 2 -1 0 0 1
0 0 3 1 4 2 0 2 0 0 1 0 1 1 0 1 -1 0 1 0 1 -2 0 -1 1 -2 -2 -1 -1 0 1 0 1 1
1 1 0 0 2 0 2 3 1 2 0 3 -2 3 -2 0 -1 0 -1 2 -3 2 -3 2 0 3 0 2 -2 2 -1 2 0 2
1 1 2 0 2 0 3 1 3 1 1 2 2 0 5 0 6 1 0 1 1 2 -1 2 -1 0 -2 1 -2 2 -1 2 0 0 2
1 2 -1 1 -2 0 0 4 1 4 1 1 1 0 0 -1 1 -1 1 0 1 0 -1 3 0 4 -2 5 -1 6 -2 3 -1
3 -3 1 -2 1 -3 0 -2 0 -2 0 -2 -1 0 1 1 1 -3 0 -3 0 -1 1 0 1 1 1 2 0 0 2 -1
1 2 2 3 2 0 3 1 2 -1 -1 -1 0 0 2 -1 1 -1 0 -2 0 -1 -1 -1 -2 -3 4 -3 4 -4 3
-3 3 -2 0 -2 1 -1 1 -1 2 2 0 2 0 7 1 7 0 0 1 0 1 1 0 1 0 8 4 8 4 5 0 6 0 2
-1 3 -1 4 -1 5 0 3 -1 4 0 9 4 9 4 0 2 0 1 3 0 3 1 1 -1 1 -1 5 1 6 0 2 -1 3
-2 1 2 2 2 2 -1 2 -1 1 1 2 1 1 0 1 -1 1 1 0 2 1 -1 1 0 0 1 0 2 1 -2 1 -1 0
1 0 2 3 -1 3 0 1 -1 1 0 5 1 5 2 0 3 0 3 2 0 2 1 1 1 1 0 1 1 1 1 1 0 1 0 0
-5 1 -4 2 -4 1 -3 2 0 2 1 1 -1 0 -1 2 1 1 1 1 0 0 -1 -1 0 -1 0 0 -1 0 -1 2
0 2 1 3 -2 3 -1 0 -2 -1 -1 3 -3 4 -3 2 0 3 0 0 -2 0 -1 2 -3 2 -2 0 -2 1 -1
-1 4 0 5 2 1 2 0 2 0 2 -1 0 -1 0 -1 2 0 3 0 1 -1 1 -1 0 -2 0 -2 2 0 2 1 1
-2 2 -2 -2 -3 -1 -4 -4 -1 -4 -2 0 1 0 2 0 0 0 1 -1 1 -1 1 -3 0 -3 0 -2 -8
-3 -8 0 -9 -1 -8 2 0 1 -1 0 -2 0 -2 -1 0 -1 1 0 -2 0 -3 2 -6 2 -5 2 0 2 1 1
-1 1 -2 4 1 3 1 0 1 0 1 1 0 1 0 2 -1 1 -2 0 0 -1 0 2 -2 1 -1 1 -1 1 0 1 0 2
-1 2 1 2 1 0 2 1 3 2 3 1 4 3 0 2 0 2 2 3 3 -1 2 0 2 3 0 3 0 0 2 1 2 -1 2 0
3 3 0 3 0 0 -1 0 -1 2 -1 3 0 3 -3 3 -2 2 0 2 -1 0 -1 0 -1 2 -2 1 -1 0 2 0 3
1 -2 1 -1 0 1 0 2 2 -1 1 -1 0 1 0 0 2 -1 1 -1 0 -2 0 -2 2 -1 2 -1 -1 0 -1 0
2 -3 1 -3 2 0 1 0 0 -1 1 -2 2 0 1 0 0 6 -1 6 1 1 2 1 0 -1 1 0 1 1 1 2 2 0 1
0 0 1 0 1 -2 1 -1 1 -5 0 -5 1 -1 1 -1 1 -2 4 -2 4 -1 0 -1 0 -1 0 -1 0 0 1 1
0 -1 3 -1 2 3 1 3 2 0 1 1 1 3 1 4 2 0 -1 0 -1 2 1 1 0 0 -1 0 0 -2 -2 -1 -1
1 0 2 1 0 -1 1 -1 4 0 4 0 -1 -1 0 -1 3 -1 2 -1 0 1 0 0 -1 2 -1 2 1 0 2 0 0
1 0 2 0 1 0 1 1 0 1 0 0 -1 -1 -2 1 0 1 -1 0 -4 0 -4 2 1 1 0 -1 2 -1 1 0 1 0
0 0 5 -1 4 -1 -1 -1 0 -1 2 -1 2 1 1 1 2 -1 -2 0 -2 1 0 1 -1 0 2 0 3 -1 0 -2
0 0 2 0 1 -1 0 -1 0 0 2 1 2 1 0 0 1 3 -6 3 -5 0 0 1 0 0 3 0 2 -1 0 -1 0 -2
4 -1 3 -1 0 -1 0 1 1 0 2 -1 0 -1 1 1 2 0 1 -1 0 -1 0 -2 3 -2 4 -3 3 -2 3 -4
2 -3 3 -2 -1 -2 0 -1 1 -1 2 -1 4 -1 4 -1 1 0 1 1 -1 2 0 0 2 0 2 1 0 1 0 1 2
0 3 1 1 0 1 0 1 1 0 0 -4 0 -4 1 1 1 1 0 7 0 7 -1 4 -2 4 -2 2 -2 2 -2 -1 -2
0 1 1 0 1 -2 -1 -2 0 1 1 1 2 -1 0 -1 0 -2 0 -1 0 -4 4 -4 3 0 1 1 2 0 1 1 2
-1 3 -1 2 1 1 0 1 -2 0 -3 -1 0 2 -1 1 -2 0 -1 0 -2 1 -1 2 -2 1 -1 2 -4 3 -3
4 -11 3 -12 4 0 1 -1 1 -3 0 -4 1 -3 -1 -3 -2 0 0 -1 0 0 1 0 1 3 3 2 3 3 3 3
3 -6 -1 -7 0 0 1 0 1 1 0 1 0 2 0 2 1 2 1 2 1 -2 0 -2 0 -1 1 -2 1 2 5 2 6 0
2 1 2 -2 2 -1 1 -2 -2 -1 -1 -2 -4 -2 -4 -1 1 -1 1 -1 -1 0 -2 0 -1 1 -1 -8
-9 -8 -8 -2 -1 -2 0 0 -1 0 -2 -5 -5 -5 -5 -3 0 -4 -1 -3 -3 -3 -3 0 -1 0 -1
-4 -3 -4 -3 0 -2 0 -1 -1 -2 -2 -1 -1 1 -2 1 0 -1 0 0 -1 1 -1 1 -1 -2 -2 -1
0 -1 0 -1 1 0 1 1 0 -1 0 -1 -4 -2 -3 -1 -9 -6 -9 -6 -2 0 -1 0 0 -2 1 -2 -6
-5 -5 -4 -3 0 -2 0 -4 1 -3 2 -6 1 -5 1 -5 -3 -5 -2 -4 0 -4 -1 -5 -1 -4 -1 3
-1 4 -1 -5 -2 -4 -2 -7 -1 -7 0 -1 -1 0 0 -2 1 -1 1 -6 1 -5 0 -3 0 -3 0 2 1
2 1 2 0 3 0 0 1 0 1 -2 0 -2 0 -2 0 -1 1 -5 1 -5 0 -13 0 -13 1 -9 1 -8 1 -2
2 -2 2 5 -1 6 0 -4 1 -4 1 -3 0 -2 -1 0 1 0 1 -6 0 -5 0 -4 2 -4 2 1 0 2 1 -4
0 -3 -1 -1 0 -1 -1 -2 2 -2 2 1 1 0 2 -2 1 -2 0 0 2 1 2 -2 1 -2 0 0 2 0 1 -2
0 -2 0 0 1 0 1 3 -1 4 -1 2 -1 2 0 2 -2 2 -2 -1 -1 -1 -1 1 -1 1 -1 1 1 1 0
-1 2 0 1 3 -1 4 0 5 -3 6 -2 3 0 3 -1 1 -1 1 -2 4 0 5 -1 13 -2 13 -2 14 -1
15 0 2 0 3 0 3 0 3 1 3 1 4 2 9 2 10 1 5 2 5 1 0 0 1 0 7 4 7 3 8 4 8 5 7 4 7
5 6 4 6 3 8 7 8 6 1 0 2 1 0 3 1 3 3 3 4 4 2 4 3 3 5 2 5 2 4 1 4 0 2 2 2 1 3
0 3 -1 3 1 2 2 -1 5 0 5 2 2 2 2 2 4 2 4 3 1 2 0 0 1 0 1 2 0 2 -1 2 3 3 3 2
3 2 2 0 1 0 1 6 6 6 6 3 1 2 1 2 1 3 1 4 2 5 2 3 5 3 4 0 2 0 2 2 1 3 1 1 3 1
2 0 2 0 3 -2 1 -3 2 -4 -1 -3 -1 -2 -2 -2 -1 -1 1 0 1 -2 0 -2 0 -7 -7 -7 -8
-2 0 -2 0 -2 -2 -2 -3 -2 1 -3 1 -1 0 0 -1 1 -2 1 -2 -1 -2 -1 -1 -4 -2 -3 -2
-6 0 -5 0 -1 1 -1 2 -2 -2 -2 -1 -1 2 -1 1 0 0 1 0 -1 2 -1 2 -1 4 -1 3 2 -1
2 0 0 3 -1 4 -3 2 -3 3 -1 -1 -1 0 -4 3 -3 4 0 2 1 2 3 0 3 0 0 -2 0 -1 1 1 0
1 2 1 2 1 6 -3 6 -4 1 0 1 0 0 -1 1 -1 3 -2 4 -1 -1 1 0 1 1 0 2 -1 0 1 0 1
-1 1 -2 0 0 1 0 1 1 0 0 -1 3 1 3 1 0 1 0 1 -3 -1 -3 0 -3 2 -2 2 -2 0 -1 0
-2 3 -2 2 -2 0 -1 0 0 1 0 1 -7 0 -7 0 -1 -2 0 -1 -2 0 -1 0 0 -1 0 -1 -3 0
-2 0 -2 2 -2 2 -1 1 -1 1 -7 7 -7 7 -3 1 -2 0 -2 1 -1 0 0 1 0 1 2 0 1 -1 0 1
0 2 -3 2 -3 3 -2 -1 -2 -2 -3 0 -2 -1 -5 4 -4 3 -6 3 -6 3 -7 4 -6 4 -1 -1 -1
0 0 1 0 1 -2 0 -2 0 0 1 0 1 -5 2 -4 2 -5 2 -5 2 -5 1 -5 0 -2 1 -2 1 0 3 0 3
-1 1 -1 0 0 3 0 3 2 0 1 -1 0 3 0 3 -1 0 -1 -1 0 2 1 3 -2 -1 -1 0 0 1 1 1 -3
2 -3 3 -8 -1 -8 0 -4 -1 -4 -1 -3 -4 -2 -4 -1 -4 -2 -3 -3 1 -3 1 -7 0 -6 -1
-5 -1 -5 -1 -3 -1 -3 0 -1 -1 0 0 -3 -1 -3 0 -10 -4 -9 -3 -3 -1 -3 -1 -1 -3
-1 -2 -3 0 -4 0 1 -2 0 -1 -1 0 -1 1 0 -2 0 -2 2 -1 2 -1 1 2 0 2 6 2 5 1 0 1
-1 0 2 2 2 2 8 4 7 4 2 0 1 0 0 1 1 2 0 -2 0 -1 4 2 5 1 9 1 9 0 0 -1 -1 -1 1
-1 1 0 3 -1 3 0 1 -1 1 -1 2 0 2 -1 3 0 3 -1 1 2 0 1 1 -1 1 -1 3 -2 3 -2 1 0
2 0 0 2 1 1 2 0 3 0 0 -1 0 -1 4 0 3 -1 0 -1 0 0 -4 -3 -3 -4 1 -1 0 -1 1 -2
0 -1 1 -2 1 -1 1 1 1 0 1 -2 2 -2 -1 -1 -1 -1 1 0 1 0 3 -6 3 -5 1 -1 1 -1 4
-6 4 -6 4 -1 5 0 7 -1 8 0 13 -1 14 0 2 1 1 1 -2 2 -3 2 1 3 1 3 2 -1 3 0 1
-1 2 0 0 1 -1 1 1 0 1 1 4 -2 5 -2 0 0 1 0 3 -3 3 -3 -5 -5 -4 -6 0 -1 0 -1
-3 0 -2 -1 -2 -1 -1 -1 0 -4 0 -4 5 -6 4 -7 0 -1 0 -2 -2 1 -2 0 -4 4 -3 4 -3
4 -2 5 1 1 0 2 -4 1 -4 1 -9 3 -8 3 -6 1 -5 0 -11 1 -10 0 -3 -2 -3 -1 -1 -3
0 -2 -4 -1 -4 -2 -1 0 0 0 -5 0 -4 -1 -1 1 -1 1 -1 -1 -1 0 -2 0 -2 0 -1 -3
-1 -2 2 0 1 -1 0 -2 0 -2 -1 -2 -2 -2 -1 0 -1 0 -2 3 -2 2 -4 2 -4 3 -2 2 -3
3 -2 2 -2 2 -4 1 -4 1 -2 -1 -1 -1 -5 0 -4 0 -2 -1 -2 -1 -2 0 -3 0 -3 -3 -2
-2 -4 -2 -4 -2 -3 0 -2 0 0 0 0 1 1 3 2 4 3 1 4 1 6 1 7 2 9 2 10 2 4 0 4 1
11 0 11 1 3 1 4 1 3 1 4 2 0 -1 0 0 2 2 2 2 -1 3 0 3 -1 3 -1 3 -5 3 -4 3 -1
1 -1 2 -4 7 -4 7 0 2 0 1 -2 1 -2 0 0 2 1 1 -2 0 -1 1 -1 0 -1 0 -2 -3 -2 -3
-2 0 -2 0 -6 -3 -7 -3 -1 -2 -1 -2 1 0 2 1 0 -1 0 -1 -3 -1 -4 -1 -5 -4 -5 -3
-10 -7 -10 -6 -1 0 -1 0 -2 -1 -1 -1 0 2 0 2 -2 -1 -1 -2 1 -1 1 0 -1 -1 0 -2
1 0 2 -1 0 1 -1 1 3 1 3 2 1 0 1 0 -2 -3 -2 -3 -1 0 -2 0 0 -2 0 -1 -1 0 -1 0
-3 6 -3 6 -1 5 -1 5 -2 3 -2 3 0 2 0 3 -3 3 -3 3 -1 0 -1 0 -1 -2 -1 -2 0 -2
0 -3 -2 -4 -2 -3 -3 -1 -2 -1 2 0 3 -1 3 -4 3 -4 1 -2 1 -3 1 0 1 0 0 -1 -1
-2 2 0 1 0 0 1 0 1 1 -1 1 0 -1 -1 -2 -1 2 -3 1 -2 4 -5 3 -4 0 -1 0 -1 1 0 1
0 0 -2 0 -1 -1 -3 -2 -3 0 -5 -1 -4 0 -4 0 -3 -2 1 -2 0 0 -1 0 -2 -1 0 -1 0
0 1 1 2 -1 0 -1 1 0 -1 -1 -1 -1 0 -1 0 0 2 -1 3 2 3 3 2 0 2 0 2 -1 -2 0 -1
-1 1 -1 0 -1 -1 0 -2 -2 1 -3 0 0 2 -1 2 -2 0 -2 0 -10 -5 -11 -5 -1 0 -1 0
-5 -5 -6 -5 -6 -8 -6 -7 -2 -2 -2 -2 0 -1 0 -1 -1 0 -1 0 0 1 0 1 3 2 2 3 0 1
0 0 -2 -1 -1 -1 -3 -2 -3 -3 0 -1 0 -1 -3 -1 -2 -1 -1 -3 0 -3 -1 1 -1 1 -1 6
0 6 -1 2 0 2 -2 0 -1 0 -1 -1 -2 0 0 -1 0 -1 2 0 1 0 -1 -2 -1 -2 -2 0 -1 0 0
-1 0 -2 -2 -1 -2 -1 0 1 0 1 -5 0 -4 1 1 -1 1 0 1 -4 2 -3 0 -3 0 -3 1 -1 1
-1 0 -3 0 -2 -1 -1 -1 0 -2 0 -1 0 0 1 1 2 -2 4 -2 4 -1 1 -2 1 -2 4 -2 4 0 6
0 6 1 5 2 5 4 4 5 5 -1 -1 -1 -1 2 -2 3 -3 1 1 2 0 0 1 0 1 -1 -1 -1 0 1 1 1
1 1 0 1 1 3 2 2 2 0 0 1 0 3 3 4 4 0 2 1 3 3 3 2 3 3 0 2 0 1 1 1 1 0 1 0 2
-1 -2 -2 -2 -1 1 -1 1 1 0 2 1 0 1 0 1 3 4 4 3 3 2 4 2 -1 -1 0 -1 1 0 1 0 2
3 3 2 5 4 6 3 0 1 0 1 -2 -1 -1 0 2 3 1 3 3 2 4 2 -1 1 0 1 3 1 4 2 1 1 1 2 0
1 -1 0 1 2 1 2 2 0 2 0 1 1 1 1 -1 2 0 1 -1 0 -2 0 0 -1 -1 -2 -2 0 -2 0 0 -1
-1 -1 1 0 1 0 -1 -1 0 -1 -1 0 -1 1 0 -2 -1 -1 -1 0 -1 0 -2 -2 -2 -1 0 2 -1
2 2 3 2 3 0 2 1 3 -4 5 -3 4 -2 0 -2 0 0 1 0 1 0 10 -1 11 1 1 1 2 2 2 2 2 -1
1 -1 1 1 1 1 1 1 0 1 -1 1 3 1 2 1 0 1 0 0 0 1 0 1 2 2 2 0 0 0 1 -2 2 -1 1 1
1 1 1 0 0 -1 1 -1 -1 -2 -2 -2 2 -2 2 0 2 0 1 -1 0 -1 0 1 1 0 1 0 3 0 4 -2 4
-1 5 1 1 0 1 -2 4 -1 5 -1 2 0 3 -5 7 -5 8 -7 6 -7 7 0 4 0 4 0 4 1 5 -4 2 -4
3 -4 3 -4 3 -1 2 0 3 -2 0 -2 1 -1 0 -1 0 -4 -1z m-17 -36 l0 0 -1 -2 -1 -1 0
2 0 2 1 0 1 0 0 -1z m57 -17 l1 -5 1 -1 1 0 0 -2 0 -2 -2 1 -1 0 -3 3 -2 4 -3
3 -2 3 -1 3 0 4 1 0 0 1 4 -4 4 -3 2 -5z m-43 -44 l0 -2 -2 1 -1 0 2 1 2 1 0
0 0 0 -1 -1z m202 -31 l0 -1 -2 0 -1 1 -2 0 -1 0 1 1 1 0 -1 1 0 1 2 -1 3 -1
0 -1z m-298 -12 l0 -2 1 -1 1 -1 -1 0 -1 0 1 -1 1 -1 0 -3 1 -2 1 -2 1 -1 -1
-3 0 -3 -1 1 -1 0 -1 5 0 6 0 0 0 1 -1 1 -1 2 0 5 -1 5 1 -2 1 -1 0 -3z m255
0 l-1 0 -1 0 -1 1 2 0 3 0 -2 -1z m54 -16 l10 -3 4 -2 4 -2 -2 0 -2 1 0 -1 0
-1 -4 1 -5 1 -7 3 -7 3 -3 0 -4 0 -1 0 -1 1 2 2 3 1 1 0 2 -1 10 -3z m2 3 l2
0 -1 -1 0 -1 -2 0 -1 0 0 2 0 1 0 0 1 0 1 -1z m7 -2 l0 -2 -1 0 -1 0 1 2 0 1
1 0 0 0 0 -1z m4 -1 l2 0 -1 -2 -1 -1 -2 1 -1 0 1 2 0 1 1 0 0 0 1 -1z m-70
-8 l0 -1 -4 -1 -3 -2 -1 0 0 0 2 2 2 2 2 0 2 1 0 0 0 0 0 -1z m-102 -20 l0 -1
-2 -2 -2 -2 0 1 0 2 1 1 1 0 -1 1 0 1 1 0 2 0 0 -1z m34 -6 l0 -3 -1 0 0 0 -1
2 -1 3 1 0 0 1 1 0 0 -1 1 -2z m-44 -5 l-1 -2 -1 1 -1 0 1 1 0 1 2 0 1 0 -1
-1z m55 -2 l1 -1 0 -1 0 0 -1 0 -2 0 0 2 0 2 1 0 1 0 0 -2z m1 -11 l0 -1 -1 1
-2 0 0 2 0 1 2 -1 1 0 0 -2z m231 1 l-1 0 -1 0 -1 1 1 0 2 0 0 -1z m65 -15 l0
-1 -3 -2 -2 -2 1 2 2 2 1 0 1 1 0 0 0 0 0 0z m-483 -8 l0 0 -1 0 -2 0 0 1 0 1
2 -1 1 0 0 -1z m331 -15 l-1 -1 -1 0 0 1 0 1 1 1 1 0 1 0 -1 -2z m-55 -11 l3
-3 3 -11 4 -10 5 -12 6 -11 2 -4 2 -3 2 0 1 0 1 -1 1 -1 2 -3 2 -3 6 -6 6 -6
-1 -1 0 -1 -2 0 -2 0 0 -2 1 -1 -1 0 -1 1 -1 -1 -2 0 0 -3 0 -2 3 -2 2 -3 -1
-3 -2 -3 0 -2 0 -2 -1 1 -2 0 1 -2 0 -2 -1 1 0 1 -2 -1 -1 -1 -3 0 -3 1 -1 3
0 3 -1 1 -1 2 0 4 -1 4 -4 11 -4 12 -2 2 -1 3 1 1 0 2 -1 0 -1 0 0 -2 0 -1 -1
1 -2 2 0 1 0 1 -2 3 -3 4 0 1 0 2 -3 2 -3 3 0 1 0 1 -1 -1 -1 0 -5 2 -4 2 1
11 0 11 0 2 1 2 1 -1 1 0 -1 2 -1 2 1 2 1 1 4 -1 3 -1 -1 2 0 1 1 0 1 0 2 -2z
m-178 -21 l-1 -2 -1 0 -1 0 1 2 1 2 1 0 0 -1 0 -1z m346 -45 l0 -1 -1 0 -1 0
0 1 -1 1 1 0 2 0 0 -1z m-330 -17 l3 -3 -3 1 -3 2 -3 3 -3 3 3 -2 3 -2 3 -2z
m-9 -38 l0 -2 -2 1 -2 1 -1 1 0 1 2 0 3 0 0 -2z m414 -9 l0 -2 -1 -2 -2 -2 0
3 -1 3 1 1 0 2 2 0 1 0 0 -3z m-186 -32 l0 -1 -1 -1 -2 -1 0 -2 0 -1 -5 -2 -5
-3 -5 -2 -4 -1 -2 1 -3 2 -2 0 -2 0 0 1 0 1 -4 -1 -5 0 0 1 0 1 1 1 2 1 14 3
14 2 2 1 3 1 2 0 2 0 0 -1z m-231 -33 l0 -2 2 -3 3 -3 -2 0 -2 0 -2 2 -1 2 -1
2 -1 2 1 1 0 1 1 0 1 0 1 -2z m340 -11 l1 -2 0 -3 0 -3 -3 0 -3 -1 -1 1 0 0 1
4 1 4 1 1 1 1 1 0 1 0 0 -2z m-215 -22 l2 -1 -4 0 -4 -1 -3 0 -2 0 -2 1 -1 1
0 1 0 1 6 -1 6 0 2 -1z m56 -19 l0 -1 -1 0 -1 0 0 1 0 1 1 0 1 0 0 -1z"/>
<path d="M567 470 l0 -1 1 1 0 1 0 1 -1 0 0 -2z"/>
<path d="M592 356 l0 -1 -2 0 -1 1 0 -1 0 -1 1 0 1 -1 2 2 2 2 -1 0 -1 0 -1
-1z"/>
<path d="M578 352 l1 0 1 0 2 1 -3 0 -2 0 1 -1z"/>
<path d="M313 736 l-3 0 -2 -2 -3 -1 -3 -5 -3 -4 2 2 3 2 2 0 1 0 0 -1 0 -1
-4 -4 -3 -3 0 -1 1 0 5 5 6 5 1 0 2 0 3 2 4 2 2 -1 2 -1 0 1 1 1 -2 2 -1 2 -4
0 -3 1 -4 -1z"/>
<path d="M262 695 l-2 -7 0 -1 0 -2 1 0 1 1 0 3 1 4 1 -3 1 -2 0 1 1 2 -1 2 0
3 1 2 1 2 1 0 1 0 0 0 0 1 -2 1 -3 0 -2 -7z"/>
<path d="M427 695 l0 -1 4 -3 3 -4 0 1 0 2 -2 1 -1 2 -2 1 -2 1 0 0z"/>
<path d="M261 676 l0 -1 1 1 0 1 0 1 -1 0 0 -2z"/>
<path d="M321 676 l1 -1 1 1 1 1 -2 0 -2 0 1 -1z"/>
<path d="M452 616 l1 0 -1 -2 -1 -2 0 0 1 0 2 2 2 2 -2 0 -2 1 0 -1z"/>
<path d="M638 587 l0 -1 2 -1 2 -1 -2 1 -1 2 -1 0 0 0 0 0z"/>
<path d="M402 579 l-1 -1 1 0 2 0 1 1 0 1 -1 0 -2 0 0 -1z"/>
<path d="M753 565 l-1 -1 1 0 2 0 0 1 0 1 0 0 0 0 -2 -1z"/>
<path d="M676 459 l-2 -3 -2 -2 -1 -2 2 1 2 2 2 3 2 3 0 0 0 1 -3 -3z"/>
<path d="M750 454 l-1 -3 2 0 1 0 0 1 0 2 2 1 1 2 -2 0 -3 0 0 -3z"/>
<path d="M661 448 l-3 -2 -7 -6 -7 -5 0 -2 0 -1 3 2 2 3 1 0 1 0 3 3 3 3 0 -1
1 0 0 1 0 2 3 2 4 3 -1 0 0 0 -3 -2z"/>
<path d="M624 419 l-1 -1 2 0 1 -1 1 0 0 1 -1 1 -1 1 -1 -1z"/>
<path d="M480 393 l1 0 1 0 0 1 -2 0 -1 0 1 -1z"/>
<path d="M365 390 l0 -1 1 0 1 0 1 1 0 1 -1 0 -2 0 0 -1z"/>
<path d="M551 385 l2 0 1 0 2 1 -3 0 -3 0 1 -1z"/>
<path d="M796 373 l-1 -1 1 1 1 1 0 1 -1 0 0 -2z"/>
<path d="M793 372 l0 -2 1 0 1 0 -1 2 -1 1 -1 0 0 0 1 -1z"/>
<path d="M449 360 l2 -1 1 0 1 0 -2 1 -1 1 -1 0 -1 0 1 -1z"/>
<path d="M488 353 l2 -1 2 0 3 -1 0 1 0 1 -3 1 -2 1 -2 0 -1 0 1 -2z"/>
<path d="M685 355 l0 -1 2 0 1 -1 -1 1 0 1 -1 0 -1 0 0 0z"/>
<path d="M440 335 l0 -1 1 1 1 0 0 1 0 0 -1 0 -1 0 0 -1z"/>
<path d="M821 322 l1 -1 -1 -2 0 -1 1 0 1 0 0 1 0 1 -1 1 0 2 -1 0 -1 0 1 -1z"/>
<path d="M447 319 l0 0 1 -2 1 -1 2 0 1 1 -1 2 -1 1 -2 0 -1 0 0 -1z"/>
<path d="M819 305 l0 0 1 -2 1 -1 0 1 0 2 -1 1 -1 0 0 -1z"/>
<path d="M681 266 l-1 -2 2 1 2 2 0 1 0 0 0 0 -1 0 -2 -2z"/>
<path d="M675 263 l0 -3 1 1 0 2 0 2 -1 2 0 -4z"/>
<path d="M676 256 l-4 -4 1 0 1 0 1 2 2 2 3 -1 4 0 -3 1 -2 1 1 2 1 1 -1 0 0
0 -4 -4z"/>
<path d="M657 255 l0 -4 1 0 1 0 -1 4 0 4 -1 0 0 0 0 -4z"/>
<path d="M665 256 l-3 -3 1 0 1 1 0 -2 1 -1 0 2 0 2 1 0 1 0 1 2 1 2 0 0 0 0
-4 -3z"/>
<path d="M673 256 l-2 -2 1 0 1 1 1 2 1 2 0 0 -1 0 -1 -3z"/>
<path d="M689 257 l1 0 1 0 0 1 -2 0 -1 0 1 -1z"/>
<path d="M645 251 l-2 -6 1 0 1 0 1 5 2 6 2 -4 1 -4 0 1 0 1 3 3 2 3 0 1 -1 0
-2 -2 -2 -3 0 0 -1 0 0 3 -1 2 -1 0 -1 0 -2 -6z"/>
<path d="M694 255 l0 -1 1 0 1 0 0 1 -1 1 -1 0 0 0 0 -1z"/>
<path d="M667 252 l-1 -1 2 1 2 1 0 1 0 0 0 0 -1 0 -2 -2z"/>
</g>
</svg>
