<?xml version="1.0" standalone="no"?>
<!DOCTYPE svg PUBLIC "-//W3C//DTD SVG 20010904//EN"
 "http://www.w3.org/TR/2001/REC-SVG-20010904/DTD/svg10.dtd">
<svg style="fill: black; stroke: black;" version="1.0" xmlns="http://www.w3.org/2000/svg"
 width="671.000000pt" height="724.000000pt" viewBox="0 0 671.000000 724.000000"
 preserveAspectRatio="xMidYMid meet">
<metadata>
Created by potrace 1.16, written by Peter Selinger 2001-2019
</metadata>
<g transform="translate(-183.000000,858.000000) scale(1.000000,-1.000000)"
fill="#000000" data-original="#000000" stroke="none">
<path d="M513 857 l-1 -2 1 0 2 0 0 2 1 1 0 0 -1 0 -2 -1z"/>
<path d="M509 849 l0 -1 2 0 1 -1 -1 1 0 1 -1 0 -1 0 0 0z"/>
<path d="M509 843 l0 -1 1 0 1 0 0 1 -1 1 -1 0 0 0 0 -1z"/>
<path d="M615 841 l-4 -3 0 -2 0 -1 -3 -1 -2 -1 -2 -3 -2 -4 -2 0 -1 0 0 -1 1
-2 -1 0 -2 0 0 1 -1 1 1 0 1 1 -1 2 -1 2 -4 0 -3 0 -3 3 -4 3 -2 0 -3 0 -2 -1
-1 -2 -2 0 -2 0 -2 2 -2 3 -6 1 -5 2 -4 -2 -5 -2 0 -2 0 -1 1 -2 1 -3 -1 -2
-2 -2 0 -4 -1 -4 -1 0 -1 0 1 -1 0 -1 1 0 1 1 0 -1 1 -2 -2 -1 -1 -1 0 1 0 1
0 0 0 1 -2 0 -2 0 -2 -2 -2 -1 0 -1 0 -1 2 1 2 0 -2 -1 -2 -1 -4 1 -3 2 -2 0
-1 0 0 1 0 1 -1 0 0 0 -2 0 -1 0 1 3 0 3 -1 2 -2 1 0 2 1 1 -1 -1 -1 0 0 1 0
1 1 0 1 0 0 2 1 2 -1 0 -1 1 1 1 1 2 -3 0 -3 -1 1 2 1 1 0 1 -1 0 0 -1 0 -1
-2 1 -2 0 1 -3 0 -2 1 -1 0 0 -1 -2 -1 -1 1 -1 1 -1 0 -2 0 -2 -2 0 -1 0 -2
-2 -3 -1 0 -1 0 -1 0 -1 0 -1 -2 0 -2 0 -1 -2 0 -1 -1 1 -1 2 -1 -2 -1 -1 -1
1 -2 0 0 -1 1 -1 -1 0 -1 -1 0 1 0 1 -2 0 -2 1 0 1 0 1 -2 4 -3 4 0 -1 -1 0 0
1 0 1 -2 0 -2 0 -1 -1 0 -1 -1 0 -1 0 -3 0 -3 -1 -1 -3 0 -2 -2 -2 -1 -2 0 -3
0 -2 1 0 1 0 -1 -3 0 -3 -1 -1 -1 -1 1 -1 2 -1 0 0 1 0 1 1 0 1 -1 0 -1 0 0 1
0 1 3 -2 3 -1 -1 -1 -1 -1 0 -2 0 -2 -2 -1 -3 -1 0 -1 0 -1 2 0 1 1 -1 -1 -1
-2 1 1 2 0 0 -1 0 -2 1 0 1 -1 -2 -5 -1 -5 1 -2 2 -2 -2 0 -1 0 1 -2 2 -1 3 0
4 -1 1 1 1 0 0 2 0 1 1 0 1 0 0 -1 -1 0 1 -2 1 -2 1 1 1 0 0 -1 -1 -1 -2 1 -1
0 0 -2 1 -2 0 -3 0 -2 3 -2 2 -3 -2 -6 -1 -5 0 -1 0 -1 -3 0 -2 0 -1 -1 -2 -1
1 -2 0 -1 2 -1 1 -1 -1 -1 -1 -2 1 -2 1 -3 -1 0 0 -1 -2 1 -2 1 0 -1 0 -1 -2
0 -3 0 -1 1 -1 1 -1 -1 -1 -1 -1 0 -1 0 -1 -1 0 -1 2 -1 3 -1 0 -2 0 -2 -3 0
-3 0 1 1 1 0 0 1 0 1 -2 0 -3 -1 -1 0 -1 -1 0 -2 0 -2 -2 -2 -2 -2 0 -2 0 -2
1 0 2 -1 -1 -3 0 -3 -5 -11 -6 -12 -3 -4 -4 -4 -1 -3 -1 -2 2 2 2 2 -5 -10 -5
-10 -2 -3 -3 -3 0 -2 -1 -2 -2 -1 -2 0 0 -1 0 -1 -5 -6 -5 -5 0 -2 0 -1 -2 0
-1 0 1 -2 0 -1 -1 0 -2 1 1 -2 0 -2 -1 1 -1 2 -6 -7 -5 -6 -4 -4 -3 -3 -3 -5
-3 -4 0 -1 0 -1 -1 -1 -2 -1 0 -3 0 -3 -2 0 -1 0 0 -1 1 0 -2 -2 -1 -2 0 -2 0
-2 2 -1 2 -1 1 1 2 0 -2 -3 -1 -2 -6 -8 -5 -7 -2 -1 -1 0 -1 1 -1 1 -3 -3 -3
-4 -1 -2 -1 -2 -7 -6 -7 -7 -6 -4 -6 -5 -3 -3 -2 -2 -3 -2 -2 -2 -7 -6 -7 -5
-3 -2 -2 -3 -1 0 -1 0 -3 -2 -2 -3 -1 0 -1 0 0 -1 0 -1 -5 -3 -4 -2 -3 -3 -3
-2 -2 -2 -2 -2 -1 0 0 0 -5 -2 -4 -2 -5 -2 -5 -3 -5 -1 -4 -1 -1 1 -1 1 -5 -1
-4 0 -4 -2 -4 -2 -2 0 -2 0 -3 -2 -2 -3 1 0 2 0 1 2 1 2 0 -2 0 -1 2 0 1 1 0
-1 0 -1 -1 -1 0 -2 -2 0 -2 0 1 -1 0 -1 3 0 2 1 0 -1 0 -1 -1 0 -1 -1 1 -1 2
-1 -3 -3 -2 -2 -2 0 -1 0 0 -1 0 -1 -3 -1 -2 0 -2 -1 -2 0 -4 -1 -4 0 -4 -2
-4 -2 -2 -1 -2 -2 3 -7 2 -6 2 -3 3 -2 5 -7 5 -7 0 1 0 1 -2 2 -2 3 -1 2 -1 3
1 0 1 0 3 -2 3 -3 -1 0 -1 0 1 -2 2 -1 2 -3 3 -2 3 -5 3 -4 7 -8 7 -7 -1 -2 0
-1 2 0 1 1 -1 -2 -1 -2 2 0 2 0 0 -1 0 -1 -1 1 -1 0 0 -1 1 -1 1 0 1 1 1 -1 2
0 -1 -2 0 -2 1 1 1 1 3 0 3 0 2 -3 1 -2 -2 0 -2 0 0 1 0 1 1 0 1 0 0 1 -1 0
-2 1 -1 0 0 -2 1 -1 3 -2 4 -2 1 1 1 2 0 -2 0 -1 3 0 2 -1 3 -2 2 -1 0 -2 1
-2 3 -1 2 -1 0 2 0 1 2 0 3 -1 1 0 1 0 0 -3 0 -2 0 0 -1 0 -3 1 -2 1 2 -2 2
-3 1 1 0 1 1 0 1 0 1 -3 1 -3 4 -1 3 0 3 0 2 1 2 -1 1 -2 2 1 2 1 0 2 0 1 1 0
2 -1 1 1 0 1 4 0 4 0 2 -1 2 0 0 -2 1 -2 -2 -2 -1 -1 -1 -1 0 0 0 -2 -1 -1 -1
-4 -1 -3 1 -2 1 -2 2 0 1 0 0 -1 0 -2 1 -2 1 -3 2 0 2 -1 0 -2 -1 -3 4 -4 5
-4 5 0 5 -1 0 1 1 1 3 0 2 0 1 -2 2 -1 3 -1 3 0 2 0 2 0 -1 -1 0 -2 1 0 2 0 1
2 1 3 -1 2 -1 2 3 1 3 1 3 0 4 1 0 -2 0 -1 2 0 2 0 0 -1 -1 -2 1 0 1 0 3 2 3
1 0 2 1 1 1 0 1 -1 0 2 1 2 1 0 1 0 -1 -2 -1 -2 1 0 2 1 0 -2 1 -2 2 1 1 2 -1
2 -2 1 0 1 0 0 1 -1 2 -1 1 1 1 1 0 2 0 1 1 0 2 1 2 -3 1 -3 1 0 0 0 2 1 2 1
2 -1 3 -2 0 1 0 2 1 -2 1 -1 5 0 5 1 2 -1 2 -1 3 3 2 3 2 0 1 0 0 -1 0 -1 1 1
2 2 5 0 5 0 1 0 1 1 1 4 1 4 3 1 3 2 0 4 -1 3 1 0 2 -1 1 1 2 2 1 3 2 4 0 1 0
1 2 1 1 1 0 0 0 1 0 1 0 1 1 -2 1 -1 0 1 0 1 1 0 1 -1 -1 -2 0 -1 1 1 1 1 1 0
1 0 -1 -1 0 -2 1 0 2 0 0 1 1 2 3 0 3 0 4 1 3 1 2 -1 1 -1 0 1 0 2 0 0 0 1 2
0 2 1 -1 1 0 2 2 1 2 1 1 3 0 3 -2 -1 -1 -2 0 -1 0 -1 -1 0 -1 0 0 2 1 1 -1 1
-1 1 1 1 2 1 -1 0 -1 0 -2 -1 -2 -1 0 1 0 1 1 0 1 0 -1 2 -1 2 1 0 2 0 -1 2 0
2 -2 -1 -1 0 -1 1 -1 0 1 2 1 1 -1 1 0 2 1 -2 2 -1 -1 3 0 2 -1 -1 -1 -1 0 1
0 1 1 1 1 0 -1 1 -1 2 2 1 1 2 0 3 0 2 -2 0 -1 0 -1 1 0 1 2 0 2 0 1 0 2 0 0
1 -1 2 1 1 1 2 -1 2 0 1 -3 0 -3 -1 1 2 1 1 -1 0 -1 0 -2 -1 -2 -1 1 0 2 0 0
-1 0 -2 1 0 2 -1 -2 -1 -2 -2 -2 1 -3 0 0 2 0 1 -1 0 -1 0 0 -3 -1 -3 -1 0 -1
-1 0 1 -1 2 2 1 1 2 -1 0 -1 0 -1 -2 -2 -2 -2 2 -2 2 -2 0 -2 0 2 1 3 1 1 0 1
-1 0 2 0 1 -1 0 0 -1 -2 2 -1 3 -1 3 0 3 1 1 0 2 2 0 1 0 0 1 -1 1 1 0 2 0 0
1 0 1 2 0 2 0 1 1 1 1 10 0 10 1 6 2 6 1 0 0 1 0 0 2 1 1 -1 0 -2 -1 -6 -1 -5
-1 -5 0 -5 -1 0 1 0 2 -1 -2 -1 -1 -1 0 0 1 0 1 1 2 6 1 6 1 1 1 0 1 4 1 3 0
1 2 1 1 2 0 1 0 4 2 5 2 -4 0 -3 -1 0 2 0 2 3 0 4 0 1 0 1 0 0 1 0 1 2 0 3 1
0 0 1 0 2 2 2 2 0 -1 1 0 2 3 3 3 0 -2 0 -1 1 1 1 0 4 0 3 0 2 1 1 2 0 -2 -1
-1 0 0 1 0 2 2 2 2 2 0 1 0 0 2 1 1 -1 0 -1 0 0 2 -1 1 2 0 1 -1 4 1 4 1 -7 2
-6 1 -5 0 -4 -1 -2 1 -1 2 0 1 1 2 -1 0 -1 0 0 3 0 2 -1 0 -1 0 0 3 -1 2 1 0
1 0 0 2 0 2 1 0 2 -1 0 1 1 1 2 -1 3 -2 1 1 1 0 0 1 -1 2 2 2 1 2 0 1 -1 0 0
-1 0 -1 -2 1 -2 0 0 2 -1 2 1 -1 1 0 0 1 0 2 -3 2 -3 3 -3 0 -2 1 -5 1 -4 0 1
1 1 0 0 1 0 2 -2 0 -1 1 1 2 2 2 -1 2 0 3 -2 1 -1 2 -6 0 -6 1 -2 0 -1 1 -3
-1 -3 0 -1 -1 -1 0 0 1 0 1 -1 0 -2 0 0 1 0 1 -1 -1 -2 0 0 1 0 1 -1 -1 -1 0
-1 2 0 2 -1 0 -1 0 -2 0 -1 0 0 2 1 1 -3 -1 -2 0 0 1 0 0 4 4 4 3 0 3 1 3 -2
-1 -1 0 -2 -1 -1 -1 0 -1 0 -1 2 0 1 1 0 -1 0 -1 -2 -1 -2 -2 1 2 0 2 -1 0 -2
-1 0 1 0 0 1 2 1 2 -3 -2 -4 -2 -1 1 0 0 1 2 1 2 -1 1 -2 1 1 1 0 1 -2 -1 -2
-1 -1 0 -1 0 2 3 3 2 -3 0 -3 -1 0 1 0 1 2 1 2 1 0 2 -1 1 3 3 4 4 1 -1 1 0 1
2 0 3 2 0 1 0 0 1 0 1 2 0 1 0 2 4 1 3 4 2 3 1 0 1 0 1 3 3 2 2 -1 0 0 0 1 2
2 2 0 1 -1 1 -2 0 -1 -1 -2 2 -2 2 0 1 0 1 1 1 1 1 3 0 2 0 0 -2 0 -2 1 0 1 0
0 1 0 1 2 3 3 3 0 1 0 0 -3 4 -3 4 -1 -1 -1 0 1 2 0 1 2 0 1 0 0 1 0 1 1 -1 2
0 1 4 2 4 -2 4 -2 4 -3 1 -2 2 -2 1 -1 0 -1 0 -1 0 1 3 0 2 -2 0 -2 0 0 2 1 2
-3 0 -3 0 0 1 0 1 -1 0 -1 -1 -2 3 -2 2 -2 0 -1 -1 -1 1 0 1 -1 -1 -1 0 -1 2
-1 2 0 3 0 4 -1 3 -1 3 1 1 1 0 -1 2 0 1 1 0 2 0 1 -4 2 -4 5 -8 5 -7 3 -2 3
-2 0 -1 0 -1 2 1 1 0 0 -1 0 -2 1 0 1 1 3 -1 2 0 2 -3 1 -4 2 -2 3 -3 0 -3 0
-3 1 1 1 2 0 -1 0 -1 0 -2 1 -1 1 -3 1 -2 0 -3 1 -3 1 -3 0 -3 2 -2 1 -2 0 -2
0 -1 -4 -4 -4 -4 -1 0 -1 0 -1 -2 -2 -3 -1 1 -1 0 0 -1 0 -2 -2 0 -1 -1 0 -2
1 -2 -2 -2 -1 -3 2 0 3 0 0 -2 0 -1 2 -1 3 -1 -2 0 -1 0 1 -1 0 -1 -2 0 -2 0
0 -3 0 -4 -1 0 0 0 -1 -3 0 -2 3 -2 3 -3 -1 0 -1 -1 3 0 4 -1 0 -1 0 -1 -2 0
-1 0 2 -2 3 -2 2 -1 2 0 0 -1 1 -1 4 -3 5 -2 1 -1 1 0 2 -2 3 -1 0 -1 0 -2 3
-1 4 -1 3 -2 3 -2 2 -3 3 -2 1 0 1 1 1 -2 1 -2 1 0 1 0 2 -2 2 -2 2 0 2 -1 -2
-1 -1 0 -1 -2 0 -1 2 -3 2 -3 -1 1 -2 0 0 -1 -1 -1 1 0 2 0 1 0 2 -1 2 -1 3 0
0 1 -1 1 1 0 0 0 4 -2 3 -3 1 0 1 0 1 -2 1 -2 2 1 2 0 -1 2 0 1 2 -1 2 -1 0
-2 0 -2 2 0 1 -1 1 0 0 1 -1 1 -2 0 0 2 0 1 2 -1 1 0 0 1 -1 1 2 0 2 0 2 -2 1
-1 0 -1 0 -1 -2 0 -2 0 1 -2 1 -2 -1 -1 -1 -1 -2 0 -1 1 0 -1 0 -1 1 0 1 -1
-1 -2 0 -2 -1 0 -1 0 1 1 0 2 -2 -2 -1 -2 -6 0 -6 -1 -1 -1 -1 0 -3 -4 -2 -4
-1 0 -2 0 0 -2 0 -2 2 0 1 0 0 -2 0 -3 -2 -4 -2 -3 1 -1 0 -1 2 0 2 0 2 2 2 1
1 -1 0 -2 -1 -2 -2 -1 0 0 -1 0 -3 0 -3 -1 0 -2 1 -1 -3 -1 -3 -1 -6 -2 -5 -2
-1 0 0 -1 -2 1 -1 1 -1 0 -2 -1 0 -1 0 -1 2 1 2 0 0 0 0 -1 -3 -3 -4 -4 0 -3
0 -2 -1 -2 -1 -1 0 -3 0 -3 -1 0 -1 -1 0 -2 0 -1 1 0 1 0 0 1 -1 2 6 1 6 1 1
-2 0 -2 2 0 1 1 -1 -2 -1 -2 1 0 2 1 -1 -3 0 -2 1 1 2 0 0 0 0 -1 -2 -3 -1 -3
-4 -2 -3 -2 -5 -2 -5 -3 -2 -2 -1 -1 0 0 1 -1 2 2 2 2 1 0 0 0 0 -2 -1 -3 2 1
2 1 0 -1 1 0 4 2 3 2 2 0 1 0 2 2 2 2 2 0 3 1 -3 -2 -2 -2 1 0 1 0 5 3 6 3 1
-1 1 0 -1 -1 -1 -2 2 0 2 0 1 0 1 0 -1 -1 0 -2 2 -1 2 0 2 -3 3 -3 -1 -1 0 -1
-1 1 -1 2 -1 0 -1 0 1 -1 1 -1 0 -1 0 -1 -1 0 -1 1 -1 -2 -1 -2 2 0 2 0 0 1
-1 1 1 0 2 1 2 -1 1 -2 -1 -1 -2 -2 0 -1 0 -1 -1 0 -1 -1 1 0 1 0 1 2 1 2 2 0
2 0 1 -2 1 -1 1 -2 1 -1 1 1 2 1 3 1 3 0 5 0 6 0 1 -1 1 0 0 1 0 2 3 1 2 1 3
0 2 -1 0 -2 -1 -2 2 0 2 -1 -3 0 -3 0 0 -2 1 -2 -2 -1 -2 -1 -1 -3 -1 -3 -9
-4 -9 -5 -6 -2 -6 -3 0 0 -1 0 0 2 1 1 -2 0 -1 -1 -1 0 0 0 0 -1 0 -1 1 1 1 0
0 -1 0 -2 -3 -1 -4 -2 -5 -3 -4 -4 -8 -3 -7 -3 0 1 0 1 2 1 2 1 0 2 0 2 -2 0
-3 1 0 2 0 1 -2 0 -3 -1 0 1 0 2 -1 -2 -1 -2 -1 0 -1 0 1 1 2 1 -4 0 -4 -1 4
3 5 2 0 2 0 1 -1 0 -1 0 -7 -2 -6 -3 -3 -2 -3 -1 -2 -2 -1 -2 -4 -1 -3 -1 -3
-2 -2 -2 -6 -3 -6 -3 -3 0 -2 0 0 -1 0 -1 1 0 2 -1 -3 -2 -2 -1 0 -1 0 -1 2 1
2 2 2 -1 2 -1 -4 -2 -3 -2 -2 -1 -2 0 -1 -1 -1 -1 1 -1 0 -1 -2 -1 -1 -1 -3 1
-2 1 -5 -2 -4 -2 -1 0 -1 0 0 -2 1 -1 -4 -2 -4 -2 -4 -1 -4 0 -1 -2 0 -2 -2 0
-1 0 0 2 0 1 -2 0 -2 0 -1 -1 0 -2 -2 0 -2 -1 1 -1 1 -2 0 -2 -1 -2 2 -2 1 -1
2 0 2 1 2 -2 3 -2 -3 -1 -3 -1 0 -2 1 -1 0 -1 0 -1 -1 -2 0 -2 1 -1 1 0 3 -3
3 -3 1 1 1 2 0 -2 -1 -1 2 0 2 -1 0 -2 0 -3 -1 0 -1 -1 1 0 2 0 1 2 1 1 -1 0
-1 0 1 1 0 1 1 -1 1 -1 -1 -1 -1 -1 0 -1 0 -1 3 1 4 0 4 1 5 1 3 0 3 1 1 -1 2
-1 0 1 -1 1 1 0 2 0 4 1 4 1 0 -1 0 -1 -2 -1 -3 -1 0 -1 0 -1 -1 1 -1 0 0 -1
1 -2 -1 0 -1 0 -1 1 -1 1 1 -2 0 -2 4 1 4 0 3 1 3 1 0 -1 0 -1 -4 -1 -3 -2 -2
0 -1 0 0 -2 0 -1 -1 0 -1 1 -3 -2 -3 -1 -4 0 -3 0 -3 -1 -2 0 0 -1 0 -1 2 0 1
0 0 -1 0 -1 1 1 1 0 4 0 3 -1 -1 -1 -1 -1 3 0 4 0 3 -1 3 0 1 -2 1 -1 0 1 0 1
2 -1 2 -1 2 0 3 0 0 -1 0 -2 1 1 2 0 1 -1 2 0 1 -1 2 0 0 1 1 1 2 -1 1 0 0 -2
0 -2 1 0 2 -1 -2 -1 -1 -2 0 -1 1 -1 -1 0 -2 0 -1 -2 -1 -2 2 -3 2 -3 0 -1 1
0 -1 -1 0 -1 1 -2 1 -1 -1 0 -2 0 1 -1 0 -1 1 0 1 1 3 -3 4 -4 0 0 0 -1 -1 1
-2 1 0 -1 -1 -1 1 -3 0 -3 1 1 0 1 1 -1 2 0 0 1 1 1 -1 0 -2 1 3 3 2 2 -1 1
-1 0 0 1 0 1 3 -1 3 -1 1 1 1 1 1 -1 1 -1 0 2 0 2 4 -1 4 0 0 1 0 1 5 2 5 2 1
2 0 2 0 1 -1 0 2 2 2 1 -2 0 -1 -1 0 1 0 1 1 1 1 2 0 -1 0 -1 2 2 1 3 0 2 0 2
1 -1 1 0 -1 2 -1 2 0 1 0 2 3 1 3 2 1 0 1 0 -1 -1 0 -1 1 0 1 1 -1 1 0 1 2 0
2 -1 3 -1 4 -2 5 2 6 2 1 0 1 0 0 2 1 1 1 0 2 0 -2 -1 -1 -1 1 0 1 1 3 2 3 1
0 2 1 2 2 0 2 0 -1 2 0 1 2 2 1 2 2 -1 1 -1 -1 -1 0 -1 1 0 1 1 0 1 0 1 0 1 0
1 1 -1 2 0 -2 1 -1 2 -1 0 -1 0 1 -1 0 -1 -2 0 -1 0 2 2 2 3 4 0 4 0 1 1 0 1
2 0 1 -1 1 1 0 2 0 -1 -1 -1 -2 2 -2 2 0 0 0 1 3 -1 2 -1 0 1 0 1 1 0 1 0 0
-2 -1 -1 2 1 2 1 0 1 0 1 -1 0 -1 0 0 2 -1 1 1 1 1 1 2 -1 1 -1 0 1 0 2 2 0 1
0 0 1 -1 1 -1 1 -1 0 1 -1 2 -1 -2 0 -2 1 -1 0 -1 0 0 1 1 1 4 0 5 0 1 0 2 1
0 1 -1 1 2 0 2 1 2 2 1 2 -1 0 -1 0 1 1 0 1 -1 0 -2 -1 0 1 0 1 1 0 0 1 1 1 0
2 1 2 1 3 6 3 5 2 1 0 0 -1 1 2 2 1 4 2 5 3 -1 1 0 1 1 0 2 -1 0 1 0 2 1 -1 2
0 0 3 1 2 1 -1 1 -1 5 5 6 5 1 0 1 0 3 4 4 3 1 -1 1 0 -3 -3 -3 -3 4 3 4 3 1
2 1 2 2 -1 1 0 0 1 0 2 3 2 2 2 -1 1 0 1 1 0 2 -1 0 1 0 1 2 0 1 0 0 -1 0 -1
-6 -6 -6 -5 0 -1 0 -1 2 1 1 2 0 0 1 0 -2 -3 -1 -3 -2 -2 -2 -2 1 0 1 0 -2 -2
-2 -1 0 0 1 0 7 6 8 6 0 0 1 0 -1 -1 0 -1 2 1 2 2 -1 2 0 1 1 0 2 0 5 4 5 5 0
1 0 1 2 1 2 1 0 2 0 1 4 5 4 5 2 2 2 3 3 4 3 3 3 6 3 7 4 6 4 6 1 4 1 4 1 0 1
0 5 5 5 5 0 1 0 1 3 3 3 4 1 -1 0 -1 2 2 1 1 -1 1 0 1 1 0 1 0 1 0 2 1 0 1 0
1 0 1 1 0 0 -1 0 -2 1 0 1 0 -1 2 0 1 1 0 1 0 2 2 3 3 1 3 2 3 0 2 0 2 2 1 1
2 0 3 0 3 4 3 4 4 3 3 3 3 0 1 0 2 -2 -1 -3 0 0 1 -1 1 -1 0 -1 0 0 -2 0 -3
-2 -2 -2 -2 -3 0 -3 -1 -2 0 -2 1 -1 0 0 1 -2 1 -2 1 -1 3 0 4 1 4 1 4 -1 2 0
2 0 0 0 1 -1 0 -2 -1 0 2 0 3 2 0 2 1 2 3 2 2 -1 2 -1 2 -1 -1 -1 0 -3 3 -2 2
-1 0 -1 0 -2 -2 -2 -1 -3 1 -3 2 -2 -1 -2 0 -2 -1 -1 -2 -2 0 -2 -1 0 3 0 3
-1 1 -1 1 -1 -1 -2 -1 -2 1 -2 2 -2 0 -1 0 0 -2 -1 -2 -4 -3 -3 -2 -3 -3 -2
-2 -2 0 -2 0 -4 0 -3 0 0 1 0 1 -1 0 -2 0 0 1 0 1 -3 0 -2 -1 -1 2 0 1 -2 -1
-2 0 0 1 1 2 -2 0 -2 0 -2 1 -2 2 -2 0 -1 0 -3 4 -4 3 -1 0 0 0 -9 6 -8 5 -5
5 -5 4 -4 3 -3 2 1 1 0 1 -3 1 -3 2 -1 2 -1 2 -1 0 -2 0 -4 4 -4 4 0 0 -1 0
-5 4 -5 5 0 1 0 2 -2 0 -1 0 0 1 0 1 0 1 0 1 -1 0 -2 -1 -1 2 -1 2 -1 -1 -1 0
1 2 0 1 -1 0 -1 -1 -1 2 0 2 -1 0 -1 0 1 -1 0 -1 0 0 -1 0 -3 5 -4 4 0 0 0 -1
-3 3 -2 3 -1 0 -2 0 -1 2 -2 2 1 0 0 1 -6 3 -6 3 0 -1 -1 0 -2 2 -3 3 0 -1 -1
-1 -4 1 -4 1 0 1 0 1 -3 -1 -4 0 -2 1 -2 1 -2 1 -1 0 -2 1 -1 2 -1 -1 -1 0 -1
2 0 3 -2 2 -2 2 0 -1 -1 0 -1 3 -2 4 -5 4 -5 5 -6 8 -7 9 -8 7 -7 8 -6 5 -6 4
-5 3 -5 2 1 -2 1 -1 -2 0 -2 1 0 -1 1 -2 -5 4 -5 4 -1 2 -1 1 1 0 1 -1 0 0 0
1 -1 3 -2 3 0 -1 0 -1 -2 5 -2 5 1 1 0 0 2 -1 2 -1 2 3 3 3 -1 2 0 3 -1 1 -1
1 -3 0 -3 0 0 2 -1 1 -3 0 -2 -1 0 1 1 2 -1 0 -2 0 0 2 -1 2 -1 0 -1 0 0 1 1
2 -1 0 -1 1 1 3 2 3 1 3 1 3 1 -1 1 0 2 1 2 1 1 -1 1 -1 0 1 1 2 1 4 1 4 1 -1
2 0 0 1 -1 1 1 0 1 0 1 -1 0 -1 1 0 1 0 0 1 -1 1 1 0 2 0 1 0 1 1 2 1 3 2 0
-1 -1 -1 2 1 2 0 0 1 -1 0 3 2 2 2 2 0 2 0 0 0 1 0 1 0 2 1 0 -1 0 -1 1 1 1 1
1 -1 2 0 0 -2 0 -1 0 0 1 0 4 4 3 3 1 0 1 0 0 2 0 1 3 -1 2 0 0 0 0 1 -2 2 -2
2 -1 0 -2 -1 0 1 0 1 1 0 0 1 1 3 0 2 -2 0 -1 0 -1 -1 0 -1 1 -1 1 -1 0 0 0 0
-3 -2 -2 -1 0 1 0 1 -2 0 -3 0 -2 2 -2 1 0 -1 0 -1 -1 0 0 1 -1 2 0 1 3 0 3 0
0 2 0 1 -1 2 -1 3 -1 0 -1 1 -1 0 -1 0 1 -1 1 -1 0 0 0 -1 -4 0 -3 0 -1 0 -1
1 2 2 1 3 -1 1 0 2 1 0 1 0 0 2 -1 3 -1 2 -1 1 -1 4 0 4 1 0 1 -1 2 2 2 1 -3
-1 -2 0 2 2 2 3 4 1 3 1 1 -2 2 -1 2 2 1 2 0 5 0 4 1 2 1 3 1 1 0 2 0 3 1 3 2
1 2 2 1 0 1 -1 -1 5 0 5 -1 2 -2 3 2 2 2 3 0 1 0 1 0 0 1 0 3 -1 3 -2 2 0 3 0
4 2 4 2 4 -3 5 -4 0 -3 0 -3 3 -3 4 -4 3 0 4 0 3 2 2 3 -1 5 -1 5 1 1 0 2 2 1
3 0 1 3 1 3 5 2 5 2 0 1 0 1 -2 0 -2 0 -5 -3z m-96 -21 l3 0 -2 -1 -2 -1 -1 1
-1 2 0 1 0 1 1 -2 0 -1 2 0z m-28 -10 l0 -1 -2 0 -1 -1 1 1 0 1 1 0 1 0 0 0z
m2 -67 l0 -2 -2 0 -1 -1 -1 0 0 1 1 2 0 3 1 0 2 -1 0 -2z m-10 -8 l0 -1 -1 0
-1 -1 0 1 0 1 1 0 1 0 0 0z m4 -68 l0 -2 -1 -1 -1 0 0 1 1 1 -1 0 -1 1 1 1 2
1 0 0 0 0 0 -2z m-2 -22 l1 -2 -1 1 -1 0 0 -1 -1 -1 0 2 0 3 1 0 1 0 0 -2z
m64 -19 l0 -1 -1 0 -2 0 1 1 0 1 1 0 0 0 1 -1z m8 -7 l5 -5 1 -2 2 -1 3 -6 4
-5 0 -1 -1 0 -4 4 -3 4 -8 8 -7 7 0 1 0 1 1 0 2 0 5 -5z m-154 -14 l-2 -3 -1
1 -1 0 3 3 2 2 1 0 0 0 -2 -3z m3 1 l-2 -3 -3 -3 -3 -4 -1 0 0 0 1 1 0 2 -1
-2 -2 -1 1 -2 0 -1 -2 -1 -2 -1 0 -1 0 -1 -3 -3 -3 -3 0 1 0 1 2 2 1 3 2 1 1
1 1 1 0 2 2 2 1 2 2 0 1 0 -1 2 0 2 1 -2 1 -1 4 4 3 4 1 0 0 0 -2 -2z m-23
-26 l-1 -2 -1 0 0 1 1 1 1 2 1 0 1 0 -2 -2z m-19 -39 l0 -1 -1 0 -1 -1 0 1 -1
1 1 0 2 0 0 0z m115 -9 l0 -1 -2 -1 -1 -1 1 1 1 2 1 0 0 0 0 0z m145 -66 l0
-1 -1 1 -1 0 0 1 0 1 1 0 1 -1 0 -1z m-3 -7 l-1 0 -1 0 -1 1 1 1 0 1 1 -1 1
-1 0 -1z m-91 -2 l1 -1 -1 0 -2 -1 1 2 0 1 1 0 0 0 0 -1z m43 -67 l0 -1 -1 0
-1 0 1 1 0 1 1 0 0 0 0 -1z m-328 -37 l0 -1 -1 0 -1 0 0 1 0 1 0 0 1 0 1 -1z
m503 -38 l-1 -1 -1 0 0 1 1 1 1 1 1 -1 0 0 -1 -1z m0 -13 l0 -1 -1 0 -1 -1 0
1 0 1 1 0 1 0 0 0z m-220 -72 l0 0 -2 -1 -3 -1 0 2 1 3 0 0 0 0 2 -1 2 -1 0
-1z m-16 -18 l-1 -1 -2 0 -1 0 0 1 0 1 2 0 2 0 0 -1z"/>
<path d="M510 840 l0 -1 1 0 1 0 0 1 0 1 -1 0 -1 0 0 -1z"/>
<path d="M458 813 l1 -1 1 -1 1 0 0 1 0 2 -2 0 -1 0 0 -1z"/>
<path d="M613 746 l0 -2 -1 0 -1 0 1 -1 1 -2 0 -1 -1 -1 1 0 1 0 2 3 2 4 -1 1
0 1 -2 0 -1 0 -1 -2z"/>
<path d="M577 736 l-1 0 -2 -2 -1 -2 2 -1 2 -1 0 4 1 3 0 0 0 0 -1 -1z"/>
<path d="M569 729 l1 -1 2 -2 2 -1 0 0 1 0 -1 1 0 2 -1 -1 -1 0 -1 2 0 2 -1 0
-1 0 0 -2z"/>
<path d="M596 718 l-2 -1 0 0 0 -1 2 -1 1 -2 1 0 1 0 -1 2 0 2 1 1 1 0 0 -1
-1 -2 3 0 2 0 -2 2 -1 2 -1 0 -1 0 -3 -1z"/>
<path d="M607 711 l-1 -1 1 -2 0 -3 -1 0 -1 -1 -1 1 0 2 -2 -1 -2 0 0 2 1 2
-2 0 -3 0 0 -1 0 -1 -3 -3 -4 -3 1 -3 0 -3 -1 0 0 0 -3 -1 -2 0 -1 -1 0 0 0
-4 0 -3 -2 0 -2 1 -3 1 -2 0 1 1 0 1 -2 0 -1 1 1 -1 0 -1 -1 0 -2 0 -3 5 -2 6
1 1 0 1 -1 0 -1 -1 -1 -3 -1 -3 1 -3 1 -3 3 -4 2 -3 -2 0 -1 0 0 -1 1 -2 -2 0
-2 0 1 1 2 1 -2 0 -2 0 0 -7 0 -7 3 -3 3 -2 5 0 4 1 0 -2 0 -1 3 0 3 0 1 1 1
2 2 0 2 1 1 -2 1 -1 3 3 4 3 0 4 0 3 1 0 1 0 0 1 -1 0 -2 0 -1 1 0 1 0 1 1 2
1 2 0 1 1 2 3 2 4 2 0 3 0 2 2 1 3 1 1 1 1 2 -1 2 -1 2 1 1 2 1 1 0 1 0 -2 1
-2 2 0 1 0 1 -3 0 -2 1 0 -1z"/>
<path d="M546 708 l-2 -3 1 -3 1 -2 1 -1 2 0 1 2 1 2 2 0 2 0 0 -1 0 -1 1 0 1
0 0 1 0 2 -2 1 -1 2 -1 0 -1 0 -2 1 -2 2 0 0 0 0 -2 -2z"/>
<path d="M558 707 l-1 -1 1 -1 1 -1 1 2 2 2 -1 0 -2 0 -1 -1z"/>
<path d="M573 700 l0 -1 1 0 1 -1 0 1 0 1 -1 1 -1 0 0 -1z"/>
<path d="M560 468 l-1 0 0 -1 0 -1 2 0 1 0 0 1 0 1 -1 0 -1 1 0 -1z"/>
<path d="M547 463 l0 -2 0 -1 1 0 1 1 1 1 -1 1 -1 1 -1 -1z"/>
<path d="M210 445 l-1 -1 1 1 2 0 0 1 0 0 -1 0 -1 0 0 -1z"/>
<path d="M203 442 l-1 -1 1 0 2 -1 0 1 1 0 0 1 0 1 -1 0 -2 0 0 -1z"/>
<path d="M205 439 l0 -2 -1 1 -1 2 -1 -2 -1 -1 1 -2 0 -1 1 1 1 1 2 -1 1 0 1
0 2 1 -1 2 -1 3 -1 0 -1 0 -1 -2z"/>
<path d="M212 439 l-1 -1 1 -1 1 -1 2 2 2 1 -1 1 -1 1 -1 0 -1 0 -1 -2z"/>
<path d="M532 422 l-4 -1 0 -1 1 0 4 1 5 1 0 1 1 1 -1 0 -1 0 -5 -2z"/>
<path d="M183 417 l0 -1 1 1 1 0 0 1 0 1 -1 0 -1 0 0 -2z"/>
<path d="M486 382 l1 0 1 0 0 1 -2 0 -1 0 1 -1z"/>
<path d="M500 372 l-1 0 0 -1 0 -1 1 1 1 1 0 0 -1 1 0 -1z"/>
<path d="M587 367 l-3 -2 0 -1 0 -1 3 3 3 3 0 0 0 1 -3 -3z"/>
<path d="M551 367 l1 -1 1 0 0 1 -2 0 -1 1 1 -1z"/>
<path d="M231 362 l0 -1 -1 0 -1 1 1 -1 0 -2 1 0 1 0 0 2 0 2 -1 0 0 0 0 -1z"/>
<path d="M597 362 l-2 -1 1 0 2 0 1 1 0 1 0 0 0 0 -2 -1z"/>
<path d="M596 357 l-1 -1 1 0 1 0 0 1 0 1 0 0 -1 0 0 -1z"/>
<path d="M512 349 l-1 -1 1 0 1 0 1 1 2 1 -1 0 -1 0 -2 -1z"/>
<path d="M596 349 l-2 -1 2 0 2 0 0 1 0 1 0 0 0 0 -2 -1z"/>
<path d="M508 347 l0 0 0 -3 -1 -2 1 0 1 0 1 2 1 3 -2 0 -1 1 0 -1z"/>
<path d="M504 346 l0 -1 1 0 1 0 0 1 0 1 -1 0 -1 0 0 -1z"/>
<path d="M508 338 l1 0 0 -1 0 -1 -2 0 -1 0 0 -1 1 -2 -2 1 -1 0 2 -2 1 -3 1
1 0 2 1 0 2 1 -2 1 -1 0 1 1 0 1 1 0 1 0 0 -2 1 -2 2 0 2 0 -1 2 -1 2 -2 0 -1
0 -1 2 -1 1 -1 0 -1 0 1 -1z"/>
<path d="M623 335 l-1 -1 1 0 1 0 2 1 2 1 -2 0 -1 0 -2 -1z"/>
<path d="M614 332 l-2 -1 2 1 3 0 0 1 0 0 0 0 -1 1 -2 -2z"/>
<path d="M586 320 l-1 -1 1 1 2 0 0 1 0 0 -1 0 -1 0 0 -1z"/>
<path d="M499 319 l-1 -2 0 -1 -1 -2 2 1 2 0 0 2 1 1 -2 1 -1 1 0 -1z"/>
<path d="M572 315 l-2 -1 2 0 2 1 0 -1 0 -1 2 0 2 0 0 1 0 1 1 0 1 -1 2 1 2 2
-5 0 -5 0 -2 -2z"/>
<path d="M580 309 l0 -1 1 0 1 0 0 -1 -1 -1 1 1 2 0 -1 2 -1 1 -1 0 -1 0 0 -1z"/>
<path d="M720 292 l0 -1 1 1 1 0 0 1 0 0 -1 0 -1 0 0 -1z"/>
<path d="M675 261 l0 -1 -1 1 -1 0 1 -1 1 -1 2 1 3 1 -2 0 -2 0 1 1 0 1 -1 0
-1 0 0 -2z"/>
<path d="M512 226 l-1 -1 2 1 2 1 0 1 0 0 0 0 -1 0 -2 -2z"/>
<path d="M539 196 l0 -1 1 1 1 0 0 1 0 0 -1 0 -1 0 0 -1z"/>
<path d="M567 140 l-1 0 -3 -3 -2 -3 1 0 1 0 0 2 1 1 2 -1 2 0 0 1 -1 2 1 1 1
1 0 0 0 0 -2 -1z"/>
</g>
</svg>
