<?xml version="1.0" standalone="no"?>
<!DOCTYPE svg PUBLIC "-//W3C//DTD SVG 20010904//EN"
 "http://www.w3.org/TR/2001/REC-SVG-20010904/DTD/svg10.dtd">
<svg style="fill: black; stroke: black;" version="1.0" xmlns="http://www.w3.org/2000/svg"
 width="832.739168pt" height="698.860449pt" viewBox="0 0 832.739168 698.860449"
 preserveAspectRatio="xMidYMid meet">
<metadata>
Created by potrace 1.16, written by Peter Selinger 2001-2019
</metadata>
<g transform="translate(-121.378866,728.860449) scale(1.000000,-1.000000)"
fill="#000000" data-original="#000000" stroke="none">
<path d="M810 728 l-1 0 -1 -5 -1 -4 -2 -4 -2 -4 -3 -4 -3 -3 -1 -5 -1 -5 -3
-3 -4 -3 -1 -5 -1 -5 -5 -10 -5 -10 -1 -5 -2 -5 -1 -11 0 -10 1 -6 2 -5 3 -5
4 -5 1 -5 2 -4 0 -4 1 -3 -1 -2 0 -1 -7 -4 -6 -4 -5 -4 -4 -3 -2 0 -3 0 0 3
-1 3 -2 0 -2 0 -2 -1 -1 -1 1 -1 2 -1 0 0 1 -1 0 -1 -1 -1 -5 -2 -6 -3 -4 -1
-3 -1 -2 -2 -1 -1 -2 0 -1 0 0 2 1 3 0 0 0 1 2 0 2 -1 1 2 1 3 -1 0 -1 0 -4
-3 -3 -3 -8 -5 -7 -5 -9 -3 -8 -4 -2 -1 -2 -1 -4 -1 -3 -1 -8 -2 -8 -2 -5 -1
-4 -1 -7 -2 -6 -1 -14 0 -13 1 -8 1 -8 0 -6 0 -5 1 -4 2 -4 2 -5 4 -4 4 -6 2
-6 2 -9 2 -9 3 -4 1 -3 2 -2 0 -1 1 -3 2 -2 1 0 -2 1 -2 -1 -2 0 -2 -3 0 -2 1
-1 1 0 1 -4 1 -3 2 -3 2 -3 3 0 1 0 1 -2 1 -2 1 0 2 0 1 2 -1 2 0 5 0 6 -1 2
2 1 2 0 4 -1 4 -1 2 -1 2 -3 2 -2 2 -4 0 -3 0 -3 1 -4 2 -1 3 0 2 -8 0 -7 -1
-1 -1 -2 0 -6 2 -6 2 -5 3 -4 2 -8 6 -8 6 -12 8 -11 9 -9 5 -8 4 -10 6 -9 6
-13 7 -14 7 -2 0 -1 0 -1 3 -1 2 -2 1 -1 0 -6 3 -6 3 -4 1 -4 1 -3 2 -2 1 -6
1 -5 1 -3 1 -2 0 0 0 0 0 -13 0 -12 1 -4 1 -3 1 -8 -1 -8 -1 -5 1 -5 1 -2 0
-2 0 -3 -2 -2 -2 -4 0 -3 0 0 2 1 1 -2 -1 -1 0 -4 -1 -4 -1 -6 -1 -6 -1 -8 -3
-7 -3 -2 0 -1 0 -4 -3 -5 -4 -1 0 -1 0 -4 -3 -3 -2 -2 1 -2 0 -3 1 -2 0 -4 -4
-4 -4 0 -2 0 -1 1 -5 1 -4 -3 -4 -4 -3 -2 -4 -3 -4 -3 -4 -3 -4 -2 -5 -2 -6 0
-3 0 -4 -1 -2 -1 -1 -1 -4 -1 -4 -3 -2 -2 -2 -2 -7 -2 -6 0 -2 0 -1 -3 -5 -4
-4 -1 -4 -1 -4 1 -6 0 -5 2 -1 2 -1 0 -3 0 -3 3 -3 2 -3 1 -4 1 -3 3 2 2 3 2
-5 2 -4 0 -2 0 -1 2 -1 3 -2 5 -13 6 -14 6 -8 7 -7 2 -3 2 -3 2 0 2 0 -1 -1 0
-1 3 -3 2 -3 2 0 1 0 0 2 -1 2 -1 1 0 1 1 0 2 0 4 -4 4 -3 5 -4 5 -3 2 -2 3
-3 -1 -2 0 -1 1 0 2 1 -1 -1 0 -1 2 -1 3 -1 4 -1 4 -2 4 -2 4 -1 2 1 2 1 -1 2
0 2 2 0 3 -1 3 -1 3 -1 1 -1 1 -1 0 -2 1 -1 4 -2 5 -2 2 0 2 -1 -2 -2 -2 -1
-4 0 -3 0 1 -3 0 -2 1 0 1 0 1 -2 0 -2 2 0 2 0 4 2 5 3 -1 2 0 3 -4 4 -3 3 1
0 1 0 9 -4 8 -5 1 0 2 0 4 -2 3 -1 1 1 0 1 2 1 2 1 -1 -2 -1 -2 1 -1 1 0 0 -2
0 -1 -2 -1 -1 0 2 -2 1 -2 5 -2 6 -1 2 -2 2 -2 -1 -2 0 -2 2 -1 3 -1 4 1 5 1
-1 2 0 2 5 2 5 2 4 2 4 2 6 0 5 -1 4 3 4 4 3 0 3 0 0 -1 1 0 4 -2 3 -1 2 1 2
1 2 3 2 3 2 -2 2 -1 0 -5 1 -6 1 -1 1 -1 0 -6 0 -6 -2 -1 -1 0 0 -2 0 -1 5 -4
5 -3 2 -1 2 -1 2 -3 3 -2 2 -4 2 -4 0 -2 0 -2 2 -2 2 -1 0 -5 0 -4 -1 -2 -1
-2 -1 1 -1 0 1 -1 1 -1 1 1 2 0 0 2 1 2 2 0 2 0 1 0 2 0 0 3 1 3 1 1 1 0 1 -1
1 -1 5 -6 5 -6 1 -6 1 -5 1 -3 0 -2 4 -4 3 -3 0 -4 -1 -3 6 -6 6 -6 2 0 3 0 0
1 1 1 3 1 3 2 3 -1 2 0 0 1 -1 2 2 2 1 2 1 0 1 0 1 -2 0 -2 2 0 3 0 2 -1 2 0
0 -2 -1 -1 -1 0 -1 0 1 -1 1 -1 6 -1 6 -1 1 1 1 1 3 0 3 0 -1 -1 0 -2 4 0 4 0
1 -1 1 -2 2 0 1 0 1 3 1 3 5 2 5 1 2 1 3 0 3 0 3 1 1 1 0 1 3 0 2 0 0 4 -1 3
1 2 1 3 -1 3 0 4 -3 0 -4 -1 -2 1 -1 2 1 1 1 2 -2 0 -3 0 -1 2 -2 2 0 1 0 1 3
1 2 1 0 3 0 3 -5 5 -5 6 -3 3 -2 3 -3 1 -3 2 -3 1 -3 1 -1 3 -1 3 -1 1 -1 1
-2 0 -2 0 -1 4 0 4 0 0 0 1 -3 2 -3 1 -1 1 -1 2 2 0 2 0 4 -3 4 -2 6 -6 7 -5
2 -5 1 -5 2 -2 2 -1 3 0 3 0 4 -5 4 -4 4 -5 5 -5 3 0 3 0 6 1 7 2 1 1 1 1 6 2
6 2 2 -1 2 -1 6 0 5 0 6 4 6 4 6 5 6 6 6 3 6 3 7 3 8 3 5 3 6 2 8 5 9 5 13 12
13 12 3 3 4 3 6 4 6 5 4 4 5 5 1 0 1 0 2 2 2 2 10 10 10 11 0 1 0 2 1 5 2 6 2
2 1 3 3 5 4 4 4 5 5 5 4 5 5 5 0 2 0 2 3 3 3 4 5 3 5 3 3 5 3 5 1 0 1 0 2 -2
1 -3 5 -4 5 -3 3 -2 3 -1 5 -3 6 -3 3 -2 3 -1 13 1 14 0 6 3 7 3 3 0 3 0 8 4
8 4 3 3 4 3 3 2 4 2 1 2 0 1 -2 3 -3 3 -6 2 -5 2 -3 2 -2 3 -4 5 -4 5 -2 4 -3
5 -6 6 -6 6 -5 2 -5 3 -4 0 -4 0 -2 0 -2 0 -3 0 -3 -1 0 2 0 2 1 2 2 2 3 6 3
6 0 6 0 6 -2 8 -1 8 -2 2 -2 2 0 1 0 0 -4 5 -3 4 -3 2 -2 2 -2 3 -1 3 0 3 0 4
-6 7 -5 6 -1 3 -2 3 -1 2 -2 3 -1 5 -2 5 0 2 0 3 -2 1 -2 1 -1 -1z m-62 -163
l-2 -1 -2 0 -2 0 0 0 0 1 3 1 4 2 0 -1 0 0 -1 -2z m-22 -5 l0 -1 -2 0 -1 -1
-1 0 0 0 1 2 1 1 1 0 1 0 0 -1z m-559 -60 l0 -1 -1 0 -1 0 -1 1 -1 2 1 1 0 1
2 -2 1 -1 0 -1z m178 -45 l-1 -5 -2 -2 -3 -2 -5 -5 -4 -4 -3 0 -2 0 -1 -1 0
-1 -1 0 -1 1 -3 -2 -3 -1 1 0 1 0 0 -1 0 -2 -3 -1 -4 -1 -3 1 -2 2 -2 0 -2 0
0 1 1 1 5 4 5 4 2 3 2 2 4 5 5 4 8 4 9 5 2 -1 1 -2 -1 -6z m-39 -11 l0 -1 0
-2 1 -1 -1 -2 -1 -1 -2 1 -1 2 -2 -1 -1 0 0 2 0 1 2 2 3 2 1 0 1 -1 0 -1z
m-48 -3 l2 -1 -3 0 -2 0 0 1 0 1 1 0 1 0 1 -1z m187 -21 l0 -1 4 -2 4 -1 -2
-1 -1 0 -2 1 -1 2 0 -2 1 -2 -2 -1 -1 -1 -1 1 -1 1 -3 0 -2 0 0 2 -1 1 2 2 1
2 2 0 2 0 1 -1z m18 -12 l0 0 -1 -1 -1 -1 0 -2 0 -1 2 -3 2 -2 -2 -2 -2 -2 -2
1 -2 1 0 2 1 2 -3 2 -2 2 0 3 0 2 2 0 3 1 2 -1 2 0 1 -1z m15 0 l0 -1 -1 0 -2
0 0 1 0 1 1 0 1 0 1 -1z m11 -4 l2 0 -3 -1 -2 0 -3 1 -2 1 1 1 1 1 2 -1 2 -1
2 -1z m-16 -8 l0 -1 -2 0 -1 0 1 1 0 1 1 0 1 0 0 -1z m23 -81 l2 -1 0 -1 0 -1
-3 0 -3 0 -2 1 -1 1 0 1 1 2 2 0 2 0 2 -2z"/>
<path d="M765 578 l0 -1 1 0 1 0 0 1 -1 1 -1 0 -1 0 1 -1z"/>
<path d="M140 519 l0 -1 1 0 0 0 0 1 0 1 -1 0 -1 0 1 -1z"/>
<path d="M141 514 l0 -4 1 -1 2 -1 1 1 1 1 -1 3 -2 4 -1 0 -1 0 0 -3z"/>
<path d="M147 506 l-1 -1 1 0 1 -1 0 1 0 2 0 0 -1 0 0 -1z"/>
<path d="M700 429 l-1 -2 0 0 1 -1 2 1 2 0 0 2 0 2 -1 0 -1 0 -2 -2z"/>
<path d="M677 408 l-3 -3 0 -1 1 0 3 2 3 2 0 2 1 1 -1 0 0 0 -4 -3z"/>
<path d="M840 72 l0 -1 1 1 1 0 0 1 0 0 -1 0 -1 0 0 -1z"/>
<path d="M829 56 l1 0 1 0 0 1 -2 0 -1 0 1 -1z"/>
<path d="M836 52 l-2 -2 1 -1 1 -1 1 1 1 1 0 2 0 1 -2 -1z"/>
<path d="M812 38 l0 -1 1 1 1 0 0 1 0 0 -1 0 -1 0 0 -1z"/>
<path d="M881 38 l-1 -2 -2 0 -1 0 1 1 0 1 -1 0 -1 0 -1 -2 -1 -1 -1 -3 0 -2
2 0 2 0 0 1 0 2 3 1 2 1 0 -1 -1 -2 2 0 2 -1 1 2 1 2 -1 0 0 1 0 1 0 1 -2 1
-2 0 -1 -1z"/>
<path d="M905 37 l0 -1 1 0 0 0 0 1 0 1 -1 0 -1 0 1 -1z"/>
<path d="M854 35 l0 -1 1 -1 0 -2 3 1 3 1 -1 2 -2 1 -2 0 -2 0 0 -1z"/>
<path d="M952 33 l-1 -1 1 0 1 0 1 1 0 1 -1 0 -1 0 0 -1z"/>
</g>
</svg>
