<?xml version="1.0" standalone="no"?>
<!DOCTYPE svg PUBLIC "-//W3C//DTD SVG 20010904//EN"
 "http://www.w3.org/TR/2001/REC-SVG-20010904/DTD/svg10.dtd">
<svg version="1.0" xmlns="http://www.w3.org/2000/svg"
 width="256.000000pt" height="256.000000pt" viewBox="0 0 256.000000 256.000000"
 preserveAspectRatio="xMidYMid meet">
<metadata>
Created by potrace 1.16, written by Peter Selinger 2001-2019
</metadata>
<g transform="translate(0.000000,256.000000) scale(0.100000,-0.100000)"
fill="#000000" stroke="none">
<path d="M870 2360 c0 -5 -6 -10 -14 -10 -22 0 -26 -24 -26 -156 0 -99 4 -136
20 -181 11 -32 20 -58 20 -59 0 -1 -9 0 -19 3 -17 4 -18 1 -12 -29 4 -18 13
-43 20 -56 9 -18 8 -29 -8 -60 -28 -56 -106 -138 -172 -183 -64 -43 -88 -74
-70 -92 7 -7 18 -7 36 1 40 18 43 14 10 -13 -23 -19 -26 -24 -12 -25 48 -1
-20 -59 -137 -117 -44 -21 -81 -44 -84 -51 -5 -15 41 -16 68 -2 13 7 21 7 25
0 4 -6 -20 -38 -53 -70 -47 -48 -66 -60 -91 -60 -17 0 -31 -4 -31 -9 0 -22
-56 -2 -82 30 -32 38 -37 28 -8 -16 11 -16 25 -39 32 -50 7 -10 22 -27 33 -38
20 -18 20 -18 -5 -12 -24 6 -24 5 -6 -9 12 -10 40 -16 73 -16 29 0 53 -4 53
-10 0 -5 -7 -10 -15 -10 -18 0 -20 -16 -2 -23 6 -3 -10 -11 -37 -18 -31 -9
-51 -21 -54 -31 -2 -10 -9 -18 -14 -18 -5 0 -6 -4 -3 -10 3 -5 14 -10 25 -10
21 0 32 -23 23 -47 -5 -12 -2 -15 10 -10 9 3 19 2 22 -3 9 -14 79 -12 93 2 9
9 12 8 12 -5 0 -10 7 -20 16 -24 8 -3 13 -12 10 -19 -6 -17 -1 -17 25 -3 12 6
27 8 35 5 13 -5 13 -10 -1 -35 -19 -37 -21 -71 -3 -53 17 17 28 15 28 -4 0
-15 2 -15 25 0 36 24 39 20 11 -17 -27 -35 -33 -62 -17 -72 5 -3 6 -17 2 -33
-8 -29 3 -87 19 -97 6 -4 10 6 10 20 0 20 4 26 15 21 8 -3 15 -1 15 4 0 6 5
10 11 10 6 0 8 -9 4 -20 -4 -13 -1 -22 9 -26 10 -4 14 -14 10 -28 -3 -12 2
-35 10 -51 9 -17 16 -38 16 -48 0 -10 5 -15 10 -12 6 4 10 -5 10 -19 0 -19 5
-26 20 -26 11 0 23 7 26 15 4 8 12 15 19 15 7 0 18 6 24 14 6 7 22 11 36 8 21
-3 23 -7 14 -23 -8 -15 -5 -26 11 -48 11 -16 20 -34 20 -41 0 -7 7 -10 15 -6
11 4 15 -2 15 -25 0 -18 4 -28 10 -24 5 3 10 16 10 28 0 38 22 2 25 -41 3 -51
12 -66 29 -49 7 6 16 24 19 39 5 19 16 28 37 33 17 4 35 17 44 33 31 58 86
166 86 169 0 2 -3 2 -7 2 -40 -6 -44 21 -7 50 31 24 49 19 33 -10 -6 -12 -9
-23 -6 -25 2 -2 10 7 17 21 7 14 19 25 26 25 6 0 19 17 29 37 24 55 54 109 55
100 1 -25 30 27 30 54 0 28 2 30 17 18 15 -13 16 -10 10 38 -4 31 -2 53 3 53
6 0 10 -4 10 -9 0 -5 5 -22 11 -38 l12 -28 13 50 c8 28 14 66 14 85 0 19 4 41
9 49 10 16 31 6 31 -15 0 -8 4 -14 10 -14 14 0 23 46 16 77 -5 16 -3 29 4 33
9 6 9 13 0 30 -20 37 -29 79 -19 85 5 4 9 18 9 33 l1 27 15 -25 c14 -25 14
-25 13 15 -3 54 11 126 22 119 5 -3 9 8 9 23 0 31 24 73 43 73 7 1 25 18 41
38 33 41 84 68 194 102 84 26 152 68 173 106 12 24 12 28 -2 37 -15 9 -14 13
9 36 33 34 76 175 61 203 -10 18 -21 19 -223 16 -191 -3 -215 -1 -239 15 -16
10 -31 26 -34 35 -3 9 -15 25 -27 35 -24 20 -87 49 -93 43 -3 -2 -30 4 -60 15
-31 10 -65 19 -75 19 -10 0 -21 8 -24 18 -3 9 -14 35 -24 57 -10 22 -23 63
-28 90 -15 72 -29 105 -45 105 -9 0 -17 -14 -20 -34 -8 -50 -66 -188 -86 -207
-17 -16 -22 -13 -95 66 -42 46 -90 101 -106 124 -30 41 -70 71 -70 51z m650
-435 c11 -13 7 -15 -26 -15 -35 0 -37 1 -18 15 24 18 29 18 44 0z"/>
</g>
</svg>
