<?xml version="1.0" standalone="no"?>
<!DOCTYPE svg PUBLIC "-//W3C//DTD SVG 20010904//EN"
 "http://www.w3.org/TR/2001/REC-SVG-20010904/DTD/svg10.dtd">
<svg style="fill: black; stroke: black;" version="1.0" xmlns="http://www.w3.org/2000/svg"
 width="881.142647pt" height="923.919554pt" viewBox="0 0 881.142647 923.919554"
 preserveAspectRatio="xMidYMid meet">
<metadata>
Created by potrace 1.16, written by Peter Selinger 2001-2019
</metadata>
<g transform="translate(-56.799729,992.919554) scale(1.000000,-1.000000)"
fill="#000000" data-original="#000000" stroke="none">
<path d="M421 991 l-6 -2 -2 -1 -1 -2 -7 -3 -7 -3 -1 -1 0 -1 -3 0 -3 -1 0 -1
0 -1 -3 -4 -4 -3 0 0 0 1 -5 -2 -4 -2 -2 2 -2 2 -1 -1 0 0 0 1 1 2 -1 1 -1 1
-2 -1 -2 -1 1 0 2 -1 1 -2 1 -2 -2 0 -1 1 0 -2 1 -2 -1 -1 -1 -1 0 1 1 2 -1 2
-1 2 1 1 2 1 -2 0 -2 -1 -1 2 -1 2 0 -2 1 -2 -1 -1 -1 0 2 -3 2 -3 0 -1 0 -1
-1 0 0 1 -2 -1 -1 -2 -6 -3 -6 -3 -2 1 -3 0 -4 -3 -3 -4 2 1 3 0 0 -3 0 -2 -3
-4 -4 -3 0 -3 0 -3 -5 -5 -5 -5 0 -1 0 -1 -1 0 -2 0 -1 -2 -1 -2 -2 0 -1 1 0
-2 0 -1 -1 0 -1 0 0 -1 1 0 -5 -4 -5 -5 -1 -2 0 -3 -3 -2 -2 -2 -4 -1 -3 -2
-4 -4 -4 -3 1 0 1 1 0 0 0 -1 -4 -3 -4 -3 -1 0 -1 0 1 1 0 1 -2 -1 -1 -1 -11
-7 -10 -7 -9 -8 -9 -8 -3 -2 -3 -1 0 -1 0 -1 -1 0 -1 0 -1 2 -1 3 3 3 3 4 -1
0 -1 0 0 1 1 1 -2 0 -1 0 0 -1 0 -1 -6 -6 -5 -6 0 -1 0 -1 -1 0 -2 0 0 -1 0
-1 -2 -2 -1 -2 -2 -1 -1 -2 2 0 2 1 -2 -2 -2 -2 -4 -4 -4 -5 -1 1 -1 0 0 -2 0
-2 -1 0 -1 0 -6 -8 -6 -8 -4 -2 -3 -3 -2 -2 -2 -2 -4 -2 -3 -1 -2 -3 -3 -3 0
-2 -1 -2 -4 -1 -4 0 -3 0 -2 -1 -4 -4 -3 -3 -2 0 -1 0 -4 -2 -3 -2 -2 -4 -2
-4 -2 -3 -2 -2 -1 -4 -1 -4 2 -5 3 -5 0 -2 0 -2 -1 0 0 -1 0 -2 0 -2 -1 0 -1
0 0 2 0 2 -2 1 -1 1 -1 -1 -1 0 1 -1 0 -1 2 1 1 0 0 -1 -1 -1 -2 0 -2 0 -1 -3
-1 -2 1 0 2 1 0 -2 1 -1 -1 0 -1 1 -1 -3 -1 -2 -2 0 -1 1 1 -1 0 -1 2 1 2 0
-1 -2 -1 -1 2 -2 2 -2 1 0 1 0 0 1 -1 1 3 2 3 2 0 0 1 0 0 -2 0 -1 1 1 1 1 2
-1 3 0 3 -3 3 -3 0 -2 0 -1 -2 -2 -3 -3 0 -1 -1 -2 1 -1 1 -1 -1 -4 -2 -4 -1
-2 -1 -1 -1 -2 0 -2 0 -7 -1 -7 -2 -5 -1 -4 0 -5 -1 -4 0 -4 -1 -4 -1 -2 0 -2
1 0 2 1 0 -2 0 -1 2 -2 2 -2 3 0 4 0 0 -3 -1 -2 2 1 2 1 1 3 1 2 1 0 0 -1 0
-3 1 -3 0 -1 1 0 0 2 0 2 1 2 0 2 0 1 0 1 1 0 1 -1 1 1 0 1 1 -1 1 -1 0 -2 0
-1 -1 1 -1 2 0 -3 1 -3 -1 1 -1 0 0 -2 -1 -1 1 0 1 0 0 -2 0 -2 -1 -3 -1 -3
-2 1 -1 0 -2 0 -1 0 0 2 1 3 -2 -2 -1 -2 -1 0 -1 0 0 -2 -1 -1 -1 -4 0 -3 -1
0 -1 0 -1 -3 -1 -2 0 -5 0 -5 -1 -3 -2 -2 -2 -1 -2 0 -1 -1 -1 -1 -1 0 -1 0 0
1 0 1 0 1 0 2 -1 -2 -1 -1 -3 3 -3 4 -1 1 -2 1 0 0 -1 0 -5 0 -5 1 -4 -2 -4
-2 -1 -3 -2 -2 0 -13 0 -12 1 -1 1 -1 -1 -1 -1 -2 1 0 1 0 0 -2 -1 -2 1 -4 1
-3 1 0 1 1 0 -2 0 -2 -1 0 -1 0 1 -3 0 -3 -1 -1 -1 -2 1 0 0 0 -1 -1 -1 -2 1
0 1 0 -1 -4 -1 -4 0 -5 -1 -5 -1 -2 -1 -3 2 -2 2 -2 1 -4 1 -3 -1 -1 -1 -1 0
-1 0 0 -1 -1 -1 0 0 1 0 1 -1 -1 -1 -1 1 -1 1 -1 -1 -1 0 -2 1 0 1 -1 -1 -2 0
-2 2 -4 1 -3 1 0 1 0 0 -2 0 -2 2 -1 2 -1 2 0 2 0 0 -2 1 -1 -1 -1 -1 0 1 -3
1 -2 0 -1 -1 0 2 -7 1 -6 0 -4 0 -3 2 -1 2 -1 0 2 -1 1 1 1 1 1 -2 4 -1 5 -1
0 -1 0 1 3 0 3 -1 1 -1 1 1 0 1 0 -1 1 0 2 -1 -1 -1 0 0 1 0 1 2 1 2 1 1 -1 2
0 0 -2 1 -2 0 0 1 1 2 -3 1 -3 2 0 1 0 1 -3 0 -2 1 -4 1 -3 4 -9 4 -8 1 -2 1
-2 0 -2 0 -2 1 -5 2 -5 2 -4 2 -4 3 0 3 0 1 -5 2 -4 1 0 1 0 0 2 0 2 -2 3 -2
4 1 0 1 0 0 -1 1 -1 1 0 2 1 0 0 1 0 2 1 2 2 1 -1 1 -1 2 -5 3 -4 1 -1 1 -1 3
-5 3 -5 0 -1 0 -2 -1 0 -1 -1 2 0 2 0 1 -3 1 -3 1 0 2 1 -1 1 0 1 1 0 1 -1 0
-2 0 -1 2 1 1 0 0 -2 -1 -2 0 -1 0 -1 -3 1 -2 1 -1 0 0 0 -2 0 -2 1 -3 -1 -2
-1 0 -1 0 -1 3 -2 2 -3 1 0 2 1 1 1 2 0 0 -2 0 -3 -2 0 -1 0 1 -1 1 -2 0 -2
-1 -2 4 -4 4 -4 -1 0 0 -1 2 -2 2 -1 -1 1 -1 2 0 2 0 2 -1 0 -1 0 0 1 0 1 7
-7 7 -7 2 -3 2 -3 4 0 5 -1 4 2 5 2 -2 2 -1 1 0 3 0 3 1 2 0 2 1 -1 1 0 0 2
-1 2 0 0 0 1 -1 2 -1 1 -1 -1 -1 0 0 1 0 1 -1 0 -2 0 0 2 0 2 -2 2 -3 2 0 1 0
2 1 0 1 0 0 -1 0 -1 1 0 2 0 -3 2 -2 2 0 2 0 2 -1 0 -1 0 0 2 1 1 -1 -1 -1 0
0 1 1 2 -1 0 -1 -1 -1 3 -2 3 0 1 1 0 2 1 2 0 0 -2 -1 -2 1 0 2 1 4 -5 4 -5 1
1 1 0 0 -1 0 -1 3 0 4 0 -1 -1 0 -1 1 0 2 1 2 -2 2 -1 0 1 -1 1 1 1 0 1 2 -1
2 -1 -1 -1 0 -2 1 -1 2 -1 0 -2 0 -3 1 -2 2 -1 0 -3 0 -3 1 1 0 1 2 -2 1 -2 5
0 5 1 0 -1 0 -1 1 1 1 0 -2 2 -1 1 1 0 1 0 2 -2 3 -2 6 -6 6 -6 0 -1 0 -1 1 0
1 1 2 -2 2 -1 -1 -1 0 -1 1 0 1 0 3 -3 3 -3 0 -1 -1 -1 1 0 1 0 -1 -1 0 -1 1
0 2 1 0 -1 -1 -2 3 -2 3 -2 0 -2 0 -1 4 -3 4 -2 0 -1 0 0 -1 -1 -2 -2 2 -2 2
-2 3 0 3 0 2 -2 2 -2 1 -1 2 -2 0 -2 1 -3 3 -3 3 -2 0 -2 0 -2 1 0 1 0 0 1 0
1 3 0 2 0 0 -2 0 -1 -1 0 -1 1 0 -2 -1 -1 1 0 1 0 1 1 2 0 -1 1 0 1 2 -1 3 -1
4 -3 5 -3 2 -2 3 -1 0 -1 1 -1 1 0 2 -1 -2 -3 -1 -3 0 0 1 -1 3 0 3 0 0 -1 1
-1 5 -1 5 0 0 -1 0 -2 3 -1 3 -2 1 0 0 1 2 -2 2 -2 3 0 3 0 0 0 1 1 2 -1 2 -2
-1 0 -1 0 0 -3 1 -2 0 -1 1 0 1 -3 2 -3 3 -1 3 -1 5 1 5 1 0 2 0 1 1 0 1 0 1
-2 1 -3 1 0 1 0 1 1 0 1 1 0 1 0 0 -2 0 -3 -1 0 -1 0 2 -4 1 -3 4 -5 4 -4 0 0
0 -1 -5 1 -6 0 0 -1 -1 -2 3 -1 3 -1 4 -1 5 -2 3 0 2 0 0 -1 1 -1 3 0 3 0 1
-1 1 -2 2 0 2 0 0 2 1 1 5 -1 5 0 5 -1 5 0 11 0 11 0 4 -4 4 -3 4 -3 4 -3 5
-2 5 -1 4 0 4 0 3 3 3 3 0 1 0 2 6 -1 7 0 4 2 4 3 5 1 5 1 2 2 3 2 0 1 1 1 3
1 3 0 0 1 1 0 1 0 1 0 0 0 1 0 0 2 0 2 2 0 2 0 1 1 0 1 3 0 3 0 0 2 0 2 3 -1
2 -1 1 1 2 2 0 -1 1 0 0 2 0 2 1 -1 1 0 1 1 1 2 0 -2 0 -1 3 2 2 2 2 -1 1 0
-1 1 0 2 2 2 2 2 1 2 2 3 2 0 2 0 3 0 4 1 1 1 2 1 1 -1 1 0 0 1 -1 1 1 0 2 1
2 4 1 3 2 1 3 1 1 1 2 2 3 2 4 2 1 2 2 2 4 4 4 5 2 1 2 2 1 1 2 2 -2 0 -2 -1
1 2 0 2 1 0 1 -1 0 5 0 4 1 1 1 1 0 1 0 1 3 3 3 3 -1 0 0 0 2 1 2 1 2 5 3 6 2
0 1 0 -1 3 0 3 1 0 2 0 0 1 0 0 -1 2 -1 2 1 1 0 1 1 4 0 3 -1 0 -1 0 2 2 2 2
1 0 1 0 0 2 0 2 1 0 1 1 0 1 0 1 0 0 0 1 1 2 0 3 1 2 2 1 0 2 0 2 2 4 2 4 -1
1 0 2 3 3 3 3 1 -1 1 0 1 1 0 1 1 0 1 -1 0 2 1 3 -1 4 -1 5 2 0 1 -1 0 1 1 1
-2 1 -1 1 -2 0 -3 -1 -1 2 -1 1 1 1 1 0 -1 3 -1 2 2 0 1 0 0 -2 0 -1 0 -2 0
-2 3 0 3 0 0 1 1 1 0 3 1 3 -1 -2 0 -1 -1 0 -1 0 1 1 0 1 -1 0 -1 0 0 -1 0 -1
1 -1 1 -1 -1 -1 -1 -1 0 1 0 2 -2 1 -1 1 1 2 1 1 -1 1 -2 0 1 1 1 2 0 2 1 2
-1 0 -1 -1 1 3 0 4 1 0 2 1 -2 0 -1 0 0 2 0 2 -1 -1 -1 0 0 5 1 5 -1 0 -1 0 0
2 0 2 -2 -2 -1 -2 0 -2 1 -1 -1 0 0 0 -3 5 -2 6 -1 -3 0 -2 -2 0 -1 -1 0 1 1
1 -1 1 -1 0 -2 0 -1 1 -1 1 0 1 2 0 2 -1 1 2 1 2 0 0 0 1 -2 -1 -2 -1 0 3 0 3
-2 0 -1 0 -1 0 0 1 2 0 3 -1 0 1 -1 1 1 1 1 1 1 -3 0 -2 1 -1 0 -1 1 1 1 0 -1
1 -1 2 0 2 -1 2 1 0 1 0 -1 4 0 3 1 0 1 0 0 1 0 2 0 1 1 2 2 0 1 0 -1 1 0 2 3
2 3 1 0 1 0 0 -1 1 -1 2 1 0 1 0 -1 1 -1 2 0 3 1 4 -1 1 0 1 -2 0 -2 0 -2 1
-1 1 -2 0 -2 0 0 -1 0 -1 -2 -1 -2 0 -1 -3 0 -3 -1 -1 -1 0 1 -2 2 -1 -2 1 -2
1 1 2 0 1 -1 1 -2 2 -1 7 -1 6 1 1 1 0 -1 1 0 1 2 3 1 3 1 0 1 0 0 3 0 2 -1 0
0 -1 -2 2 -1 2 0 1 0 1 -2 3 -2 2 -4 4 -3 3 0 1 0 1 -3 2 -3 1 -1 1 -1 0 -1 0
0 0 -3 2 -3 3 -2 1 -1 2 -6 0 -6 0 -3 -1 -3 -1 -1 -1 -1 -1 -4 -2 -3 -1 -2 2
-2 3 -6 2 -5 2 0 -1 0 -1 -5 -2 -5 -2 -1 1 0 1 -3 0 -2 1 -2 1 -1 1 0 3 0 4 0
2 -1 2 -5 2 -5 2 -3 0 -2 0 0 -2 -1 -2 -6 4 -7 5 -3 1 -3 1 -4 2 -3 1 -1 0 -1
0 -5 2 -5 1 -8 -4 -9 -4 -2 0 -1 0 -4 -1 -4 -2 -1 -1 0 -2 -5 -2 -4 -2 1 -2 0
-1 -4 -1 -3 0 2 -1 2 -1 -2 -2 -2 -2 -4 0 -4 0 -4 0 -4 -1 -1 2 -1 1 -1 -1 -1
-2 -3 0 -3 0 -1 1 0 2 -4 0 -3 0 -3 2 -3 1 -1 2 -1 2 -3 1 -2 1 2 1 2 1 -2 0
-2 0 0 -1 -1 -1 -2 1 -2 0 -4 2 -3 2 0 0 1 0 2 -1 3 -1 0 1 0 1 -4 1 -5 2 1
-2 0 -1 -1 0 -1 0 -4 2 -4 2 0 1 0 2 0 3 -1 4 -2 3 -2 3 -3 3 -4 2 -7 0 -6 1
-3 2 -3 1 -4 3 -4 3 -3 3 -3 3 -4 2 -3 1 -3 -1 -3 -1 -2 2 -3 2 1 1 0 1 -2 0
-2 0 -1 3 -1 2 -4 3 -4 3 1 1 2 1 -2 1 -1 0 0 2 0 2 -2 4 -2 4 -1 0 -1 0 0 2
0 1 -1 0 -1 0 -3 3 -3 4 0 0 0 1 1 -1 1 0 -1 4 0 5 -1 1 -1 1 -2 4 -1 4 0 2 0
2 -1 0 -1 0 0 -2 0 -2 1 -2 1 -2 -1 -1 -1 -1 -1 2 -2 2 0 -1 0 -1 -1 1 -2 2 0
1 0 1 -2 2 -2 3 0 0 1 0 -1 3 -2 3 -1 3 -1 3 0 2 0 1 1 0 1 -1 0 3 0 3 0 0 0
1 1 0 1 0 0 4 0 5 1 0 2 0 1 -1 1 -1 1 1 1 1 1 0 0 -1 2 2 1 2 0 5 -1 5 -1 7
0 8 -2 2 -2 2 1 2 0 2 -4 0 -4 -1 0 1 0 1 -2 -1 -3 -1 0 4 0 3 1 -1 2 -2 1 1
1 2 3 0 3 0 -2 -1 -1 0 0 -2 0 -2 2 0 2 1 0 1 0 2 1 4 2 4 1 2 0 3 -2 3 -2 2
-2 0 -1 0 0 3 1 3 1 2 0 3 -1 2 -1 2 2 1 3 1 1 4 1 3 2 2 2 2 3 0 3 -1 2 3 3
3 -1 0 0 1 2 3 2 3 0 2 1 2 1 0 1 0 0 4 0 4 3 2 3 3 1 3 2 4 1 2 2 3 2 0 1 0
0 1 0 1 2 0 3 1 3 3 4 4 1 2 1 2 -1 1 0 1 2 1 3 1 0 2 0 2 1 0 1 1 -1 2 0 2 6
6 7 6 3 2 3 1 3 2 3 3 6 3 6 3 1 0 2 0 1 1 2 2 1 4 2 3 5 1 6 2 1 1 2 1 -1 2
0 2 -1 0 0 0 -3 0 -2 1 -1 -2 -1 -2 -2 -2 -2 -2 -1 1 -1 1 1 2 0 2 2 1 2 0 1
3 1 3 4 0 4 0 0 -1 0 -1 5 0 4 1 2 1 2 1 3 1 3 1 1 -1 1 -1 0 1 0 2 1 0 1 0 0
2 -1 3 1 1 1 1 5 1 4 0 6 2 5 2 6 1 7 0 3 1 3 1 5 0 5 0 2 1 2 1 0 -1 1 -1 5
0 5 -1 1 1 1 1 1 2 1 2 4 0 4 1 0 2 0 2 2 1 2 2 -2 1 -2 0 2 1 2 1 9 -1 9 0 1
-1 0 -1 -1 -1 -1 -1 1 0 1 0 2 2 1 2 -1 -2 0 -2 1 0 1 0 1 1 1 2 1 -2 0 -1 3
0 2 0 1 1 0 1 -1 0 -1 0 0 1 1 0 3 -1 4 -2 5 0 6 0 1 -1 1 -1 -2 0 -1 1 -1 -1
-1 -1 2 0 2 0 1 0 2 0 1 -1 0 -2 2 0 2 0 0 1 1 1 3 -1 3 0 0 -3 0 -3 1 0 1 0
0 -1 -1 -2 2 1 1 0 2 -1 1 -2 2 1 2 0 1 -1 1 -2 3 1 2 0 0 2 -1 2 1 1 0 2 3 0
2 0 5 -1 5 -1 5 -3 5 -3 2 0 1 0 -2 2 -2 2 -3 0 -2 1 0 1 0 1 2 0 2 -1 4 -1 4
-2 5 -2 5 -2 0 0 1 0 0 -1 0 -1 6 -3 7 -2 0 -1 1 -1 3 -1 3 -1 -1 -2 -1 -1 -2
2 -2 2 -2 1 -2 2 0 -1 0 -1 -2 0 -1 1 -1 -1 -1 0 1 -1 2 -1 -2 -2 -1 -2 1 -1
1 0 0 -2 -1 -2 2 -2 3 -2 2 -1 2 -1 2 0 2 1 2 -2 2 -2 0 -1 -1 -1 3 -2 2 -1 2
-2 1 -1 0 -1 1 -1 2 2 2 3 0 -3 0 -2 -1 0 -1 0 1 -1 1 -2 1 0 2 0 1 -2 1 -2 4
0 4 1 0 1 0 2 0 1 1 2 -1 2 -1 1 1 0 2 0 -2 1 -1 1 0 0 1 0 4 -2 5 -3 2 -1 3
-1 0 -1 1 -1 2 0 2 0 -1 2 0 1 5 -4 6 -4 0 -2 0 -1 1 0 1 1 2 -3 2 -2 1 0 2 1
1 2 1 2 1 -1 0 -2 2 0 2 0 -2 1 -2 1 0 2 0 1 1 0 1 0 0 -1 0 -1 1 0 1 1 -1 2
0 2 -4 4 -4 4 -3 1 -4 2 -2 2 -2 2 -1 -1 -1 0 1 -1 0 -1 -1 0 -1 1 1 1 0 1 -2
2 -3 1 -1 0 -1 -1 0 1 0 2 -3 2 -3 2 -7 3 -6 3 -1 0 0 -1 2 -1 3 0 1 -2 2 -2
1 -2 0 -3 -2 0 -2 0 -2 2 -2 1 0 -1 0 0 4 -3 4 -3 0 -2 0 -1 -8 4 -8 5 -1 0
-1 1 -3 2 -2 2 2 2 2 2 0 1 0 1 -2 1 -2 0 -1 1 0 1 -5 1 -5 2 0 1 0 1 -1 0 -1
-1 -6 3 -5 3 -6 3 -6 2 -5 2 -4 2 1 1 1 1 -2 2 -3 1 2 2 2 2 1 3 2 4 -1 2 0 2
1 0 0 0 2 -1 3 -1 0 1 0 0 -3 1 -3 1 0 6 -1 5 -2 5 -2 4 -5 2 -4 1 -5 0 -4 -1
-4 -4 -4 -3 -3 0 -3 0 -1 1 -2 2 -3 -1 -3 0 -1 2 -1 1 -2 0 -1 0 2 1 2 1 -3 1
-3 1 -1 0 0 0 -4 1 -4 1 -2 0 -2 0 0 -1 1 0 1 0 2 -1 2 0 2 -1 0 -1 0 -1 -1
-1 -2 -1 -3 1 -4 0 0 -1 0 -2 -1 0 -1 0 0 1 1 1 -3 1 -2 1 -5 -1 -4 0 1 1 1 1
-3 1 -3 0 -1 1 -1 2 -1 -2 -1 -1 0 1 0 1 -2 0 -2 0 -5 2 -5 2 7 0 7 0 0 1 0 1
-6 0 -5 0 0 0 0 1 -26 -1 -26 0 -2 2 -3 3 -2 -1 -3 0 -2 1 -2 1 0 2 1 2 -2 1
-3 0 -2 -1 -2 -1 -2 2 -2 2 1 0 0 1 -1 0 -1 0 -2 3 -2 4 0 1 0 0 -3 2 -3 2 -1
1 0 1 -2 1 -2 1 -4 2 -3 1 -4 0 -3 -1 0 1 0 1 -9 0 -8 0 -7 -2z m198 -49 l3 0
-1 -2 0 -1 0 -3 -1 -2 0 -1 -1 -1 -4 2 -3 1 0 1 1 0 -2 3 -1 2 1 1 2 1 1 -1 2
0 3 0z m-106 -26 l-1 0 -1 0 -1 1 2 0 3 0 -2 -1z m4 -4 l-1 -2 1 0 2 -1 -3 0
-2 0 0 0 0 1 1 1 0 2 1 0 1 0 0 -1z m-16 -4 l-1 -1 -3 0 -2 0 0 2 -1 2 1 0 1
1 3 -2 3 -1 -1 -1z m-12 -3 l-1 0 -1 0 -1 1 1 0 2 0 0 -1z m-182 -22 l-1 -2 0
-1 1 -1 -5 -4 -5 -3 -2 -2 -1 -1 -1 0 0 1 1 2 2 1 -9 -6 -9 -6 -1 1 0 0 3 3 3
3 1 0 1 0 2 2 2 3 2 1 2 0 -1 1 0 1 1 0 1 0 5 3 4 3 2 1 3 1 0 0 0 0 -1 -1z
m386 -1 l0 -1 -1 1 -2 0 0 1 0 1 2 -1 1 0 0 -1z m32 -7 l-1 0 1 -2 1 -1 -1 0
-1 0 0 1 -1 1 1 1 0 1 1 0 0 0 0 -1z m14 -11 l3 -1 2 -2 2 -1 4 -3 4 -2 0 -2
0 -1 1 0 2 -1 -3 -2 -2 -2 0 1 -1 1 1 0 1 1 -5 3 -5 3 -1 1 -1 2 -4 2 -4 3 0
0 0 1 2 -1 2 0 2 0z m-11 -4 l-1 0 -1 1 -2 1 0 1 0 1 2 -2 2 -1 0 -1z m-464
-8 l-3 -3 -1 0 -1 0 1 -1 0 -1 -1 0 -2 1 0 -2 -1 -1 -3 -2 -3 -2 0 1 0 1 2 2
3 3 1 0 1 0 1 2 2 2 3 2 4 3 0 -1 0 -1 -3 -3z m121 0 l0 0 -2 -3 -1 -3 -4 -2
-3 -1 0 -1 0 -1 -2 0 -2 -1 -1 1 -1 2 2 2 2 2 1 0 2 -1 -1 1 0 2 1 1 1 1 2 1
2 2 2 -1 2 0 0 -1z m364 -2 l-1 -1 -1 1 -1 1 2 0 2 0 -1 -1z m-365 -5 l-4 -5
-1 1 0 0 2 2 3 3 2 1 2 2 1 0 0 0 -5 -4z m-157 -4 l0 -1 -1 1 -1 0 0 -1 0 -2
-1 0 -1 -1 0 2 1 2 0 1 1 1 1 0 1 0 0 -2z m-5 -4 l-1 -1 -1 -1 -2 0 1 1 0 2 2
0 1 0 0 -1z m17 1 l0 -1 -2 -2 -2 -1 1 2 2 2 1 0 0 0 0 0z m112 -7 l0 -1 -1 0
-2 0 0 -1 0 -1 -1 0 0 1 1 1 1 2 1 0 1 0 0 -1z m-136 -2 l0 -1 -5 -6 -5 -7 -7
-8 -7 -7 -2 -3 -1 -3 -1 0 -1 0 1 1 1 2 -1 0 0 1 1 0 1 0 -1 1 0 1 1 0 1 -1 0
1 1 1 -1 0 -1 0 2 2 2 2 1 2 2 3 4 5 5 5 3 3 3 4 0 1 0 1 2 0 2 0 0 0z m109
-35 l0 -2 -1 -1 -1 0 -3 -4 -3 -4 0 2 1 2 1 2 1 3 2 2 1 2 1 0 1 0 0 -2z
m-200 -73 l-1 0 1 -2 1 -2 -1 -1 -1 0 1 -1 0 -1 -1 -1 -1 0 -2 -1 -1 0 1 1 0
1 -2 1 -1 1 1 0 2 -1 0 1 0 1 2 0 2 0 -2 1 -1 0 1 2 0 2 1 0 1 0 0 -1z m204
-88 l0 -1 -1 1 -1 2 0 1 0 1 1 -2 1 -1 0 -1z m-174 -4 l0 -1 -1 -4 -2 -3 0 2
0 2 1 3 0 3 1 0 1 0 0 -2z m-3 -12 l0 -3 0 -2 0 -2 -1 2 -1 2 1 3 0 3 1 0 1 0
-1 -3z m-11 -8 l0 -1 -1 0 -2 0 0 -1 0 -1 3 0 3 0 0 -1 0 -2 2 1 1 0 0 -1 0
-1 1 0 1 0 1 4 1 4 0 -10 0 -9 -1 -3 -1 -3 0 1 0 1 -2 0 -2 0 -2 -1 -2 -1 0 1
0 1 -1 0 -1 -1 0 6 0 7 1 1 2 1 -2 1 -1 0 0 2 0 1 -1 0 -1 0 0 2 0 3 0 1 0 1
2 -1 2 -1 0 -1z m14 -24 l-1 -1 -1 0 -1 0 0 4 0 5 1 1 2 1 -2 0 -1 -1 1 2 2 2
0 -6 0 -5 0 -2z m-18 7 l-1 0 1 -1 0 -1 -1 0 -1 1 1 1 0 1 1 0 2 0 -2 -1z
m209 -1 l0 -1 0 0 -1 0 0 1 -1 1 1 0 1 0 0 -1z m-204 -8 l0 -1 -1 0 -1 0 1 1
0 1 1 0 0 0 0 -1z m1 -7 l2 0 -2 -1 -1 0 1 -2 0 -2 2 0 1 1 0 -1 -1 -1 1 0 1
-1 -1 -1 0 -2 -2 1 -2 1 1 -2 0 -2 -2 0 -1 1 0 3 0 4 -1 0 -2 0 1 2 0 2 2 0 1
-1 0 2 -1 2 1 -2 0 -1 2 0z m11 0 l0 -1 -1 0 -1 -1 0 1 0 2 1 0 1 0 0 -1z m0
-5 l0 -2 -1 0 -1 0 0 2 0 2 1 0 1 0 0 -2z m-34 -17 l0 -1 -1 0 -1 0 1 1 0 1 1
0 0 0 0 -1z m20 -4 l0 1 1 -2 1 -2 -1 -1 0 -1 -2 1 -1 1 1 -2 0 -3 -2 0 -1 -1
0 3 1 3 0 2 0 3 1 -2 1 -1 1 1z m-21 -1 l2 0 -1 -1 0 -1 -1 -4 0 -4 1 1 1 0 1
-3 1 -2 0 -3 0 -3 1 3 1 3 1 -1 1 -1 1 -6 0 -7 -1 0 -1 -1 -1 1 0 2 0 3 0 3
-1 -1 -1 0 1 -2 0 -2 -1 -2 -1 -1 0 2 -1 3 -1 -1 -2 -2 -2 1 -3 2 0 1 0 1 1 0
2 0 0 2 0 2 1 9 0 10 1 0 0 0 1 -1z m15 -9 l0 -8 -1 -1 -1 -1 -1 0 -1 0 1 3 2
2 -1 0 -1 0 1 2 0 1 -1 2 -1 1 1 0 0 0 -1 1 -1 1 0 3 0 2 1 0 2 1 0 -1 1 0 1
-8z m-8 1 l0 -2 -1 1 -1 1 1 2 0 1 1 0 0 0 0 -3z m12 -2 l0 -1 1 0 1 1 0 -1 1
0 -3 -2 -2 -2 0 3 0 3 1 0 1 0 0 -1z m-4 -18 l0 -1 -1 1 -1 0 0 3 0 2 -1 0 -1
-1 0 2 0 2 1 0 1 0 0 -1 -1 -1 1 1 2 2 0 -4 1 -3 -1 -2z m4 6 l-1 -1 1 0 1 0
0 -3 -1 -2 0 -1 0 -1 -1 1 -1 0 0 5 0 5 1 -1 1 0 0 -2z m472 -7 l-1 -2 1 -1 1
-1 -2 0 -2 0 0 1 0 1 1 1 0 2 1 0 1 0 0 -1z m-469 -2 l0 -1 -1 0 -1 0 0 1 0 1
0 0 1 0 1 -1z m-17 -15 l0 -7 -3 -2 -2 -2 0 2 1 2 1 3 0 3 0 3 0 4 1 0 0 1 1
0 1 0 0 -7z m500 -9 l2 -1 -4 0 -4 1 -1 1 -1 0 1 1 0 1 2 0 1 -1 0 1 0 2 1 -2
2 -1 1 -2z m4 -3 l1 0 0 -1 0 -2 2 0 1 0 -1 -1 -1 -1 -3 2 -2 1 -1 1 0 0 0 1
1 1 1 -1 2 -1 0 1z m-507 -4 l1 -2 1 -7 0 -6 -1 0 -1 0 0 2 0 2 0 1 0 1 -1 4
-2 3 0 2 0 2 1 0 2 0 0 -2z m515 -2 l0 -1 -1 0 -1 0 0 1 -1 1 1 0 1 0 -1 1 0
1 1 0 1 -1 0 -2z m-513 -14 l0 -1 -1 0 -1 -1 0 1 0 1 1 0 1 0 0 0z m385 -44
l6 -1 4 -2 4 -1 -1 -1 0 -1 2 -1 3 -1 1 1 1 1 3 -2 3 -3 -1 -1 0 -1 2 -1 2 -1
0 -2 0 -2 1 0 1 1 2 -2 3 -2 4 -7 5 -6 0 -2 0 -1 1 0 1 0 1 -6 1 -6 0 -5 -1
-4 1 0 1 0 -1 -2 -1 -1 -1 0 0 1 -2 -6 -2 -5 0 -3 0 -3 -1 0 -1 0 -1 0 -1 0
-1 -2 0 -1 1 0 1 0 1 1 1 2 0 -4 -1 -4 -4 -4 -4 -5 -2 1 -1 0 0 -1 0 -1 -4 -2
-3 -1 0 -2 1 -1 -4 -1 -4 -1 -1 -2 -1 -2 0 1 0 2 -1 -1 -1 -1 -6 -1 -5 -1 -5
0 -5 -1 -1 1 0 1 -2 -1 -2 0 0 1 0 1 -1 -1 -2 0 0 1 0 1 -2 0 -1 0 0 1 1 2 -2
1 -2 1 -2 1 -2 0 -1 0 -1 0 -1 2 -1 2 -3 0 -2 1 -5 5 -5 5 -3 3 -2 3 -1 3 -1
3 1 1 0 1 -3 3 -3 3 1 1 0 1 -1 1 -1 2 -1 7 0 8 1 5 2 6 1 2 1 3 1 1 0 1 3 5
3 5 5 4 4 4 1 0 1 0 4 2 4 3 4 1 4 1 1 -1 1 -1 2 0 2 1 -1 1 0 1 1 1 1 1 4 -1
5 0 5 0z m183 -11 l0 -1 -1 0 0 -1 -2 1 -1 0 0 1 0 1 2 0 2 0 0 -1z m13 -4 l0
-2 -1 1 -1 2 0 0 0 1 1 0 1 0 0 -2z m-526 -22 l0 2 1 -1 2 -1 3 -7 3 -7 2 -2
2 -3 -3 0 -2 0 1 2 0 2 -2 1 -1 0 -1 -1 0 -1 -1 1 -1 0 0 0 0 -1 1 -2 1 -3 -1
0 -1 0 -2 4 -1 4 1 1 1 1 0 1 -1 2 -2 0 -2 -1 -1 1 -1 2 1 0 0 0 -1 2 -1 2 1
-2 2 -1 1 1 1 2 -1 0 0 1 -1 2 0 2 2 -2 1 -2 0 1z m10 -1 l1 -2 0 -1 -1 0 -1
1 -1 0 0 2 1 1 -2 0 -1 0 0 1 0 1 1 0 1 0 2 -3z m-10 -27 l1 -2 -2 0 -1 -1 -1
1 0 1 1 1 0 1 1 0 1 0 0 -1z m383 -9 l-1 -4 -1 -2 -1 -3 -3 -7 -3 -6 -1 0 0 0
1 4 0 5 2 2 2 3 2 6 1 6 1 0 1 0 0 -4z m-381 -6 l0 -1 -1 0 -1 -1 0 1 0 1 1 0
1 0 0 0z m368 -14 l-1 -2 -1 0 0 0 1 2 1 2 1 0 1 0 -2 -2z m-12 -6 l0 -1 -1 0
-2 0 0 1 0 1 1 0 1 0 1 -1z m-2 -8 l0 -2 -1 1 -1 0 0 -1 -1 -1 -1 0 -1 1 0 1
0 1 2 0 2 1 1 0 1 0 -1 -1z m-8 -2 l0 -1 -2 0 -2 0 1 1 2 1 0 0 1 0 0 -1z m-5
-1 l0 -1 -3 0 -2 0 2 1 2 1 0 0 0 0 1 -1z m-137 -76 l1 0 0 -1 1 -2 -1 0 -1 0
-1 1 -2 0 0 2 0 1 1 -1 2 -1 0 1z"/>
<path d="M297 875 l-1 -1 0 0 1 -1 1 1 1 2 0 0 0 0 -2 -1z"/>
<path d="M121 715 l-1 -1 1 0 1 0 0 1 0 1 0 0 -1 0 0 -1z"/>
<path d="M174 384 l0 -1 1 0 1 -1 0 1 0 2 -1 0 -1 0 0 -1z"/>
<path d="M365 976 l-1 -1 0 -1 0 -1 1 1 1 2 0 -2 0 -1 1 0 1 0 0 2 0 2 -1 0
-1 0 -1 -1z"/>
<path d="M565 957 l0 -1 1 0 1 1 7 -2 8 -1 2 0 2 0 -2 1 -1 1 -4 0 -4 1 -5 1
-5 0 0 -1z"/>
<path d="M322 953 l0 -1 -2 0 -1 0 -6 0 -5 -1 -4 -2 -5 -2 -4 -3 -4 -3 -2 -2
-1 -1 -1 0 -1 1 0 -2 0 -1 1 0 1 0 0 1 1 1 2 -1 3 -2 1 1 1 1 0 0 0 -1 -2 -3
-1 -3 -1 0 -1 0 0 -2 -1 -2 1 -2 1 -2 -2 1 -1 0 0 -1 1 -1 -3 0 -3 0 1 -1 0
-2 -2 -3 -3 -2 0 -1 0 -1 -3 -1 -3 -1 -1 -3 -1 -3 -3 0 -3 0 1 -1 2 -2 0 0 -1
-1 2 0 2 0 0 1 0 1 5 3 5 3 -1 1 -1 1 3 2 4 3 0 1 0 1 5 4 5 4 3 2 4 3 -1 2 0
3 1 0 2 1 4 0 4 -1 5 3 5 3 2 1 2 1 1 3 1 3 -1 0 0 -1 -3 3 -2 2 0 1 0 1 -1 0
-1 0 0 -1z m-27 -13 l1 -2 -1 0 -2 -1 1 2 0 2 1 0 0 0 0 -1z m5 -8 l0 -1 -1 0
-1 -1 0 2 0 1 1 0 1 0 0 -1z"/>
<path d="M687 935 l0 -2 2 0 1 0 0 1 -1 1 -1 1 -1 0 0 -1z"/>
<path d="M689 919 l1 -2 1 0 0 0 0 1 0 2 -2 0 -1 1 1 -2z"/>
<path d="M554 919 l0 -1 2 0 2 0 0 1 -1 1 -2 0 -1 0 0 -1z"/>
<path d="M678 915 l-1 -1 2 -1 2 0 0 -1 0 -1 1 0 1 0 1 0 2 -1 1 0 2 1 -5 2
-4 2 1 0 0 1 -1 0 -2 1 0 -2z"/>
<path d="M583 915 l-2 -1 2 0 3 0 0 1 -1 1 0 0 0 0 -2 -1z"/>
<path d="M548 911 l0 -1 1 -1 1 -1 1 1 1 1 0 1 -1 1 -1 0 -1 0 -1 -1z"/>
<path d="M634 905 l0 -1 2 0 1 -1 -1 1 0 1 -1 0 -1 0 0 0z"/>
<path d="M654 898 l1 -1 3 -1 3 -1 1 1 0 1 -1 0 -1 -1 0 1 0 1 -1 -1 -2 0 0 1
0 1 -2 0 -1 0 0 -1z"/>
<path d="M685 896 l0 -1 1 0 0 0 0 1 0 1 -1 0 -1 0 1 -1z"/>
<path d="M550 895 l5 -1 5 -2 4 -2 11 -1 10 0 0 1 1 1 -5 1 -4 0 -2 1 -1 0 -9
1 -9 1 -5 0 -5 1 4 -1z"/>
<path d="M689 894 l1 -1 4 -2 4 -1 -1 1 -1 1 -4 1 -4 2 1 -1z"/>
<path d="M464 893 l-1 -1 1 0 1 0 1 1 0 1 0 0 0 0 -2 -1z"/>
<path d="M702 883 l0 -2 1 0 1 0 2 -1 3 -1 1 0 1 0 -2 1 -2 1 1 1 0 1 -1 0 -1
-1 -2 1 -2 1 0 -1z"/>
<path d="M540 881 l-6 -1 1 0 2 0 5 -2 4 -2 5 -1 6 0 2 -1 2 0 8 -1 7 0 4 -1
4 -1 7 0 7 0 4 0 5 -1 3 0 3 -1 0 0 0 0 2 0 3 -1 0 1 0 1 -9 2 -9 2 -6 2 -6 2
-6 0 -6 1 -4 1 -4 0 -5 1 -5 0 -6 0 -5 1 -7 -1z"/>
<path d="M512 879 l0 0 -9 0 -9 -1 -16 -3 -16 -4 -6 -1 -6 0 -5 -2 -5 -2 3 0
3 1 17 3 18 3 3 1 4 1 12 1 12 1 1 0 2 0 0 2 1 1 -2 0 -2 0 0 -1z"/>
<path d="M703 879 l0 -1 1 0 1 0 0 1 -1 1 -1 0 0 0 0 -1z"/>
<path d="M706 878 l0 -2 1 0 1 0 -1 2 0 1 -1 0 0 0 0 -1z"/>
<path d="M230 876 l-2 -1 -1 -1 -1 -1 0 -2 0 -2 2 -2 3 -2 3 0 3 0 1 1 1 2 0
3 0 3 -3 1 -3 2 -1 0 0 0 -2 -1z"/>
<path d="M653 867 l0 -2 -1 1 -1 1 -1 -1 -1 -1 2 -1 3 -1 1 -2 1 -2 -1 0 -1 0
-4 2 -3 1 -2 1 -2 0 0 -1 0 -1 2 0 2 0 5 -2 5 -2 0 -1 1 -1 3 -1 4 -1 1 0 0 1
-1 0 -1 0 0 1 0 1 2 0 1 0 0 -1 0 -1 1 1 1 1 2 -2 2 -2 0 -1 0 0 -2 1 -3 0 0
-1 0 -1 4 -1 5 -2 0 2 0 1 -2 -1 -1 0 1 1 1 1 2 -1 3 -1 -1 -1 0 -1 2 -3 2 -3
-2 0 -2 0 0 -2 0 -3 1 0 2 0 8 -4 9 -4 3 -2 4 -2 2 -2 2 -2 2 -4 2 -4 3 -3 3
-3 -1 -3 0 -2 0 -2 0 -2 -1 -1 -1 -1 1 -1 0 -1 1 -3 1 -3 -1 -1 0 -1 1 0 1 0
0 -1 0 -2 2 -1 2 -2 0 -1 0 -2 4 -2 4 -1 0 -2 0 -1 2 0 2 0 1 -2 0 -1 1 -2 1
-2 0 -1 0 -2 1 0 1 0 2 -2 2 -2 0 -1 0 0 3 -3 3 -2 0 -2 0 -2 2 -2 2 -2 3 -4
4 -4 0 -6 1 -5 4 -5 3 -6 1 -4 1 -4 5 -8 5 -7 6 -9 6 -9 2 -3 1 -3 3 -2 3 -2
0 -2 0 -1 4 -2 5 -2 3 0 3 0 3 0 4 0 3 3 4 4 0 2 0 3 -1 3 -1 3 -3 2 -2 3 0 1
0 1 3 1 2 1 -2 2 -2 3 -2 0 -1 0 0 -1 0 -1 -1 1 -1 0 0 2 0 1 2 4 2 3 2 -2 1
-1 1 -4 1 -4 3 -3 4 -3 4 0 5 1 0 -2 0 -1 2 0 1 0 0 -3 0 -2 0 -2 0 -1 1 0 2
1 -1 -8 0 -7 -2 -4 -1 -4 1 -1 1 -1 3 1 3 1 1 0 2 -1 0 -2 0 -2 1 1 1 0 0 -3
0 -3 -1 0 -1 0 -2 -3 -2 -3 1 -5 0 -4 2 -4 2 -3 2 -1 1 -1 0 -2 0 -1 1 0 1 0
0 -2 0 -2 1 -1 1 -1 1 1 1 0 1 -2 1 -1 2 1 2 0 0 -6 -1 -7 3 -4 4 -3 4 1 3 2
1 0 0 0 1 -3 0 -3 1 1 1 0 0 -1 0 -1 -1 0 -1 -1 1 0 2 -1 0 1 0 2 1 -2 1 -1 0
1 0 2 2 -3 1 -2 0 1 0 2 1 0 2 0 1 -2 2 -1 0 2 1 2 2 0 1 0 0 -1 0 -1 1 1 1 2
0 -3 0 -2 1 0 1 -1 1 -10 1 -10 2 -2 2 -2 0 -2 -1 -3 -1 -13 0 -13 -2 -10 -1
-9 -2 1 -2 0 1 2 0 2 -1 0 -1 0 0 -2 0 -2 -2 0 -1 -1 -1 0 -1 1 -1 -6 -1 -6
-1 -4 0 -4 -2 -10 -1 -9 -2 -3 -1 -3 0 -2 0 -3 -1 -1 -1 0 -1 -7 -2 -6 -1 0 0
1 -3 -4 -2 -3 0 2 1 2 2 6 2 7 0 2 0 1 -1 0 -1 0 1 -1 0 -2 -1 0 -1 0 0 1 0 2
1 1 2 1 0 -1 1 0 0 6 1 7 -1 1 0 2 1 0 1 -1 0 2 0 3 0 1 1 2 0 1 -1 1 1 0 1 0
0 2 0 2 -1 0 -1 1 1 0 1 0 0 2 0 2 -1 0 -1 1 1 0 2 0 0 2 0 2 1 1 0 2 -2 0 -2
0 0 -4 -1 -4 1 -1 1 0 -1 -2 -1 -1 -1 -5 0 -4 -1 -2 0 -2 -4 -18 -4 -18 -1 -5
-2 -5 0 -2 0 -3 -3 -6 -2 -6 -3 -7 -2 -6 -1 -4 -1 -3 -1 -4 -1 -3 -5 -8 -4 -9
0 1 -1 0 -1 -2 -1 -2 1 0 0 -1 -1 -1 -1 -2 -1 0 -1 0 1 2 1 1 -1 0 -1 0 0 2 0
2 2 0 1 0 0 1 0 1 -1 0 0 -1 -2 2 -1 2 -1 0 -1 0 -4 -3 -3 -4 -4 -6 -3 -5 -4
-5 -3 -4 0 -1 0 0 -4 -7 -4 -6 -2 0 -2 -1 -4 0 -3 0 -3 -3 -2 -4 -4 -5 -3 -4
-1 -5 0 -5 1 -4 1 -3 2 -4 1 -3 -5 -5 -4 -5 -3 -3 -2 -2 0 1 -1 0 -1 -1 -1 -2
-2 0 -1 0 0 -1 0 0 -3 -3 -2 -3 -4 -3 -3 -3 0 -1 0 -1 -3 -1 -2 0 -2 -2 -2 -2
0 -1 1 0 1 2 2 1 0 0 1 -1 -2 -2 -2 -3 -1 0 -1 1 -1 -2 0 -2 -1 -1 -1 -2 -1 1
-1 0 0 -1 1 -1 -3 -1 -2 -2 -3 -3 -3 -3 1 1 2 0 1 -1 0 -1 -2 -2 -2 -2 -4 -4
-4 -3 0 -1 1 0 -3 -1 -2 -1 0 1 0 0 -2 -2 -2 -2 -1 0 -2 0 -2 -3 -2 -2 1 1 0
2 0 0 -1 0 -4 -3 -4 -3 -7 -3 -7 -3 -3 -2 -2 -2 0 -3 0 -2 -10 -4 -10 -4 -4
-3 -4 -2 -6 -2 -6 -2 -1 1 0 0 3 1 3 1 0 0 1 0 0 2 0 1 3 1 3 1 0 1 1 1 8 5 8
4 -3 0 -2 -1 0 1 0 1 -2 -1 -2 0 -5 -2 -4 -2 -1 0 -1 0 0 -1 0 -1 -2 0 -2 0
-1 -1 0 -1 -2 0 -2 0 -3 -1 -3 -2 -3 -1 -2 0 -1 -1 -1 0 -6 -2 -5 -1 -2 -1 -1
-2 -4 -1 -4 -2 -1 0 -1 0 -7 -3 -7 -4 -2 1 -2 0 0 -1 0 -1 -5 -1 -5 -2 -6 -2
-5 -1 1 -1 1 0 2 1 2 1 4 0 4 0 7 3 7 2 2 0 2 0 1 -2 1 -2 -3 -1 -3 -2 -5 -1
-5 -1 -6 -1 -6 0 -6 -2 -5 -3 -7 -1 -7 -1 -9 0 -8 -1 -12 1 -12 1 -17 2 -16 1
-7 1 -6 0 -12 2 -12 2 -2 1 -2 1 -5 1 -5 1 -8 0 -8 0 -3 -1 -2 -1 -2 1 -2 1
-7 2 -6 1 -5 0 -4 0 -1 -1 -1 -1 2 -1 2 -2 13 -6 13 -7 3 -1 4 -2 1 0 1 0 6
-2 5 -1 0 -1 0 -1 -9 1 -8 1 -9 2 -8 1 -1 1 -1 1 -4 0 -4 0 -1 1 0 1 1 2 1 1
-1 0 -1 0 0 -1 0 -1 -3 0 -2 -1 -5 2 -5 2 -2 0 -1 0 -3 1 -3 2 -3 1 -3 0 -4 2
-3 2 -6 2 -6 2 -3 2 -3 2 -2 2 -1 2 -7 1 -6 0 -3 1 -2 1 -1 -1 -1 0 -1 2 -1 2
-1 0 -1 0 -4 3 -4 2 -4 3 -3 3 -2 2 -3 2 -2 1 -2 2 -4 2 -3 1 -5 3 -4 4 0 1 0
1 -2 0 -1 0 -4 3 -4 3 0 -1 -1 -2 -2 1 -1 0 -2 2 -1 1 0 1 0 0 1 -1 1 -1 1 0
1 0 -2 2 -1 2 1 0 1 -1 0 2 -1 2 1 0 1 -1 -1 2 -1 2 -3 3 -2 3 -1 -1 -1 0 0 1
0 2 -2 1 -2 1 -2 -1 -2 -1 -2 2 -2 2 1 0 1 -1 0 1 0 1 -2 0 -1 1 1 -1 0 -1 -1
0 -1 0 -1 2 -1 1 -1 0 -1 0 4 -4 4 -3 -1 -1 0 -1 2 0 1 1 0 -2 1 -1 2 -2 2 -2
-2 0 -2 -1 -3 3 -3 2 1 -1 0 -2 1 0 1 0 0 -1 0 -1 -2 1 -2 0 -4 3 -3 2 0 -1
-1 0 -3 0 -3 -1 -1 0 -1 -1 0 -1 1 -1 -2 -1 -1 -1 1 -1 0 -1 -1 0 -1 0 0 1 0
1 -1 0 0 -1 0 -3 -1 -2 1 -2 1 -2 1 -1 2 -1 2 0 2 0 4 -2 3 -2 0 -2 0 -2 1 0
1 0 1 -4 0 -4 3 -2 2 -1 3 0 3 1 4 1 4 1 0 -1 0 -1 1 1 1 2 1 0 1 0 -1 -1 -1
-2 2 0 3 0 2 0 2 -1 2 -1 2 -1 1 -2 2 -3 -2 1 -2 1 -3 -1 -2 -1 0 -1 -1 -1 1
-2 1 -1 1 1 1 0 0 -2 0 -2 1 0 1 0 0 1 -1 1 1 0 1 0 -1 3 -1 3 1 -1 2 0 1 -2
1 -2 -2 -2 -2 -2 2 -2 2 -1 1 1 0 1 2 0 1 0 0 1 0 1 1 0 1 0 1 0 2 0 -2 1 -1
1 4 -1 4 0 6 -4 6 -5 1 -2 0 -3 1 -3 2 -2 5 -1 5 -2 4 -3 3 -2 6 -3 6 -3 0 1
1 0 1 -1 1 0 6 -4 7 -3 7 3 6 3 4 0 5 0 -3 1 -2 1 0 1 1 1 2 1 2 0 4 -2 4 -1
0 -1 0 -1 1 1 2 0 0 -1 0 0 2 -1 3 0 5 -2 6 -3 1 -1 0 -1 -1 0 -1 0 -10 3 -9
3 -1 0 -1 0 6 -3 6 -2 1 0 2 -1 2 -1 3 -1 5 -1 5 -2 14 -3 14 -3 1 0 1 -1 0
-2 0 -2 0 -2 1 -1 -2 0 -3 0 0 1 0 2 -5 0 -4 1 -2 0 -1 1 -2 -1 -1 -1 1 -1 2
-1 2 0 3 0 1 -1 0 -1 3 0 2 0 0 -3 0 -2 2 -2 2 -2 2 2 3 1 2 -1 2 -1 2 0 3 0
1 1 1 1 0 2 0 2 7 0 7 -1 7 -1 8 -1 1 1 0 1 4 0 4 0 2 -2 2 -1 5 0 5 1 1 -2 1
-1 3 0 2 0 2 1 2 2 2 1 1 1 4 0 4 0 2 2 3 1 3 0 3 0 6 0 7 0 4 0 5 1 1 0 1 1
4 0 5 1 0 -2 0 -2 -5 0 -4 0 -1 -1 0 -1 4 0 5 1 1 -1 0 -1 -3 -1 -2 0 -3 0 -3
-1 -2 -2 -2 -2 -1 1 -1 0 2 -1 2 -2 -4 0 -4 0 -2 -1 -2 0 -1 -2 0 -1 1 -1 2
-1 3 2 3 1 4 0 3 0 1 0 1 0 -1 -1 0 -1 1 0 1 1 5 0 5 1 1 -1 2 -1 3 1 4 2 -2
0 -2 0 0 1 1 1 1 0 2 -1 1 0 0 -1 5 0 5 0 0 -1 1 -1 1 1 2 2 3 0 3 0 12 3 13
3 2 0 2 1 -1 -2 0 -2 2 1 3 1 2 0 2 0 -2 -1 -1 -1 2 0 3 1 3 2 2 3 2 0 1 0 2
1 1 2 -1 0 0 0 2 2 2 2 2 0 2 0 0 1 0 1 -3 -1 -3 0 -2 -1 -1 -2 -1 1 -1 0 -2
-1 -2 -1 -1 1 -1 1 1 0 2 0 0 0 1 0 1 1 1 1 5 2 5 2 6 3 7 3 2 0 1 0 2 2 3 2
1 0 1 0 -1 -1 -1 -1 -2 -2 -2 -1 -5 -2 -4 -2 -3 -2 -2 -2 1 0 1 0 3 1 4 2 0
-2 1 -1 2 0 1 1 -2 -2 -2 -3 1 -2 1 -2 2 1 2 0 2 3 3 2 2 0 2 0 4 3 4 3 6 3 7
3 15 7 15 7 2 0 1 -1 4 3 3 3 3 0 2 -1 3 -1 3 0 4 4 4 4 5 7 5 7 3 1 2 1 1 3
0 2 3 1 3 2 -2 0 -2 0 0 1 0 1 1 0 1 0 1 4 1 3 5 5 5 5 1 -1 1 0 -1 1 0 1 1 0
1 -1 2 1 1 1 1 0 0 -1 -1 -2 -1 -2 1 1 2 1 0 -1 0 -1 2 1 1 0 0 1 -1 0 2 3 2
3 -3 0 -3 0 0 1 0 1 4 4 4 4 1 -1 0 -2 1 0 1 0 -1 2 -1 1 1 1 1 2 5 5 5 5 1 1
1 2 2 3 3 4 0 0 1 -1 1 2 2 2 2 2 3 2 2 0 3 0 3 0 4 -1 2 1 2 1 0 2 0 1 1 0 1
0 0 4 0 3 3 3 2 2 1 0 1 0 2 4 1 3 0 4 0 3 6 5 5 5 0 1 -1 1 2 1 2 2 3 1 4 1
2 2 2 3 0 3 0 4 0 3 0 4 1 0 1 0 1 4 2 3 -2 -1 -2 -2 -2 5 -2 4 1 3 2 3 -1 0
0 1 1 2 2 3 0 -1 1 0 0 1 0 1 2 4 2 4 -2 -1 -1 -1 1 2 1 2 -1 0 -1 0 -4 -8 -3
-7 -2 -2 -2 -1 -1 1 -2 1 5 8 5 8 3 4 2 4 1 0 1 0 2 -2 1 -1 1 2 1 2 -1 0 -1
0 -1 0 -1 1 -1 0 0 1 1 0 1 0 0 2 0 2 2 3 1 3 1 -1 0 -1 -1 -4 -2 -4 0 -1 1 0
1 1 2 2 0 2 1 3 1 1 1 2 1 2 0 2 -2 0 -1 0 0 -2 0 -1 -1 0 0 1 1 3 1 4 -1 1
-1 1 1 2 1 2 0 0 0 1 -1 0 -1 0 -1 -2 -1 -2 0 2 0 2 2 1 2 0 0 1 0 1 -1 -1 -1
0 0 1 0 2 1 1 1 0 0 -1 -1 -1 1 0 2 1 0 1 0 2 -2 0 -2 -1 1 3 2 4 2 4 1 4 1 0
1 0 0 -1 -1 -2 -1 -2 0 -1 1 1 1 1 1 3 1 3 -2 0 -1 0 0 1 1 0 2 0 2 1 -1 2 0
3 1 0 1 0 0 2 0 2 1 3 0 3 0 -1 -1 -1 0 -1 -1 -1 0 -2 -1 -1 -1 0 -1 1 2 5 1
6 1 2 1 2 0 4 1 5 -1 -2 -1 -2 -1 0 -1 1 -1 -5 -1 -4 0 -1 0 -1 -2 -5 -2 -4
-1 2 -1 3 0 -3 0 -2 -2 0 -2 -1 0 2 0 2 -1 -2 -1 -1 1 3 0 3 1 0 0 1 1 -1 1 0
0 4 -1 5 3 9 3 10 1 2 1 1 2 0 2 0 0 2 1 1 -1 -1 -1 0 0 1 0 1 -1 -1 -1 0 1 2
2 2 -1 1 -1 1 1 -1 1 0 0 1 -1 2 1 5 2 5 2 9 2 10 1 8 2 8 1 8 1 9 0 1 1 1 2
-1 1 0 1 2 0 2 1 -4 1 -3 0 6 0 6 -1 0 -1 0 0 2 0 2 1 0 1 -1 0 1 1 1 -1 3 -1
3 1 1 1 0 0 1 0 1 -1 0 -1 0 -1 -2 -1 -2 -1 2 -2 2 1 3 0 3 1 0 1 0 1 -2 0 -1
-1 -1 -1 -1 0 -1 0 -1 2 1 3 2 1 -3 1 -2 0 4 1 5 2 3 2 4 0 11 -1 12 -1 5 -2
6 0 1 0 1 0 3 1 3 -5 4 -4 4 -1 -1 -1 0 0 -2 0 -1 -1 0 -1 0 0 2 0 1 -1 0 -1
0 0 -1 0 0 0 -3 0 -3 -1 0 -1 0 -1 3 -2 3 0 3 -1 4 -1 -1 -1 0 -2 3 -2 4 2 0
1 1 0 -2 1 -2 -1 3 0 4 0 2 -1 3 -2 6 -1 6 -1 2 -1 2 -1 1 0 2 0 3 -1 3 -1 -1
-1 0 0 0 0 1 1 2 2 3 1 -1 2 0 0 -2 0 -1 0 -2 0 -1 1 0 1 0 0 1 1 2 -1 1 -1 1
1 0 1 0 0 2 0 1 -3 1 -2 0 2 2 2 2 0 1 -1 0 -2 -1 -1 -1 0 1 1 2 0 0 1 1 -1 4
-2 5 -1 0 -1 0 1 2 0 1 -1 0 -2 0 0 1 0 1 -1 2 -2 1 0 -1 -1 0 -2 2 -2 3 0 3
0 4 0 0 0 1 0 1 1 1 0 1 1 1 -1 1 -1 2 0 -2 1 -1 0 -1 -1 -1 -2 1 -1 0 1 2 1
1 -2 0 -1 1 1 0 2 0 0 1 0 1 -2 -1 -3 0 0 1 0 1 3 2 2 2 -3 -1 -2 0 1 1 1 2
-1 1 0 2 1 -2 2 -1 1 0 0 1 -1 1 -1 1 -2 0 -2 0 -1 -2 -1 -1 0 1 -1 1 1 0 1 0
-1 2 -2 3 -5 5 -4 5 -3 3 -2 4 -2 3 -1 4 -1 0 -1 1 -1 2 -1 3 0 4 0 4 -2 2 -2
2 -4 8 -4 9 -5 4 -5 4 -1 1 -1 2 -2 0 -2 1 0 1 0 2 -6 6 -6 7 -6 1 -5 2 -5 0
-5 -1 -1 3 -1 3 -2 1 -1 2 -2 3 -2 3 1 0 1 0 5 -4 5 -5 1 0 1 0 -5 6 -6 6 -1
1 0 1 -4 1 -3 2 -4 3 -3 2 -1 0 0 -1 1 -1 2 -1 2 -2 3 -2 -1 0 -1 -1 -3 3 -4
3 0 2 1 1 -2 2 -2 1 -3 1 -2 0 -1 0 0 1 0 2 0 1 -3 2 -2 1 2 -2 2 -2 -2 -1 -2
0 -1 1 -2 1 0 -2 1 -2 1 -1 1 0 2 -1 3 -1 1 -3 2 -3 5 -5 5 -5 1 1 1 0 0 -1 0
-1 6 -6 7 -6 1 -2 1 -2 -2 -1 -2 -1 -8 4 -7 4 -4 0 -4 0 -2 2 -2 1 0 2 0 1 -1
0 -1 0 -3 2 -2 3 -1 -1 -1 0 -2 2 -2 1 -4 2 -3 1 -3 0 -3 0 1 1 0 1 -1 0 -1 0
-1 -2 -2 -2 -2 0 -2 0 0 2 0 2 -1 0 0 0 -2 0 -1 0 1 1 1 2 -2 0 -1 1 1 -1 0
-1 -2 0 -2 0 0 1 0 1 -1 0 0 0 -1 0 -1 0 1 1 2 1 -5 0 -4 -1 0 1 0 1 -1 0 -1
-1 0 1 0 1 -3 2 -3 1 0 1 0 1 1 -1 2 0 -2 1 -1 1 -1 -1 -1 -1 -2 1 -2 1 0 1 0
1 -2 0 -2 0 0 1 1 1 2 -1 2 0 -2 1 -1 1 -4 2 -4 2 0 -1 1 -2 -4 2 -4 1 -2 2
-2 2 -1 0 -1 0 0 1 0 1 1 -1 2 -1 0 1 1 1 -5 2 -5 3 0 -1 -1 -2 -2 0 -2 1 0 1
0 1 -1 -1 -1 0 -6 2 -5 3 1 2 0 1 0 0 -1 0 -1 -2z m20 -8 l0 -1 2 0 1 1 1 -2
0 -1 -2 1 -2 1 -1 1 0 1 1 0 1 0 -1 -1z m-10 -3 l0 -1 -1 0 -1 0 1 1 0 1 1 0
0 0 0 -1z m34 -9 l2 -1 -3 0 -2 0 0 1 -1 1 1 0 2 0 1 -1z m-11 -2 l0 -1 -1 1
0 1 -1 -1 -1 0 0 1 1 1 1 -1 1 0 0 -1z m93 -18 l0 -1 -3 2 -4 3 0 0 0 1 3 -2
3 -2 1 -1z m16 -14 l0 -1 -1 0 -1 0 0 1 0 1 0 0 1 0 1 -1z m108 -168 l0 -2 -1
0 -1 -1 0 2 0 2 1 0 1 0 0 -1z m19 -101 l-1 -2 0 4 0 4 1 -2 0 -2 0 -2z m5 -8
l0 -2 0 -2 0 -2 -2 0 -1 0 0 6 0 5 2 -1 2 -1 -1 -3z m-36 -74 l-1 -1 0 1 0 2
1 0 0 -1 0 -1z m3 -70 l0 0 -2 0 -2 0 0 1 1 1 2 -1 1 0 0 -1z m5 -3 l0 -2 0
-2 0 -2 -2 -2 -1 -1 -1 -3 0 -2 -2 -4 -2 -3 1 0 0 -1 -1 0 -1 0 0 -2 1 -2 -4
-1 -4 0 0 1 1 2 -1 0 -1 0 0 -1 0 -2 -1 -1 -2 -1 1 3 0 4 3 6 3 7 1 0 1 0 0
-1 0 -1 2 1 1 2 -1 1 0 2 1 -1 0 -1 2 2 1 3 1 2 1 3 2 0 2 0 -1 -3z m-30 -15
l0 -2 -1 -1 -1 0 0 1 1 1 0 1 1 2 0 0 1 0 -1 -2z m-3 -9 l-1 -3 -1 -1 -1 0 1
-1 0 -1 -1 0 -1 1 0 -1 0 -1 0 -1 -1 -1 0 -1 0 -1 0 -1 -1 0 -2 -5 -2 -5 -2
-3 -2 -3 -1 0 -2 0 0 1 -1 2 4 6 3 5 1 1 1 1 3 6 3 7 1 1 1 1 1 0 1 0 -1 -3z
m15 -10 l0 -2 -1 0 -1 -1 0 -1 0 -1 1 1 1 1 2 -2 2 -2 2 1 1 2 -2 -3 -1 -3 -3
-2 -3 -1 -3 -5 -2 -4 -2 -3 -2 -3 -1 0 -1 0 1 1 1 1 0 2 0 1 3 5 3 5 -1 0 0 0
2 2 2 2 0 2 0 1 0 0 -1 0 -2 -4 -3 -4 -1 0 0 1 1 3 2 4 -1 -1 -2 0 2 3 1 3 1
0 0 0 0 -2 -1 -2 2 3 2 3 1 0 1 0 0 -1z m-31 -5 l-2 -1 1 2 1 2 1 0 0 -1 -1
-2z m20 -2 l0 -2 -1 0 -1 0 1 2 0 1 1 0 0 0 0 -1z m-2 -9 l0 -2 -2 -1 -2 -2 0
2 -1 1 1 0 1 -1 0 2 1 2 1 0 1 0 0 -1z m-85 -77 l-1 -2 -1 0 -1 0 2 2 2 2 0
-1 0 0 -1 -1z m-19 -21 l-1 -2 -1 0 -1 0 2 2 1 2 1 -1 0 0 -1 -1z m-5 -5 l-1
-1 -1 0 -1 0 2 1 1 2 1 -1 0 0 -1 -1z m-29 -28 l-2 -1 -1 0 0 1 0 1 1 1 2 0 1
0 -1 -2z m-4 -1 l0 -1 -1 0 -1 -1 0 1 0 1 1 0 1 0 0 0z m-457 -36 l-1 0 0 2
-1 2 1 -2 1 -1 0 -1z m17 -1 l6 -3 0 -1 0 0 -1 -2 -1 -1 -2 1 -2 1 -4 3 -4 3
0 1 0 1 1 0 1 0 6 -3z m363 -2 l-1 -2 -1 0 -1 0 1 2 2 1 1 0 0 0 -1 -1z m78
-26 l0 -1 -2 0 -1 -1 -1 0 0 0 1 2 1 1 1 0 1 0 0 -1z m-15 -7 l0 -1 -5 -2 -5
-2 0 0 -1 1 5 2 5 3 0 0 1 0 0 -1z m-297 -13 l5 -1 0 -1 0 -1 -1 0 0 0 -6 2
-6 1 0 1 0 1 2 0 2 -1 4 -1z m249 -7 l-1 -2 -1 0 0 1 0 2 1 2 2 -1 1 0 -2 -2z
m-238 -10 l0 -1 -1 0 -1 0 0 1 0 1 0 0 1 0 1 -1z m131 -5 l0 -1 -2 0 -3 0 0 1
1 1 1 0 2 -1 1 0z m-2 -3 l0 -1 -1 0 -1 0 0 1 0 1 1 0 2 0 -1 -1z"/>
<path d="M885 372 l-1 -1 1 1 1 1 0 1 -1 0 0 -2z"/>
<path d="M657 868 l0 -1 1 0 1 0 0 1 -1 1 -1 0 -1 0 1 -1z"/>
<path d="M646 867 l1 -1 1 0 0 1 -2 0 -1 1 1 -1z"/>
<path d="M667 864 l0 -1 2 -1 2 -1 0 0 0 1 -2 1 -2 1 0 0z"/>
<path d="M684 861 l0 -1 1 0 0 0 0 1 0 1 -1 0 -1 0 1 -1z"/>
<path d="M686 853 l0 -1 2 0 2 -1 0 1 0 0 -2 1 -2 1 0 -1z"/>
<path d="M714 851 l0 -1 1 0 1 0 0 1 0 1 -1 0 -1 0 0 -1z"/>
<path d="M762 850 l-1 -1 2 0 2 0 -1 1 0 1 -1 0 -1 0 0 -1z"/>
<path d="M718 849 l0 0 0 -4 -1 -3 1 -1 1 0 2 1 1 1 1 0 1 -1 1 2 1 2 -3 2 -3
2 -1 0 -1 0 0 -1z"/>
<path d="M194 841 l0 -1 1 0 1 0 0 1 -1 1 -1 0 0 0 0 -1z"/>
<path d="M710 840 l0 -1 2 0 1 -1 -1 1 0 1 -1 0 -1 0 0 0z"/>
<path d="M716 837 l1 0 1 0 0 1 -2 0 -1 0 1 -1z"/>
<path d="M758 835 l0 -1 2 0 1 0 0 0 0 1 -1 0 -2 1 0 -1z"/>
<path d="M196 826 l-3 -4 0 -1 1 0 3 4 3 4 0 0 -1 0 -3 -3z"/>
<path d="M769 817 l-1 0 2 -3 1 -2 1 1 1 1 -1 2 -1 2 -1 0 -1 0 0 -1z"/>
<path d="M806 811 l0 -1 1 0 1 0 0 1 -1 1 -1 0 -1 0 1 -1z"/>
<path d="M589 765 l-1 -1 0 -1 1 0 2 1 1 2 -1 0 0 0 -2 -1z"/>
<path d="M858 762 l0 -1 2 0 1 0 0 1 0 1 -1 0 -2 0 0 -1z"/>
<path d="M558 741 l-1 -1 2 1 2 1 0 1 0 0 0 0 -1 0 -2 -2z"/>
<path d="M889 741 l0 -1 2 -6 3 -5 0 -5 1 -4 1 -1 2 -1 0 0 1 1 1 2 1 3 -2 1
-1 1 1 2 1 2 -2 5 -2 4 -2 2 -2 2 -1 0 -1 0 -1 -2z"/>
<path d="M551 736 l-4 -3 -6 -2 -5 -1 -6 2 -5 1 1 1 0 1 -2 -1 -2 0 1 1 0 2
-3 0 -2 1 -7 0 -6 0 -3 -1 -3 -1 -1 -1 0 -1 -8 -3 -7 -4 -6 -3 -6 -4 -3 -3 -4
-4 -2 -5 -3 -4 -1 -4 -1 -3 0 -10 -1 -10 2 -3 1 -3 1 -1 1 0 1 -3 1 -3 -1 -2
0 -2 -3 -1 -2 -1 0 -1 0 -1 3 -1 3 0 1 1 2 1 0 -1 1 -1 -3 -2 -2 -1 -1 -4 0
-4 2 0 1 0 0 1 0 1 3 0 2 0 3 1 3 2 0 1 1 1 4 -2 5 -3 6 -4 7 -3 -1 -1 0 -1 2
0 1 0 -1 1 0 1 2 0 2 -1 8 -1 8 0 1 1 2 1 0 0 1 0 2 1 2 0 5 3 5 2 1 -1 0 -1
2 0 2 0 4 4 5 5 1 2 1 3 3 2 2 3 1 3 2 4 2 6 1 6 0 6 -1 6 -1 5 0 6 -1 1 -1 1
0 1 1 1 -2 0 -1 1 -4 4 -3 5 0 2 0 2 -1 0 -2 1 0 1 0 2 -1 0 0 0 -2 1 -1 1 6
6 7 6 -1 0 0 0 -5 -4z"/>
<path d="M111 724 l0 -1 1 1 1 0 -1 1 0 1 -1 0 0 0 0 -2z"/>
<path d="M909 674 l-1 -1 1 0 1 -1 0 2 0 1 -1 0 0 0 0 -1z"/>
<path d="M827 652 l0 -1 1 1 1 0 0 1 0 0 -1 0 -1 0 0 -1z"/>
<path d="M329 649 l0 -2 1 0 1 -1 0 -5 -1 -4 1 1 0 2 2 0 1 0 2 2 2 2 -1 1 0
1 2 1 2 1 0 1 0 1 -2 -1 -1 -1 -1 1 0 1 -3 -1 -3 -1 0 1 0 1 -1 0 -1 0 0 -1z
m7 -3 l-1 -1 0 1 0 2 1 0 0 -1 0 -1z"/>
<path d="M333 637 l0 -1 1 0 0 0 0 1 0 1 -1 0 -1 0 1 -1z"/>
<path d="M921 624 l0 -1 0 0 1 -1 1 2 1 1 -1 0 -1 0 -1 -1z"/>
<path d="M924 621 l0 -1 1 0 0 0 0 1 0 1 -1 0 -1 0 1 -1z"/>
<path d="M356 603 l-1 -2 1 0 0 -1 1 0 1 0 0 2 0 2 -1 0 -1 0 0 -1z"/>
<path d="M358 600 l-1 -2 1 0 1 0 0 1 0 2 1 -2 1 -1 1 1 1 2 0 0 0 0 -2 0 -2
1 -1 -2z"/>
<path d="M362 596 l-1 -1 2 -1 1 -1 1 0 0 1 -1 1 -2 2 0 -1z"/>
<path d="M57 581 l0 -1 0 -1 1 0 0 1 0 1 1 0 1 -1 0 1 0 1 -1 0 -1 0 -1 -1z"/>
<path d="M895 570 l1 -4 -1 -1 0 -1 1 0 2 -1 0 4 0 3 -1 0 -1 0 0 3 0 2 -1 0
-1 0 1 -5z"/>
<path d="M912 571 l0 -2 1 0 1 0 0 1 0 1 -1 1 -1 2 0 -3z"/>
<path d="M912 565 l0 -2 1 1 0 1 0 1 -1 2 0 -3z"/>
<path d="M897 561 l-1 0 1 -8 0 -7 -1 -3 -1 -3 1 0 1 0 0 -1 -1 -1 1 -1 0 -2
1 0 1 0 0 2 -1 3 1 5 1 6 -1 1 0 0 -1 2 0 2 0 3 0 3 -1 0 0 0 0 -1z"/>
<path d="M913 560 l0 -1 -1 0 -1 1 1 -2 1 -2 -1 0 0 -1 1 1 0 0 1 2 0 3 -1 0
-1 1 1 -2z"/>
<path d="M913 550 l0 -2 1 1 0 2 -1 1 -1 1 1 -3z"/>
<path d="M900 541 l-1 -2 1 0 1 0 0 2 0 2 0 0 -1 0 0 -2z"/>
<path d="M931 539 l0 -2 1 0 1 -1 0 2 0 2 -1 0 -1 0 0 -1z"/>
<path d="M896 534 l0 -1 1 -5 2 -5 0 5 1 6 -1 0 -1 0 0 -1 0 -1 -1 1 -1 2 0
-1z"/>
<path d="M907 532 l0 -2 1 0 1 0 0 2 0 1 -1 0 -1 0 0 -1z"/>
<path d="M898 520 l0 -2 -2 1 -1 0 1 -1 0 -2 -1 -4 -1 -4 1 -1 2 -1 -1 0 -1 0
-1 -2 0 -2 0 -4 -1 -4 2 0 1 1 1 8 2 8 0 0 0 1 0 1 0 1 1 -1 2 0 -2 1 -1 2 0
3 -1 3 0 -2z"/>
<path d="M907 517 l0 -1 1 1 0 1 0 1 -1 0 0 -2z"/>
<path d="M907 512 l-1 0 0 -2 0 -1 1 1 1 2 0 1 -1 0 0 -1z"/>
<path d="M928 504 l0 -9 0 -2 1 -1 0 5 1 6 0 5 0 5 -1 0 -1 0 0 -9z"/>
<path d="M931 490 l0 -2 1 1 0 1 0 1 -1 2 0 -3z"/>
<path d="M927 488 l0 -3 -1 -2 0 -2 -1 -9 -1 -9 1 -1 1 -1 0 4 0 3 1 2 0 2 1
5 0 6 0 4 1 4 -1 0 -1 0 0 -3z"/>
<path d="M878 483 l0 -1 1 -1 2 -1 0 2 1 1 0 1 0 0 -2 0 -2 0 0 -1z"/>
<path d="M922 473 l0 -1 1 1 0 1 0 1 -1 0 0 -2z"/>
<path d="M922 452 l-1 -7 0 -1 0 -2 1 0 1 1 0 2 0 2 0 5 1 6 0 0 -1 0 -1 -6z"/>
<path d="M917 448 l-2 -7 -1 -3 -1 -2 3 2 2 3 -1 1 -1 2 1 0 1 1 1 5 0 6 0 0
-1 0 -1 -8z"/>
<path d="M695 442 l0 -1 1 1 0 1 0 1 -1 0 0 -2z"/>
<path d="M920 439 l0 -1 1 1 0 1 0 1 -1 0 0 -2z"/>
<path d="M919 434 l0 -2 1 1 1 1 -1 1 -1 1 0 -2z"/>
<path d="M693 432 l1 -1 0 0 1 0 0 1 0 0 -1 1 -1 0 0 -1z"/>
<path d="M696 428 l0 -1 1 0 0 0 0 1 0 1 -1 0 -1 0 1 -1z"/>
<path d="M908 428 l0 -1 1 0 0 0 0 1 0 1 -1 0 -1 0 1 -1z"/>
<path d="M918 427 l0 -1 1 1 0 1 0 1 -1 0 0 -2z"/>
<path d="M107 425 l0 -2 -1 -2 -1 -1 0 -5 1 -4 1 -5 1 -4 2 1 2 1 -1 -1 0 -1
1 -1 2 -1 -2 0 -2 1 0 -3 1 -2 1 0 1 0 -1 -2 0 -2 1 -2 1 -1 1 -3 1 -2 1 -3 2
-2 0 3 1 4 -1 1 -1 2 0 2 0 3 -1 0 -1 0 -1 7 -2 8 -1 4 -1 5 -2 5 -2 4 -1 0 0
0 1 -2z"/>
<path d="M692 423 l0 -2 0 -1 1 0 1 3 1 2 -1 0 -1 0 -1 -2z"/>
<path d="M905 423 l0 -1 1 1 1 0 -1 1 0 1 -1 0 0 0 0 -2z"/>
<path d="M905 419 l0 -1 1 0 0 0 0 1 0 1 -1 0 -1 0 1 -1z"/>
<path d="M924 415 l-1 -2 1 0 1 0 0 2 0 1 0 0 -1 0 0 -1z"/>
<path d="M128 405 l-1 -1 1 0 1 0 0 1 0 1 0 0 -1 0 0 -1z"/>
<path d="M148 398 l0 -1 -1 1 -1 0 0 -1 0 -1 2 0 1 0 0 -1 0 -1 2 -3 2 -2 -1
2 -1 2 1 0 0 1 -1 0 -1 0 1 1 1 2 -1 1 0 2 -2 0 -1 0 0 -2z"/>
<path d="M707 389 l0 -1 1 0 1 0 0 1 -1 1 -1 0 0 0 0 -1z"/>
<path d="M904 384 l0 -1 1 1 0 1 0 1 -1 0 0 -2z"/>
<path d="M158 377 l0 -1 1 0 1 -1 0 1 0 1 -1 1 -1 0 0 -1z"/>
<path d="M161 371 l0 -2 2 0 1 0 0 1 -1 1 -1 1 -1 0 0 -1z"/>
<path d="M915 348 l-1 -1 0 -1 0 0 2 0 1 0 0 2 0 2 -1 0 -1 0 0 -2z"/>
<path d="M892 342 l-1 0 0 -2 0 -1 1 -2 2 -1 1 2 1 3 -1 1 -1 1 -2 -1z"/>
<path d="M254 337 l0 -1 1 0 2 0 0 -1 1 -1 0 1 0 1 -2 1 -2 1 0 -1z"/>
<path d="M242 336 l0 -2 1 0 1 0 0 2 0 1 -1 0 -1 0 0 -1z"/>
<path d="M245 332 l1 -1 1 -1 1 0 -1 2 0 2 -1 0 -1 0 0 -2z"/>
<path d="M186 330 l0 -1 1 0 1 -1 0 1 1 2 -1 -3 0 -3 2 -2 2 -1 0 2 0 3 -2 2
-1 2 -2 0 -1 0 0 -1z"/>
<path d="M110 326 l-1 -1 0 -1 1 0 1 0 0 1 0 1 -1 1 0 -1z"/>
<path d="M147 314 l-1 -3 1 -2 1 -2 5 -5 5 -5 2 1 2 1 0 2 0 2 -2 4 -1 5 -2 2
-3 2 -3 1 -3 1 -1 -4z"/>
<path d="M126 311 l-1 -1 1 -2 0 -2 1 0 1 0 1 1 1 2 -2 1 -2 2 0 -1z"/>
<path d="M174 309 l0 -1 1 0 1 -1 -1 1 0 2 -1 0 0 0 0 -1z"/>
<path d="M202 307 l1 -1 1 -1 1 0 -1 1 0 2 -1 0 -1 0 0 -1z"/>
<path d="M176 304 l1 -1 2 -3 2 -2 -2 4 -2 4 -1 0 -1 0 1 -2z"/>
<path d="M184 293 l0 -1 2 -3 2 -4 1 0 0 0 -1 3 -1 3 -2 1 -1 1 0 0z"/>
<path d="M260 288 l2 -1 -1 -1 -1 0 -1 1 -1 2 1 -3 0 -3 -1 0 -2 1 0 -2 0 -1
1 0 1 0 0 1 1 1 2 0 3 0 0 -3 0 -2 3 0 3 1 -1 2 0 2 1 0 1 0 -1 1 -1 1 -1 -1
-2 -1 0 1 -1 0 0 -1 0 -1 -1 1 -1 0 0 2 0 2 1 1 2 2 -4 0 -3 0 1 -2z"/>
<path d="M266 288 l-1 0 0 -2 0 -1 1 0 1 0 0 2 1 1 0 1 0 0 -2 -1z"/>
<path d="M190 284 l-1 -1 1 0 1 0 1 1 0 1 0 0 0 0 -2 -1z"/>
<path d="M191 282 l0 -1 0 -1 1 0 0 1 1 2 0 0 -1 0 -1 -1z"/>
<path d="M669 280 l-2 -2 -1 -2 0 -2 0 -3 0 -3 -1 0 -1 0 0 -1 1 0 1 1 2 1 -1
1 0 1 1 0 2 0 1 2 2 2 1 2 2 3 0 2 0 1 -2 -1 -2 -1 -1 1 0 1 -2 -3z"/>
<path d="M193 280 l0 -1 1 -2 1 -2 3 -4 4 -3 0 0 1 0 -4 6 -4 7 -1 0 -1 0 0
-1z"/>
<path d="M295 280 l0 -1 1 0 1 0 0 1 0 1 -1 0 -1 0 0 -1z"/>
<path d="M262 276 l0 -2 1 0 1 1 0 1 0 0 -1 1 -1 0 0 -1z"/>
<path d="M148 275 l0 -1 1 0 0 0 0 1 0 1 -1 0 -1 0 1 -1z"/>
<path d="M310 275 l2 -2 0 1 0 0 0 1 -1 1 -1 0 -1 0 1 -1z"/>
<path d="M870 261 l-1 -2 -2 0 -2 0 0 -2 -1 -1 0 -1 0 -1 1 1 2 0 1 -1 0 -1 4
3 3 3 -1 2 -1 2 -1 0 -1 0 -1 -2z"/>
<path d="M206 260 l0 -1 1 0 1 0 0 -1 -1 -2 1 0 1 0 3 -3 3 -3 1 0 0 1 -3 4
-2 4 -2 1 -1 1 -1 0 -1 0 0 -1z"/>
<path d="M165 258 l-1 -1 2 0 1 0 0 1 -1 1 0 0 -1 0 0 -1z"/>
<path d="M257 251 l0 -1 1 1 1 0 0 1 0 0 -1 0 -1 0 0 -1z"/>
<path d="M202 240 l0 -1 1 0 1 0 0 1 -1 1 -1 0 0 0 0 -1z"/>
<path d="M232 231 l3 -4 -1 0 -1 -1 1 0 2 -1 1 1 1 1 -3 3 -4 4 -1 0 -1 0 3
-3z"/>
<path d="M211 231 l1 -2 1 0 0 1 -1 2 -2 2 1 -3z"/>
<path d="M208 225 l0 -2 1 1 1 1 -1 1 -1 1 0 -2z"/>
<path d="M820 212 l-1 -1 0 -1 1 0 1 0 0 1 0 1 -1 1 0 -1z"/>
<path d="M360 210 l0 -1 1 1 1 0 0 1 0 0 -1 0 -1 0 0 -1z"/>
<path d="M584 199 l1 -1 1 -1 1 0 0 2 0 2 -2 0 -1 0 0 -2z"/>
<path d="M661 174 l-1 -1 1 0 1 0 0 1 0 1 0 0 -1 0 0 -1z"/>
<path d="M425 167 l10 -3 18 0 18 0 1 0 1 0 0 1 0 1 -6 0 -7 0 -9 2 -8 1 -11
0 -10 1 -3 0 -3 1 9 -4z"/>
<path d="M397 141 l-1 -1 1 0 1 0 0 1 0 1 0 0 -1 0 0 -1z"/>
<path d="M269 140 l0 -1 1 0 1 0 0 1 -1 1 -1 0 -1 0 1 -1z"/>
<path d="M655 110 l1 0 1 0 0 1 -2 0 -1 0 1 -1z"/>
<path d="M649 109 l-2 -1 0 -1 0 -1 2 0 1 0 0 1 -1 1 1 0 1 0 0 -1 0 -1 2 0 3
0 -1 1 0 1 -2 0 -1 0 1 1 0 1 -1 0 -1 0 -2 -1z"/>
<path d="M616 95 l-2 -1 2 0 3 0 1 1 0 1 -1 0 0 0 -3 -1z"/>
<path d="M525 92 l0 0 0 -2 -1 -2 2 0 2 0 0 2 0 1 -2 1 -1 0 0 0z"/>
<path d="M589 89 l-2 0 -3 -2 -2 -1 -2 1 -2 1 -2 -1 -1 -1 -1 -1 -1 -2 -1 -1
0 -1 3 0 2 1 5 2 4 2 1 0 2 0 1 1 2 2 1 -1 2 0 0 1 1 1 -2 0 -2 0 -3 -1z"/>
<path d="M674 88 l-4 -1 0 -2 0 -2 2 -1 1 0 1 1 1 2 1 -2 1 -1 1 2 2 2 0 1 1
2 -2 0 -1 0 -4 -1z"/>
<path d="M568 82 l1 0 1 0 0 1 -2 0 -1 0 1 -1z"/>
<path d="M643 82 l-2 -1 2 0 2 0 0 1 0 1 0 0 0 0 -2 -1z"/>
<path d="M635 81 l1 0 1 0 2 1 -3 0 -2 0 1 -1z"/>
<path d="M562 80 l-1 -1 -8 0 -8 -1 -2 -1 -2 -1 0 0 0 1 -2 -2 -1 -1 7 0 7 1
4 0 5 1 2 0 2 1 0 1 0 1 -1 0 -2 1 0 0z"/>
<path d="M626 79 l0 -1 1 1 1 0 0 1 0 0 -1 0 -1 0 0 -1z"/>
<path d="M531 75 l1 -1 2 0 2 -1 0 1 -1 1 -2 0 -2 1 0 -1z"/>
<path d="M617 73 l-1 -1 1 0 2 0 1 1 0 1 -1 0 0 0 -2 -1z"/>
<path d="M505 70 l0 -1 3 0 3 0 -2 1 -2 1 -1 0 -1 0 0 -1z"/>
<path d="M515 70 l-1 -1 1 0 1 0 1 1 2 1 -2 0 -2 0 0 -1z"/>
</g>
</svg>
