<svg version="1.1" xmlns="http://www.w3.org/2000/svg" style="display: block;" viewBox="0 0 2048 2048" width="1024" height="1024">
<path transform="translate(0,0)" fill="rgb(254,254,254)" d="M 0 0 L 2048 0 L 2048 2048 L 0 2048 L 0 0 z M 1025.24 98.5687 C 1007.08 119.916 995.32 149.161 997.494 177.499 C 999.056 197.875 1006.58 211.638 1018.05 228.038 C 1018.41 267.262 1019.05 306.535 1018.92 345.758 C 1018.76 396.771 1017.83 447.932 1018.94 498.931 C 1005.93 477.885 995.102 455.238 983.741 433.254 C 974.817 415.985 963.669 398.005 958.115 379.388 C 961.171 373.132 964.063 366.676 967.68 360.727 C 985.577 351.212 997.116 334.757 1003.01 315.546 C 1008.76 296.838 1008.06 271.139 998.362 253.721 C 997.084 251.424 995.787 250.231 993.455 248.951 C 989.419 248.498 987.08 249.57 983.996 252.002 C 967.636 264.904 949.877 289.233 947.865 310.611 C 946.24 327.877 951.416 342.654 957.752 358.447 L 952.462 370.453 C 946.216 358.176 941.613 345.099 936.263 332.413 C 930.906 319.883 925.125 307.539 918.931 295.401 C 927.159 268.428 927.046 245.143 913.501 219.79 C 907.152 207.907 888.13 182.3 875.527 177.857 C 872.733 176.872 871.244 177.223 868.507 178.11 C 860.509 186.877 859.567 206.023 860.15 217.365 C 861.476 243.184 872.346 269.065 891.892 286.424 C 897.435 291.348 903.509 295.213 910.401 298.001 C 922.992 319.924 935.234 343.758 942.754 367.958 C 936.859 366.364 930.853 364.931 925.041 363.066 C 911.393 338.581 894.032 321.614 866.575 313.622 C 854.287 310.045 820.296 307.178 808.976 312.876 C 808.127 313.303 807.952 313.505 807.142 314.123 C 806.477 318.901 810.378 323.646 813.191 327.346 C 831.127 350.939 851.577 368.298 881.651 372.337 C 894.882 374.084 908.322 373.365 921.29 370.214 C 929.816 373.313 938.332 376.149 947.234 377.97 C 961.965 413.289 981.709 447.025 998.849 481.29 C 1004.48 492.539 1012.28 504.596 1015.61 516.661 C 1017.75 524.427 1016.22 534.305 1015.72 542.264 C 995.259 568.026 980.11 599.219 962.772 627.219 C 947.885 608.819 926.196 584.936 913.725 565.607 C 916.28 545.655 912.155 529.405 913.058 510.466 C 913.453 502.174 917.896 495.425 919.607 487.514 C 924.339 465.644 917.82 439.054 904.335 421.377 C 897.396 412.281 881.006 396.161 869.062 395.378 C 866.351 395.2 865.332 395.806 863.352 397.523 C 854.826 420.363 860.408 450.353 870.234 471.851 C 877.34 487.399 889.04 501.323 903.507 510.468 C 906.92 526.473 907.354 542.311 906.922 558.62 C 891.981 541.252 875.993 525.019 860.453 508.215 C 842.216 488.628 824.404 468.65 807.029 448.294 C 810.998 426.557 801.483 405.07 789.3 387.292 C 778.03 370.847 750.76 348.139 731.036 344.702 C 727.833 344.144 726.068 344.752 723.514 346.629 C 719.352 358.211 728.604 386.442 733.843 397.637 C 743.799 418.914 761.697 438.476 783.247 448.277 C 790.412 451.535 798.171 453.149 803.947 458.747 C 821.542 475.795 837.343 495.194 853.765 513.397 C 867.821 528.978 882.777 543.848 896.609 559.604 C 885.528 557.988 871.683 557.309 861.489 552.514 C 853.303 548.664 847.643 540.232 839.512 535.786 C 813.805 521.725 784.006 520.856 756.569 530.364 C 750.484 532.472 742.932 535.205 737.846 539.216 C 735.849 540.791 735.755 541.492 735.133 543.856 C 737.788 553.11 750.708 560.464 758.75 564.947 C 780.79 577.238 810.43 579.253 834.398 572.093 C 843.775 569.291 852.689 565.253 861.577 561.202 C 875.724 563.982 889.862 566.982 904.049 569.538 C 915.887 582.711 926.954 596.556 937.196 611.004 C 924.945 610.908 913.203 609.475 901.168 607.254 C 890.486 597.265 875.924 593.609 861.577 594.117 C 850.074 594.525 820.446 600.484 812.832 608.13 C 811.609 609.358 811.959 610.213 811.877 611.825 C 814.112 617.519 819.503 620.043 824.842 622.337 C 844.566 630.81 868.239 633.566 888.451 625.071 C 893.791 622.826 898.071 619.773 902.594 616.256 C 916.801 618.167 931.204 620.341 945.485 621.464 C 949.052 626.564 952.574 631.695 956.051 636.857 C 835.294 829.929 719.985 1026.36 610.261 1225.9 C 574.356 1288.63 538.984 1351.66 504.15 1414.99 C 487.7 1444.32 470.356 1473.25 454.93 1503.13 L 820.266 1502.93 C 878.302 1502.61 936.34 1502.68 994.376 1503.14 C 977.282 1539.98 936.514 1567.39 900.775 1584.33 C 887.33 1579.19 873.257 1574.11 858.991 1571.88 C 850.576 1570.56 842.022 1570.42 833.62 1569.07 C 794.536 1562.79 768.097 1559.35 728.566 1566.25 C 719.921 1567.76 710.573 1569.16 702.467 1572.67 C 700.14 1573.67 698.736 1574.28 697.674 1576.66 C 700.727 1579.29 704.671 1579.78 708.585 1579.37 C 718.704 1578.31 728.879 1575.25 738.949 1573.56 C 757.566 1570.43 775.983 1570.37 794.768 1571.23 C 768.378 1581 736.283 1595.69 723.531 1622.68 C 721.487 1627.01 720.542 1631.6 719.632 1636.26 C 693.631 1640.84 674.315 1641.61 648.109 1637.6 C 640.269 1636.4 624.254 1630.2 617.52 1633.08 L 616.342 1635.45 C 618.412 1639.26 621.891 1640.29 625.919 1641.48 C 649.719 1648.52 702.301 1654.25 724.256 1642.55 C 731.115 1638.89 730.293 1626.08 734.356 1619.7 C 739.432 1611.74 749.975 1604.11 757.74 1598.92 C 794.63 1574.24 832.554 1573.1 874.554 1584.7 C 880.153 1586.25 885.744 1588.03 891.087 1590.32 C 855.666 1612.81 826.567 1625.66 804.952 1663.59 C 751.41 1667.83 711.904 1672.97 675.22 1716.33 C 671.318 1720.94 664.484 1728.69 664.598 1734.94 C 664.605 1735.33 664.694 1735.71 664.742 1736.1 C 666.503 1737.44 666.41 1737.48 668.605 1737.27 C 679.175 1725.58 688.837 1713.22 700.955 1703.03 C 724.572 1683.17 759.305 1674.81 789.417 1673.28 C 794.001 1673.07 798.587 1672.92 803.175 1672.84 C 800.724 1678.37 798.325 1683.9 796.523 1689.68 C 793.19 1700.36 791.178 1714.82 785.205 1724.21 C 776.71 1737.56 737.688 1760.71 723.388 1770.58 C 707.805 1781.33 694.736 1795 676.841 1802.22 C 664.085 1807.37 617.475 1805.76 611.233 1814.39 L 611.421 1816.16 C 619.23 1820.77 667.035 1813.37 677.795 1810.63 C 682.185 1809.51 686.486 1808.06 690.775 1806.61 C 687.765 1811.51 667.545 1844.93 666.869 1848.4 L 667.799 1850.26 C 670.245 1850.71 671.324 1850.73 673.442 1849.26 C 682.289 1843.11 698.261 1806.71 710.108 1793.52 C 723.573 1778.53 741.704 1768.94 758.846 1758.81 C 749.244 1785.55 743.663 1813.78 733.024 1840.11 C 727.744 1853.18 710.555 1881.09 709.398 1892.69 C 710.581 1894.82 710.45 1895.39 712.734 1896.46 C 720.539 1892.63 742.403 1840.33 745.935 1830.08 C 752.218 1811.84 762.686 1761.59 772.268 1750.08 C 780.44 1740.26 792.248 1732.29 801.452 1723.26 C 799.071 1731.56 796.928 1739.82 795.468 1748.34 C 793.54 1759.58 786.073 1818.5 789.911 1826.8 C 790.088 1827.18 790.345 1827.52 790.562 1827.88 L 792.151 1827.99 C 804.453 1814.63 793.277 1731.4 823.14 1704.74 C 849.962 1680.79 886.801 1668.66 918.236 1652.11 C 911.639 1662.69 904.7 1673.15 898.998 1684.25 C 890.901 1700.01 864.91 1759.39 869.196 1774.72 C 869.303 1775.11 869.478 1775.47 869.619 1775.84 L 870.987 1776.11 C 877.169 1769.24 884.213 1742.54 889.168 1732.17 C 895.883 1749.72 902.84 1765.44 912.756 1781.45 C 893.396 1796.56 872.922 1810.96 854.223 1826.79 C 824.914 1851.6 790.835 1886.75 774.734 1921.6 C 772.033 1927.44 768.255 1934.2 767.363 1940.56 C 766.979 1943.3 766.868 1945.84 767.995 1948.42 L 769.848 1949.08 C 775.516 1946.04 786.73 1915.93 791.108 1908.6 C 795.449 1901.34 800.499 1895 806.173 1888.75 C 804.03 1901.14 796.074 1939.25 804.678 1949.81 C 804.885 1950.06 805.154 1950.26 805.392 1950.48 C 807.317 1949.95 807.18 1950.43 808.01 1948.9 C 810.931 1943.5 809.419 1934.61 809.357 1928.59 C 808.945 1888.44 823.663 1865.7 854.888 1842.24 C 853.678 1847.6 852.31 1853.05 851.931 1858.54 C 851.522 1864.47 852.936 1908.29 854.663 1910.72 C 854.831 1910.96 855.062 1911.14 855.261 1911.35 C 857.555 1911 858.405 1910.56 859.788 1908.43 C 868.149 1895.58 850.016 1854.05 868.643 1830.78 C 878.938 1817.93 903.861 1801.59 917.448 1789.97 C 920.853 1799.19 921.903 1807.64 920.709 1817.41 C 918.536 1835.22 887.26 1908.07 904.169 1919.43 C 906.365 1918.46 906.536 1918.24 907.855 1916.22 C 908.969 1906.43 906.764 1896.72 909.107 1887.05 C 915.475 1860.77 927.315 1838.57 930.721 1811.28 C 934.5 1826.74 938.067 1842.39 936.868 1858.44 C 936.298 1866.07 934.239 1874.04 934.761 1881.67 C 934.978 1884.84 935.457 1887.03 937.644 1889.36 C 939.048 1889.19 939.756 1889.48 940.693 1888.23 C 942.742 1885.48 943.058 1880.3 943.664 1876.91 C 946.954 1858.52 947.322 1840.71 943.078 1822.42 C 939.682 1807.78 933.885 1794.53 926.616 1781.45 C 945.586 1765.61 957.776 1744.7 974.923 1727.42 C 975.417 1744.24 975.176 1761.42 977.003 1778.15 C 982.385 1827.43 992.635 1845.53 969.741 1894.81 C 963.471 1908.3 956.19 1921.67 945.918 1932.53 C 940.952 1937.79 927.759 1947.96 928.546 1955.75 C 928.576 1956.04 928.684 1956.32 928.752 1956.61 C 931.797 1957.24 934.046 1955.92 936.562 1954.23 C 957.287 1940.28 974.241 1909.46 983.046 1886.8 C 986.965 1876.71 989.554 1866.06 992.496 1855.65 C 999.285 1874.66 1010.02 1898.34 1014.95 1916.77 C 1017.17 1925.07 1020.29 1957.35 1023.5 1960.92 L 1024.85 1960.55 C 1027.47 1952.91 1026.92 1943.12 1028.27 1934.99 C 1030.35 1922.45 1034.55 1910.57 1038.99 1898.7 C 1044.44 1883.98 1050.91 1868.89 1054.22 1853.54 C 1061.37 1886.16 1071.14 1912.2 1093.24 1937.88 C 1098.31 1943.77 1104.03 1950.79 1110.71 1954.92 C 1112.13 1955.8 1113.35 1956.22 1115.03 1956.34 L 1116.73 1955.06 C 1117.03 1952.48 1116.9 1951.1 1115.4 1948.89 C 1110.19 1941.2 1101.73 1934.81 1095.85 1927.4 C 1073.99 1899.84 1058.01 1861.37 1061.87 1825.71 C 1063.17 1813.73 1065.47 1801.84 1066.97 1789.88 C 1069.74 1768.97 1071.05 1747.88 1070.9 1726.79 C 1088.57 1745.01 1103.45 1764.54 1122.41 1781.75 C 1110.91 1809.32 1100.86 1833.53 1103.36 1864.11 C 1103.93 1871.16 1104.79 1878.88 1107.45 1885.48 C 1108.17 1887.27 1108.46 1887.56 1109.94 1888.97 C 1111.71 1888.51 1111.31 1888.96 1112.24 1887.34 C 1116.56 1879.82 1112.29 1855.01 1112.84 1845.01 C 1113.43 1834.22 1115.42 1824.02 1119.28 1813.91 C 1120.8 1823.38 1122.25 1832.9 1124.97 1842.12 C 1130.39 1860.44 1138.75 1878.75 1139.92 1897.99 C 1140.28 1903.95 1137.86 1917.03 1142.57 1920.72 C 1144.78 1920.07 1144.81 1920.12 1145.79 1918.14 C 1147.5 1914.65 1147.65 1909.87 1147.96 1906.03 C 1151.21 1865.38 1117.88 1829.8 1130.92 1788.94 C 1159.19 1809.53 1183.31 1821.72 1189.3 1859.18 C 1190.26 1865.23 1190.7 1871.35 1190.62 1877.47 C 1190.51 1885.55 1186.42 1902.81 1191.83 1909.37 C 1194.93 1907.29 1195.28 1904.06 1195.97 1900.44 C 1199.9 1879.87 1199.12 1861.27 1194.7 1840.91 C 1214.65 1858.64 1225.97 1868.66 1232.55 1895.44 C 1234.43 1903.07 1236.23 1911.61 1236.67 1919.48 C 1237.18 1928.79 1234.42 1941.58 1238.57 1949.98 L 1240.25 1950.97 C 1242.56 1950.04 1243.42 1949.93 1244.46 1947.47 C 1248.74 1937.29 1242.56 1899.8 1240.15 1887.5 C 1252.99 1903.72 1262.84 1918.57 1270.4 1937.9 C 1272.05 1942.13 1274.1 1946.6 1278.19 1948.96 L 1280.55 1948.38 C 1282.13 1945.63 1282.28 1943.96 1281.54 1940.86 C 1279.66 1932.94 1275.01 1924.79 1271.29 1917.61 C 1240.84 1858.86 1185.02 1822.53 1136.51 1780.37 C 1144.88 1764.8 1152.2 1749.68 1157.13 1732.62 C 1161.15 1739.79 1175.92 1772.42 1180.97 1774.69 C 1183.62 1765.61 1147.37 1683.16 1141.29 1672.12 C 1136.85 1664.04 1131.87 1656.37 1126.55 1648.84 C 1139.89 1657.83 1153.87 1665.65 1168 1673.32 C 1184.94 1682.51 1211.81 1693.22 1224.11 1708.12 C 1235.32 1721.7 1240.92 1741.64 1244.2 1758.6 C 1247.29 1774.53 1248.23 1790.73 1248.3 1806.93 C 1248.33 1813.4 1247.75 1820.1 1248.23 1826.54 C 1248.4 1828.78 1248.68 1830.31 1250.27 1832.01 L 1252.82 1832.97 C 1255.75 1830.77 1256.61 1828.61 1257.1 1825 C 1261.1 1795.7 1250.66 1741.02 1238.48 1714.24 C 1246.72 1719.11 1253.78 1725.21 1260.7 1731.78 C 1280.11 1750.19 1284.06 1761.98 1290.6 1787.36 C 1299.05 1820.16 1304.58 1849.5 1323.28 1878.66 C 1326.38 1883.48 1329.8 1889.5 1334.71 1892.63 L 1336.45 1891.96 C 1338.08 1887.95 1337.04 1885.05 1335.36 1881.19 C 1330.37 1869.68 1321.79 1860.21 1317.09 1848.38 C 1310.02 1830.55 1306.63 1812.18 1302.23 1793.61 C 1299.57 1782.37 1296.24 1771.23 1293.07 1760.13 C 1307.73 1770.34 1337.17 1788.25 1345.75 1803.25 C 1352.67 1815.37 1366.84 1847.08 1381.5 1849.5 L 1383.71 1848.65 C 1384.72 1846.21 1384.9 1845.79 1383.76 1843.18 C 1380.89 1836.57 1373.73 1829.51 1369.29 1823.64 C 1364.43 1817.18 1360.2 1810.27 1356.66 1803 C 1377.08 1814.28 1393.73 1819.6 1417.05 1818.62 C 1421.88 1818.42 1427.21 1818.56 1431.87 1817.21 C 1434.13 1816.55 1435.98 1815.97 1437.51 1814.08 C 1436.59 1811.95 1436.24 1812.01 1434.13 1811.23 C 1421.98 1806.7 1403.4 1811.69 1389.23 1807.75 C 1377.92 1804.61 1366.15 1798.85 1355.98 1793.01 C 1339 1783.26 1293.55 1751.43 1282.36 1736.71 C 1271.25 1722.12 1259.1 1694.7 1250.9 1677.51 C 1250.04 1675.72 1249.34 1673.86 1248.68 1671.99 L 1250.08 1671.82 C 1285.22 1667.98 1323.25 1683.82 1350.14 1705.61 C 1368.02 1720.1 1372.59 1732.06 1386.2 1747.84 C 1387.85 1749.74 1388.98 1750.49 1391.43 1750.81 C 1393.09 1749 1393.35 1748.75 1393.08 1746.12 C 1392.71 1742.67 1390.13 1738.66 1388.39 1735.68 C 1376.45 1715.2 1358.22 1700.24 1338.5 1687.55 C 1309.01 1668.58 1276.16 1659.91 1241.2 1661.15 C 1221.23 1623.91 1189.87 1605.73 1154.5 1586.17 C 1195.89 1576.52 1240.97 1568.82 1279.08 1592.75 C 1304.66 1608.81 1310.04 1626.19 1327.82 1646.21 C 1329.44 1648.05 1331.05 1649.09 1333.51 1649.42 C 1334.85 1648.56 1335.45 1648.61 1335.88 1646.96 C 1336.36 1645.16 1336.35 1643.93 1335.48 1642.24 C 1334.76 1640.84 1333.21 1639.46 1332.14 1638.29 L 1331.09 1637.12 C 1330.88 1636.89 1330.66 1636.66 1330.45 1636.43 C 1357.95 1647.74 1395.85 1649.62 1423.68 1638.07 C 1426.46 1636.92 1428.41 1635.67 1430.54 1633.55 L 1431.13 1631.49 C 1430.52 1630.4 1430.46 1629.5 1429.11 1629.21 C 1423.75 1628.05 1406.7 1634.43 1400.17 1635.53 C 1385.44 1638.04 1367.61 1638.96 1352.91 1635.81 C 1324.76 1629.78 1311.72 1604.88 1290.32 1588.73 C 1279.94 1580.9 1267.2 1575.83 1255.2 1571.06 C 1285.07 1566.89 1312.32 1569.79 1340.14 1581.95 C 1344.4 1583.81 1353.7 1588.4 1357.66 1585.04 C 1356.68 1581.09 1351.53 1577.83 1348.21 1575.88 C 1341.3 1571.83 1333.13 1569.39 1325.48 1567.15 C 1291.52 1557.2 1269.03 1561.73 1234.96 1565.41 C 1216.18 1567.43 1197.69 1568.64 1179.03 1571.73 C 1165.53 1573.97 1151.53 1577.89 1137.95 1578.91 C 1105 1561.38 1068.23 1538.04 1052.16 1502.87 C 1165.11 1502.3 1278.06 1502.4 1391 1503.18 C 1434.11 1503.75 1477.23 1503.98 1520.35 1503.85 C 1545.11 1503.85 1570.17 1504.58 1594.88 1503.07 C 1580.96 1474.26 1563.6 1446.96 1547.85 1419.11 L 1450.23 1247.93 C 1374.98 1114 1298.64 980.681 1221.22 847.988 C 1195.8 805.115 1169.97 762.48 1143.75 720.086 C 1127.77 694.616 1105.1 662.503 1092.17 636.399 C 1096.06 631.037 1100.03 625.914 1104.38 620.923 C 1118.35 619.033 1132.41 618.476 1146.37 616.745 L 1147.3 617.729 C 1158.15 628.983 1174.45 634.418 1189.92 634.563 C 1202.62 634.682 1224.29 630.518 1233.55 621.378 C 1235.34 619.607 1236.02 618.007 1236.63 615.545 C 1235.82 611.366 1233.5 609.758 1230.09 607.4 C 1214.05 596.304 1190.36 590.987 1171.14 594.618 C 1160.27 596.672 1152.65 603.756 1142.59 607.343 C 1133.14 610.716 1121 610.412 1110.99 611.107 C 1144.84 568.74 1137.95 566.933 1192.56 559.342 C 1211.12 573.311 1233.96 577.443 1256.74 574.156 C 1276.74 571.27 1298.36 561.351 1311.04 545.123 C 1295.6 530.117 1274.28 524.267 1253.12 524.522 C 1232.97 524.765 1210.87 531.17 1196.55 546.023 C 1194.87 547.778 1193.23 549.573 1191.64 551.406 C 1179.33 553.302 1167.04 555.175 1154.82 557.559 C 1174.87 535.91 1193.67 512.994 1212.88 490.597 C 1221.65 480.364 1230.23 469.277 1239.92 459.909 C 1247.69 452.398 1260.63 452.016 1270.22 447.669 C 1303.62 432.52 1324.93 388.585 1323.85 353.117 C 1323.79 351.115 1323.44 349.988 1322.55 348.24 C 1319.68 346.429 1318.02 346.107 1314.67 346.889 C 1290.35 352.566 1265.7 374.384 1253.49 395.627 C 1248.45 404.392 1244.45 414.103 1242.46 424.038 C 1240.88 431.943 1240.62 441.541 1236.86 448.685 C 1230.3 461.163 1213.91 476.83 1204.33 487.971 C 1182.96 512.837 1162.17 539.048 1139.21 562.426 C 1139.36 545.001 1140.37 526.287 1143.85 509.186 C 1166.67 493.605 1180.46 477.828 1185.57 449.836 C 1187.73 437.981 1187.91 407.323 1181.25 397.342 C 1180.23 395.816 1179.65 395.743 1178.09 394.939 C 1166.16 396.432 1153.43 407.479 1146.29 416.687 C 1132.83 434.048 1125.83 458.046 1128.86 479.877 C 1130.19 489.453 1134.48 498.723 1135.03 508.322 C 1135.62 518.666 1133.5 529.453 1132.46 539.742 C 1131.43 549.846 1131.46 559.856 1132.08 569.98 C 1117.47 589.284 1101.75 607.752 1087.01 626.987 C 1074.32 610.427 1064.18 592.278 1052.98 574.711 C 1046.49 564.536 1037.41 553.348 1032.99 542.318 C 1030.54 536.186 1030.18 526.719 1031.11 520.241 C 1033.17 505.898 1057.63 465.697 1065.59 450.674 C 1078.2 426.882 1091.44 402.627 1101.9 377.832 C 1102.18 377.721 1102.45 377.607 1102.72 377.499 C 1123.2 369.387 1133.18 372.355 1153.63 373.664 C 1180.7 375.395 1203.31 366.402 1222.56 347.59 C 1228.76 341.532 1239.05 330.535 1241.68 322.217 C 1242.18 320.636 1242.29 319.295 1241.36 317.913 C 1237.84 312.704 1221.34 310.891 1215.19 310.179 C 1191.32 307.418 1167.1 315.683 1148.66 330.781 C 1137.89 339.603 1131.4 349.9 1126.03 362.605 L 1106.77 366.991 C 1114.89 343.494 1124.14 320.278 1136.36 298.592 C 1158.99 288.665 1172 275.988 1181.05 252.673 C 1188.7 232.981 1190.24 199.611 1180.8 180.401 C 1180.25 179.285 1179.57 178.468 1178.76 177.535 C 1175.57 176.813 1173.88 177.253 1171.1 179.022 C 1147.7 193.871 1129.21 221.673 1123.95 248.741 C 1120.71 265.384 1123.03 280.704 1126.88 297.003 C 1122.01 309.534 1115.72 321.446 1110.53 333.841 C 1106.11 344.389 1102.84 357.145 1096.97 366.804 C 1095.34 366.592 1095.63 366.954 1094.67 365.591 C 1089 357.617 1097.43 335.262 1097.67 324.774 C 1098.29 298.493 1085.08 273.993 1065.84 256.743 C 1062.27 253.546 1057.75 248.993 1052.96 247.968 C 1051.13 247.576 1050.79 247.924 1049.12 248.501 C 1039.82 260.487 1038.1 285.399 1039.83 300.002 C 1042.1 319.176 1052.5 336.068 1066.39 349.156 C 1071.94 354.393 1078.41 359.313 1082.99 365.444 C 1086.55 370.219 1088.95 375.58 1091.36 380.99 C 1079.78 405.066 1067.7 428.897 1055.13 452.469 C 1046.19 469.185 1036.36 485.684 1028.05 502.698 L 1027.87 357.73 C 1027.68 314.338 1026.81 271.108 1028.03 227.712 C 1044.61 210.302 1053.81 190.087 1053.25 165.76 C 1052.77 144.989 1043.62 116.754 1029 101.495 C 1027.87 100.312 1026.59 99.4701 1025.24 98.5687 z"/>
<path transform="translate(0,0)" fill="rgb(0,0,0)" d="M 1018.05 228.038 C 1006.58 211.638 999.056 197.875 997.494 177.499 C 995.32 149.161 1007.08 119.916 1025.24 98.5687 C 1026.59 99.4701 1027.87 100.312 1029 101.495 C 1043.62 116.754 1052.77 144.989 1053.25 165.76 C 1053.81 190.087 1044.61 210.302 1028.03 227.712 C 1026.81 271.108 1027.68 314.338 1027.87 357.73 L 1028.05 502.698 C 1036.36 485.684 1046.19 469.185 1055.13 452.469 C 1067.7 428.897 1079.78 405.066 1091.36 380.99 C 1088.95 375.58 1086.55 370.219 1082.99 365.444 C 1078.41 359.313 1071.94 354.393 1066.39 349.156 C 1052.5 336.068 1042.1 319.176 1039.83 300.002 C 1038.1 285.399 1039.82 260.487 1049.12 248.501 C 1050.79 247.924 1051.13 247.576 1052.96 247.968 C 1057.75 248.993 1062.27 253.546 1065.84 256.743 C 1085.08 273.993 1098.29 298.493 1097.67 324.774 C 1097.43 335.262 1089 357.617 1094.67 365.591 C 1095.63 366.954 1095.34 366.592 1096.97 366.804 C 1102.84 357.145 1106.11 344.389 1110.53 333.841 C 1115.72 321.446 1122.01 309.534 1126.88 297.003 C 1123.03 280.704 1120.71 265.384 1123.95 248.741 C 1129.21 221.673 1147.7 193.871 1171.1 179.022 C 1173.88 177.253 1175.57 176.813 1178.76 177.535 C 1179.57 178.468 1180.25 179.285 1180.8 180.401 C 1190.24 199.611 1188.7 232.981 1181.05 252.673 C 1172 275.988 1158.99 288.665 1136.36 298.592 C 1124.14 320.278 1114.89 343.494 1106.77 366.991 L 1126.03 362.605 C 1131.4 349.9 1137.89 339.603 1148.66 330.781 C 1167.1 315.683 1191.32 307.418 1215.19 310.179 C 1221.34 310.891 1237.84 312.704 1241.36 317.913 C 1242.29 319.295 1242.18 320.636 1241.68 322.217 C 1239.05 330.535 1228.76 341.532 1222.56 347.59 C 1203.31 366.402 1180.7 375.395 1153.63 373.664 C 1133.18 372.355 1123.2 369.387 1102.72 377.499 C 1102.45 377.607 1102.18 377.721 1101.9 377.832 C 1091.44 402.627 1078.2 426.882 1065.59 450.674 C 1057.63 465.697 1033.17 505.898 1031.11 520.241 C 1030.18 526.719 1030.54 536.186 1032.99 542.318 C 1037.41 553.348 1046.49 564.536 1052.98 574.711 C 1064.18 592.278 1074.32 610.427 1087.01 626.987 C 1101.75 607.752 1117.47 589.284 1132.08 569.98 C 1131.46 559.856 1131.43 549.846 1132.46 539.742 C 1133.5 529.453 1135.62 518.666 1135.03 508.322 C 1134.48 498.723 1130.19 489.453 1128.86 479.877 C 1125.83 458.046 1132.83 434.048 1146.29 416.687 C 1153.43 407.479 1166.16 396.432 1178.09 394.939 C 1179.65 395.743 1180.23 395.816 1181.25 397.342 C 1187.91 407.323 1187.73 437.981 1185.57 449.836 C 1180.46 477.828 1166.67 493.605 1143.85 509.186 C 1140.37 526.287 1139.36 545.001 1139.21 562.426 C 1162.17 539.048 1182.96 512.837 1204.33 487.971 C 1213.91 476.83 1230.3 461.163 1236.86 448.685 C 1240.62 441.541 1240.88 431.943 1242.46 424.038 C 1244.45 414.103 1248.45 404.392 1253.49 395.627 C 1265.7 374.384 1290.35 352.566 1314.67 346.889 C 1318.02 346.107 1319.68 346.429 1322.55 348.24 C 1323.44 349.988 1323.79 351.115 1323.85 353.117 C 1324.93 388.585 1303.62 432.52 1270.22 447.669 C 1260.63 452.016 1247.69 452.398 1239.92 459.909 C 1230.23 469.277 1221.65 480.364 1212.88 490.597 C 1193.67 512.994 1174.87 535.91 1154.82 557.559 C 1167.04 555.175 1179.33 553.302 1191.64 551.406 C 1193.23 549.573 1194.87 547.778 1196.55 546.023 C 1210.87 531.17 1232.97 524.765 1253.12 524.522 C 1274.28 524.267 1295.6 530.117 1311.04 545.123 C 1298.36 561.351 1276.74 571.27 1256.74 574.156 C 1233.96 577.443 1211.12 573.311 1192.56 559.342 C 1137.95 566.933 1144.84 568.74 1110.99 611.107 C 1121 610.412 1133.14 610.716 1142.59 607.343 C 1152.65 603.756 1160.27 596.672 1171.14 594.618 C 1190.36 590.987 1214.05 596.304 1230.09 607.4 C 1233.5 609.758 1235.82 611.366 1236.63 615.545 C 1236.02 618.007 1235.34 619.607 1233.55 621.378 C 1224.29 630.518 1202.62 634.682 1189.92 634.563 C 1174.45 634.418 1158.15 628.983 1147.3 617.729 L 1146.37 616.745 C 1132.41 618.476 1118.35 619.033 1104.38 620.923 C 1100.03 625.914 1096.06 631.037 1092.17 636.399 C 1105.1 662.503 1127.77 694.616 1143.75 720.086 C 1169.97 762.48 1195.8 805.115 1221.22 847.988 C 1298.64 980.681 1374.98 1114 1450.23 1247.93 L 1547.85 1419.11 C 1563.6 1446.96 1580.96 1474.26 1594.88 1503.07 C 1570.17 1504.58 1545.11 1503.85 1520.35 1503.85 C 1477.23 1503.98 1434.11 1503.75 1391 1503.18 C 1278.06 1502.4 1165.11 1502.3 1052.16 1502.87 C 1068.23 1538.04 1105 1561.38 1137.95 1578.91 C 1151.53 1577.89 1165.53 1573.97 1179.03 1571.73 C 1197.69 1568.64 1216.18 1567.43 1234.96 1565.41 C 1269.03 1561.73 1291.52 1557.2 1325.48 1567.15 C 1333.13 1569.39 1341.3 1571.83 1348.21 1575.88 C 1351.53 1577.83 1356.68 1581.09 1357.66 1585.04 C 1353.7 1588.4 1344.4 1583.81 1340.14 1581.95 C 1312.32 1569.79 1285.07 1566.89 1255.2 1571.06 C 1267.2 1575.83 1279.94 1580.9 1290.32 1588.73 C 1311.72 1604.88 1324.76 1629.78 1352.91 1635.81 C 1367.61 1638.96 1385.44 1638.04 1400.17 1635.53 C 1406.7 1634.43 1423.75 1628.05 1429.11 1629.21 C 1430.46 1629.5 1430.52 1630.4 1431.13 1631.49 L 1430.54 1633.55 C 1428.41 1635.67 1426.46 1636.92 1423.68 1638.07 C 1395.85 1649.62 1357.95 1647.74 1330.45 1636.43 C 1330.66 1636.66 1330.88 1636.89 1331.09 1637.12 L 1332.14 1638.29 C 1333.21 1639.46 1334.76 1640.84 1335.48 1642.24 C 1336.35 1643.93 1336.36 1645.16 1335.88 1646.96 C 1335.45 1648.61 1334.85 1648.56 1333.51 1649.42 C 1331.05 1649.09 1329.44 1648.05 1327.82 1646.21 C 1310.04 1626.19 1304.66 1608.81 1279.08 1592.75 C 1240.97 1568.82 1195.89 1576.52 1154.5 1586.17 C 1189.87 1605.73 1221.23 1623.91 1241.2 1661.15 C 1276.16 1659.91 1309.01 1668.58 1338.5 1687.55 C 1358.22 1700.24 1376.45 1715.2 1388.39 1735.68 C 1390.13 1738.66 1392.71 1742.67 1393.08 1746.12 C 1393.35 1748.75 1393.09 1749 1391.43 1750.81 C 1388.98 1750.49 1387.85 1749.74 1386.2 1747.84 C 1372.59 1732.06 1368.02 1720.1 1350.14 1705.61 C 1323.25 1683.82 1285.22 1667.98 1250.08 1671.82 L 1248.68 1671.99 C 1249.34 1673.86 1250.04 1675.72 1250.9 1677.51 C 1259.1 1694.7 1271.25 1722.12 1282.36 1736.71 C 1293.55 1751.43 1339 1783.26 1355.98 1793.01 C 1366.15 1798.85 1377.92 1804.61 1389.23 1807.75 C 1403.4 1811.69 1421.98 1806.7 1434.13 1811.23 C 1436.24 1812.01 1436.59 1811.95 1437.51 1814.08 C 1435.98 1815.97 1434.13 1816.55 1431.87 1817.21 C 1427.21 1818.56 1421.88 1818.42 1417.05 1818.62 C 1393.73 1819.6 1377.08 1814.28 1356.66 1803 C 1360.2 1810.27 1364.43 1817.18 1369.29 1823.64 C 1373.73 1829.51 1380.89 1836.57 1383.76 1843.18 C 1384.9 1845.79 1384.72 1846.21 1383.71 1848.65 L 1381.5 1849.5 C 1366.84 1847.08 1352.67 1815.37 1345.75 1803.25 C 1337.17 1788.25 1307.73 1770.34 1293.07 1760.13 C 1296.24 1771.23 1299.57 1782.37 1302.23 1793.61 C 1306.63 1812.18 1310.02 1830.55 1317.09 1848.38 C 1321.79 1860.21 1330.37 1869.68 1335.36 1881.19 C 1337.04 1885.05 1338.08 1887.95 1336.45 1891.96 L 1334.71 1892.63 C 1329.8 1889.5 1326.38 1883.48 1323.28 1878.66 C 1304.58 1849.5 1299.05 1820.16 1290.6 1787.36 C 1284.06 1761.98 1280.11 1750.19 1260.7 1731.78 C 1253.78 1725.21 1246.72 1719.11 1238.48 1714.24 C 1250.66 1741.02 1261.1 1795.7 1257.1 1825 C 1256.61 1828.61 1255.75 1830.77 1252.82 1832.97 L 1250.27 1832.01 C 1248.68 1830.31 1248.4 1828.78 1248.23 1826.54 C 1247.75 1820.1 1248.33 1813.4 1248.3 1806.93 C 1248.23 1790.73 1247.29 1774.53 1244.2 1758.6 C 1240.92 1741.64 1235.32 1721.7 1224.11 1708.12 C 1211.81 1693.22 1184.94 1682.51 1168 1673.32 C 1153.87 1665.65 1139.89 1657.83 1126.55 1648.84 C 1131.87 1656.37 1136.85 1664.04 1141.29 1672.12 C 1147.37 1683.16 1183.62 1765.61 1180.97 1774.69 C 1175.92 1772.42 1161.15 1739.79 1157.13 1732.62 C 1152.2 1749.68 1144.88 1764.8 1136.51 1780.37 C 1185.02 1822.53 1240.84 1858.86 1271.29 1917.61 C 1275.01 1924.79 1279.66 1932.94 1281.54 1940.86 C 1282.28 1943.96 1282.13 1945.63 1280.55 1948.38 L 1278.19 1948.96 C 1274.1 1946.6 1272.05 1942.13 1270.4 1937.9 C 1262.84 1918.57 1252.99 1903.72 1240.15 1887.5 C 1242.56 1899.8 1248.74 1937.29 1244.46 1947.47 C 1243.42 1949.93 1242.56 1950.04 1240.25 1950.97 L 1238.57 1949.98 C 1234.42 1941.58 1237.18 1928.79 1236.67 1919.48 C 1236.23 1911.61 1234.43 1903.07 1232.55 1895.44 C 1225.97 1868.66 1214.65 1858.64 1194.7 1840.91 C 1199.12 1861.27 1199.9 1879.87 1195.97 1900.44 C 1195.28 1904.06 1194.93 1907.29 1191.83 1909.37 C 1186.42 1902.81 1190.51 1885.55 1190.62 1877.47 C 1190.7 1871.35 1190.26 1865.23 1189.3 1859.18 C 1183.31 1821.72 1159.19 1809.53 1130.92 1788.94 C 1117.88 1829.8 1151.21 1865.38 1147.96 1906.03 C 1147.65 1909.87 1147.5 1914.65 1145.79 1918.14 C 1144.81 1920.12 1144.78 1920.07 1142.57 1920.72 C 1137.86 1917.03 1140.28 1903.95 1139.92 1897.99 C 1138.75 1878.75 1130.39 1860.44 1124.97 1842.12 C 1122.25 1832.9 1120.8 1823.38 1119.28 1813.91 C 1115.42 1824.02 1113.43 1834.22 1112.84 1845.01 C 1112.29 1855.01 1116.56 1879.82 1112.24 1887.34 C 1111.31 1888.96 1111.71 1888.51 1109.94 1888.97 C 1108.46 1887.56 1108.17 1887.27 1107.45 1885.48 C 1104.79 1878.88 1103.93 1871.16 1103.36 1864.11 C 1100.86 1833.53 1110.91 1809.32 1122.41 1781.75 C 1103.45 1764.54 1088.57 1745.01 1070.9 1726.79 C 1071.05 1747.88 1069.74 1768.97 1066.97 1789.88 C 1065.47 1801.84 1063.17 1813.73 1061.87 1825.71 C 1058.01 1861.37 1073.99 1899.84 1095.85 1927.4 C 1101.73 1934.81 1110.19 1941.2 1115.4 1948.89 C 1116.9 1951.1 1117.03 1952.48 1116.73 1955.06 L 1115.03 1956.34 C 1113.35 1956.22 1112.13 1955.8 1110.71 1954.92 C 1104.03 1950.79 1098.31 1943.77 1093.24 1937.88 C 1071.14 1912.2 1061.37 1886.16 1054.22 1853.54 C 1050.91 1868.89 1044.44 1883.98 1038.99 1898.7 C 1034.55 1910.57 1030.35 1922.45 1028.27 1934.99 C 1026.92 1943.12 1027.47 1952.91 1024.85 1960.55 L 1023.5 1960.92 C 1020.29 1957.35 1017.17 1925.07 1014.95 1916.77 C 1010.02 1898.34 999.285 1874.66 992.496 1855.65 C 989.554 1866.06 986.965 1876.71 983.046 1886.8 C 974.241 1909.46 957.287 1940.28 936.562 1954.23 C 934.046 1955.92 931.797 1957.24 928.752 1956.61 C 928.684 1956.32 928.576 1956.04 928.546 1955.75 C 927.759 1947.96 940.952 1937.79 945.918 1932.53 C 956.19 1921.67 963.471 1908.3 969.741 1894.81 C 992.635 1845.53 982.385 1827.43 977.003 1778.15 C 975.176 1761.42 975.417 1744.24 974.923 1727.42 C 957.776 1744.7 945.586 1765.61 926.616 1781.45 C 933.885 1794.53 939.682 1807.78 943.078 1822.42 C 947.322 1840.71 946.954 1858.52 943.664 1876.91 C 943.058 1880.3 942.742 1885.48 940.693 1888.23 C 939.756 1889.48 939.048 1889.19 937.644 1889.36 C 935.457 1887.03 934.978 1884.84 934.761 1881.67 C 934.239 1874.04 936.298 1866.07 936.868 1858.44 C 938.067 1842.39 934.5 1826.74 930.721 1811.28 C 927.315 1838.57 915.475 1860.77 909.107 1887.05 C 906.764 1896.72 908.969 1906.43 907.855 1916.22 C 906.536 1918.24 906.365 1918.46 904.169 1919.43 C 887.26 1908.07 918.536 1835.22 920.709 1817.41 C 921.903 1807.64 920.853 1799.19 917.448 1789.97 C 903.861 1801.59 878.938 1817.93 868.643 1830.78 C 850.016 1854.05 868.149 1895.58 859.788 1908.43 C 858.405 1910.56 857.555 1911 855.261 1911.35 C 855.062 1911.14 854.831 1910.96 854.663 1910.72 C 852.936 1908.29 851.522 1864.47 851.931 1858.54 C 852.31 1853.05 853.678 1847.6 854.888 1842.24 C 823.663 1865.7 808.945 1888.44 809.357 1928.59 C 809.419 1934.61 810.931 1943.5 808.01 1948.9 C 807.18 1950.43 807.317 1949.95 805.392 1950.48 C 805.154 1950.26 804.885 1950.06 804.678 1949.81 C 796.074 1939.25 804.03 1901.14 806.173 1888.75 C 800.499 1895 795.449 1901.34 791.108 1908.6 C 786.73 1915.93 775.516 1946.04 769.848 1949.08 L 767.995 1948.42 C 766.868 1945.84 766.979 1943.3 767.363 1940.56 C 768.255 1934.2 772.033 1927.44 774.734 1921.6 C 790.835 1886.75 824.914 1851.6 854.223 1826.79 C 872.922 1810.96 893.396 1796.56 912.756 1781.45 C 902.84 1765.44 895.883 1749.72 889.168 1732.17 C 884.213 1742.54 877.169 1769.24 870.987 1776.11 L 869.619 1775.84 C 869.478 1775.47 869.303 1775.11 869.196 1774.72 C 864.91 1759.39 890.901 1700.01 898.998 1684.25 C 904.7 1673.15 911.639 1662.69 918.236 1652.11 C 886.801 1668.66 849.962 1680.79 823.14 1704.74 C 793.277 1731.4 804.453 1814.63 792.151 1827.99 L 790.562 1827.88 C 790.345 1827.52 790.088 1827.18 789.911 1826.8 C 786.073 1818.5 793.54 1759.58 795.468 1748.34 C 796.928 1739.82 799.071 1731.56 801.452 1723.26 C 792.248 1732.29 780.44 1740.26 772.268 1750.08 C 762.686 1761.59 752.218 1811.84 745.935 1830.08 C 742.403 1840.33 720.539 1892.63 712.734 1896.46 C 710.45 1895.39 710.581 1894.82 709.398 1892.69 C 710.555 1881.09 727.744 1853.18 733.024 1840.11 C 743.663 1813.78 749.244 1785.55 758.846 1758.81 C 741.704 1768.94 723.573 1778.53 710.108 1793.52 C 698.261 1806.71 682.289 1843.11 673.442 1849.26 C 671.324 1850.73 670.245 1850.71 667.799 1850.26 L 666.869 1848.4 C 667.545 1844.93 687.765 1811.51 690.775 1806.61 C 686.486 1808.06 682.185 1809.51 677.795 1810.63 C 667.035 1813.37 619.23 1820.77 611.421 1816.16 L 611.233 1814.39 C 617.475 1805.76 664.085 1807.37 676.841 1802.22 C 694.736 1795 707.805 1781.33 723.388 1770.58 C 737.688 1760.71 776.71 1737.56 785.205 1724.21 C 791.178 1714.82 793.19 1700.36 796.523 1689.68 C 798.325 1683.9 800.724 1678.37 803.175 1672.84 C 798.587 1672.92 794.001 1673.07 789.417 1673.28 C 759.305 1674.81 724.572 1683.17 700.955 1703.03 C 688.837 1713.22 679.175 1725.58 668.605 1737.27 C 666.41 1737.48 666.503 1737.44 664.742 1736.1 C 664.694 1735.71 664.605 1735.33 664.598 1734.94 C 664.484 1728.69 671.318 1720.94 675.22 1716.33 C 711.904 1672.97 751.41 1667.83 804.952 1663.59 C 826.567 1625.66 855.666 1612.81 891.087 1590.32 C 885.744 1588.03 880.153 1586.25 874.554 1584.7 C 832.554 1573.1 794.63 1574.24 757.74 1598.92 C 749.975 1604.11 739.432 1611.74 734.356 1619.7 C 730.293 1626.08 731.115 1638.89 724.256 1642.55 C 702.301 1654.25 649.719 1648.52 625.919 1641.48 C 621.891 1640.29 618.412 1639.26 616.342 1635.45 L 617.52 1633.08 C 624.254 1630.2 640.269 1636.4 648.109 1637.6 C 674.315 1641.61 693.631 1640.84 719.632 1636.26 C 720.542 1631.6 721.487 1627.01 723.531 1622.68 C 736.283 1595.69 768.378 1581 794.768 1571.23 C 775.983 1570.37 757.566 1570.43 738.949 1573.56 C 728.879 1575.25 718.704 1578.31 708.585 1579.37 C 704.671 1579.78 700.727 1579.29 697.674 1576.66 C 698.736 1574.28 700.14 1573.67 702.467 1572.67 C 710.573 1569.16 719.921 1567.76 728.566 1566.25 C 768.097 1559.35 794.536 1562.79 833.62 1569.07 C 842.022 1570.42 850.576 1570.56 858.991 1571.88 C 873.257 1574.11 887.33 1579.19 900.775 1584.33 C 936.514 1567.39 977.282 1539.98 994.376 1503.14 C 936.34 1502.68 878.302 1502.61 820.266 1502.93 L 454.93 1503.13 C 470.356 1473.25 487.7 1444.32 504.15 1414.99 C 538.984 1351.66 574.356 1288.63 610.261 1225.9 C 719.985 1026.36 835.294 829.929 956.051 636.857 C 952.574 631.695 949.052 626.564 945.485 621.464 C 931.204 620.341 916.801 618.167 902.594 616.256 C 898.071 619.773 893.791 622.826 888.451 625.071 C 868.239 633.566 844.566 630.81 824.842 622.337 C 819.503 620.043 814.112 617.519 811.877 611.825 C 811.959 610.213 811.609 609.358 812.832 608.13 C 820.446 600.484 850.074 594.525 861.577 594.117 C 875.924 593.609 890.486 597.265 901.168 607.254 C 913.203 609.475 924.945 610.908 937.196 611.004 C 926.954 596.556 915.887 582.711 904.049 569.538 C 889.862 566.982 875.724 563.982 861.577 561.202 C 852.689 565.253 843.775 569.291 834.398 572.093 C 810.43 579.253 780.79 577.238 758.75 564.947 C 750.708 560.464 737.788 553.11 735.133 543.856 C 735.755 541.492 735.849 540.791 737.846 539.216 C 742.932 535.205 750.484 532.472 756.569 530.364 C 784.006 520.856 813.805 521.725 839.512 535.786 C 847.643 540.232 853.303 548.664 861.489 552.514 C 871.683 557.309 885.528 557.988 896.609 559.604 C 882.777 543.848 867.821 528.978 853.765 513.397 C 837.343 495.194 821.542 475.795 803.947 458.747 C 798.171 453.149 790.412 451.535 783.247 448.277 C 761.697 438.476 743.799 418.914 733.843 397.637 C 728.604 386.442 719.352 358.211 723.514 346.629 C 726.068 344.752 727.833 344.144 731.036 344.702 C 750.76 348.139 778.03 370.847 789.3 387.292 C 801.483 405.07 810.998 426.557 807.029 448.294 C 824.404 468.65 842.216 488.628 860.453 508.215 C 875.993 525.019 891.981 541.252 906.922 558.62 C 907.354 542.311 906.92 526.473 903.507 510.468 C 889.04 501.323 877.34 487.399 870.234 471.851 C 860.408 450.353 854.826 420.363 863.352 397.523 C 865.332 395.806 866.351 395.2 869.062 395.378 C 881.006 396.161 897.396 412.281 904.335 421.377 C 917.82 439.054 924.339 465.644 919.607 487.514 C 917.896 495.425 913.453 502.174 913.058 510.466 C 912.155 529.405 916.28 545.655 913.725 565.607 C 926.196 584.936 947.885 608.819 962.772 627.219 C 980.11 599.219 995.259 568.026 1015.72 542.264 C 1016.22 534.305 1017.75 524.427 1015.61 516.661 C 1012.28 504.596 1004.48 492.539 998.849 481.29 C 981.709 447.025 961.965 413.289 947.234 377.97 C 938.332 376.149 929.816 373.313 921.29 370.214 C 908.322 373.365 894.882 374.084 881.651 372.337 C 851.577 368.298 831.127 350.939 813.191 327.346 C 810.378 323.646 806.477 318.901 807.142 314.123 C 807.952 313.505 808.127 313.303 808.976 312.876 C 820.296 307.178 854.287 310.045 866.575 313.622 C 894.032 321.614 911.393 338.581 925.041 363.066 C 930.853 364.931 936.859 366.364 942.754 367.958 C 935.234 343.758 922.992 319.924 910.401 298.001 C 903.509 295.213 897.435 291.348 891.892 286.424 C 872.346 269.065 861.476 243.184 860.15 217.365 C 859.567 206.023 860.509 186.877 868.507 178.11 C 871.244 177.223 872.733 176.872 875.527 177.857 C 888.13 182.3 907.152 207.907 913.501 219.79 C 927.046 245.143 927.159 268.428 918.931 295.401 C 925.125 307.539 930.906 319.883 936.263 332.413 C 941.613 345.099 946.216 358.176 952.462 370.453 L 957.752 358.447 C 951.416 342.654 946.24 327.877 947.865 310.611 C 949.877 289.233 967.636 264.904 983.996 252.002 C 987.08 249.57 989.419 248.498 993.455 248.951 C 995.787 250.231 997.084 251.424 998.362 253.721 C 1008.06 271.139 1008.76 296.838 1003.01 315.546 C 997.116 334.757 985.577 351.212 967.68 360.727 C 964.063 366.676 961.171 373.132 958.115 379.388 C 963.669 398.005 974.817 415.985 983.741 433.254 C 995.102 455.238 1005.93 477.885 1018.94 498.931 C 1017.83 447.932 1018.76 396.771 1018.92 345.758 C 1019.05 306.535 1018.41 267.262 1018.05 228.038 z M 907.903 907.425 C 906.001 904.863 904.045 902.341 902.343 899.641 C 896.702 902.805 892.443 905.591 887.966 910.362 C 885.678 912.8 884.292 914.198 881.174 915.443 C 876.045 917.492 872.037 922.622 868.303 926.552 C 849.749 945.721 834.914 968.168 824.551 992.75 C 803.739 1042.95 806.851 1105.88 827.681 1155.58 C 850.431 1209.11 893.33 1251.53 947.104 1273.68 C 998.271 1294.45 1055.65 1293.73 1106.28 1271.69 C 1159.56 1248.88 1200.01 1205.11 1221.2 1151.44 C 1241.36 1100.36 1243.13 1041.77 1220.85 991.073 C 1213.67 974.762 1190.49 931.642 1175.22 923.876 C 1170.25 924.008 1165.15 923.078 1161.11 926.055 C 1159.32 923.631 1158.66 921.976 1157.88 919.063 L 1158.5 916.702 C 1160.85 915.813 1161.14 916.149 1163.58 916.907 C 1162.83 918.664 1161.7 918.604 1160.01 919.34 L 1161.58 919.611 C 1165.42 920.293 1169.22 921.284 1173 922.184 C 1165.97 906.241 1117 881.331 1100.42 874.957 C 1044.09 853.297 984.246 858.31 929.896 882.785 C 924.14 885.377 917.216 888.137 912.443 892.335 C 918.999 893.07 924.097 887.973 931.095 889.236 C 932.409 888.362 933.71 887.354 935.033 886.521 C 937.987 884.662 943.689 884.51 946.979 885.539 C 949.884 886.448 953.005 888.118 955.566 889.775 L 955.579 891.183 C 952.079 891.144 949.548 890.137 946.271 889.087 L 948.865 896.549 C 950.981 897.361 949.944 897.307 951.686 896.995 C 954.665 896.462 956.442 896.118 959.346 897.336 L 961.592 899.657 L 961.117 900.769 L 956.954 902.196 C 956.56 903.902 956.515 904.804 956.607 906.502 C 954.105 908.792 952.417 907.472 949.269 907.871 C 949.196 906.623 949.433 906.016 949.826 904.851 C 951.327 903.997 952.65 903.35 953.878 902.12 L 951.868 900.982 C 948.886 901.635 948.686 902.951 946.998 905.403 L 945.377 905.629 L 943.68 902.566 C 942.13 902.034 941.801 901.923 940.628 900.679 L 941.102 898.076 L 942.506 897.659 L 946.586 900.621 L 947.828 900.255 C 948.024 898.338 947.819 897.571 947.298 895.765 L 945.439 894.774 C 944.242 895.027 942.95 895.24 941.841 895.794 C 937.463 897.981 937.045 899.595 935.434 903.94 L 933.913 904.242 C 932.91 902.111 932.52 900.413 930.56 899.026 C 929.161 900.639 927.873 902.3 926.578 903.996 L 925.023 901.267 C 923.074 902.43 921.731 907.045 920.773 909.257 C 923.617 911.62 924.535 912.27 924.606 916.23 C 924.633 917.768 924.638 917.399 923.833 918.582 C 920.925 919.042 919.661 918.187 917.131 916.923 L 916.359 917.611 C 918.359 920.122 922.167 922.226 923.71 924.543 C 924.97 926.436 925.076 934.292 925.763 937.051 L 926.973 937.989 L 927.721 944.304 C 931.275 945.36 935.883 947.157 938.474 949.921 C 940.223 951.788 941.357 953.867 940.986 956.522 C 940.608 959.226 939.691 959.799 937.675 961.28 C 934.653 961.638 932.755 960.93 929.983 959.905 L 928.902 959.496 C 926.316 960.561 925.987 962.529 924.728 964.934 C 921.174 967.025 920.175 963.896 916.523 964.528 C 918.301 966.162 919.472 966.599 919.874 969.076 L 918.485 970.066 C 916.216 969.654 916.098 969.328 914.477 967.638 C 913.509 970.9 912.526 973.337 910.643 976.181 C 908.54 977.273 909.022 977.507 906.512 976.802 C 904.681 974.533 902.686 967.15 904.117 964.379 C 907.332 958.157 915.008 956.328 915.458 947.864 C 915.557 946.006 915.487 945.3 916.343 943.547 C 917.418 941.344 916.941 943.035 917.575 940.386 C 917.687 939.916 917.769 939.44 917.867 938.968 L 916.729 933.301 C 912.646 935.2 908.873 942.041 905.172 945.252 C 901.761 948.211 897.501 950.151 893.452 952.09 C 895.678 955.326 898.002 957.726 898.41 961.709 L 896.501 964.391 C 897.073 966.879 899.115 968.025 901.019 969.515 C 902.397 973.645 901.454 977.309 899.544 981.118 C 894.903 990.373 884.507 996.072 880.32 1005.04 L 880.949 1006.51 C 884.324 1008.5 887.167 1010.44 889.994 1013.16 C 890.752 1020.53 891.408 1027.81 891.591 1035.22 L 890.779 1035.37 C 887.31 1029.79 884.447 1024.2 882.436 1017.93 C 881.222 1014.15 878.73 1011.91 875.795 1009.36 C 873.733 1008.07 871.934 1005.78 870.215 1004.04 L 860.379 1006.55 C 852.241 1019.3 846.937 1015.44 844.798 1032.29 C 846.474 1033.38 847.865 1034.39 849.224 1035.87 C 856.787 1044.13 874.862 1061.99 874.025 1073.86 C 873.896 1075.69 873.901 1076.5 874.41 1078.21 C 876.154 1079.91 877.882 1081.19 878.244 1083.73 L 876.513 1084.65 C 867.3 1080.47 866.366 1064.16 858.015 1058.18 C 849.901 1052.41 841.642 1046.84 833.247 1041.49 C 832.274 1039.46 831.274 1038.05 831.723 1035.75 L 835.278 1036.29 C 838.246 1033.68 836.369 1018.27 836.85 1013.38 C 837.925 1002.47 840.486 990.445 844.333 980.181 C 847.193 972.552 849.691 969.709 857.099 966.402 C 858.36 965.839 858.776 965.978 859.289 964.556 C 860.295 961.775 859.327 958.568 858.533 955.889 C 855.328 945.08 874.04 936.523 875.202 929.039 C 875.825 925.027 886.028 916.664 889.291 913.477 C 891.739 912.721 894.064 911.901 896.658 912.176 C 898.618 912.383 900.364 912.448 902.329 912.454 C 905.079 910.939 906.369 910.303 907.903 907.425 z M 1018.62 123.751 C 1007.09 143.696 1002.9 172.876 1008.86 195.209 C 1009.74 198.497 1011.05 201.607 1012.42 204.712 L 1013.98 205.613 C 1014.85 200.078 1013.23 193.375 1012.93 187.735 C 1012.4 177.879 1012.41 167.743 1013.31 157.911 C 1014.16 148.653 1019.92 131.662 1018.62 123.751 z M 1032.08 123.815 C 1036.03 142.308 1037.62 160.046 1037.17 178.962 C 1037.01 185.661 1032.89 198.562 1034.81 204.149 C 1035.52 203.411 1036.45 202.563 1037.06 201.752 C 1046.34 183.713 1045.51 157.313 1039.45 138.392 C 1037.87 133.461 1035.83 127.451 1032.08 123.815 z M 884.318 195.623 C 892.748 211.995 901.492 228.385 907.734 245.753 C 911.161 255.286 912.743 266.191 916.787 275.338 C 917.894 247.344 909.463 221.581 890.288 200.723 C 888.493 198.771 886.564 197.033 884.318 195.623 z M 1161.75 199.076 C 1143.61 215.339 1131.33 240.337 1130.07 264.744 C 1129.86 268.873 1129.26 274.853 1131.19 278.531 C 1136.61 260.09 1141.51 241.277 1148.99 223.532 C 1151.82 216.808 1160.81 205.286 1161.75 199.076 z M 869.392 199.769 C 867.648 231.615 875.852 256.611 897.41 280.366 C 898.608 281.686 899.924 283.147 901.316 284.259 C 888.716 258.522 880.535 243.543 873.667 214.791 C 872.582 210.247 871.892 203.606 869.392 199.769 z M 1176.57 200.7 C 1174.28 212.388 1172.55 224.248 1169.43 235.75 C 1165.37 250.738 1159.37 264.413 1153.52 278.696 L 1154.79 278.693 C 1170.77 260.843 1180.55 235.129 1179.27 211.027 C 1179.1 207.652 1179.01 203.208 1176.57 200.7 z M 1050.17 266.637 C 1045.72 290.362 1047.27 309.983 1061.23 330.412 C 1064.74 335.556 1068.8 340.094 1073.07 344.613 L 1073.94 343.541 C 1068.95 328.996 1062.62 315.145 1058.33 300.314 C 1055.27 289.755 1054.59 276.423 1050.17 266.637 z M 994.433 268.922 C 991.89 286.252 988.528 303.277 983.647 320.116 C 982.245 324.954 974.915 342.001 975.833 345.416 L 976.827 344.657 C 990.921 327.186 999.644 305.784 997.186 283.002 C 996.675 278.263 995.977 273.441 994.433 268.922 z M 974.611 272.935 C 963.176 286.441 954.105 307.636 955.804 325.595 C 955.999 327.649 956.336 329.452 957.091 331.384 C 959.289 312.032 966.037 293.65 973.954 275.957 C 974.76 274.156 974.548 274.904 974.611 272.935 z M 831.83 318.099 C 848.504 324.608 865.658 329.072 881.93 336.787 C 891.405 341.279 899.964 349.337 909.404 353.186 C 889.187 331.035 868.589 319.359 838.118 318.042 C 836.007 317.951 833.939 317.995 831.83 318.099 z M 1208.47 318.416 C 1176.87 320.182 1155.52 333.641 1134.32 356.522 C 1138.52 354.195 1142.24 351.734 1146 348.752 C 1161.58 336.971 1179.9 329.108 1198.69 323.836 C 1204.71 322.147 1211.23 321.749 1216.84 318.878 L 1216.88 318.328 C 1214.04 318.25 1211.3 318.111 1208.47 318.416 z M 1221.65 336.201 C 1203.99 347.203 1184.78 355.495 1164.66 360.801 C 1161.86 361.527 1154.32 362.435 1153.61 365.011 C 1175.08 365.273 1200.63 357.736 1216.48 342.646 C 1218.26 340.947 1221.26 338.602 1221.65 336.201 z M 834.285 339.784 C 850.011 354.936 870.769 365.212 892.998 364.939 C 894.826 364.904 896.652 364.784 898.469 364.577 C 885.21 360.542 870.999 357.119 858.308 351.599 C 850.554 348.227 842.261 341.966 834.285 339.784 z M 733.029 366.861 C 737.992 393.226 753.982 419.849 776.235 435.184 C 779.39 437.358 782.742 439.583 786.544 440.33 C 776.668 430.008 766.323 419.627 758.325 407.743 C 751.471 397.56 740.258 373.638 733.029 366.861 z M 1314.7 366.731 C 1304.23 385.571 1293.71 406.178 1279.43 422.462 C 1276.38 425.932 1258.2 441.762 1258.01 443.85 C 1280.47 436.211 1296.76 415.196 1306.88 394.555 C 1310.33 387.533 1316.14 374.575 1314.7 366.731 z M 1177.23 412.694 C 1173.3 426.291 1171.05 440.308 1166.78 453.826 C 1162.6 467.052 1156.64 479.491 1152.06 492.542 L 1152.95 493.665 C 1170.07 474.223 1180.54 448.271 1178.73 421.984 C 1178.51 418.891 1178.04 415.686 1177.23 412.694 z M 867.265 415.78 C 866.584 442.322 875.689 473.881 894.827 493.134 C 895.767 494.079 896.68 494.713 897.778 495.456 C 893.419 480.557 885.842 466.506 880.405 451.94 C 877.579 444.37 870.946 419.953 867.265 415.78 z M 783.685 533.302 C 775.194 534.705 766.991 536.41 758.695 538.704 C 780.476 537.658 800.82 538.166 822.353 541.797 L 841.09 545.771 C 825.045 536.044 802.425 530.385 783.685 533.302 z M 1242.5 533.257 C 1230.72 535.34 1220.62 538.574 1210.26 544.657 C 1222.77 541.525 1234.92 539.388 1247.75 538.225 C 1260.37 537.356 1272.5 537.855 1285.05 539.386 C 1270.94 532.631 1257.9 531.767 1242.5 533.257 z M 1287.27 552.208 C 1274.06 555.665 1261.1 558.926 1247.48 560.389 C 1238.14 561.392 1221.97 560.008 1214.16 562.532 C 1215.63 563.15 1217.11 563.854 1218.63 564.333 C 1241.93 568.718 1265.63 567.861 1286.21 554.573 C 1287.62 553.667 1287.21 553.912 1288.25 552.358 L 1287.27 552.208 z M 756.332 553.143 C 772.25 566.291 796.789 569.45 816.716 567.675 C 823.182 567.099 829.367 565.898 835.607 564.129 L 836.744 563.314 C 808.847 562.401 783.421 560.095 756.332 553.143 z M 1014.51 567.7 C 1000.06 591.765 985.779 616.061 970.45 639.573 C 980.283 650.098 988.124 662.612 996.165 674.536 L 1014.82 701.237 C 1014.08 672.374 1014.28 643.707 1014.66 614.843 C 1014.83 602.322 1016.93 579.243 1014.51 567.7 z M 1031.72 568.487 C 1030.45 588.41 1032.08 608.545 1032.14 628.498 C 1032.21 653.763 1031.06 679.316 1032.12 704.538 C 1038.14 695.464 1043.67 685.999 1049.84 677.036 L 1077.05 638.275 C 1067.61 623.49 1041.73 577.707 1031.72 568.487 z M 964.507 650.656 C 893.587 762.137 825.368 875.313 759.91 990.087 C 747.228 1012.18 735.362 1034.73 722.697 1056.83 C 640.036 1200.58 558.499 1344.97 478.093 1490 C 564.559 1490.84 651.03 1491.14 737.5 1490.88 L 1000.06 1491 C 1002.64 1480.39 1005.19 1469.83 1006.72 1459.01 C 1011.91 1422.1 1016.65 1341.05 997.68 1309.52 C 994.528 1304.28 990.53 1299.68 986.23 1295.36 C 920.861 1279.25 869.583 1247.11 834.279 1188.46 C 803.835 1137.88 793.247 1073.39 807.831 1015.91 C 822.308 960.717 858.055 913.51 907.25 884.613 C 933.789 868.89 967.302 857.402 997.849 853.454 C 1001.62 841.389 1005.36 829.431 1007.75 816.997 C 1011.76 796.119 1018.29 734.371 1008.61 716.005 C 1002.48 704.377 973.008 658.604 964.507 650.656 z M 1082.79 650.557 C 1073.46 663.613 1038.58 713.542 1034.84 725.434 C 1029.75 741.583 1034.64 793.734 1037.69 811.992 C 1040.01 825.916 1043.44 839.317 1047.71 852.751 C 1111.77 860.981 1164.33 891.535 1203.68 942.593 C 1237.9 986.988 1251.69 1047.68 1244.17 1102.9 C 1236.04 1162.6 1202.15 1219.54 1154.11 1255.66 C 1137.44 1268.19 1117.78 1278.93 1098.14 1285.99 C 1086.7 1290.09 1073.5 1291.77 1062.65 1297.01 C 1049.05 1303.57 1041.32 1329.63 1039.24 1343.45 C 1032.6 1387.7 1038.01 1447.31 1047.66 1490.91 L 1312.5 1490.83 L 1571.94 1490.12 C 1565.81 1477.31 1558.14 1465.26 1551.2 1452.87 C 1539.12 1431.32 1527.22 1409.7 1514.85 1388.31 L 1429.48 1239.29 L 1247.05 918.069 C 1237.86 902.14 1229.25 885.872 1219.93 870.019 C 1183.27 808.973 1145.8 748.413 1107.55 688.355 C 1103.32 681.789 1087.84 654.062 1082.79 650.557 z M 1007.58 1506.73 C 994.757 1526.71 981.562 1545.22 962.835 1560.21 C 952.195 1568.73 940.452 1575.92 928.728 1582.84 C 911.877 1592.79 818.751 1641.25 821.812 1662.67 C 834.307 1662.77 846.764 1660.67 859.077 1658.75 C 869.875 1657.08 881.204 1655.8 891.684 1652.61 C 917.721 1644.7 944.066 1624.02 963.172 1605.18 C 986.824 1581.87 1009.07 1544.31 1007.91 1509.99 C 1007.85 1508.24 1007.81 1508.2 1007.58 1506.73 z M 1041.26 1510.84 C 1040.57 1544.24 1056.46 1574.54 1079.15 1598.04 C 1098.57 1618.16 1129.37 1643.79 1156.23 1652.64 C 1166.31 1655.96 1177.98 1657.02 1188.49 1658.82 C 1198.72 1660.58 1209.23 1662.93 1219.62 1663.03 C 1222.19 1663.05 1224.76 1663.01 1227.32 1662.93 C 1188.91 1602.46 1132.38 1597.19 1080.39 1556.81 C 1068.01 1547.19 1057.72 1534.74 1048.65 1522.03 C 1046.23 1518.64 1044.11 1513.73 1041.26 1510.84 z M 1034.49 1549.86 C 1030.49 1582.62 1055.42 1667.49 1070.06 1698.82 C 1077.03 1713.74 1085.69 1727.38 1095.87 1740.32 C 1105.51 1752.55 1116.5 1763.17 1128.06 1773.56 L 1135.41 1758.29 C 1141.77 1743.74 1146.39 1729.81 1149.65 1714.21 C 1139.4 1690.32 1128.54 1668.55 1111 1648.96 C 1090.82 1626.41 1071.1 1611.83 1052.46 1585.99 C 1047.93 1579.71 1034.9 1550.28 1034.49 1549.86 z M 1013.58 1551.7 C 1005.4 1568.73 996.874 1585 984.98 1599.82 C 975.068 1612.18 963.522 1623.13 952.229 1634.19 C 926.011 1659.88 910.071 1681.85 896.234 1716.04 C 900.574 1730.67 905.775 1743.88 912.754 1757.47 C 915.884 1762.66 918.904 1768.02 922.31 1773.03 C 941.21 1755.25 960.344 1733.33 972.875 1710.51 C 990.582 1678.28 1007.9 1607.27 1013.19 1570.36 C 1013.88 1565.59 1015.43 1559.11 1014.91 1554.45 C 1014.77 1553.18 1014.46 1552.54 1013.58 1551.7 z M 1023.56 1586.85 C 1018.81 1616.05 1008.33 1645.07 998.987 1673.08 C 995.483 1683.58 991.013 1694.03 988.478 1704.81 C 980.024 1740.76 989.553 1814.58 999.511 1850.89 C 1003.46 1865.29 1009.28 1878.89 1015.3 1892.51 C 1017.49 1897.46 1019.51 1903.36 1022.34 1907.94 C 1023.12 1909.21 1023.48 1909.49 1024.42 1910.43 L 1024.91 1908.71 C 1029.02 1894.63 1036.74 1882 1041.13 1868.08 C 1051.25 1836 1067.85 1740.49 1061.03 1710.03 C 1057.91 1696.12 1052.31 1682.53 1047.95 1668.97 C 1039.33 1642.68 1031.58 1616.11 1024.7 1589.32 C 1024.22 1587.39 1024.61 1588.12 1023.56 1586.85 z M 1179.35 1668.11 C 1205.77 1683.26 1233.52 1698.79 1257.66 1717.43 C 1250.14 1702.88 1243.07 1687.59 1234.14 1673.86 C 1223.74 1673.62 1213.35 1673.4 1203.01 1671.99 C 1195.17 1670.92 1187.19 1668.87 1179.35 1668.11 z M 852.994 1670.53 C 840.168 1671.44 827.431 1672.07 814.573 1672.23 C 810.789 1679 799.041 1702.71 800.754 1709.28 L 800.975 1709.38 C 817.617 1695.63 834.902 1682.23 853.689 1671.53 C 853.487 1671.18 853.367 1670.69 852.994 1670.53 z"/>
<path transform="translate(0,0)" fill="rgb(254,254,254)" d="M 1012.42 204.712 C 1011.05 201.607 1009.74 198.497 1008.86 195.209 C 1002.9 172.876 1007.09 143.696 1018.62 123.751 C 1019.92 131.662 1014.16 148.653 1013.31 157.911 C 1012.41 167.743 1012.4 177.879 1012.93 187.735 C 1013.23 193.375 1014.85 200.078 1013.98 205.613 L 1012.42 204.712 z"/>
<path transform="translate(0,0)" fill="rgb(254,254,254)" d="M 1037.06 201.752 C 1036.45 202.563 1035.52 203.411 1034.81 204.149 C 1032.89 198.562 1037.01 185.661 1037.17 178.962 C 1037.62 160.046 1036.03 142.308 1032.08 123.815 C 1035.83 127.451 1037.87 133.461 1039.45 138.392 C 1045.51 157.313 1046.34 183.713 1037.06 201.752 z"/>
<path transform="translate(0,0)" fill="rgb(254,254,254)" d="M 916.787 275.338 C 912.743 266.191 911.161 255.286 907.734 245.753 C 901.492 228.385 892.748 211.995 884.318 195.623 C 886.564 197.033 888.493 198.771 890.288 200.723 C 909.463 221.581 917.894 247.344 916.787 275.338 z"/>
<path transform="translate(0,0)" fill="rgb(254,254,254)" d="M 1131.19 278.531 C 1129.26 274.853 1129.86 268.873 1130.07 264.744 C 1131.33 240.337 1143.61 215.339 1161.75 199.076 C 1160.81 205.286 1151.82 216.808 1148.99 223.532 C 1141.51 241.277 1136.61 260.09 1131.19 278.531 z"/>
<path transform="translate(0,0)" fill="rgb(254,254,254)" d="M 901.316 284.259 C 899.924 283.147 898.608 281.686 897.41 280.366 C 875.852 256.611 867.648 231.615 869.392 199.769 C 871.892 203.606 872.582 210.247 873.667 214.791 C 880.535 243.543 888.716 258.522 901.316 284.259 z"/>
<path transform="translate(0,0)" fill="rgb(254,254,254)" d="M 1154.79 278.693 L 1153.52 278.696 C 1159.37 264.413 1165.37 250.738 1169.43 235.75 C 1172.55 224.248 1174.28 212.388 1176.57 200.7 C 1179.01 203.208 1179.1 207.652 1179.27 211.027 C 1180.55 235.129 1170.77 260.843 1154.79 278.693 z"/>
<path transform="translate(0,0)" fill="rgb(254,254,254)" d="M 1073.07 344.613 C 1068.8 340.094 1064.74 335.556 1061.23 330.412 C 1047.27 309.983 1045.72 290.362 1050.17 266.637 C 1054.59 276.423 1055.27 289.755 1058.33 300.314 C 1062.62 315.145 1068.95 328.996 1073.94 343.541 L 1073.07 344.613 z"/>
<path transform="translate(0,0)" fill="rgb(254,254,254)" d="M 976.827 344.657 L 975.833 345.416 C 974.915 342.001 982.245 324.954 983.647 320.116 C 988.528 303.277 991.89 286.252 994.433 268.922 C 995.977 273.441 996.675 278.263 997.186 283.002 C 999.644 305.784 990.921 327.186 976.827 344.657 z"/>
<path transform="translate(0,0)" fill="rgb(254,254,254)" d="M 957.091 331.384 C 956.336 329.452 955.999 327.649 955.804 325.595 C 954.105 307.636 963.176 286.441 974.611 272.935 C 974.548 274.904 974.76 274.156 973.954 275.957 C 966.037 293.65 959.289 312.032 957.091 331.384 z"/>
<path transform="translate(0,0)" fill="rgb(254,254,254)" d="M 909.404 353.186 C 899.964 349.337 891.405 341.279 881.93 336.787 C 865.658 329.072 848.504 324.608 831.83 318.099 C 833.939 317.995 836.007 317.951 838.118 318.042 C 868.589 319.359 889.187 331.035 909.404 353.186 z"/>
<path transform="translate(0,0)" fill="rgb(254,254,254)" d="M 1134.32 356.522 C 1155.52 333.641 1176.87 320.182 1208.47 318.416 C 1211.3 318.111 1214.04 318.25 1216.88 318.328 L 1216.84 318.878 C 1211.23 321.749 1204.71 322.147 1198.69 323.836 C 1179.9 329.108 1161.58 336.971 1146 348.752 C 1142.24 351.734 1138.52 354.195 1134.32 356.522 z"/>
<path transform="translate(0,0)" fill="rgb(254,254,254)" d="M 1153.61 365.011 C 1154.32 362.435 1161.86 361.527 1164.66 360.801 C 1184.78 355.495 1203.99 347.203 1221.65 336.201 C 1221.26 338.602 1218.26 340.947 1216.48 342.646 C 1200.63 357.736 1175.08 365.273 1153.61 365.011 z"/>
<path transform="translate(0,0)" fill="rgb(254,254,254)" d="M 898.469 364.577 C 896.652 364.784 894.826 364.904 892.998 364.939 C 870.769 365.212 850.011 354.936 834.285 339.784 C 842.261 341.966 850.554 348.227 858.308 351.599 C 870.999 357.119 885.21 360.542 898.469 364.577 z"/>
<path transform="translate(0,0)" fill="rgb(254,254,254)" d="M 786.544 440.33 C 782.742 439.583 779.39 437.358 776.235 435.184 C 753.982 419.849 737.992 393.226 733.029 366.861 C 740.258 373.638 751.471 397.56 758.325 407.743 C 766.323 419.627 776.668 430.008 786.544 440.33 z"/>
<path transform="translate(0,0)" fill="rgb(254,254,254)" d="M 1258.01 443.85 C 1258.2 441.762 1276.38 425.932 1279.43 422.462 C 1293.71 406.178 1304.23 385.571 1314.7 366.731 C 1316.14 374.575 1310.33 387.533 1306.88 394.555 C 1296.76 415.196 1280.47 436.211 1258.01 443.85 z"/>
<path transform="translate(0,0)" fill="rgb(254,254,254)" d="M 1152.95 493.665 L 1152.06 492.542 C 1156.64 479.491 1162.6 467.052 1166.78 453.826 C 1171.05 440.308 1173.3 426.291 1177.23 412.694 C 1178.04 415.686 1178.51 418.891 1178.73 421.984 C 1180.54 448.271 1170.07 474.223 1152.95 493.665 z"/>
<path transform="translate(0,0)" fill="rgb(254,254,254)" d="M 897.778 495.456 C 896.68 494.713 895.767 494.079 894.827 493.134 C 875.689 473.881 866.584 442.322 867.265 415.78 C 870.946 419.953 877.579 444.37 880.405 451.94 C 885.842 466.506 893.419 480.557 897.778 495.456 z"/>
<path transform="translate(0,0)" fill="rgb(254,254,254)" d="M 758.695 538.704 C 766.991 536.41 775.194 534.705 783.685 533.302 C 802.425 530.385 825.045 536.044 841.09 545.771 L 822.353 541.797 C 800.82 538.166 780.476 537.658 758.695 538.704 z"/>
<path transform="translate(0,0)" fill="rgb(254,254,254)" d="M 1210.26 544.657 C 1220.62 538.574 1230.72 535.34 1242.5 533.257 C 1257.9 531.767 1270.94 532.631 1285.05 539.386 C 1272.5 537.855 1260.37 537.356 1247.75 538.225 C 1234.92 539.388 1222.77 541.525 1210.26 544.657 z"/>
<path transform="translate(0,0)" fill="rgb(254,254,254)" d="M 1218.63 564.333 C 1217.11 563.854 1215.63 563.15 1214.16 562.532 C 1221.97 560.008 1238.14 561.392 1247.48 560.389 C 1261.1 558.926 1274.06 555.665 1287.27 552.208 L 1288.25 552.358 C 1287.21 553.912 1287.62 553.667 1286.21 554.573 C 1265.63 567.861 1241.93 568.718 1218.63 564.333 z"/>
<path transform="translate(0,0)" fill="rgb(254,254,254)" d="M 835.607 564.129 C 829.367 565.898 823.182 567.099 816.716 567.675 C 796.789 569.45 772.25 566.291 756.332 553.143 C 783.421 560.095 808.847 562.401 836.744 563.314 L 835.607 564.129 z"/>
<path transform="translate(0,0)" fill="rgb(254,254,254)" d="M 970.45 639.573 C 985.779 616.061 1000.06 591.765 1014.51 567.7 C 1016.93 579.243 1014.83 602.322 1014.66 614.843 C 1014.28 643.707 1014.08 672.374 1014.82 701.237 L 996.165 674.536 C 988.124 662.612 980.283 650.098 970.45 639.573 z"/>
<path transform="translate(0,0)" fill="rgb(254,254,254)" d="M 1032.12 704.538 C 1031.06 679.316 1032.21 653.763 1032.14 628.498 C 1032.08 608.545 1030.45 588.41 1031.72 568.487 C 1041.73 577.707 1067.61 623.49 1077.05 638.275 L 1049.84 677.036 C 1043.67 685.999 1038.14 695.464 1032.12 704.538 z"/>
<path transform="translate(0,0)" fill="rgb(254,254,254)" d="M 478.093 1490 C 558.499 1344.97 640.036 1200.58 722.697 1056.83 C 735.362 1034.73 747.228 1012.18 759.91 990.087 C 825.368 875.313 893.587 762.137 964.507 650.656 C 973.008 658.604 1002.48 704.377 1008.61 716.005 C 1018.29 734.371 1011.76 796.119 1007.75 816.997 C 1005.36 829.431 1001.62 841.389 997.849 853.454 C 967.302 857.402 933.789 868.89 907.25 884.613 C 858.055 913.51 822.308 960.717 807.831 1015.91 C 793.247 1073.39 803.835 1137.88 834.279 1188.46 C 869.583 1247.11 920.861 1279.25 986.23 1295.36 C 990.53 1299.68 994.528 1304.28 997.68 1309.52 C 1016.65 1341.05 1011.91 1422.1 1006.72 1459.01 C 1005.19 1469.83 1002.64 1480.39 1000.06 1491 L 737.5 1490.88 C 651.03 1491.14 564.559 1490.84 478.093 1490 z"/>
<path transform="translate(0,0)" fill="rgb(254,254,254)" d="M 1047.71 852.751 C 1043.44 839.317 1040.01 825.916 1037.69 811.992 C 1034.64 793.734 1029.75 741.583 1034.84 725.434 C 1038.58 713.542 1073.46 663.613 1082.79 650.557 C 1087.84 654.062 1103.32 681.789 1107.55 688.355 C 1145.8 748.413 1183.27 808.973 1219.93 870.019 C 1229.25 885.872 1237.86 902.14 1247.05 918.069 L 1429.48 1239.29 L 1514.85 1388.31 C 1527.22 1409.7 1539.12 1431.32 1551.2 1452.87 C 1558.14 1465.26 1565.81 1477.31 1571.94 1490.12 L 1312.5 1490.83 L 1047.66 1490.91 C 1038.01 1447.31 1032.6 1387.7 1039.24 1343.45 C 1041.32 1329.63 1049.05 1303.57 1062.65 1297.01 C 1073.5 1291.77 1086.7 1290.09 1098.14 1285.99 C 1117.78 1278.93 1137.44 1268.19 1154.11 1255.66 C 1202.15 1219.54 1236.04 1162.6 1244.17 1102.9 C 1251.69 1047.68 1237.9 986.988 1203.68 942.593 C 1164.33 891.535 1111.77 860.981 1047.71 852.751 z"/>
<path transform="translate(0,0)" fill="rgb(254,254,254)" d="M 902.343 899.641 C 904.045 902.341 906.001 904.863 907.903 907.425 C 906.369 910.303 905.079 910.939 902.329 912.454 C 900.364 912.448 898.618 912.383 896.658 912.176 C 894.064 911.901 891.739 912.721 889.291 913.477 C 886.028 916.664 875.825 925.027 875.202 929.039 C 874.04 936.523 855.328 945.08 858.533 955.889 C 859.327 958.568 860.295 961.775 859.289 964.556 C 858.776 965.978 858.36 965.839 857.099 966.402 C 849.691 969.709 847.193 972.552 844.333 980.181 C 840.486 990.445 837.925 1002.47 836.85 1013.38 C 836.369 1018.27 838.246 1033.68 835.278 1036.29 L 831.723 1035.75 C 831.274 1038.05 832.274 1039.46 833.247 1041.49 C 841.642 1046.84 849.901 1052.41 858.015 1058.18 C 866.366 1064.16 867.3 1080.47 876.513 1084.65 L 878.244 1083.73 C 877.882 1081.19 876.154 1079.91 874.41 1078.21 C 873.901 1076.5 873.896 1075.69 874.025 1073.86 C 874.862 1061.99 856.787 1044.13 849.224 1035.87 C 847.865 1034.39 846.474 1033.38 844.798 1032.29 C 846.937 1015.44 852.241 1019.3 860.379 1006.55 L 870.215 1004.04 C 871.934 1005.78 873.733 1008.07 875.795 1009.36 C 878.73 1011.91 881.222 1014.15 882.436 1017.93 C 884.447 1024.2 887.31 1029.79 890.779 1035.37 L 891.591 1035.22 C 891.408 1027.81 890.752 1020.53 889.994 1013.16 C 887.167 1010.44 884.324 1008.5 880.949 1006.51 L 880.32 1005.04 C 884.507 996.072 894.903 990.373 899.544 981.118 C 901.454 977.309 902.397 973.645 901.019 969.515 C 899.115 968.025 897.073 966.879 896.501 964.391 L 898.41 961.709 C 898.002 957.726 895.678 955.326 893.452 952.09 C 897.501 950.151 901.761 948.211 905.172 945.252 C 908.873 942.041 912.646 935.2 916.729 933.301 L 917.867 938.968 C 917.769 939.44 917.687 939.916 917.575 940.386 C 916.941 943.035 917.418 941.344 916.343 943.547 C 915.487 945.3 915.557 946.006 915.458 947.864 C 915.008 956.328 907.332 958.157 904.117 964.379 C 902.686 967.15 904.681 974.533 906.512 976.802 C 909.022 977.507 908.54 977.273 910.643 976.181 C 912.526 973.337 913.509 970.9 914.477 967.638 C 916.098 969.328 916.216 969.654 918.485 970.066 L 919.874 969.076 C 919.472 966.599 918.301 966.162 916.523 964.528 C 920.175 963.896 921.174 967.025 924.728 964.934 C 925.987 962.529 926.316 960.561 928.902 959.496 L 929.983 959.905 C 932.755 960.93 934.653 961.638 937.675 961.28 C 939.691 959.799 940.608 959.226 940.986 956.522 C 941.357 953.867 940.223 951.788 938.474 949.921 C 935.883 947.157 931.275 945.36 927.721 944.304 L 926.973 937.989 L 925.763 937.051 C 925.076 934.292 924.97 926.436 923.71 924.543 C 922.167 922.226 918.359 920.122 916.359 917.611 L 917.131 916.923 C 919.661 918.187 920.925 919.042 923.833 918.582 C 924.638 917.399 924.633 917.768 924.606 916.23 C 924.535 912.27 923.617 911.62 920.773 909.257 C 921.731 907.045 923.074 902.43 925.023 901.267 L 926.578 903.996 C 927.873 902.3 929.161 900.639 930.56 899.026 C 932.52 900.413 932.91 902.111 933.913 904.242 L 935.434 903.94 C 937.045 899.595 937.463 897.981 941.841 895.794 C 942.95 895.24 944.242 895.027 945.439 894.774 L 947.298 895.765 C 947.819 897.571 948.024 898.338 947.828 900.255 L 946.586 900.621 L 942.506 897.659 L 941.102 898.076 L 940.628 900.679 C 941.801 901.923 942.13 902.034 943.68 902.566 L 945.377 905.629 L 946.998 905.403 C 948.686 902.951 948.886 901.635 951.868 900.982 L 953.878 902.12 C 952.65 903.35 951.327 903.997 949.826 904.851 C 949.433 906.016 949.196 906.623 949.269 907.871 C 952.417 907.472 954.105 908.792 956.607 906.502 C 956.515 904.804 956.56 903.902 956.954 902.196 L 961.117 900.769 L 961.592 899.657 L 959.346 897.336 C 956.442 896.118 954.665 896.462 951.686 896.995 C 949.944 897.307 950.981 897.361 948.865 896.549 L 946.271 889.087 C 949.548 890.137 952.079 891.144 955.579 891.183 L 955.566 889.775 C 953.005 888.118 949.884 886.448 946.979 885.539 C 943.689 884.51 937.987 884.662 935.033 886.521 C 933.71 887.354 932.409 888.362 931.095 889.236 C 924.097 887.973 918.999 893.07 912.443 892.335 C 917.216 888.137 924.14 885.377 929.896 882.785 C 984.246 858.31 1044.09 853.297 1100.42 874.957 C 1117 881.331 1165.97 906.241 1173 922.184 C 1169.22 921.284 1165.42 920.293 1161.58 919.611 L 1160.01 919.34 C 1161.7 918.604 1162.83 918.664 1163.58 916.907 C 1161.14 916.149 1160.85 915.813 1158.5 916.702 L 1157.88 919.063 C 1158.66 921.976 1159.32 923.631 1161.11 926.055 C 1165.15 923.078 1170.25 924.008 1175.22 923.876 C 1190.49 931.642 1213.67 974.762 1220.85 991.073 C 1243.13 1041.77 1241.36 1100.36 1221.2 1151.44 C 1200.01 1205.11 1159.56 1248.88 1106.28 1271.69 C 1055.65 1293.73 998.271 1294.45 947.104 1273.68 C 893.33 1251.53 850.431 1209.11 827.681 1155.58 C 806.851 1105.88 803.739 1042.95 824.551 992.75 C 834.914 968.168 849.749 945.721 868.303 926.552 C 872.037 922.622 876.045 917.492 881.174 915.443 C 884.292 914.198 885.678 912.8 887.966 910.362 C 892.443 905.591 896.702 902.805 902.343 899.641 z M 952.104 914.646 C 949.377 914.536 947.252 914.416 944.638 915.41 L 947.585 916.302 C 946.908 918.53 945.533 918.813 943.636 920.019 L 941.598 920.062 C 940.726 918.14 940.091 916.263 939.49 914.24 L 937.443 913.298 L 935.918 914.494 C 935.602 917.193 935.617 917.593 936.753 920.052 C 936.245 919.96 935.739 919.861 935.23 919.778 C 933.719 919.531 932.479 919.451 930.966 919.497 C 929.177 924.63 932.688 931.014 929.668 935.662 L 930.837 936.926 L 932.286 938.081 C 932.42 939.402 932.444 941.313 932.954 942.522 C 934.044 945.106 935.388 945.18 937.821 946.073 C 941.178 945.415 943.535 945.456 946.134 943.169 C 945.882 941.445 945.543 939.902 944.963 938.264 L 944.368 936.616 L 944.898 935.62 L 947.409 936.361 C 949.934 931.813 950.343 926.044 951.497 921.037 C 952.073 918.538 952.416 917.235 952.104 914.646 z M 1057.64 968.444 C 1052.99 971.854 1046.16 973.741 1044.6 979.935 C 1043.82 983.046 1044.31 986.326 1046.28 988.916 C 1048.46 991.786 1051.16 992.577 1054.59 992.727 C 1055.87 991.737 1056.59 990.976 1057.55 989.623 C 1057.86 989.189 1058.15 988.74 1058.45 988.299 L 1060.05 988.688 L 1059.58 991.746 L 1060.93 991.808 L 1062.48 989.249 C 1065.85 991.013 1067.18 995.525 1068.72 998.921 C 1068.87 994.05 1068.78 989.77 1070.07 985.02 C 1071.05 986.188 1071.09 987.184 1071.4 988.645 C 1073.13 988.575 1073.42 988.377 1074.93 987.727 C 1078.77 986.077 1082.49 986.213 1086.55 986.705 C 1088.83 985.248 1088.94 984.858 1090.06 982.359 L 1089.38 980.304 C 1086.51 979.215 1083.61 978.157 1080.71 977.131 L 1080.16 975.516 C 1082.55 972.539 1087.08 970.923 1090.78 970.37 C 1091.65 972.929 1090.12 972.657 1090.39 974.29 C 1090.62 975.632 1094.61 979.654 1095.59 981.39 C 1096.77 983.482 1096.02 982.398 1097.67 984.203 C 1099.56 986.262 1100.05 989.24 1100.74 991.872 L 1099.65 992.706 C 1097.38 991.541 1095.78 990.026 1093.24 990.631 L 1091.68 992.58 C 1089.31 992.629 1087.83 991.872 1085.69 990.944 L 1084.32 992.026 C 1084.1 994.69 1084.98 995.628 1086.36 997.77 C 1087.96 1000.24 1089.15 1001.88 1088.79 1004.93 C 1088.64 1006.18 1087.85 1007.72 1087.36 1008.83 C 1087.47 1008.9 1087.58 1008.95 1087.68 1009.04 C 1096.81 1016.6 1102.19 1026.97 1103.45 1038.72 C 1103.77 1041.65 1104.33 1044.21 1105.17 1047.04 L 1105.5 1048.15 C 1108.82 1050.82 1112.36 1054.35 1116.22 1056.11 L 1116.99 1052.81 L 1118.04 1052.64 C 1118.85 1054 1119.76 1055.36 1120.49 1056.76 C 1122.38 1060.41 1124.42 1061.4 1127.89 1063.39 C 1129.88 1053.54 1137.4 1032.21 1132.05 1023.65 C 1127.35 1021.7 1123.41 1024.21 1118.6 1024.74 C 1115.28 1025.12 1113.19 1023.42 1110.7 1021.53 C 1110.47 1021.35 1110.25 1021.17 1110.02 1020.99 L 1106.07 1023.99 L 1104.95 1023.37 C 1105.64 1020.57 1106.4 1017.79 1107.25 1015.03 L 1108.23 1015.26 C 1108.89 1016.52 1109.61 1018.23 1110.55 1019.28 C 1112.36 1021.3 1113.3 1021.42 1115.8 1021.81 C 1118.99 1020.56 1119.93 1019 1121.75 1016.14 C 1121.97 1015.8 1122.18 1015.45 1122.4 1015.1 C 1137.46 1019.03 1148.69 1025.53 1159.36 1036.79 C 1163.08 1040.71 1165.45 1044.14 1170.35 1046.8 C 1170.69 1046.98 1171.04 1047.16 1171.39 1047.34 C 1172.97 1055.18 1173.25 1062.47 1175.88 1070.15 L 1177.64 1069.69 L 1175.69 1069.5 L 1177.77 1068.84 C 1177.87 1067.75 1178.01 1066.63 1178.06 1065.53 C 1178.26 1061.4 1182.44 1047.86 1182.19 1046.49 C 1181.64 1043.37 1178.99 1042.17 1179.19 1038.49 L 1182.87 1037.43 C 1185.12 1035.47 1185.55 1033.11 1186.37 1030.35 L 1186.76 1029.05 L 1188 1028.68 C 1189.96 1031.03 1192.87 1035.19 1195.78 1036.4 C 1198.07 1037.36 1198.79 1037 1200.97 1036.23 C 1202.14 1033.46 1201.58 1031.97 1201.16 1029.03 L 1202.04 1028 C 1204.92 1028.76 1207.78 1029.59 1210.62 1030.47 C 1207.96 1034.12 1206.71 1036.96 1207.02 1041.52 C 1207.4 1047.3 1210.28 1053 1214.77 1056.59 C 1215.04 1056.81 1215.33 1057.02 1215.61 1057.23 C 1219.06 1071.21 1217.43 1081.7 1219.49 1094.95 C 1224.58 1098.79 1224.1 1104.55 1226.3 1110.06 C 1227.1 1112.08 1227.1 1112.82 1229.14 1113.75 C 1237.04 1103.77 1231.23 1090.5 1228.33 1080.14 C 1227.35 1076.65 1226.92 1072.83 1225.75 1069.44 C 1224.41 1065.56 1219.56 1058.37 1220.45 1054.5 C 1221.89 1055.18 1221.94 1055.5 1223.56 1055.12 C 1223.59 1045.8 1221.21 1036.42 1220.37 1027.13 C 1219.79 1020.72 1220.75 1013.3 1219.43 1007.09 C 1218.45 1002.47 1214.16 998.734 1212.82 994.148 C 1214.32 995.135 1215.83 996.097 1217.36 997.031 L 1217.4 995.333 C 1216.33 993.127 1215.38 990.999 1213.5 989.36 C 1211.86 987.941 1212.72 988.31 1210.42 988.468 C 1209.79 990.272 1209.48 991.76 1209.42 993.658 L 1209.38 995.594 C 1208.33 994.46 1207.58 993.857 1206.19 993.09 C 1205.76 992.853 1205.32 992.638 1204.89 992.412 C 1205.46 979.224 1194.69 967.785 1190.8 955.36 C 1191.25 952.91 1191.63 951.08 1191.22 948.587 C 1189.93 947.244 1189.28 946.555 1187.42 946.016 C 1185.48 945.453 1185.01 946.412 1183.42 947.417 C 1179.32 939.757 1175.94 932.359 1169.01 926.826 C 1166.14 926.768 1165.72 926.852 1163.24 928.294 L 1163.84 932.565 L 1163.17 933.136 C 1158.59 924.183 1146.45 918.15 1138.39 912.271 C 1141.8 913.835 1145.01 916.007 1148.49 917.399 C 1150.96 918.39 1151.89 918.397 1154.25 917.266 L 1155.26 913.606 C 1156.61 913.275 1157.88 912.916 1159.21 912.487 C 1154.98 908.775 1144.91 900.663 1139.61 899.917 C 1136.81 899.523 1133.15 900.444 1130.31 900.801 C 1127.04 901.21 1124.32 901.589 1121.06 900.867 C 1120.37 899.31 1119.63 897.833 1118.81 896.345 L 1115.51 896.453 C 1112.85 894.443 1116.51 893.752 1115.59 890.461 C 1111.61 892.616 1106.58 892.565 1102.28 894.182 C 1099.34 895.289 1097.26 896.629 1095.95 899.44 C 1097.52 902.183 1098.76 902.195 1101.62 903.376 L 1101.58 904.946 C 1099.66 905.014 1098.95 905.048 1097.17 905.893 C 1097.2 911.046 1102.49 913.688 1101.91 920.455 L 1100.93 920.165 L 1095.07 906.668 L 1090.97 912.998 C 1088.96 913.59 1087.25 914.157 1085.13 914.159 C 1085.22 912.145 1085.27 910.143 1085.27 908.128 C 1082.78 908.61 1082.59 909.262 1080.81 910.946 C 1080.35 914.201 1081.1 914.968 1082.51 917.854 C 1077.7 919.638 1070.78 916.909 1065.93 915.47 C 1065.31 913.182 1064.76 910.711 1063.84 908.528 C 1062.77 906.014 1061.48 905.4 1059.08 904.439 C 1054.46 904.702 1050.77 907.615 1047.5 910.629 L 1047.91 911.738 C 1050.63 911.826 1053.03 911.984 1055.7 912.541 C 1053.68 912.859 1051.46 913.223 1049.58 914.079 C 1040.09 918.405 1046.06 924.912 1047.06 931.586 C 1047.3 933.234 1043.35 940.506 1042.56 942.294 C 1043.83 944.006 1044.5 944.698 1044.85 946.844 L 1042.11 946.995 C 1041.04 948.612 1041.01 950.025 1040.68 951.935 C 1042.94 953.734 1045.06 955.081 1046.06 957.92 C 1045.57 960.189 1045.49 960.239 1043.71 961.75 C 1041.94 960.14 1042.57 960.846 1041.09 958.982 C 1040.74 958.548 1040.4 958.107 1040.06 957.669 C 1038.91 957.625 1036.88 957.71 1035.72 957.35 C 1029.53 955.432 1033.35 948.278 1031.35 943.595 C 1028.71 942.432 1027.97 942.657 1025.06 943.01 C 1020.3 947.851 1020.93 943.34 1015.8 944.447 L 1015.38 946.4 C 1017.59 950.247 1020.72 962.003 1024.23 963.493 C 1027.15 964.729 1030.08 964.417 1033.02 966.11 L 1032.75 967.922 C 1031.3 969.449 1029.98 971.053 1028.04 971.967 C 1026.72 972.593 1026.36 971.997 1025.14 971.441 L 1025.07 970.093 L 1029.56 969.499 L 1029.99 968.539 L 1028.73 967.298 C 1027.6 967.472 1027.23 967.474 1026.04 967.973 C 1020.03 970.479 1013.32 975.555 1010.46 981.46 C 1011.2 984.659 1012.56 984.931 1015.16 986.81 C 1015.33 987.376 1015.98 989.731 1016.27 990.178 C 1017.17 991.558 1017.47 991.659 1018.82 991.513 C 1023.92 990.961 1030.44 986.607 1033.89 982.9 C 1035.21 981.488 1036.56 980.523 1036.09 978.42 C 1035.95 977.784 1035.6 977.214 1035.35 976.611 C 1040.56 972.723 1051.21 970.869 1057.64 968.444 z M 1035.07 997.162 C 1029.94 996.908 1024.41 996.298 1019.3 996.752 C 1011.56 997.438 1006.57 1000.7 1001.63 1006.54 C 1003.98 1008.34 1005.02 1009.2 1006.19 1012.04 C 1005.09 1014.01 1002.69 1014.38 1000.63 1015.21 C 998.199 1015 997.119 1013.89 995.265 1012.44 L 991.462 1012.46 C 994.212 1018.25 996.665 1020.07 1001.97 1023.47 C 1000.95 1029.37 1000.31 1035.8 997.233 1041 C 996.115 1042.89 995.347 1044.28 994.966 1046.47 C 994.51 1049.1 995.23 1047.96 993.339 1049.62 C 993.369 1046.72 993.356 1043.91 993.06 1041.02 C 990.978 1043.06 989.772 1045.78 988.793 1048.5 C 985.636 1057.29 990.377 1073.44 994.389 1081.58 C 996.897 1086.68 1000.67 1092.1 1006.43 1093.72 C 1011.33 1095.1 1015.51 1093.35 1019.65 1090.83 C 1022.1 1089.34 1024.34 1088.13 1026.98 1087.03 C 1028.82 1088.12 1029.4 1088.48 1031.6 1088.68 C 1031.49 1086.11 1031.67 1084.29 1032.39 1081.81 C 1033.72 1081.03 1033.58 1080.71 1034.82 1080.97 C 1047.25 1083.59 1043.26 1102.83 1046 1111.73 C 1047.15 1115.5 1049.75 1118.8 1052.03 1121.94 C 1054.98 1125.97 1056.66 1129.04 1058.08 1133.87 C 1057.54 1135.03 1057.01 1136.2 1056.48 1137.37 C 1053.92 1143.08 1051.2 1149.51 1051.24 1155.88 C 1051.27 1162.37 1055.91 1170.12 1057.35 1176.68 C 1058.98 1184.07 1058.83 1191.89 1059.9 1199.38 C 1061.04 1207.42 1064.29 1215.13 1067.14 1222.68 C 1072.86 1221.88 1078.12 1220.52 1083.65 1218.89 C 1083.71 1218.78 1083.78 1218.67 1083.84 1218.55 C 1087.05 1212.55 1096.38 1198.28 1094.21 1191.45 C 1094.01 1190.81 1093.75 1190.19 1093.58 1189.55 C 1091.88 1182.99 1101.45 1172.39 1104.61 1166.63 C 1108.73 1159.13 1113.87 1146.83 1110.87 1138.42 C 1109.66 1135.03 1105.89 1133.82 1102.86 1132.34 C 1110.41 1117.96 1129.09 1091.21 1130.42 1076.65 C 1131.35 1066.52 1110.1 1057.47 1103.53 1050.19 C 1094.24 1039.86 1097.62 1023.6 1089.13 1013.37 C 1086.84 1012.15 1084.78 1011.2 1082.1 1011.46 C 1080.07 1011.66 1078.91 1012.91 1077.62 1014.3 C 1075.07 1017.05 1073.87 1018.15 1070.03 1018.52 C 1064.8 1014.44 1059.12 1009.13 1053.28 1006.01 C 1046.62 1002.44 1041.85 1004.25 1035.85 997.99 C 1035.58 997.718 1035.33 997.438 1035.07 997.162 z M 958.055 884.979 C 957.596 886.849 956.976 887.352 957.999 889.096 C 959.961 892.441 963.767 895.108 966.247 898.258 C 973.277 899.031 981.251 899.364 988.191 897.91 C 989.946 895.773 991.063 895.187 991.023 892.359 C 983.255 887.078 977.381 896.362 969.636 888.128 C 967.364 885.712 966.083 884.818 962.632 884.807 C 961.103 884.803 959.581 884.888 958.055 884.979 z M 989.285 886.507 L 989.973 888.415 L 992.882 888.644 C 994.32 892.515 994.014 897.697 994.628 901.893 C 992.864 903.337 990.257 904.779 987.865 904.743 C 986.644 904.726 986.389 904.566 985.356 904.215 L 985.524 902.911 L 990.094 901.606 L 989.643 900.441 C 988.35 900.379 987.047 900.09 985.763 900.255 C 983.191 900.586 970.788 910.581 968.769 912.728 C 965.962 915.715 968.177 918.123 965.926 920.695 C 961.884 925.313 961.354 929.864 961.804 935.771 L 962.784 937.247 C 966.015 936.632 967.554 933.591 969.467 931.06 C 969.964 935.005 967.56 940.442 966.362 944.268 L 964.815 945.787 L 963.995 945.688 C 963.591 942.982 964.626 941.144 965.553 938.637 C 963.666 939.093 963.512 939.96 962.568 941.55 C 961.806 942.832 961.617 943.972 961.44 945.428 L 962.792 947.035 C 965.664 946.48 967.328 945.448 969 942.975 C 971.608 939.115 971.675 935.288 971.18 930.818 C 969.997 929.436 968.772 928.204 967.439 926.967 L 967.647 924.292 L 969.496 922.738 L 970.782 923.475 L 971.643 927.829 L 972.636 927.89 L 973.531 925.167 L 974.868 925.066 L 975.191 925.918 C 975.572 926.895 976.02 927.845 976.466 928.794 C 978.958 928.073 979.797 928.277 981.197 926.019 L 981.106 927.014 L 981.294 926.09 L 977.641 925.465 L 977.831 924.139 C 979.942 923.491 981.973 923.105 984.136 922.709 L 984.201 920.175 L 986.098 918.934 C 987.77 920.086 987.613 920.122 988.42 921.802 C 991.711 918.697 993.574 913.011 996.973 910.711 C 998.381 911.944 999.725 913.188 1001.03 914.527 C 1003.75 914.498 1004.69 914.623 1006.86 912.722 C 1009.82 910.134 1011.09 904.062 1010.83 900.325 C 1010.68 898.186 1010.26 896.308 1008.56 894.967 C 1005.78 892.773 1002.04 892.18 998.615 892.601 L 997.392 893.963 C 998.181 896.515 998.976 897.445 1000.97 899.199 C 1004.04 897.869 1003.41 894.781 1006.77 895.367 L 1007.86 897.206 C 1006.48 899.057 1005.66 899.75 1003.17 900.134 C 1000.69 900.518 997.899 899.658 996.022 897.996 C 994.281 896.454 994.661 895.497 994.843 893.422 C 996.46 891.137 998.105 889.01 999.924 886.882 C 997.736 885.471 991.993 886.239 989.285 886.507 z M 905.597 1065.94 C 901.962 1067.52 899.188 1068.96 896.157 1071.53 C 893.14 1072.27 890.879 1071.7 887.928 1071.06 C 885.198 1071.85 883.955 1072.5 882.381 1074.95 C 876.417 1084.23 876.625 1109.46 879.464 1119.76 C 881.006 1125.35 886.347 1131.59 889.685 1136.38 C 893.825 1138.45 897.93 1140.1 902.306 1141.61 C 903.773 1149.66 905.77 1158.15 905.909 1166.33 C 906.053 1174.87 904.041 1184.48 905.367 1192.82 C 907.001 1203.11 914.035 1213.25 918.008 1222.86 C 921.781 1231.98 923.526 1243.48 928.664 1251.81 C 931.864 1256.99 937.612 1261.15 942.297 1265 C 945.038 1263.13 946.386 1262.53 947.918 1259.52 C 947.653 1257.69 947.404 1256.34 946.536 1254.69 C 942.93 1252.72 939.446 1251.01 935.578 1249.61 C 930.54 1240.9 929.588 1232.84 932.088 1222.96 C 934.599 1213.04 939.308 1204.94 939.687 1194.4 L 941.308 1194.97 C 942.211 1193.39 941.491 1192.48 941.042 1190.82 C 940.099 1187.35 938.335 1184.29 938.616 1180.61 L 939.667 1180.01 C 942.503 1178.38 945.366 1177.04 946.24 1173.61 C 946.877 1171.1 946.979 1168.45 947.095 1165.88 C 951.271 1160.35 959.129 1153.13 958.913 1145.71 C 958.841 1143.22 957.156 1140.93 956.197 1138.71 C 952.864 1131.01 959.285 1122.43 962.697 1115.87 C 950.398 1099.37 936.034 1111.21 928.707 1092.11 C 926.618 1086.66 924.651 1085.82 919.641 1083.17 C 918.441 1080.45 917.581 1077.95 916.881 1075.06 C 916.05 1071.62 915.236 1069.57 912.043 1067.71 C 910.003 1066.52 907.897 1066.27 905.597 1065.94 z M 1128.74 1144.45 C 1123.19 1150.48 1111.34 1176.49 1112.7 1184.57 C 1112.93 1185.94 1112.99 1185.89 1113.53 1186.94 L 1114.93 1187.47 C 1127.02 1177.82 1128.36 1160.9 1130.5 1146.51 L 1129.87 1144.8 L 1128.74 1144.45 z"/>
<path transform="translate(0,0)" fill="rgb(0,0,0)" d="M 988.191 897.91 C 981.251 899.364 973.277 899.031 966.247 898.258 C 963.767 895.108 959.961 892.441 957.999 889.096 C 956.976 887.352 957.596 886.849 958.055 884.979 C 959.581 884.888 961.103 884.803 962.632 884.807 C 966.083 884.818 967.364 885.712 969.636 888.128 C 977.381 896.362 983.255 887.078 991.023 892.359 C 991.063 895.187 989.946 895.773 988.191 897.91 z"/>
<path transform="translate(0,0)" fill="rgb(0,0,0)" d="M 967.439 926.967 C 968.772 928.204 969.997 929.436 971.18 930.818 C 971.675 935.288 971.608 939.115 969 942.975 C 967.328 945.448 965.664 946.48 962.792 947.035 L 961.44 945.428 C 961.617 943.972 961.806 942.832 962.568 941.55 C 963.512 939.96 963.666 939.093 965.553 938.637 C 964.626 941.144 963.591 942.982 963.995 945.688 L 964.815 945.787 L 966.362 944.268 C 967.56 940.442 969.964 935.005 969.467 931.06 C 967.554 933.591 966.015 936.632 962.784 937.247 L 961.804 935.771 C 961.354 929.864 961.884 925.313 965.926 920.695 C 968.177 918.123 965.962 915.715 968.769 912.728 C 970.788 910.581 983.191 900.586 985.763 900.255 C 987.047 900.09 988.35 900.379 989.643 900.441 L 990.094 901.606 L 985.524 902.911 L 985.356 904.215 C 986.389 904.566 986.644 904.726 987.865 904.743 C 990.257 904.779 992.864 903.337 994.628 901.893 C 994.014 897.697 994.32 892.515 992.882 888.644 L 989.973 888.415 L 989.285 886.507 C 991.993 886.239 997.736 885.471 999.924 886.882 C 998.105 889.01 996.46 891.137 994.843 893.422 C 994.661 895.497 994.281 896.454 996.022 897.996 C 997.899 899.658 1000.69 900.518 1003.17 900.134 C 1005.66 899.75 1006.48 899.057 1007.86 897.206 L 1006.77 895.367 C 1003.41 894.781 1004.04 897.869 1000.97 899.199 C 998.976 897.445 998.181 896.515 997.392 893.963 L 998.615 892.601 C 1002.04 892.18 1005.78 892.773 1008.56 894.967 C 1010.26 896.308 1010.68 898.186 1010.83 900.325 C 1011.09 904.062 1009.82 910.134 1006.86 912.722 C 1004.69 914.623 1003.75 914.498 1001.03 914.527 C 999.725 913.188 998.381 911.944 996.973 910.711 C 993.574 913.011 991.711 918.697 988.42 921.802 C 987.613 920.122 987.77 920.086 986.098 918.934 L 984.201 920.175 L 984.136 922.709 C 981.973 923.105 979.942 923.491 977.831 924.139 L 977.641 925.465 L 981.294 926.09 L 981.106 927.014 L 981.197 926.019 C 979.797 928.277 978.958 928.073 976.466 928.794 C 976.02 927.845 975.572 926.895 975.191 925.918 L 974.868 925.066 L 973.531 925.167 L 972.636 927.89 L 971.643 927.829 L 970.782 923.475 L 969.496 922.738 L 967.647 924.292 L 967.439 926.967 z"/>
<path transform="translate(0,0)" fill="rgb(0,0,0)" d="M 1068.72 998.921 C 1067.18 995.525 1065.85 991.013 1062.48 989.249 L 1060.93 991.808 L 1059.58 991.746 L 1060.05 988.688 L 1058.45 988.299 C 1058.15 988.74 1057.86 989.189 1057.55 989.623 C 1056.59 990.976 1055.87 991.737 1054.59 992.727 C 1051.16 992.577 1048.46 991.786 1046.28 988.916 C 1044.31 986.326 1043.82 983.046 1044.6 979.935 C 1046.16 973.741 1052.99 971.854 1057.64 968.444 C 1051.21 970.869 1040.56 972.723 1035.35 976.611 C 1035.6 977.214 1035.95 977.784 1036.09 978.42 C 1036.56 980.523 1035.21 981.488 1033.89 982.9 C 1030.44 986.607 1023.92 990.961 1018.82 991.513 C 1017.47 991.659 1017.17 991.558 1016.27 990.178 C 1015.98 989.731 1015.33 987.376 1015.16 986.81 C 1012.56 984.931 1011.2 984.659 1010.46 981.46 C 1013.32 975.555 1020.03 970.479 1026.04 967.973 C 1027.23 967.474 1027.6 967.472 1028.73 967.298 L 1029.99 968.539 L 1029.56 969.499 L 1025.07 970.093 L 1025.14 971.441 C 1026.36 971.997 1026.72 972.593 1028.04 971.967 C 1029.98 971.053 1031.3 969.449 1032.75 967.922 L 1033.02 966.11 C 1030.08 964.417 1027.15 964.729 1024.23 963.493 C 1020.72 962.003 1017.59 950.247 1015.38 946.4 L 1015.8 944.447 C 1020.93 943.34 1020.3 947.851 1025.06 943.01 C 1027.97 942.657 1028.71 942.432 1031.35 943.595 C 1033.35 948.278 1029.53 955.432 1035.72 957.35 C 1036.88 957.71 1038.91 957.625 1040.06 957.669 C 1040.4 958.107 1040.74 958.548 1041.09 958.982 C 1042.57 960.846 1041.94 960.14 1043.71 961.75 C 1045.49 960.239 1045.57 960.189 1046.06 957.92 C 1045.06 955.081 1042.94 953.734 1040.68 951.935 C 1041.01 950.025 1041.04 948.612 1042.11 946.995 L 1044.85 946.844 C 1044.5 944.698 1043.83 944.006 1042.56 942.294 C 1043.35 940.506 1047.3 933.234 1047.06 931.586 C 1046.06 924.912 1040.09 918.405 1049.58 914.079 C 1051.46 913.223 1053.68 912.859 1055.7 912.541 C 1053.03 911.984 1050.63 911.826 1047.91 911.738 L 1047.5 910.629 C 1050.77 907.615 1054.46 904.702 1059.08 904.439 C 1061.48 905.4 1062.77 906.014 1063.84 908.528 C 1064.76 910.711 1065.31 913.182 1065.93 915.47 C 1070.78 916.909 1077.7 919.638 1082.51 917.854 C 1081.1 914.968 1080.35 914.201 1080.81 910.946 C 1082.59 909.262 1082.78 908.61 1085.27 908.128 C 1085.27 910.143 1085.22 912.145 1085.13 914.159 C 1087.25 914.157 1088.96 913.59 1090.97 912.998 L 1095.07 906.668 L 1100.93 920.165 L 1101.91 920.455 C 1102.49 913.688 1097.2 911.046 1097.17 905.893 C 1098.95 905.048 1099.66 905.014 1101.58 904.946 L 1101.62 903.376 C 1098.76 902.195 1097.52 902.183 1095.95 899.44 C 1097.26 896.629 1099.34 895.289 1102.28 894.182 C 1106.58 892.565 1111.61 892.616 1115.59 890.461 C 1116.51 893.752 1112.85 894.443 1115.51 896.453 L 1118.81 896.345 C 1119.63 897.833 1120.37 899.31 1121.06 900.867 C 1124.32 901.589 1127.04 901.21 1130.31 900.801 C 1133.15 900.444 1136.81 899.523 1139.61 899.917 C 1144.91 900.663 1154.98 908.775 1159.21 912.487 C 1157.88 912.916 1156.61 913.275 1155.26 913.606 L 1154.25 917.266 C 1151.89 918.397 1150.96 918.39 1148.49 917.399 C 1145.01 916.007 1141.8 913.835 1138.39 912.271 C 1146.45 918.15 1158.59 924.183 1163.17 933.136 L 1163.84 932.565 L 1163.24 928.294 C 1165.72 926.852 1166.14 926.768 1169.01 926.826 C 1175.94 932.359 1179.32 939.757 1183.42 947.417 C 1185.01 946.412 1185.48 945.453 1187.42 946.016 C 1189.28 946.555 1189.93 947.244 1191.22 948.587 C 1191.63 951.08 1191.25 952.91 1190.8 955.36 C 1194.69 967.785 1205.46 979.224 1204.89 992.412 C 1205.32 992.638 1205.76 992.853 1206.19 993.09 C 1207.58 993.857 1208.33 994.46 1209.38 995.594 L 1209.42 993.658 C 1209.48 991.76 1209.79 990.272 1210.42 988.468 C 1212.72 988.31 1211.86 987.941 1213.5 989.36 C 1215.38 990.999 1216.33 993.127 1217.4 995.333 L 1217.36 997.031 C 1215.83 996.097 1214.32 995.135 1212.82 994.148 C 1214.16 998.734 1218.45 1002.47 1219.43 1007.09 C 1220.75 1013.3 1219.79 1020.72 1220.37 1027.13 C 1221.21 1036.42 1223.59 1045.8 1223.56 1055.12 C 1221.94 1055.5 1221.89 1055.18 1220.45 1054.5 C 1219.56 1058.37 1224.41 1065.56 1225.75 1069.44 C 1226.92 1072.83 1227.35 1076.65 1228.33 1080.14 C 1231.23 1090.5 1237.04 1103.77 1229.14 1113.75 C 1227.1 1112.82 1227.1 1112.08 1226.3 1110.06 C 1224.1 1104.55 1224.58 1098.79 1219.49 1094.95 C 1217.43 1081.7 1219.06 1071.21 1215.61 1057.23 C 1215.33 1057.02 1215.04 1056.81 1214.77 1056.59 C 1210.28 1053 1207.4 1047.3 1207.02 1041.52 C 1206.71 1036.96 1207.96 1034.12 1210.62 1030.47 C 1207.78 1029.59 1204.92 1028.76 1202.04 1028 L 1201.16 1029.03 C 1201.58 1031.97 1202.14 1033.46 1200.97 1036.23 C 1198.79 1037 1198.07 1037.36 1195.78 1036.4 C 1192.87 1035.19 1189.96 1031.03 1188 1028.68 L 1186.76 1029.05 L 1186.37 1030.35 C 1185.55 1033.11 1185.12 1035.47 1182.87 1037.43 L 1179.19 1038.49 C 1178.99 1042.17 1181.64 1043.37 1182.19 1046.49 C 1182.44 1047.86 1178.26 1061.4 1178.06 1065.53 C 1178.01 1066.63 1177.87 1067.75 1177.77 1068.84 L 1175.69 1069.5 L 1177.64 1069.69 L 1175.88 1070.15 C 1173.25 1062.47 1172.97 1055.18 1171.39 1047.34 C 1171.04 1047.16 1170.69 1046.98 1170.35 1046.8 C 1165.45 1044.14 1163.08 1040.71 1159.36 1036.79 C 1148.69 1025.53 1137.46 1019.03 1122.4 1015.1 C 1122.18 1015.45 1121.97 1015.8 1121.75 1016.14 C 1119.93 1019 1118.99 1020.56 1115.8 1021.81 C 1113.3 1021.42 1112.36 1021.3 1110.55 1019.28 C 1109.61 1018.23 1108.89 1016.52 1108.23 1015.26 L 1107.25 1015.03 C 1106.4 1017.79 1105.64 1020.57 1104.95 1023.37 L 1106.07 1023.99 L 1110.02 1020.99 C 1110.25 1021.17 1110.47 1021.35 1110.7 1021.53 C 1113.19 1023.42 1115.28 1025.12 1118.6 1024.74 C 1123.41 1024.21 1127.35 1021.7 1132.05 1023.65 C 1137.4 1032.21 1129.88 1053.54 1127.89 1063.39 C 1124.42 1061.4 1122.38 1060.41 1120.49 1056.76 C 1119.76 1055.36 1118.85 1054 1118.04 1052.64 L 1116.99 1052.81 L 1116.22 1056.11 C 1112.36 1054.35 1108.82 1050.82 1105.5 1048.15 L 1105.17 1047.04 C 1104.33 1044.21 1103.77 1041.65 1103.45 1038.72 C 1102.19 1026.97 1096.81 1016.6 1087.68 1009.04 C 1087.58 1008.95 1087.47 1008.9 1087.36 1008.83 C 1087.85 1007.72 1088.64 1006.18 1088.79 1004.93 C 1089.15 1001.88 1087.96 1000.24 1086.36 997.77 C 1084.98 995.628 1084.1 994.69 1084.32 992.026 L 1085.69 990.944 C 1087.83 991.872 1089.31 992.629 1091.68 992.58 L 1093.24 990.631 C 1095.78 990.026 1097.38 991.541 1099.65 992.706 L 1100.74 991.872 C 1100.05 989.24 1099.56 986.262 1097.67 984.203 C 1096.02 982.398 1096.77 983.482 1095.59 981.39 C 1094.61 979.654 1090.62 975.632 1090.39 974.29 C 1090.12 972.657 1091.65 972.929 1090.78 970.37 C 1087.08 970.923 1082.55 972.539 1080.16 975.516 L 1080.71 977.131 C 1083.61 978.157 1086.51 979.215 1089.38 980.304 L 1090.06 982.359 C 1088.94 984.858 1088.83 985.248 1086.55 986.705 C 1082.49 986.213 1078.77 986.077 1074.93 987.727 C 1073.42 988.377 1073.13 988.575 1071.4 988.645 C 1071.09 987.184 1071.05 986.188 1070.07 985.02 C 1068.78 989.77 1068.87 994.05 1068.72 998.921 z M 1055.71 925.14 L 1055.57 927.499 L 1056.02 927.615 C 1054.85 929.109 1053.82 930.328 1052.47 931.67 C 1049.98 934.148 1048.45 938.965 1048.52 942.397 L 1049.87 944.341 C 1051.5 944.504 1052.83 944.525 1054.48 944.391 C 1056.62 944.216 1055.62 944.126 1057.69 944.731 L 1058.69 943.706 C 1057.14 939.684 1057.45 936.654 1059.22 932.641 C 1060.32 930.154 1062.68 928.94 1064.89 927.603 L 1065.57 926.101 C 1064.11 925.723 1063.3 925.937 1061.81 926.086 C 1059.35 926.333 1058.01 926.221 1055.71 925.14 z M 1065.34 960.501 C 1063.03 962.557 1062.03 964.337 1058.6 963.705 C 1058.31 963.65 1058.07 963.422 1057.8 963.281 L 1058.45 964.241 C 1060.27 966.968 1061.32 968.854 1061.91 972.074 L 1065.55 972.823 C 1067.34 971.641 1068.79 970.374 1069.19 968.116 C 1069.83 964.529 1068.13 963.291 1066.13 960.725 L 1065.34 960.501 z"/>
<path transform="translate(0,0)" fill="rgb(0,0,0)" d="M 930.837 936.926 L 929.668 935.662 C 932.688 931.014 929.177 924.63 930.966 919.497 C 932.479 919.451 933.719 919.531 935.23 919.778 C 935.739 919.861 936.245 919.96 936.753 920.052 C 935.617 917.593 935.602 917.193 935.918 914.494 L 937.443 913.298 L 939.49 914.24 C 940.091 916.263 940.726 918.14 941.598 920.062 L 943.636 920.019 C 945.533 918.813 946.908 918.53 947.585 916.302 L 944.638 915.41 C 947.252 914.416 949.377 914.536 952.104 914.646 C 952.416 917.235 952.073 918.538 951.497 921.037 C 950.343 926.044 949.934 931.813 947.409 936.361 L 944.898 935.62 L 944.368 936.616 L 944.963 938.264 C 945.543 939.902 945.882 941.445 946.134 943.169 C 943.535 945.456 941.178 945.415 937.821 946.073 C 935.388 945.18 934.044 945.106 932.954 942.522 C 932.444 941.313 932.42 939.402 932.286 938.081 L 930.837 936.926 z"/>
<path transform="translate(0,0)" fill="rgb(254,254,254)" d="M 1058.69 943.706 L 1057.69 944.731 C 1055.62 944.126 1056.62 944.216 1054.48 944.391 C 1052.83 944.525 1051.5 944.504 1049.87 944.341 L 1048.52 942.397 C 1048.45 938.965 1049.98 934.148 1052.47 931.67 C 1053.82 930.328 1054.85 929.109 1056.02 927.615 L 1055.57 927.499 L 1055.71 925.14 C 1058.01 926.221 1059.35 926.333 1061.81 926.086 C 1063.3 925.937 1064.11 925.723 1065.57 926.101 L 1064.89 927.603 C 1062.68 928.94 1060.32 930.154 1059.22 932.641 C 1057.45 936.654 1057.14 939.684 1058.69 943.706 z"/>
<path transform="translate(0,0)" fill="rgb(254,254,254)" d="M 1061.91 972.074 C 1061.32 968.854 1060.27 966.968 1058.45 964.241 L 1057.8 963.281 C 1058.07 963.422 1058.31 963.65 1058.6 963.705 C 1062.03 964.337 1063.03 962.557 1065.34 960.501 L 1066.13 960.725 C 1068.13 963.291 1069.83 964.529 1069.19 968.116 C 1068.79 970.374 1067.34 971.641 1065.55 972.823 L 1061.91 972.074 z"/>
<path transform="translate(0,0)" fill="rgb(0,0,0)" d="M 1001.63 1006.54 C 1006.57 1000.7 1011.56 997.438 1019.3 996.752 C 1024.41 996.298 1029.94 996.908 1035.07 997.162 C 1035.33 997.438 1035.58 997.718 1035.85 997.99 C 1041.85 1004.25 1046.62 1002.44 1053.28 1006.01 C 1059.12 1009.13 1064.8 1014.44 1070.03 1018.52 C 1073.87 1018.15 1075.07 1017.05 1077.62 1014.3 C 1078.91 1012.91 1080.07 1011.66 1082.1 1011.46 C 1084.78 1011.2 1086.84 1012.15 1089.13 1013.37 C 1097.62 1023.6 1094.24 1039.86 1103.53 1050.19 C 1110.1 1057.47 1131.35 1066.52 1130.42 1076.65 C 1129.09 1091.21 1110.41 1117.96 1102.86 1132.34 C 1105.89 1133.82 1109.66 1135.03 1110.87 1138.42 C 1113.87 1146.83 1108.73 1159.13 1104.61 1166.63 C 1101.45 1172.39 1091.88 1182.99 1093.58 1189.55 C 1093.75 1190.19 1094.01 1190.81 1094.21 1191.45 C 1096.38 1198.28 1087.05 1212.55 1083.84 1218.55 C 1083.78 1218.67 1083.71 1218.78 1083.65 1218.89 C 1078.12 1220.52 1072.86 1221.88 1067.14 1222.68 C 1064.29 1215.13 1061.04 1207.42 1059.9 1199.38 C 1058.83 1191.89 1058.98 1184.07 1057.35 1176.68 C 1055.91 1170.12 1051.27 1162.37 1051.24 1155.88 C 1051.2 1149.51 1053.92 1143.08 1056.48 1137.37 C 1057.01 1136.2 1057.54 1135.03 1058.08 1133.87 C 1056.66 1129.04 1054.98 1125.97 1052.03 1121.94 C 1049.75 1118.8 1047.15 1115.5 1046 1111.73 C 1043.26 1102.83 1047.25 1083.59 1034.82 1080.97 C 1033.58 1080.71 1033.72 1081.03 1032.39 1081.81 C 1031.67 1084.29 1031.49 1086.11 1031.6 1088.68 C 1029.4 1088.48 1028.82 1088.12 1026.98 1087.03 C 1024.34 1088.13 1022.1 1089.34 1019.65 1090.83 C 1015.51 1093.35 1011.33 1095.1 1006.43 1093.72 C 1000.67 1092.1 996.897 1086.68 994.389 1081.58 C 990.377 1073.44 985.636 1057.29 988.793 1048.5 C 989.772 1045.78 990.978 1043.06 993.06 1041.02 C 993.356 1043.91 993.369 1046.72 993.339 1049.62 C 995.23 1047.96 994.51 1049.1 994.966 1046.47 C 995.347 1044.28 996.115 1042.89 997.233 1041 C 1000.31 1035.8 1000.95 1029.37 1001.97 1023.47 C 996.665 1020.07 994.212 1018.25 991.462 1012.46 L 995.265 1012.44 C 997.119 1013.89 998.199 1015 1000.63 1015.21 C 1002.69 1014.38 1005.09 1014.01 1006.19 1012.04 C 1005.02 1009.2 1003.98 1008.34 1001.63 1006.54 z"/>
<path transform="translate(0,0)" fill="rgb(0,0,0)" d="M 889.685 1136.38 C 886.347 1131.59 881.006 1125.35 879.464 1119.76 C 876.625 1109.46 876.417 1084.23 882.381 1074.95 C 883.955 1072.5 885.198 1071.85 887.928 1071.06 C 890.879 1071.7 893.14 1072.27 896.157 1071.53 C 899.188 1068.96 901.962 1067.52 905.597 1065.94 C 907.897 1066.27 910.003 1066.52 912.043 1067.71 C 915.236 1069.57 916.05 1071.62 916.881 1075.06 C 917.581 1077.95 918.441 1080.45 919.641 1083.17 C 924.651 1085.82 926.618 1086.66 928.707 1092.11 C 936.034 1111.21 950.398 1099.37 962.697 1115.87 C 959.285 1122.43 952.864 1131.01 956.197 1138.71 C 957.156 1140.93 958.841 1143.22 958.913 1145.71 C 959.129 1153.13 951.271 1160.35 947.095 1165.88 C 946.979 1168.45 946.877 1171.1 946.24 1173.61 C 945.366 1177.04 942.503 1178.38 939.667 1180.01 L 938.616 1180.61 C 938.335 1184.29 940.099 1187.35 941.042 1190.82 C 941.491 1192.48 942.211 1193.39 941.308 1194.97 L 939.687 1194.4 C 939.308 1204.94 934.599 1213.04 932.088 1222.96 C 929.588 1232.84 930.54 1240.9 935.578 1249.61 C 939.446 1251.01 942.93 1252.72 946.536 1254.69 C 947.404 1256.34 947.653 1257.69 947.918 1259.52 C 946.386 1262.53 945.038 1263.13 942.297 1265 C 937.612 1261.15 931.864 1256.99 928.664 1251.81 C 923.526 1243.48 921.781 1231.98 918.008 1222.86 C 914.035 1213.25 907.001 1203.11 905.367 1192.82 C 904.041 1184.48 906.053 1174.87 905.909 1166.33 C 905.77 1158.15 903.773 1149.66 902.306 1141.61 C 897.93 1140.1 893.825 1138.45 889.685 1136.38 z"/>
<path transform="translate(0,0)" fill="rgb(0,0,0)" d="M 1114.93 1187.47 L 1113.53 1186.94 C 1112.99 1185.89 1112.93 1185.94 1112.7 1184.57 C 1111.34 1176.49 1123.19 1150.48 1128.74 1144.45 L 1129.87 1144.8 L 1130.5 1146.51 C 1128.36 1160.9 1127.02 1177.82 1114.93 1187.47 z"/>
<path transform="translate(0,0)" fill="rgb(254,254,254)" d="M 821.812 1662.67 C 818.751 1641.25 911.877 1592.79 928.728 1582.84 C 940.452 1575.92 952.195 1568.73 962.835 1560.21 C 981.562 1545.22 994.757 1526.71 1007.58 1506.73 C 1007.81 1508.2 1007.85 1508.24 1007.91 1509.99 C 1009.07 1544.31 986.824 1581.87 963.172 1605.18 C 944.066 1624.02 917.721 1644.7 891.684 1652.61 C 881.204 1655.8 869.875 1657.08 859.077 1658.75 C 846.764 1660.67 834.307 1662.77 821.812 1662.67 z"/>
<path transform="translate(0,0)" fill="rgb(254,254,254)" d="M 1227.32 1662.93 C 1224.76 1663.01 1222.19 1663.05 1219.62 1663.03 C 1209.23 1662.93 1198.72 1660.58 1188.49 1658.82 C 1177.98 1657.02 1166.31 1655.96 1156.23 1652.64 C 1129.37 1643.79 1098.57 1618.16 1079.15 1598.04 C 1056.46 1574.54 1040.57 1544.24 1041.26 1510.84 C 1044.11 1513.73 1046.23 1518.64 1048.65 1522.03 C 1057.72 1534.74 1068.01 1547.19 1080.39 1556.81 C 1132.38 1597.19 1188.91 1602.46 1227.32 1662.93 z"/>
<path transform="translate(0,0)" fill="rgb(254,254,254)" d="M 1128.06 1773.56 C 1116.5 1763.17 1105.51 1752.55 1095.87 1740.32 C 1085.69 1727.38 1077.03 1713.74 1070.06 1698.82 C 1055.42 1667.49 1030.49 1582.62 1034.49 1549.86 C 1034.9 1550.28 1047.93 1579.71 1052.46 1585.99 C 1071.1 1611.83 1090.82 1626.41 1111 1648.96 C 1128.54 1668.55 1139.4 1690.32 1149.65 1714.21 C 1146.39 1729.81 1141.77 1743.74 1135.41 1758.29 L 1128.06 1773.56 z"/>
<path transform="translate(0,0)" fill="rgb(254,254,254)" d="M 896.234 1716.04 C 910.071 1681.85 926.011 1659.88 952.229 1634.19 C 963.522 1623.13 975.068 1612.18 984.98 1599.82 C 996.874 1585 1005.4 1568.73 1013.58 1551.7 C 1014.46 1552.54 1014.77 1553.18 1014.91 1554.45 C 1015.43 1559.11 1013.88 1565.59 1013.19 1570.36 C 1007.9 1607.27 990.582 1678.28 972.875 1710.51 C 960.344 1733.33 941.21 1755.25 922.31 1773.03 C 918.904 1768.02 915.884 1762.66 912.754 1757.47 C 905.775 1743.88 900.574 1730.67 896.234 1716.04 z"/>
<path transform="translate(0,0)" fill="rgb(254,254,254)" d="M 1024.42 1910.43 C 1023.48 1909.49 1023.12 1909.21 1022.34 1907.94 C 1019.51 1903.36 1017.49 1897.46 1015.3 1892.51 C 1009.28 1878.89 1003.46 1865.29 999.511 1850.89 C 989.553 1814.58 980.024 1740.76 988.478 1704.81 C 991.013 1694.03 995.483 1683.58 998.987 1673.08 C 1008.33 1645.07 1018.81 1616.05 1023.56 1586.85 C 1024.61 1588.12 1024.22 1587.39 1024.7 1589.32 C 1031.58 1616.11 1039.33 1642.68 1047.95 1668.97 C 1052.31 1682.53 1057.91 1696.12 1061.03 1710.03 C 1067.85 1740.49 1051.25 1836 1041.13 1868.08 C 1036.74 1882 1029.02 1894.63 1024.91 1908.71 L 1024.42 1910.43 z"/>
<path transform="translate(0,0)" fill="rgb(254,254,254)" d="M 1257.66 1717.43 C 1233.52 1698.79 1205.77 1683.26 1179.35 1668.11 C 1187.19 1668.87 1195.17 1670.92 1203.01 1671.99 C 1213.35 1673.4 1223.74 1673.62 1234.14 1673.86 C 1243.07 1687.59 1250.14 1702.88 1257.66 1717.43 z"/>
<path transform="translate(0,0)" fill="rgb(254,254,254)" d="M 814.573 1672.23 C 827.431 1672.07 840.168 1671.44 852.994 1670.53 C 853.367 1670.69 853.487 1671.18 853.689 1671.53 C 834.902 1682.23 817.617 1695.63 800.975 1709.38 L 800.754 1709.28 C 799.041 1702.71 810.789 1679 814.573 1672.23 z"/>
</svg>